<?xml version="1.0" encoding="utf-8"?>
<!-- Generator: Adobe Illustrator 19.2.0, SVG Export Plug-In . SVG Version: 6.00 Build 0)  -->
<svg version="1.1" id="Lager_1" xmlns="http://www.w3.org/2000/svg" xmlns:xlink="http://www.w3.org/1999/xlink" x="0px" y="0px"
	 viewBox="0 0 398.9 100.9" style="enable-background:new 0 0 398.9 100.9;" xml:space="preserve">
<style type="text/css">
	.st0{fill:#7F4F12;}
	.st1{fill:#563A1C;}
	.st2{opacity:0.6;fill:#563A1C;}
	.st3{fill:#CEE1EC;}
	.st4{fill:#5E98BE;}
	.st5{opacity:0.1;fill:#5E98BE;}
	.st6{fill:#A55B16;}
	.st7{fill:#894B16;}
	.st8{fill:#6D7F3B;}
	.st9{fill:#5E6E30;}
	.st10{opacity:0.4;fill:#5E6E30;}
	.st11{fill:#6D843A;}
	.st12{opacity:0.7;}
	.st13{fill:#56642B;}
	.st14{fill:#798E41;}
	.st15{fill:#6C7C35;}
	.st16{opacity:0.4;}
	.st17{fill:url(#SVGID_1_);}
	.st18{fill:#E09D20;}
	.st19{opacity:0.8;fill:#FFFFFF;}
	.st20{fill:url(#SVGID_2_);}
	.st21{fill:#FFD941;}
	.st22{fill:#F7A60B;}
	.st23{opacity:0.6;fill:#FAB722;}
	.st24{opacity:0.4;fill:#EFAF12;}
	.st25{fill:#FECD41;}
	.st26{fill:#FAB722;}
	.st27{fill:#5E71A3;}
	.st28{fill:#354366;}
	.st29{fill:#495682;}
	.st30{fill:#58699F;}
	.st31{fill:#6579AB;}
	.st32{opacity:0.5;}
	.st33{fill:#7697A9;}
	.st34{opacity:0.3;fill:#7697A9;}
	.st35{opacity:0.3;fill:none;stroke:#7697A9;stroke-width:2;stroke-linecap:round;stroke-miterlimit:10;}
	.st36{fill:#D391BF;}
	.st37{fill:#D391BF;stroke:#282829;stroke-width:1.4451;stroke-miterlimit:10;}
	.st38{fill:none;stroke:#282829;stroke-width:1.4451;stroke-miterlimit:10;}
	.st39{fill:#EBB7D5;}
	.st40{fill:#282829;}
	.st41{fill:#CB6DA9;stroke:#282829;stroke-width:1.4451;stroke-miterlimit:10;}
	.st42{fill:#CB6DA9;}
	.st43{fill:#803461;stroke:#282829;stroke-width:0.7226;stroke-miterlimit:10;}
	.st44{fill:none;stroke:#272727;stroke-width:1.4451;stroke-miterlimit:10;}
	.st45{fill:#FFFFFF;stroke:#272727;stroke-width:1.4451;stroke-miterlimit:10;}
	.st46{fill:#803461;}
	.st47{fill:#010202;}
	.st48{fill:#FFFFFF;}
	.st49{fill:#FFFFFF;stroke:#010202;stroke-width:0.7226;stroke-miterlimit:10;}
	.st50{fill:#803461;stroke:#282829;stroke-width:1.4451;stroke-miterlimit:10;}
	.st51{fill:#803461;stroke:#272727;stroke-width:1.4451;stroke-miterlimit:10;}
	.st52{fill:#020203;}
	.st53{fill:#E8B5D4;stroke:#272727;stroke-width:1.4451;stroke-miterlimit:10;}
	.st54{fill:#522040;}
	.st55{fill:#272727;}
	.st56{opacity:0.1;}
	.st57{opacity:0.2;fill:none;stroke:#7697A9;stroke-width:1.2979;stroke-linecap:round;stroke-miterlimit:10;}
	.st58{fill:#5F8AC7;}
	.st59{fill:#40507D;}
	.st60{fill:none;stroke:#5E98BE;stroke-miterlimit:10;}
	.st61{fill:none;stroke:#5E98BE;stroke-miterlimit:10;stroke-dasharray:2.9508,2.9508;}
	.st62{opacity:0.15;fill:#5E98BE;}
	.st63{opacity:0.3;fill:#5E98BE;}
	.st64{fill:#9CC1E7;}
	.st65{opacity:0.2;fill:#5E98BE;}
	.st66{fill:#79A3C9;}
	.st67{opacity:0.3;fill:none;stroke:#7697A9;stroke-width:1.0565;stroke-linecap:round;stroke-miterlimit:10;}
	.st68{opacity:0.3;fill:none;stroke:#7697A9;stroke-width:1.7202;stroke-linecap:round;stroke-miterlimit:10;}
	.st69{fill:#D391BF;stroke:#282829;stroke-width:1.287;stroke-miterlimit:10;}
	.st70{fill:none;stroke:#282829;stroke-width:1.287;stroke-miterlimit:10;}
	.st71{fill:#CB6DA9;stroke:#282829;stroke-width:1.287;stroke-miterlimit:10;}
	.st72{fill:#803461;stroke:#282829;stroke-width:0.6435;stroke-miterlimit:10;}
	.st73{fill:none;stroke:#272727;stroke-width:1.287;stroke-miterlimit:10;}
	.st74{fill:#FFFFFF;stroke:#272727;stroke-width:1.287;stroke-miterlimit:10;}
	.st75{fill:#FFFFFF;stroke:#010202;stroke-width:0.6435;stroke-miterlimit:10;}
	.st76{fill:#803461;stroke:#282829;stroke-width:1.287;stroke-miterlimit:10;}
	.st77{fill:#803461;stroke:#272727;stroke-width:1.287;stroke-miterlimit:10;}
	.st78{fill:#E8B5D4;stroke:#272727;stroke-width:1.287;stroke-miterlimit:10;}
	.st79{fill:none;stroke:#5E98BE;stroke-width:2.11;stroke-miterlimit:10;}
	.st80{fill:none;stroke:#5E98BE;stroke-width:2.11;stroke-miterlimit:10;stroke-dasharray:6.3327,6.3327;}
	.st81{fill:#D391BF;stroke:#282829;stroke-width:1.1143;stroke-miterlimit:10;}
	.st82{fill:none;stroke:#282829;stroke-width:1.1143;stroke-miterlimit:10;}
	.st83{fill:#CB6DA9;stroke:#282829;stroke-width:1.1143;stroke-miterlimit:10;}
	.st84{fill:#803461;stroke:#282829;stroke-width:0.5571;stroke-miterlimit:10;}
	.st85{fill:none;stroke:#272727;stroke-width:1.1143;stroke-miterlimit:10;}
	.st86{fill:#FFFFFF;stroke:#272727;stroke-width:1.1143;stroke-miterlimit:10;}
	.st87{fill:#FFFFFF;stroke:#010202;stroke-width:0.5571;stroke-miterlimit:10;}
	.st88{fill:#803461;stroke:#282829;stroke-width:1.1143;stroke-miterlimit:10;}
	.st89{fill:#803461;stroke:#272727;stroke-width:1.1143;stroke-miterlimit:10;}
	.st90{fill:#E8B5D4;stroke:#272727;stroke-width:1.1143;stroke-miterlimit:10;}
	.st91{fill:none;stroke:#5E98BE;stroke-width:2.11;stroke-miterlimit:10;stroke-dasharray:6.31,6.31;}
	.st92{fill:none;stroke:#5E98BE;stroke-width:2.2032;stroke-miterlimit:10;}
	.st93{fill:none;stroke:#5E98BE;stroke-width:2.2032;stroke-miterlimit:10;stroke-dasharray:6.5885,6.5885;}
	.st94{opacity:0.3;fill:none;stroke:#7697A9;stroke-width:1.0903;stroke-linecap:round;stroke-miterlimit:10;}
</style>
<g>
	<g>
		<path class="st3" d="M7.2,47.9c7.9-17.4,32.1-35.6,94-43.6c27.2-3.5,40.4-3.7,89.8,0.8c49.5,4.6,95.2,0.5,123.3,7.6
			c70.6,17.9,78,39.2,78,39.2s-12.1,4.8-15.8,8.8c-3.7,4-15.8,25.1-70.3,33s-195.5,6.2-216.1,2.2S46.2,81.8,25.1,66
			S7.2,47.9,7.2,47.9z"/>
		<g>
			<path class="st4" d="M7,47.9L7,47.9c1.8-3.9,4.1-7.6,7-10.8c2.8-3.3,6.1-6.1,9.5-8.6c7-5.1,14.7-9,22.7-12.1
				c8-3.1,16.3-5.6,24.6-7.6c8.3-2,16.8-3.6,25.3-4.8c4.3-0.6,8.5-1.2,12.7-1.7c4.3-0.5,8.5-0.9,12.8-1.2c8.6-0.6,17.2-0.6,25.8-0.3
				c8.6,0.3,17.1,1,25.6,1.7l25.5,2.3c17,1.4,34.1,1.9,51.2,2.4c8.5,0.2,17.1,0.4,25.6,0.8c8.5,0.4,17.1,0.9,25.6,2
				c4.2,0.6,8.5,1.3,12.7,2.3c4.2,1.1,8.3,2.2,12.4,3.4c8.2,2.3,16.4,5,24.4,8.1c8,3.1,15.8,6.6,23.3,10.9c3.7,2.2,7.3,4.5,10.7,7.3
				c1.7,1.4,3.3,2.8,4.7,4.4c0.7,0.8,1.4,1.6,2.1,2.5c0.7,0.9,1.2,1.8,1.7,2.9l0.3,0.7l-0.7,0.3c-3.9,1.6-7.8,3.5-11.4,5.6
				c-0.9,0.6-1.8,1.1-2.6,1.8c-0.4,0.3-0.8,0.6-1.1,1c-0.3,0.3-0.7,0.7-1,1.1c-1.3,1.7-2.7,3.4-4.2,5c-6,6.4-13.4,11.3-21.2,15.1
				c-7.8,3.8-16.1,6.6-24.4,8.8c-8.4,2.2-16.9,3.7-25.5,4.8c-8.6,1.1-17.2,1.8-25.8,2.4c-8.6,0.6-17.2,1-25.8,1.4
				c-8.6,0.4-17.2,0.6-25.8,0.8c-8.6,0.2-17.2,0.3-25.8,0.3c-8.6,0.1-17.2,0.1-25.8,0c-8.6-0.1-17.2-0.1-25.8-0.4
				c-8.6-0.2-17.2-0.5-25.8-0.9c-8.6-0.4-17.2-0.8-25.8-1.7c-8.7-1-17-3.6-25.2-6.5c-4.1-1.5-8-3.2-12-5c-3.9-1.8-7.8-3.8-11.5-5.9
				c-7.6-4.2-14.7-9-21.6-14.2c-3.4-2.6-6.8-5.3-10-8.2C13,56.5,11.5,55,10,53.4c-0.7-0.8-1.4-1.6-2-2.5c-0.3-0.4-0.6-0.9-0.8-1.4
				C7,49.2,6.9,49,6.9,48.7C6.8,48.4,6.8,48.2,7,47.9z M7.2,48c-0.1,0.1-0.1,0.4-0.1,0.6c0,0.2,0.1,0.5,0.2,0.7
				c0.2,0.5,0.5,0.9,0.8,1.3c0.6,0.9,1.3,1.7,2.1,2.4c1.5,1.5,3.1,3,4.7,4.4c3.3,2.8,6.7,5.4,10.1,7.9c6.9,5,14.2,9.6,21.7,13.7
				c3.8,2,7.6,3.9,11.5,5.6c3.9,1.7,7.9,3.3,11.9,4.7c4,1.4,8.1,2.6,12.3,3.7c2.1,0.5,4.1,1,6.2,1.4c2.1,0.5,4.1,0.7,6.3,0.9
				c8.5,0.8,17.1,1.2,25.7,1.5c8.6,0.3,17.2,0.5,25.7,0.6c17.2,0.2,34.3,0.4,51.5,0.2c8.6-0.1,17.2-0.2,25.8-0.4
				c8.6-0.2,17.2-0.4,25.7-0.8c8.6-0.3,17.1-0.7,25.7-1.3c8.6-0.6,17.1-1.2,25.6-2.2c8.5-1.1,16.9-2.5,25.2-4.5
				c8.3-2,16.4-4.7,24.1-8.4c7.7-3.6,14.9-8.3,20.8-14.4c1.5-1.5,2.8-3.1,4.2-4.8c0.4-0.4,0.7-0.8,1.2-1.3c0.4-0.4,0.9-0.8,1.3-1.1
				c0.9-0.7,1.8-1.3,2.8-1.8c3.8-2.2,7.7-4,11.7-5.6l-0.4,1c-0.3-0.8-0.9-1.8-1.5-2.6c-0.6-0.8-1.3-1.7-2-2.4
				c-1.4-1.6-2.9-3-4.6-4.4c-3.2-2.7-6.8-5.1-10.4-7.3c-3.6-2.2-7.4-4.2-11.3-6c-3.8-1.8-7.8-3.5-11.8-5c-7.9-3.1-16.1-5.8-24.3-8.1
				c-4.1-1.2-8.2-2.3-12.4-3.3c-4.1-1-8.3-1.7-12.6-2.2c-8.5-1.1-17-1.5-25.5-1.8c-8.5-0.2-17.1-0.3-25.6-0.4
				c-17.1-0.2-34.2-0.5-51.3-1.6c-4.3-0.3-8.5-0.7-12.8-1l-12.8-1.1c-8.5-0.7-17-1.2-25.5-1.6c-8.5-0.4-17-0.4-25.5,0.2
				c-4.2,0.3-8.5,0.7-12.7,1.1c-4.2,0.5-8.5,1-12.7,1.6C88,7.2,79.6,8.7,71.3,10.5c-8.3,1.9-16.5,4.2-24.5,7.2
				c-7.9,3-15.7,6.6-22.7,11.5C17.2,34,11,40.2,7.2,48L7.2,48L7.2,48z"/>
		</g>
	</g>
	<g>
		<path class="st4" d="M364.5,61.7c0,0,0.3,0,0.8-0.1c0.5-0.1,1.2-0.2,2-0.4c1.6-0.4,3.8-0.9,5.9-1.7c1-0.4,2-0.9,3-1.3
			c0.5-0.2,0.9-0.4,1.4-0.6c0.4-0.2,0.9-0.3,1.2-0.5c0.4-0.2,0.7-0.3,1.1-0.4c0.3-0.1,0.6-0.2,0.8-0.3c0.5-0.2,0.8-0.3,0.8-0.3
			l0.1,0.1c0,0-0.2,0.2-0.5,0.6c-0.2,0.2-0.4,0.4-0.7,0.6c-0.3,0.2-0.6,0.5-0.9,0.7c-0.4,0.3-0.8,0.5-1.2,0.8
			c-0.4,0.3-0.9,0.5-1.4,0.7c-1,0.4-2.1,0.7-3.2,1c-2.2,0.6-4.5,0.9-6.2,1c-0.9,0.1-1.6,0.1-2.1,0.1c-0.5,0-0.8-0.1-0.8-0.1
			L364.5,61.7z"/>
	</g>
	<g>
		<path class="st33" d="M392.3,51.9c0,0-1.4-0.6-4.1-1.4c-2.7-0.9-6.7-2-11.9-3.2c-5.2-1.2-11.5-2.4-18.9-3.3
			c-7.3-0.9-15.7-1.5-24.8-1.6c-9.1-0.1-18.9,0.3-29.3,1.6c-2.6,0.3-5.2,0.7-7.8,1c-2.6,0.4-5.3,0.9-8,1.3
			c-5.4,0.9-10.9,1.9-16.6,2.7c-2.8,0.4-5.7,0.8-8.6,1.2c-2.9,0.3-5.8,0.7-8.7,1c-1.5,0.2-2.9,0.3-4.4,0.5c-1.5,0.1-2.9,0.3-4.4,0.4
			c-3,0.3-5.9,0.6-8.9,0.8c-12,1-24.2,1.5-36.4,1.7c-12.2,0.1-24.4-0.4-36.4-1.3c-12-0.9-23.7-2.4-35-4c-11.3-1.6-22.2-3.7-32.4-5.8
			c-10.2-2.1-20-3.5-29-4.2c-9.1-0.7-17.4-0.5-24.7,0.2c-7.3,0.8-13.6,2.2-18.7,3.7c-5.1,1.5-9.1,2.8-11.8,3.6
			C10,47.3,9,47.5,8.2,47.7c-0.7,0.1-1.1,0.2-1.1,0.2s0.4-0.1,1.1-0.3c0.7-0.2,1.8-0.5,3.1-0.9c2.7-0.8,6.6-2.3,11.7-4
			c5.1-1.6,11.4-3.3,18.8-4.3c3.7-0.5,7.6-0.9,11.8-1c4.2-0.1,8.6-0.1,13.2,0.2c9.1,0.5,19,1.8,29.3,3.7c5.2,0.9,10.4,1.9,15.8,2.8
			c2.7,0.5,5.4,0.9,8.2,1.4c2.8,0.4,5.6,0.8,8.4,1.2c11.3,1.6,22.9,3,34.8,3.8c11.9,0.8,24,1.2,36.2,1.2c12.1-0.1,24.2-0.6,36.2-1.5
			c3-0.3,5.9-0.5,8.9-0.8c1.5-0.1,2.9-0.3,4.4-0.4c1.5-0.2,2.9-0.3,4.4-0.5c2.9-0.3,5.8-0.7,8.7-1c2.9-0.4,5.7-0.8,8.5-1.2
			c5.6-0.7,11.2-1.6,16.6-2.4c2.7-0.4,5.4-0.8,8.1-1.2c2.7-0.3,5.3-0.7,7.9-0.9c10.4-1.1,20.4-1.4,29.5-1.1
			c18.3,0.5,33.4,3.3,43.7,5.9c5.2,1.3,9.1,2.6,11.8,3.6C390.9,51.3,392.3,51.9,392.3,51.9z"/>
	</g>
	<path class="st34" d="M7.2,47.9c-1.5,5.1,42.8,42.3,82.9,48s179.3,4.7,216.1-2.2C343,86.8,362,75.3,369.9,68s6.5-7.4,6.5-7.4
		l15.8-8.8c0,0-46.3-15.2-93-8.1S204.8,55,162.2,51.9c-37.7-2.8-88.5-14.6-105.9-14.3C42.3,37.8,7.2,47.9,7.2,47.9z"/>
	<g>
		<path class="st4" d="M258.5,8.4c0,0-0.4,0-1.1-0.1c-0.7,0-1.7,0-2.9,0c-2.4,0.1-5.7,0.4-8.9,1c-3.2,0.6-6.4,1.5-8.7,2.3
			c-1.2,0.4-2.1,0.8-2.7,1.1c-0.6,0.3-1,0.5-1,0.5s0.4-0.2,1-0.5c0.6-0.3,1.6-0.8,2.7-1.2c2.3-0.9,5.4-2,8.6-2.7
			c3.2-0.7,6.5-1.2,8.9-1.4c1.2-0.1,2.3-0.1,3-0.1c0.7,0,1.1,0,1.1,0L258.5,8.4z"/>
	</g>
	<path class="st67" d="M37.5,39.4c0-5,6.8-11,6.8-11"/>
	<path class="st67" d="M52.7,38.6c-3.4,3-4.2,10.6-3.1,15.1"/>
	<path class="st67" d="M64.2,37.5c0.5-1.9,2.4-5.8,6.3-8"/>
	<path class="st67" d="M336.6,42.9c2.8,2.4,5.6,9.8,5.6,13"/>
	<path class="st67" d="M346.5,43.5c2.6,2.6,6.3,10.6,4.9,20.5"/>
	<path class="st67" d="M162.2,52.5c-2.3,5.1-3.4,17.1-2,25.2"/>
	<path class="st67" d="M305.6,42.5c-1.4-4.3-3.8-8.9-7.1-10.9"/>
	<path class="st63" d="M13.6,45.8c1.2,2.9,10.7,3.3,18.6,2C45,45.7,58.1,45,79.6,47.3s33.2,4.7,50.1,8c24.1,4.8,38.3,6.2,76.7,5.1
		s71.1-6.8,88-9.3c16.9-2.5,49.3-3.1,60.9-1.6c28.8,3.7,27.8,2.1,30.6,1.5c2.9-0.7,1-0.5-15.2-5.3s-35.5-6.8-47-4.9
		c-11.5,1.8-37.6,6.1-56.1,7.7c-18.5,1.6-42.9,7.3-76.4,5.6c-33.5-1.7-79.1-7.2-93.1-11.5s-40-3.6-53.8-2.5
		C30.5,41.2,13.6,45.8,13.6,45.8z"/>
	<g>
		<ellipse transform="matrix(0.6749 -0.7379 0.7379 0.6749 -33.0744 19.5296)" class="st66" cx="5.6" cy="47.3" rx="4.9" ry="4.9"/>
		<g>
			<path class="st59" d="M2.3,51c0,0-0.1-0.1-0.2-0.2c-0.2-0.2-0.4-0.4-0.6-0.8c-0.2-0.4-0.5-0.8-0.7-1.4c-0.2-0.6-0.3-1.3-0.2-2
				c0.1-0.8,0.4-1.6,0.9-2.3c0.1-0.2,0.3-0.3,0.4-0.5c0.2-0.1,0.3-0.3,0.5-0.4c0.4-0.3,0.8-0.5,1.2-0.7c0.9-0.3,1.9-0.5,2.8-0.3
				c1,0.1,1.9,0.6,2.7,1.2c0.4,0.3,0.7,0.7,1,1.1c0.3,0.4,0.5,0.9,0.6,1.4c0.3,1,0.2,2-0.1,2.9c-0.3,0.9-0.9,1.7-1.5,2.3
				c-0.7,0.6-1.5,0.9-2.2,1.1c-0.8,0.2-1.5,0.1-2.1,0c-0.6-0.1-1.1-0.4-1.5-0.6c-0.4-0.2-0.6-0.4-0.8-0.6C2.4,51.1,2.3,51,2.3,51z
				 M2.3,50.9c0,0,0.1,0.1,0.3,0.2c0.2,0.1,0.4,0.3,0.8,0.5c0.7,0.4,2,0.6,3.3,0.2c0.7-0.2,1.3-0.6,1.9-1.1c0.6-0.5,1.1-1.2,1.4-2
				c0.3-0.8,0.3-1.7,0.2-2.6c-0.2-0.9-0.6-1.7-1.3-2.4c-0.3-0.3-0.7-0.6-1.1-0.8c-0.4-0.2-0.9-0.4-1.3-0.4c-0.9-0.1-1.9,0-2.7,0.4
				c-0.4,0.2-0.8,0.4-1.1,0.7c-0.2,0.1-0.3,0.3-0.4,0.5c-0.1,0.1-0.3,0.3-0.4,0.5c-0.4,0.7-0.7,1.4-0.9,2c-0.3,1.4,0.1,2.6,0.5,3.3
				c0.2,0.4,0.4,0.6,0.6,0.8C2.2,50.8,2.3,50.9,2.3,50.9z"/>
		</g>
	</g>
	<g>
		<g>
			
				<ellipse transform="matrix(0.999 -4.450371e-002 4.450371e-002 0.999 -1.6583 3.2466)" class="st64" cx="72.1" cy="38.9" rx="2.9" ry="2.9"/>
			<g>
				<path class="st59" d="M72,35.9c0,0,0.3,0,0.8,0.1c0.5,0.1,1.2,0.3,1.8,1c0.3,0.4,0.5,0.8,0.6,1.4c0,0.1,0,0.3,0,0.4
					c0,0.1,0,0.2,0,0.4c0,0.3-0.1,0.5-0.2,0.8c-0.5,1-1.5,1.8-2.7,1.9c-0.6,0.1-1.2-0.1-1.8-0.4c-0.5-0.3-1-0.8-1.2-1.3
					c-0.3-0.5-0.4-1.1-0.3-1.6c0-0.6,0.2-1,0.5-1.4c0.5-0.8,1.3-1.1,1.8-1.2C71.7,35.9,72,35.9,72,35.9z M72,36c0,0-0.1,0-0.2,0
					c-0.1,0-0.3,0-0.6,0.1c-0.5,0.2-1.1,0.6-1.4,1.3c-0.2,0.3-0.3,0.8-0.3,1.2c0,0.5,0.1,0.9,0.3,1.4c0.4,0.9,1.4,1.6,2.5,1.6
					c0.5,0,1.1-0.2,1.5-0.5c0.4-0.3,0.8-0.8,0.9-1.3c0.1-0.2,0.1-0.5,0.1-0.7c0-0.1,0-0.2,0-0.4c0-0.1,0-0.2,0-0.3
					c-0.1-0.4-0.3-0.8-0.5-1.2c-0.4-0.7-1.1-1.1-1.5-1.2C72.5,36,72.3,36,72.2,36C72,36,72,36,72,36z"/>
			</g>
		</g>
		<g>
			<ellipse transform="matrix(0.7071 -0.7071 0.7071 0.7071 -5.6757 66.9357)" class="st64" cx="78" cy="40.3" rx="2.9" ry="2.9"/>
			<g>
				<path class="st59" d="M80,38.2c0,0,0.2,0.2,0.5,0.6c0.3,0.4,0.6,1.1,0.5,2.1c-0.1,0.5-0.3,0.9-0.6,1.3c-0.1,0.1-0.2,0.2-0.3,0.3
					c-0.1,0.1-0.2,0.2-0.3,0.2c-0.2,0.2-0.5,0.3-0.8,0.4c-1.1,0.3-2.3,0.1-3.2-0.7c-0.4-0.4-0.8-0.9-0.9-1.5
					c-0.1-0.6-0.1-1.2,0.1-1.8c0.2-0.5,0.6-1,1-1.3c0.4-0.3,0.9-0.5,1.4-0.6c0.9-0.1,1.6,0.2,2.1,0.5C79.8,38,80,38.2,80,38.2z
					 M80,38.3c0,0-0.1,0-0.2-0.1c-0.1-0.1-0.3-0.2-0.5-0.3c-0.4-0.2-1.2-0.4-1.9-0.2c-0.4,0.1-0.8,0.3-1.1,0.6
					c-0.4,0.3-0.6,0.7-0.8,1.1c-0.4,0.9-0.2,2.1,0.5,2.9c0.4,0.4,0.9,0.7,1.4,0.8c0.5,0.1,1.1,0,1.6-0.2c0.2-0.1,0.4-0.2,0.6-0.4
					c0.1-0.1,0.2-0.2,0.3-0.3c0.1-0.1,0.2-0.2,0.2-0.3c0.3-0.4,0.4-0.8,0.5-1.1c0.2-0.8,0.1-1.5-0.2-1.9c-0.1-0.2-0.2-0.4-0.3-0.5
					C80,38.3,80,38.3,80,38.3z"/>
			</g>
		</g>
		<g>
			
				<ellipse transform="matrix(0.9287 -0.3709 0.3709 0.9287 -9.3179 33.9288)" class="st64" cx="83.6" cy="41.2" rx="2.9" ry="2.9"/>
			<g>
				<path class="st59" d="M82.5,38.5c0,0,0.3-0.1,0.8-0.2c0.5-0.1,1.3-0.1,2.1,0.4c0.4,0.2,0.8,0.6,1,1.1c0.1,0.1,0.1,0.2,0.2,0.4
					c0,0.1,0.1,0.2,0.1,0.4c0.1,0.3,0.1,0.6,0,0.8c-0.1,1.1-0.8,2.2-1.9,2.7c-0.5,0.3-1.2,0.3-1.8,0.2c-0.6-0.1-1.1-0.4-1.6-0.8
					c-0.4-0.4-0.7-0.9-0.8-1.4c-0.1-0.5-0.1-1,0-1.5c0.3-0.9,0.9-1.4,1.3-1.7C82.2,38.6,82.5,38.5,82.5,38.5z M82.5,38.5
					c0,0-0.1,0-0.2,0.1c-0.1,0.1-0.3,0.2-0.5,0.3c-0.4,0.3-0.8,0.9-0.9,1.7c-0.1,0.4,0,0.8,0.1,1.2c0.1,0.4,0.4,0.8,0.7,1.2
					c0.7,0.7,1.8,1,2.9,0.7c0.5-0.2,1-0.5,1.3-1c0.3-0.5,0.5-1,0.4-1.5c0-0.3,0-0.5-0.1-0.7c0-0.1-0.1-0.2-0.1-0.3
					c0-0.1-0.1-0.2-0.1-0.3c-0.2-0.4-0.5-0.7-0.8-1c-0.6-0.5-1.4-0.7-1.8-0.6c-0.2,0-0.4,0.1-0.6,0.1C82.6,38.5,82.5,38.5,82.5,38.5
					z"/>
			</g>
		</g>
		<g>
			<ellipse transform="matrix(0.5 -0.866 0.866 0.5 8.8675 98.0889)" class="st64" cx="89.4" cy="41.4" rx="2.9" ry="2.9"/>
			<g>
				<path class="st59" d="M90.8,38.8c0,0,0.3,0.1,0.6,0.5c0.4,0.3,0.9,0.9,1,1.9c0.1,0.5,0,1-0.2,1.5c-0.1,0.1-0.1,0.2-0.2,0.4
					c-0.1,0.1-0.1,0.2-0.2,0.3c-0.2,0.2-0.4,0.4-0.6,0.5c-0.9,0.6-2.2,0.7-3.3,0.2c-0.5-0.3-1-0.7-1.3-1.2c-0.3-0.5-0.4-1.1-0.3-1.7
					c0-0.6,0.3-1.1,0.6-1.5c0.3-0.4,0.8-0.7,1.2-0.9c0.9-0.3,1.6-0.2,2.1-0.1C90.6,38.7,90.8,38.8,90.8,38.8z M90.8,38.9
					c0,0-0.1,0-0.2-0.1c-0.1-0.1-0.3-0.1-0.5-0.2c-0.5-0.1-1.2-0.1-1.9,0.4c-0.3,0.2-0.7,0.5-0.9,0.8c-0.3,0.4-0.4,0.8-0.5,1.3
					c-0.1,0.5,0,1,0.2,1.5c0.2,0.5,0.5,0.9,1,1.2c0.4,0.3,1,0.5,1.5,0.4c0.5,0,1.1-0.2,1.4-0.6c0.2-0.2,0.4-0.4,0.5-0.5
					c0.1-0.1,0.1-0.2,0.2-0.3c0-0.1,0.1-0.2,0.1-0.3c0.2-0.4,0.2-0.8,0.2-1.2c0-0.8-0.3-1.5-0.7-1.8c-0.2-0.2-0.3-0.3-0.4-0.4
					C90.9,38.9,90.8,38.9,90.8,38.9z"/>
			</g>
		</g>
		<g>
			
				<ellipse transform="matrix(0.999 -4.450371e-002 4.450371e-002 0.999 -1.8069 4.279)" class="st64" cx="95.2" cy="42.7" rx="2.9" ry="2.9"/>
			<g>
				<path class="st59" d="M95.1,39.8c0,0,0.3,0,0.8,0.1c0.5,0.1,1.2,0.3,1.8,1c0.3,0.4,0.5,0.8,0.6,1.4c0,0.1,0,0.3,0,0.4
					c0,0.1,0,0.2,0,0.4c0,0.3-0.1,0.5-0.2,0.8c-0.5,1-1.5,1.8-2.7,1.9c-0.6,0.1-1.2-0.1-1.7-0.4c-0.5-0.3-1-0.8-1.2-1.3
					C92.1,43.6,92,43,92,42.5c0-0.6,0.2-1,0.5-1.4c0.5-0.8,1.3-1.1,1.8-1.2C94.8,39.8,95.1,39.8,95.1,39.8z M95.1,39.8
					c0,0-0.1,0-0.2,0c-0.1,0-0.3,0-0.6,0.1c-0.5,0.2-1.1,0.6-1.4,1.3c-0.2,0.3-0.3,0.8-0.3,1.2c0,0.5,0.1,0.9,0.3,1.4
					c0.2,0.4,0.5,0.8,1,1.1c0.4,0.3,0.9,0.4,1.5,0.5c0.5,0,1.1-0.2,1.5-0.5c0.4-0.3,0.8-0.8,0.9-1.3c0.1-0.2,0.1-0.5,0.1-0.7
					c0-0.1,0-0.2,0-0.4c0-0.1,0-0.2,0-0.3c-0.1-0.4-0.3-0.8-0.5-1.2c-0.4-0.7-1.1-1.1-1.5-1.2c-0.2-0.1-0.4-0.1-0.6-0.1
					C95.1,39.8,95.1,39.8,95.1,39.8z"/>
			</g>
		</g>
		<g>
			
				<ellipse transform="matrix(0.7817 -0.6236 0.6236 0.7817 -5.2257 72.5693)" class="st64" cx="101.1" cy="43.7" rx="2.9" ry="2.9"/>
			<g>
				<path class="st59" d="M99.2,41.5c0,0,0.2-0.2,0.7-0.4c0.4-0.2,1.2-0.5,2.1-0.3c0.4,0.1,0.9,0.4,1.3,0.8c0.1,0.1,0.2,0.2,0.3,0.3
					c0.1,0.1,0.1,0.2,0.2,0.3c0.1,0.3,0.2,0.5,0.3,0.8c0.2,1.1-0.1,2.3-1,3.2c-0.4,0.4-1,0.7-1.6,0.7c-0.6,0.1-1.2,0-1.7-0.3
					c-0.5-0.3-1-0.7-1.2-1.1c-0.3-0.5-0.4-1-0.4-1.4c0-0.9,0.4-1.6,0.7-2C99,41.6,99.2,41.5,99.2,41.5z M99.3,41.5
					c0,0-0.1,0-0.1,0.1c-0.1,0.1-0.2,0.2-0.4,0.4c-0.3,0.4-0.5,1.1-0.4,1.9c0.1,0.4,0.2,0.8,0.4,1.2c0.3,0.4,0.6,0.7,1,0.9
					c0.8,0.5,2,0.4,2.9-0.2c0.4-0.3,0.8-0.8,1-1.3c0.2-0.5,0.2-1.1,0-1.6c-0.1-0.2-0.2-0.5-0.3-0.7c-0.1-0.1-0.1-0.2-0.2-0.3
					c-0.1-0.1-0.2-0.2-0.2-0.2c-0.3-0.3-0.7-0.5-1.1-0.7c-0.7-0.3-1.5-0.2-1.9-0.1c-0.2,0.1-0.4,0.2-0.5,0.3
					C99.3,41.5,99.3,41.5,99.3,41.5z"/>
			</g>
		</g>
		<g>
			
				<ellipse transform="matrix(0.3911 -0.9203 0.9203 0.3911 76.1668 222.6061)" class="st64" cx="206.3" cy="53.7" rx="2.9" ry="2.9"/>
			<g>
				<path class="st59" d="M203.6,52.6c0,0,0.1-0.3,0.4-0.7c0.3-0.4,0.8-1,1.7-1.2c0.4-0.1,1-0.1,1.5,0.1c0.1,0,0.2,0.1,0.4,0.1
					c0.1,0.1,0.2,0.1,0.3,0.2c0.2,0.2,0.4,0.4,0.6,0.6c0.7,0.9,1,2.1,0.6,3.3c-0.2,0.6-0.6,1.1-1.1,1.4c-0.5,0.3-1.1,0.5-1.7,0.6
					c-0.6,0-1.2-0.1-1.6-0.4c-0.5-0.3-0.8-0.7-1.1-1.1c-0.4-0.8-0.4-1.6-0.3-2.1C203.5,52.9,203.6,52.6,203.6,52.6z M203.7,52.6
					c0,0,0,0.1-0.1,0.2c0,0.1-0.1,0.3-0.1,0.6c0,0.5,0.1,1.2,0.6,1.8c0.2,0.3,0.6,0.6,0.9,0.8c0.4,0.2,0.9,0.3,1.3,0.3
					c1,0,2-0.6,2.5-1.5c0.2-0.5,0.3-1.1,0.2-1.6c-0.1-0.5-0.4-1-0.8-1.4c-0.2-0.2-0.4-0.3-0.6-0.4c-0.1-0.1-0.2-0.1-0.3-0.2
					c-0.1,0-0.2-0.1-0.3-0.1c-0.4-0.1-0.9-0.1-1.3-0.1c-0.8,0.1-1.4,0.5-1.7,0.9c-0.2,0.2-0.3,0.4-0.3,0.5
					C203.7,52.6,203.7,52.6,203.7,52.6z"/>
			</g>
		</g>
		<g>
			
				<ellipse transform="matrix(0.7817 -0.6236 0.6236 0.7817 13.1157 143.8967)" class="st64" cx="212.1" cy="53.2" rx="2.9" ry="2.9"/>
			<g>
				<path class="st59" d="M210.3,50.9c0,0,0.2-0.2,0.7-0.4c0.4-0.2,1.2-0.5,2.1-0.3c0.4,0.1,0.9,0.4,1.3,0.8
					c0.1,0.1,0.2,0.2,0.3,0.3c0.1,0.1,0.1,0.2,0.2,0.3c0.1,0.3,0.2,0.5,0.3,0.8c0.2,1.1-0.1,2.3-1,3.2c-0.4,0.4-1,0.7-1.6,0.7
					c-0.6,0.1-1.2,0-1.7-0.3c-0.5-0.3-1-0.7-1.2-1.1c-0.3-0.5-0.4-1-0.4-1.4c0-0.9,0.4-1.6,0.7-2C210.1,51.1,210.3,50.9,210.3,50.9z
					 M210.3,51c0,0-0.1,0-0.1,0.1c-0.1,0.1-0.2,0.2-0.4,0.4c-0.3,0.4-0.5,1.1-0.4,1.9c0.1,0.4,0.2,0.8,0.4,1.2
					c0.3,0.4,0.6,0.7,1,0.9c0.4,0.2,0.9,0.4,1.4,0.3c0.5,0,1-0.2,1.5-0.5c0.4-0.3,0.8-0.8,1-1.3c0.2-0.5,0.2-1.1,0-1.6
					c-0.1-0.2-0.2-0.5-0.3-0.7c-0.1-0.1-0.1-0.2-0.2-0.3c-0.1-0.1-0.2-0.2-0.2-0.2c-0.3-0.3-0.7-0.5-1.1-0.7
					c-0.7-0.3-1.5-0.2-1.9-0.1c-0.2,0.1-0.4,0.2-0.5,0.3C210.4,50.9,210.3,51,210.3,51z"/>
			</g>
		</g>
		<g>
			
				<ellipse transform="matrix(0.9968 -7.974494e-002 7.974494e-002 0.9968 -3.5056 17.5887)" class="st64" cx="218.5" cy="52.7" rx="2.9" ry="2.9"/>
			<g>
				<path class="st59" d="M218.2,49.8c0,0,0.3,0,0.8,0c0.5,0.1,1.3,0.3,1.9,1c0.3,0.3,0.5,0.8,0.6,1.3c0,0.1,0,0.3,0,0.4
					c0,0.1,0,0.2,0,0.4c0,0.3-0.1,0.5-0.2,0.8c-0.4,1-1.4,1.9-2.6,2c-0.6,0.1-1.2,0-1.8-0.3c-0.5-0.3-1-0.7-1.3-1.2
					c-0.3-0.5-0.4-1.1-0.4-1.6c0-0.6,0.2-1,0.4-1.4c0.5-0.8,1.2-1.1,1.7-1.2C217.9,49.8,218.2,49.8,218.2,49.8z M218.2,49.8
					c0,0-0.1,0-0.2,0c-0.1,0-0.3,0.1-0.5,0.2c-0.5,0.2-1,0.6-1.4,1.4c-0.2,0.4-0.3,0.8-0.3,1.2c0,0.5,0.1,0.9,0.3,1.4
					c0.4,0.9,1.4,1.5,2.5,1.5c0.5,0,1.1-0.2,1.5-0.5c0.4-0.3,0.7-0.8,0.9-1.3c0.1-0.2,0.1-0.5,0.1-0.7c0-0.1,0-0.2,0-0.4
					c0-0.1,0-0.2-0.1-0.3c-0.1-0.4-0.3-0.8-0.5-1.2c-0.4-0.7-1.1-1-1.6-1.1c-0.2-0.1-0.4-0.1-0.6-0.1
					C218.3,49.8,218.2,49.8,218.2,49.8z"/>
			</g>
		</g>
		<g>
			
				<ellipse transform="matrix(0.9594 -0.2822 0.2822 0.9594 -5.6035 65.4006)" class="st64" cx="224.3" cy="52.2" rx="2.9" ry="2.9"/>
			<g>
				<path class="st59" d="M221.5,53c0,0-0.1-0.3-0.1-0.8c0-0.5,0-1.3,0.6-2c0.3-0.4,0.7-0.7,1.2-0.9c0.1,0,0.2-0.1,0.4-0.1
					c0.1,0,0.2,0,0.4-0.1c0.3,0,0.6,0,0.8,0c1.1,0.2,2.1,1,2.5,2.2c0.2,0.5,0.2,1.2,0.1,1.8c-0.2,0.6-0.5,1.1-0.9,1.5
					c-0.4,0.4-1,0.6-1.5,0.7c-0.6,0.1-1.1,0-1.5-0.1c-0.9-0.3-1.3-1-1.6-1.4C221.5,53.3,221.5,53,221.5,53z M221.5,53
					c0,0,0,0.1,0.1,0.2c0,0.1,0.1,0.3,0.3,0.5c0.3,0.4,0.8,0.9,1.6,1.1c0.4,0.1,0.8,0.1,1.2,0c0.5-0.1,0.9-0.3,1.3-0.6
					c0.4-0.3,0.7-0.7,0.9-1.2c0.2-0.5,0.2-1,0.1-1.6c-0.1-0.5-0.4-1-0.8-1.4c-0.4-0.3-0.9-0.6-1.5-0.6c-0.3,0-0.5,0-0.7,0.1
					c-0.1,0-0.2,0.1-0.4,0.1c-0.1,0-0.2,0.1-0.3,0.1c-0.4,0.2-0.7,0.5-1,0.7c-0.6,0.6-0.8,1.3-0.8,1.8c0,0.2,0,0.4,0,0.6
					C221.5,52.9,221.5,53,221.5,53z"/>
			</g>
		</g>
		<g>
			
				<ellipse transform="matrix(0.1227 -0.9924 0.9924 0.1227 151.0833 274.1609)" class="st64" cx="230.6" cy="51.6" rx="2.9" ry="2.9"/>
			<g>
				<path class="st59" d="M231,48.7c0,0,0.3,0,0.8,0.2c0.5,0.2,1.2,0.5,1.7,1.3c0.2,0.4,0.4,0.9,0.3,1.4c0,0.1,0,0.3,0,0.4
					c0,0.1-0.1,0.2-0.1,0.4c-0.1,0.3-0.2,0.5-0.4,0.7c-0.6,0.9-1.8,1.5-3,1.5c-0.6,0-1.2-0.3-1.7-0.6c-0.5-0.4-0.8-0.9-1-1.5
					c-0.2-0.6-0.2-1.2-0.1-1.7c0.1-0.5,0.4-1,0.7-1.3c0.7-0.7,1.4-0.8,1.9-0.9C230.7,48.7,231,48.7,231,48.7z M231,48.8
					c0,0-0.1,0-0.2,0c-0.1,0-0.3,0-0.6,0c-0.5,0.1-1.1,0.4-1.6,1.1c-0.2,0.3-0.4,0.7-0.5,1.1c-0.1,0.5-0.1,0.9,0,1.4
					c0.2,0.9,1.1,1.8,2.2,2c0.5,0.1,1.1,0,1.6-0.2c0.5-0.2,0.9-0.6,1.1-1.1c0.1-0.2,0.2-0.5,0.2-0.7c0-0.1,0-0.2,0.1-0.4
					c0-0.1,0-0.2,0-0.3c0-0.5-0.1-0.9-0.3-1.2c-0.3-0.7-0.9-1.2-1.3-1.4c-0.2-0.1-0.4-0.2-0.5-0.2C231,48.8,231,48.8,231,48.8z"/>
			</g>
		</g>
		<g>
			
				<ellipse transform="matrix(0.4633 -0.8862 0.8862 0.4633 81.8944 237.4152)" class="st64" cx="236.9" cy="51.1" rx="2.9" ry="2.9"/>
			<g>
				<path class="st59" d="M234.4,49.7c0,0,0.1-0.3,0.4-0.7c0.3-0.4,0.9-0.9,1.8-1.1c0.5-0.1,1,0,1.5,0.2c0.1,0.1,0.2,0.1,0.4,0.2
					c0.1,0.1,0.2,0.1,0.3,0.2c0.2,0.2,0.4,0.4,0.6,0.6c0.6,0.9,0.8,2.2,0.3,3.3c-0.2,0.5-0.7,1-1.2,1.3c-0.5,0.3-1.1,0.4-1.7,0.4
					c-0.6,0-1.2-0.2-1.6-0.5c-0.5-0.3-0.8-0.7-1-1.1c-0.4-0.9-0.3-1.6-0.1-2.1C234.2,50,234.4,49.7,234.4,49.7z M234.4,49.8
					c0,0,0,0.1-0.1,0.2c-0.1,0.1-0.1,0.3-0.2,0.5c-0.1,0.5,0,1.2,0.4,1.9c0.2,0.3,0.5,0.6,0.9,0.9c0.4,0.3,0.8,0.4,1.3,0.5
					c0.5,0,1-0.1,1.5-0.3c0.5-0.2,0.9-0.6,1.2-1.1c0.3-0.5,0.4-1,0.4-1.6c-0.1-0.5-0.3-1.1-0.6-1.4c-0.2-0.2-0.4-0.4-0.6-0.5
					c-0.1-0.1-0.2-0.1-0.3-0.2c-0.1,0-0.2-0.1-0.3-0.1c-0.4-0.1-0.9-0.2-1.3-0.2c-0.8,0-1.5,0.4-1.8,0.7c-0.2,0.2-0.3,0.3-0.4,0.4
					C234.4,49.7,234.4,49.8,234.4,49.8z"/>
			</g>
		</g>
		<g>
			
				<ellipse transform="matrix(0.9991 -4.251457e-002 4.251457e-002 0.9991 -1.9305 10.3665)" class="st64" cx="242.8" cy="50.6" rx="2.9" ry="2.9"/>
			<g>
				<path class="st59" d="M242.6,47.6c0,0,0.3,0,0.8,0.1c0.5,0.1,1.2,0.3,1.8,1c0.3,0.4,0.5,0.8,0.6,1.4c0,0.1,0,0.3,0,0.4
					c0,0.1,0,0.2,0,0.4c0,0.3-0.1,0.5-0.2,0.8c-0.5,1-1.5,1.8-2.7,1.9c-0.6,0.1-1.2-0.1-1.8-0.4c-0.5-0.3-1-0.8-1.2-1.3
					c-0.3-0.5-0.4-1.1-0.3-1.6c0-0.6,0.2-1,0.5-1.4c0.5-0.8,1.3-1.1,1.8-1.2C242.3,47.6,242.6,47.6,242.6,47.6z M242.6,47.7
					c0,0-0.1,0-0.2,0c-0.1,0-0.3,0-0.6,0.1c-0.5,0.2-1.1,0.6-1.4,1.3c-0.2,0.3-0.3,0.8-0.3,1.2c0,0.5,0.1,0.9,0.3,1.4
					c0.4,0.9,1.4,1.6,2.5,1.6c0.5,0,1.1-0.2,1.5-0.5c0.4-0.3,0.8-0.8,0.9-1.3c0.1-0.2,0.1-0.5,0.1-0.7c0-0.1,0-0.2,0-0.4
					c0-0.1,0-0.2,0-0.3c-0.1-0.4-0.3-0.8-0.5-1.2c-0.4-0.7-1.1-1.1-1.5-1.2c-0.2-0.1-0.4-0.1-0.6-0.1
					C242.7,47.7,242.6,47.7,242.6,47.7z"/>
			</g>
		</g>
		<g>
			<ellipse transform="matrix(0.5 -0.866 0.866 0.5 81.2098 240.745)" class="st64" cx="249.1" cy="50" rx="2.9" ry="2.9"/>
			<g>
				<path class="st59" d="M246.6,48.6c0,0,0.1-0.3,0.5-0.6c0.3-0.4,0.9-0.9,1.9-1c0.5-0.1,1,0,1.5,0.2c0.1,0.1,0.2,0.1,0.4,0.2
					c0.1,0.1,0.2,0.1,0.3,0.2c0.2,0.2,0.4,0.4,0.5,0.6c0.6,0.9,0.7,2.2,0.2,3.3c-0.3,0.5-0.7,1-1.2,1.3c-0.5,0.3-1.1,0.4-1.7,0.3
					c-0.6,0-1.1-0.3-1.5-0.6c-0.4-0.3-0.7-0.8-0.9-1.2c-0.3-0.9-0.2-1.6-0.1-2.1C246.4,48.8,246.6,48.6,246.6,48.6z M246.6,48.6
					c0,0,0,0.1-0.1,0.2c-0.1,0.1-0.1,0.3-0.2,0.5c-0.1,0.5-0.1,1.2,0.4,1.9c0.2,0.3,0.5,0.7,0.8,0.9c0.4,0.3,0.8,0.4,1.3,0.5
					c1,0.1,2.1-0.3,2.7-1.2c0.3-0.5,0.5-1,0.4-1.6c0-0.5-0.2-1.1-0.6-1.4c-0.2-0.2-0.4-0.4-0.5-0.5c-0.1-0.1-0.2-0.1-0.3-0.2
					c-0.1,0-0.2-0.1-0.3-0.1c-0.4-0.2-0.8-0.2-1.2-0.2c-0.8,0-1.5,0.3-1.8,0.7c-0.2,0.2-0.3,0.3-0.4,0.4
					C246.6,48.5,246.6,48.6,246.6,48.6z"/>
			</g>
		</g>
		<g>
			
				<ellipse transform="matrix(0.5859 -0.8103 0.8103 0.5859 65.4212 227.0656)" class="st64" cx="254.9" cy="49.5" rx="2.9" ry="2.9"/>
			<g>
				<path class="st59" d="M252.5,47.8c0,0,0.2-0.2,0.5-0.6c0.4-0.3,1-0.8,2-0.8c0.5,0,1,0.1,1.4,0.4c0.1,0.1,0.2,0.1,0.3,0.2
					c0.1,0.1,0.2,0.2,0.3,0.3c0.2,0.2,0.3,0.4,0.5,0.7c0.5,1,0.5,2.3-0.2,3.3c-0.3,0.5-0.8,0.9-1.4,1.1c-0.6,0.2-1.2,0.3-1.8,0.2
					c-0.6-0.1-1.1-0.4-1.5-0.8c-0.4-0.4-0.7-0.8-0.8-1.3c-0.3-0.9,0-1.7,0.2-2.1C252.4,48,252.5,47.8,252.5,47.8z M252.6,47.8
					c0,0,0,0.1-0.1,0.2c-0.1,0.1-0.2,0.3-0.2,0.5c-0.2,0.5-0.2,1.2,0.2,1.9c0.2,0.4,0.4,0.7,0.7,1c0.4,0.3,0.8,0.5,1.2,0.6
					c0.5,0.1,1,0.1,1.5-0.1c0.5-0.2,0.9-0.5,1.3-0.9c0.3-0.4,0.6-1,0.6-1.5c0-0.5-0.1-1.1-0.4-1.5c-0.1-0.2-0.3-0.4-0.5-0.5
					c-0.1-0.1-0.2-0.1-0.3-0.2c-0.1-0.1-0.2-0.1-0.3-0.2c-0.4-0.2-0.8-0.3-1.2-0.4c-0.8-0.1-1.5,0.2-1.9,0.5
					c-0.2,0.1-0.3,0.3-0.4,0.4C252.6,47.8,252.6,47.8,252.6,47.8z"/>
			</g>
		</g>
		<g>
			
				<ellipse transform="matrix(0.9867 -0.1624 0.1624 0.9867 -4.4015 43.0691)" class="st64" cx="261.2" cy="48.5" rx="2.9" ry="2.9"/>
			<g>
				<path class="st59" d="M260.8,45.6c0,0,0.3-0.1,0.8,0c0.5,0,1.3,0.2,2,0.8c0.3,0.3,0.6,0.8,0.7,1.3c0,0.1,0.1,0.3,0.1,0.4
					c0,0.1,0,0.2,0,0.4c0,0.3-0.1,0.6-0.1,0.8c-0.3,1.1-1.3,2-2.5,2.2c-0.6,0.1-1.2,0.1-1.8-0.1c-0.6-0.2-1-0.6-1.4-1.1
					c-0.3-0.5-0.5-1.1-0.5-1.6c0-0.6,0.1-1,0.3-1.5c0.5-0.8,1.1-1.2,1.6-1.4C260.5,45.6,260.8,45.6,260.8,45.6z M260.8,45.6
					c0,0-0.1,0-0.2,0c-0.1,0-0.3,0.1-0.5,0.2c-0.4,0.2-1,0.7-1.2,1.5c-0.1,0.4-0.2,0.8-0.2,1.2c0,0.5,0.2,0.9,0.4,1.3
					c0.3,0.4,0.6,0.8,1.1,1c0.5,0.2,1,0.3,1.5,0.3c0.5-0.1,1.1-0.3,1.5-0.7c0.4-0.4,0.7-0.9,0.7-1.4c0-0.2,0.1-0.5,0-0.7
					c0-0.1,0-0.2-0.1-0.4c0-0.1,0-0.2-0.1-0.3c-0.1-0.4-0.4-0.8-0.6-1.1c-0.5-0.6-1.2-0.9-1.7-1c-0.2,0-0.4,0-0.6,0
					C260.8,45.6,260.8,45.6,260.8,45.6z"/>
			</g>
		</g>
		<g>
			
				<ellipse transform="matrix(0.5859 -0.8103 0.8103 0.5859 72.3829 236.4645)" class="st64" cx="267.6" cy="47.4" rx="2.9" ry="2.9"/>
			<g>
				<path class="st59" d="M265.2,45.7c0,0,0.2-0.2,0.5-0.6c0.4-0.3,1-0.8,2-0.8c0.5,0,1,0.1,1.4,0.4c0.1,0.1,0.2,0.1,0.3,0.2
					c0.1,0.1,0.2,0.2,0.3,0.3c0.2,0.2,0.3,0.4,0.5,0.7c0.5,1,0.5,2.3-0.2,3.3c-0.3,0.5-0.8,0.9-1.4,1.1c-0.6,0.2-1.2,0.3-1.8,0.2
					c-0.6-0.1-1.1-0.4-1.5-0.8c-0.4-0.4-0.7-0.8-0.8-1.3c-0.3-0.9,0-1.7,0.2-2.1C265,45.9,265.2,45.7,265.2,45.7z M265.3,45.7
					c0,0,0,0.1-0.1,0.2c-0.1,0.1-0.2,0.3-0.2,0.5c-0.2,0.5-0.2,1.2,0.2,1.9c0.2,0.4,0.4,0.7,0.7,1c0.4,0.3,0.8,0.5,1.2,0.6
					c0.5,0.1,1,0.1,1.5-0.1c0.5-0.2,0.9-0.5,1.3-0.9c0.3-0.4,0.6-1,0.6-1.5c0-0.5-0.1-1.1-0.4-1.5c-0.1-0.2-0.3-0.4-0.5-0.5
					c-0.1-0.1-0.2-0.1-0.3-0.2c-0.1-0.1-0.2-0.1-0.3-0.2c-0.4-0.2-0.8-0.3-1.2-0.4c-0.8-0.1-1.5,0.2-1.9,0.5
					c-0.2,0.1-0.3,0.3-0.4,0.4C265.3,45.7,265.3,45.7,265.3,45.7z"/>
			</g>
		</g>
		<g>
			<ellipse transform="matrix(0.5 -0.866 0.866 0.5 96.562 259.9404)" class="st64" cx="273.4" cy="46.3" rx="2.9" ry="2.9"/>
			<g>
				<path class="st59" d="M270.9,44.9c0,0,0.1-0.3,0.5-0.6c0.3-0.4,0.9-0.9,1.9-1c0.5-0.1,1,0,1.5,0.2c0.1,0.1,0.2,0.1,0.4,0.2
					c0.1,0.1,0.2,0.1,0.3,0.2c0.2,0.2,0.4,0.4,0.5,0.6c0.6,0.9,0.7,2.2,0.2,3.3c-0.3,0.5-0.7,1-1.2,1.3c-0.5,0.3-1.1,0.4-1.7,0.3
					c-0.6,0-1.1-0.3-1.5-0.6c-0.4-0.3-0.7-0.8-0.9-1.2c-0.3-0.9-0.2-1.6-0.1-2.1C270.7,45.1,270.9,44.9,270.9,44.9z M270.9,44.9
					c0,0,0,0.1-0.1,0.2c-0.1,0.1-0.1,0.3-0.2,0.5c-0.1,0.5-0.1,1.2,0.4,1.9c0.2,0.3,0.5,0.7,0.8,0.9c0.4,0.3,0.8,0.4,1.3,0.5
					c0.5,0.1,1,0,1.5-0.2c0.5-0.2,0.9-0.5,1.2-1c0.3-0.4,0.5-1,0.4-1.5c0-0.5-0.2-1.1-0.6-1.4c-0.2-0.2-0.4-0.4-0.5-0.5
					c-0.1-0.1-0.2-0.1-0.3-0.2c-0.1,0-0.2-0.1-0.3-0.1c-0.4-0.2-0.8-0.2-1.2-0.2c-0.8,0-1.5,0.3-1.8,0.7c-0.2,0.2-0.3,0.3-0.4,0.4
					C270.9,44.8,270.9,44.9,270.9,44.9z"/>
			</g>
		</g>
		<g>
			
				<ellipse transform="matrix(0.9867 -0.1624 0.1624 0.9867 -3.7271 46.0366)" class="st64" cx="279.7" cy="45.8" rx="2.9" ry="2.9"/>
			<g>
				<path class="st59" d="M279.3,42.9c0,0,0.3-0.1,0.8,0c0.5,0,1.3,0.2,2,0.8c0.3,0.3,0.6,0.8,0.7,1.3c0,0.1,0.1,0.3,0.1,0.4
					c0,0.1,0,0.2,0,0.4c0,0.3-0.1,0.6-0.1,0.8c-0.3,1.1-1.3,2-2.5,2.2c-0.6,0.1-1.2,0.1-1.8-0.1c-0.6-0.2-1-0.6-1.4-1.1
					c-0.3-0.5-0.5-1.1-0.5-1.6c0-0.6,0.1-1,0.3-1.5c0.5-0.8,1.1-1.2,1.6-1.4C279,43,279.3,42.9,279.3,42.9z M279.3,43
					c0,0-0.1,0-0.2,0c-0.1,0-0.3,0.1-0.5,0.2c-0.4,0.2-1,0.7-1.2,1.5c-0.1,0.4-0.2,0.8-0.2,1.2c0,0.5,0.2,0.9,0.4,1.3
					c0.5,0.8,1.6,1.4,2.6,1.3c0.5-0.1,1.1-0.3,1.5-0.7c0.4-0.4,0.7-0.9,0.7-1.4c0-0.2,0.1-0.5,0-0.7c0-0.1,0-0.2-0.1-0.4
					c0-0.1,0-0.2-0.1-0.3c-0.1-0.4-0.4-0.8-0.6-1.1c-0.5-0.6-1.2-0.9-1.7-1c-0.2,0-0.4,0-0.6,0C279.3,43,279.3,43,279.3,43z"/>
			</g>
		</g>
		<g>
			
				<ellipse transform="matrix(0.3363 -0.9417 0.9417 0.3363 146.8564 298.9669)" class="st64" cx="285.5" cy="45.3" rx="2.9" ry="2.9"/>
			<g>
				<path class="st59" d="M282.8,44.3c0,0,0.1-0.3,0.3-0.7c0.3-0.4,0.8-1,1.7-1.3c0.4-0.1,1-0.2,1.5,0c0.1,0,0.2,0.1,0.4,0.1
					c0.1,0.1,0.2,0.1,0.3,0.2c0.2,0.1,0.5,0.3,0.6,0.5c0.8,0.8,1.1,2.1,0.8,3.2c-0.2,0.6-0.5,1.1-1,1.5c-0.5,0.4-1.1,0.6-1.6,0.7
					c-0.6,0.1-1.2-0.1-1.6-0.3c-0.5-0.3-0.9-0.6-1.1-1c-0.5-0.8-0.5-1.6-0.4-2.1C282.7,44.6,282.8,44.3,282.8,44.3z M282.8,44.3
					c0,0,0,0.1-0.1,0.2c0,0.1-0.1,0.3-0.1,0.6c0,0.5,0.2,1.2,0.7,1.8c0.3,0.3,0.6,0.6,1,0.8c0.4,0.2,0.9,0.3,1.4,0.3
					c0.5,0,1-0.2,1.4-0.5c0.4-0.3,0.8-0.7,1-1.2c0.2-0.5,0.3-1.1,0.1-1.6c-0.1-0.5-0.4-1-0.8-1.3c-0.2-0.2-0.4-0.3-0.6-0.4
					c-0.1-0.1-0.2-0.1-0.3-0.1c-0.1,0-0.2-0.1-0.3-0.1c-0.4-0.1-0.9-0.1-1.3,0c-0.8,0.1-1.4,0.6-1.7,1c-0.2,0.2-0.2,0.4-0.3,0.5
					C282.9,44.3,282.8,44.3,282.8,44.3z"/>
			</g>
		</g>
		<g>
			
				<ellipse transform="matrix(0.1227 -0.9924 0.9924 0.1227 211.1964 328.4266)" class="st64" cx="291.4" cy="44.8" rx="2.9" ry="2.9"/>
			<g>
				<path class="st59" d="M288.5,44.4c0,0,0-0.3,0.2-0.8c0.2-0.5,0.5-1.2,1.3-1.7c0.4-0.2,0.9-0.4,1.4-0.3c0.1,0,0.3,0,0.4,0
					c0.1,0,0.2,0.1,0.4,0.1c0.3,0.1,0.5,0.2,0.7,0.4c0.9,0.6,1.5,1.8,1.5,3c0,0.6-0.3,1.2-0.6,1.7c-0.4,0.5-0.9,0.8-1.5,1
					c-0.6,0.2-1.2,0.2-1.7,0.1c-0.5-0.1-1-0.4-1.3-0.7c-0.7-0.7-0.8-1.4-0.9-1.9C288.4,44.7,288.5,44.4,288.5,44.4z M288.5,44.4
					c0,0,0,0.1,0,0.2c0,0.1,0,0.3,0,0.6c0.1,0.5,0.4,1.1,1.1,1.6c0.3,0.2,0.7,0.4,1.1,0.5c0.5,0.1,0.9,0.1,1.4,0
					c0.5-0.1,0.9-0.4,1.3-0.8c0.4-0.4,0.6-0.8,0.7-1.4c0.1-0.5,0-1.1-0.2-1.6c-0.3-0.5-0.6-0.9-1.1-1.1c-0.2-0.1-0.5-0.2-0.7-0.2
					c-0.1,0-0.2,0-0.4-0.1c-0.1,0-0.2,0-0.3,0c-0.5,0-0.9,0.1-1.2,0.3c-0.7,0.3-1.2,0.9-1.4,1.3c-0.1,0.2-0.2,0.4-0.2,0.5
					C288.5,44.3,288.5,44.4,288.5,44.4z"/>
			</g>
		</g>
		<g>
			
				<ellipse transform="matrix(0.9867 -0.1624 0.1624 0.9867 -3.1526 48.8396)" class="st64" cx="297.2" cy="43.7" rx="2.9" ry="2.9"/>
			<g>
				<path class="st59" d="M296.7,40.8c0,0,0.3-0.1,0.8,0c0.5,0,1.3,0.2,2,0.8c0.3,0.3,0.6,0.8,0.7,1.3c0,0.1,0.1,0.3,0.1,0.4
					c0,0.1,0,0.2,0,0.4c0,0.3-0.1,0.6-0.1,0.8c-0.3,1.1-1.3,2-2.5,2.2c-0.6,0.1-1.2,0.1-1.8-0.1c-0.6-0.2-1-0.6-1.4-1.1
					c-0.3-0.5-0.5-1.1-0.5-1.6c0-0.6,0.1-1,0.3-1.5c0.5-0.8,1.1-1.2,1.6-1.4C296.4,40.8,296.7,40.8,296.7,40.8z M296.7,40.9
					c0,0-0.1,0-0.2,0c-0.1,0-0.3,0.1-0.5,0.2c-0.4,0.2-1,0.7-1.2,1.5c-0.1,0.4-0.2,0.8-0.2,1.2c0,0.5,0.2,0.9,0.4,1.3
					c0.3,0.4,0.6,0.8,1.1,1c0.5,0.2,1,0.3,1.5,0.3c0.5-0.1,1.1-0.3,1.5-0.7c0.4-0.4,0.7-0.9,0.7-1.4c0-0.2,0.1-0.5,0-0.7
					c0-0.1,0-0.2-0.1-0.4c0-0.1,0-0.2-0.1-0.3c-0.1-0.4-0.4-0.8-0.6-1.1c-0.5-0.6-1.2-0.9-1.7-1c-0.2,0-0.4,0-0.6,0
					C296.8,40.9,296.7,40.9,296.7,40.9z"/>
			</g>
		</g>
		<g>
			<circle class="st64" cx="303.5" cy="43.2" r="2.9"/>
			<g>
				<path class="st59" d="M303.5,46.1c0,0-0.3,0-0.8-0.1c-0.5-0.1-1.2-0.4-1.8-1.1c-0.3-0.4-0.5-0.8-0.5-1.4c0-0.1,0-0.3,0-0.4
					c0-0.1,0-0.2,0.1-0.4c0.1-0.3,0.2-0.5,0.3-0.8c0.5-1,1.6-1.7,2.8-1.8c0.6,0,1.2,0.1,1.7,0.4c0.5,0.3,0.9,0.8,1.2,1.3
					c0.2,0.5,0.3,1.1,0.3,1.6c-0.1,0.6-0.3,1-0.6,1.4c-0.6,0.7-1.3,1-1.8,1.1C303.8,46.1,303.5,46.1,303.5,46.1z M303.5,46.1
					c0,0,0.1,0,0.2,0c0.1,0,0.3,0,0.6-0.1c0.5-0.1,1.1-0.6,1.5-1.3c0.2-0.3,0.3-0.8,0.4-1.2c0-0.5,0-0.9-0.2-1.4
					c-0.2-0.4-0.5-0.9-0.9-1.2c-0.4-0.3-0.9-0.5-1.5-0.5c-0.5,0-1.1,0.1-1.6,0.4c-0.4,0.3-0.8,0.7-1,1.2c-0.1,0.2-0.1,0.5-0.2,0.7
					c0,0.1,0,0.2,0,0.4c0,0.1,0,0.2,0,0.3c0.1,0.4,0.2,0.8,0.4,1.2c0.4,0.7,1,1.1,1.5,1.3c0.2,0.1,0.4,0.1,0.6,0.1
					C303.4,46,303.5,46.1,303.5,46.1z"/>
			</g>
		</g>
		<g>
			
				<ellipse transform="matrix(0.7381 -0.6746 0.6746 0.7381 52.5825 219.7095)" class="st64" cx="309.3" cy="42.1" rx="2.9" ry="2.9"/>
			<g>
				<path class="st59" d="M307.2,44.1c0,0-0.2-0.2-0.5-0.6c-0.3-0.4-0.6-1.2-0.4-2.1c0.1-0.5,0.3-0.9,0.7-1.3
					c0.1-0.1,0.2-0.2,0.3-0.3c0.1-0.1,0.2-0.2,0.3-0.2c0.2-0.2,0.5-0.2,0.8-0.3c1.1-0.3,2.3,0,3.2,0.8c0.4,0.4,0.7,1,0.8,1.6
					c0.1,0.6,0,1.2-0.2,1.8c-0.2,0.5-0.6,1-1,1.3c-0.5,0.3-0.9,0.5-1.4,0.5c-0.9,0.1-1.6-0.3-2-0.6
					C307.3,44.3,307.2,44.1,307.2,44.1z M307.2,44.1c0,0,0.1,0,0.1,0.1c0.1,0.1,0.2,0.2,0.5,0.3c0.4,0.2,1.1,0.4,1.9,0.2
					c0.4-0.1,0.8-0.3,1.1-0.5c0.4-0.3,0.7-0.6,0.9-1.1c0.4-0.9,0.3-2.1-0.4-2.9c-0.3-0.4-0.8-0.7-1.4-0.9c-0.5-0.1-1.1-0.1-1.6,0.1
					c-0.2,0.1-0.5,0.2-0.6,0.4c-0.1,0.1-0.2,0.2-0.3,0.2c-0.1,0.1-0.2,0.2-0.2,0.2c-0.3,0.4-0.5,0.7-0.6,1.1
					c-0.2,0.8-0.1,1.5,0.1,1.9c0.1,0.2,0.2,0.4,0.3,0.5C307.2,44,307.2,44.1,307.2,44.1z"/>
			</g>
		</g>
		<g>
			
				<ellipse transform="matrix(0.9867 -0.1624 0.1624 0.9867 -2.6568 51.7353)" class="st64" cx="315.1" cy="42.1" rx="2.9" ry="2.9"/>
			<g>
				<path class="st59" d="M314.7,39.2c0,0,0.3-0.1,0.8,0c0.5,0,1.3,0.2,2,0.8c0.3,0.3,0.6,0.8,0.7,1.3c0,0.1,0.1,0.3,0.1,0.4
					c0,0.1,0,0.2,0,0.4c0,0.3-0.1,0.6-0.1,0.8c-0.3,1.1-1.3,2-2.5,2.2c-0.6,0.1-1.2,0.1-1.8-0.1c-0.6-0.2-1-0.6-1.4-1.1
					c-0.3-0.5-0.5-1.1-0.5-1.6c0-0.6,0.1-1,0.3-1.5c0.5-0.8,1.1-1.2,1.6-1.4C314.4,39.3,314.7,39.2,314.7,39.2z M314.7,39.3
					c0,0-0.1,0-0.2,0c-0.1,0-0.3,0.1-0.5,0.2c-0.4,0.2-1,0.7-1.2,1.5c-0.1,0.4-0.2,0.8-0.2,1.2c0,0.5,0.2,0.9,0.4,1.3
					c0.5,0.8,1.6,1.4,2.6,1.3c0.5-0.1,1.1-0.3,1.5-0.7c0.4-0.4,0.7-0.9,0.7-1.4c0-0.2,0.1-0.5,0-0.7c0-0.1,0-0.2-0.1-0.4
					c0-0.1,0-0.2-0.1-0.3c-0.1-0.4-0.4-0.8-0.6-1.1c-0.5-0.6-1.2-0.9-1.7-1c-0.2,0-0.4,0-0.6,0C314.7,39.3,314.7,39.3,314.7,39.3z"
					/>
			</g>
		</g>
		<g>
			
				<ellipse transform="matrix(0.9594 -0.2822 0.2822 0.9594 1.3058 92.2486)" class="st64" cx="320.9" cy="41.6" rx="2.9" ry="2.9"/>
			<g>
				<path class="st59" d="M318.1,42.4c0,0-0.1-0.3-0.1-0.8c0-0.5,0-1.3,0.6-2c0.3-0.4,0.7-0.7,1.2-0.9c0.1,0,0.2-0.1,0.4-0.1
					c0.1,0,0.2,0,0.4-0.1c0.3,0,0.6,0,0.8,0c1.1,0.2,2.1,1,2.5,2.2c0.2,0.6,0.2,1.2,0.1,1.8c-0.2,0.6-0.5,1.1-0.9,1.5
					c-0.4,0.4-1,0.6-1.5,0.7c-0.6,0.1-1.1,0-1.5-0.1c-0.9-0.3-1.3-1-1.6-1.4C318.2,42.7,318.1,42.4,318.1,42.4z M318.2,42.4
					c0,0,0,0.1,0.1,0.2c0,0.1,0.1,0.3,0.3,0.5c0.3,0.4,0.8,0.9,1.6,1.1c0.4,0.1,0.8,0.1,1.2,0c0.5-0.1,0.9-0.3,1.3-0.6
					c0.8-0.6,1.2-1.7,0.9-2.8c-0.1-0.5-0.4-1-0.8-1.4c-0.4-0.3-0.9-0.6-1.5-0.6c-0.3,0-0.5,0-0.7,0.1c-0.1,0-0.2,0.1-0.4,0.1
					c-0.1,0-0.2,0.1-0.3,0.1c-0.4,0.2-0.7,0.5-1,0.7c-0.6,0.6-0.8,1.3-0.8,1.8c0,0.2,0,0.4,0,0.6C318.2,42.3,318.2,42.4,318.2,42.4z
					"/>
			</g>
		</g>
		<g>
			
				<ellipse transform="matrix(0.5335 -0.8458 0.8458 0.5335 117.2503 295.7662)" class="st64" cx="326.8" cy="41.6" rx="2.9" ry="2.9"/>
			<g>
				<path class="st59" d="M324.3,40c0,0,0.1-0.3,0.5-0.6c0.3-0.4,1-0.8,1.9-0.9c0.5,0,1,0.1,1.4,0.3c0.1,0.1,0.2,0.1,0.4,0.2
					c0.1,0.1,0.2,0.2,0.3,0.3c0.2,0.2,0.4,0.4,0.5,0.7c0.6,1,0.6,2.3,0,3.3c-0.3,0.5-0.8,1-1.3,1.2c-0.5,0.3-1.2,0.4-1.7,0.3
					c-0.6-0.1-1.1-0.3-1.5-0.7c-0.4-0.4-0.7-0.8-0.9-1.2c-0.3-0.9-0.1-1.7,0-2.1C324.1,40.3,324.3,40,324.3,40z M324.3,40.1
					c0,0,0,0.1-0.1,0.2c-0.1,0.1-0.1,0.3-0.2,0.5c-0.1,0.5-0.1,1.2,0.3,1.9c0.2,0.3,0.5,0.7,0.8,0.9c0.4,0.3,0.8,0.5,1.3,0.6
					c1,0.2,2.1-0.2,2.7-1.1c0.3-0.4,0.5-1,0.5-1.5c0-0.5-0.2-1.1-0.5-1.5c-0.2-0.2-0.3-0.4-0.5-0.5c-0.1-0.1-0.2-0.1-0.3-0.2
					c-0.1-0.1-0.2-0.1-0.3-0.2c-0.4-0.2-0.8-0.3-1.2-0.3c-0.8,0-1.5,0.3-1.8,0.6c-0.2,0.2-0.3,0.3-0.4,0.4
					C324.4,40,324.3,40.1,324.3,40.1z"/>
			</g>
		</g>
		<g>
			
				<ellipse transform="matrix(7.669622e-002 -0.9971 0.9971 7.669622e-002 266.6013 370.0212)" class="st64" cx="333.1" cy="41.1" rx="2.9" ry="2.9"/>
			<g>
				<path class="st59" d="M333.3,38.1c0,0,0.3,0,0.8,0.1c0.5,0.1,1.2,0.5,1.7,1.2c0.2,0.4,0.4,0.9,0.4,1.4c0,0.1,0,0.3,0,0.4
					c0,0.1,0,0.2-0.1,0.4c-0.1,0.3-0.2,0.5-0.3,0.8c-0.6,1-1.7,1.6-2.9,1.6c-0.6,0-1.2-0.2-1.7-0.6c-0.5-0.4-0.9-0.9-1.1-1.4
					c-0.2-0.5-0.2-1.2-0.1-1.6c0.1-0.6,0.4-1,0.7-1.3c0.6-0.7,1.4-0.9,1.9-1C333,38.1,333.3,38.1,333.3,38.1z M333.3,38.2
					c0,0-0.1,0-0.2,0c-0.1,0-0.3,0-0.6,0.1c-0.5,0.1-1.1,0.5-1.6,1.1c-0.2,0.3-0.4,0.7-0.5,1.1c-0.1,0.5,0,0.9,0.1,1.4
					c0.3,0.9,1.2,1.7,2.3,1.9c0.5,0.1,1.1,0,1.6-0.3c0.5-0.3,0.9-0.7,1.1-1.2c0.1-0.2,0.2-0.5,0.2-0.7c0-0.1,0-0.2,0-0.4
					c0-0.1,0-0.2,0-0.3c0-0.5-0.2-0.9-0.3-1.2c-0.3-0.7-0.9-1.2-1.4-1.4c-0.2-0.1-0.4-0.1-0.5-0.2C333.4,38.2,333.3,38.2,333.3,38.2
					z"/>
			</g>
		</g>
		<g>
			
				<ellipse transform="matrix(0.2265 -0.974 0.974 0.2265 222.1395 361.8525)" class="st64" cx="338.9" cy="41.1" rx="2.9" ry="2.9"/>
			<g>
				<path class="st59" d="M336,40.4c0,0,0.1-0.3,0.3-0.7c0.2-0.4,0.6-1.1,1.5-1.5c0.4-0.2,0.9-0.3,1.5-0.2c0.1,0,0.3,0,0.4,0.1
					c0.1,0,0.2,0.1,0.4,0.1c0.3,0.1,0.5,0.3,0.7,0.5c0.9,0.7,1.3,1.9,1.1,3.1c-0.1,0.6-0.4,1.2-0.8,1.6c-0.4,0.4-1,0.7-1.6,0.8
					c-0.6,0.1-1.2,0.1-1.6-0.1c-0.5-0.2-0.9-0.5-1.2-0.9c-0.6-0.7-0.7-1.5-0.7-2C336,40.7,336,40.4,336,40.4z M336.1,40.4
					c0,0,0,0.1,0,0.2c0,0.1,0,0.3,0,0.6c0,0.5,0.3,1.2,0.9,1.7c0.3,0.3,0.7,0.5,1.1,0.6c0.4,0.1,0.9,0.2,1.4,0.1
					c1-0.1,1.9-0.9,2.2-2c0.2-0.5,0.1-1.1,0-1.6c-0.2-0.5-0.5-0.9-1-1.2c-0.2-0.1-0.4-0.2-0.7-0.3c-0.1,0-0.2-0.1-0.4-0.1
					c-0.1,0-0.2,0-0.3-0.1c-0.5,0-0.9,0-1.3,0.1c-0.8,0.2-1.3,0.7-1.6,1.2c-0.1,0.2-0.2,0.4-0.2,0.5
					C336.1,40.3,336.1,40.4,336.1,40.4z"/>
			</g>
		</g>
		<g>
			
				<ellipse transform="matrix(0.9991 -4.251457e-002 4.251457e-002 0.9991 -1.4561 14.7153)" class="st64" cx="345.2" cy="41.6" rx="2.9" ry="2.9"/>
			<g>
				<path class="st59" d="M345.1,38.7c0,0,0.3,0,0.8,0.1c0.5,0.1,1.2,0.3,1.8,1c0.3,0.4,0.5,0.8,0.6,1.4c0,0.1,0,0.3,0,0.4
					c0,0.1,0,0.2,0,0.4c0,0.3-0.1,0.5-0.2,0.8c-0.5,1-1.5,1.8-2.7,1.9c-0.6,0.1-1.2-0.1-1.7-0.4c-0.5-0.3-1-0.8-1.2-1.3
					c-0.3-0.5-0.4-1.1-0.3-1.6c0-0.6,0.2-1,0.5-1.4c0.5-0.8,1.3-1.1,1.8-1.2C344.8,38.7,345.1,38.7,345.1,38.7z M345.1,38.7
					c0,0-0.1,0-0.2,0c-0.1,0-0.3,0-0.6,0.1c-0.5,0.2-1.1,0.6-1.4,1.3c-0.2,0.3-0.3,0.8-0.3,1.2c0,0.5,0.1,0.9,0.3,1.4
					c0.2,0.4,0.5,0.8,1,1.1c0.4,0.3,0.9,0.4,1.5,0.5c0.5,0,1.1-0.2,1.5-0.5c0.4-0.3,0.8-0.8,0.9-1.3c0.1-0.2,0.1-0.5,0.1-0.7
					c0-0.1,0-0.2,0-0.4c0-0.1,0-0.2,0-0.3c-0.1-0.4-0.3-0.8-0.5-1.2c-0.4-0.7-1.1-1.1-1.5-1.2c-0.2-0.1-0.4-0.1-0.6-0.1
					C345.2,38.7,345.1,38.7,345.1,38.7z"/>
			</g>
		</g>
		<g>
			
				<ellipse transform="matrix(0.9132 -0.4074 0.4074 0.9132 13.2991 146.6866)" class="st64" cx="351.1" cy="42.1" rx="2.9" ry="2.9"/>
			<g>
				<path class="st59" d="M349.9,39.4c0,0,0.3-0.1,0.8-0.2c0.5-0.1,1.3-0.2,2.1,0.3c0.4,0.2,0.8,0.6,1,1c0.1,0.1,0.1,0.2,0.2,0.4
					c0,0.1,0.1,0.2,0.1,0.4c0.1,0.3,0.1,0.6,0.1,0.8c-0.1,1.1-0.7,2.2-1.8,2.8c-0.5,0.3-1.2,0.4-1.8,0.3c-0.6-0.1-1.2-0.4-1.6-0.7
					c-0.4-0.4-0.8-0.9-0.9-1.4c-0.2-0.5-0.2-1-0.1-1.5c0.2-0.9,0.8-1.5,1.2-1.7C349.6,39.5,349.9,39.4,349.9,39.4z M349.9,39.5
					c0,0-0.1,0-0.2,0.1c-0.1,0.1-0.3,0.2-0.5,0.3c-0.4,0.3-0.8,1-0.8,1.7c0,0.4,0,0.8,0.1,1.2c0.2,0.4,0.4,0.8,0.7,1.2
					c0.7,0.7,1.9,0.9,2.9,0.6c0.5-0.2,1-0.5,1.3-1c0.3-0.5,0.4-1,0.4-1.5c0-0.3-0.1-0.5-0.2-0.7c0-0.1-0.1-0.2-0.1-0.3
					c0-0.1-0.1-0.2-0.2-0.3c-0.2-0.4-0.6-0.7-0.9-0.9c-0.6-0.5-1.4-0.6-1.9-0.5c-0.2,0-0.4,0.1-0.6,0.1
					C349.9,39.5,349.9,39.5,349.9,39.5z"/>
			</g>
		</g>
		<g>
			
				<ellipse transform="matrix(0.5859 -0.8103 0.8103 0.5859 113.2003 306.8401)" class="st64" cx="356.9" cy="42.6" rx="2.9" ry="2.9"/>
			<g>
				<path class="st59" d="M354.5,40.9c0,0,0.2-0.2,0.5-0.6c0.4-0.3,1-0.8,2-0.8c0.5,0,1,0.1,1.4,0.4c0.1,0.1,0.2,0.1,0.3,0.2
					c0.1,0.1,0.2,0.2,0.3,0.3c0.2,0.2,0.3,0.4,0.5,0.7c0.5,1,0.5,2.3-0.2,3.3c-0.3,0.5-0.8,0.9-1.4,1.1c-0.6,0.2-1.2,0.3-1.8,0.2
					c-0.6-0.1-1.1-0.4-1.5-0.8c-0.4-0.4-0.7-0.8-0.8-1.3c-0.3-0.9,0-1.7,0.2-2.1C354.3,41.2,354.5,40.9,354.5,40.9z M354.5,41
					c0,0,0,0.1-0.1,0.2c-0.1,0.1-0.2,0.3-0.2,0.5c-0.2,0.5-0.2,1.2,0.2,1.9c0.2,0.4,0.4,0.7,0.7,1c0.4,0.3,0.8,0.5,1.2,0.6
					c0.5,0.1,1,0.1,1.5-0.1c0.5-0.2,0.9-0.5,1.3-0.9c0.3-0.4,0.6-1,0.6-1.5c0-0.5-0.1-1.1-0.4-1.5c-0.1-0.2-0.3-0.4-0.5-0.5
					c-0.1-0.1-0.2-0.1-0.3-0.2c-0.1-0.1-0.2-0.1-0.3-0.2c-0.4-0.2-0.8-0.3-1.2-0.4c-0.8-0.1-1.5,0.2-1.9,0.5
					c-0.2,0.1-0.3,0.3-0.4,0.4C354.6,40.9,354.5,41,354.5,41z"/>
			</g>
		</g>
		<g>
			
				<ellipse transform="matrix(0.9867 -0.1624 0.1624 0.9867 -2.283 59.4777)" class="st64" cx="362.7" cy="43.7" rx="2.9" ry="2.9"/>
			<g>
				<path class="st59" d="M359.8,44.2c0,0-0.1-0.3,0-0.8c0-0.5,0.2-1.3,0.8-2c0.3-0.3,0.8-0.6,1.3-0.7c0.1,0,0.3-0.1,0.4-0.1
					c0.1,0,0.2,0,0.4,0c0.3,0,0.6,0.1,0.8,0.1c1.1,0.3,2,1.3,2.2,2.5c0.1,0.6,0.1,1.2-0.1,1.8c-0.2,0.6-0.6,1-1.1,1.4
					c-0.5,0.3-1.1,0.5-1.6,0.5c-0.6,0-1-0.1-1.5-0.3c-0.8-0.5-1.2-1.1-1.4-1.6C359.8,44.5,359.8,44.2,359.8,44.2z M359.8,44.2
					c0,0,0,0.1,0,0.2c0,0.1,0.1,0.3,0.2,0.5c0.2,0.4,0.7,1,1.5,1.2c0.4,0.1,0.8,0.2,1.2,0.2c0.5,0,0.9-0.2,1.3-0.4
					c0.8-0.5,1.4-1.6,1.3-2.6c-0.1-0.5-0.3-1.1-0.7-1.5c-0.4-0.4-0.9-0.7-1.4-0.7c-0.2,0-0.5-0.1-0.7,0c-0.1,0-0.2,0-0.4,0.1
					c-0.1,0-0.2,0-0.3,0.1c-0.4,0.1-0.8,0.4-1.1,0.6c-0.6,0.5-0.9,1.2-1,1.7c0,0.2,0,0.4,0,0.6C359.8,44.1,359.8,44.2,359.8,44.2z"
					/>
			</g>
		</g>
		<g>
			
				<ellipse transform="matrix(0.8928 -0.4504 0.4504 0.8928 19.3272 170.7499)" class="st64" cx="368.5" cy="44.8" rx="2.9" ry="2.9"/>
			<g>
				<path class="st59" d="M369.8,47.4c0,0-0.2,0.1-0.7,0.3c-0.5,0.1-1.3,0.2-2.1-0.2c-0.4-0.2-0.8-0.5-1.1-1
					c-0.1-0.1-0.1-0.2-0.2-0.4c0-0.1-0.1-0.2-0.1-0.4c-0.1-0.3-0.1-0.5-0.1-0.8c0-1.1,0.6-2.3,1.7-2.9c0.5-0.3,1.1-0.4,1.7-0.4
					c0.6,0.1,1.2,0.3,1.6,0.7c0.5,0.4,0.8,0.9,1,1.3c0.2,0.5,0.2,1,0.1,1.5c-0.2,0.9-0.7,1.5-1.1,1.8
					C370.1,47.3,369.8,47.4,369.8,47.4z M369.8,47.3c0,0,0.1,0,0.2-0.1c0.1-0.1,0.3-0.2,0.4-0.4c0.3-0.3,0.7-1,0.7-1.8
					c0-0.4-0.1-0.8-0.2-1.2c-0.2-0.4-0.4-0.8-0.8-1.1c-0.4-0.3-0.8-0.5-1.3-0.6c-0.5-0.1-1,0-1.6,0.2c-0.5,0.2-0.9,0.6-1.2,1.1
					c-0.3,0.5-0.4,1-0.3,1.5c0,0.2,0.1,0.5,0.2,0.7c0,0.1,0.1,0.2,0.2,0.3c0,0.1,0.1,0.2,0.2,0.3c0.3,0.4,0.6,0.7,0.9,0.9
					c0.7,0.4,1.4,0.5,1.9,0.5c0.2,0,0.4-0.1,0.5-0.2C369.7,47.4,369.8,47.3,369.8,47.3z"/>
			</g>
		</g>
		<g>
			<ellipse transform="matrix(0.866 -0.5 0.5 0.866 26.9736 193.3562)" class="st64" cx="374.3" cy="46.3" rx="2.9" ry="2.9"/>
			<g>
				<path class="st59" d="M371.8,47.8c0,0-0.2-0.2-0.3-0.7c-0.2-0.5-0.3-1.3,0.1-2.1c0.2-0.4,0.5-0.8,0.9-1.1
					c0.1-0.1,0.2-0.1,0.3-0.2c0.1-0.1,0.2-0.1,0.4-0.1c0.3-0.1,0.5-0.1,0.8-0.2c1.1,0,2.3,0.5,3,1.5c0.3,0.5,0.5,1.1,0.5,1.7
					c0,0.6-0.2,1.2-0.6,1.7c-0.3,0.5-0.8,0.8-1.3,1c-0.5,0.2-1,0.3-1.5,0.2c-0.9-0.1-1.5-0.6-1.9-1
					C371.9,48.1,371.8,47.8,371.8,47.8z M371.8,47.8c0,0,0,0.1,0.1,0.2c0.1,0.1,0.2,0.3,0.4,0.4c0.4,0.3,1,0.7,1.8,0.6
					c0.4,0,0.8-0.1,1.2-0.3c0.4-0.2,0.8-0.5,1.1-0.9c0.3-0.4,0.5-0.9,0.5-1.4c0-0.5,0-1-0.3-1.6c-0.2-0.5-0.6-0.9-1.1-1.1
					c-0.5-0.2-1-0.3-1.5-0.2c-0.2,0-0.5,0.1-0.7,0.2c-0.1,0-0.2,0.1-0.3,0.2c-0.1,0.1-0.2,0.1-0.3,0.2c-0.4,0.3-0.6,0.6-0.8,1
					c-0.4,0.7-0.5,1.4-0.3,1.9c0,0.2,0.1,0.4,0.2,0.5C371.8,47.7,371.8,47.8,371.8,47.8z"/>
			</g>
		</g>
		<g>
			
				<ellipse transform="matrix(0.9594 -0.2822 0.2822 0.9594 1.9212 109.1998)" class="st64" cx="380.1" cy="47.9" rx="2.9" ry="2.9"/>
			<g>
				<path class="st59" d="M379.3,45.1c0,0,0.3-0.1,0.8-0.1c0.5,0,1.3,0,2,0.6c0.4,0.3,0.7,0.7,0.9,1.2c0,0.1,0.1,0.2,0.1,0.4
					c0,0.1,0,0.2,0.1,0.4c0,0.3,0,0.6,0,0.8c-0.2,1.1-1,2.1-2.2,2.5c-0.5,0.2-1.2,0.2-1.8,0.1c-0.6-0.2-1.1-0.5-1.5-0.9
					c-0.4-0.4-0.6-1-0.7-1.5c-0.1-0.6,0-1.1,0.1-1.5c0.3-0.9,1-1.3,1.4-1.6C379,45.2,379.3,45.1,379.3,45.1z M379.3,45.2
					c0,0-0.1,0-0.2,0.1c-0.1,0-0.3,0.1-0.5,0.3c-0.4,0.3-0.9,0.8-1.1,1.6c-0.1,0.4-0.1,0.8,0,1.2c0.1,0.5,0.3,0.9,0.6,1.3
					c0.3,0.4,0.7,0.7,1.2,0.9c0.5,0.2,1,0.2,1.6,0.1c0.5-0.1,1-0.4,1.4-0.8c0.3-0.4,0.6-0.9,0.6-1.5c0-0.3,0-0.5-0.1-0.7
					c0-0.1-0.1-0.2-0.1-0.4c0-0.1-0.1-0.2-0.1-0.3c-0.2-0.4-0.5-0.7-0.7-1c-0.6-0.6-1.3-0.8-1.8-0.8c-0.2,0-0.4,0-0.6,0
					C379.4,45.2,379.3,45.2,379.3,45.2z"/>
			</g>
		</g>
		<g>
			
				<ellipse transform="matrix(0.7817 -0.6236 0.6236 0.7817 53.357 251.4729)" class="st64" cx="385.9" cy="49.5" rx="2.9" ry="2.9"/>
			<g>
				<path class="st59" d="M384.1,47.2c0,0,0.2-0.2,0.7-0.4c0.4-0.2,1.2-0.5,2.1-0.3c0.4,0.1,0.9,0.4,1.3,0.8
					c0.1,0.1,0.2,0.2,0.3,0.3c0.1,0.1,0.1,0.2,0.2,0.3c0.1,0.3,0.2,0.5,0.3,0.8c0.2,1.1-0.1,2.3-1,3.2c-0.4,0.4-1,0.7-1.6,0.7
					c-0.6,0.1-1.2,0-1.7-0.3c-0.5-0.3-1-0.7-1.2-1.1c-0.3-0.5-0.4-1-0.4-1.4c0-0.9,0.4-1.6,0.7-2C383.9,47.4,384.1,47.2,384.1,47.2z
					 M384.1,47.3c0,0-0.1,0-0.1,0.1c-0.1,0.1-0.2,0.2-0.4,0.4c-0.3,0.4-0.5,1.1-0.4,1.9c0.1,0.4,0.2,0.8,0.4,1.2
					c0.3,0.4,0.6,0.7,1,0.9c0.8,0.5,2,0.4,2.9-0.2c0.4-0.3,0.8-0.8,1-1.3c0.2-0.5,0.2-1.1,0-1.6c-0.1-0.2-0.2-0.5-0.3-0.7
					c-0.1-0.1-0.1-0.2-0.2-0.3c-0.1-0.1-0.2-0.2-0.2-0.2c-0.3-0.3-0.7-0.5-1.1-0.7c-0.7-0.3-1.5-0.2-1.9-0.1
					c-0.2,0.1-0.4,0.2-0.5,0.3C384.2,47.2,384.1,47.3,384.1,47.3z"/>
			</g>
		</g>
		<g>
			
				<ellipse transform="matrix(6.783934e-002 -0.9977 0.9977 6.783934e-002 54.9242 148.4629)" class="st64" cx="106.9" cy="44.8" rx="2.9" ry="2.9"/>
			<g>
				<path class="st59" d="M104,44.6c0,0,0-0.3,0.1-0.8c0.1-0.5,0.5-1.2,1.2-1.7c0.4-0.3,0.9-0.4,1.4-0.4c0.1,0,0.3,0,0.4,0
					c0.1,0,0.2,0,0.4,0.1c0.3,0.1,0.5,0.2,0.8,0.3c1,0.6,1.6,1.7,1.6,2.9c0,0.6-0.2,1.2-0.6,1.7c-0.4,0.5-0.9,0.9-1.4,1.1
					c-0.5,0.2-1.1,0.2-1.6,0.1c-0.6-0.1-1-0.4-1.3-0.7c-0.7-0.6-0.9-1.4-1-1.9C104,44.9,104,44.6,104,44.6z M104,44.6
					c0,0,0,0.1,0,0.2c0,0.1,0,0.3,0.1,0.6c0.1,0.5,0.5,1.1,1.2,1.6c0.3,0.2,0.7,0.4,1.2,0.5c0.5,0.1,0.9,0,1.4-0.1
					c0.5-0.2,0.9-0.4,1.2-0.8c0.3-0.4,0.6-0.9,0.6-1.4c0.1-0.5,0-1.1-0.3-1.6c-0.3-0.5-0.7-0.8-1.2-1c-0.2-0.1-0.5-0.2-0.7-0.2
					c-0.1,0-0.2,0-0.4,0c-0.1,0-0.2,0-0.3,0c-0.5,0-0.9,0.2-1.2,0.3c-0.7,0.3-1.2,0.9-1.4,1.4c-0.1,0.2-0.1,0.4-0.2,0.5
					C104.1,44.6,104,44.6,104,44.6z"/>
			</g>
		</g>
		<g>
			<ellipse transform="matrix(0.5 -0.866 0.866 0.5 16.9362 120.3084)" class="st64" cx="112.7" cy="45.5" rx="2.9" ry="2.9"/>
			<g>
				<path class="st59" d="M114.1,43c0,0,0.3,0.1,0.6,0.5c0.4,0.3,0.9,0.9,1,1.9c0.1,0.5,0,1-0.2,1.5c-0.1,0.1-0.1,0.2-0.2,0.4
					c-0.1,0.1-0.1,0.2-0.2,0.3c-0.2,0.2-0.4,0.4-0.6,0.5c-0.9,0.6-2.2,0.7-3.3,0.2c-0.5-0.3-1-0.7-1.3-1.2c-0.3-0.5-0.4-1.1-0.3-1.7
					c0-0.6,0.3-1.1,0.6-1.5c0.3-0.4,0.8-0.7,1.2-0.9c0.9-0.3,1.6-0.2,2.1-0.1C113.9,42.8,114.1,43,114.1,43z M114.1,43
					c0,0-0.1,0-0.2-0.1c-0.1-0.1-0.3-0.1-0.5-0.2c-0.5-0.1-1.2-0.1-1.9,0.4c-0.3,0.2-0.7,0.5-0.9,0.8c-0.3,0.4-0.4,0.8-0.5,1.3
					c-0.1,0.5,0,1,0.2,1.5c0.2,0.5,0.5,0.9,1,1.2c0.4,0.3,1,0.5,1.5,0.4c0.5,0,1.1-0.2,1.4-0.6c0.2-0.2,0.4-0.4,0.5-0.5
					c0.1-0.1,0.1-0.2,0.2-0.3c0-0.1,0.1-0.2,0.1-0.3c0.2-0.4,0.2-0.8,0.2-1.2c0-0.8-0.3-1.5-0.7-1.8c-0.2-0.2-0.3-0.3-0.4-0.4
					C114.2,43,114.1,43,114.1,43z"/>
			</g>
		</g>
		<g>
			
				<ellipse transform="matrix(0.5891 -0.8081 0.8081 0.5891 10.4702 115.0996)" class="st64" cx="118.4" cy="47.3" rx="2.9" ry="2.9"/>
			<g>
				<path class="st59" d="M120.1,44.9c0,0,0.2,0.2,0.6,0.5c0.3,0.4,0.8,1,0.8,2c0,0.5-0.1,1-0.4,1.4c-0.1,0.1-0.1,0.2-0.2,0.3
					c-0.1,0.1-0.2,0.2-0.3,0.3c-0.2,0.2-0.4,0.3-0.7,0.5c-1,0.5-2.3,0.5-3.3-0.2c-0.5-0.3-0.9-0.8-1.1-1.4c-0.2-0.6-0.3-1.2-0.2-1.8
					c0.1-0.6,0.4-1.1,0.8-1.5c0.4-0.4,0.8-0.7,1.3-0.8c0.9-0.3,1.7,0,2.1,0.2C119.9,44.7,120.1,44.9,120.1,44.9z M120.1,44.9
					c0,0-0.1,0-0.2-0.1c-0.1-0.1-0.3-0.2-0.5-0.2c-0.5-0.2-1.2-0.2-1.9,0.1c-0.4,0.2-0.7,0.4-1,0.7c-0.3,0.4-0.5,0.8-0.6,1.2
					c-0.1,0.5-0.1,1,0.1,1.5c0.2,0.5,0.5,0.9,0.9,1.3c0.4,0.3,1,0.6,1.5,0.6c0.5,0,1.1-0.1,1.5-0.4c0.2-0.1,0.4-0.3,0.5-0.5
					c0.1-0.1,0.1-0.2,0.2-0.3c0.1-0.1,0.1-0.2,0.2-0.3c0.2-0.4,0.3-0.8,0.4-1.2c0.1-0.8-0.2-1.5-0.5-1.9c-0.1-0.2-0.3-0.3-0.4-0.4
					C120.2,45,120.1,44.9,120.1,44.9z"/>
			</g>
		</g>
		<g>
			<circle class="st64" cx="124.1" cy="47.8" r="2.9"/>
			<g>
				<path class="st59" d="M124.1,44.9c0,0,0.3,0,0.8,0.1c0.5,0.1,1.2,0.4,1.8,1.1c0.3,0.4,0.5,0.8,0.5,1.4c0,0.1,0,0.3,0,0.4
					c0,0.1,0,0.2-0.1,0.4c-0.1,0.3-0.2,0.5-0.3,0.8c-0.5,1-1.6,1.7-2.8,1.8c-0.6,0-1.2-0.1-1.7-0.4c-0.5-0.3-0.9-0.8-1.2-1.3
					c-0.2-0.5-0.3-1.1-0.3-1.6c0.1-0.6,0.3-1,0.6-1.4c0.6-0.7,1.3-1,1.8-1.1C123.8,44.8,124.1,44.9,124.1,44.9z M124.1,44.9
					c0,0-0.1,0-0.2,0c-0.1,0-0.3,0-0.6,0.1c-0.5,0.1-1.1,0.6-1.5,1.3c-0.2,0.3-0.3,0.8-0.4,1.2c0,0.5,0,0.9,0.2,1.4
					c0.2,0.4,0.5,0.9,0.9,1.2c0.4,0.3,0.9,0.5,1.5,0.5c0.5,0,1.1-0.1,1.6-0.4c0.4-0.3,0.8-0.7,1-1.2c0.1-0.2,0.1-0.5,0.2-0.7
					c0-0.1,0-0.2,0-0.4c0-0.1,0-0.2,0-0.3c-0.1-0.4-0.2-0.8-0.4-1.2c-0.4-0.7-1-1.1-1.5-1.3c-0.2-0.1-0.4-0.1-0.6-0.1
					C124.1,44.9,124.1,44.9,124.1,44.9z"/>
			</g>
		</g>
		<g>
			<ellipse transform="matrix(0.9867 -0.1624 0.1624 0.9867 -6.127 32.2226)" class="st64" cx="194" cy="53.6" rx="2.9" ry="2.9"/>
			<g>
				<path class="st59" d="M193.6,50.7c0,0,0.3-0.1,0.8,0c0.5,0,1.3,0.2,2,0.8c0.3,0.3,0.6,0.8,0.7,1.3c0,0.1,0.1,0.3,0.1,0.4
					c0,0.1,0,0.2,0,0.4c0,0.3-0.1,0.6-0.1,0.8c-0.3,1.1-1.3,2-2.5,2.2c-0.6,0.1-1.2,0.1-1.8-0.1c-0.6-0.2-1-0.6-1.4-1.1
					c-0.3-0.5-0.5-1.1-0.5-1.6c0-0.6,0.1-1,0.3-1.5c0.5-0.8,1.1-1.2,1.6-1.4C193.3,50.7,193.6,50.7,193.6,50.7z M193.6,50.8
					c0,0-0.1,0-0.2,0c-0.1,0-0.3,0.1-0.5,0.2c-0.4,0.2-1,0.7-1.2,1.5c-0.1,0.4-0.2,0.8-0.2,1.2c0,0.5,0.2,0.9,0.4,1.3
					c0.5,0.8,1.6,1.4,2.6,1.3c0.5-0.1,1.1-0.3,1.5-0.7c0.4-0.4,0.7-0.9,0.7-1.4c0-0.2,0.1-0.5,0-0.7c0-0.1,0-0.2-0.1-0.4
					c0-0.1,0-0.2-0.1-0.3c-0.1-0.4-0.4-0.8-0.6-1.1c-0.5-0.6-1.2-0.9-1.7-1c-0.2,0-0.4,0-0.6,0C193.6,50.7,193.6,50.8,193.6,50.8z"
					/>
			</g>
		</g>
		<g>
			
				<ellipse transform="matrix(0.3911 -0.9204 0.9204 0.3911 72.3331 216.8113)" class="st64" cx="200" cy="53.7" rx="2.9" ry="2.9"/>
			<g>
				<path class="st59" d="M201.2,51c0,0,0.3,0.1,0.7,0.4c0.4,0.3,1,0.8,1.2,1.7c0.1,0.4,0.1,1-0.1,1.5c0,0.1-0.1,0.2-0.1,0.4
					c-0.1,0.1-0.1,0.2-0.2,0.3c-0.2,0.2-0.4,0.4-0.6,0.6c-0.9,0.7-2.1,1-3.3,0.6c-0.6-0.2-1.1-0.6-1.4-1.1c-0.3-0.5-0.5-1.1-0.6-1.7
					c0-0.6,0.1-1.2,0.4-1.6c0.3-0.5,0.7-0.8,1.1-1.1c0.8-0.4,1.6-0.4,2.1-0.3C200.9,50.9,201.2,51,201.2,51z M201.1,51.1
					c0,0-0.1,0-0.2-0.1c-0.1,0-0.3-0.1-0.6-0.1c-0.5,0-1.2,0.1-1.8,0.6c-0.3,0.2-0.6,0.6-0.8,0.9c-0.2,0.4-0.3,0.9-0.3,1.3
					c0,1,0.6,2,1.5,2.5c0.5,0.2,1.1,0.3,1.6,0.2c0.5-0.1,1-0.4,1.4-0.8c0.2-0.2,0.3-0.4,0.4-0.6c0.1-0.1,0.1-0.2,0.2-0.3
					c0-0.1,0.1-0.2,0.1-0.3c0.1-0.4,0.1-0.9,0.1-1.3c-0.1-0.8-0.5-1.4-0.9-1.7c-0.2-0.2-0.4-0.3-0.5-0.3
					C201.2,51.1,201.1,51.1,201.1,51.1z"/>
			</g>
		</g>
		<g>
			<ellipse transform="matrix(0.885 -0.4656 0.4656 0.885 -8.1441 66.0522)" class="st64" cx="129.6" cy="49.5" rx="2.9" ry="2.9"/>
			<g>
				<path class="st59" d="M132.2,48.2c0,0,0.1,0.2,0.3,0.7c0.1,0.5,0.2,1.3-0.1,2.1c-0.2,0.4-0.5,0.8-1,1.1
					c-0.1,0.1-0.2,0.1-0.4,0.2c-0.1,0-0.2,0.1-0.4,0.1c-0.3,0.1-0.5,0.1-0.8,0.1c-1.1,0-2.3-0.6-2.9-1.6c-0.3-0.5-0.5-1.1-0.4-1.7
					c0-0.6,0.3-1.2,0.6-1.7c0.3-0.5,0.8-0.8,1.3-1c0.5-0.2,1-0.2,1.5-0.1c0.9,0.2,1.5,0.7,1.8,1.1C132.1,47.9,132.2,48.2,132.2,48.2
					z M132.2,48.2c0,0,0-0.1-0.1-0.2c-0.1-0.1-0.2-0.3-0.4-0.4c-0.3-0.3-1-0.7-1.8-0.7c-0.4,0-0.8,0.1-1.2,0.2
					c-0.4,0.2-0.8,0.4-1.1,0.8c-0.6,0.7-0.8,1.9-0.4,2.9c0.2,0.5,0.6,0.9,1.1,1.2c0.5,0.3,1,0.4,1.5,0.3c0.2,0,0.5-0.1,0.7-0.2
					c0.1,0,0.2-0.1,0.3-0.2c0.1,0,0.2-0.1,0.3-0.2c0.4-0.3,0.6-0.6,0.9-0.9c0.4-0.7,0.5-1.4,0.4-1.9c0-0.2-0.1-0.4-0.2-0.5
					C132.2,48.2,132.2,48.2,132.2,48.2z"/>
			</g>
		</g>
		<g>
			
				<ellipse transform="matrix(0.7817 -0.6236 0.6236 0.7817 -1.2921 95.3347)" class="st64" cx="135.5" cy="49.5" rx="2.9" ry="2.9"/>
			<g>
				<path class="st59" d="M133.7,47.2c0,0,0.2-0.2,0.7-0.4c0.4-0.2,1.2-0.5,2.1-0.3c0.4,0.1,0.9,0.4,1.3,0.8
					c0.1,0.1,0.2,0.2,0.3,0.3c0.1,0.1,0.1,0.2,0.2,0.3c0.1,0.3,0.2,0.5,0.3,0.8c0.2,1.1-0.1,2.3-1,3.2c-0.4,0.4-1,0.7-1.6,0.7
					c-0.6,0.1-1.2,0-1.7-0.3c-0.5-0.3-1-0.7-1.2-1.1c-0.3-0.5-0.4-1-0.4-1.4c0-0.9,0.4-1.6,0.7-2C133.5,47.4,133.7,47.2,133.7,47.2z
					 M133.7,47.3c0,0-0.1,0-0.1,0.1c-0.1,0.1-0.2,0.2-0.4,0.4c-0.3,0.4-0.5,1.1-0.4,1.9c0.1,0.4,0.2,0.8,0.4,1.2
					c0.3,0.4,0.6,0.7,1,0.9c0.8,0.5,2,0.4,2.9-0.2c0.4-0.3,0.8-0.8,1-1.3c0.2-0.5,0.2-1.1,0-1.6c-0.1-0.2-0.2-0.5-0.3-0.7
					c-0.1-0.1-0.1-0.2-0.2-0.3c-0.1-0.1-0.2-0.2-0.2-0.2c-0.3-0.3-0.7-0.5-1.1-0.7c-0.7-0.3-1.5-0.2-1.9-0.1
					c-0.2,0.1-0.4,0.2-0.5,0.3C133.8,47.2,133.7,47.3,133.7,47.3z"/>
			</g>
		</g>
		<g>
			<ellipse transform="matrix(0.843 -0.538 0.538 0.843 -4.6394 84.0533)" class="st64" cx="141.7" cy="50" rx="2.9" ry="2.9"/>
			<g>
				<path class="st59" d="M144.1,48.4c0,0,0.2,0.2,0.3,0.7c0.2,0.5,0.3,1.2,0,2.1c-0.2,0.4-0.5,0.9-0.9,1.2
					c-0.1,0.1-0.2,0.2-0.3,0.2c-0.1,0.1-0.2,0.1-0.4,0.2c-0.3,0.1-0.5,0.2-0.8,0.2c-1.1,0.1-2.3-0.4-3-1.4c-0.3-0.5-0.6-1.1-0.6-1.7
					c0-0.6,0.2-1.2,0.5-1.7c0.3-0.5,0.8-0.9,1.2-1.1c0.5-0.2,1-0.3,1.5-0.3c0.9,0.1,1.6,0.6,1.9,0.9C144,48.1,144.1,48.4,144.1,48.4
					z M144.1,48.4c0,0,0-0.1-0.1-0.2c-0.1-0.1-0.2-0.3-0.4-0.4c-0.4-0.3-1.1-0.6-1.8-0.6c-0.4,0-0.8,0.1-1.2,0.3
					c-0.4,0.2-0.8,0.5-1,0.9c-0.3,0.4-0.4,0.9-0.5,1.4c0,0.5,0.1,1,0.3,1.5c0.3,0.5,0.7,0.9,1.2,1.1c0.5,0.2,1.1,0.3,1.6,0.1
					c0.2-0.1,0.5-0.1,0.7-0.3c0.1,0,0.2-0.1,0.3-0.2c0.1-0.1,0.2-0.1,0.3-0.2c0.3-0.3,0.6-0.6,0.8-1c0.4-0.7,0.4-1.5,0.3-1.9
					c-0.1-0.2-0.1-0.4-0.2-0.5C144.1,48.5,144.1,48.4,144.1,48.4z"/>
			</g>
		</g>
		<g>
			
				<ellipse transform="matrix(0.999 -4.450404e-002 4.450404e-002 0.999 -2.1407 6.609)" class="st64" cx="147.4" cy="51.4" rx="2.9" ry="2.9"/>
			<g>
				<path class="st59" d="M150.3,51.3c0,0,0,0.3-0.1,0.8c-0.1,0.5-0.3,1.2-1,1.8c-0.4,0.3-0.8,0.5-1.4,0.6c-0.1,0-0.3,0-0.4,0
					c-0.1,0-0.2,0-0.4,0c-0.3,0-0.5-0.1-0.8-0.2c-1-0.5-1.8-1.5-1.9-2.7c-0.1-0.6,0.1-1.2,0.4-1.8c0.3-0.5,0.8-1,1.3-1.2
					c0.5-0.3,1.1-0.4,1.6-0.3c0.6,0,1,0.2,1.4,0.5c0.8,0.5,1.1,1.3,1.2,1.8C150.3,51,150.3,51.3,150.3,51.3z M150.2,51.3
					c0,0,0-0.1,0-0.2c0-0.1,0-0.3-0.1-0.6c-0.2-0.5-0.6-1.1-1.3-1.4c-0.3-0.2-0.8-0.3-1.2-0.3c-0.5,0-0.9,0.1-1.4,0.3
					c-0.9,0.4-1.6,1.4-1.6,2.5c0,0.5,0.2,1.1,0.5,1.5c0.3,0.4,0.8,0.8,1.3,0.9c0.2,0.1,0.5,0.1,0.7,0.1c0.1,0,0.2,0,0.4,0
					c0.1,0,0.2,0,0.3,0c0.4-0.1,0.8-0.3,1.2-0.5c0.7-0.4,1.1-1.1,1.2-1.5c0.1-0.2,0.1-0.4,0.1-0.6C150.2,51.3,150.2,51.3,150.2,51.3
					z"/>
			</g>
		</g>
		<g>
			
				<ellipse transform="matrix(0.9661 -0.2581 0.2581 0.9661 -8.1991 41.363)" class="st64" cx="153.4" cy="51.9" rx="2.9" ry="2.9"/>
			<g>
				<path class="st59" d="M152.7,49.1c0,0,0.3-0.1,0.8-0.1c0.5,0,1.3,0,2,0.6c0.4,0.3,0.7,0.7,0.9,1.2c0,0.1,0.1,0.2,0.1,0.4
					c0,0.1,0,0.2,0,0.4c0,0.3,0,0.6-0.1,0.8c-0.2,1.1-1.1,2.1-2.2,2.5c-0.5,0.2-1.2,0.2-1.8,0c-0.6-0.2-1.1-0.5-1.5-1
					c-0.4-0.4-0.6-1-0.7-1.5c-0.1-0.6,0-1.1,0.2-1.5c0.4-0.9,1-1.3,1.5-1.5C152.4,49.1,152.7,49.1,152.7,49.1z M152.7,49.1
					c0,0-0.1,0-0.2,0.1c-0.1,0-0.3,0.1-0.5,0.3c-0.4,0.3-0.9,0.8-1.1,1.6c-0.1,0.4-0.1,0.8-0.1,1.2c0.1,0.5,0.3,0.9,0.6,1.3
					c0.3,0.4,0.7,0.7,1.2,0.9c0.5,0.2,1,0.2,1.6,0.1c0.5-0.1,1-0.4,1.4-0.8c0.4-0.4,0.6-0.9,0.6-1.4c0-0.3,0-0.5,0-0.7
					c0-0.1-0.1-0.2-0.1-0.4c0-0.1-0.1-0.2-0.1-0.3c-0.2-0.4-0.4-0.8-0.7-1c-0.6-0.6-1.3-0.8-1.8-0.8c-0.2,0-0.4,0-0.6,0
					C152.8,49.1,152.7,49.1,152.7,49.1z"/>
			</g>
		</g>
		<g>
			<ellipse transform="matrix(0.866 -0.5 0.5 0.866 -4.8793 86.8042)" class="st64" cx="159.5" cy="52.5" rx="2.9" ry="2.9"/>
			<g>
				<path class="st59" d="M162.1,51c0,0,0.2,0.2,0.3,0.7c0.2,0.5,0.3,1.3-0.1,2.1c-0.2,0.4-0.5,0.8-0.9,1.1
					c-0.1,0.1-0.2,0.1-0.3,0.2c-0.1,0.1-0.2,0.1-0.4,0.1c-0.3,0.1-0.5,0.1-0.8,0.2c-1.1,0-2.3-0.5-3-1.5c-0.3-0.5-0.5-1.1-0.5-1.7
					c0-0.6,0.2-1.2,0.6-1.7c0.3-0.5,0.8-0.8,1.3-1c0.5-0.2,1-0.3,1.5-0.2c0.9,0.1,1.5,0.6,1.9,1C161.9,50.8,162.1,51,162.1,51z
					 M162,51.1c0,0,0-0.1-0.1-0.2c-0.1-0.1-0.2-0.3-0.4-0.4c-0.4-0.3-1-0.7-1.8-0.6c-0.4,0-0.8,0.1-1.2,0.3
					c-0.4,0.2-0.8,0.5-1.1,0.9c-0.3,0.4-0.5,0.9-0.5,1.4c0,0.5,0,1,0.3,1.6c0.2,0.5,0.6,0.9,1.1,1.1c0.5,0.2,1,0.3,1.5,0.2
					c0.2,0,0.5-0.1,0.7-0.2c0.1,0,0.2-0.1,0.3-0.2c0.1-0.1,0.2-0.1,0.3-0.2c0.4-0.3,0.6-0.6,0.8-1c0.4-0.7,0.5-1.4,0.3-1.9
					c0-0.2-0.1-0.4-0.2-0.5C162.1,51.1,162,51.1,162,51.1z"/>
			</g>
		</g>
		<g>
			<ellipse transform="matrix(0.885 -0.4656 0.4656 0.885 -5.8006 82.9749)" class="st64" cx="165.1" cy="53.2" rx="2.9" ry="2.9"/>
			<g>
				<path class="st59" d="M163.7,50.6c0,0,0.2-0.1,0.7-0.3c0.5-0.1,1.3-0.2,2.1,0.1c0.4,0.2,0.8,0.5,1.1,1c0.1,0.1,0.1,0.2,0.2,0.4
					c0,0.1,0.1,0.2,0.1,0.4c0.1,0.3,0.1,0.5,0.1,0.8c0,1.1-0.6,2.3-1.6,2.9c-0.5,0.3-1.1,0.5-1.7,0.4c-0.6,0-1.2-0.3-1.7-0.6
					c-0.5-0.3-0.8-0.8-1-1.3c-0.2-0.5-0.2-1-0.1-1.5c0.2-0.9,0.7-1.5,1.1-1.8C163.4,50.8,163.7,50.6,163.7,50.6z M163.7,50.7
					c0,0-0.1,0-0.2,0.1c-0.1,0.1-0.3,0.2-0.4,0.4c-0.3,0.3-0.7,1-0.7,1.8c0,0.4,0.1,0.8,0.2,1.2c0.2,0.4,0.4,0.8,0.8,1.1
					c0.4,0.3,0.8,0.5,1.4,0.6c0.5,0.1,1,0,1.6-0.2c0.5-0.2,0.9-0.6,1.2-1.1c0.3-0.5,0.4-1,0.3-1.5c0-0.2-0.1-0.5-0.2-0.7
					c0-0.1-0.1-0.2-0.2-0.3c0-0.1-0.1-0.2-0.2-0.3c-0.3-0.4-0.6-0.6-0.9-0.9c-0.7-0.4-1.4-0.5-1.9-0.4c-0.2,0-0.4,0.1-0.5,0.2
					C163.8,50.7,163.7,50.7,163.7,50.7z"/>
			</g>
		</g>
		<g>
			
				<ellipse transform="matrix(0.3911 -0.9204 0.9204 0.3911 55.092 189.7314)" class="st64" cx="170.9" cy="53.2" rx="2.9" ry="2.9"/>
			<g>
				<path class="st59" d="M172.1,50.5c0,0,0.3,0.1,0.7,0.4c0.4,0.3,1,0.8,1.2,1.7c0.1,0.4,0.1,1-0.1,1.5c0,0.1-0.1,0.2-0.1,0.4
					c-0.1,0.1-0.1,0.2-0.2,0.3c-0.2,0.2-0.4,0.4-0.6,0.6c-0.9,0.7-2.1,1-3.3,0.6c-0.5-0.2-1.1-0.6-1.4-1.1c-0.3-0.5-0.5-1.1-0.6-1.7
					c0-0.6,0.1-1.2,0.4-1.6c0.3-0.5,0.7-0.8,1.1-1.1c0.8-0.4,1.6-0.4,2.1-0.3C171.8,50.4,172.1,50.5,172.1,50.5z M172.1,50.6
					c0,0-0.1,0-0.2-0.1c-0.1,0-0.3-0.1-0.6-0.1c-0.5,0-1.2,0.1-1.8,0.6c-0.3,0.2-0.6,0.6-0.8,0.9c-0.2,0.4-0.3,0.9-0.3,1.3
					c0,0.5,0.1,1,0.4,1.4c0.3,0.4,0.7,0.8,1.2,1.1c0.5,0.2,1.1,0.3,1.6,0.2c0.5-0.1,1-0.4,1.4-0.8c0.2-0.2,0.3-0.4,0.4-0.6
					c0.1-0.1,0.1-0.2,0.2-0.3c0-0.1,0.1-0.2,0.1-0.3c0.1-0.4,0.1-0.9,0.1-1.3c-0.1-0.8-0.5-1.4-0.9-1.7c-0.2-0.2-0.4-0.3-0.5-0.3
					C172.1,50.6,172.1,50.6,172.1,50.6z"/>
			</g>
		</g>
		<g>
			<circle class="st64" cx="176.7" cy="52.5" r="2.9"/>
			<g>
				<path class="st59" d="M176.7,49.6c0,0,0.3,0,0.8,0.1c0.5,0.1,1.2,0.4,1.8,1.1c0.3,0.4,0.5,0.8,0.5,1.4c0,0.1,0,0.3,0,0.4
					c0,0.1,0,0.2-0.1,0.4c-0.1,0.3-0.2,0.5-0.3,0.8c-0.5,1-1.6,1.7-2.8,1.8c-0.6,0-1.2-0.1-1.7-0.4c-0.5-0.3-0.9-0.8-1.2-1.3
					c-0.2-0.5-0.3-1.1-0.3-1.6c0.1-0.6,0.3-1,0.6-1.4c0.6-0.7,1.3-1,1.8-1.1C176.4,49.6,176.7,49.6,176.7,49.6z M176.7,49.6
					c0,0-0.1,0-0.2,0c-0.1,0-0.3,0-0.6,0.1c-0.5,0.1-1.1,0.6-1.5,1.3c-0.2,0.3-0.3,0.8-0.4,1.2c0,0.5,0,0.9,0.2,1.4
					c0.4,0.9,1.3,1.6,2.4,1.7c0.5,0,1.1-0.1,1.6-0.4c0.4-0.3,0.8-0.7,1-1.2c0.1-0.2,0.1-0.5,0.2-0.7c0-0.1,0-0.2,0-0.4
					c0-0.1,0-0.2,0-0.3c-0.1-0.4-0.2-0.8-0.4-1.2c-0.4-0.7-1-1.1-1.5-1.3c-0.2-0.1-0.4-0.1-0.6-0.1
					C176.7,49.6,176.7,49.6,176.7,49.6z"/>
			</g>
		</g>
		<g>
			
				<ellipse transform="matrix(0.9287 -0.3709 0.3709 0.9287 -6.4735 71.3487)" class="st64" cx="182.3" cy="52.5" rx="2.9" ry="2.9"/>
			<g>
				<path class="st59" d="M185,51.4c0,0,0.1,0.3,0.2,0.8c0.1,0.5,0.1,1.3-0.4,2.1c-0.2,0.4-0.6,0.8-1.1,1c-0.1,0.1-0.2,0.1-0.4,0.2
					c-0.1,0-0.2,0.1-0.4,0.1c-0.3,0.1-0.6,0.1-0.8,0c-1.1-0.1-2.2-0.8-2.7-1.9c-0.3-0.5-0.3-1.2-0.2-1.8c0.1-0.6,0.4-1.1,0.8-1.6
					c0.4-0.4,0.9-0.7,1.4-0.8c0.5-0.1,1-0.1,1.5,0c0.9,0.3,1.4,0.9,1.7,1.3C184.9,51.1,185,51.4,185,51.4z M185,51.4
					c0,0,0-0.1-0.1-0.2c-0.1-0.1-0.2-0.3-0.3-0.5c-0.3-0.4-0.9-0.8-1.7-0.9c-0.4-0.1-0.8,0-1.2,0.1c-0.4,0.1-0.8,0.4-1.2,0.7
					c-0.7,0.7-1,1.8-0.7,2.9c0.2,0.5,0.5,1,1,1.3c0.5,0.3,1,0.5,1.5,0.4c0.3,0,0.5,0,0.7-0.1c0.1,0,0.2-0.1,0.3-0.1
					c0.1,0,0.2-0.1,0.3-0.1c0.4-0.2,0.7-0.5,1-0.8c0.5-0.6,0.7-1.4,0.6-1.8c0-0.2-0.1-0.4-0.1-0.6C185,51.5,185,51.4,185,51.4z"/>
			</g>
		</g>
		<g>
			
				<ellipse transform="matrix(0.7817 -0.6236 0.6236 0.7817 7.8146 128.7875)" class="st64" cx="187.9" cy="53.2" rx="2.9" ry="2.9"/>
			<g>
				<path class="st59" d="M186.1,50.9c0,0,0.2-0.2,0.7-0.4c0.4-0.2,1.2-0.5,2.1-0.3c0.4,0.1,0.9,0.4,1.3,0.8
					c0.1,0.1,0.2,0.2,0.3,0.3c0.1,0.1,0.1,0.2,0.2,0.3c0.1,0.3,0.2,0.5,0.3,0.8c0.2,1.1-0.1,2.3-1,3.2c-0.4,0.4-1,0.7-1.6,0.7
					c-0.6,0.1-1.2,0-1.7-0.3c-0.5-0.3-1-0.7-1.2-1.1c-0.3-0.5-0.4-1-0.4-1.4c0-0.9,0.4-1.6,0.7-2C185.8,51.1,186.1,50.9,186.1,50.9z
					 M186.1,51c0,0-0.1,0-0.1,0.1c-0.1,0.1-0.2,0.2-0.4,0.4c-0.3,0.4-0.5,1.1-0.4,1.9c0.1,0.4,0.2,0.8,0.4,1.2
					c0.3,0.4,0.6,0.7,1,0.9c0.8,0.5,2,0.4,2.9-0.2c0.4-0.3,0.8-0.8,1-1.3c0.2-0.5,0.2-1.1,0-1.6c-0.1-0.2-0.2-0.5-0.3-0.7
					c-0.1-0.1-0.1-0.2-0.2-0.3c-0.1-0.1-0.2-0.2-0.2-0.2c-0.3-0.3-0.7-0.5-1.1-0.7c-0.7-0.3-1.5-0.2-1.9-0.1
					c-0.2,0.1-0.4,0.2-0.5,0.3C186.1,50.9,186.1,51,186.1,51z"/>
			</g>
		</g>
		<g>
			<circle class="st64" cx="36.6" cy="40.5" r="2.9"/>
			<g>
				<path class="st59" d="M39.5,40.5c0,0,0,0.3-0.1,0.8c-0.1,0.5-0.4,1.2-1.1,1.8c-0.4,0.3-0.8,0.5-1.4,0.5c-0.1,0-0.3,0-0.4,0
					c-0.1,0-0.2,0-0.4-0.1c-0.3-0.1-0.5-0.2-0.8-0.3c-1-0.5-1.7-1.6-1.8-2.8c0-0.6,0.1-1.2,0.4-1.7c0.3-0.5,0.8-0.9,1.3-1.2
					c0.5-0.2,1.1-0.3,1.6-0.3c0.6,0.1,1,0.3,1.4,0.6c0.7,0.6,1,1.3,1.1,1.8C39.5,40.2,39.5,40.5,39.5,40.5z M39.4,40.5
					c0,0,0-0.1,0-0.2c0-0.1,0-0.3-0.1-0.6c-0.1-0.5-0.6-1.1-1.3-1.5c-0.3-0.2-0.8-0.3-1.2-0.4c-0.5,0-0.9,0-1.4,0.2
					c-0.4,0.2-0.9,0.5-1.2,0.9c-0.3,0.4-0.5,0.9-0.5,1.5c0,0.5,0.1,1.1,0.4,1.6c0.3,0.4,0.7,0.8,1.2,1c0.2,0.1,0.5,0.1,0.7,0.2
					c0.1,0,0.2,0,0.4,0c0.1,0,0.2,0,0.3,0c0.4-0.1,0.8-0.2,1.2-0.4c0.7-0.4,1.1-1,1.3-1.5c0.1-0.2,0.1-0.4,0.1-0.6
					C39.4,40.5,39.4,40.5,39.4,40.5z"/>
			</g>
		</g>
		<g>
			<ellipse transform="matrix(0.885 -0.4656 0.4656 0.885 -13.4655 24.2696)" class="st64" cx="42.4" cy="39.4" rx="2.9" ry="2.9"/>
			<g>
				<path class="st59" d="M45,38c0,0,0.1,0.2,0.3,0.7c0.1,0.5,0.2,1.3-0.1,2.1c-0.2,0.4-0.5,0.8-1,1.1c-0.1,0.1-0.2,0.1-0.4,0.2
					c-0.1,0-0.2,0.1-0.4,0.1c-0.3,0.1-0.5,0.1-0.8,0.1c-1.1,0-2.3-0.6-2.9-1.6c-0.3-0.5-0.5-1.1-0.4-1.7c0-0.6,0.3-1.2,0.6-1.7
					c0.3-0.5,0.8-0.8,1.3-1c0.5-0.2,1-0.2,1.5-0.1c0.9,0.2,1.5,0.7,1.8,1.1C44.9,37.8,45,38,45,38z M44.9,38.1c0,0,0-0.1-0.1-0.2
					c-0.1-0.1-0.2-0.3-0.4-0.4c-0.3-0.3-1-0.7-1.8-0.7c-0.4,0-0.8,0.1-1.2,0.2c-0.4,0.2-0.8,0.4-1.1,0.8c-0.3,0.4-0.5,0.8-0.6,1.4
					c-0.1,0.5,0,1,0.2,1.6c0.2,0.5,0.6,0.9,1.1,1.2c0.5,0.3,1,0.4,1.5,0.3c0.2,0,0.5-0.1,0.7-0.2c0.1,0,0.2-0.1,0.3-0.2
					c0.1,0,0.2-0.1,0.3-0.2c0.4-0.3,0.6-0.6,0.9-0.9c0.4-0.7,0.5-1.4,0.4-1.9c0-0.2-0.1-0.4-0.2-0.5C45,38.1,44.9,38.1,44.9,38.1z"
					/>
			</g>
		</g>
		<g>
			<ellipse transform="matrix(0.885 -0.4656 0.4656 0.885 -10.4793 35.3038)" class="st64" cx="66.2" cy="38.9" rx="2.9" ry="2.9"/>
			<g>
				<path class="st59" d="M68.8,37.5c0,0,0.1,0.2,0.3,0.7c0.1,0.5,0.2,1.3-0.1,2.1c-0.2,0.4-0.5,0.8-1,1.1c-0.1,0.1-0.2,0.1-0.4,0.2
					c-0.1,0-0.2,0.1-0.4,0.1c-0.3,0.1-0.5,0.1-0.8,0.1c-1.1,0-2.3-0.6-2.9-1.6c-0.3-0.5-0.5-1.1-0.4-1.7c0-0.6,0.3-1.2,0.6-1.7
					c0.3-0.5,0.8-0.8,1.3-1c0.5-0.2,1-0.2,1.5-0.1c0.9,0.2,1.5,0.7,1.8,1.1C68.7,37.2,68.8,37.5,68.8,37.5z M68.8,37.5
					c0,0,0-0.1-0.1-0.2c-0.1-0.1-0.2-0.3-0.4-0.4c-0.3-0.3-1-0.7-1.8-0.7c-0.4,0-0.8,0.1-1.2,0.2c-0.4,0.2-0.8,0.4-1.1,0.8
					c-0.3,0.4-0.5,0.8-0.6,1.4c-0.1,0.5,0,1,0.2,1.6c0.2,0.5,0.6,0.9,1.1,1.2c0.5,0.3,1,0.4,1.5,0.3c0.2,0,0.5-0.1,0.7-0.2
					c0.1,0,0.2-0.1,0.3-0.2c0.1,0,0.2-0.1,0.3-0.2c0.4-0.3,0.6-0.6,0.9-0.9c0.4-0.7,0.5-1.4,0.4-1.9c0-0.2-0.1-0.4-0.2-0.5
					C68.8,37.6,68.8,37.5,68.8,37.5z"/>
			</g>
		</g>
		<g>
			<ellipse transform="matrix(0.843 -0.538 0.538 0.843 -22.4836 14.4905)" class="st64" cx="13.6" cy="45.8" rx="2.9" ry="2.9"/>
			<g>
				<path class="st59" d="M15.2,48.2c0,0-0.2,0.2-0.7,0.3c-0.5,0.2-1.2,0.3-2.1,0c-0.4-0.2-0.9-0.5-1.2-0.9
					c-0.1-0.1-0.2-0.2-0.2-0.3c-0.1-0.1-0.1-0.2-0.2-0.4c-0.1-0.3-0.2-0.5-0.2-0.8c-0.1-1.1,0.4-2.3,1.4-3c0.5-0.3,1.1-0.6,1.7-0.6
					c0.6,0,1.2,0.2,1.7,0.5c0.5,0.3,0.9,0.8,1.1,1.2c0.2,0.5,0.3,1,0.3,1.5c-0.1,0.9-0.6,1.6-0.9,1.9C15.4,48.1,15.2,48.2,15.2,48.2
					z M15.1,48.2c0,0,0.1,0,0.2-0.1c0.1-0.1,0.3-0.2,0.4-0.4c0.3-0.4,0.6-1.1,0.6-1.8c0-0.4-0.1-0.8-0.3-1.2c-0.2-0.4-0.5-0.8-0.9-1
					c-0.8-0.6-2-0.7-2.9-0.1c-0.5,0.3-0.9,0.7-1.1,1.2c-0.2,0.5-0.3,1.1-0.1,1.6c0.1,0.2,0.1,0.5,0.3,0.7c0,0.1,0.1,0.2,0.2,0.3
					c0.1,0.1,0.1,0.2,0.2,0.3c0.3,0.3,0.6,0.6,1,0.8c0.7,0.4,1.5,0.4,1.9,0.3c0.2-0.1,0.4-0.1,0.5-0.2
					C15.1,48.2,15.1,48.2,15.1,48.2z"/>
			</g>
		</g>
		<g>
			<ellipse transform="matrix(0.843 -0.538 0.538 0.843 -19.0427 20.2048)" class="st64" cx="25.1" cy="42.7" rx="2.9" ry="2.9"/>
			<g>
				<path class="st59" d="M26.7,45.2c0,0-0.2,0.2-0.7,0.3c-0.5,0.2-1.2,0.3-2.1,0c-0.4-0.2-0.9-0.5-1.2-0.9
					c-0.1-0.1-0.2-0.2-0.2-0.3c-0.1-0.1-0.1-0.2-0.2-0.4c-0.1-0.3-0.2-0.5-0.2-0.8c-0.1-1.1,0.4-2.3,1.4-3c0.5-0.3,1.1-0.6,1.7-0.6
					c0.6,0,1.2,0.2,1.7,0.5c0.5,0.3,0.9,0.8,1.1,1.2c0.2,0.5,0.3,1,0.3,1.5c-0.1,0.9-0.6,1.6-0.9,1.9C26.9,45,26.7,45.2,26.7,45.2z
					 M26.6,45.1c0,0,0.1,0,0.2-0.1c0.1-0.1,0.3-0.2,0.4-0.4c0.3-0.4,0.6-1.1,0.6-1.8c0-0.4-0.1-0.8-0.3-1.2c-0.2-0.4-0.5-0.8-0.9-1
					c-0.4-0.3-0.9-0.4-1.4-0.5c-0.5,0-1,0.1-1.5,0.3c-0.5,0.3-0.9,0.7-1.1,1.2c-0.2,0.5-0.3,1.1-0.1,1.6c0.1,0.2,0.1,0.5,0.3,0.7
					c0,0.1,0.1,0.2,0.2,0.3c0.1,0.1,0.1,0.2,0.2,0.3c0.3,0.3,0.6,0.6,1,0.8c0.7,0.4,1.5,0.4,1.9,0.3c0.2-0.1,0.4-0.1,0.5-0.2
					C26.6,45.2,26.6,45.1,26.6,45.1z"/>
			</g>
		</g>
		<g>
			
				<ellipse transform="matrix(0.3445 -0.9388 0.9388 0.3445 -28.8469 47.3933)" class="st64" cx="19.5" cy="44.4" rx="2.9" ry="2.9"/>
			<g>
				<path class="st59" d="M18.5,47.1c0,0-0.3-0.1-0.7-0.4c-0.4-0.3-1-0.8-1.3-1.7c-0.1-0.4-0.2-1,0-1.5c0-0.1,0.1-0.2,0.1-0.4
					c0.1-0.1,0.1-0.2,0.2-0.3c0.1-0.2,0.3-0.5,0.5-0.6c0.8-0.8,2.1-1.1,3.2-0.7c0.6,0.2,1.1,0.5,1.5,1c0.4,0.5,0.6,1.1,0.6,1.6
					c0.1,0.6-0.1,1.2-0.3,1.6c-0.3,0.5-0.6,0.9-1,1.1c-0.8,0.5-1.6,0.5-2.1,0.4C18.8,47.2,18.5,47.1,18.5,47.1z M18.5,47.1
					c0,0,0.1,0,0.2,0.1c0.1,0,0.3,0.1,0.6,0.1c0.5,0,1.2-0.2,1.8-0.7c0.3-0.2,0.6-0.6,0.8-1c0.2-0.4,0.3-0.9,0.3-1.4
					c0-0.5-0.2-1-0.5-1.4c-0.3-0.4-0.7-0.8-1.2-1c-0.5-0.2-1.1-0.3-1.6-0.2c-0.5,0.1-1,0.4-1.3,0.8c-0.2,0.2-0.3,0.4-0.4,0.6
					c-0.1,0.1-0.1,0.2-0.1,0.3c0,0.1-0.1,0.2-0.1,0.3c-0.1,0.4-0.1,0.9,0,1.3c0.1,0.8,0.6,1.4,1,1.7c0.2,0.2,0.4,0.2,0.5,0.3
					C18.5,47,18.5,47.1,18.5,47.1z"/>
			</g>
		</g>
		<g>
			
				<ellipse transform="matrix(0.7071 -0.7071 0.7071 0.7071 -20.1974 33.6258)" class="st64" cx="30.5" cy="41.2" rx="2.9" ry="2.9"/>
			<g>
				<path class="st59" d="M28.4,43.3c0,0-0.2-0.2-0.5-0.6c-0.3-0.4-0.6-1.1-0.5-2.1c0.1-0.5,0.3-0.9,0.6-1.3
					c0.1-0.1,0.2-0.2,0.3-0.3c0.1-0.1,0.2-0.2,0.3-0.2c0.2-0.2,0.5-0.3,0.8-0.4c1.1-0.3,2.3-0.1,3.2,0.7c0.4,0.4,0.8,0.9,0.9,1.5
					c0.1,0.6,0.1,1.2-0.1,1.8c-0.2,0.5-0.6,1-1,1.3c-0.4,0.3-0.9,0.5-1.4,0.6c-0.9,0.1-1.6-0.2-2.1-0.5
					C28.6,43.5,28.4,43.3,28.4,43.3z M28.5,43.2c0,0,0.1,0,0.2,0.1c0.1,0.1,0.3,0.2,0.5,0.3c0.4,0.2,1.2,0.4,1.9,0.2
					c0.4-0.1,0.8-0.3,1.1-0.6c0.4-0.3,0.6-0.7,0.8-1.1c0.4-0.9,0.2-2.1-0.5-2.9c-0.4-0.4-0.9-0.7-1.4-0.8c-0.5-0.1-1.1,0-1.6,0.2
					c-0.2,0.1-0.4,0.2-0.6,0.4c-0.1,0.1-0.2,0.2-0.3,0.3c-0.1,0.1-0.2,0.2-0.2,0.3c-0.3,0.4-0.4,0.8-0.5,1.1
					c-0.2,0.8-0.1,1.5,0.2,1.9c0.1,0.2,0.2,0.4,0.3,0.5C28.4,43.2,28.5,43.2,28.5,43.2z"/>
			</g>
		</g>
		<g>
			
				<ellipse transform="matrix(0.9287 -0.3709 0.3709 0.9287 -10.444 22.8767)" class="st64" cx="54.3" cy="38.6" rx="2.9" ry="2.9"/>
			<g>
				<path class="st59" d="M51.5,39.7c0,0-0.1-0.3-0.2-0.8c-0.1-0.5-0.1-1.3,0.4-2.1c0.2-0.4,0.6-0.8,1.1-1c0.1-0.1,0.2-0.1,0.4-0.2
					c0.1,0,0.2-0.1,0.4-0.1c0.3-0.1,0.6-0.1,0.8,0c1.1,0.1,2.2,0.8,2.7,1.9c0.2,0.5,0.3,1.2,0.2,1.8c-0.1,0.6-0.4,1.1-0.8,1.6
					c-0.4,0.4-0.9,0.7-1.4,0.8c-0.5,0.1-1,0.1-1.5,0c-0.9-0.3-1.4-0.9-1.7-1.3C51.6,40,51.5,39.7,51.5,39.7z M51.6,39.7
					c0,0,0,0.1,0.1,0.2c0.1,0.1,0.2,0.3,0.3,0.5c0.3,0.4,0.9,0.8,1.7,0.9c0.4,0.1,0.8,0,1.2-0.1c0.4-0.1,0.8-0.4,1.2-0.7
					c0.3-0.3,0.6-0.8,0.7-1.3c0.1-0.5,0.1-1-0.1-1.6c-0.2-0.5-0.5-1-1-1.3c-0.5-0.3-1-0.5-1.5-0.4c-0.3,0-0.5,0-0.7,0.1
					c-0.1,0-0.2,0.1-0.3,0.1c-0.1,0-0.2,0.1-0.3,0.1c-0.4,0.2-0.7,0.5-1,0.8c-0.5,0.6-0.7,1.4-0.6,1.8c0,0.2,0.1,0.4,0.1,0.6
					C51.6,39.6,51.6,39.7,51.6,39.7z"/>
			</g>
		</g>
		<g>
			
				<ellipse transform="matrix(0.6523 -0.7579 0.7579 0.6523 -8.1879 59.1152)" class="st64" cx="60.3" cy="38.5" rx="2.9" ry="2.9"/>
			<g>
				<path class="st59" d="M58.4,40.7c0,0-0.2-0.2-0.5-0.6c-0.3-0.4-0.7-1.1-0.6-2c0-0.5,0.2-1,0.5-1.4c0.1-0.1,0.2-0.2,0.3-0.3
					c0.1-0.1,0.2-0.2,0.3-0.3c0.2-0.2,0.5-0.3,0.7-0.4c1-0.4,2.3-0.3,3.3,0.4c0.5,0.3,0.8,0.9,1,1.5c0.2,0.6,0.2,1.2,0,1.8
					c-0.2,0.6-0.5,1.1-0.9,1.4c-0.4,0.4-0.9,0.6-1.3,0.7c-0.9,0.2-1.7-0.1-2.1-0.3C58.6,40.9,58.4,40.7,58.4,40.7z M58.5,40.7
					c0,0,0.1,0,0.2,0.1c0.1,0.1,0.3,0.2,0.5,0.3c0.4,0.2,1.2,0.3,1.9,0c0.4-0.1,0.7-0.4,1.1-0.6c0.3-0.3,0.6-0.7,0.7-1.2
					c0.2-0.5,0.2-1,0.1-1.5c-0.1-0.5-0.4-1-0.8-1.4c-0.4-0.4-0.9-0.6-1.4-0.7c-0.5-0.1-1.1,0-1.5,0.3c-0.2,0.1-0.4,0.3-0.6,0.4
					c-0.1,0.1-0.2,0.2-0.2,0.3c-0.1,0.1-0.1,0.2-0.2,0.3c-0.2,0.4-0.4,0.8-0.5,1.2c-0.2,0.8,0,1.5,0.3,1.9c0.1,0.2,0.3,0.4,0.3,0.4
					C58.4,40.6,58.5,40.7,58.5,40.7z"/>
			</g>
		</g>
		<g>
			
				<ellipse transform="matrix(0.7817 -0.6236 0.6236 0.7817 -13.5554 38.462)" class="st64" cx="48.2" cy="38.6" rx="2.9" ry="2.9"/>
			<g>
				<path class="st59" d="M45.9,40.4c0,0-0.2-0.2-0.4-0.7c-0.2-0.4-0.5-1.2-0.3-2.1c0.1-0.4,0.4-0.9,0.8-1.3
					c0.1-0.1,0.2-0.2,0.3-0.3c0.1-0.1,0.2-0.1,0.3-0.2c0.3-0.1,0.5-0.2,0.8-0.3c1.1-0.2,2.3,0.1,3.2,1c0.4,0.4,0.7,1,0.7,1.6
					c0.1,0.6,0,1.2-0.3,1.7c-0.3,0.5-0.7,1-1.1,1.2c-0.5,0.3-1,0.4-1.4,0.4c-0.9,0-1.6-0.4-2-0.7C46,40.7,45.9,40.4,45.9,40.4z
					 M45.9,40.4c0,0,0,0.1,0.1,0.1c0.1,0.1,0.2,0.2,0.4,0.4c0.4,0.3,1.1,0.5,1.9,0.4c0.4-0.1,0.8-0.2,1.2-0.4c0.4-0.3,0.7-0.6,0.9-1
					c0.2-0.4,0.4-0.9,0.3-1.4c0-0.5-0.2-1-0.5-1.5c-0.3-0.4-0.8-0.8-1.3-1c-0.5-0.2-1.1-0.2-1.6,0c-0.2,0.1-0.5,0.2-0.7,0.3
					c-0.1,0.1-0.2,0.1-0.3,0.2c-0.1,0.1-0.2,0.2-0.2,0.2c-0.3,0.3-0.5,0.7-0.7,1.1c-0.3,0.7-0.2,1.5-0.1,1.9
					c0.1,0.2,0.2,0.4,0.3,0.5C45.9,40.3,45.9,40.4,45.9,40.4z"/>
			</g>
		</g>
	</g>
	<path class="st65" d="M8.9,51.9c7.1,4.9,36.2,14.2,63.2,20.8C99,79.4,199.7,83.5,230.6,80s78-3.3,104.2-11.4
		c26.4-8.2,28.7-5.2,41.6-9c2.6-0.7,0.2,1.9-2.1,3.6c-2.4,1.8-16.6,24.5-78,31.9s-156.3,4.3-174,3.3s-55.8-3.9-84.8-23.8
		S8.9,51.9,8.9,51.9z"/>
	<g>
		<ellipse transform="matrix(0.866 -0.5 0.5 0.866 26.7562 203.6046)" class="st66" cx="393.3" cy="51.9" rx="4.9" ry="4.9"/>
		<g>
			<path class="st59" d="M395.8,56.2c0,0-0.1,0.1-0.3,0.2c-0.2,0.1-0.5,0.2-0.9,0.4c-0.4,0.1-0.9,0.2-1.5,0.2c-0.6,0-1.3-0.1-2-0.4
				c-0.7-0.3-1.4-0.8-1.9-1.6c-0.1-0.2-0.2-0.4-0.4-0.6c-0.1-0.2-0.2-0.4-0.3-0.6c-0.2-0.4-0.2-0.9-0.3-1.4c0-0.9,0.1-1.9,0.6-2.8
				c0.4-0.9,1.1-1.6,2-2.2c0.4-0.3,0.9-0.5,1.4-0.6c0.5-0.1,1-0.2,1.5-0.2c1,0,2,0.4,2.8,1c0.8,0.6,1.4,1.4,1.7,2.1
				c0.4,0.8,0.5,1.7,0.4,2.5c-0.1,0.8-0.4,1.4-0.7,2c-0.3,0.5-0.7,0.9-1,1.2c-0.3,0.3-0.6,0.5-0.8,0.6
				C395.9,56.1,395.8,56.2,395.8,56.2z M395.8,56.1c0,0,0.1-0.1,0.3-0.2c0.2-0.1,0.5-0.3,0.7-0.6c0.6-0.6,1.2-1.7,1.2-3.1
				c0-0.7-0.1-1.4-0.4-2.1c-0.3-0.7-0.8-1.4-1.5-1.9c-0.7-0.5-1.5-0.8-2.4-0.9c-0.9-0.1-1.8,0.1-2.7,0.5c-0.4,0.2-0.8,0.5-1.1,0.8
				c-0.3,0.3-0.6,0.7-0.8,1.1c-0.4,0.8-0.6,1.8-0.4,2.7c0.1,0.4,0.2,0.9,0.4,1.2c0.1,0.2,0.2,0.4,0.3,0.6c0.1,0.2,0.2,0.3,0.3,0.5
				c0.5,0.6,1.1,1.1,1.7,1.4c1.2,0.7,2.5,0.7,3.3,0.5c0.4-0.1,0.7-0.2,0.9-0.3C395.7,56.2,395.8,56.1,395.8,56.1z"/>
		</g>
	</g>
</g>
</svg>
