<?xml version="1.0" encoding="utf-8"?>
<!-- Generator: Adobe Illustrator 19.2.0, SVG Export Plug-In . SVG Version: 6.00 Build 0)  -->
<svg version="1.1" id="Lager_1" xmlns="http://www.w3.org/2000/svg" xmlns:xlink="http://www.w3.org/1999/xlink" x="0px" y="0px"
	 viewBox="0 0 398.9 104" style="enable-background:new 0 0 398.9 104;" xml:space="preserve">
<style type="text/css">
	.st0{fill:#7F4F12;}
	.st1{fill:#563A1C;}
	.st2{opacity:0.6;fill:#563A1C;}
	.st3{fill:#CEE1EC;}
	.st4{fill:#5E98BE;}
	.st5{opacity:0.1;fill:#5E98BE;}
	.st6{fill:#A55B16;}
	.st7{fill:#894B16;}
	.st8{fill:#6D7F3B;}
	.st9{fill:#5E6E30;}
	.st10{opacity:0.4;fill:#5E6E30;}
	.st11{fill:#6D843A;}
	.st12{opacity:0.7;}
	.st13{fill:#56642B;}
	.st14{fill:#798E41;}
	.st15{fill:#6C7C35;}
	.st16{opacity:0.4;}
	.st17{fill:url(#SVGID_1_);}
	.st18{fill:#E09D20;}
	.st19{opacity:0.8;fill:#FFFFFF;}
	.st20{fill:url(#SVGID_2_);}
	.st21{fill:#FFD941;}
	.st22{fill:#F7A60B;}
	.st23{opacity:0.6;fill:#FAB722;}
	.st24{opacity:0.4;fill:#EFAF12;}
	.st25{fill:#FECD41;}
	.st26{fill:#FAB722;}
	.st27{fill:#5E71A3;}
	.st28{fill:#354366;}
	.st29{fill:#495682;}
	.st30{fill:#58699F;}
	.st31{fill:#6579AB;}
	.st32{opacity:0.5;}
	.st33{fill:#7697A9;}
	.st34{opacity:0.3;fill:#7697A9;}
	.st35{opacity:0.3;fill:none;stroke:#7697A9;stroke-width:2;stroke-linecap:round;stroke-miterlimit:10;}
	.st36{fill:#D391BF;}
	.st37{fill:#D391BF;stroke:#282829;stroke-width:1.4451;stroke-miterlimit:10;}
	.st38{fill:none;stroke:#282829;stroke-width:1.4451;stroke-miterlimit:10;}
	.st39{fill:#EBB7D5;}
	.st40{fill:#282829;}
	.st41{fill:#CB6DA9;stroke:#282829;stroke-width:1.4451;stroke-miterlimit:10;}
	.st42{fill:#CB6DA9;}
	.st43{fill:#803461;stroke:#282829;stroke-width:0.7226;stroke-miterlimit:10;}
	.st44{fill:none;stroke:#272727;stroke-width:1.4451;stroke-miterlimit:10;}
	.st45{fill:#FFFFFF;stroke:#272727;stroke-width:1.4451;stroke-miterlimit:10;}
	.st46{fill:#803461;}
	.st47{fill:#010202;}
	.st48{fill:#FFFFFF;}
	.st49{fill:#FFFFFF;stroke:#010202;stroke-width:0.7226;stroke-miterlimit:10;}
	.st50{fill:#803461;stroke:#282829;stroke-width:1.4451;stroke-miterlimit:10;}
	.st51{fill:#803461;stroke:#272727;stroke-width:1.4451;stroke-miterlimit:10;}
	.st52{fill:#020203;}
	.st53{fill:#E8B5D4;stroke:#272727;stroke-width:1.4451;stroke-miterlimit:10;}
	.st54{fill:#522040;}
	.st55{fill:#272727;}
	.st56{opacity:0.1;}
	.st57{opacity:0.2;fill:none;stroke:#7697A9;stroke-width:1.2979;stroke-linecap:round;stroke-miterlimit:10;}
	.st58{fill:#5F8AC7;}
	.st59{fill:#40507D;}
	.st60{fill:none;stroke:#5E98BE;stroke-miterlimit:10;}
	.st61{fill:none;stroke:#5E98BE;stroke-miterlimit:10;stroke-dasharray:2.9508,2.9508;}
	.st62{opacity:0.15;fill:#5E98BE;}
	.st63{opacity:0.3;fill:#5E98BE;}
	.st64{fill:#9CC1E7;}
	.st65{opacity:0.2;fill:#5E98BE;}
	.st66{fill:#79A3C9;}
	.st67{opacity:0.3;fill:none;stroke:#7697A9;stroke-width:1.7202;stroke-linecap:round;stroke-miterlimit:10;}
	.st68{fill:#D391BF;stroke:#282829;stroke-width:1.287;stroke-miterlimit:10;}
	.st69{fill:none;stroke:#282829;stroke-width:1.287;stroke-miterlimit:10;}
	.st70{fill:#CB6DA9;stroke:#282829;stroke-width:1.287;stroke-miterlimit:10;}
	.st71{fill:#803461;stroke:#282829;stroke-width:0.6435;stroke-miterlimit:10;}
	.st72{fill:none;stroke:#272727;stroke-width:1.287;stroke-miterlimit:10;}
	.st73{fill:#FFFFFF;stroke:#272727;stroke-width:1.287;stroke-miterlimit:10;}
	.st74{fill:#FFFFFF;stroke:#010202;stroke-width:0.6435;stroke-miterlimit:10;}
	.st75{fill:#803461;stroke:#282829;stroke-width:1.287;stroke-miterlimit:10;}
	.st76{fill:#803461;stroke:#272727;stroke-width:1.287;stroke-miterlimit:10;}
	.st77{fill:#E8B5D4;stroke:#272727;stroke-width:1.287;stroke-miterlimit:10;}
	.st78{fill:none;stroke:#5E98BE;stroke-width:2.11;stroke-miterlimit:10;}
	.st79{fill:none;stroke:#5E98BE;stroke-width:2.11;stroke-miterlimit:10;stroke-dasharray:6.3327,6.3327;}
	.st80{fill:#D391BF;stroke:#282829;stroke-width:1.1143;stroke-miterlimit:10;}
	.st81{fill:none;stroke:#282829;stroke-width:1.1143;stroke-miterlimit:10;}
	.st82{fill:#CB6DA9;stroke:#282829;stroke-width:1.1143;stroke-miterlimit:10;}
	.st83{fill:#803461;stroke:#282829;stroke-width:0.5571;stroke-miterlimit:10;}
	.st84{fill:none;stroke:#272727;stroke-width:1.1143;stroke-miterlimit:10;}
	.st85{fill:#FFFFFF;stroke:#272727;stroke-width:1.1143;stroke-miterlimit:10;}
	.st86{fill:#FFFFFF;stroke:#010202;stroke-width:0.5571;stroke-miterlimit:10;}
	.st87{fill:#803461;stroke:#282829;stroke-width:1.1143;stroke-miterlimit:10;}
	.st88{fill:#803461;stroke:#272727;stroke-width:1.1143;stroke-miterlimit:10;}
	.st89{fill:#E8B5D4;stroke:#272727;stroke-width:1.1143;stroke-miterlimit:10;}
	.st90{fill:none;stroke:#5E98BE;stroke-width:2.11;stroke-miterlimit:10;stroke-dasharray:6.31,6.31;}
	.st91{fill:none;stroke:#5E98BE;stroke-width:2.2032;stroke-miterlimit:10;}
	.st92{fill:none;stroke:#5E98BE;stroke-width:2.2032;stroke-miterlimit:10;stroke-dasharray:6.5885,6.5885;}
	.st93{opacity:0.3;fill:none;stroke:#7697A9;stroke-width:1.0903;stroke-linecap:round;stroke-miterlimit:10;}
</style>
<g>
	<g>
		<path class="st3" d="M0.5,49.4c8.2-17.9,33.1-36.7,97-45c28.1-3.6,41.7-3.8,92.7,0.9c51.1,4.7,98.3,0.5,127.2,7.8
			c72.8,18.4,80.5,40.4,80.5,40.4s-12.5,5-16.4,9.1S365.2,88.5,309,96.7s-201.7,6.4-223,2.3S40.8,84.4,19,68S0.5,49.4,0.5,49.4z"/>
		<g>
			<path class="st4" d="M0.3,49.4L0.3,49.4c1.8-4.1,4.3-7.8,7.2-11.2c2.9-3.4,6.3-6.3,9.9-8.9C24.6,24,32.6,20,40.8,16.8
				c8.3-3.2,16.8-5.7,25.4-7.8c8.6-2,17.3-3.7,26.1-5c4.4-0.6,8.8-1.2,13.2-1.7c4.4-0.5,8.8-1,13.2-1.3c8.8-0.7,17.7-0.7,26.6-0.4
				c8.9,0.3,17.7,1,26.5,1.7L198,4.7c17.5,1.5,35.2,2,52.8,2.4c8.8,0.2,17.6,0.4,26.5,0.8c8.8,0.4,17.7,0.9,26.4,2
				c4.4,0.6,8.8,1.3,13.1,2.4c4.3,1.1,8.5,2.2,12.8,3.5c8.5,2.4,16.9,5.1,25.2,8.3c4.1,1.6,8.2,3.3,12.2,5.2c4,1.9,8,3.9,11.8,6.1
				c3.8,2.2,7.6,4.7,11,7.5c1.7,1.4,3.4,2.9,4.9,4.6c0.8,0.8,1.5,1.7,2.2,2.6c0.7,0.9,1.3,1.8,1.8,3l0.3,0.7l-0.7,0.3
				c-4,1.7-8.1,3.6-11.8,5.8c-0.9,0.6-1.8,1.2-2.7,1.8c-0.4,0.3-0.8,0.7-1.2,1c-0.3,0.3-0.7,0.8-1,1.2c-1.4,1.7-2.8,3.5-4.3,5.1
				c-6.2,6.6-13.8,11.7-21.8,15.6c-8.1,3.9-16.6,6.8-25.2,9.1c-8.6,2.3-17.5,3.8-26.3,4.9c-8.9,1.1-17.7,1.9-26.6,2.5
				c-8.9,0.6-17.7,1.1-26.6,1.5l-13.3,0.5l-13.3,0.3c-8.9,0.2-17.7,0.3-26.6,0.4c-8.9,0.1-17.7,0.1-26.6,0
				c-8.9-0.1-17.7-0.1-26.6-0.4c-8.9-0.2-17.7-0.5-26.6-0.9c-8.9-0.4-17.7-0.9-26.6-1.8c-9-1.1-17.5-3.7-26-6.7
				c-4.2-1.6-8.3-3.3-12.4-5.1c-4-1.9-8-3.9-11.9-6.1c-7.8-4.3-15.2-9.3-22.3-14.7c-3.5-2.7-7-5.5-10.3-8.5c-1.7-1.5-3.3-3-4.8-4.7
				c-0.7-0.8-1.5-1.7-2.1-2.6C1,52.1,0.7,51.6,0.4,51c-0.1-0.3-0.2-0.5-0.3-0.8C0.1,50,0.1,49.7,0.3,49.4z M0.6,49.5
				c-0.1,0.1-0.1,0.4-0.1,0.6c0,0.3,0.1,0.5,0.3,0.7c0.2,0.5,0.5,0.9,0.9,1.4C2.2,53.2,3,54,3.7,54.8c1.5,1.6,3.2,3.1,4.9,4.5
				c3.4,2.9,6.9,5.5,10.5,8.2c7.2,5.2,14.6,9.9,22.4,14.1c3.9,2.1,7.9,4,11.9,5.8c4,1.8,8.1,3.4,12.3,4.9c4.2,1.4,8.4,2.7,12.6,3.8
				c2.1,0.5,4.2,1,6.4,1.4c2.1,0.5,4.3,0.7,6.5,1c8.8,0.8,17.6,1.2,26.5,1.5c8.9,0.3,17.7,0.5,26.6,0.6c17.7,0.2,35.4,0.4,53.2,0.2
				c8.9-0.1,17.7-0.2,26.6-0.4c8.9-0.2,17.7-0.5,26.6-0.8c8.9-0.3,17.7-0.7,26.5-1.3c8.8-0.6,17.7-1.3,26.4-2.3
				c8.8-1.1,17.5-2.5,26-4.7c8.5-2.1,16.9-4.9,24.9-8.6c7.9-3.8,15.4-8.6,21.4-14.9c1.5-1.6,2.9-3.2,4.3-5c0.4-0.5,0.7-0.9,1.2-1.3
				c0.4-0.4,0.9-0.8,1.4-1.1c0.9-0.7,1.9-1.3,2.9-1.9c3.9-2.3,8-4.1,12.1-5.8l-0.5,1c-0.3-0.8-0.9-1.8-1.5-2.7
				c-0.6-0.9-1.3-1.7-2-2.5c-1.4-1.6-3-3.1-4.7-4.5c-3.3-2.8-7-5.3-10.7-7.5c-3.8-2.3-7.7-4.3-11.6-6.2c-4-1.9-8-3.6-12.1-5.2
				c-8.2-3.2-16.6-6-25-8.4c-4.2-1.2-8.5-2.3-12.8-3.4c-4.3-1-8.6-1.7-13-2.3c-8.7-1.1-17.5-1.6-26.3-1.9
				c-8.8-0.3-17.6-0.3-26.4-0.4c-17.6-0.2-35.3-0.5-53-1.7c-4.4-0.3-8.8-0.7-13.2-1.1l-13.2-1.1c-8.8-0.7-17.6-1.3-26.4-1.7
				c-8.8-0.4-17.6-0.4-26.3,0.2c-4.4,0.3-8.8,0.7-13.1,1.2c-4.4,0.5-8.8,1-13.1,1.6c-8.7,1.2-17.4,2.7-26,4.6
				c-8.6,1.9-17,4.3-25.3,7.4c-8.2,3.1-16.2,6.8-23.4,11.9C10.8,35.1,4.4,41.5,0.6,49.5L0.6,49.5L0.6,49.5z"/>
		</g>
	</g>
	<g>
		<path class="st4" d="M369.2,63.7c0,0,0.3,0,0.8-0.1c0.5-0.1,1.2-0.2,2.1-0.4c1.7-0.4,3.9-1,6.1-1.7c1.1-0.4,2.1-0.9,3.1-1.3
			c0.5-0.2,1-0.4,1.4-0.6c0.4-0.2,0.9-0.3,1.3-0.5c0.4-0.2,0.8-0.3,1.1-0.4c0.3-0.1,0.6-0.2,0.9-0.3c0.5-0.2,0.8-0.3,0.8-0.3
			l0.1,0.1c0,0-0.2,0.2-0.6,0.6c-0.2,0.2-0.4,0.4-0.7,0.7c-0.3,0.2-0.6,0.5-1,0.8c-0.4,0.3-0.8,0.5-1.2,0.8
			c-0.4,0.3-0.9,0.5-1.4,0.7c-1,0.4-2.2,0.7-3.3,1c-2.3,0.6-4.6,1-6.4,1.1c-0.9,0.1-1.6,0.1-2.1,0.1c-0.5,0-0.8-0.1-0.8-0.1
			L369.2,63.7z"/>
	</g>
	<path class="st34" d="M0.5,49.4C-1.1,54.7,44.6,93,86.1,98.9s185,4.8,223-2.3c38-7.1,57.7-19,65.8-26.5c8.2-7.5,6.7-7.6,6.7-7.6
		l16.4-9.1c0,0-41.8-16-96-8.4c-48.2,6.8-97.5,11.6-141.5,8.4c-38.9-2.8-91.3-14.7-109.3-14.8C37.3,38.7,19,44,8.5,47.1
		C3.3,48.7,0.5,49.4,0.5,49.4z"/>
	<g>
		<path class="st4" d="M259.8,8.7c0,0-0.4,0-1.2-0.1c-0.7,0-1.8,0-3,0c-2.5,0.1-5.9,0.4-9.2,1c-3.3,0.6-6.6,1.5-8.9,2.4
			c-1.2,0.4-2.2,0.8-2.8,1.1c-0.7,0.3-1.1,0.5-1.1,0.5s0.4-0.2,1-0.5c0.7-0.3,1.6-0.8,2.8-1.3c2.3-1,5.6-2,8.9-2.8
			c3.3-0.8,6.7-1.2,9.2-1.4c1.3-0.1,2.4-0.1,3.1-0.1c0.7,0,1.2,0,1.2,0L259.8,8.7z"/>
	</g>
	<path class="st93" d="M31.8,40.6c0-5.2,7-11.3,7-11.3"/>
	<path class="st93" d="M47.5,39.8c-3.5,3.1-4.4,10.9-3.2,15.6"/>
	<path class="st93" d="M59.4,38.7c0.5-1.9,2.5-6,6.5-8.3"/>
	<path class="st93" d="M340.5,44.2c2.9,2.5,5.8,10.1,5.8,13.4"/>
	<path class="st93" d="M350.7,44.8c2.7,2.7,6.5,11,5,21.2"/>
	<path class="st93" d="M160.4,54.1c-2.4,5.3-3.5,17.6-2,26"/>
	<path class="st93" d="M308.4,43.8c-1.4-4.5-4-9.2-7.3-11.3"/>
	<path class="st63" d="M0.5,49.4c1.2,3,17.7,1.2,25.8-0.1c13.2-2.2,26.7-2.9,48.9-0.6c22.2,2.4,34.3,4.9,51.7,8.3
		c24.9,4.9,39.5,6.4,79.1,5.3s73.4-7.1,90.8-9.6s50.9-3.2,62.9-1.6c29.7,3.8,36.9,2,36.9,2s-4.4-2.2-21-5.9c-17-3.8-47-4.7-59.5-4
		c-12,0.7-28.9,2.5-48.7,6.5c-18.8,3.8-43.6,5.4-78.2,5.3c-34.6-0.1-79.7-7.9-94.9-10.9c-14.8-3-38.2-5.7-52.5-4.5
		c-10.1,0.8-26.6,5.8-35.4,8.5C2.8,49,0.5,49.4,0.5,49.4z"/>
	<path class="st65" d="M2.3,53.5C9.7,58.6,39.7,68.2,67.5,75s131.7,11,163.6,7.5s80.5-3.4,107.6-11.8c27.3-8.4,29.7-5.4,42.9-9.3
		c2.6-0.8,0.2,1.9-2.2,3.8s-17.1,25.3-80.5,32.9s-161.3,4.5-179.5,3.4S61.8,97.5,31.8,77S2.3,53.5,2.3,53.5z"/>
	<g>
		<g>
			<path class="st4" d="M0.3,49.4L0.3,49.4c1.8-4.1,4.3-7.8,7.2-11.2c2.9-3.4,6.3-6.3,9.9-8.9C24.6,24,32.6,20,40.8,16.8
				c8.3-3.2,16.8-5.7,25.4-7.8c8.6-2,17.3-3.7,26.1-5c4.4-0.6,8.8-1.2,13.2-1.7c4.4-0.5,8.8-1,13.2-1.3c8.8-0.7,17.7-0.7,26.6-0.4
				c8.9,0.3,17.7,1,26.5,1.7L198,4.7c17.5,1.5,35.2,2,52.8,2.4c8.8,0.2,17.6,0.4,26.5,0.8c8.8,0.4,17.7,0.9,26.4,2
				c4.4,0.6,8.8,1.3,13.1,2.4c4.3,1.1,8.5,2.2,12.8,3.5c8.5,2.4,16.9,5.1,25.2,8.3c4.1,1.6,8.2,3.3,12.2,5.2c4,1.9,8,3.9,11.8,6.1
				c3.8,2.2,7.6,4.7,11,7.5c1.7,1.4,3.4,2.9,4.9,4.6c0.8,0.8,1.5,1.7,2.2,2.6c0.7,0.9,1.3,1.8,1.8,3l0.3,0.7l-0.7,0.3
				c-4,1.7-8.1,3.6-11.8,5.8c-0.9,0.6-1.8,1.2-2.7,1.8c-0.4,0.3-0.8,0.7-1.2,1c-0.3,0.3-0.7,0.8-1,1.2c-1.4,1.7-2.8,3.5-4.3,5.1
				c-6.2,6.6-13.8,11.7-21.8,15.6c-8.1,3.9-16.6,6.8-25.2,9.1c-8.6,2.3-17.5,3.8-26.3,4.9c-8.9,1.1-17.7,1.9-26.6,2.5
				c-8.9,0.6-17.7,1.1-26.6,1.5l-13.3,0.5l-13.3,0.3c-8.9,0.2-17.7,0.3-26.6,0.4c-8.9,0.1-17.7,0.1-26.6,0
				c-8.9-0.1-17.7-0.1-26.6-0.4c-8.9-0.2-17.7-0.5-26.6-0.9c-8.9-0.4-17.7-0.9-26.6-1.8c-9-1.1-17.5-3.7-26-6.7
				c-4.2-1.6-8.3-3.3-12.4-5.1c-4-1.9-8-3.9-11.9-6.1c-7.8-4.3-15.2-9.3-22.3-14.7c-3.5-2.7-7-5.5-10.3-8.5c-1.7-1.5-3.3-3-4.8-4.7
				c-0.7-0.8-1.5-1.7-2.1-2.6C1,52.1,0.7,51.6,0.4,51c-0.1-0.3-0.2-0.5-0.3-0.8C0.1,50,0.1,49.7,0.3,49.4z M0.6,49.5
				c-0.1,0.1-0.1,0.4-0.1,0.6c0,0.3,0.1,0.5,0.3,0.7c0.2,0.5,0.5,0.9,0.9,1.4C2.2,53.2,3,54,3.7,54.8c1.5,1.6,3.2,3.1,4.9,4.5
				c3.4,2.9,6.9,5.5,10.5,8.2c7.2,5.2,14.6,9.9,22.4,14.1c3.9,2.1,7.9,4,11.9,5.8c4,1.8,8.1,3.4,12.3,4.9c4.2,1.4,8.4,2.7,12.6,3.8
				c2.1,0.5,4.2,1,6.4,1.4c2.1,0.5,4.3,0.7,6.5,1c8.8,0.8,17.6,1.2,26.5,1.5c8.9,0.3,17.7,0.5,26.6,0.6c17.7,0.2,35.4,0.4,53.2,0.2
				c8.9-0.1,17.7-0.2,26.6-0.4c8.9-0.2,17.7-0.5,26.6-0.8c8.9-0.3,17.7-0.7,26.5-1.3c8.8-0.6,17.7-1.3,26.4-2.3
				c8.8-1.1,17.5-2.5,26-4.7c8.5-2.1,16.9-4.9,24.9-8.6c7.9-3.8,15.4-8.6,21.4-14.9c1.5-1.6,2.9-3.2,4.3-5c0.4-0.5,0.7-0.9,1.2-1.3
				c0.4-0.4,0.9-0.8,1.4-1.1c0.9-0.7,1.9-1.3,2.9-1.9c3.9-2.3,8-4.1,12.1-5.8l-0.5,1c-0.3-0.8-0.9-1.8-1.5-2.7
				c-0.6-0.9-1.3-1.7-2-2.5c-1.4-1.6-3-3.1-4.7-4.5c-3.3-2.8-7-5.3-10.7-7.5c-3.8-2.3-7.7-4.3-11.6-6.2c-4-1.9-8-3.6-12.1-5.2
				c-8.2-3.2-16.6-6-25-8.4c-4.2-1.2-8.5-2.3-12.8-3.4c-4.3-1-8.6-1.7-13-2.3c-8.7-1.1-17.5-1.6-26.3-1.9
				c-8.8-0.3-17.6-0.3-26.4-0.4c-17.6-0.2-35.3-0.5-53-1.7c-4.4-0.3-8.8-0.7-13.2-1.1l-13.2-1.1c-8.8-0.7-17.6-1.3-26.4-1.7
				c-8.8-0.4-17.6-0.4-26.3,0.2c-4.4,0.3-8.8,0.7-13.1,1.2c-4.4,0.5-8.8,1-13.1,1.6c-8.7,1.2-17.4,2.7-26,4.6
				c-8.6,1.9-17,4.3-25.3,7.4c-8.2,3.1-16.2,6.8-23.4,11.9C10.8,35.1,4.4,41.5,0.6,49.5L0.6,49.5L0.6,49.5z"/>
		</g>
	</g>
	<g>
		<path class="st4" d="M397.9,53.5c0,0-1.5-0.6-4.3-1.5c-2.8-0.9-6.9-2.1-12.3-3.3c-5.3-1.2-11.9-2.5-19.5-3.4
			c-7.6-0.9-16.2-1.6-25.5-1.7c-9.4-0.1-19.6,0.3-30.2,1.6c-2.7,0.3-5.4,0.7-8.1,1.1c-2.7,0.4-5.5,0.9-8.3,1.4
			c-5.6,0.9-11.3,2-17.1,2.8c-2.9,0.4-5.9,0.8-8.8,1.3c-3,0.4-6,0.7-9,1.1c-1.5,0.2-3,0.4-4.5,0.5c-1.5,0.1-3,0.3-4.6,0.4
			c-3.1,0.3-6.1,0.6-9.2,0.9c-12.3,1-24.9,1.6-37.5,1.7c-12.6,0.1-25.2-0.5-37.5-1.4c-12.4-0.9-24.5-2.4-36.1-4.1
			c-11.7-1.7-22.9-3.8-33.4-6c-10.6-2.1-20.6-3.6-29.9-4.3c-9.3-0.7-18-0.6-25.5,0.2c-7.6,0.8-14.1,2.3-19.3,3.8
			c-5.3,1.5-9.4,2.9-12.2,3.7c-1.4,0.4-2.5,0.6-3.3,0.8c-0.7,0.2-1.1,0.2-1.1,0.2s0.4-0.1,1.1-0.3c0.7-0.2,1.8-0.5,3.2-0.9
			c2.8-0.9,6.8-2.4,12.1-4.1c5.2-1.7,11.7-3.4,19.4-4.4c3.8-0.5,7.9-0.9,12.2-1c4.3-0.1,8.8-0.1,13.6,0.2c9.4,0.5,19.6,1.8,30.3,3.8
			c5.3,0.9,10.7,2,16.3,2.9c2.8,0.5,5.6,0.9,8.4,1.4c2.9,0.4,5.7,0.9,8.6,1.3c11.6,1.6,23.7,3.1,36,3.9c12.3,0.9,24.8,1.3,37.3,1.3
			c12.5-0.1,25-0.6,37.3-1.5c3.1-0.3,6.1-0.5,9.2-0.8c1.5-0.1,3-0.3,4.6-0.4c1.5-0.2,3-0.3,4.5-0.5c3-0.3,6-0.7,8.9-1
			c3-0.4,5.9-0.8,8.8-1.2c5.8-0.7,11.5-1.7,17.1-2.5c2.8-0.4,5.6-0.8,8.3-1.2c2.8-0.3,5.5-0.7,8.2-1c10.8-1.1,21-1.4,30.5-1.2
			c18.9,0.5,34.5,3.4,45.1,6.1c5.3,1.4,9.4,2.7,12.2,3.7C396.4,52.9,397.9,53.5,397.9,53.5z"/>
	</g>
</g>
</svg>
