<?xml version="1.0" encoding="utf-8"?>
<!-- Generator: Adobe Illustrator 19.2.0, SVG Export Plug-In . SVG Version: 6.00 Build 0)  -->
<svg version="1.1" id="Lager_1" xmlns="http://www.w3.org/2000/svg" xmlns:xlink="http://www.w3.org/1999/xlink" x="0px" y="0px"
	 viewBox="0 0 398.9 137.5" style="enable-background:new 0 0 398.9 137.5;" xml:space="preserve">
<style type="text/css">
	.st0{fill:#7F4F12;}
	.st1{fill:#563A1C;}
	.st2{opacity:0.6;fill:#563A1C;}
	.st3{fill:#CEE1EC;}
	.st4{fill:#5E98BE;}
	.st5{opacity:0.1;fill:#5E98BE;}
	.st6{fill:#A55B16;}
	.st7{fill:#894B16;}
	.st8{fill:#6D7F3B;}
	.st9{fill:#5E6E30;}
	.st10{opacity:0.4;fill:#5E6E30;}
	.st11{fill:#6D843A;}
	.st12{opacity:0.7;}
	.st13{fill:#56642B;}
	.st14{fill:#798E41;}
	.st15{fill:#6C7C35;}
	.st16{opacity:0.4;}
	.st17{fill:url(#SVGID_1_);}
	.st18{fill:#E09D20;}
	.st19{opacity:0.8;fill:#FFFFFF;}
	.st20{fill:url(#SVGID_2_);}
	.st21{fill:#FFD941;}
	.st22{fill:#F7A60B;}
	.st23{opacity:0.6;fill:#FAB722;}
	.st24{opacity:0.4;fill:#EFAF12;}
	.st25{fill:#FECD41;}
	.st26{fill:#FAB722;}
	.st27{fill:#5E71A3;}
	.st28{fill:#354366;}
	.st29{fill:#495682;}
	.st30{fill:#58699F;}
	.st31{fill:#6579AB;}
	.st32{opacity:0.5;}
	.st33{fill:#7697A9;}
	.st34{opacity:0.3;fill:#7697A9;}
	.st35{opacity:0.3;fill:none;stroke:#7697A9;stroke-width:2;stroke-linecap:round;stroke-miterlimit:10;}
	.st36{fill:#D391BF;}
	.st37{fill:#D391BF;stroke:#282829;stroke-width:1.4451;stroke-miterlimit:10;}
	.st38{fill:none;stroke:#282829;stroke-width:1.4451;stroke-miterlimit:10;}
	.st39{fill:#EBB7D5;}
	.st40{fill:#282829;}
	.st41{fill:#CB6DA9;stroke:#282829;stroke-width:1.4451;stroke-miterlimit:10;}
	.st42{fill:#CB6DA9;}
	.st43{fill:#803461;stroke:#282829;stroke-width:0.7226;stroke-miterlimit:10;}
	.st44{fill:none;stroke:#272727;stroke-width:1.4451;stroke-miterlimit:10;}
	.st45{fill:#FFFFFF;stroke:#272727;stroke-width:1.4451;stroke-miterlimit:10;}
	.st46{fill:#803461;}
	.st47{fill:#010202;}
	.st48{fill:#FFFFFF;}
	.st49{fill:#FFFFFF;stroke:#010202;stroke-width:0.7226;stroke-miterlimit:10;}
	.st50{fill:#803461;stroke:#282829;stroke-width:1.4451;stroke-miterlimit:10;}
	.st51{fill:#803461;stroke:#272727;stroke-width:1.4451;stroke-miterlimit:10;}
	.st52{fill:#020203;}
	.st53{fill:#E8B5D4;stroke:#272727;stroke-width:1.4451;stroke-miterlimit:10;}
	.st54{fill:#522040;}
	.st55{fill:#272727;}
	.st56{opacity:0.1;}
	.st57{opacity:0.2;fill:none;stroke:#7697A9;stroke-width:1.2979;stroke-linecap:round;stroke-miterlimit:10;}
	.st58{fill:#5F8AC7;}
	.st59{fill:#40507D;}
	.st60{fill:none;stroke:#5E98BE;stroke-miterlimit:10;}
	.st61{fill:none;stroke:#5E98BE;stroke-miterlimit:10;stroke-dasharray:2.9508,2.9508;}
	.st62{opacity:0.15;fill:#5E98BE;}
	.st63{opacity:0.3;fill:#5E98BE;}
	.st64{fill:#9CC1E7;}
	.st65{opacity:0.2;fill:#5E98BE;}
	.st66{fill:#79A3C9;}
	.st67{opacity:0.3;fill:none;stroke:#7697A9;stroke-width:1.7202;stroke-linecap:round;stroke-miterlimit:10;}
	.st68{fill:#D391BF;stroke:#282829;stroke-width:1.287;stroke-miterlimit:10;}
	.st69{fill:none;stroke:#282829;stroke-width:1.287;stroke-miterlimit:10;}
	.st70{fill:#CB6DA9;stroke:#282829;stroke-width:1.287;stroke-miterlimit:10;}
	.st71{fill:#803461;stroke:#282829;stroke-width:0.6435;stroke-miterlimit:10;}
	.st72{fill:none;stroke:#272727;stroke-width:1.287;stroke-miterlimit:10;}
	.st73{fill:#FFFFFF;stroke:#272727;stroke-width:1.287;stroke-miterlimit:10;}
	.st74{fill:#FFFFFF;stroke:#010202;stroke-width:0.6435;stroke-miterlimit:10;}
	.st75{fill:#803461;stroke:#282829;stroke-width:1.287;stroke-miterlimit:10;}
	.st76{fill:#803461;stroke:#272727;stroke-width:1.287;stroke-miterlimit:10;}
	.st77{fill:#E8B5D4;stroke:#272727;stroke-width:1.287;stroke-miterlimit:10;}
	.st78{fill:none;stroke:#5E98BE;stroke-width:2.11;stroke-miterlimit:10;}
	.st79{fill:none;stroke:#5E98BE;stroke-width:2.11;stroke-miterlimit:10;stroke-dasharray:6.3327,6.3327;}
	.st80{fill:#D391BF;stroke:#282829;stroke-width:1.1143;stroke-miterlimit:10;}
	.st81{fill:none;stroke:#282829;stroke-width:1.1143;stroke-miterlimit:10;}
	.st82{fill:#CB6DA9;stroke:#282829;stroke-width:1.1143;stroke-miterlimit:10;}
	.st83{fill:#803461;stroke:#282829;stroke-width:0.5571;stroke-miterlimit:10;}
	.st84{fill:none;stroke:#272727;stroke-width:1.1143;stroke-miterlimit:10;}
	.st85{fill:#FFFFFF;stroke:#272727;stroke-width:1.1143;stroke-miterlimit:10;}
	.st86{fill:#FFFFFF;stroke:#010202;stroke-width:0.5571;stroke-miterlimit:10;}
	.st87{fill:#803461;stroke:#282829;stroke-width:1.1143;stroke-miterlimit:10;}
	.st88{fill:#803461;stroke:#272727;stroke-width:1.1143;stroke-miterlimit:10;}
	.st89{fill:#E8B5D4;stroke:#272727;stroke-width:1.1143;stroke-miterlimit:10;}
	.st90{fill:none;stroke:#5E98BE;stroke-width:2.11;stroke-miterlimit:10;stroke-dasharray:6.31,6.31;}
	.st91{fill:none;stroke:#5E98BE;stroke-width:2.2032;stroke-miterlimit:10;}
	.st92{fill:none;stroke:#5E98BE;stroke-width:2.2032;stroke-miterlimit:10;stroke-dasharray:6.5885,6.5885;}
</style>
<g>
	<g>
		<g>
			<g>
				<path class="st0" d="M38.8,77.4c0,0-12.2,43.7-13.7,50.2c-2.5,10.3,13.4,13.1,18.9,4c4.5-7.5,33.4-54.6,33.4-54.6L38.8,77.4z"/>
				<path class="st1" d="M38.9,77.5c-0.6,2.9-1.3,5.8-2,8.7l-2.2,8.7c-0.7,2.9-1.5,5.8-2.2,8.7l-2.3,8.7c-0.8,2.9-1.6,5.8-2.4,8.6
					l-1.3,4.3c-0.4,1.4-1,2.9-1.1,4.2c-0.1,1.4,0.2,2.8,0.9,3.9c0.7,1.2,1.9,2.1,3.2,2.7c2.6,1.2,5.8,1.2,8.5,0.2
					c1.4-0.5,2.6-1.3,3.7-2.2c0.5-0.5,1-1,1.4-1.6c0.4-0.6,0.8-1.2,1.2-1.9c1.6-2.6,3-5.1,4.6-7.7c3-5.2,6-10.3,9.1-15.4l9.2-15.4
					c3.1-5.1,6.2-10.2,9.4-15.3l0.8,1.4L67.8,78l-9.7-0.1C51.7,77.8,45.3,77.7,38.9,77.5z M38.8,77.3c6.4-0.3,12.9-0.5,19.3-0.7
					l9.6-0.2l9.6-0.2l1.7,0l-0.9,1.5c-3.1,5.1-6.2,10.2-9.3,15.3l-9.5,15.2c-3.2,5.1-6.4,10.1-9.6,15.1c-1.6,2.5-3.2,5-4.8,7.6
					c-0.4,0.6-0.8,1.3-1.2,1.9c-0.5,0.6-1,1.2-1.6,1.7c-1.1,1-2.5,1.8-3.9,2.3c-1.4,0.5-3,0.8-4.5,0.8c-1.5,0-3.1-0.3-4.5-0.8
					c-1.4-0.6-2.8-1.5-3.7-2.8c-0.9-1.3-1.4-3-1.3-4.6c0-0.4,0-0.8,0.1-1.2c0-0.2,0-0.3,0.1-0.6l0.1-0.5l0.5-2.2l1.1-4.3
					c0.7-2.9,1.5-5.8,2.3-8.7l2.4-8.6c0.8-2.9,1.6-5.8,2.5-8.6l2.6-8.6C36.9,83.1,37.8,80.2,38.8,77.3L38.8,77.3L38.8,77.3z"/>
			</g>
			<ellipse class="st1" cx="54.6" cy="81.4" rx="19.4" ry="12.1"/>
			<path class="st2" d="M53.9,89.9c-6.1,8.4-18.8,38-20.7,42c-2.8,6.1,5.3,7,9.9,0.9c4.6-6.1,27.4-44.5,27.4-44.5L53.9,89.9z"/>
		</g>
		<g>
			<g>
				<path class="st0" d="M360.8,77.4c0,0,12.2,43.7,13.7,50.2c2.5,10.3-13.4,13.1-18.9,4c-4.5-7.5-33.4-54.6-33.4-54.6L360.8,77.4z"
					/>
				<path class="st1" d="M360.9,77.4c0.9,2.8,1.8,5.7,2.7,8.6l2.6,8.6c0.9,2.9,1.7,5.7,2.5,8.6l2.4,8.6c0.8,2.9,1.6,5.8,2.3,8.7
					l1.1,4.3l0.5,2.2l0.1,0.5c0.1,0.3,0.1,0.4,0.1,0.6c0.1,0.4,0.1,0.8,0.1,1.2c0.1,1.6-0.4,3.3-1.3,4.6c-0.9,1.3-2.3,2.2-3.7,2.8
					c-1.4,0.6-3,0.9-4.5,0.8c-1.5,0-3.1-0.3-4.5-0.8c-1.4-0.5-2.8-1.3-3.9-2.3c-0.6-0.5-1.1-1.1-1.6-1.7c-0.4-0.6-0.8-1.3-1.2-1.9
					c-1.6-2.5-3.2-5-4.8-7.6c-3.2-5-6.5-10-9.6-15.1l-9.5-15.2c-3.2-5.1-6.3-10.2-9.3-15.3l-0.9-1.5l1.7,0l9.6,0.2l9.6,0.2
					C347.9,76.8,354.4,77,360.9,77.4L360.9,77.4L360.9,77.4z M360.7,77.5c-6.4,0.2-12.8,0.3-19.2,0.4l-9.7,0.1l-9.7,0.1l0.8-1.4
					c3.2,5.1,6.3,10.1,9.4,15.3l9.2,15.4c3.1,5.1,6.1,10.3,9.1,15.4c1.5,2.6,3,5.2,4.6,7.7c0.4,0.6,0.8,1.3,1.2,1.9
					c0.4,0.6,0.9,1.1,1.4,1.6c1.1,1,2.3,1.8,3.7,2.2c2.7,1,5.9,1,8.5-0.2c1.3-0.6,2.5-1.5,3.2-2.7c0.8-1.2,1.1-2.6,0.9-3.9
					c-0.1-1.4-0.7-2.8-1.1-4.2l-1.3-4.3c-0.8-2.9-1.6-5.7-2.4-8.6l-2.3-8.7c-0.8-2.9-1.5-5.8-2.2-8.7l-2.2-8.7
					C362.1,83.2,361.4,80.4,360.7,77.5z"/>
			</g>
			<ellipse class="st1" cx="345" cy="81.4" rx="19.4" ry="12.1"/>
			<path class="st2" d="M345.7,89.9c6.1,8.4,18.8,38,20.7,42c2.8,6.1-5.3,7-9.9,0.9c-4.6-6.1-27.4-44.5-27.4-44.5L345.7,89.9z"/>
		</g>
	</g>
	<g>
		<g>
			<path class="st3" d="M398.7,50c0,30.8-6.1,55.8-199.4,55.8S0.9,80.8,0.9,50c0-26.2,5.6-48.7,198.9-48.7S398.7,24.4,398.7,50z"/>
			<path class="st4" d="M398.7,50c0,0,0,0.9,0,2.6c0,1.7-0.1,4.2-0.4,7.5c-0.4,3.2-1.2,7.3-3.4,11.5c-1.1,2.1-2.6,4.2-4.4,6.2
				c-1.9,2-4.1,3.9-6.6,5.6c-5.1,3.4-11.3,6.2-18.3,8.5c-7,2.3-14.8,4.2-23.1,5.8c-16.7,3.1-35.8,5.3-56.7,6.6
				c-20.9,1.4-43.5,2.1-67.5,2.3c-24,0.2-49.2-0.1-75.4-1c-13.1-0.5-26.3-1.2-39.8-2.2c-13.4-1-27-2.5-40.5-4.6
				c-6.8-1.1-13.6-2.4-20.3-4.1c-6.7-1.7-13.4-3.8-19.7-6.8c-3.1-1.5-6.2-3.2-9-5.3c-2.8-2.1-5.4-4.6-7.4-7.5
				c-2-2.9-3.5-6.2-4.3-9.6c-0.9-3.4-1.2-7-1.3-10.5c-0.1-3.5-0.2-7,0.1-10.5c0.2-3.5,0.8-7.1,2.3-10.3c1.4-3.3,3.6-6.2,6.2-8.6
				c2.6-2.4,5.6-4.3,8.7-6c6.2-3.2,12.9-5.4,19.6-7.2c6.7-1.8,13.5-3.1,20.3-4.2c13.6-2.2,27.2-3.5,40.6-4.6
				c13.4-1,26.7-1.7,39.8-2.1c13.1-0.5,25.9-0.7,38.5-0.8c12.6-0.1,24.9-0.1,36.9-0.1c24,0.1,46.6,0.7,67.5,1.9
				c20.9,1.2,40,3,56.8,5.6c16.8,2.6,31.4,6.1,42.4,11.4c5.5,2.7,10,6,13,9.7c3,3.7,4.3,7.7,4.9,10.9c0.6,3.2,0.6,5.8,0.7,7.4
				C398.7,49.1,398.7,50,398.7,50z M398.6,50c0,0,0-0.9,0-2.6c-0.1-1.7-0.1-4.2-0.7-7.4c-0.6-3.2-1.9-7.1-4.9-10.8
				c-2.9-3.7-7.5-6.9-12.9-9.6c-5.5-2.7-11.9-4.8-19-6.5c-7.1-1.8-14.9-3.2-23.3-4.4c-16.8-2.4-35.9-3.9-56.8-4.9
				c-20.9-1-43.5-1.4-67.5-1.6c-24-0.1-49.2,0.1-75.3,0.9c-13.1,0.4-26.3,1-39.7,2C85,6.1,71.4,7.4,57.9,9.5
				c-6.8,1.1-13.5,2.3-20.2,4c-6.7,1.7-13.3,3.8-19.4,6.9c-3,1.6-6,3.4-8.5,5.7c-2.5,2.3-4.6,5-6,8.2c-1.4,3.1-2,6.5-2.2,10
				c-0.2,3.4-0.2,6.9-0.1,10.4c0.1,3.5,0.4,6.9,1.2,10.3c0.8,3.3,2.2,6.5,4.1,9.4c1.9,2.8,4.4,5.3,7.2,7.3c2.7,2.1,5.8,3.8,8.9,5.3
				c6.2,3,12.9,5.1,19.5,6.8c6.7,1.7,13.4,3.1,20.2,4.2c13.5,2.2,27.1,3.5,40.5,4.5c13.4,1,26.7,1.5,39.7,1.9
				c26.1,0.8,51.4,0.7,75.3,0.5c12-0.1,23.6-0.4,34.9-0.7c11.3-0.3,22.1-0.8,32.6-1.4c20.9-1.2,39.9-3,56.7-6
				c8.3-1.5,16.1-3.3,23.1-5.5c7-2.2,13.2-4.9,18.3-8.3c2.5-1.7,4.8-3.5,6.6-5.5c1.8-2,3.3-4.1,4.4-6.2c2.2-4.2,3-8.2,3.4-11.4
				c0.4-3.2,0.4-5.7,0.5-7.4C398.6,50.8,398.6,50,398.6,50z"/>
		</g>
		<g>
			<g>
				<path class="st91" d="M396.2,36.3c-0.9,0.4-1.9,0.8-3.1,1.2"/>
				<path class="st92" d="M386.8,39.2C355.9,47,274.7,55.2,195.9,53.8C111.1,52.4,33.2,43.6,9.9,36.7"/>
				<path class="st91" d="M6.8,35.6c-1.3-0.5-2.3-1-3-1.5"/>
			</g>
		</g>
		<path class="st62" d="M396.7,36.2c0,0-51.3,17.4-196.9,17.4C88.6,53.5,3.1,35,3.1,35s2.4-12.7,31.9-21.4
			C62.1,5.5,113.1,1.3,186.6,1.3c59.5,0,114.4,2.1,147.2,6.4C396.8,16,396.7,36.2,396.7,36.2z"/>
		<g>
			<path class="st4" d="M173.3,26.9c0-3.4,5.8-6.1,27.9-6.1s27.9,2.7,27.9,6.1s-5.9,5.3-28,5.3S173.3,30.2,173.3,26.9z"/>
			<g>
				<path class="st3" d="M173.3,26.9c0,0-0.1-0.5,0.3-1.3c0.4-0.8,1.5-1.6,3-2.3c1.5-0.6,3.4-1.2,5.7-1.6c2.2-0.4,4.8-0.8,7.6-1
					c2.8-0.2,5.8-0.3,9.1-0.3c3.2,0,6.6,0.1,10.1,0.3c3.5,0.2,7.1,0.5,10.8,1c1.8,0.3,3.7,0.6,5.4,1.2c0.9,0.3,1.8,0.7,2.6,1.2
					c0.8,0.5,1.5,1.4,1.6,2.5l0,0.2c0,0,0,0,0,0.1l0,0.1l0,0.3c0,0.2-0.1,0.5-0.2,0.8c-0.1,0.2-0.3,0.4-0.4,0.7
					c-0.2,0.2-0.4,0.4-0.6,0.5c-0.8,0.6-1.7,1-2.6,1.3c-1.8,0.6-3.7,0.9-5.5,1.2c-3.7,0.5-7.3,0.7-10.8,0.8
					c-3.5,0.1-6.9,0.1-10.1,0.1c-3.2,0-6.3-0.1-9.1-0.3c-2.8-0.2-5.4-0.5-7.6-0.8c-2.3-0.3-4.2-0.8-5.8-1.3
					c-1.5-0.5-2.7-1.3-3.1-2.1c-0.2-0.4-0.3-0.7-0.3-1C173.3,27,173.3,26.9,173.3,26.9L173.3,26.9z M173.4,26.9c0,0-0.1,0.5,0.4,1.2
					c0.4,0.8,1.5,1.5,3.1,2c3.1,1,7.8,1.3,13.4,1.4c2.8,0.1,5.8,0.1,9,0.1c3.2,0,6.6,0,10.1-0.1c3.5-0.1,7.1-0.2,10.7-0.6
					c1.8-0.2,3.6-0.5,5.4-1c0.9-0.2,1.7-0.6,2.4-1.1c0.7-0.5,1.1-1.2,1.1-2.1c0-0.8-0.6-1.6-1.3-2.1l-0.5-0.4l-0.6-0.3
					c-0.4-0.2-0.8-0.4-1.3-0.6c-1.7-0.6-3.5-1-5.3-1.3c-3.6-0.5-7.2-0.7-10.7-0.8c-3.5,0-6.9,0-10.1,0.1c-3.2,0-6.2,0.2-9,0.3
					c-2.8,0.1-5.3,0.3-7.6,0.6c-2.2,0.3-4.2,0.7-5.7,1.3c-1.5,0.6-2.6,1.4-3,2.2C173.3,26.4,173.4,26.9,173.4,26.9L173.4,26.9z"/>
			</g>
		</g>
	</g>
</g>
</svg>
