<?xml version="1.0" encoding="utf-8"?>
<!-- Generator: Adobe Illustrator 15.0.0, SVG Export Plug-In . SVG Version: 6.00 Build 0)  -->
<!DOCTYPE svg PUBLIC "-//W3C//DTD SVG 1.1//EN" "http://www.w3.org/Graphics/SVG/1.1/DTD/svg11.dtd">
<svg version="1.1" id="Layer_1" xmlns="http://www.w3.org/2000/svg" xmlns:xlink="http://www.w3.org/1999/xlink" x="0px" y="0px"
	 width="500px" height="500px" viewBox="0 0 500 500" enable-background="new 0 0 500 500" xml:space="preserve">
<g id="crown">
	<g>
		<path fill="#272727" d="M344.766,374.504c-27.377,2.904-56.481,3.639-85.605,3.654c-34.667,0.02-69.281-1.277-103.791-4.559
			c-22.264-2.117-44.347-5.654-65.84-12.098c-5.807-1.73-11.573-3.773-16.613-7.33c-6.749-4.754-7.102-8.988-1.396-15.021
			c2.862-3.031,6.386-5.018,10.168-6.59c6.408-2.684,9.388-7.59,10.345-14.371c1.716-12.16-0.769-23.223-6.734-33.914
			c-18.685-33.523-41.786-63.943-65.488-93.956c-2.07-2.626-4.248-5.179-6.145-7.923c-1.234-1.774-4.655-3.271-1.833-6.069
			c2.548-2.535,5.553-2.717,8.681-0.582c4.313,2.953,8.655,5.889,13.142,8.562c11.506,6.86,23.454,12.704,36.875,14.861
			c16.707,2.68,29.494-7.21,36.132-17.725c4.163-6.591,6.791-13.794,7.792-21.517c0.378-2.94,1.382-4.923,4.431-5.601
			c3.143-0.696,4.714,1.034,6.305,3.406c9.831,14.656,22.514,25.777,39.721,30.95c15.886,4.78,30.147,1.611,42.579-9.345
			c18.087-15.946,30.821-35.827,41.577-57.119c1.438-2.845,2.846-5.716,4.066-8.66c1.25-3.019,3.537-3.985,6.57-3.999
			c3.043-0.007,3.17,2.414,3.862,4.433c6.423,18.678,14.665,36.371,28.224,51.092c11.997,13.03,26.465,21.318,44.639,19.548
			c24.572-2.408,42.402-15.302,53.539-37.386c0.511-1.036,0.877-2.162,1.506-3.123c1.603-2.434,4.063-2.602,6.592-2.078
			c2.48,0.521,2.26,2.614,2.388,4.509c0.732,10.461,2.173,20.787,5.735,30.739c6.703,18.78,18.859,25.187,38.154,20.109
			c15.164-3.984,28.055-12.31,40.673-21.154c0.835-0.586,1.602-1.285,2.481-1.757c2.325-1.243,5.001-1.833,6.917,0.146
			c2.193,2.261-0.476,3.936-1.698,5.479c-20.664,26.128-39.914,53.273-57.719,81.421c-7.563,11.961-13.488,24.672-14.791,39.145
			c-0.789,8.826,1.081,16.998,4.54,24.984c0.763,1.748,2.196,2.082,3.753,2.557c5.857,1.787,11.528,3.959,16.445,7.773
			c8.023,6.225,7.906,13.643-0.805,18.752c-11.785,6.916-24.967,10.068-38.188,12.783c-13.519,2.773-27.24,4.021-40.976,5.248
			C358.795,373.328,352.633,374.322,344.766,374.504z M471.728,193.707c-8.253,3.963-16.388,8.036-25.153,10.625
			c-22.367,6.587-39.252-1.082-48.378-22.165c-2.913-6.737-4.628-13.875-5.872-20.959c-1.332-0.148-1.663,0.644-2.07,1.165
			c-8.347,10.635-18.83,18.562-31.175,23.908c-18.235,7.901-36.509,8.999-54.597-0.609c-16.536-8.788-27.771-22.648-36.881-38.549
			c-3.901-6.825-7.021-14.033-10.149-21.345c-0.567,0.431-0.881,0.552-1.003,0.784c-0.691,1.273-1.32,2.583-1.996,3.869
			c-10.586,20.237-22.699,39.302-40.822,53.835c-19.222,15.409-40.039,17.942-62.459,7.828c-11.48-5.173-20.88-13.055-29.258-22.688
			c-1.637,3.592-2.979,7.098-4.766,10.362c-7.004,12.757-16.075,23.416-31.085,26.601c-9.571,2.036-19.123,0.26-28.43-2.401
			c-7.347-2.1-14.366-5.113-22.296-9.056c2.687,3.567,4.563,6.104,6.488,8.601c18.639,24.223,35.829,49.435,51.896,75.431
			c9.824,15.871,10.649,32.537,5.366,49.887c-0.685,2.242-0.22,3.064,1.604,4.012c5.465,2.854,11.402,4.186,17.366,5.281
			c9.746,1.785,19.634,2.383,29.499,3.053c1.202,0.084,2.943-0.381,3.371,1.287c0.468,1.775-1.218,2.434-2.353,3.27
			c-0.966,0.717-2.04,1.064-3.266,1.037c-16.776-0.387-33.622-1.25-49.126-8.146c-7-3.109-11.565-0.527-16.553,2.943
			c-2.511,1.75-2.535,3.953-0.133,6.164c2.727,2.508,5.925,4.254,9.316,5.484c23.014,8.391,47.086,11.396,71.297,13.508
			c21.019,1.826,42.075,3.121,63.169,3.906c37.726,1.385,75.419,0.326,113.08-1.65c14.581-0.771,29.22-2.07,43.731-4.377
			c15.354-2.436,30.644-5.074,45.65-9.145c4.78-1.299,9.422-3.066,13.445-6.041c2.566-1.908,3.654-4.264,0.712-6.854
			c-5.196-4.564-11.735-6.227-18.104-8.189c-0.681-0.213-1.71,0.293-2.424,0.709c-4.661,2.732-9.896,3.262-15.076,3.975
			c-2.121,0.285-4.308,0.156-4.763-2.486c-0.447-2.594,1.538-3.607,3.599-4.125c2.53-0.643,5.121-1.068,7.707-1.494
			c3.848-0.631,4.734-2.514,3.211-6.152c-3.191-7.662-4.098-15.703-3.258-23.963c1.452-14.232,7.328-26.836,14.633-38.816
			C439.73,238.548,455.502,216.044,471.728,193.707z"/>
		<g>
			<path fill="#FEDC49" stroke="#282828" stroke-width="0.75" stroke-miterlimit="10" d="M482.586,185.948
				c-17.008,23.426-33.553,47.013-48.555,71.634c-7.65,12.564-13.813,25.773-15.331,40.703c-0.88,8.66,0.054,17.082,3.412,25.119
				c1.59,3.818,0.667,5.789-3.372,6.453c-2.708,0.443-5.418,0.893-8.076,1.561c-2.162,0.543-4.242,1.613-3.779,4.33
				c0.479,2.771,2.785,2.914,5.002,2.613c5.42-0.75,10.916-1.303,15.799-4.17c0.756-0.443,1.84-0.965,2.55-0.75
				c6.674,2.061,13.537,3.805,18.981,8.586c3.076,2.713,1.939,5.193-0.752,7.188c-4.216,3.125-9.074,4.975-14.101,6.338
				c-15.735,4.268-31.761,7.037-47.86,9.592c-15.218,2.418-30.561,3.787-45.863,4.59c-39.484,2.07-79.008,3.182-118.565,1.727
				c-22.114-0.813-44.189-2.178-66.228-4.098c-25.395-2.209-50.622-5.357-74.762-14.154c-3.548-1.295-6.899-3.117-9.766-5.754
				c-2.522-2.318-2.499-4.633,0.145-6.465c5.225-3.637,10.011-6.348,17.35-3.084c16.261,7.225,33.925,8.135,51.516,8.533
				c1.28,0.033,2.418-0.336,3.421-1.078c1.188-0.885,2.957-1.568,2.473-3.43c-0.462-1.746-2.274-1.271-3.536-1.354
				c-10.352-0.701-20.713-1.328-30.936-3.203c-6.258-1.15-12.478-2.545-18.211-5.535c-1.901-0.998-2.395-1.854-1.679-4.203
				c5.545-18.188,4.667-35.674-5.622-52.316c-16.856-27.258-34.881-53.687-54.422-79.088c-2.017-2.615-3.987-5.275-6.806-9.018
				c8.317,4.132,15.676,7.292,23.38,9.497c9.76,2.789,19.77,4.65,29.815,2.516c15.744-3.342,25.248-14.515,32.593-27.894
				c1.877-3.421,3.286-7.092,4.999-10.864c8.775,10.103,18.637,18.365,30.673,23.792c23.509,10.603,45.342,7.95,65.491-8.211
				c19-15.226,31.712-35.225,42.796-56.444c0.711-1.345,1.377-2.718,2.102-4.054c0.128-0.24,0.46-0.371,1.05-0.824
				c3.276,7.662,6.548,15.226,10.642,22.384c9.562,16.672,21.342,31.209,38.674,40.419c18.957,10.073,38.123,8.921,57.25,0.639
				c12.949-5.607,23.937-13.912,32.689-25.072c0.422-0.545,0.771-1.372,2.172-1.219c1.312,7.433,3.098,14.909,6.152,21.977
				c9.563,22.105,27.27,30.144,50.727,23.241C465.408,194.378,473.926,190.104,482.586,185.948z M251.389,330.182
				c3.08-0.146,5.287-1.293,7.205-3.227c16.156-16.215,32.299-32.422,48.562-48.521c2.198-2.178,2.037-3.492-0.05-5.563
				c-15.818-15.656-31.531-31.417-47.301-47.125c-4.025-4.004-7.223-4.055-11.311,0.033c-16.197,16.157-32.3,32.403-48.524,48.543
				c-2.152,2.143-2.542,3.602-0.16,5.967c16.081,15.893,32.025,31.896,47.986,47.895
				C248.924,329.314,250.101,330.16,251.389,330.182z M346.463,304.895c2.327-0.264,4.371-1.166,6.051-2.857
				c7.961-7.99,15.863-16.02,23.912-23.908c1.97-1.939,2.072-3.131,0.016-5.125c-7.563-7.332-14.895-14.871-22.362-22.278
				c-3.415-3.393-6.95-3.529-10.373-0.17c-8.168,8.019-16.161,16.2-24.315,24.235c-1.734,1.715-2.139,3-0.232,4.887
				c7.946,7.805,15.791,15.709,23.682,23.566C343.818,304.215,344.879,305.113,346.463,304.895z M161.566,248.11
				c-3.638,0.302-5.681,1.116-7.389,2.835c-7.956,7.994-15.905,16.006-23.953,23.912c-1.983,1.957-1.887,3.293,0.094,5.225
				c7.441,7.242,14.733,14.623,22.079,21.971c3.762,3.77,7.104,3.975,11.017,0.152c8.083-7.895,15.963-15.982,24.012-23.908
				c1.996-1.961,1.881-3.313-0.123-5.268c-7.65-7.447-15.15-15.055-22.688-22.617C163.401,249.196,162.204,248.021,161.566,248.11z"
				/>
			<g>
				<path fill="#EEA420" stroke="#282828" stroke-miterlimit="10" d="M251.389,330.182c-1.288-0.021-2.458-0.867-3.591-2.002
					c-15.961-15.994-31.905-32-47.986-47.893c-2.387-2.365-1.992-3.828,0.16-5.971c16.218-16.137,32.327-32.386,48.524-48.539
					c4.089-4.089,7.284-4.041,11.31-0.034c15.771,15.709,31.482,31.465,47.302,47.125c2.087,2.072,2.243,3.389,0.043,5.564
					c-16.255,16.102-32.397,32.305-48.556,48.518C256.676,328.891,254.463,330.035,251.389,330.182z M222.946,278.369
					c1.116-0.805,2.281-1.348,3.021-2.232c3.006-3.625,5.938-7.32,8.789-11.063c5.397-7.104,12.779-12.414,17.817-19.844
					c0.508-0.753,1.382-1.29,0.763-2.309c-0.645-1.054-1.703-1.172-2.814-1.003c-1.318,0.197-2.15,1.171-2.889,2.099
					c-3.792,4.745-8.259,8.863-11.9,13.807c-4.221,5.74-9.486,10.727-14.283,16.047c-0.69,0.768-1.711,1.527-0.58,2.668
					C221.486,277.168,222.179,277.703,222.946,278.369z"/>
				<path fill="#EEA420" stroke="#282828" stroke-miterlimit="10" d="M346.463,304.895c-1.584,0.223-2.645-0.676-3.619-1.656
					c-7.893-7.85-15.734-15.754-23.681-23.563c-1.911-1.881-1.503-3.17,0.231-4.887c8.148-8.033,16.148-16.219,24.316-24.234
					c3.416-3.359,6.945-3.223,10.373,0.171c7.469,7.407,14.799,14.946,22.355,22.278c2.058,1.99,1.961,3.186-0.01,5.125
					c-8.055,7.889-15.957,15.924-23.918,23.908C350.834,303.727,348.786,304.627,346.463,304.895z M352.994,275.852
					c0.773-4.477-2-8.855-2.406-13.695c-0.332-3.947-3.58-4.488-6.408-1.67c-4.305,4.297-8.598,8.611-12.941,12.873
					c-1.48,1.461-2.018,2.535-0.128,4.338c5.399,5.145,10.539,10.561,15.847,15.807c0.604,0.6,1.291,2.291,2.458,0.918
					c0.745-0.879,2.525-1.563,1.73-3.17c-1.138-2.279-0.443-4.75,0.35-6.482C352.785,281.957,352.883,279.205,352.994,275.852z"/>
				<path fill="#EEA420" stroke="#282828" stroke-miterlimit="10" d="M161.566,248.11c0.638-0.09,1.835,1.085,3.049,2.302
					c7.543,7.562,15.043,15.169,22.693,22.617c1.998,1.949,2.113,3.307,0.117,5.268c-8.049,7.93-15.929,16.014-24.012,23.908
					c-3.907,3.824-7.254,3.617-11.017-0.154c-7.346-7.344-14.638-14.727-22.079-21.969c-1.981-1.932-2.077-3.271-0.094-5.227
					c8.048-7.908,15.997-15.918,23.953-23.91C155.885,249.227,157.927,248.413,161.566,248.11z M162.293,283.965
					c2.426-7.854,0.612-15.5-1.527-23.004c-0.609-2.156-2.423-4.191-5.228-1.016c-4.223,4.775-8.801,9.262-13.494,13.592
					c-2.12,1.953-1.522,2.9,0.21,4.559c4.719,4.488,9.228,9.188,13.838,13.795c3.635,3.631,5.26,3.4,7.706-1.264
					c0.627-1.184,0.861-2.572,1.265-3.865c0.055-0.107,0.098-0.213,0.147-0.32c-0.067,0.088-0.127,0.178-0.2,0.266
					c-1.925,0.146-2.639-0.967-2.777-2.676L162.293,283.965z"/>
				<path fill="#F3E243" d="M222.946,278.369c-0.768-0.664-1.461-1.203-2.077-1.826c-1.131-1.145-0.111-1.902,0.58-2.672
					c4.797-5.322,10.062-10.307,14.283-16.047c3.647-4.943,8.108-9.063,11.9-13.808c0.739-0.927,1.57-1.902,2.889-2.099
					c1.111-0.171,2.171-0.054,2.814,1.003c0.613,1.021-0.261,1.556-0.763,2.309c-5.038,7.431-12.42,12.735-17.824,19.845
					c-2.844,3.744-5.782,7.436-8.788,11.063C225.221,277.027,224.063,277.561,222.946,278.369z"/>
				<path fill="#F3E243" d="M352.994,275.852c-0.117,3.357-0.209,6.105-1.5,8.914c-0.793,1.736-1.486,4.201-0.349,6.482
					c0.794,1.607-0.98,2.291-1.726,3.17c-1.174,1.373-1.859-0.318-2.465-0.918c-5.308-5.242-10.447-10.662-15.847-15.809
					c-1.894-1.803-1.353-2.871,0.133-4.338c4.347-4.26,8.633-8.574,12.937-12.871c2.834-2.816,6.078-2.277,6.41,1.668
					C350.994,266.994,353.774,271.375,352.994,275.852z"/>
				<path fill="#F3E243" d="M165.057,286.764c-0.404,1.295-0.633,2.686-1.259,3.867c-2.451,4.66-4.071,4.895-7.706,1.264
					c-4.611-4.605-9.125-9.305-13.838-13.797c-1.737-1.654-2.334-2.602-0.209-4.559c4.687-4.328,9.276-8.813,13.488-13.59
					c2.811-3.178,4.619-1.143,5.234,1.014c2.139,7.508,3.954,15.15,1.527,23.006c-0.141-0.061-0.292-0.115-0.428-0.168
					c0.123,0.074,0.245,0.16,0.362,0.238c0.144,1.705,0.852,2.822,2.783,2.674L165.057,286.764z"/>
			</g>
		</g>
		<path fill="#F3E243" d="M258.786,245.95c0.073-0.09,0.14-0.184,0.2-0.267c-0.051,0.101-0.1,0.207-0.154,0.315L258.786,245.95z"/>
		<path fill="#1C1C1A" d="M259.04,245.966c-0.122-0.08-0.251-0.161-0.375-0.24c0.147,0.055,0.296,0.117,0.435,0.166L259.04,245.966z
			"/>
	</g>
</g>
</svg>
