<?xml version="1.0" encoding="utf-8"?>
<!-- Generator: Adobe Illustrator 15.0.0, SVG Export Plug-In . SVG Version: 6.00 Build 0)  -->
<!DOCTYPE svg PUBLIC "-//W3C//DTD SVG 1.1//EN" "http://www.w3.org/Graphics/SVG/1.1/DTD/svg11.dtd">
<svg version="1.1" id="Layer_1" xmlns="http://www.w3.org/2000/svg" xmlns:xlink="http://www.w3.org/1999/xlink" x="0px" y="0px"
	 width="500px" height="500px" viewBox="0 0 500 500" enable-background="new 0 0 500 500" xml:space="preserve">
<g id="hat_outline">
	<g>
		<path fill="#F8AEB0" stroke="#282828" stroke-width="2" stroke-miterlimit="10" d="M288.024,125.204
			c-7.409-5.174-12.752-12.238-17.681-19.594c-8.689-12.966-13.525-27.354-14.777-42.905c-0.305-3.664-0.158-7.359-0.239-11.037
			c-0.065-2.301,1.321-3.795,2.812-5.233c6.094-5.871,12.217-11.713,18.285-17.613c1.08-1.062,1.94-2.429,3.752-1.658
			c1.854,0.798,1.299,2.491,1.347,3.933c0.157,4.339,0.286,8.68,0.858,13.086c0.842-2.006,1.094-4.043,0.959-6.257
			c-0.502-8.885,1.188-17.378,4.777-25.518c1.245-2.848,3.264-4.31,6.333-5.134c6.005-1.62,11.899-1.631,17.793,0.047
			c5.069,1.438,5.742,2.763,3.906,7.66c-2.281,6.041-3.661,12.297-5.069,18.557c-0.229,1.067-0.438,2.166,0.151,3.517
			c3.063-4.83,6.491-9.227,10.354-13.296c1.731-1.842,3.551-2.433,6.146-2.275c11.093,0.655,22.016,2.175,32.67,5.397
			c4.771,1.438,8.923,4.099,13.186,6.5c1.312,0.743,2.06,1.974,1.398,3.441c-0.645,1.427-2.041,1.067-3.257,0.859
			c-4.023-0.708-7.994-1.818-12.169-1.339c-9.321,1.076-15.624,6.926-20.922,13.841c-9.129,11.876-14.182,25.74-18.209,39.976
			c-0.937,3.263-2.34,6.441-2.428,9.958c1.434,0.41,1.824-0.781,2.461-1.576c10.094-12.812,22.34-22.468,38.821-25.389
			c9.087-1.614,18.269-1.924,26.834,2.491c10.444,5.368,12.591,16.56,11.795,25.933c-0.274,3.263-2.737,2.933-4.946,2.018
			c-6.883-2.862-14.146-4.225-21.467-5.146c-8.232-1.041-16.426-0.813-24.636,2.228c1.258,1.234,2.356,0.953,3.368,0.795
			c13.033-2.07,24.84,1.433,36.021,7.909c2.379,1.377,3.104,2.961,2.654,5.675c-1.007,6.052-2.293,12.069-2.585,18.25
			c-0.188,3.85-2.573,2.9-4.94,1.778c-10.162-4.818-20.725-8.409-31.881-10.157c-10.801-1.69-21.482-1.198-32.056,1.637
			c-2.034-5.806-2.28-11.984-3.653-17.937c-0.451-1.95-0.803-3.798-3.27-4.02c-1.182-1.801-3.299-2.064-5.034-2.923
			c-1.685-0.828-2.808-0.152-3.159,1.729c-0.186,0.035-0.273,0.146-0.25,0.336c-0.556,0.12-0.813,0.471-0.818,1.032l0.013-0.029
			c-2.808,3.474-5.218,7.181-6.896,11.338v-0.006C292.264,119.114,290.146,122.158,288.024,125.204z"/>
		<path fill="#B92025" d="M310.813,493.035c-12.789,0.799-25.555,0.301-38.329-0.503c-17.858-1.128-35.365-4.661-52.913-7.946
			c-1.082-0.199-2.158-0.363-2.936-1.236c0.105-0.6,0.217-1.195,0.316-1.799l-0.041,0.018c1.199,0.632,2.274-0.359,3.421-0.257
			c20.723,1.958,41.02,7.391,61.993,7.596c-0.298-1.315-2.233-0.202-2.38-1.896c1.449-0.742,3.311-0.7,4.156,0.274
			c2.217,2.56,4.871,1.796,7.543,1.771c6.884-0.046,13.767-0.55,20.637,0.192C311.139,490.256,311.063,491.678,310.813,493.035z"/>
		<path fill="#B92025" d="M139.625,366.48c5.064-8.421,10.04-16.889,15.191-25.25c16.25-26.359,32.553-52.696,48.885-79.004
			c1.648-2.637,2.795-5.774,5.912-7.239c0.86,0.667,1.73,1.293,2.871,1.388c-0.562,0.285-1.433,0.44-1.631,0.899
			c-4.854,10.718-12.274,19.909-17.735,30.239c-1.696,3.195-5.59,4.738-5.941,8.713c-2.099-0.658-3.117,0.363-4.082,2.172
			c-1.023,1.9,0.456,2.32,1.322,3.207c-0.567,1.063-1.93,1.559-2.088,2.921c-0.298,0.246-0.59,0.485-0.9,0.731h0.023
			c-0.275,0.012-0.661-0.088-0.795,0.056c-5.099,5.342-8.461,11.942-12.87,17.796c-0.59,0.784-0.38,1.85,0.479,2.573
			c-0.292,0.801-0.433,1.7-1.374,2.069c-2.97,0.836-2.304,3.392-2.584,5.49c-0.047,0.223-0.088,0.45-0.152,0.676
			c-0.31,0.256-0.613,0.5-0.923,0.748l0.023,0.004c-3.59-0.9-2.023,2.525-3.111,3.713c-0.011,1.248-1.327,1.27-1.889,2.009
			c-2.988-0.038-1.538,3.144-3,4.172c-4.017,2.817-4.414,7.899-7.221,11.462c-1.871,2.361-3.941,4.654-2.977,8.061h0.012
			c-2.321-0.33-3.45,1.909-5.351,2.481L139.625,366.48z"/>
		<path fill="#B92025" d="M353.252,341.375c-1.865-0.922-2.414,0.961-3.502,1.68c-1.135,0.738-1.654,2.447-3.433,2.177
			c0.298-1.868-0.479-4.207,2.741-4.544c1.06-0.11,2.06-1.977,1.457-3.021c-1.188-2.047-0.813-4.142-1.135-6.233
			c-1.672-10.566-3.736-21.08-5.801-31.585c-1.182-6.066-3.486-12.055-2.749-18.317c0.404-3.339-0.573-5.987-1.87-8.765
			c1.549-1.648,1.549-1.648,3.94,1.685c0.164,0.146,0.187,0.31,0.075,0.497c-0.223,0.777-0.467,1.566,0.381,2.169
			c1.936,10.509,3.912,21.011,5.813,31.522c1.941,10.654,3.824,21.32,5.735,31.979c0.158,0.813,0.34,1.599-0.157,2.353
			C354.456,342.23,354.123,341.553,353.252,341.375z"/>
		<path fill="#B92025" d="M318.344,140.312c-1.101-0.625-2.152-0.184-3.211,0.135c-1.07-10.166-3.362-20.119-5.209-30.146
			c-0.388-2.105-1.85-2.965-3.533-3.541c-1.988-0.681-2.836,1.155-3.291,2.348c-2.043,5.321-7.312,8.684-8.596,14.426
			c-0.076,0.339-0.867,0.515-1.334,0.766c-2.123-0.556-2.229-0.333-1.51,2.994c-0.402,0.754-0.801,1.511-1.21,2.266
			c-0.776-0.728-1.012-2.031-2.315-2.216c2.387-3.587,5.381-6.838,6.258-11.265v0.005c3.672-2.941,5.549-6.976,6.888-11.338
			l-0.005,0.026c0.549-0.119,0.8-0.476,0.818-1.028c-0.03-0.191,0.059-0.308,0.25-0.336c2.941-1.105,5.373,1.374,8.188,1.187
			c2.467,0.228,2.813,2.069,3.257,4.023c1.374,5.946,1.626,12.133,3.667,17.934c0.42,3.031,0.76,6.081,1.303,9.092
			C319.045,137.273,319.18,138.814,318.344,140.312z"/>
		<path fill="#B92025" d="M260.654,179.451c-1.613,1.664-3.525,2.936-5.531,4.063c-0.754-0.164-1.496-0.321-2.246-0.485
			c8.321-13.572,16.631-27.146,24.991-40.697c3.052-4.953,6.222-9.841,9.343-14.765c-0.332,2.661-0.672,5.304-1.017,7.964h-0.022
			c-0.959-0.053-2.363-0.854-2.293,1.035c0.035,1.047-0.117,2.216-0.93,2.444c-3.783,1.082-2.843,3.859-2.585,6.45
			c-0.041,0.208-0.088,0.427-0.146,0.638c-0.315,0.28-0.619,0.555-0.937,0.833c-1.83,4.996-5.22,9.098-7.81,13.663
			C267.918,166.902,262.818,172.337,260.654,179.451z"/>
		<path fill="#B92025" d="M325.038,187.521c1.427,0.29,2.813,0.281,3.177,2.392c2.25,13.543,4.647,27.051,7.004,40.576
			c-0.607,0.824-1.217,1.667-1.823,2.491c-0.854-0.058-1.701-0.117-2.562-0.175c-0.252-0.971,0.578-1.889-0.328-3.018
			c-1.83-2.328,1.633-6.438-2.556-8.151c0.063-0.119,0.123-0.245,0.188-0.365c0.859-1.521,0.719-3.123,0.433-4.76
			c-1.271-7.242-2.526-14.487-3.789-21.726c-0.312-1.734-1.403-2.555-3.11-2.678l0.006,0.006
			C321.051,189.306,324.4,189.403,325.038,187.521z"/>
		<path fill="#B92025" d="M370.758,447.385c0.908,0.059,1.83,0.332,2.645-0.312c1.837,5.55,1.918,11.456,3.525,17.08
			c0.849,2.981-1.334,5.481-3.549,7.392c-9.789,8.447-20.625,14.707-33.472,17.625c-9.642,2.182-19.231,3.817-29.096,3.864
			c0.245-1.356,0.321-2.778,1.461-3.789l-0.007-0.032c0.777,0.08,1.557,0.174,2.328,0.25c1.117,1.623,2.789,1.407,4.386,1.229
			c3.38-0.372,6.76-0.792,10.133-1.239c15.444-2.037,29.196-8.02,41.302-17.822c2.776-2.24,4.688-4.892,4.104-8.646
			c-0.537-3.488-1.448-6.93-1.883-10.434c-0.355-2.97-1.442-2.929-3.367-1.278C369.197,449.754,370.006,448.584,370.758,447.385z"/>
		<path fill="#B92025" d="M112.785,431.012c-0.825-1.387-1.625-2.799-2.479-4.16c-3.193-5.078-3.018-9.494,0.543-14.842
			c9.321-14.061,17.887-28.644,26.764-43.004c0.427-0.692,1.011-1.281,1.526-1.912c0.14-0.01,0.286-0.026,0.421-0.047
			c-0.322,1.726,1.128,1.783,2.128,2.264c-2.251,1.333-3.76,3.345-5.111,5.531c-7.929,12.793-15.455,25.869-24.016,38.225
			c-3.952,5.719-2.256,9.797,0.439,14.684c1.181,2.156,2.59,2.452,4.619,1.684C116.563,431.69,114.65,431.287,112.785,431.012z"/>
		<path fill="#B92025" d="M333.395,232.976c0.602-0.821,1.21-1.664,1.818-2.488c2.981,14.578,5.59,29.226,7.684,43.961
			c-2.393-3.333-2.393-3.333-3.936-1.685c-1.479,0.266-1.808,2.923-3.912,1.892c0.479-0.646,0.83-1.479,1.467-1.903
			c3.275-2.217,3.715-5.187,2.937-8.828c-1.21-5.69-2.012-11.471-3.192-17.157C335.313,242.165,335.336,237.363,333.395,232.976z"/>
		<path fill="#B92025" d="M212.478,256.375c-1.135-0.095-2.012-0.721-2.865-1.388c0.813-6.388,5.538-10.736,8.45-16.016
			c3.672-6.61,7.8-12.972,11.875-19.343c0.585-0.925,0.866-3.421,3.146-1.813c-6.373,10.596-12.741,21.191-19.103,31.778
			c-0.562,0.938-1.07,1.905-1.614,2.842c-0.456,0.82-1.339,1.722-0.725,2.599c0.877,1.257,1.93-0.305,2.93-0.176
			C214.219,255.846,213.413,256.192,212.478,256.375z"/>
		<path fill="#B92025" d="M216.95,481.551c-0.099,0.603-0.21,1.195-0.316,1.797c-15.022-2.709-29.348-7.696-43.51-13.202
			c0.169-1.067,0.339-2.134,0.514-3.201l0.065-0.03c0.356-0.168,0.713-0.326,1.064-0.496c1.058-0.291,2.082-0.936,3.246-0.408
			c-0.492,1.298-3.076,1.127-2.532,2.666c0.403,1.117,1.778,2.071,3.392,2.515c10.613,2.864,21.156,5.938,31.734,8.907
			C212.693,480.68,214.834,481.071,216.95,481.551z"/>
		<path fill="#B92025" d="M173.633,466.944c-0.169,1.063-0.345,2.134-0.515,3.201c-13.256-4.815-26.085-10.498-37.733-18.595
			l0.257-0.196c4.351,0.056,7.233,2.901,10.52,5.216c4.427,3.123,10.402,3.355,14.461,7.368c0.485,0.485,1.269,0.981,2.21,0.766
			C166.757,463.821,170.359,464.637,173.633,466.944z"/>
		<path fill="#B92025" d="M252.877,183.035c0.75,0.158,1.498,0.319,2.252,0.486c-4.543,5.917-8.322,12.3-12.022,18.77
			c-2.555,4.438-5.607,8.59-8.438,12.87c-2.117-0.78-0.685-2.228-0.246-2.935C240.509,202.448,246.714,192.754,252.877,183.035z"/>
		<path fill="#B92025" d="M353.252,341.375c0.871,0.184,1.204,0.855,1.51,1.582c2.795,10.729,4.31,21.705,6.156,32.615
			c0.111,0.667,0.356,1.76-1.059,1.488c-2.15-5.049-2.333-10.522-3.28-15.817C355.416,354.631,353.486,348.143,353.252,341.375z"/>
		<path fill="#B92025" d="M323.483,175.74c-0.901-9.729-3.404-19.188-4.89-28.824c-0.191-1.281-0.726-2.518,0.312-3.667
			c2.228,0.655,1.438,2.742,1.701,4.111c1.823,9.534,3.433,19.118,5.104,28.681C324.973,175.948,324.227,175.84,323.483,175.74z"/>
		<path fill="#B92025" d="M323.483,175.74c0.743,0.1,1.489,0.202,2.228,0.308c0.475,2.374,0.965,4.748,1.416,7.128
			c0.351,1.804-0.152,3.198-2.029,3.847c0.443-1.976,0.223-3.689-1.889-4.631c-0.527-1.257-1.064-2.521-1.584-3.783
			c-0.019-0.182-0.06-0.356-0.136-0.529l0.11-0.108C323.25,178.085,323.523,177.047,323.483,175.74L323.483,175.74z"/>
		<path fill="#B92025" d="M323.209,182.393c2.116,0.936,2.332,2.649,1.895,4.625c0.013,0.172-0.012,0.339-0.064,0.497
			c-0.632,1.889-3.98,1.792-3.367,4.596c-1.438-1.461-0.988-3.479-1.533-5.216c-0.936-3.066,0.188-3.497,2.703-2.046
			c0.1,0.131,0.191,0.269,0.304,0.396c-0.081-0.143-0.177-0.283-0.263-0.426C322.986,184.011,323.098,183.202,323.209,182.393z"/>
		<path fill="#B92025" d="M286.194,135.537c0.345-2.661,0.685-5.304,1.017-7.964l-0.021-0.222l0.191-0.111l0.375,0.085l0.369,0.015
			c1.309,0.188,1.543,1.488,2.314,2.216C289.065,131.569,288.288,134.022,286.194,135.537z"/>
		<path fill="#B92025" d="M288.131,127.339l-0.375-0.015c0,0-0.369-0.085-0.375-0.085c0.211-0.681,0.428-1.356,0.645-2.035
			c2.122-3.046,4.238-6.09,6.361-9.13C293.51,120.498,290.516,123.749,288.131,127.339z"/>
		<path fill="#B92025" d="M343.358,277.108c-0.843-0.603-0.597-1.392-0.375-2.17C343.563,275.582,343.475,276.342,343.358,277.108z"
			/>
		<path fill="#B92025" d="M139.554,367.047c-0.134,0.022-0.275,0.041-0.415,0.049c0.169-0.201,0.321-0.418,0.479-0.615l0.1,0.087
			C139.677,366.731,139.618,366.895,139.554,367.047z"/>
		<path fill="#B92025" d="M301.275,104.744c-1.346,4.365-3.223,8.397-6.895,11.338C296.059,111.924,298.467,108.217,301.275,104.744
			z"/>
		<path fill="#B92025" d="M310.525,104.592c-2.813,0.193-5.246-2.292-8.188-1.193c0.34-1.876,1.469-2.555,3.157-1.725
			C307.233,102.522,309.338,102.792,310.525,104.592z"/>
		<path fill="#B92025" d="M302.088,103.742c-0.023,0.552-0.274,0.906-0.817,1.028C301.27,104.213,301.532,103.861,302.088,103.742z"
			/>
		<path fill="#B92025" d="M370.758,447.385c-0.754,1.191-1.562,2.367-1.484,3.889l0.029-0.042c-2.537,0.176-1.899,2.312-2.326,3.784
			l0.021-0.02c-2.187-0.068-1.91,1.664-2.191,2.994l0.041-0.04c-1.9,0.607-3.726,1.28-3.737,3.759l-0.204-0.134l0.223,0.117
			c-1.971,0.292-3.17,1.351-3.352,3.408l0.02-0.019c-0.563-0.074-0.871,0.17-0.912,0.743l0.004-0.006
			c-0.344-0.094-0.694-0.188-1.057-0.274c-0.627-0.019-1.188,0.088-1.435,0.783v0.018c-0.134,0.016-0.257,0.029-0.386,0.045
			c0.041,0.201,0.07,0.412,0.117,0.617c-0.094,0.524-0.192,1.047-0.287,1.562l0.006-0.006c-0.654-0.142-1,0.216-1.28,0.729
			c-0.011,0.293-0.169,0.428-0.461,0.409c-0.562,0.013-1.129,0.035-1.696,0.056c-0.164-0.993,1-2.274-0.66-3.031
			c-1.035,1.346-1.07,2.377,0.684,3.014c-0.15,0.521-0.305,1.045-0.455,1.559c-0.27,0.19-0.545,0.387-0.813,0.573
			c-0.545-0.063-0.914,0.105-0.988,0.702l0,0c-0.51-0.091-1.023-0.189-1.532-0.281c-0.315-0.443-0.562-0.392-0.736,0.111h-0.019
			c-1.299,0.163-2.188,0.912-2.899,1.932l0.019,0.014c-0.86-0.377-1.777-1.934-2.539-0.729c-0.549,0.847,1.048,1.147,1.838,1.509
			c0.109,0.256,0.238,0.517,0.354,0.772l0.019-0.006c-0.579-0.187-0.889,0.034-0.953,0.625l-0.012,0.007
			c-0.801-0.34-1.397-0.188-1.685,0.697l0.047-0.025c-0.562-0.141-0.918,0.053-1.006,0.641l-0.075-0.015
			c-0.475-0.079-0.761,0.104-0.837,0.578l-0.116,0.074c-4.416-0.853-7.199,2.686-10.789,4.049c-0.012,0,0.246,0.701,0.387,1.075
			l-0.158,0.048c-5.402-1.431-6.034-1.158-6.484,2.76l-0.059,0.029c-3.188,0.022-6.361,0.038-8.672,2.78l0.012,0.031
			c-6.877-0.742-13.759-0.232-20.643-0.192c-2.672,0.024-5.32,0.793-7.543-1.771c-0.848-0.981-2.7-1.018-4.156-0.274
			c0.146,1.689,2.082,0.576,2.379,1.896c-20.973-0.205-41.269-5.638-61.992-7.59c0.111-0.509,0.216-1.019,0.327-1.521h-0.005
			c0.643,0.201,1.035-0.095,1.31-0.638c13.87-8.239,27.734-16.489,41.604-24.731c0.591,0.103,1.058-0.035,1.258-0.676l-0.048,0.013
			c0.603,0.081,0.899-0.206,0.937-0.796l-0.053,0.035c1.835,0.688,2.766-0.041,2.964-1.896l-0.022,0.019
			c0.562,0.153,0.912-0.029,0.988-0.631h-0.007c0.591,0.139,0.871-0.143,0.941-0.699l-0.022,0.009
			c0.562,0.112,0.899-0.064,0.971-0.661h-0.006c0.578,0.123,0.871-0.146,0.947-0.698l-0.023,0.021
			c0.556,0.082,0.889-0.123,0.959-0.695l-0.029,0.006c0.661,0.205,1.059-0.109,1.345-0.654l-0.022,0.012
			c1.591,0.053,2.642-0.68,3.127-2.195c0,0-0.047,0.066-0.047,0.063c0.941,0.116,1.783,0.08,1.818-1.186
			c0.305-0.26,0.604-0.521,0.906-0.786c0.591,0.175,1.029,0.019,1.216-0.608l-0.041,0.013c2.404,0.7,3.644-0.237,3.808-2.685
			l-0.018,0.019c4.729-0.705,8.244-3.123,10.414-7.425c0,0-0.023,0.02-0.02,0.021c0.586,0.119,0.896-0.126,0.947-0.714l-0.033,0.019
			c2.97,0.776,4.215-0.819,4.742-3.428l-0.048,0.028c0.562,0.129,0.923-0.062,1-0.671l-0.028,0.011
			c3.848,0.103,5.781-2.147,6.801-5.524l-0.047,0.03c0.55,0.099,0.877-0.134,0.988-0.668l-0.041,0.025
			c2.719,0.424,3.93-1.21,4.713-3.431l0,0c0.597,0.142,0.898-0.123,0.946-0.707l-0.034,0.026c0.625-0.016,0.905-0.39,0.977-0.971
			c0.064-0.287,0.238-0.431,0.531-0.437c0.666,0.111,1.117-0.111,1.293-0.808l-0.082,0.03c2.701-0.043,4.367-1.398,5.018-4.012
			l-0.006,0.006c0.572,0.123,0.889-0.101,0.941-0.696l-0.019,0.012c0.585,0.132,0.906-0.094,0.947-0.7l-0.019,0.012
			c2.777,0.496,3.397-1.463,3.971-3.469l-0.006,0.019c0.563,0.081,0.871-0.146,0.93-0.72l-0.018,0.013
			c0.578,0.125,0.883-0.136,0.952-0.703l-0.04,0.019c1.62,0.06,2.637-0.563,2.654-2.317l0.193,0.282l-0.211-0.269
			c1.729,0.511,2.028-0.661,2.264-1.918l-0.059,0.032c1.191,0.225,1.76-0.35,1.877-1.489l-0.076,0.063
			c0.591,0.06,0.929-0.215,0.986-0.803l-0.093,0.084c0.871,0,1.351-0.392,1.315-1.31l-0.006,0.012
			c0.578,0.105,0.865-0.17,0.931-0.725l-0.024,0.017c1.59,0.271,2.695-0.063,2.498-2.011l0.305-0.104
			c4.76-1.356,7.584-4.836,9.841-8.951l0.198-0.178c0.24-0.207,0.498-0.424,0.736-0.631l0.047-0.059
			c5.776,1.734,6.203,2.229,5.332,7.863c-0.433,2.761,0.135,5.672,0.947,7.854c1.768,4.689,1.686,9.456,2.563,14.146
			c1.059,5.636,2.035,11.4,3.72,16.932c1.204,3.955,0.274,8.152,1.789,12.036c0.438,1.128,0.911,1.933,2.116,2.161l0.012,0.011
			C370.928,446.256,370.848,446.817,370.758,447.385z"/>
		<path fill="#B92025" d="M135.642,451.354c-0.83-2.222-2.883-3.468-3.631-6.216c-0.679-2.461-5.549-4.174-8.871-5.348
			c-1.438-0.506-2.438-0.822-2.784-2.16c-0.526-2.116,2.392-0.019,2.292-1.89c-0.842-0.959-2.07-1.45-3.333-1.918l-0.029-0.041
			c-1.643-1.303-0.784-2.684-0.105-4.058c1.193-1.006,3.432-0.655,3.736-2.831h-0.006c2.257,0.448,3.55-0.884,4.631-2.556
			l-0.053,0.023c0.345,0.064,0.684,0.123,1.029,0.188c2.169,0.082,4.362-0.012,6.502,0.271c8.105,1.079,16.286,1.025,24.414,1.091
			c15.203,0.111,30.412-0.286,45.609-1.091c12.911-0.681,25.822-1.166,38.248-5.365c3.216-1.087,6.034-3.269,9.554-3.455
			c0.574,1.274,1.158,2.549,1.736,3.818c-0.801,0.573-1.59,1.15-2.386,1.725c0.063-0.252,0.013-0.465-0.181-0.644
			c-0.848-1-0.719,0.176-0.988,0.444c-0.053,0.332-0.1,0.679-0.141,1.009h0.004c-0.595-0.167-0.876,0.11-0.946,0.682
			c0,0,0.029-0.018,0.023-0.018c-2.187-0.415-3.187,0.889-3.848,2.666l0.023-0.019c-0.538-0.094-0.854,0.129-0.959,0.663
			l0.012-0.011c-0.784-0.155-1.38,0.041-1.608,0.891l0.1-0.063c-0.585-0.136-0.947,0.082-1.058,0.688l0.07-0.052
			c-1.591-0.301-2.561,0.374-2.971,1.918l0.029-0.012c-0.579-0.142-0.906,0.087-0.971,0.685l0.012-0.018
			c-1.631-0.369-2.679,0.15-2.901,1.917l-0.035,0.019c-0.562-0.197-0.859,0.01-0.913,0.596l-0.058,0.039
			c-1.777-0.328-3.064,0.154-3.509,2.078l0.029-0.023c-0.397,0.182-0.795,0.359-1.181,0.545c-0.258,0.164-0.515,0.327-0.778,0.491
			c-1.012,0.071-1.859,0.35-1.924,1.584l0.029-0.025c-3.175,0.452-6.163,1.189-7.409,4.687l0.042-0.028
			c-0.328,0.204-0.667,0.408-0.988,0.619c0,0,0.005-0.005,0,0c-0.772-0.218-1.439-0.211-1.667,0.767l0.059-0.023
			c-1.14-0.334-1.825,0.047-2.006,1.246l0.029-0.023c-0.556-0.126-0.907,0.059-0.982,0.648v0.007
			c-0.585-0.212-0.9,0.006-0.977,0.606l0,0c-1.754-0.32-3.093,0.105-3.596,2.024l0.047-0.024c-0.562-0.123-0.889,0.108-1,0.674
			l0.041-0.024c-0.538-0.093-0.871,0.106-0.994,0.639l0.012-0.006c-0.825-0.317-1.433-0.146-1.69,0.767l0.088-0.041
			c-2.625-0.223-4.256,1.287-5.625,3.25l0.07-0.021c-1.977-0.24-3.485,0.291-3.988,2.45l0.041-0.009
			c-1.222-0.186-2.093,0.269-2.637,1.375l0.029-0.012c-4.789,0.586-8.502,3.183-11.905,6.352l0.046-0.018
			c-0.836-0.253-1.456-0.123-1.596,0.889l-0.111-0.348l0.128,0.336c-1.128-0.492-1.854-0.188-2.064,1.082l0.029-0.023
			c-0.579-0.17-0.906,0.064-1.005,0.643l0.029-0.017c-1.169-0.532-2.182,0.114-3.251,0.409c-0.351,0.156-0.708,0.324-1.064,0.496
			l-0.064,0.029c-3.28-2.311-6.876-3.123-10.8-2.246c-0.941,0.217-1.719-0.279-2.204-0.76c-4.059-4.012-10.04-4.245-14.461-7.367
			C142.876,454.256,140,451.41,135.642,451.354z"/>
		<path fill="#B92025" d="M335.055,274.655c2.104,1.031,2.433-1.623,3.912-1.892c1.297,2.773,2.27,5.42,1.871,8.762
			c-0.736,6.26,1.562,12.248,2.748,18.316c2.063,10.515,4.129,21.021,5.801,31.586c0.322,2.093-0.059,4.184,1.135,6.232
			c0.602,1.044-0.396,2.909-1.456,3.025c-3.222,0.331-2.444,2.673-2.742,4.538l0.013-0.029c-0.925,0.038-1.136,0.661-1.193,1.421
			c-15.842,15.457-32.629,29.827-50.252,43.219c-2.182-0.67-3.123,0.245-3.117,2.402c0.012,0.24-0.111,0.363-0.352,0.363
			c-0.205,0.17-0.42,0.326-0.625,0.496l-0.063,0.199c0,0-0.2-0.028-0.206-0.033c-0.223,0.18-0.461,0.344-0.684,0.523l-0.176,0.152
			c-0.264,0.197-0.527,0.402-0.789,0.605l-0.1,0.071c-0.275,0.211-0.563,0.416-0.831,0.626l-0.082,0.059
			c-0.532-0.035-1.175-0.289-1.565-0.069c-4.1,2.198-7.123,5.935-11.338,8.002c-0.818,0.401-0.264,1.478-0.392,2.231l-0.088,0.086
			c-0.274,0.218-0.556,0.437-0.831,0.662l-0.046,0.028c-0.748-0.132-1.433-0.157-1.404,0.918c0,0-0.099,0.097-0.093,0.095
			c-2.404-1.451-3.947,2.31-6.305,1.034c6.619-5.637,13.365-11.166,18.595-18.202c12.998-17.496,21.132-37.302,26.371-58.246
			c3.403-13.572,6.509-27.262,8.626-41.134c1.8-0.916,3.156-2.173,3.361-4.313l-0.013,0.022c2.649,0.229,3.013-1.965,3.871-3.637
			l-0.047,0.041c2,0.087,2.808-1.064,3.012-2.865l-0.04,0.038c3.174-0.354,4.555-2.608,5.571-5.243L335.055,274.655z"/>
		<path fill="#B92025" d="M265.782,408.271c2.356,1.279,3.906-2.479,6.304-1.029c-5.449,4.719-11.379,8.788-17.496,12.572
			c-0.578-1.275-1.164-2.544-1.735-3.814C257.163,413.422,261.473,410.851,265.782,408.271z"/>
		<path fill="#B92025" d="M274.553,405.459c0.129-0.755-0.433-1.83,0.393-2.233c4.214-2.067,7.236-5.806,11.337-8.005
			c0.397-0.215,1.04,0.041,1.567,0.072C283.773,399.149,279.353,402.553,274.553,405.459z"/>
		<path fill="#B92025" d="M295.871,432.34c-2.181,4.304-5.688,6.719-10.42,7.42C288.637,436.883,292.082,434.381,295.871,432.34z"/>
		<path fill="#B92025" d="M182.573,463.471c3.397-3.178,7.116-5.76,11.9-6.352C190.631,459.478,186.994,462.213,182.573,463.471z"/>
		<path fill="#B92025" d="M353.545,385.551c-2.257,4.113-5.082,7.597-9.842,8.949C346.375,390.852,350.036,388.288,353.545,385.551z
			"/>
		<path fill="#B92025" d="M309.239,422.08c-1.019,3.377-2.946,5.629-6.801,5.525C304.338,425.311,306.766,423.678,309.239,422.08z"
			/>
		<path fill="#B92025" d="M220.178,442.262c1.24-3.496,4.228-4.233,7.403-4.687C225.406,439.602,222.833,441.006,220.178,442.262z"
			/>
		<path fill="#B92025" d="M323.502,411.16c-0.645,2.613-2.306,3.969-5.019,4.012C319.711,413.268,321.512,412.099,323.502,411.16z"
			/>
		<path fill="#B92025" d="M200.958,453.338c1.368-1.965,3-3.474,5.625-3.252C205.069,451.778,203.203,452.887,200.958,453.338z"/>
		<path fill="#B92025" d="M301.508,428.237c-0.524,2.604-1.771,4.201-4.734,3.431C298.135,430.219,299.555,428.872,301.508,428.237z
			"/>
		<path fill="#B92025" d="M314.858,418.036c-0.789,2.224-1.994,3.854-4.713,3.431C311.367,419.842,312.952,418.703,314.858,418.036z
			"/>
		<path fill="#B92025" d="M329.331,406.324c-0.579,1.999-1.192,3.965-3.971,3.469C326.178,408.049,327.699,407.113,329.331,406.324z
			"/>
		<path fill="#B92025" d="M285.469,439.747c-0.17,2.447-1.416,3.392-3.808,2.686C282.581,441.051,283.942,440.28,285.469,439.747z"
			/>
		<path fill="#B92025" d="M197.046,455.768c0.503-2.162,2.011-2.688,3.988-2.456C200.051,454.7,198.59,455.293,197.046,455.768z"/>
		<path fill="#B92025" d="M210.086,448.11c0.502-1.922,1.842-2.353,3.596-2.03C212.699,447.133,211.653,448.08,210.086,448.11z"/>
		<path fill="#B92025" d="M231.405,435.006c0.444-1.927,1.73-2.412,3.508-2.08C233.925,433.93,232.99,435,231.405,435.006z"/>
		<path fill="#B92025" d="M246.135,425.685c0.667-1.771,1.661-3.078,3.842-2.666C249.076,424.447,247.608,425.084,246.135,425.685z"
			/>
		<path fill="#B92025" d="M239.744,429.709c0.409-1.539,1.38-2.211,2.976-1.918C242.03,428.913,241.059,429.59,239.744,429.709z"/>
		<path fill="#B92025" d="M333.803,402.629c-0.018,1.758-1.028,2.375-2.647,2.315C331.547,403.613,332.523,402.944,333.803,402.629z
			"/>
		<path fill="#B92025" d="M291.76,392.227c-0.006-2.158,0.937-3.067,3.117-2.403C294.152,391.03,293.029,391.729,291.76,392.227z"/>
		<path fill="#B92025" d="M220.664,479.797c-0.111,0.504-0.216,1.013-0.328,1.521c-1.146-0.105-2.21,0.883-3.421,0.251
			C218.021,480.674,219.272,480.09,220.664,479.797z"/>
		<path fill="#B92025" d="M343.405,394.606c0.192,1.946-0.905,2.282-2.503,2.011C341.271,395.379,342.418,395.092,343.405,394.606z"
			/>
		<path fill="#B92025" d="M268.635,451.109c-0.198,1.854-1.121,2.591-2.959,1.9C266.449,452.039,267.309,451.215,268.635,451.109z"
			/>
		<path fill="#B92025" d="M235.908,432.269c0.222-1.767,1.274-2.288,2.906-1.917C238.142,431.447,237.112,431.98,235.908,432.269z"
			/>
		<path fill="#B92025" d="M336.055,400.728c-0.239,1.252-0.531,2.427-2.27,1.916C334.209,401.62,334.862,400.863,336.055,400.728z"
			/>
		<path fill="#B92025" d="M277.803,444.935c-0.49,1.524-1.537,2.248-3.127,2.192C275.355,445.894,276.396,445.145,277.803,444.935z"
			/>
		<path fill="#B92025" d="M215.611,444.846c0.182-1.204,0.872-1.584,2.018-1.25C217.284,444.541,216.535,444.836,215.611,444.846z"
			/>
		<path fill="#B92025" d="M337.868,399.271c-0.116,1.141-0.679,1.715-1.872,1.488C336.348,399.928,336.873,399.308,337.868,399.271z
			"/>
		<path fill="#B92025" d="M194.444,457.135c0.543-1.11,1.415-1.559,2.637-1.377C196.367,456.527,195.578,457.153,194.444,457.135z"
			/>
		<path fill="#B92025" d="M178.966,465.409c0.211-1.264,0.936-1.569,2.07-1.073C180.597,465.166,179.948,465.605,178.966,465.409z"
			/>
		<path fill="#B92025" d="M279.575,443.814c-0.041,1.271-0.883,1.302-1.813,1.186C278.358,444.607,278.961,444.209,279.575,443.814z
			"/>
		<path fill="#B92025" d="M227.552,437.602c0.064-1.239,0.912-1.512,1.93-1.584C229.376,437.198,228.429,437.351,227.552,437.602z"
			/>
		<path fill="#B92025" d="M272.186,407.144c-0.029-1.064,0.654-1.048,1.402-0.913C273.35,406.9,272.863,407.172,272.186,407.144z"/>
		<path fill="#B92025" d="M243.597,427.209c0.233-0.852,0.824-1.045,1.613-0.89C244.86,426.944,244.34,427.275,243.597,427.209z"/>
		<path fill="#B92025" d="M345.131,346.61c0.063-0.76,0.274-1.386,1.192-1.421C346.135,345.838,346.002,346.529,345.131,346.61z"/>
		<path fill="#B92025" d="M217.559,443.619c0.228-0.978,0.9-0.982,1.672-0.767C218.845,443.49,218.33,443.836,217.559,443.619z"/>
		<path fill="#B92025" d="M206.495,450.127c0.257-0.912,0.859-1.084,1.69-0.766C207.828,450.06,207.238,450.268,206.495,450.127z"/>
		<path fill="#B92025" d="M340.008,397.319c0.029,0.905-0.449,1.308-1.314,1.304C338.85,397.906,339.225,397.406,340.008,397.319z"
			/>
		<path fill="#B92025" d="M181.018,464.336c0.14-1.006,0.76-1.135,1.597-0.883C182.281,464.103,181.773,464.441,181.018,464.336z"/>
		<path fill="#B92025" d="M234.972,432.889c0.046-0.59,0.345-0.799,0.906-0.596C235.756,432.76,235.458,432.977,234.972,432.889z"/>
		<path fill="#B92025" d="M302.467,427.594c-0.076,0.607-0.438,0.804-1,0.675C301.603,427.76,301.906,427.497,302.467,427.594z"/>
		<path fill="#B92025" d="M281.698,442.42c-0.188,0.627-0.626,0.783-1.217,0.608C280.768,442.602,281.1,442.244,281.698,442.42z"/>
		<path fill="#B92025" d="M230.247,435.526c0.392-0.188,0.79-0.363,1.187-0.545C231.241,435.613,230.844,435.783,230.247,435.526z"
			/>
		<path fill="#B92025" d="M331.189,404.932c-0.07,0.563-0.367,0.826-0.953,0.699C330.319,405.086,330.646,404.856,331.189,404.932z"
			/>
		<path fill="#B92025" d="M287.93,395.237c0.274-0.21,0.567-0.415,0.836-0.625C288.696,395.098,288.439,395.332,287.93,395.237z"/>
		<path fill="#B92025" d="M274.693,447.121c-0.286,0.545-0.689,0.86-1.344,0.655C273.584,447.121,274.086,447.006,274.693,447.121z"
			/>
		<path fill="#B92025" d="M288.866,394.539c0.265-0.201,0.526-0.404,0.789-0.607C289.592,394.398,289.353,394.617,288.866,394.539z"
			/>
		<path fill="#B92025" d="M273.372,447.771c-0.063,0.571-0.403,0.778-0.952,0.694C272.531,447.951,272.846,447.713,273.372,447.771z
			"/>
		<path fill="#B92025" d="M272.442,448.446c-0.081,0.558-0.368,0.821-0.953,0.701C271.811,448.913,272.121,448.68,272.442,448.446z"
			/>
		<path fill="#B92025" d="M271.495,449.147c-0.069,0.588-0.421,0.771-0.97,0.657C270.646,449.279,270.951,449.055,271.495,449.147z"
			/>
		<path fill="#B92025" d="M270.549,449.793c-0.076,0.563-0.352,0.844-0.947,0.697C269.713,449.987,270.028,449.747,270.549,449.793z
			"/>
		<path fill="#B92025" d="M219.219,442.858c0.327-0.21,0.667-0.418,0.994-0.619C220.067,442.741,219.758,442.969,219.219,442.858z"
			/>
		<path fill="#B92025" d="M269.606,450.496c-0.075,0.603-0.433,0.788-0.988,0.631C268.741,450.606,269.098,450.426,269.606,450.496z
			"/>
		<path fill="#B92025" d="M316.752,416.385c-0.068,0.58-0.35,0.955-0.98,0.97C315.823,416.75,316.209,416.49,316.752,416.385z"/>
		<path fill="#B92025" d="M290.784,393.092c0.205-0.17,0.421-0.328,0.625-0.498C291.439,393.057,291.217,393.215,290.784,393.092z"
			/>
		<path fill="#B92025" d="M214.664,445.473c0.077-0.598,0.427-0.778,0.983-0.652C215.529,445.361,215.214,445.584,214.664,445.473z"
			/>
		<path fill="#B92025" d="M265.723,452.975c-0.041,0.591-0.332,0.877-0.936,0.796C264.754,453.098,265.133,452.913,265.723,452.975z
			"/>
		<path fill="#B92025" d="M213.688,446.08c0.082-0.596,0.392-0.813,0.976-0.606C214.535,445.993,214.202,446.191,213.688,446.08z"/>
		<path fill="#B92025" d="M264.836,453.758c-0.199,0.638-0.662,0.774-1.258,0.672C263.818,453.869,264.151,453.494,264.836,453.758z
			"/>
		<path fill="#B92025" d="M338.779,398.535c-0.064,0.588-0.393,0.859-0.98,0.801C337.891,398.777,338.225,398.526,338.779,398.535z"
			/>
		<path fill="#B92025" d="M209.127,448.754c0.111-0.564,0.438-0.797,1-0.674C209.986,448.59,209.653,448.795,209.127,448.754z"/>
		<path fill="#B92025" d="M250.9,422.357c0.047-0.333,0.088-0.673,0.141-1.009c0.327-0.148,0.661-0.302,0.988-0.441
			c0.188,0.177,0.246,0.392,0.182,0.644C251.924,422.047,251.573,422.454,250.9,422.357z"/>
		<path fill="#B92025" d="M208.179,449.367c0.117-0.538,0.456-0.736,0.988-0.639C209.045,449.268,208.7,449.471,208.179,449.367z"/>
		<path fill="#B92025" d="M249.959,423.036c0.071-0.567,0.357-0.849,0.948-0.682C250.783,422.863,250.468,423.086,249.959,423.036z"
			/>
		<path fill="#B92025" d="M296.801,431.644c-0.06,0.597-0.367,0.833-0.947,0.72C295.937,431.821,296.27,431.59,296.801,431.644z"/>
		<path fill="#B92025" d="M318.576,415.147c-0.18,0.69-0.631,0.913-1.297,0.802C317.502,415.349,317.928,415.066,318.576,415.147z"
			/>
		<path fill="#B92025" d="M245.199,426.327c0.099-0.53,0.421-0.754,0.953-0.659C246.029,426.17,245.719,426.404,245.199,426.327z"/>
		<path fill="#B92025" d="M242.638,427.84c0.111-0.611,0.468-0.822,1.064-0.688C243.539,427.672,243.199,427.92,242.638,427.84z"/>
		<path fill="#B92025" d="M340.926,396.601c-0.06,0.559-0.346,0.829-0.924,0.725C340.078,396.784,340.405,396.57,340.926,396.601z"
			/>
		<path fill="#B92025" d="M273.631,406.202c0.279-0.223,0.562-0.442,0.83-0.661C274.389,406.021,274.139,406.274,273.631,406.202z"
			/>
		<path fill="#B92025" d="M354.486,384.742c-0.246,0.217-0.497,0.424-0.743,0.631C353.75,384.881,354.006,384.678,354.486,384.742z"
			/>
		<path fill="#B92025" d="M324.442,410.465c-0.06,0.596-0.369,0.823-0.94,0.701C323.57,410.613,323.875,410.361,324.442,410.465z"/>
		<path fill="#B92025" d="M289.825,393.782c0.224-0.182,0.456-0.353,0.685-0.526C290.281,393.428,290.049,393.601,289.825,393.782z"
			/>
		<path fill="#B92025" d="M238.797,430.375c0.064-0.591,0.392-0.818,0.971-0.685C239.645,430.202,239.329,430.433,238.797,430.375z"
			/>
		<path fill="#B92025" d="M325.372,409.78c-0.041,0.604-0.362,0.83-0.94,0.698C324.495,409.916,324.775,409.625,325.372,409.78z"/>
		<path fill="#B92025" d="M310.187,421.446c-0.117,0.531-0.444,0.763-0.994,0.666C309.52,421.891,309.853,421.662,310.187,421.446z"
			/>
		<path fill="#B92025" d="M177.989,466.031c0.106-0.572,0.433-0.807,1.006-0.64C178.913,466.004,178.515,466.123,177.989,466.031z"
			/>
		<path fill="#B92025" d="M330.248,405.623c-0.052,0.566-0.367,0.807-0.929,0.719C329.406,405.803,329.688,405.541,330.248,405.623z
			"/>
		<path fill="#B92025" d="M221.967,479.153c-0.281,0.544-0.672,0.843-1.31,0.638C220.909,479.194,221.389,479.055,221.967,479.153z"
			/>
		<path fill="#B92025" d="M315.811,417.329c-0.059,0.584-0.355,0.849-0.947,0.707C314.881,417.41,315.25,417.238,315.811,417.329z"
			/>
		<path fill="#B92025" d="M323.489,175.74c0.034,1.307-0.239,2.345-1.89,2.231C321.91,176.954,322.489,176.176,323.489,175.74z"/>
		<path fill="#B92025" d="M320.641,178.828c-0.192,0.634-0.397,1.254-1.223,1.275C319.571,179.434,319.945,178.978,320.641,178.828z
			"/>
		<path fill="#B92025" d="M318.576,180.896c-0.244,0.614-0.52,1.202-1.27,1.339C317.36,181.439,317.869,181.079,318.576,180.896z"/>
		<path fill="#B92025" d="M321.625,178.609c-0.306,0.053-0.615,0.094-0.926,0.146c0.059-0.462,0.275-0.749,0.79-0.679
			C321.565,178.25,321.606,178.427,321.625,178.609z"/>
		<path fill="#B92025" d="M319.489,180.146c-0.28,0.234-0.567,0.456-0.858,0.69C318.922,180.606,319.209,180.381,319.489,180.146z"
			/>
		<path fill="#B92025" d="M317.467,182.146c-0.362,0.263-0.73,0.532-1.082,0.798C316.572,182.447,316.829,182.042,317.467,182.146z"
			/>
		<path fill="#B92025" d="M215.366,254.397c-0.263,0.155-0.526,0.31-0.784,0.467C214.845,254.707,215.104,254.553,215.366,254.397z"
			/>
		<path fill="#B92025" d="M158.254,340.395c1.257,0.456,1.24,1.193,0.591,2.205c-4.596,7.162-8.579,14.717-13.789,21.484
			c-0.958-3.404,1.105-5.697,2.977-8.06c2.807-3.562,3.204-8.644,7.221-11.462C156.716,343.535,155.266,340.359,158.254,340.395z"/>
		<path fill="#B92025" d="M181.445,305.258c-3.76,7.213-7.484,14.453-13.18,20.422c-0.859-0.729-1.07-1.793-0.479-2.57
			c4.409-5.857,7.777-12.46,12.87-17.799C180.791,305.164,181.176,305.27,181.445,305.258z"/>
		<path fill="#B92025" d="M145.069,364.088c-0.497,1.311-0.988,2.614-1.479,3.924c-0.257,0.067-0.509,0.08-0.766,0.043
			c-1.029-0.153-1.187,0.49-1.169,1.285l0.029-0.021c-1-0.479-2.45-0.542-2.128-2.267c0.064-0.158,0.123-0.315,0.169-0.479
			C141.618,365.995,142.741,363.756,145.069,364.088z"/>
		<path fill="#B92025" d="M187.17,296.227c-0.924,1.798-1.836,3.581-2.76,5.379c-0.866-0.883-2.339-1.313-1.322-3.207
			C184.053,296.59,185.071,295.568,187.17,296.227z"/>
		<path fill="#B92025" d="M166.891,327.752c-0.234,2.123-1,4-2.584,5.486C164.587,331.144,163.921,328.59,166.891,327.752z"/>
		<path fill="#B92025" d="M163.26,334.67c-0.796,1.451-0.877,3.478-3.111,3.715C161.237,337.19,159.663,333.77,163.26,334.67z"/>
		<path fill="#B92025" d="M164.154,333.92c-0.31,0.252-0.613,0.498-0.917,0.748C163.542,334.418,163.844,334.172,164.154,333.92z"/>
		<path fill="#B92025" d="M182.322,304.521c-0.298,0.246-0.591,0.491-0.895,0.731C181.731,305.012,182.03,304.767,182.322,304.521z"
			/>
		<path fill="#B92025" d="M371,445.678c0.176-0.334,0.332-0.68,0.502-1.01c0.088,0.084,0.176,0.178,0.27,0.26
			c-0.251,0.252-0.504,0.51-0.76,0.761L371,445.678z"/>
		<path fill="#B92025" d="M293.17,124.298c-0.461,1.02-0.232,2.386-1.515,2.988C290.937,123.962,291.049,123.742,293.17,124.298z"/>
		<path fill="#B92025" d="M286.172,135.537c-1.183,3.748-3.274,6.958-5.802,9.923c-0.258-2.584-1.198-5.362,2.579-6.444
			c0.813-0.231,0.959-1.403,0.93-2.444C283.813,134.684,285.213,135.484,286.172,135.537z"/>
		<path fill="#B92025" d="M280.223,146.104c-0.314,0.281-0.625,0.555-0.936,0.833C279.604,146.658,279.908,146.378,280.223,146.104z
			"/>
		<path fill="#B92025" d="M320.939,486.439c-1.795,1.695-4.28,1.929-6.333,3.029c-0.777-0.076-1.556-0.17-2.333-0.25
			C314.578,486.478,317.752,486.463,320.939,486.439z"/>
		<path fill="#B92025" d="M173.697,466.914c0.357-0.168,0.713-0.332,1.064-0.496C174.417,466.582,174.054,466.748,173.697,466.914z"
			/>
		<path fill="#B92025" d="M117.597,429.441c1.543-1.336,3.298-2.232,5.321-2.553c-0.31,2.182-2.543,1.824-3.736,2.834
			C118.656,429.631,118.13,429.539,117.597,429.441z"/>
		<path fill="#B92025" d="M119.317,433.827c-0.023,0.459,0.52,1.091-0.146,1.336c-0.549,0.199-1.023-0.317-1.029-0.839
			c0-0.77,0.685-0.509,1.146-0.535L119.317,433.827z"/>
		<path fill="#B92025" d="M322.875,184.824c0.088,0.141,0.182,0.281,0.264,0.427c-0.105-0.128-0.198-0.266-0.305-0.397
			L322.875,184.824z"/>
		<path fill="#B92025" d="M338.043,478.481c-3.197,2.257-6.695,3.929-10.408,5.121c-0.133-0.371-0.392-1.069-0.379-1.075
			C330.844,481.164,333.629,477.631,338.043,478.481z"/>
		<path fill="#B92025" d="M327.482,483.65c-1.93,1.447-4.087,2.391-6.479,2.76C321.454,482.495,322.086,482.223,327.482,483.65z"/>
		<path fill="#B92025" d="M348.172,472.575c-1.567,1.544-3.328,2.767-5.51,3.321c-0.117-0.251-0.244-0.516-0.361-0.771
			c0.232-0.258,0.461-0.521,0.701-0.781l-0.023-0.014c1.48,0.116,2.428-0.562,2.906-1.93h0.019c0.257,0.027,0.503,0,0.735-0.105
			C347.147,472.383,347.668,472.481,348.172,472.575z"/>
		<path fill="#B92025" d="M364.842,457.957c-0.795,1.707-1.924,3.07-3.736,3.76C361.117,459.237,362.934,458.559,364.842,457.957z"
			/>
		<path fill="#B92025" d="M361.117,461.693c-0.585,1.655-1.684,2.807-3.345,3.408C357.947,463.049,359.146,461.991,361.117,461.693z
			"/>
		<path fill="#B92025" d="M350.434,469.736c-1.76-0.635-1.719-1.669-0.686-3.016c1.661,0.755,0.491,2.039,0.655,3.033
			L350.434,469.736z"/>
		<path fill="#B92025" d="M369.299,451.238c-0.218,1.602-0.873,2.938-2.321,3.78C367.403,453.545,366.766,451.41,369.299,451.238z"
			/>
		<path fill="#B92025" d="M367,454.997c-0.355,1.275-0.982,2.353-2.193,2.994C365.082,456.664,364.807,454.93,367,454.997z"/>
		<path fill="#B92025" d="M343.002,474.346c-0.233,0.259-0.469,0.523-0.695,0.781c-0.789-0.361-2.385-0.664-1.836-1.507
			C341.223,472.411,342.141,473.969,343.002,474.346z"/>
		<path fill="#B92025" d="M356.002,466.588c-0.48,0.924-1.123,1.664-2.164,1.982c0.088-0.521,0.187-1.048,0.291-1.566
			c0.142-0.193,0.229-0.416,0.265-0.655l0.005-0.019C354.93,466.418,355.463,466.504,356.002,466.588z"/>
		<path fill="#B92025" d="M345.891,472.397c-0.479,1.371-1.434,2.056-2.907,1.938C343.697,473.312,344.586,472.563,345.891,472.397z
			"/>
		<path fill="#B92025" d="M352.106,469.698c-0.386,0.959-1.101,1.491-2.136,1.597c0.158-0.522,0.312-1.037,0.457-1.559l-0.028,0.018
			C350.971,469.736,351.539,469.715,352.106,469.698z"/>
		<path fill="#B92025" d="M356.002,466.588c-0.539-0.084-1.064-0.176-1.604-0.258c0.239-0.693,0.802-0.805,1.434-0.783
			c0.048,0.328,0.101,0.666,0.146,1L356.002,466.588z"/>
		<path fill="#B92025" d="M341.715,476.528c-0.408,0.613-0.899,1.006-1.684,0.698C340.317,476.344,340.914,476.188,341.715,476.528z
			"/>
		<path fill="#B92025" d="M357.783,465.084c-0.081,0.521-0.333,0.83-0.911,0.743C356.912,465.254,357.221,465.008,357.783,465.084z"
			/>
		<path fill="#B92025" d="M355.978,466.547c-0.048-0.334-0.101-0.672-0.146-1c0.345,0.086,0.701,0.182,1.054,0.274
			C356.842,466.389,356.551,466.646,355.978,466.547z"/>
		<path fill="#B92025" d="M354.393,466.348c-0.035,0.238-0.123,0.455-0.264,0.652c-0.048-0.197-0.082-0.408-0.117-0.615
			C354.135,466.375,354.264,466.362,354.393,466.348z"/>
		<path fill="#B92025" d="M353.842,468.564c-0.191,0.637-0.66,0.807-1.273,0.725C352.842,468.777,353.193,468.422,353.842,468.564z"
			/>
		<path fill="#B92025" d="M346.639,472.295c-0.233,0.105-0.479,0.135-0.73,0.105C346.077,471.897,346.323,471.844,346.639,472.295z"
			/>
		<path fill="#B92025" d="M349.166,471.873c-0.146,0.494-0.434,0.791-0.994,0.702C348.246,471.976,348.621,471.803,349.166,471.873z
			"/>
		<path fill="#B92025" d="M342.68,475.896c-0.088,0.555-0.416,0.748-0.953,0.625C341.799,475.926,342.1,475.711,342.68,475.896z"/>
		<path fill="#B92025" d="M340.072,477.2c-0.053,0.652-0.468,0.754-1.006,0.644C339.16,477.254,339.51,477.065,340.072,477.2z"/>
		<path fill="#B92025" d="M338.996,477.826c-0.064,0.497-0.355,0.684-0.849,0.572C338.236,477.926,338.522,477.744,338.996,477.826z
			"/>
		<path fill="#B92025" d="M122.912,426.895c1.257-1.361,2.79-2.256,4.631-2.555C126.462,426.012,125.17,427.342,122.912,426.895z"/>
		<path fill="#B92025" d="M252.029,420.901c-0.328,0.151-0.661,0.302-0.988,0.444C251.316,421.071,251.188,419.901,252.029,420.901z
			"/>
		<path fill="#B92025" d="M128.562,423.672c-0.018,0.293-0.035,0.58-0.047,0.873c-0.339-0.064-0.678-0.123-1.023-0.188
			C127.86,424.135,128.204,423.907,128.562,423.672z"/>
		<path fill="#B92025" d="M329.518,279.974c1.509-2.117,3.228-4.011,5.572-5.239C334.066,277.365,332.692,279.623,329.518,279.974z"
			/>
		<path fill="#B92025" d="M319.372,290.692c-0.31-0.071-0.62-0.142-0.924-0.211c0.948-1.866,2.457-3.151,4.287-4.104
			C322.518,288.52,321.168,289.779,319.372,290.692z"/>
		<path fill="#B92025" d="M322.717,286.396c0.994-1.525,2.158-2.874,3.865-3.635C325.729,284.436,325.366,286.629,322.717,286.396z"
			/>
		<path fill="#B92025" d="M326.547,282.797c0.608-1.367,1.614-2.32,3.012-2.864C329.348,281.733,328.547,282.892,326.547,282.797z"
			/>
		<path fill="#B92025" d="M142.823,368.047c-0.076,0.715-0.187,1.396-1.169,1.289C141.636,368.545,141.794,367.9,142.823,368.047z"
			/>
		<path fill="#B92025" d="M318.543,290.428c-0.164,1.095-0.802,1.57-1.89,1.492C317.063,291.139,317.672,290.612,318.543,290.428z"
			/>
		<path fill="#B92025" d="M314.741,293.618c-0.142,0.466-0.252,0.97-0.924,0.865C314.121,294.194,314.437,293.908,314.741,293.618z"
			/>
		<path fill="#B92025" d="M316.706,291.879c-0.257,0.215-0.509,0.428-0.767,0.645C316.197,292.305,316.449,292.092,316.706,291.879z
			"/>
		<path fill="#F8AEB0" stroke="#272727" stroke-miterlimit="10" d="M359.859,377.061c0.135,0.717,0.275,1.436,0.415,2.148
			c-1.808,1.93-4.396,3.059-5.741,5.479l-0.047,0.058c-0.48-0.063-0.736,0.141-0.743,0.633l-0.192,0.179
			c-3.508,2.735-7.176,5.3-9.848,8.948l-0.298,0.105c-0.987,0.484-2.135,0.771-2.503,2.012l0.023-0.018
			c-0.521-0.03-0.849,0.188-0.931,0.724l0.013-0.005c-0.783,0.085-1.158,0.588-1.315,1.305l0.087-0.084
			c-0.555-0.011-0.889,0.243-0.98,0.803l0.069-0.064c-0.989,0.036-1.521,0.655-1.872,1.488l0.059-0.031
			c-1.187,0.139-1.842,0.895-2.269,1.917l0.216,0.275l-0.197-0.289c-1.28,0.313-2.258,0.985-2.648,2.317l0.034-0.018
			c-0.543-0.066-0.87,0.157-0.953,0.702l0.024-0.013c-0.567-0.082-0.85,0.181-0.937,0.72l0.011-0.019
			c-1.637,0.793-3.156,1.726-3.97,3.469l0.013-0.006c-0.593-0.16-0.877,0.133-0.941,0.694l0.012-0.012
			c-0.563-0.104-0.872,0.146-0.941,0.696l0.012-0.006c-1.988,0.938-3.801,2.11-5.022,4.012l0.087-0.024
			c-0.647-0.075-1.068,0.202-1.291,0.802c-0.299,0.008-0.469,0.152-0.533,0.438c-0.549,0.104-0.935,0.368-0.98,0.968l0.04-0.025
			c-0.565-0.088-0.929,0.08-0.947,0.707l0,0c-1.911,0.67-3.495,1.807-4.719,3.43l0.048-0.026c-0.333,0.222-0.667,0.444-0.994,0.669
			l0.047-0.031c-2.469,1.597-4.899,3.233-6.795,5.528l0.023-0.015c-0.563-0.1-0.866,0.164-1,0.672l0.047-0.021
			c-1.947,0.631-3.38,1.977-4.742,3.42l0.035-0.019c-0.538-0.056-0.859,0.179-0.954,0.72l0.024-0.023
			c-3.784,2.041-7.233,4.545-10.414,7.422l0.017-0.02c-1.53,0.543-2.883,1.309-3.807,2.688l0.034-0.013
			c-0.59-0.172-0.93,0.186-1.209,0.611c-0.311,0.26-0.604,0.523-0.907,0.783c-0.606,0.398-1.21,0.796-1.824,1.188l0.054-0.066
			c-1.408,0.207-2.438,0.955-3.134,2.195l0.022-0.013c-0.602-0.116-1.104,0-1.338,0.657l0.029-0.005
			c-0.533-0.056-0.849,0.185-0.966,0.692l0.024-0.019c-0.312,0.234-0.627,0.466-0.941,0.699h0.005
			c-0.544-0.095-0.854,0.128-0.971,0.657l0.024-0.008c-0.527-0.051-0.838,0.189-0.941,0.697h0.005
			c-0.509-0.068-0.858,0.11-0.987,0.633l0.018-0.019c-1.327,0.104-2.188,0.927-2.959,1.896l0.053-0.035
			c-0.591-0.063-0.971,0.123-0.936,0.795l0.047-0.012c-0.685-0.258-1.023,0.117-1.258,0.678
			c-13.875,8.246-27.74,16.483-41.604,24.729c-0.585-0.101-1.059,0.035-1.316,0.638h0.006c-1.392,0.293-2.643,0.877-3.742,1.777
			l0.041-0.023c-2.117-0.474-4.257-0.864-6.35-1.448c-10.572-2.966-21.121-6.042-31.734-8.912c-1.613-0.437-2.988-1.397-3.397-2.509
			c-0.543-1.535,2.046-1.368,2.543-2.666l-0.029,0.017c0.532,0.089,0.924-0.03,1.006-0.644l-0.035,0.023
			c0.982,0.188,1.631-0.244,2.076-1.082l-0.128-0.336l0.111,0.348c0.754,0.101,1.257-0.238,1.59-0.889l-0.047,0.018
			c4.427-1.256,8.058-3.993,11.905-6.351l-0.035,0.013c1.134,0.021,1.93-0.607,2.637-1.377l-0.035,0.008
			c1.544-0.471,3.006-1.063,3.988-2.448l-0.076,0.022c2.245-0.451,4.111-1.563,5.631-3.252l-0.082,0.041
			c0.742,0.141,1.327-0.063,1.684-0.766l-0.011,0.006c0.526,0.1,0.865-0.104,0.988-0.638l-0.036,0.022
			c0.521,0.041,0.86-0.164,1-0.673l-0.046,0.024c1.562-0.03,2.608-0.973,3.596-2.024l0,0c0.521,0.108,0.849-0.087,0.977-0.606
			v-0.006c0.555,0.115,0.865-0.111,0.982-0.646l-0.029,0.021c0.917-0.013,1.666-0.308,2.011-1.246l-0.064,0.023
			c0.772,0.217,1.292-0.129,1.672-0.771l-0.006,0.006c0.532,0.117,0.842-0.117,0.994-0.619l-0.047,0.029
			c2.667-1.258,5.228-2.661,7.409-4.688l-0.029,0.025c0.877-0.246,1.818-0.403,1.929-1.584c0.257-0.159,0.515-0.325,0.767-0.492
			c0.596,0.258,0.994,0.089,1.187-0.544l-0.035,0.024c1.585,0,2.532-1.074,3.514-2.08l0.059-0.037
			c0.486,0.088,0.784-0.123,0.906-0.597l0.035-0.019c1.199-0.292,2.234-0.827,2.906-1.917l-0.011,0.017
			c0.526,0.063,0.841-0.175,0.964-0.684l-0.029,0.012c1.321-0.117,2.292-0.795,2.977-1.918l-0.076,0.053
			c0.562,0.082,0.9-0.17,1.058-0.688l-0.105,0.062c0.743,0.072,1.269-0.265,1.614-0.89l-0.012,0.012
			c0.521,0.073,0.836-0.155,0.965-0.664l-0.029,0.019c1.474-0.603,2.936-1.236,3.848-2.666l-0.023,0.018
			c0.508,0.051,0.831-0.173,0.954-0.682h-0.012c0.667,0.097,1.023-0.307,1.311-0.811c0.801-0.572,1.584-1.152,2.379-1.725
			c6.123-3.796,12.046-7.854,17.496-12.572l0.101-0.1c0.685,0.029,1.177-0.239,1.408-0.915l0.042-0.032
			c0.509,0.076,0.76-0.181,0.83-0.661l0.087-0.081c4.8-2.906,9.22-6.31,13.296-10.162l0.082-0.064
			c0.509,0.099,0.768-0.135,0.83-0.62l0.102-0.075c0.483,0.075,0.725-0.141,0.787-0.604l0.176-0.154
			c0.223-0.178,0.45-0.352,0.686-0.521l0.203,0.029l0.06-0.201c0.438,0.129,0.667-0.029,0.626-0.49c0.24,0,0.362-0.123,0.355-0.369
			c1.271-0.497,2.387-1.198,3.117-2.402c17.623-13.393,34.412-27.759,50.252-43.219c0.865-0.075,1.006-0.772,1.199-1.422
			l-0.018,0.029c1.783,0.277,2.304-1.433,3.434-2.175c1.086-0.713,1.631-2.597,3.502-1.679c0.232,6.77,2.162,13.26,3.326,19.872
			C357.521,366.538,357.709,372.012,359.859,377.061z"/>
		<path fill="#B92025" d="M354.526,384.687c1.346-2.425,3.937-3.554,5.748-5.479c1.075-0.358,1.416,0.211,1.585,1.172
			c3.836,22.238,7.689,44.471,11.537,66.701c-0.809,0.646-1.736,0.363-2.645,0.312c0.082-0.567,0.176-1.13,0.252-1.696
			c0.258-0.251,0.51-0.509,0.76-0.76c-0.086-0.088-0.182-0.176-0.269-0.26c-0.17,0.336-0.327,0.681-0.503,1.008
			c-1.204-0.229-1.679-1.035-2.117-2.157c-1.514-3.89-0.584-8.081-1.787-12.034c-1.686-5.533-2.668-11.297-3.721-16.934
			c-0.883-4.688-0.809-9.456-2.561-14.148c-0.813-2.185-1.381-5.09-0.948-7.854C360.736,386.916,360.299,386.422,354.526,384.687z"
			/>
		<path fill="#F04F4F" d="M286.194,135.537c2.094-1.515,2.871-3.971,4.251-5.982c0.415-0.754,0.813-1.514,1.21-2.269
			c1.281-0.599,1.054-1.965,1.515-2.988c0.463-0.251,1.252-0.427,1.328-0.766c1.286-5.742,6.555-9.11,8.602-14.429
			c0.445-1.189,1.304-3.026,3.285-2.348c1.69,0.573,3.146,1.433,3.539,3.544c1.842,10.031,4.14,19.98,5.211,30.144
			c-11.621,9.291-24.08,17.401-36.057,26.19c-6.033,4.426-11.98,8.985-18.424,12.82c2.165-7.119,7.264-12.545,10.83-18.854
			c2.585-4.561,5.975-8.666,7.811-13.66c0.311-0.283,0.614-0.562,0.93-0.836c0.064-0.21,0.105-0.43,0.152-0.637
			c2.526-2.965,4.613-6.178,5.801-9.926L286.194,135.537z"/>
		<path fill="#F8AEB0" stroke="#272727" stroke-width="2" stroke-miterlimit="10" d="M142.823,368.047
			c0.257,0.045,0.509,0.032,0.766-0.041c5.257-1.424,9.631-4.662,14.297-7.221c50.679-27.852,97.709-60.978,141.564-98.623
			c8.572-7.359,17.466-14.39,25.155-22.729c2.708-1.614,4.631-3.967,6.217-6.63c0.857,0.059,1.707,0.111,2.561,0.172
			c1.946,4.386,1.924,9.189,2.877,13.785c1.188,5.69,1.988,11.466,3.192,17.158c0.778,3.643,0.333,6.612-2.937,8.828
			c-0.637,0.428-0.986,1.258-1.467,1.903l0.041,0.073c-2.346,1.234-4.063,3.123-5.572,5.244l0.039-0.041
			c-1.396,0.545-2.401,1.498-3.01,2.865c0,0,0.047-0.037,0.041-0.037c-1.707,0.756-2.871,2.107-3.865,3.633l0.013-0.02
			c-1.825,0.95-3.327,2.238-4.28,4.104l0.088-0.055c-0.871,0.185-1.479,0.707-1.89,1.49l0.053-0.041
			c-0.257,0.211-0.509,0.428-0.767,0.641c-0.403,0.362-0.801,0.729-1.198,1.097c-0.305,0.293-0.614,0.573-0.918,0.866
			c-14.338,12.615-28.752,25.144-43.702,37.054c-30.155,24.053-61.831,45.899-94.857,65.826
			c-15.297,9.243-31.067,17.67-46.709,26.313c-0.357,0.233-0.702,0.455-1.064,0.688l0.053-0.022
			c-1.842,0.301-3.368,1.195-4.631,2.557l0.006-0.004c-2.029,0.314-3.784,1.217-5.321,2.549h0.023
			c-2.035,0.767-3.438,0.468-4.625-1.685c-2.696-4.883-4.397-8.964-0.438-14.683c8.561-12.355,16.086-25.432,24.015-38.223
			c1.351-2.188,2.859-4.201,5.111-5.533l-0.029,0.021C142.63,369.442,142.741,368.767,142.823,368.047z"/>
		<path fill="#B92025" d="M330.828,232.802c-1.586,2.663-3.509,5.017-6.216,6.63c-0.562-11.753-0.347-23.535-1.586-35.262
			c-0.427-4.026-2.157-7.903-1.354-12.061c1.7,0.117,2.806,0.938,3.104,2.678c1.27,7.239,2.52,14.481,3.795,21.723
			c0.292,1.637,0.434,3.242-0.434,4.76c-0.063,0.12-0.129,0.246-0.188,0.365c4.176,1.711,0.719,5.821,2.557,8.148
			C331.406,230.907,330.576,231.826,330.828,232.802z"/>
		<path fill="#F8AEB0" stroke="#272727" stroke-miterlimit="10" d="M349.166,471.873c0.268-0.188,0.543-0.383,0.807-0.572
			c1.039-0.104,1.748-0.638,2.141-1.597c0.292,0.019,0.45-0.116,0.461-0.409c0.614,0.072,1.076-0.088,1.275-0.729l-0.012,0.006
			c1.047-0.313,1.688-1.06,2.168-1.983l-0.021-0.039c0.572,0.099,0.863-0.162,0.904-0.727l-0.004,0.006
			c0.565,0.088,0.824-0.219,0.912-0.742l-0.02,0.018c1.661-0.604,2.761-1.76,3.346-3.408l-0.223-0.117l0.21,0.135
			c1.813-0.684,2.94-2.05,3.737-3.76l-0.041,0.04c1.211-0.647,1.837-1.722,2.191-2.993l-0.021,0.019
			c1.449-0.841,2.104-2.183,2.32-3.784l-0.029,0.042c1.925-1.649,3.012-1.69,3.373,1.278c0.429,3.504,1.34,6.945,1.877,10.434
			c0.592,3.752-1.326,6.406-4.104,8.646c-12.099,9.804-25.852,15.785-41.302,17.822c-3.367,0.447-6.747,0.87-10.127,1.239
			c-1.597,0.179-3.274,0.394-4.386-1.229c2.059-1.104,4.543-1.334,6.332-3.03l0.06-0.028c2.397-0.367,4.556-1.313,6.483-2.76
			c0,0,0.158-0.047,0.152-0.051c3.707-1.195,7.204-2.864,10.409-5.121c0,0,0.116-0.074,0.104-0.074
			c0.484,0.104,0.783-0.075,0.842-0.578l0.076,0.02c0.537,0.108,0.947,0.008,1.006-0.64l-0.047,0.026
			c0.789,0.308,1.281-0.085,1.684-0.698l0.012-0.007c0.545,0.117,0.866-0.07,0.953-0.625l-0.018,0.006
			c2.182-0.563,3.936-1.786,5.509-3.327l0,0C348.732,472.664,349.018,472.367,349.166,471.873z"/>
		<path fill="#F04F4F" d="M128.562,423.672c15.642-8.643,31.406-17.064,46.709-26.313c33.02-19.93,64.696-41.773,94.856-65.824
			c14.95-11.91,29.363-24.439,43.695-37.055c0.672,0.099,0.783-0.396,0.924-0.866c0.403-0.368,0.801-0.737,1.198-1.093
			c0.258-0.217,0.51-0.434,0.767-0.645l-0.053,0.041c1.087,0.078,1.725-0.402,1.889-1.49l-0.086,0.056
			c0.303,0.065,0.612,0.14,0.916,0.208c-2.117,13.876-5.222,27.564-8.623,41.136c-5.24,20.939-13.373,40.748-26.373,58.246
			c-5.228,7.04-11.974,12.566-18.594,18.197c-4.311,2.579-8.625,5.151-12.923,7.729c-3.525,0.188-6.338,2.365-9.555,3.45
			c-12.426,4.204-25.336,4.683-38.248,5.367c-15.197,0.808-30.406,1.205-45.61,1.088c-8.134-0.062-16.309-0.012-24.413-1.088
			c-2.14-0.286-4.333-0.188-6.508-0.274C128.526,424.252,128.544,423.969,128.562,423.672z"/>
		<path fill="#F04F4F" d="M322.84,184.852c-2.521-1.447-3.644-1.023-2.701,2.049c0.545,1.737,0.088,3.749,1.533,5.216v-0.006
			c-0.803,4.158,0.936,8.034,1.36,12.061c1.233,11.727,1.024,23.515,1.58,35.262c-7.69,8.345-16.584,15.374-25.149,22.729
			c-43.861,37.646-90.892,70.77-141.571,98.623c-4.671,2.559-9.045,5.801-14.296,7.221c0.491-1.31,0.982-2.612,1.479-3.92h-0.012
			c5.21-6.77,9.187-14.326,13.789-21.485c0.649-1.013,0.667-1.749-0.591-2.205c0.562-0.742,1.877-0.761,1.895-2.009
			c2.233-0.239,2.315-2.266,3.11-3.709l-0.023-0.008c0.304-0.248,0.608-0.492,0.918-0.748c0.064-0.223,0.111-0.444,0.152-0.679
			c1.585-1.491,2.351-3.362,2.584-5.485c0.947-0.367,1.087-1.269,1.374-2.071c5.695-5.968,9.42-13.206,13.186-20.423l-0.023-0.006
			c0.304-0.239,0.597-0.484,0.895-0.73c0.164-1.35,1.521-1.859,2.088-2.917c0.924-1.796,1.836-3.585,2.76-5.38
			c0.356-3.975,4.245-5.52,5.941-8.713c5.466-10.322,12.886-19.525,17.734-30.243c0.205-0.453,1.076-0.608,1.631-0.899
			c0.936-0.183,1.736-0.527,2.094-1.511h0.011c0.257-0.16,0.52-0.315,0.784-0.467c13.32-7.765,26.863-15.157,39.739-23.676
			c21.122-13.981,40.877-29.67,59.589-46.704c0.479-0.436,1.116-0.713,1.685-1.076c0.352-0.263,0.72-0.532,1.082-0.795l-0.158,0.091
			c0.748-0.138,1.023-0.729,1.269-1.342l0.06-0.058c0.293-0.234,0.574-0.459,0.859-0.69l-0.07-0.047
			c0.824-0.017,1.029-0.64,1.223-1.274l0.064-0.076c0.31-0.052,0.619-0.094,0.924-0.143c0.526,1.263,1.059,2.523,1.578,3.786
			c-0.109,0.81-0.215,1.62-0.326,2.433L322.84,184.852z"/>
		<path fill="#F8AEB0" stroke="#272727" stroke-miterlimit="10" d="M233.077,217.815c0.532-0.883,1.064-1.771,1.585-2.66
			c2.83-4.28,5.888-8.426,8.443-12.87c3.696-6.464,7.479-12.853,12.017-18.771c2.007-1.128,3.919-2.406,5.531-4.063
			c6.444-3.833,12.397-8.398,18.425-12.821c11.975-8.791,24.436-16.902,36.049-26.182c1.064-0.321,2.111-0.769,3.211-0.14
			c0.188,0.983,0.381,1.965,0.563,2.941c-1.036,1.149-0.503,2.38-0.311,3.667c1.483,9.637,3.986,19.091,4.889,28.824h0.006
			c-1,0.437-1.58,1.214-1.891,2.231l-0.109,0.108c-0.516-0.073-0.73,0.213-0.79,0.676l-0.063,0.076
			c-0.689,0.149-1.069,0.608-1.228,1.275l0.075,0.046c-0.281,0.234-0.567,0.457-0.859,0.69l-0.059,0.059
			c-0.702,0.185-1.211,0.546-1.27,1.345l0.164-0.094c-0.639-0.105-0.9,0.304-1.089,0.798c-0.562,0.36-1.198,0.638-1.685,1.074
			c-18.711,17.03-38.475,32.725-59.588,46.703c-12.881,8.522-26.414,15.91-39.739,23.675c-0.263,0.156-0.521,0.311-0.784,0.469
			h-0.005c-1.012-0.129-2.064,1.432-2.935,0.176c-0.609-0.875,0.274-1.778,0.725-2.6c0.549-0.939,1.058-1.91,1.613-2.842
			C220.342,239.006,226.71,228.411,233.077,217.815z"/>
		<path fill="none" stroke="#272727" stroke-width="2" stroke-miterlimit="10" d="M108.646,415.394l196.851-313.719l8.292,6.941
			l63.063,358.837c0,0-31.563,33.119-95.418,26.664C207.489,486.633,120.609,461.43,108.646,415.394z"/>
	</g>
</g>
</svg>
