<?xml version="1.0" encoding="utf-8"?>
<!-- Generator: Adobe Illustrator 15.0.0, SVG Export Plug-In . SVG Version: 6.00 Build 0)  -->
<!DOCTYPE svg PUBLIC "-//W3C//DTD SVG 1.1//EN" "http://www.w3.org/Graphics/SVG/1.1/DTD/svg11.dtd">
<svg version="1.1" id="Layer_1" xmlns="http://www.w3.org/2000/svg" xmlns:xlink="http://www.w3.org/1999/xlink" x="0px" y="0px"
	 width="500px" height="500px" viewBox="0 0 500 500" enable-background="new 0 0 500 500" xml:space="preserve">
<g>
	<g>
		<circle fill="#F2DCBC" stroke="#272727" stroke-width="2" stroke-miterlimit="10" cx="225.196" cy="23.376" r="17.003"/>
		<circle fill="#F2DCBC" stroke="#272727" stroke-width="2" stroke-miterlimit="10" cx="259.482" cy="25.832" r="17"/>
		<circle fill="#F2DCBC" stroke="#272727" stroke-width="2" stroke-miterlimit="10" cx="294.371" cy="30.944" r="17"/>
		<circle fill="#F2DCBC" stroke="#272727" stroke-width="2" stroke-miterlimit="10" cx="329.135" cy="36.76" r="17.001"/>
		<path fill="#F2DCBC" stroke="#272727" stroke-width="2" stroke-miterlimit="10" d="M362.889,30.314
			c9.389,0,16.998,7.611,16.998,16.999c0,9.391-7.609,17.001-16.998,17.001c-9.393,0-17.002-7.611-17.002-17.001
			C345.887,37.925,353.496,30.314,362.889,30.314z"/>
		<circle fill="#F2DCBC" stroke="#272727" stroke-width="2" stroke-miterlimit="10" cx="394.582" cy="60.786" r="17"/>
	</g>
	<path fill="#F9A254" d="M244.327,27.732c-0.107-9.391,7.417-17.084,16.8-17.197c9.389-0.102,17.084,7.42,17.191,16.811
		C251.504,5.608,244.426,37.123,244.327,27.732z"/>
	<path fill="#F9A254" d="M279.488,31.319c-0.107-9.391,7.418-17.085,16.801-17.198c9.389-0.102,17.084,7.42,17.191,16.811
		C286.668,9.192,279.59,40.712,279.488,31.319z"/>
	<path fill="#F9A254" d="M313.779,38.07c-0.111-9.391,7.416-17.084,16.797-17.197c9.389-0.102,17.088,7.42,17.191,16.811
		C320.951,15.944,313.879,47.464,313.779,38.07z"/>
	<path fill="#F9A254" d="M347.096,47.056c-0.111-9.391,7.414-17.084,16.797-17.197c9.389-0.102,17.084,7.415,17.191,16.811
		C354.27,24.929,347.193,56.446,347.096,47.056z"/>
	<path fill="#F9A254" d="M380.109,61.461c-0.109-9.391,7.418-17.084,16.797-17.197c9.391-0.102,17.088,7.412,17.195,16.808
		C387.285,39.337,380.209,70.853,380.109,61.461z"/>
	<circle fill="#F2DCBC" stroke="#272727" stroke-width="2" stroke-miterlimit="10" cx="462.629" cy="183.165" r="17"/>
	<circle fill="#F2DCBC" stroke="#272727" stroke-width="2" stroke-miterlimit="10" cx="474.072" cy="216.626" r="17"/>
	<path fill="#F9A254" d="M457.18,213.562c2.465-9.058,11.803-14.405,20.867-11.927c9.057,2.459,14.4,11.801,11.936,20.862
		C487.518,231.553,488.604,199.271,457.18,213.562z"/>
	<path fill="#F9A254" d="M445.254,183.717c1.443-9.275,10.133-15.627,19.406-14.188c9.283,1.437,15.637,10.132,14.193,19.412
		C477.41,198.216,474.895,166.017,445.254,183.717z"/>
	<g>
		<circle fill="#F2DCBC" stroke="#272727" stroke-width="2" stroke-miterlimit="10" cx="477.592" cy="287.287" r="17.003"/>
		<circle fill="#F2DCBC" stroke="#272727" stroke-width="2" stroke-miterlimit="10" cx="466.008" cy="319.646" r="17"/>
		<circle fill="#F2DCBC" stroke="#272727" stroke-width="2" stroke-miterlimit="10" cx="451.705" cy="351.881" r="17"/>
		<circle fill="#F2DCBC" stroke="#272727" stroke-width="2" stroke-miterlimit="10" cx="436.756" cy="383.795" r="17"/>
		<circle fill="#F2DCBC" stroke="#272727" stroke-width="2" stroke-miterlimit="10" cx="417.518" cy="413.465" r="17"/>
		<circle fill="#F2DCBC" stroke="#272727" stroke-width="2" stroke-miterlimit="10" cx="396.021" cy="440.372" r="17"/>
	</g>
	<path fill="#F2DCBC" stroke="#272727" stroke-width="2" stroke-miterlimit="10" d="M477.449,236.313
		c9.389,0,16.998,7.611,16.998,17.002c0,9.388-7.609,16.998-16.998,16.998c-9.391,0-17.002-7.61-17.002-16.998
		C460.447,243.924,468.061,236.313,477.449,236.313z"/>
	<path fill="#F9A254" d="M448.471,311.887c4.723-8.115,15.127-10.858,23.242-6.135c8.115,4.723,10.859,15.131,6.135,23.243
		C473.129,337.108,482.523,306.211,448.471,311.887z"/>
	<path fill="#F9A254" d="M458.115,248.789c3.078-8.87,12.77-13.558,21.637-10.476c8.863,3.085,13.563,12.771,10.475,21.641
		C487.143,268.832,490.447,236.697,458.115,248.789z"/>
	<path fill="#F9A254" d="M408.318,399.53c8.17-4.628,18.545-1.769,23.176,6.399c4.631,8.164,1.768,18.545-6.398,23.18
		C416.924,433.74,440.602,411.766,408.318,399.53z"/>
	<path fill="#F9A254" d="M391.328,423.066c9.363-0.628,17.469,6.459,18.094,15.836c0.623,9.367-6.473,17.461-15.834,18.086
		C384.217,457.608,415.094,448.108,391.328,423.066z"/>
	<path fill="#F9A254" d="M420.623,373.731c5.4-7.679,16-9.524,23.682-4.115c7.678,5.397,9.525,16.003,4.117,23.681
		C443.021,400.978,455.035,370.996,420.623,373.731z"/>
	<path fill="#F9A254" d="M438.969,343.603c4.727-8.115,15.129-10.859,23.244-6.138c8.117,4.729,10.861,15.133,6.135,23.246
		C463.627,368.824,473.025,337.924,438.969,343.603z"/>
	<circle fill="#F2DCBC" stroke="#272727" stroke-width="2" stroke-miterlimit="10" cx="190.557" cy="33.817" r="17"/>
	<path fill="#F9A254" d="M173.561,36.524c0.107-9.391,7.804-16.913,17.192-16.811c9.383,0.112,16.908,7.807,16.797,17.197
		C207.451,46.301,200.377,14.784,173.561,36.524z"/>
	<circle fill="#F2DCBC" stroke="#272727" stroke-width="2" stroke-miterlimit="10" cx="155.394" cy="44.818" r="17"/>
	<path fill="#F9A254" d="M138.398,45.609c0.107-9.391,7.804-16.91,17.192-16.811c9.383,0.113,16.908,7.81,16.797,17.2
		C172.289,55.386,165.214,23.869,138.398,45.609z"/>
	<circle fill="#F2DCBC" stroke="#272727" stroke-width="2" stroke-miterlimit="10" cx="125.078" cy="63.028" r="17"/>
	<path fill="#F9A254" d="M106.86,66.105c0.107-9.394,7.804-16.91,17.192-16.808c9.383,0.113,16.91,7.807,16.8,17.197
		C140.753,75.885,133.673,44.369,106.86,66.105z"/>
	<circle fill="#F2DCBC" stroke="#272727" stroke-width="2" stroke-miterlimit="10" cx="44.347" cy="333.945" r="17"/>
	<path fill="#F9A254" d="M32.766,347.92c-6.618-6.662-6.585-17.424,0.075-24.041c6.66-6.617,17.423-6.589,24.04,0.072
		C22.497,327.047,39.383,354.577,32.766,347.92z"/>
	<path fill="#F2DCBC" stroke="#272727" stroke-width="2" stroke-miterlimit="10" d="M29.018,144.793
		c9.388,0,16.999,7.611,16.999,17.001c0,9.388-7.611,16.999-16.999,16.999c-9.391,0-17.001-7.611-17.001-16.999
		C12.017,152.404,19.627,144.793,29.018,144.793z"/>
	<path fill="#F9A254" d="M10.414,164.659c-0.765-9.358,6.199-17.565,15.56-18.33c9.358-0.768,17.563,6.201,18.325,15.563
		C45.061,171.244,35.101,140.522,10.414,164.659z"/>
	<circle fill="#F2DCBC" stroke="#272727" stroke-width="2" stroke-miterlimit="10" cx="34.489" cy="299.985" r="17"/>
	<path fill="#F9A254" d="M19.689,307.092c-3.815-8.58,0.059-18.623,8.639-22.438c8.577-3.811,18.623,0.059,22.429,8.643
		C17.528,283.932,23.498,315.68,19.689,307.092z"/>
	<g>
		<circle fill="#F2DCBC" stroke="#272727" stroke-width="2" stroke-miterlimit="10" cx="59.19" cy="364.229" r="17.003"/>
		<circle fill="#F2DCBC" stroke="#272727" stroke-width="2" stroke-miterlimit="10" cx="81.778" cy="390.136" r="17.003"/>
		<circle fill="#F2DCBC" stroke="#272727" stroke-width="2" stroke-miterlimit="10" cx="106.852" cy="414.93" r="17"/>
		<circle fill="#F2DCBC" stroke="#272727" stroke-width="2" stroke-miterlimit="10" cx="132.409" cy="439.199" r="17"/>
		<circle fill="#F2DCBC" stroke="#272727" stroke-width="2" stroke-miterlimit="10" cx="161.142" cy="459.812" r="17"/>
		<circle fill="#F2DCBC" stroke="#272727" stroke-width="2" stroke-miterlimit="10" cx="190.976" cy="477.022" r="17.003"/>
	</g>
	<circle fill="#F2DCBC" stroke="#272727" stroke-width="2" stroke-miterlimit="10" cx="362.021" cy="454.512" r="17"/>
	<circle fill="#F2DCBC" stroke="#272727" stroke-width="2" stroke-miterlimit="10" cx="328.957" cy="464.176" r="17"/>
	<circle fill="#F2DCBC" stroke="#272727" stroke-width="2" stroke-miterlimit="10" cx="224.853" cy="479.757" r="17.003"/>
	<circle fill="#F2DCBC" stroke="#272727" stroke-width="2" stroke-miterlimit="10" cx="258.857" cy="475.489" r="17"/>
	<circle fill="#F2DCBC" stroke="#272727" stroke-width="2" stroke-miterlimit="10" cx="293.838" cy="472.927" r="16.999"/>
	<path fill="#F9A254" d="M104.511,429.894c-9.243-1.656-15.391-10.494-13.731-19.737c1.656-9.243,10.491-15.386,19.734-13.729
		C84.124,418.69,113.751,431.551,104.511,429.894z"/>
	<path fill="#F9A254" d="M132.073,455.389c-9.366-0.563-16.515-8.612-15.954-17.984c0.563-9.377,8.617-16.516,17.989-15.954
		C110.514,446.655,141.451,455.95,132.073,455.389z"/>
	<path fill="#F9A254" d="M72.138,404.105c-7.166-6.064-8.054-16.79-1.987-23.952c6.07-7.173,16.79-8.06,23.957-1.992
		C60.113,384.193,79.303,410.174,72.138,404.105z"/>
	<path fill="#F9A254" d="M47.297,376.907c-6.618-6.66-6.585-17.423,0.078-24.04c6.661-6.617,17.423-6.588,24.041,0.075
		C37.031,356.038,53.915,383.565,47.297,376.907z"/>
	<path fill="#F9A254" d="M168.568,474.495c-8.723,3.478-18.61-0.776-22.089-9.501c-3.477-8.717,0.776-18.605,9.495-22.083
		C145.341,475.754,177.29,471.01,168.568,474.495z"/>
	<path fill="#F9A254" d="M200.168,490.309c-8.204,4.57-18.556,1.634-23.13-6.576c-4.569-8.193-1.63-18.549,6.569-23.122
		C177.298,494.553,208.369,485.732,200.168,490.309z"/>
	<path fill="#F9A254" d="M240.963,485.866c-4.935,7.987-15.407,10.472-23.399,5.536c-7.987-4.936-10.467-15.398-5.539-23.391
		C223.064,500.725,245.894,477.877,240.963,485.866z"/>
	<path fill="#F9A254" d="M365.096,439.391c8.061,2.41,15.598,2.574,12.475,17.24c-2.424,11.409-10.146,14.869-21.082,11.604
		C379.904,449.001,354.15,436.124,365.096,439.391z"/>
	<path fill="#F9A254" d="M335.424,450.497c7.502,3.81,14.893,5.313,9.203,19.185c-4.424,10.801-12.631,12.828-22.813,7.662
		C348.283,462.592,325.236,445.327,335.424,450.497z"/>
	<path fill="#F9A254" d="M274.504,479.801c-2.896,8.933-12.477,13.832-21.412,10.94c-8.929-2.899-13.826-12.474-10.94-21.407
		C260.648,498.484,277.391,470.868,274.504,479.801z"/>
	<path fill="#F9A254" d="M309.107,465.249c3.848,8.563,0.037,18.62-8.529,22.483c-8.555,3.85-18.615,0.04-22.477-8.521
		C311.381,488.393,305.244,456.688,309.107,465.249z"/>
	<g>
		<circle fill="none" stroke="#272727" stroke-width="2" stroke-miterlimit="10" cx="59.19" cy="364.229" r="17.003"/>
		<circle fill="none" stroke="#272727" stroke-width="2" stroke-miterlimit="10" cx="81.778" cy="390.136" r="17.003"/>
		<circle fill="none" stroke="#272727" stroke-width="2" stroke-miterlimit="10" cx="106.852" cy="414.93" r="17"/>
		<circle fill="none" stroke="#272727" stroke-width="2" stroke-miterlimit="10" cx="132.409" cy="439.199" r="17"/>
		<circle fill="none" stroke="#272727" stroke-width="2" stroke-miterlimit="10" cx="161.142" cy="459.812" r="17"/>
		<circle fill="none" stroke="#272727" stroke-width="2" stroke-miterlimit="10" cx="190.976" cy="477.022" r="17.003"/>
	</g>
	<circle fill="none" stroke="#272727" stroke-width="2" stroke-miterlimit="10" cx="362.021" cy="454.512" r="17"/>
	<circle fill="none" stroke="#272727" stroke-width="2" stroke-miterlimit="10" cx="328.957" cy="464.176" r="17"/>
	<circle fill="none" stroke="#272727" stroke-width="2" stroke-miterlimit="10" cx="224.853" cy="479.757" r="17.003"/>
	<circle fill="none" stroke="#272727" stroke-width="2" stroke-miterlimit="10" cx="258.855" cy="475.489" r="17"/>
	<circle fill="none" stroke="#272727" stroke-width="2" stroke-miterlimit="10" cx="293.838" cy="472.927" r="16.999"/>
	<circle fill="#F2DCBC" stroke="#272727" stroke-width="2" stroke-miterlimit="10" cx="23.235" cy="195.796" r="17.003"/>
	<circle fill="#F2DCBC" stroke="#272727" stroke-width="2" stroke-miterlimit="10" cx="24.991" cy="230.126" r="17.003"/>
	<circle fill="#F2DCBC" stroke="#272727" stroke-width="2" stroke-miterlimit="10" cx="29.386" cy="265.112" r="17"/>
	<path fill="#F9A254" d="M14.083,272.445c-3.812-8.58,0.059-18.626,8.636-22.438c8.58-3.81,18.623,0.056,22.433,8.639
		C11.922,249.285,17.893,281.033,14.083,272.445z"/>
	<path fill="#F9A254" d="M8.773,235.153c-1.887-9.197,4.043-18.183,13.238-20.062c9.203-1.89,18.18,4.035,20.067,13.232
		C11.624,212.069,10.661,244.351,8.773,235.153z"/>
	<path fill="#F9A254" d="M5.415,197.693c0.349-9.385,8.242-16.709,17.627-16.352c9.38,0.357,16.698,8.245,16.349,17.625
		C13.665,175.942,5.061,207.075,5.415,197.693z"/>
	<circle fill="none" stroke="#272727" stroke-width="2" stroke-miterlimit="10" cx="23.235" cy="195.796" r="17.003"/>
	<circle fill="none" stroke="#272727" stroke-width="2" stroke-miterlimit="10" cx="24.991" cy="230.126" r="17.003"/>
	<circle fill="none" stroke="#272727" stroke-width="2" stroke-miterlimit="10" cx="29.386" cy="265.112" r="17"/>
	<circle fill="none" stroke="#272727" stroke-width="2" stroke-miterlimit="10" cx="34.489" cy="299.985" r="17"/>
	<circle fill="none" stroke="#272727" stroke-width="2" stroke-miterlimit="10" cx="44.347" cy="333.945" r="17"/>
	<path fill="none" stroke="#272727" stroke-width="2" stroke-miterlimit="10" d="M29.018,144.793
		c9.388,0,16.999,7.611,16.999,17.001c0,9.388-7.611,16.999-16.999,16.999c-9.391,0-17.001-7.611-17.001-16.999
		C12.017,152.404,19.627,144.793,29.018,144.793z"/>
	<path fill="#F9A254" d="M462.836,279.369c5.434-7.656,16.043-9.455,23.701-4.027c7.658,5.435,9.461,16.043,4.021,23.703
		C485.129,306.7,497.26,276.772,462.836,279.369z"/>
	<g>
		<circle fill="none" stroke="#272727" stroke-width="2" stroke-miterlimit="10" cx="477.592" cy="287.287" r="17.003"/>
		<circle fill="none" stroke="#272727" stroke-width="2" stroke-miterlimit="10" cx="466.008" cy="319.646" r="17"/>
		<circle fill="none" stroke="#272727" stroke-width="2" stroke-miterlimit="10" cx="451.705" cy="351.881" r="17"/>
		<circle fill="none" stroke="#272727" stroke-width="2" stroke-miterlimit="10" cx="436.756" cy="383.795" r="17"/>
		<circle fill="none" stroke="#272727" stroke-width="2" stroke-miterlimit="10" cx="417.518" cy="413.465" r="17"/>
		<circle fill="none" stroke="#272727" stroke-width="2" stroke-miterlimit="10" cx="396.021" cy="440.372" r="17"/>
	</g>
	<circle fill="#F2DCBC" stroke="#272727" stroke-width="2" stroke-miterlimit="10" cx="411.969" cy="91.43" r="17.003"/>
	<circle fill="#F2DCBC" stroke="#272727" stroke-width="2" stroke-miterlimit="10" cx="430.258" cy="120.534" r="17.003"/>
	<circle fill="#F2DCBC" stroke="#272727" stroke-width="2" stroke-miterlimit="10" cx="446.768" cy="151.691" r="17.003"/>
	<path fill="#F9A254" d="M428.539,149.33c1.318-9.297,9.922-15.764,19.221-14.443c9.291,1.321,15.758,9.925,14.438,19.224
		C460.885,163.408,457.938,131.241,428.539,149.33z"/>
	<path fill="#F9A254" d="M412.66,123.051c-0.516-9.375,6.658-17.388,16.037-17.904c9.375-0.521,17.391,6.658,17.912,16.035
		C447.119,130.557,437.977,99.582,412.66,123.051z"/>
	<path fill="#F9A254" d="M396.943,98.752c-2.814-8.956,2.164-18.494,11.125-21.313c8.959-2.816,18.498,2.166,21.311,11.127
		C432.193,97.526,415.688,69.762,396.943,98.752z"/>
	<circle fill="none" stroke="#272727" stroke-width="2" stroke-miterlimit="10" cx="411.969" cy="91.43" r="17.003"/>
	<circle fill="none" stroke="#272727" stroke-width="2" stroke-miterlimit="10" cx="430.258" cy="120.534" r="17.003"/>
	<circle fill="none" stroke="#272727" stroke-width="2" stroke-miterlimit="10" cx="446.768" cy="151.691" r="17.003"/>
	<circle fill="none" stroke="#272727" stroke-width="2" stroke-miterlimit="10" cx="462.629" cy="183.165" r="17"/>
	<circle fill="none" stroke="#272727" stroke-width="2" stroke-miterlimit="10" cx="474.072" cy="216.626" r="17"/>
	<path fill="none" stroke="#272727" stroke-width="2" stroke-miterlimit="10" d="M477.449,236.313
		c9.389,0,16.998,7.611,16.998,17.002c0,9.388-7.609,16.998-16.998,16.998c-9.391,0-17.002-7.61-17.002-16.998
		C460.447,243.924,468.061,236.313,477.449,236.313z"/>
	<path fill="#F9A254" d="M207.843,29.013c-2.059-9.16,3.699-18.252,12.856-20.314c9.162-2.062,18.258,3.694,20.314,12.856
		C243.07,30.714,228.933,1.681,207.843,29.013z"/>
	<g>
		<circle fill="none" stroke="#272727" stroke-width="2" stroke-miterlimit="10" cx="225.196" cy="23.376" r="17.003"/>
		<circle fill="none" stroke="#272727" stroke-width="2" stroke-miterlimit="10" cx="259.482" cy="25.832" r="17"/>
		<circle fill="none" stroke="#272727" stroke-width="2" stroke-miterlimit="10" cx="294.371" cy="30.944" r="17"/>
		<circle fill="none" stroke="#272727" stroke-width="2" stroke-miterlimit="10" cx="329.135" cy="36.76" r="17.001"/>
		<path fill="none" stroke="#272727" stroke-width="2" stroke-miterlimit="10" d="M362.889,30.314
			c9.389,0,16.998,7.611,16.998,16.999c0,9.391-7.609,17.001-16.998,17.001c-9.393,0-17.002-7.611-17.002-17.001
			C345.887,37.925,353.496,30.314,362.889,30.314z"/>
		<circle fill="none" stroke="#272727" stroke-width="2" stroke-miterlimit="10" cx="394.582" cy="60.786" r="17"/>
	</g>
	<circle fill="#F2DCBC" stroke="#272727" stroke-width="2" stroke-miterlimit="10" cx="46.022" cy="131.816" r="17.001"/>
	<circle fill="#F2DCBC" stroke="#272727" stroke-width="2" stroke-miterlimit="10" cx="70.64" cy="107.825" r="17.003"/>
	<circle fill="#F2DCBC" stroke="#272727" stroke-width="2" stroke-miterlimit="10" cx="97.638" cy="85.14" r="17.003"/>
	<path fill="#F9A254" d="M81.789,86.084c0.11-9.393,7.804-16.913,17.195-16.811c9.38,0.113,16.907,7.807,16.797,17.195
		C115.682,95.861,108.605,64.344,81.789,86.084z"/>
	<path fill="#F9A254" d="M54.548,111.188c-1.283-9.302,5.213-17.874,14.521-19.154c9.302-1.289,17.877,5.213,19.163,14.515
		C89.507,115.854,77.861,85.728,54.548,111.188z"/>
	<path fill="#F9A254" d="M28.983,134.009c-0.762-9.358,6.199-17.56,15.56-18.328s17.565,6.199,18.328,15.563
		C63.633,140.6,53.67,109.874,28.983,134.009z"/>
	<circle fill="none" stroke="#272727" stroke-width="2" stroke-miterlimit="10" cx="46.022" cy="131.816" r="17.001"/>
	<circle fill="none" stroke="#272727" stroke-width="2" stroke-miterlimit="10" cx="70.64" cy="107.825" r="17.003"/>
	<circle fill="none" stroke="#272727" stroke-width="2" stroke-miterlimit="10" cx="97.638" cy="85.14" r="17.003"/>
	<circle fill="none" stroke="#272727" stroke-width="2" stroke-miterlimit="10" cx="125.078" cy="63.028" r="17"/>
	<circle fill="none" stroke="#272727" stroke-width="2" stroke-miterlimit="10" cx="155.394" cy="44.818" r="17"/>
	<circle fill="none" stroke="#272727" stroke-width="2" stroke-miterlimit="10" cx="190.557" cy="33.817" r="17"/>
</g>
</svg>
