<?xml version="1.0" encoding="utf-8"?>
<!-- Generator: Adobe Illustrator 15.0.0, SVG Export Plug-In . SVG Version: 6.00 Build 0)  -->
<!DOCTYPE svg PUBLIC "-//W3C//DTD SVG 1.1//EN" "http://www.w3.org/Graphics/SVG/1.1/DTD/svg11.dtd">
<svg version="1.1" id="Layer_1" xmlns="http://www.w3.org/2000/svg" xmlns:xlink="http://www.w3.org/1999/xlink" x="0px" y="0px"
	 width="500px" height="500px" viewBox="0 0 500 500" enable-background="new 0 0 500 500" xml:space="preserve">
<path fill="#346733" stroke="#272727" stroke-width="2" stroke-miterlimit="10" d="M442.861,268c-4.008-0.045-8.015-0.334-12-0.067
	c-3.616,0.241-5.124-1.44-5.769-4.659c-2.902-14.48-8.465-27.988-15.1-41.111c-11.445-22.687-27.591-41.635-47.156-57.521
	c-11.469-9.328-24.148-17.09-37.877-22.882c-3.465-1.446-5.731-3.329-7.207-7.313C302.827,94.014,259.966,78.1,222.886,94.44
	c-17.654,7.763-29.988,21.339-36.448,39.69c-1.313,3.68-3.282,5.804-6.714,7.29c-21.869,9.483-40.824,23.188-57.119,40.461
	c-16.283,17.244-28.731,36.93-36.953,59.323c-2.626,7.214-5.067,14.417-6.691,21.88c-0.76,3.473-2.153,5.344-5.919,4.796
	c-0.955-0.146-2.026-0.168-2.821,0.651c-23.896,0.639-39.729-9.595-48.712-31.646c-7.22-17.734-9.281-36.447-9.996-55.322
	c-1.151-30.247-0.783-60.435,6.541-90.042c3.536-14.234,8.879-27.712,20.13-37.87c10.054-9.075,22.249-12.34,35.515-12.559
	c20.763-0.357,40.651,4.82,60.562,9.743c27.35,6.759,54.551,14.025,82.569,17.797c32.82,4.417,65.214,1.946,97.47-4.56
	c27.315-5.505,53.998-13.664,81.291-19.227c15.754-3.201,31.635-5.631,47.662-2.331c9.202,1.888,17.01,6.108,24,13.082
	c14.993,14.896,19.268,33.983,22.11,53.398c4.905,33.339,4.976,66.867,0.401,100.297c-1.61,11.931-4.674,23.55-10.442,34.278
	C471.513,258.16,459.593,266.693,442.861,268z"/>
<path fill="#356733" stroke="#272727" stroke-width="2" stroke-miterlimit="10" d="M356.538,251.89
	c-22.859-6.022-45.74-11.913-69.222-15.171c-34.179-4.762-67.908-2.091-101.338,5.59c-12.667,2.908-25.22,6.288-37.83,9.455
	c-2.476-0.379-1.647-1.825-1.14-3.311c6.967-20.25,18.402-37.542,34.202-51.954c2.084-1.871,4.491-3.432,6.875-4.923
	c2.718-1.698,3.063,1.313,3.8,2.482c5.551,8.902,12.657,16.248,21.282,22.145c22.341,15.293,53.847,15.598,76.417,0.915
	c8.811-5.723,16.065-12.868,21.361-21.938c2.004-3.432,3.857-5.056,7.865-1.848c14.051,11.245,24.736,25.059,32.566,41.152
	c1.959,4.013,3.561,8.216,5.057,12.437C356.952,248.435,358.716,250.208,356.538,251.89z"/>
<g id="Layer_2">
	<path fill="#044422" d="M434.615,267.421c-3.823-0.021-7.649-0.159-11.452-0.033c-3.447,0.114-4.888-0.687-5.505-2.224
		c-2.769-6.914-8.073-13.362-14.405-19.627c-10.922-10.832-26.326-19.878-44.998-27.462c-10.939-4.454-23.041-8.159-36.141-10.924
		c-3.307-0.691-5.471-1.589-6.88-3.491c-14.239-19.304-55.14-26.903-90.52-19.101c-16.846,3.706-28.614,10.188-34.778,18.948
		c-1.253,1.757-3.133,2.771-6.407,3.481c-20.867,4.528-38.954,11.07-54.502,19.317c-15.538,8.233-27.416,17.632-35.262,28.322
		c-2.506,3.443-4.835,6.885-6.385,10.445c-0.725,1.658-2.055,2.551-5.647,2.291c-0.912-0.068-1.935-0.08-2.692,0.312
		c-22.801,0.304-37.91-4.581-46.481-15.108c-6.889-8.468-8.856-17.402-9.538-26.413c-1.099-14.44-0.747-28.853,6.241-42.988
		c3.374-6.796,8.472-13.23,19.208-18.08c9.593-4.333,21.229-5.892,33.888-5.996c19.812-0.17,38.789,2.301,57.788,4.651
		c26.097,3.228,52.052,6.696,78.787,8.498c31.318,2.108,62.227,0.929,93.005-2.177c26.063-2.629,51.526-6.524,77.567-9.18
		c15.032-1.528,30.188-2.688,45.479-1.113c8.78,0.901,16.229,2.917,22.899,6.246c14.308,7.112,18.387,16.225,21.099,25.494
		c4.68,15.917,4.747,31.924,0.384,47.885c-1.535,5.696-4.458,11.244-9.964,16.365C461.954,262.723,450.581,266.797,434.615,267.421z
		"/>
	<path fill="#044422" stroke="#272727" stroke-width="2" stroke-miterlimit="10" d="M356.538,251.89
		c-22.859-6.023-45.74-11.914-69.222-15.172c-34.179-4.762-67.908-2.091-101.338,5.59c-12.668,2.908-25.221,6.288-37.83,9.455
		c-2.476-0.379-1.647-1.825-1.14-3.311c6.967-20.251,18.401-37.542,34.202-51.954c2.084-1.871,4.49-3.432,6.875-4.923
		c2.718-1.699,3.063,1.313,3.8,2.481c5.551,8.904,12.657,16.25,21.282,22.147c22.341,15.293,53.847,15.597,76.417,0.915
		c8.811-5.723,16.065-12.868,21.361-21.938c2.004-3.433,3.857-5.056,7.865-1.849c14.051,11.245,24.736,25.06,32.566,41.152
		c1.959,4.014,3.561,8.217,5.057,12.438C356.952,248.435,358.716,250.208,356.538,251.89z"/>
</g>
<g id="Layer_3">
	<path fill="#62A861" stroke="#272727" stroke-width="2" stroke-miterlimit="10" d="M442.861,268
		c-4.043,1.556-8.233,0.83-12.356,0.687c-3.375-0.114-3.847,0.997-3.316,4.089c6.668,39.026,1.566,76.377-16.467,111.756
		c-12.403,24.32-29.526,44.813-51.315,61.189c-36.771,27.631-78.41,39.037-124.048,35.277c-24.712-2.033-48.066-9.34-69.659-21.655
		c-37.841-21.563-65.11-52.368-80.461-93.302c-11.147-29.653-13.888-60.232-8.855-91.493c0.886-5.574,1.013-5.556-6.127-6.017
		c0.795-0.836,1.844-0.813,2.81-0.658c3.766,0.555,5.171-1.328,5.919-4.795c1.624-7.463,4.065-14.666,6.69-21.88
		c8.223-22.392,20.683-42.079,36.955-59.324c16.307-17.285,35.25-30.977,57.119-40.46c3.432-1.485,5.412-3.61,6.714-7.289
		c6.46-18.351,18.794-31.928,36.447-39.69c37.093-16.34,79.942-0.426,94.879,40.006c1.474,3.985,3.729,5.862,7.208,7.313
		c13.715,5.781,26.395,13.554,37.876,22.882c19.565,15.887,35.699,34.835,47.157,57.521c6.634,13.123,12.173,26.631,15.086,41.113
		c0.646,3.217,2.152,4.896,5.78,4.656C434.847,267.673,438.865,267.955,442.861,268z M148.136,251.763
		c-4.813,3.737-4.353,9.461-5.124,14.532c-6.875,45.604,5.896,84.764,41.675,114.146c33.938,27.844,72.745,32.762,112.567,14.061
		c51.971-24.42,75.819-82.321,61.979-138.075c-0.438-1.79-0.936-3.536-2.696-4.543c2.177-1.675,0.414-3.454-0.114-4.945
		c-1.498-4.232-3.099-8.437-5.055-12.438c-7.833-16.087-18.529-29.895-32.566-41.146c-4.008-3.225-5.861-1.601-7.865,1.843
		c-5.299,9.068-12.553,16.214-21.363,21.937c-22.57,14.672-54.076,14.378-76.418-0.909c-8.636-5.903-15.73-13.25-21.281-22.151
		c-0.737-1.169-1.082-4.181-3.8-2.482c-2.395,1.492-4.791,3.052-6.875,4.923c-15.8,14.4-27.235,31.703-34.202,51.954
		C146.49,249.944,145.661,251.384,148.136,251.763z"/>
</g>
<g id="Layer_5">
	<path fill="#468445" d="M414.569,347.523c0,74.102-71.857,134.172-160.5,134.172c-88.641,0-160.499-60.07-160.499-134.172
		c0-74.101-18.084,90.021,158.458,88.021C428.569,433.545,414.569,273.423,414.569,347.523z"/>
</g>
<g id="Layer_4">
	<path fill="none" stroke="#272727" stroke-width="2" stroke-miterlimit="10" d="M442.861,268.349
		c-4.043,1.556-8.233,0.831-12.356,0.687c-3.375-0.114-3.847,0.998-3.316,4.088c6.668,39.027,1.566,76.379-16.467,111.757
		c-12.403,24.321-29.526,44.813-51.315,61.19c-36.771,27.631-78.41,39.037-124.048,35.277c-24.713-2.033-48.066-9.342-69.658-21.656
		c-37.841-21.564-65.111-52.367-80.461-93.302c-11.147-29.653-13.888-60.231-8.855-91.493c0.886-5.574,1.013-5.556-6.127-6.017
		c0.795-0.835,1.844-0.812,2.81-0.657c3.766,0.555,5.171-1.329,5.919-4.795c1.624-7.464,4.065-14.666,6.69-21.882
		c8.223-22.392,20.683-42.078,36.955-59.324c16.307-17.285,35.25-30.977,57.119-40.46c3.432-1.485,5.412-3.61,6.715-7.289
		c6.459-18.351,18.793-31.928,36.446-39.69c37.092-16.34,79.942-0.426,94.879,40.006c1.475,3.985,3.729,5.862,7.208,7.313
		c13.716,5.781,26.394,13.554,37.876,22.882c19.565,15.887,35.699,34.835,47.157,57.521c6.634,13.123,12.173,26.631,15.086,41.112
		c0.646,3.217,2.153,4.897,5.78,4.656C434.847,268.023,438.865,268.305,442.861,268.349z M148.136,252.113
		c-4.813,3.736-4.353,9.461-5.124,14.531c-6.875,45.604,5.896,84.764,41.675,114.146c33.938,27.844,72.745,32.763,112.567,14.061
		c51.971-24.42,75.819-82.32,61.979-138.074c-0.438-1.791-0.936-3.535-2.696-4.543c2.177-1.677,0.414-3.456-0.114-4.946
		c-1.498-4.232-3.099-8.436-5.055-12.438c-7.833-16.088-18.529-29.896-32.566-41.146c-4.008-3.225-5.861-1.601-7.865,1.843
		c-5.299,9.068-12.553,16.213-21.363,21.937c-22.57,14.671-54.076,14.378-76.418-0.909c-8.636-5.903-15.73-13.25-21.281-22.152
		c-0.737-1.169-1.082-4.181-3.8-2.482c-2.395,1.492-4.791,3.052-6.875,4.923c-15.801,14.4-27.235,31.703-34.202,51.954
		C146.49,250.293,145.661,251.734,148.136,252.113z"/>
</g>
</svg>
