<?xml version="1.0" encoding="utf-8"?>
<!-- Generator: Adobe Illustrator 15.0.0, SVG Export Plug-In . SVG Version: 6.00 Build 0)  -->
<!DOCTYPE svg PUBLIC "-//W3C//DTD SVG 1.1//EN" "http://www.w3.org/Graphics/SVG/1.1/DTD/svg11.dtd">
<svg version="1.1" id="Layer_1" xmlns="http://www.w3.org/2000/svg" xmlns:xlink="http://www.w3.org/1999/xlink" x="0px" y="0px"
	 width="500px" height="500px" viewBox="0 0 500 500" enable-background="new 0 0 500 500" xml:space="preserve">
<circle fill="#DBBCA7" cx="250" cy="249.061" r="246.688"/>
<g>
	<g id="scarf">
		<path fill="#6B4328" stroke="#282828" stroke-width="2" stroke-miterlimit="10" d="M213.26,200.72
			c-46.739-0.545-92.102-2.654-122.158-38.637c-5.64-6.753,12.993-13.102,7.974-21.302c-6.109-9.972-8.174-20.425-3.051-24.787
			c9.052-3.459,18.843-0.216,21.633,0.333c26.12,5.145,34.989,5.554,67.729,9.429c27.661,3.656,43.749,5.056,66.309,5.052
			c2.927,0,4.684,0.952,6.1,3.471c4.852,8.641,6.938,18.113,8.368,27.734c1.433,9.642,1.879,19.376,2.052,29.13
			c0.059,3.194-0.761,4.531-3.958,4.829C247.276,197.559,230.45,200.829,213.26,200.72z"/>
		<path fill="#6B4328" stroke="#282828" stroke-width="2" stroke-miterlimit="10" d="M384.826,170.152
			c-7.728,3.484-15.656,6.305-23.742,8.772c-3.207,0.978-4.097,0.12-4.127-3.218c-0.119-12.698-0.119-25.408-2.394-37.99
			c-1.21-6.699-3.001-13.18-5.982-19.316c-2.968-6.108-5.299-0.425-11.54-3.981c18.004,4.585,32.69-0.173,43.294-6.452
			c5.356-3.174,10.848-4.046,16.192-0.063c5.26,3.919,4.42,14.255,3.419,20.684C399.334,132.51,431.645,157.57,384.826,170.152z"/>
		<path fill="#6B4328" stroke="#282828" stroke-width="2" stroke-miterlimit="10" d="M244.251,130.303
			c-6.596-0.295-13.188-0.621-20.338-0.96c3.939-7.534,10.938-9.018,17.623-10.027c15.737-2.375,51.655-1.759,47.654-3.74
			c19.839-10.331,36.758-15.009,52.095-9.177c11.625,4.42,14.849,7.891,19.575,21.005c3.482,9.658,5.21,19.723,5.854,29.851
			c1.125,17.647,2.174,35.346,2.051,53.014c-0.119,17.039-1.922,34.072-2.74,51.107c-0.653,13.483-1.207,27.14,1.082,40.604
			c0.69,4.055,2.87,7.568,5.12,11.022c11.045,16.946,22.192,33.851,28.442,53.347c4.166,12.976,2.522,18.759-8.076,27.127
			c-28.2,22.281-60.242,32.251-96.074,29.088c-12.183-1.071-24.221-3.592-34.938-10.067c-11.873-7.174-15.532-15.045-13.089-28.635
			c5.458-30.386,10.777-60.801,14.846-91.402c1.967-14.771,3.56-29.596,4.614-44.498c1.322-18.69,1.75-37.358,0.754-56.03
			c-0.969-18.182-2.998-36.292-11.282-52.901c-2.325-4.667-4.49-10.19-11.16-10.599
			C246.265,128.425,245.535,130.363,244.251,130.303z"/>
		<path fill="#6B4328" stroke="#282828" stroke-width="2" stroke-miterlimit="10" d="M296.021,119.837"/>
		<path fill="#6B4328" stroke="#282828" stroke-width="2" stroke-miterlimit="10" d="M296.021,119.837"/>
		<path fill="#6B4328" stroke="#282828" stroke-width="2" stroke-miterlimit="10" d="M251.695,130.808"/>
	</g>
	<g id="scarf_shadows">
		<path fill="#473529" d="M263.632,117.909c0,0,13.334,1.161,24.408,9.379c16.582,12.31,7.711,19.346,21.036,27.392
			c0,0-6.847-15.77-3.925-25.437c2.923-9.661,2.591-13.258-1.516-17.229c-4.103-3.977-16.082,4.449-16.082,4.449L263.632,117.909z"
			/>
		<path fill="#473529" d="M268.217,350.955c0,0-10.673,44.913,13.225,48.79c23.903,3.878,47.257,7.314,58.252,3.398
			C339.696,403.146,266.202,397.771,268.217,350.955z"/>
		<path fill="#473529" d="M94.442,125.73c0,0,9.629,20.536,61.17,28.948c-3.266,2.895-8.02,0.979-16.081-0.195
			c-5.834-0.849-14.779-4.566-25.709-3.336c-10.849,1.219-14.545,2.035-13.313-5.363C101.974,137.005,91.028,131.271,94.442,125.73z
			"/>
		<path fill="#473529" d="M400.262,116.187c0,0-9.333,17.087-31.647,28.25c0,0-2.419,6.841,21.409,0.489
			c10.566-2.819,14.729-4.393,11.238-11.029C397.118,126.02,405.102,127.644,400.262,116.187z"/>
	</g>
	<g id="scarf_outline">
		<path fill="none" stroke="#282828" stroke-width="2" stroke-miterlimit="10" d="M212.988,200.146
			c-46.736-0.546-92.102-2.651-122.158-38.634c-5.638-6.753,12.994-13.102,7.972-21.304c-6.106-9.971-8.172-20.423-3.049-24.788
			c9.052-3.455,18.841-0.212,21.632,0.336c26.118,5.143,34.99,5.553,67.729,9.429c27.663,3.656,43.75,5.056,66.31,5.051
			c0,0,2.851,2.742,4.266,5.263c4.852,8.641,8.773,16.321,10.199,25.94c1.434,9.645,1.88,19.375,2.056,29.129
			c0.058,3.198-0.763,4.534-3.958,4.831C247.005,196.987,230.176,200.253,212.988,200.146z"/>
		<path fill="none" stroke="#282828" stroke-width="2" stroke-miterlimit="10" d="M384.558,169.582
			c-7.73,3.481-8.873,4.126-16.96,6.596c-0.871-14.914-1.152-45.369-11.901-60.115c3.686-0.444,13.762-2.388,24.364-8.668
			c5.356-3.174,10.848-4.049,16.197-0.061c5.255,3.918,4.419,14.254,3.417,20.684C399.066,131.935,431.374,156.999,384.558,169.582z
			"/>
		<path fill="none" stroke="#282828" stroke-width="2" stroke-miterlimit="10" d="M243.982,129.729
			c-6.596-0.296-13.191-0.619-20.34-0.96c3.941-7.532,10.941-9.017,17.622-10.025c15.737-2.375,51.658-1.762,47.658-3.74
			c19.836-10.333,36.757-15.012,52.093-9.177c11.624,4.42,14.847,7.889,19.577,21.006c3.481,9.657,5.206,19.719,5.853,29.848
			c1.125,17.647,2.174,35.346,2.051,53.015c-0.119,17.04-1.921,34.072-2.743,51.105c-0.65,13.485-1.206,27.145,1.083,40.61
			c0.693,4.049,2.87,7.565,5.122,11.018c11.046,16.943,22.189,33.851,28.442,53.35c4.162,12.974,2.52,18.754-8.077,27.124
			c-28.195,22.278-60.244,32.252-96.072,29.089c-12.185-1.074-24.22-3.591-34.94-10.066c-11.873-7.175-15.531-15.047-13.088-28.636
			c5.461-30.389,10.776-60.801,14.848-91.404c1.964-14.771,3.557-29.593,4.614-44.497c1.321-18.688,1.748-37.356,0.755-56.029
			c-0.97-18.18-2.998-36.29-11.281-52.902c-2.326-4.663-4.494-10.19-11.161-10.599C245.997,127.851,245.268,129.787,243.982,129.729
			z"/>
		<path fill="none" stroke="#282828" stroke-width="2" stroke-miterlimit="10" d="M295.751,119.266"/>
		<path fill="none" stroke="#282828" stroke-width="2" stroke-miterlimit="10" d="M295.751,119.266"/>
		<path fill="none" stroke="#282828" stroke-width="2" stroke-miterlimit="10" d="M251.427,130.234"/>
	</g>
</g>
</svg>
