<?xml version="1.0" encoding="utf-8"?>
<!-- Generator: Adobe Illustrator 15.0.0, SVG Export Plug-In . SVG Version: 6.00 Build 0)  -->
<!DOCTYPE svg PUBLIC "-//W3C//DTD SVG 1.1//EN" "http://www.w3.org/Graphics/SVG/1.1/DTD/svg11.dtd">
<svg version="1.1" id="Layer_1" xmlns="http://www.w3.org/2000/svg" xmlns:xlink="http://www.w3.org/1999/xlink" x="0px" y="0px"
	 width="500px" height="500px" viewBox="0 0 500 500" enable-background="new 0 0 500 500" xml:space="preserve">
<circle fill="#D9C0ED" cx="250" cy="249.061" r="246.688"/>
<g id="tie">
	<g>
		<polygon fill="#492B68" stroke="#282828" stroke-miterlimit="10" points="227.904,67.194 288.938,67.194 271.768,110.123 
			332.011,339.896 258.621,439.743 183.279,338.028 245.186,108.243 		"/>
		<path fill="#C9AC9D" d="M177.578,32.423"/>
		<g>
			<path fill="#FEFEFE" d="M316.627,277.388c-2.009-7.333-4.221-14.569-5.914-21.892c-0.9-3.935-2.793-3.629-6.16-2.004
				c-36.168,17.36-72.378,34.674-108.615,51.943c-2.526,1.199-4.114,2.621-4.73,5.02c-2.175,8.61-4.417,17.217-6.848,25.78
				c-0.607,2.134-0.398,3.93,1.537,5.282c2.065,1.448,3.679-0.27,5.266-1.042c17.881-8.684,35.738-17.412,53.596-26.134
				c22.513-10.995,45.039-21.974,67.505-33.026C314.105,280.409,316.946,279.979,316.627,277.388z M327.504,317.865
				c-2.192-8.053-4.253-16.078-6.635-24.045c-0.757-2.547-2.932-0.917-4.258-0.272c-39.605,19.318-79.153,38.695-118.771,57.994
				c-2.695,1.316-2.999,2.525-1.374,4.611c3.703,4.773,7.601,9.479,10.719,14.509c2.592,4.178,5.152,4.224,9.652,1.989
				c14.835-7.367,29.877-14.445,44.864-21.606c20.437-9.771,40.922-19.482,61.328-29.295
				C324.89,320.85,327.7,320.438,327.504,317.865z M199.613,279.394c0.021,1.521-0.648,2.661,0.601,3.076
				c1.732,0.581,3.044-0.626,4.39-1.267c31.865-15.203,63.674-30.477,95.611-45.564c3.555-1.681,4.267-3.526,3.412-6.487
				c-1.829-6.387-3.735-12.769-5.148-19.22c-0.815-3.761-1.917-4.675-6.34-2.527c-26.604,12.896-53.358,25.583-80.056,38.339
				c-1.722,0.818-3.612,1.503-4.11,3.321C205.118,259.382,202.284,269.703,199.613,279.394z M332.011,339.896
				c-1.435-1.945-3.129-0.857-4.483-0.218c-8.619,4.063-17.195,8.211-25.78,12.314c-24.984,11.958-49.947,23.956-75.004,35.812
				c-3.637,1.723-4.399,3.336-1.987,6.271c3.242,3.953,6.304,8.026,9.103,12.204c1.803,2.709,3.436,3.043,6.706,1.413
				c20.549-10.24,41.226-20.325,61.876-30.434c1.722-0.842,3.327-1.669,4.434-3.157c7.743-10.443,15.567-20.84,23.341-31.268
				C330.864,341.96,331.346,340.995,332.011,339.896z M212.5,232.006c1.15-0.164,1.723-0.128,2.131-0.324
				c25.641-12.22,51.257-24.473,76.922-36.655c2.193-1.04,2.345-2.213,1.793-4.061c-1.607-5.36-2.932-10.777-4.439-16.157
				c-1.391-4.958-1.744-5.111-6.932-2.64c-19.381,9.231-38.738,18.508-58.101,27.771c-1.377,0.658-3.059,1.08-3.47,2.606
				C217.787,212.27,215.184,221.999,212.5,232.006z M220.843,387.217c1.265-0.575,2.535-1.121,3.779-1.709
				c33.019-15.755,66.029-31.519,99.042-47.282c8.221-3.922,7.927-3.89,6.332-11.69c-0.786-3.854-2.011-3.862-5.687-2.094
				c-34.488,16.609-69.075,33.094-103.63,49.612c-8.129,3.896-8.152,3.919-3.011,10.519
				C218.463,385.594,218.718,387.19,220.843,387.217z M193.221,303.26c2.065-0.948,3.586-1.619,5.089-2.34
				c33.288-15.897,66.566-31.792,99.852-47.694c11.209-5.356,11.209-5.36,7.783-15.58c-0.091-0.266-0.329-0.498-0.533-0.792
				c-0.506,0.086-1.1,0.067-1.531,0.277c-34.683,16.574-69.341,33.17-104.031,49.725c-1.663,0.796-2.897,1.647-3.295,3.283
				C195.535,294.34,194.427,298.521,193.221,303.26z M276.51,128.856c-0.711,0.073-1.125,0.026-1.411,0.161
				c-12.667,5.977-25.324,11.977-37.993,17.958c-1.338,0.63-2.192,1.476-2.525,2.736c-2.177,8.147-4.403,16.291-6.532,24.45
				c-0.208,0.801-0.187,2.015,0.387,2.497c0.775,0.649,1.985,0.031,2.948-0.429c16.065-7.673,32.125-15.346,48.219-22.988
				c1.93-0.917,2.985-2.063,2.457-3.985C280.2,142.448,278.354,135.64,276.51,128.856z M280.295,87.692
				c-0.437-0.254-0.874-0.508-1.312-0.762c-9.987,4.728-19.946,9.492-29.979,14.16c-3.518,1.636-6.661,3.055-3.819,7.152
				c0.708,1.024-0.208,2.893-0.582,4.341c-1.672,6.498-3.429,12.986-5.483,20.739c11.849-5.651,22.276-10.628,32.708-15.587
				c1.396-0.663,1.466-1.637,0.998-2.693c-2.93-6.616,0.88-12.386,3.345-18.313C277.436,93.687,278.912,90.706,280.295,87.692z
				 M221.672,197.421c2.618-1.159,4.025-1.75,5.39-2.403c16.945-8.075,33.884-16.155,50.817-24.248
				c9.047-4.323,8.744-4.277,6.685-12.778c-0.872-3.565-2.257-2.777-4.819-1.544c-17.053,8.218-34.151,16.386-51.25,24.54
				c-1.413,0.681-2.715,1.225-3.103,2.789C224.36,187.963,223.137,192.122,221.672,197.421z M286.775,72.181
				c-0.006-4.11-1.732-4.939-5.732-3.048c-11.673,5.526-23.297,11.126-34.95,16.682c-9.095,4.347-8.953,4.287-5.052,12.105
				c1.399,2.806,2.667,2.516,5.337,1.193c10.466-5.178,20.882-10.472,31.718-15.061C284.643,81.284,285.418,76.536,286.775,72.181z
				 M286.486,399.396c-13.26,6.508-26.503,13.032-39.781,19.515c-2.293,1.12-1.633,2.324-0.5,3.672
				c3.3,3.904,6.666,7.771,9.858,11.738c1.721,2.143,2.866,2.034,4.684-0.019C270.446,423.367,278.786,411.723,286.486,399.396z
				 M252.439,67.22c-5.224,0-10.451-0.077-15.672,0.02c-5.863,0.11-7.799,2.267-6.107,6.95c1.183,3.278,2.834,6.446,4.133,9.696
				c0.979,2.452,2.419,2.899,5.178,1.556c10.088-4.915,20.276-9.698,30.42-14.545c1.09-0.521,2.646-1.163,2.317-2.208
				c-0.361-1.125-2.054-1.464-3.505-1.472C263.614,67.199,258.031,67.214,252.439,67.22z"/>
		</g>
		<path fill="#B172AE" d="M316.627,277.388c0.319,2.595-2.521,3.021-4.363,3.928c-22.467,11.058-44.992,22.035-67.505,33.026
			c-17.858,8.721-35.71,17.449-53.596,26.134c-1.587,0.772-3.201,2.49-5.266,1.042c-1.935-1.348-2.148-3.151-1.537-5.282
			c2.432-8.568,4.673-17.17,6.848-25.78c0.611-2.402,2.205-3.823,4.73-5.02c36.238-17.267,72.439-34.583,108.615-51.943
			c3.367-1.619,5.258-1.931,6.16,2.004C312.406,262.816,314.618,270.054,316.627,277.388z"/>
		<path fill="#B172AE" d="M261.704,351.043c-14.986,7.159-30.026,14.238-44.86,21.606c-4.5,2.235-7.063,2.186-9.656-1.988
			c-3.118-5.029-7.021-9.735-10.719-14.509c-1.625-2.086-1.322-3.298,1.374-4.613c39.618-19.297,79.171-38.678,118.77-57.993
			c1.327-0.645,3.502-2.274,4.26,0.273c2.382,7.964,4.44,15.99,6.635,24.041c0.199,2.574-2.617,2.986-4.465,3.886"/>
		<path fill="#B172AE" d="M199.613,279.394c2.67-9.69,5.505-20.012,8.359-30.334c0.502-1.819,2.387-2.504,4.11-3.326
			c26.698-12.748,53.454-25.442,80.056-38.337c4.423-2.146,5.524-1.233,6.34,2.527c1.411,6.455,3.319,12.832,5.148,19.224
			c0.852,2.965,0.143,4.809-3.412,6.484c-31.938,15.09-63.746,30.365-95.611,45.563c-1.346,0.646-2.658,1.851-4.39,1.27
			C198.965,282.053,199.632,280.914,199.613,279.394z"/>
		<path fill="#B172AE" d="M332.011,339.896c-0.667,1.099-1.146,2.064-1.802,2.942c-7.771,10.425-15.596,20.818-23.34,31.265
			c-1.104,1.49-2.709,2.318-4.433,3.157c-20.65,10.108-41.33,20.192-61.876,30.438c-3.271,1.626-4.903,1.293-6.707-1.416
			c-2.799-4.177-5.861-8.249-9.102-12.202c-2.412-2.937-1.649-4.548,1.986-6.272c25.059-11.855,50.019-23.854,75.005-35.811
			c8.588-4.104,17.161-8.255,25.78-12.315C328.883,339.039,330.575,337.951,332.011,339.896z"/>
		<path fill="#B172AE" d="M212.5,232.006c2.686-10.007,5.286-19.734,7.903-29.459c0.416-1.522,2.093-1.949,3.47-2.606
			c19.363-9.262,38.72-18.54,58.101-27.771c5.188-2.473,5.542-2.319,6.933,2.64c1.507,5.38,2.832,10.797,4.437,16.157
			c0.553,1.848,0.4,3.021-1.791,4.061c-25.664,12.182-51.278,24.435-76.922,36.655C214.224,231.88,213.651,231.839,212.5,232.006z"
			/>
		<path fill="#B172AE" d="M276.51,128.856c1.844,6.784,3.691,13.593,5.553,20.401c0.529,1.922-0.527,3.069-2.458,3.985
			c-16.087,7.643-32.152,15.312-48.218,22.988c-0.962,0.459-2.171,1.077-2.947,0.428c-0.572-0.482-0.597-1.696-0.388-2.497
			c2.129-8.159,4.355-16.301,6.533-24.45c0.329-1.26,1.184-2.105,2.524-2.736c12.67-5.981,25.324-11.981,37.993-17.957
			C275.389,128.878,275.797,128.929,276.51,128.856z"/>
		<path fill="#B172AE" d="M280.295,87.692c-1.383,3.012-2.86,5.997-4.124,9.042c-2.46,5.927-6.275,11.697-3.345,18.313
			c0.468,1.055,0.399,2.031-0.995,2.693c-10.435,4.958-20.86,9.938-32.71,15.587c2.059-7.757,3.813-14.241,5.483-20.739
			c0.375-1.446,1.29-3.317,0.582-4.341c-2.837-4.096,0.305-5.517,3.819-7.152c10.032-4.667,19.986-9.432,29.979-14.159
			C279.426,87.182,279.858,87.436,280.295,87.692z"/>
		<path fill="#B172AE" d="M286.486,399.396c-7.7,12.326-16.037,23.971-25.74,34.906c-1.815,2.054-2.961,2.161-4.686,0.018
			c-3.186-3.966-6.555-7.833-9.856-11.737c-1.136-1.348-1.792-2.552,0.5-3.672C259.983,412.429,273.227,405.904,286.486,399.396z"/>
		<path fill="#B172AE" d="M252.439,67.216c5.591-0.001,11.175-0.017,16.764,0.006c1.449,0.009,3.141,0.347,3.503,1.473
			c0.329,1.044-1.228,1.686-2.318,2.207c-10.142,4.842-20.331,9.625-30.419,14.544c-2.757,1.344-4.194,0.896-5.178-1.554
			c-1.298-3.257-2.95-6.417-4.135-9.699c-1.694-4.683,0.242-6.844,6.109-6.949C241.986,67.141,247.212,67.22,252.439,67.216z"/>
		<polygon fill="none" stroke="#282828" stroke-miterlimit="10" points="227.904,67.194 288.938,67.194 271.768,110.123 
			332.011,339.896 258.621,439.743 183.279,338.028 245.186,108.243 		"/>
		<path fill="none" stroke="#272727" stroke-miterlimit="10" d="M245.186,108.243c0,0,13.292,8.807,26.582,1.882"/>
	</g>
</g>
</svg>
