<?xml version="1.0" encoding="utf-8"?>
<!-- Generator: Adobe Illustrator 15.0.0, SVG Export Plug-In . SVG Version: 6.00 Build 0)  -->
<!DOCTYPE svg PUBLIC "-//W3C//DTD SVG 1.1//EN" "http://www.w3.org/Graphics/SVG/1.1/DTD/svg11.dtd">
<svg version="1.1" id="Layer_1" xmlns="http://www.w3.org/2000/svg" xmlns:xlink="http://www.w3.org/1999/xlink" x="0px" y="0px"
	 width="500px" height="500px" viewBox="0 0 500 500" enable-background="new 0 0 500 500" xml:space="preserve">
<g id="tie">
	<g>
		<polygon fill="#492B68" stroke="#282828" stroke-miterlimit="10" points="219.786,8.469 299.246,8.469 276.891,64.357 
			355.322,363.498 259.777,493.488 161.689,361.065 242.285,61.91 		"/>
		<path fill="#C9AC9D" d="M154.267-36.8"/>
		<g>
			<path fill="#FEFEFE" d="M335.293,282.117c-2.615-9.546-5.493-18.966-7.699-28.499c-1.171-5.123-3.636-4.725-8.02-2.61
				c-47.088,22.602-94.229,45.143-141.405,67.625c-3.288,1.56-5.356,3.412-6.158,6.535c-2.831,11.211-5.751,22.413-8.916,33.563
				c-0.79,2.779-0.519,5.117,2.001,6.878c2.688,1.884,4.79-0.353,6.856-1.358c23.28-11.305,46.527-22.669,69.777-34.023
				c29.309-14.313,58.634-28.608,87.884-42.995C332.012,286.051,335.71,285.493,335.293,282.117z M349.455,334.814
				c-2.855-10.482-5.537-20.932-8.639-31.301c-0.985-3.317-3.816-1.195-5.543-0.357c-51.562,25.15-103.048,50.378-154.626,75.503
				c-3.509,1.713-3.904,3.287-1.789,6.004c4.821,6.214,9.896,12.341,13.955,18.888c3.375,5.439,6.708,5.5,12.566,2.59
				c19.314-9.592,38.897-18.807,58.408-28.129c26.607-12.722,53.275-25.365,79.845-38.141
				C346.05,338.701,349.711,338.163,349.455,334.814z M182.954,284.729c0.028,1.979-0.844,3.464,0.782,4.005
				c2.254,0.757,3.963-0.815,5.715-1.649c41.485-19.791,82.896-39.678,124.476-59.32c4.628-2.189,5.556-4.591,4.442-8.445
				c-2.383-8.316-4.862-16.624-6.701-25.023c-1.064-4.896-2.497-6.085-8.254-3.29c-34.637,16.789-69.468,33.306-104.226,49.913
				c-2.242,1.065-4.703,1.956-5.351,4.324C190.121,258.676,186.43,272.114,182.954,284.729z M355.322,363.498
				c-1.868-2.533-4.074-1.115-5.838-0.285c-11.221,5.289-22.385,10.69-33.562,16.034c-32.528,15.567-65.026,31.188-97.648,46.622
				c-4.734,2.242-5.726,4.342-2.586,8.164c4.221,5.146,8.207,10.449,11.85,15.889c2.349,3.525,4.474,3.961,8.731,1.838
				c26.75-13.332,53.671-26.461,80.556-39.621c2.242-1.096,4.332-2.172,5.771-4.111c10.081-13.594,20.267-27.131,30.386-40.707
				C353.829,366.184,354.456,364.928,355.322,363.498z M199.732,223.035c1.497-0.213,2.242-0.166,2.775-0.421
				c33.381-15.909,66.731-31.86,100.146-47.721c2.853-1.354,3.05-2.881,2.332-5.286c-2.092-6.979-3.817-14.031-5.779-21.035
				c-1.811-6.455-2.271-6.654-9.025-3.437c-25.232,12.018-50.433,24.096-75.641,36.154c-1.793,0.857-3.983,1.407-4.518,3.394
				C206.615,197.341,203.226,210.007,199.732,223.035z M210.593,425.104c1.646-0.748,3.301-1.459,4.919-2.225
				c42.987-20.512,85.963-41.033,128.942-61.557c10.702-5.105,10.319-5.063,8.243-15.219c-1.023-5.018-2.618-5.029-7.402-2.727
				c-44.9,21.625-89.93,43.086-134.915,64.592c-10.584,5.07-10.615,5.1-3.921,13.693
				C207.495,422.99,207.826,425.068,210.593,425.104z M174.633,315.801c2.688-1.236,4.669-2.108,6.625-3.047
				c43.337-20.697,86.664-41.39,129.996-62.092c14.594-6.974,14.594-6.979,10.132-20.285c-0.118-0.345-0.427-0.647-0.692-1.031
				c-0.66,0.112-1.432,0.087-1.996,0.361c-45.15,21.577-90.273,43.183-135.436,64.737c-2.164,1.034-3.772,2.146-4.289,4.274
				C177.645,304.188,176.202,309.631,174.633,315.801z M283.064,88.745c-0.924,0.096-1.463,0.034-1.836,0.21
				c-16.492,7.78-32.969,15.592-49.463,23.379c-1.741,0.821-2.854,1.922-3.288,3.562c-2.834,10.608-5.732,21.209-8.504,31.832
				c-0.271,1.042-0.243,2.623,0.505,3.251c1.009,0.844,2.584,0.039,3.837-0.558c20.915-9.99,41.824-19.979,62.776-29.929
				c2.515-1.194,3.888-2.685,3.2-5.188C287.869,106.441,285.467,97.577,283.064,88.745z M287.993,35.155
				c-0.567-0.331-1.138-0.662-1.708-0.992c-13.002,6.155-25.969,12.357-39.029,18.434c-4.58,2.13-8.672,3.977-4.972,9.311
				c0.922,1.334-0.27,3.767-0.757,5.653c-2.178,8.459-4.465,16.907-7.139,27c15.427-7.357,29-13.837,42.583-20.292
				c1.816-0.864,1.908-2.131,1.299-3.507c-3.815-8.613,1.146-16.125,4.354-23.841C284.271,42.958,286.193,39.078,287.993,35.155z
				 M211.672,178.01c3.408-1.508,5.241-2.279,7.018-3.128c22.061-10.514,44.113-21.033,66.158-31.569
				c11.778-5.628,11.385-5.569,8.703-16.635c-1.135-4.642-2.939-3.616-6.275-2.01c-22.201,10.699-44.461,21.333-66.722,31.947
				c-1.839,0.886-3.535,1.595-4.039,3.63C215.172,165.696,213.58,171.111,211.672,178.01z M296.429,14.96
				c-0.006-5.351-2.254-6.43-7.461-3.969c-15.198,7.195-30.332,14.485-45.501,21.719c-11.842,5.659-11.657,5.581-6.578,15.76
				c1.822,3.652,3.473,3.276,6.948,1.553c13.627-6.741,27.188-13.633,41.296-19.608C293.652,26.811,294.663,20.63,296.429,14.96z
				 M296.054,440.961c-17.263,8.473-34.504,16.965-51.791,25.404c-2.985,1.461-2.125,3.029-0.65,4.781
				c4.297,5.084,8.678,10.119,12.834,15.283c2.24,2.789,3.732,2.648,6.099-0.025C275.172,472.168,286.029,457.008,296.054,440.961z
				 M251.73,8.502c-6.803,0-13.608-0.101-20.406,0.026c-7.632,0.143-10.154,2.951-7.951,9.047c1.541,4.269,3.69,8.392,5.381,12.624
				c1.275,3.192,3.15,3.775,6.741,2.026c13.134-6.399,26.398-12.627,39.604-18.936c1.418-0.679,3.444-1.514,3.016-2.874
				c-0.471-1.465-2.674-1.906-4.563-1.917C266.277,8.474,259.009,8.494,251.73,8.502z"/>
		</g>
		<path fill="#B172AE" d="M335.293,282.117c0.417,3.379-3.281,3.934-5.68,5.116c-29.25,14.394-58.575,28.685-87.884,42.995
			c-23.25,11.353-46.491,22.717-69.777,34.023c-2.066,1.006-4.168,3.242-6.856,1.358c-2.52-1.755-2.797-4.103-2.001-6.878
			c3.167-11.155,6.085-22.354,8.916-33.563c0.796-3.127,2.87-4.977,6.158-6.535c47.178-22.479,94.308-45.023,141.405-67.625
			c4.384-2.108,6.846-2.513,8.02,2.61C329.8,263.148,332.678,272.568,335.293,282.117z"/>
		<path fill="#B172AE" d="M263.79,378.01c-19.51,9.32-39.091,18.537-58.403,28.129c-5.858,2.91-9.196,2.844-12.571-2.59
			c-4.059-6.547-9.14-12.674-13.955-18.889c-2.116-2.716-1.721-4.291,1.788-6.004c51.578-25.124,103.072-50.354,154.626-75.503
			c1.728-0.838,4.559-2.959,5.545,0.358c3.101,10.367,5.781,20.816,8.638,31.299c0.259,3.35-3.408,3.888-5.813,5.058"/>
		<path fill="#B172AE" d="M182.954,284.729c3.476-12.616,7.167-26.053,10.883-39.492c0.653-2.368,3.108-3.26,5.351-4.33
			c34.758-16.596,69.591-33.122,104.226-49.911c5.757-2.794,7.189-1.606,8.254,3.291c1.836,8.403,4.318,16.705,6.701,25.026
			c1.109,3.86,0.186,6.262-4.442,8.442c-41.58,19.645-82.991,39.531-124.476,59.319c-1.752,0.839-3.461,2.408-5.715,1.653
			C182.11,288.191,182.979,286.709,182.954,284.729z"/>
		<path fill="#B172AE" d="M355.322,363.498c-0.868,1.43-1.492,2.688-2.346,3.829c-10.117,13.573-20.304,27.106-30.386,40.704
			c-1.438,1.941-3.528,3.018-5.771,4.111c-26.883,13.16-53.807,26.287-80.557,39.627c-4.258,2.117-6.382,1.682-8.731-1.844
			c-3.644-5.439-7.63-10.74-11.851-15.887c-3.139-3.822-2.147-5.92,2.587-8.164c32.624-15.436,65.119-31.056,97.648-46.623
			c11.181-5.342,22.342-10.746,33.563-16.033C351.249,362.383,353.453,360.965,355.322,363.498z"/>
		<path fill="#B172AE" d="M199.732,223.035c3.497-13.028,6.881-25.691,10.289-38.352c0.541-1.981,2.725-2.537,4.518-3.394
			c25.208-12.058,50.408-24.136,75.64-36.154c6.755-3.218,7.216-3.019,9.025,3.437c1.962,7.004,3.688,14.056,5.778,21.035
			c0.719,2.405,0.521,3.932-2.332,5.286c-33.412,15.861-66.759,31.812-100.144,47.721
			C201.976,222.872,201.231,222.818,199.732,223.035z"/>
		<path fill="#B172AE" d="M283.064,88.745c2.402,8.832,4.806,17.697,7.231,26.56c0.688,2.503-0.687,3.997-3.2,5.188
			c-20.945,9.95-41.86,19.935-62.775,29.929c-1.253,0.596-2.828,1.401-3.837,0.557c-0.746-0.628-0.777-2.209-0.505-3.251
			c2.772-10.623,5.67-21.223,8.504-31.832c0.429-1.64,1.542-2.741,3.287-3.562c16.495-7.787,32.97-15.598,49.464-23.378
			C281.605,88.775,282.137,88.84,283.064,88.745z"/>
		<path fill="#B172AE" d="M287.993,35.155c-1.8,3.921-3.724,7.806-5.368,11.772c-3.204,7.716-8.171,15.228-4.355,23.841
			c0.61,1.374,0.52,2.643-1.298,3.506c-13.583,6.455-27.156,12.938-42.583,20.293c2.68-10.099,4.964-18.541,7.139-27
			c0.487-1.883,1.679-4.319,0.757-5.653c-3.694-5.333,0.397-7.181,4.972-9.311c13.062-6.077,26.021-12.279,39.029-18.434
			C286.861,34.49,287.426,34.821,287.993,35.155z"/>
		<path fill="#B172AE" d="M296.054,440.961c-10.024,16.047-20.879,31.207-33.512,45.443c-2.362,2.674-3.854,2.813-6.099,0.023
			c-4.147-5.162-8.535-10.197-12.832-15.281c-1.479-1.752-2.334-3.32,0.65-4.781C261.55,457.926,278.791,449.434,296.054,440.961z"
			/>
		<path fill="#B172AE" d="M251.73,8.497c7.278-0.002,14.547-0.022,21.822,0.008c1.887,0.011,4.09,0.452,4.561,1.917
			c0.429,1.359-1.598,2.194-3.017,2.873c-13.204,6.303-26.47,12.531-39.604,18.936c-3.59,1.749-5.46,1.166-6.741-2.024
			c-1.69-4.24-3.84-8.355-5.382-12.626c-2.206-6.097,0.314-8.911,7.952-9.048C238.119,8.399,244.924,8.502,251.73,8.497z"/>
		<polygon fill="none" stroke="#282828" stroke-miterlimit="10" points="219.786,8.469 299.246,8.469 276.891,64.357 
			355.322,363.498 259.777,493.488 161.689,361.065 242.285,61.91 		"/>
		<path fill="none" stroke="#272727" stroke-miterlimit="10" d="M242.285,61.91c0,0,17.304,11.466,34.607,2.45"/>
	</g>
</g>
</svg>
