<?xml version="1.0" encoding="utf-8"?>
<!-- Generator: Adobe Illustrator 15.0.0, SVG Export Plug-In . SVG Version: 6.00 Build 0)  -->
<!DOCTYPE svg PUBLIC "-//W3C//DTD SVG 1.1//EN" "http://www.w3.org/Graphics/SVG/1.1/DTD/svg11.dtd">
<svg version="1.1" id="Layer_1" xmlns="http://www.w3.org/2000/svg" xmlns:xlink="http://www.w3.org/1999/xlink" x="0px" y="0px"
	 width="866.461px" height="728px" viewBox="0 0 866.461 728" enable-background="new 0 0 866.461 728" xml:space="preserve">
<path fill="#79231B" d="M424.839,702.456c-105.201-1.724-210.584-0.3-314.908-17.623c-9.494-1.574-18.865-4.119-28.412-5.082
	c-31.875-3.225-47.326-20.908-51.197-52.407c-14.68-119.389-19.498-239.146-14.244-359.268
	c2.598-59.411,4.518-118.929,17.629-177.401c4.361-19.477,14.555-29.588,34.152-34.385c90.156-22.054,182.152-24.13,274.053-26.045
	C461.24,27.777,580.576,28.97,699.414,41.83c26.871,2.911,53.264,10.064,80.08,13.776c24.674,3.419,35.869,17.317,40.117,40.965
	c9.014,50.235,13.563,100.938,14.711,151.738c2.641,116.68,5.563,233.459-9.281,349.706c-1.33,10.384-3.502,20.647-4.988,31.019
	c-5.114,35.727-13.075,43.015-49.366,50.25C656.378,702.076,540.519,700.604,424.839,702.456z M422.228,668.654
	c10.531,0,21.07-0.072,31.607,0.008c102.643,0.868,204.91-3.257,306.354-20.738c16.795-2.896,25.791-8.446,28.682-27.243
	c9.217-59.939,12.826-120.26,14.291-180.658c2.604-107.942,0.957-215.757-12.506-323.188c-2.853-22.751-13.029-30.563-34.361-33.983
	C659.1,67.258,561.229,62.42,463.037,62.134c-122.795-0.346-245.525-0.429-367.322,20.093
	c-24.416,4.105-32.143,16.335-34.676,37.444c-15.986,133.68-14.223,267.545-7.092,401.714c1.486,27.957,7.391,55.604,6.514,83.295
	c-1.084,34.637-2.15,37.085,31.799,43.214C201.396,667.61,311.712,670.013,422.228,668.654z"/>
<path fill="#F28524" d="M422.228,668.654c-110.516,1.357-220.832-1.044-329.969-20.763c-33.949-6.129-32.883-8.578-31.799-43.214
	c0.877-27.69-5.027-55.338-6.514-83.295c-7.131-134.169-8.895-268.034,7.092-401.714c2.533-21.109,10.26-33.339,34.676-37.444
	c121.797-20.521,244.527-20.438,367.322-20.093c98.19,0.286,196.063,5.124,293.258,20.717c21.332,3.421,31.51,11.232,34.361,33.983
	c13.463,107.432,15.11,215.246,12.506,323.188c-1.465,60.399-5.074,120.72-14.291,180.659
	c-2.892,18.797-11.887,24.348-28.683,27.243c-101.442,17.481-203.711,21.606-306.354,20.738
	C443.298,668.582,432.759,668.654,422.228,668.654z M208.122,371.45c-0.064,0-0.123,0-0.191,0c0,16.68-0.596,33.379,0.123,50.019
	c1.742,40.273,30.779,67.92,71.488,68.333c27.203,0.287,54.455,1.021,81.6-0.324c18.845-0.932,25.189,7.125,24.81,24.518
	c-0.4,18.415-0.349,36.866,0.297,55.276c0.652,18.442,6.047,34.227,25.238,42.264c19.305,8.086,36.146,4.321,51.225-8.917
	c69.148-60.688,138.506-121.143,207.057-182.513c32.097-28.731,32.279-68.049,0.414-96.393
	c-69.397-61.73-139.619-122.525-209.614-183.583c-14.826-12.934-31.668-19.074-50.945-10.886
	c-20.541,8.727-27.078,26.152-27.248,46.898c-0.18,22.818-0.48,45.641-0.061,68.454c0.204,11.332-1.275,17.521-15.666,16.998
	c-32.328-1.16-64.75-0.5-97.122,0.266c-34.506,0.822-59.203,24.875-61.234,59.585C207.313,338.058,208.122,354.778,208.122,371.45z"
	/>
<path fill="#79231B" d="M208.122,371.45c0-16.672-0.809-33.393,0.168-50.005c2.031-34.71,26.729-58.763,61.234-59.585
	c32.371-0.766,64.793-1.426,97.121-0.266c14.392,0.523,15.871-5.666,15.666-16.998c-0.42-22.813-0.118-45.636,0.062-68.454
	c0.17-20.746,6.707-38.172,27.248-46.898c19.276-8.188,36.119-2.048,50.945,10.886c69.995,61.058,140.217,121.853,209.614,183.583
	c31.865,28.343,31.683,67.66-0.414,96.393c-68.551,61.37-137.907,121.825-207.057,182.513c-15.078,13.238-31.92,17.003-51.225,8.917
	c-19.191-8.037-24.586-23.82-25.238-42.264c-0.646-18.41-0.697-36.861-0.297-55.276c0.381-17.392-5.965-25.448-24.81-24.517
	c-27.145,1.344-54.396,0.61-81.6,0.323c-40.709-0.413-69.746-28.06-71.488-68.333c-0.719-16.64-0.123-33.339-0.123-50.019
	C207.999,371.45,208.058,371.45,208.122,371.45z M326.269,293.428c0,0.046,0,0.103,0,0.148c-16.68,0-33.358,0.21-50.039-0.047
	c-23.008-0.354-34.289,12.86-35.324,33.73c-1.488,29.771-1.48,59.702-0.377,89.498c1.1,29.527,13.01,39.767,43.525,40.104
	c32.484,0.369,64.98-0.08,97.458,0.429c25.168,0.387,36.453,11.72,37.138,36.989c0.584,21.064,0.368,42.141,0.368,63.217
	c0,8.772-1.858,19.357,7.396,23.525c7.863,3.536,14.867-3.946,20.643-9.018c67.187-59.031,134.312-118.122,201.109-177.585
	c16.164-14.38,16.32-31.066,0.189-45.391C579.534,287.896,510.491,227,440.942,166.695c-16.443-14.25-25.021-10.309-26.173,11.298
	c-1.358,25.386-0.592,50.881-0.809,76.326c-0.219,27.041-10.756,38.197-37.715,39.013
	C359.601,293.833,342.935,293.428,326.269,293.428z"/>
<path fill="#FAF6F2" d="M326.269,293.428c16.666,0,33.332,0.405,49.979-0.095c26.959-0.815,37.496-11.972,37.715-39.013
	c0.217-25.445-0.551-50.94,0.81-76.326c1.151-21.606,9.729-25.548,26.172-11.298c69.549,60.305,138.592,121.201,207.414,182.334
	c16.131,14.324,15.975,31.011-0.189,45.391C581.37,453.884,514.245,512.975,447.06,572.006c-5.774,5.07-12.778,12.554-20.643,9.019
	c-9.256-4.168-7.396-14.753-7.396-23.526c0-21.076,0.215-42.151-0.369-63.217c-0.685-25.271-11.97-36.604-37.138-36.989
	c-32.479-0.509-64.975-0.06-97.458-0.429c-30.516-0.338-42.426-10.576-43.525-40.104c-1.104-29.797-1.111-59.728,0.377-89.499
	c1.035-20.871,12.316-34.084,35.324-33.731c16.68,0.257,33.359,0.047,50.04,0.047C326.269,293.529,326.269,293.474,326.269,293.428z
	"/>
</svg>
