<?xml version="1.0" encoding="utf-8"?>
<!-- Generator: Adobe Illustrator 16.0.0, SVG Export Plug-In . SVG Version: 6.00 Build 0)  -->
<!DOCTYPE svg PUBLIC "-//W3C//DTD SVG 1.1//EN" "http://www.w3.org/Graphics/SVG/1.1/DTD/svg11.dtd">
<svg version="1.1" id="Layer_1" xmlns="http://www.w3.org/2000/svg" xmlns:xlink="http://www.w3.org/1999/xlink" x="0px" y="0px"
	 width="866.461px" height="728px" viewBox="0 0 866.461 728" enable-background="new 0 0 866.461 728" xml:space="preserve">
<path fill="#331501" d="M424.839,702.455c-105.201-1.724-210.584-0.3-314.908-17.623c-9.494-1.573-18.865-4.118-28.412-5.081
	c-31.875-3.226-47.326-20.908-51.197-52.407c-14.68-119.39-19.497-239.146-14.243-359.268c2.598-59.411,4.518-118.93,17.629-177.401
	c4.36-19.477,14.555-29.588,34.151-34.385c90.156-22.055,182.152-24.13,274.054-26.045C461.24,27.777,580.575,28.97,699.413,41.83
	c26.871,2.911,53.265,10.063,80.08,13.775c24.675,3.419,35.869,17.317,40.117,40.965c9.014,50.235,13.563,100.938,14.711,151.738
	c2.642,116.68,5.563,233.459-9.281,349.706c-1.329,10.384-3.502,20.646-4.987,31.019c-5.114,35.728-13.075,43.016-49.366,50.25
	C656.378,702.075,540.519,700.604,424.839,702.455z M422.228,668.654c10.531,0,21.07-0.072,31.607,0.008
	c102.643,0.868,204.909-3.257,306.354-20.737c16.795-2.896,25.791-8.446,28.682-27.243c9.218-59.939,12.826-120.26,14.291-180.658
	c2.604-107.942,0.957-215.757-12.506-323.188c-2.853-22.751-13.028-30.563-34.36-33.983C659.1,67.258,561.229,62.42,463.036,62.134
	c-122.794-0.346-245.524-0.429-367.321,20.093c-24.416,4.105-32.144,16.335-34.676,37.444
	c-15.986,133.68-14.224,267.545-7.093,401.714c1.486,27.957,4.784,55.115,6.515,83.295c8.649,34.259,4.77,36.82,31.799,43.214
	C201.396,667.61,311.712,670.013,422.228,668.654z"/>
<path fill="#F7D117" d="M422.228,668.654c-110.516,1.357-220.832-1.044-329.969-20.763C63.231,645.5,61.481,631.75,60.46,604.677
	c-2.114-27.752-5.032-55.431-6.515-83.295c-7.131-134.169-8.895-268.034,7.093-401.714c2.532-21.109,10.26-33.339,34.676-37.444
	c121.797-20.521,244.527-20.438,367.321-20.093c98.19,0.286,196.063,5.124,293.259,20.717c21.332,3.421,31.51,11.232,34.36,33.983
	c13.463,107.432,15.11,215.245,12.506,323.188c-1.465,60.399-5.073,120.72-14.291,180.659
	c-2.892,18.797-11.887,24.348-28.683,27.243c-101.442,17.48-203.711,21.605-306.354,20.737
	C443.298,668.581,432.759,668.654,422.228,668.654z M208.122,371.449c-0.064,0-0.123,0-0.191,0c0,16.681-0.596,33.379,0.123,50.02
	c1.742,40.272,30.779,67.92,71.488,68.333c27.203,0.287,54.455,1.021,81.6-0.324c18.845-0.932,25.189,7.125,24.811,24.518
	c-0.4,18.415-0.35,36.866,0.297,55.276c0.651,18.442,6.047,34.227,25.237,42.264c19.306,8.086,36.146,4.321,51.226-8.917
	c69.147-60.688,138.506-121.143,207.057-182.513c32.097-28.73,32.279-68.049,0.414-96.393
	c-69.397-61.73-139.619-122.525-209.614-183.583c-14.826-12.935-31.668-19.074-50.944-10.886
	c-20.541,8.727-27.078,26.151-27.248,46.897c-0.181,22.818-0.48,45.642-0.062,68.454c0.204,11.332-1.274,17.521-15.666,16.998
	c-32.328-1.16-64.75-0.5-97.122,0.266c-34.506,0.822-59.202,24.875-61.233,59.585C207.313,338.058,208.122,354.778,208.122,371.449z
	"/>
<path fill="#331501" d="M208.122,371.449c0-16.672-0.81-33.393,0.168-50.005c2.03-34.71,26.729-58.763,61.233-59.585
	c32.371-0.766,64.793-1.426,97.121-0.266c14.393,0.523,15.871-5.666,15.666-16.998c-0.42-22.813-0.118-45.636,0.063-68.454
	c0.17-20.746,6.707-38.172,27.248-46.897c19.275-8.188,36.118-2.049,50.944,10.886c69.995,61.058,140.217,121.853,209.614,183.583
	c31.865,28.343,31.683,67.659-0.414,96.393c-68.551,61.37-137.907,121.825-207.058,182.513
	c-15.077,13.238-31.92,17.003-51.225,8.917c-19.19-8.037-24.586-23.819-25.237-42.264c-0.646-18.41-0.697-36.861-0.298-55.276
	c0.382-17.392-5.965-25.447-24.81-24.517c-27.145,1.344-54.396,0.61-81.6,0.323c-40.709-0.413-69.746-28.061-71.488-68.333
	c-0.719-16.641-0.123-33.339-0.123-50.02C207.999,371.449,208.058,371.449,208.122,371.449z M326.269,293.428
	c0,0.046,0,0.103,0,0.148c-16.68,0-33.357,0.21-50.039-0.048c-23.008-0.354-34.289,12.86-35.324,33.73
	c-1.487,29.771-1.479,59.702-0.377,89.498c1.101,29.526,13.011,39.767,43.525,40.104c32.484,0.369,64.98-0.08,97.458,0.429
	c25.168,0.388,36.453,11.721,37.138,36.989c0.584,21.064,0.368,42.142,0.368,63.217c0,8.772-1.857,19.357,7.396,23.525
	c7.863,3.536,14.867-3.946,20.644-9.018c67.187-59.031,134.312-118.122,201.108-177.585c16.164-14.381,16.32-31.066,0.189-45.392
	C579.533,287.896,510.49,227,440.942,166.695c-16.443-14.25-25.021-10.309-26.173,11.299c-1.357,25.386-0.592,50.881-0.809,76.325
	c-0.219,27.041-10.756,38.197-37.715,39.014C359.601,293.833,342.935,293.428,326.269,293.428z"/>
<path fill="#FAF6F2" d="M326.269,293.428c16.666,0,33.332,0.405,49.979-0.095c26.959-0.815,37.496-11.973,37.715-39.014
	c0.217-25.444-0.551-50.939,0.81-76.325c1.151-21.606,9.729-25.549,26.172-11.299c69.549,60.306,138.592,121.201,207.414,182.334
	c16.131,14.324,15.975,31.012-0.188,45.392c-66.801,59.463-133.926,118.554-201.11,177.585c-5.774,5.069-12.778,12.554-20.643,9.019
	c-9.256-4.168-7.396-14.753-7.396-23.526c0-21.075,0.215-42.15-0.369-63.217c-0.685-25.271-11.97-36.604-37.138-36.988
	c-32.479-0.51-64.975-0.061-97.458-0.43c-30.516-0.338-42.426-10.576-43.525-40.104c-1.104-29.797-1.11-59.729,0.378-89.499
	c1.034-20.871,12.315-34.084,35.323-33.731c16.681,0.258,33.359,0.048,50.04,0.048C326.269,293.529,326.269,293.474,326.269,293.428
	z"/>
</svg>
