<?xml version="1.0" encoding="utf-8"?>
<!-- Generator: Adobe Illustrator 15.0.0, SVG Export Plug-In . SVG Version: 6.00 Build 0)  -->
<!DOCTYPE svg PUBLIC "-//W3C//DTD SVG 1.1//EN" "http://www.w3.org/Graphics/SVG/1.1/DTD/svg11.dtd">
<svg version="1.1" id="Lager_1" xmlns="http://www.w3.org/2000/svg" xmlns:xlink="http://www.w3.org/1999/xlink" x="0px" y="0px"
	 width="614.5px" height="562px" viewBox="0 0 614.5 562" enable-background="new 0 0 614.5 562" xml:space="preserve">
<path fill="#FFFFFF" d="M13.719,485.289c5.146,44.158,7.933,47.159,50.805,54.232c82.313,13.72,167.416,15.006,240.513,15.22
	c3.857,0,7.717,0,11.574,0c72.455,0,156.483-1.286,238.584-15.648c30.438-5.357,35.799-11.146,40.515-42.872
	c4.501-30.438,7.289-63.021,9.003-102.464c4.501-109.968,0.856-199.999-11.79-283.6c-2.572-16.936-10.504-25.08-27.225-28.51
	l-1.93-0.429c-6.217-1.286-12.646-2.572-18.863-3.646c-65.38-11.36-132.476-12.433-197.427-13.505
	c-13.719-0.214-27.438-0.429-41.157-0.643c-1.929,0-4.072,0-6.215,0c-2.145,0-4.073,0-6.217,0c-2.145,0-4.503,0-6.432,0
	c-9.432,0.214-18.864,0.429-28.296,0.643c-17.328,0.376-25.862,0.751-43.412,1.321C193.294,56.627,157,31.708,157,4.582
	c0,26.542-31.639,54.822-57.001,67.426c-19.489,2.218-31.685,5.126-50.911,8.994c-20.15,4.073-29.153,12.862-31.939,31.513
	C10.29,157.102,6.645,203.404,6.003,253.779C4.931,336.094,4.716,410.263,13.719,485.289z"/>
<path fill="#D4D2C6" d="M9.218,485.717c5.358,45.444,9.433,50.375,54.447,57.877c79.957,13.291,160.558,15.006,241.37,15.222
	c3.857,0.214,7.717,0.214,11.79,0.214c80.171,0,160.127-1.715,239.227-15.648c33.227-6.002,39.229-13.505,44.158-46.516
	c4.931-34.083,7.503-68.381,8.789-102.895c4.073-94.961,2.357-189.924-11.79-284.242c-3.001-19.507-12.861-28.51-30.438-32.154
	c-7.073-1.5-13.935-2.786-21.008-4.072c-79.313-13.934-159.27-12.646-239.227-14.361c-4.073,0-8.36,0-12.435,0
	c-2.356,0-4.715,0-7.072,0c-21.311,0.514-42.618,0.88-63.912,1.435c-21.098-0.455-62.116-25.2-62.116-57.604h-8
	c0,32.221-38.844,65.326-68.95,67.473l0.008,0.114c-12.03,1.728-24.047,3.754-36.041,6.159c-20.364,4.072-31.939,13.29-35.369,34.94
	C5.36,158.818,2.145,205.977,1.501,253.565C0.643,331.163,0.215,408.547,9.218,485.717z M10.075,253.993
	c0.643-50.16,4.287-96.248,11.146-140.62c2.572-16.72,10.289-24.223,28.51-27.866c12.387-2.5,24.843-4.596,37.343-6.366l0,0
	c4.133-0.831,8.422-2.132,12.75-3.841c0.013-0.005,0.023-0.01,0.037-0.014c27.77-10.974,57.14-38.784,57.14-67.89
	c0,27.53,28.174,49.89,50.81,58.377c0.033,0.011,0.067,0.023,0.103,0.034c5.67,2.117,11.888,3.702,15.426,3.598
	c11.918-0.318,23.796-0.577,35.61-0.834c9.432-0.215,18.863-0.429,28.295-0.644c1.93,0,4.287,0,6.859,0c2.144,0,4.072,0,6.217,0
	c2.144,0,4.073,0,6.217,0c13.719,0.215,27.651,0.429,41.157,0.644c64.736,1.071,131.831,2.145,196.782,13.505
	c6.218,1.071,12.646,2.357,18.648,3.645l2.145,0.429c15.005,3.001,21.437,9.861,23.794,25.08
	c12.219,82.958,15.861,172.56,11.359,282.313c-1.5,39.441-4.287,71.811-8.789,102.035c-2.357,16.291-4.93,24.223-9.218,28.725
	c-4.501,4.716-12.218,7.717-27.867,10.503c-81.886,14.361-165.7,15.647-237.726,15.647c-3.858,0-7.719,0-11.79,0
	c-73.097-0.214-157.771-1.5-239.869-15.005c-20.364-3.431-31.726-6.218-37.299-12.004c-5.359-5.788-7.503-16.937-10.075-38.371
	C9.003,410.478,9.003,336.309,10.075,253.993z"/>
</svg>
