<?xml version="1.0" encoding="utf-8"?>
<!-- Generator: Adobe Illustrator 15.0.0, SVG Export Plug-In . SVG Version: 6.00 Build 0)  -->
<!DOCTYPE svg PUBLIC "-//W3C//DTD SVG 1.1//EN" "http://www.w3.org/Graphics/SVG/1.1/DTD/svg11.dtd">
<svg version="1.1" id="Lager_1" xmlns="http://www.w3.org/2000/svg" xmlns:xlink="http://www.w3.org/1999/xlink" x="0px" y="0px"
	 width="614.5px" height="562px" viewBox="-2.5 143.5 614.5 562" enable-background="new -2.5 143.5 614.5 562"
	 xml:space="preserve">
<path fill="#F5F3EB" d="M598.281,219.795c-5.146-44.158-7.932-47.159-50.804-54.233c-82.314-13.719-167.416-15.005-240.513-15.219
	c-3.858,0-7.717,0-11.576,0c-72.454,0-156.483,1.286-238.583,15.648c-30.439,5.359-35.798,11.147-40.514,42.873
	c-4.501,30.439-7.289,63.022-9.003,102.464c-4.501,109.967-0.857,199.999,11.79,283.599c2.572,16.935,10.504,25.08,27.224,28.51
	l1.929,0.429c6.217,1.286,12.647,2.572,18.864,3.645c65.38,11.361,132.475,12.433,197.426,13.505
	c13.719,0.214,27.438,0.429,41.158,0.643c1.929,0,4.072,0,6.216,0s4.073,0,6.217,0s4.502,0,6.431,0
	c9.432-0.214,18.864-0.429,28.296-0.643c17.328-0.376,25.862-0.751,43.412-1.321c22.455,8.762,58.749,33.681,58.749,60.807
	c0-26.542,31.639-54.822,57.001-67.425c19.489-2.218,31.685-5.126,50.911-8.995c20.15-4.073,29.153-12.862,31.94-31.512
	c6.859-44.587,10.503-90.889,11.146-141.264C607.069,368.991,607.284,294.822,598.281,219.795z"/>
<path fill="#D4D2C6" d="M602.782,219.367c-5.358-45.444-9.432-50.375-54.447-57.877c-79.957-13.291-160.557-15.005-241.37-15.22
	c-3.858-0.214-7.717-0.214-11.79-0.214c-80.171,0-160.127,1.715-239.227,15.648c-33.226,6.002-39.228,13.505-44.158,46.516
	c-4.931,34.083-7.503,68.381-8.789,102.894c-4.073,94.961-2.358,189.924,11.79,284.242c3.001,19.507,12.861,28.51,30.439,32.154
	c7.074,1.5,13.934,2.786,21.007,4.072c79.313,13.934,159.27,12.647,239.227,14.362c4.073,0,8.36,0,12.434,0c2.357,0,4.716,0,7.073,0
	c21.31-0.514,42.618-0.88,63.912-1.435c21.098,0.455,62.116,25.2,62.116,57.604h8c0-32.221,38.844-65.326,68.95-67.473l-0.008-0.114
	c12.031-1.728,24.047-3.754,36.042-6.159c20.364-4.073,31.939-13.29,35.369-34.941c7.288-47.159,10.504-94.318,11.147-141.906
	C611.357,373.921,611.785,296.537,602.782,219.367z M601.925,451.091c-0.643,50.16-4.287,96.248-11.146,140.62
	c-2.572,16.721-10.289,24.224-28.51,27.867c-12.387,2.5-24.843,4.595-37.343,6.366l0,0c-4.133,0.831-8.422,2.132-12.75,3.841
	c-0.013,0.004-0.024,0.009-0.037,0.013c-27.77,10.974-57.14,38.784-57.14,67.89c0-27.53-28.174-49.89-50.809-58.377
	c-0.034-0.011-0.068-0.023-0.103-0.034c-5.67-2.117-11.888-3.702-15.426-3.598c-11.918,0.319-23.796,0.577-35.61,0.834
	c-9.432,0.215-18.863,0.429-28.295,0.644c-1.93,0-4.287,0-6.859,0c-2.144,0-4.073,0-6.217,0s-4.073,0-6.217,0
	c-13.719-0.215-27.652-0.429-41.157-0.644c-64.737-1.071-131.832-2.144-196.783-13.505c-6.217-1.071-12.647-2.357-18.649-3.644
	l-2.144-0.429c-15.005-3.001-21.436-9.861-23.794-25.08C10.718,510.897,7.074,421.295,11.576,311.542
	c1.5-39.442,4.287-71.811,8.789-102.036c2.358-16.291,4.93-24.223,9.218-28.724c4.501-4.716,12.218-7.717,27.867-10.503
	c81.886-14.362,165.701-15.648,237.726-15.648c3.858,0,7.717,0,11.79,0c73.097,0.214,157.77,1.5,239.869,15.005
	c20.364,3.43,31.726,6.217,37.299,12.004c5.359,5.788,7.503,16.935,10.075,38.371C602.997,294.607,602.997,368.776,601.925,451.091z
	"/>
</svg>
