<?xml version="1.0" encoding="utf-8"?>
<!-- Generator: Adobe Illustrator 16.0.0, SVG Export Plug-In . SVG Version: 6.00 Build 0)  -->
<!DOCTYPE svg PUBLIC "-//W3C//DTD SVG 1.1//EN" "http://www.w3.org/Graphics/SVG/1.1/DTD/svg11.dtd">
<svg version="1.1" id="Lager_1" xmlns="http://www.w3.org/2000/svg" xmlns:xlink="http://www.w3.org/1999/xlink" x="0px" y="0px"
	 width="614.5px" height="562px" viewBox="0 0 614.5 562" enable-background="new 0 0 614.5 562" xml:space="preserve">
<path fill="#F5F3EB" d="M6.002,310.195c0.643,50.375,4.287,96.677,11.146,141.264c2.786,18.65,11.789,27.439,31.939,31.513
	c19.227,3.868,31.422,6.776,50.911,8.994C125.361,504.569,157,532.848,157,559.391c0-27.126,36.294-52.045,58.749-60.81
	c17.55,0.57,26.084,0.945,43.412,1.321c9.432,0.214,18.864,0.429,28.296,0.643c1.929,0,4.287,0,6.432,0c2.144,0,4.072,0,6.217,0
	c2.144,0,4.287,0,6.215,0c13.72-0.214,27.439-0.429,41.158-0.643c64.951-1.072,132.048-2.146,197.428-13.505
	c6.218-1.073,12.646-2.359,18.862-3.646l1.931-0.429c16.721-3.43,24.65-11.575,27.225-28.51
	c12.646-83.603,16.291-173.633,11.79-283.601c-1.714-39.44-4.502-72.023-9.003-102.465c-4.716-31.726-10.075-37.514-40.515-42.871
	C473.095,10.517,389.064,9.231,316.611,9.231c-3.857,0-7.719,0-11.574,0c-73.097,0.214-158.199,1.5-240.513,15.219
	c-42.872,7.074-45.658,10.075-50.805,54.233C4.716,153.71,4.931,227.878,6.002,310.195z"/>
<path fill="#D4D2C6" d="M1.501,310.408c0.644,47.588,3.859,94.747,11.147,141.906c3.43,21.648,15.005,30.868,35.369,34.938
	c11.994,2.405,24.011,4.434,36.041,6.159l-0.008,0.114C114.156,495.672,153,528.78,153,561h8c0-32.401,41.019-57.146,62.116-57.604
	c21.294,0.555,42.602,0.921,63.912,1.435c2.357,0,4.716,0,7.072,0c4.074,0,8.361,0,12.435,0
	c79.957-1.715,159.914-0.428,239.227-14.361c7.073-1.284,13.936-2.57,21.007-4.07c17.578-3.646,27.438-12.647,30.439-32.154
	c14.147-94.318,15.863-189.28,11.79-284.242c-1.286-34.513-3.858-68.811-8.789-102.894c-4.93-33.011-10.933-40.514-44.158-46.516
	C476.952,6.659,396.996,4.946,316.825,4.946c-4.073,0-7.933,0-11.79,0.214c-80.813,0.215-161.413,1.932-241.37,15.223
	C18.65,27.883,14.576,32.814,9.218,78.258C0.215,155.426,0.643,232.81,1.501,310.408z M17.791,78.9
	c2.572-21.436,4.716-32.583,10.075-38.371c5.573-5.787,16.935-8.574,37.299-12.004C147.264,15.02,231.937,13.734,305.034,13.52
	c4.071,0,7.932,0,11.79,0c72.023,0,155.84,1.286,237.726,15.646c15.649,2.786,23.366,5.787,27.867,10.503
	c4.288,4.504,6.859,12.436,9.218,28.727c4.502,30.225,7.289,62.594,8.789,102.035c4.502,109.754,0.858,199.354-11.358,282.313
	c-2.357,15.219-8.789,22.079-23.796,25.08l-2.144,0.429c-6.002,1.287-12.432,2.573-18.649,3.646
	c-64.949,11.358-132.045,12.434-196.78,13.505c-13.507,0.215-27.438,0.429-41.157,0.644c-2.144,0-4.073,0-6.217,0
	c-2.145,0-4.073,0-6.217,0c-2.572,0-4.93,0-6.859,0c-9.432-0.215-18.863-0.429-28.295-0.644c-11.814-0.257-23.692-0.518-35.61-0.834
	c-3.538-0.104-9.756,1.479-15.426,3.598c-0.035,0.012-0.069,0.023-0.103,0.034c-22.636,8.487-50.81,30.847-50.81,58.377
	c0-29.104-29.37-56.916-57.14-67.89c-0.014-0.005-0.024-0.01-0.037-0.016c-4.328-1.709-8.617-3.01-12.75-3.841l0,0
	c-12.5-1.771-24.956-3.866-37.343-6.366C31.51,474.823,23.794,467.32,21.221,450.6c-6.858-44.371-10.503-90.46-11.146-140.619
	C9.003,227.664,9.003,153.495,17.791,78.9z"/>
</svg>
