<?xml version="1.0" encoding="utf-8"?>
<!-- Generator: Adobe Illustrator 15.0.0, SVG Export Plug-In . SVG Version: 6.00 Build 0)  -->
<!DOCTYPE svg PUBLIC "-//W3C//DTD SVG 1.1//EN" "http://www.w3.org/Graphics/SVG/1.1/DTD/svg11.dtd">
<svg version="1.1" id="Lager_1" xmlns="http://www.w3.org/2000/svg" xmlns:xlink="http://www.w3.org/1999/xlink" x="0px" y="0px"
	 width="614.5px" height="562px" viewBox="0 0 614.5 562" enable-background="new 0 0 614.5 562" xml:space="preserve">
<path fill="#FFFFFF" d="M598.281,76.71c-5.146-44.158-7.933-47.159-50.805-54.233C465.163,8.758,380.061,7.472,306.964,7.258
	c-3.858,0-7.717,0-11.576,0c-72.454,0-156.483,1.286-238.583,15.648c-30.439,5.359-35.798,11.147-40.514,42.873
	c-4.501,30.438-7.289,63.021-9.003,102.464C2.787,278.21,6.431,368.242,19.078,451.842c2.572,16.936,10.504,25.08,27.224,28.511
	l1.929,0.429c6.217,1.286,12.647,2.572,18.864,3.645c65.38,11.361,132.475,12.434,197.426,13.505
	c13.719,0.215,27.438,0.43,41.158,0.644c1.929,0,4.072,0,6.215,0c2.145,0,4.073,0,6.217,0c2.145,0,4.503,0,6.432,0
	c9.432-0.214,18.864-0.429,28.296-0.644c17.328-0.376,25.862-0.751,43.412-1.32C418.706,505.372,455,530.291,455,557.417
	c0-26.542,31.639-54.822,57.001-67.425c19.489-2.218,31.685-5.126,50.911-8.995c20.149-4.073,29.153-12.862,31.939-31.512
	c6.859-44.587,10.503-90.89,11.146-141.265C607.069,225.906,607.284,151.737,598.281,76.71z"/>
<path fill="#D4D2C6" d="M602.782,76.282c-5.358-45.444-9.433-50.375-54.447-57.877C468.378,5.114,387.777,3.4,306.965,3.185
	c-3.858-0.214-7.717-0.214-11.79-0.214c-80.171,0-160.127,1.715-239.227,15.648C22.722,24.621,16.72,32.124,11.79,65.135
	c-4.931,34.083-7.503,68.381-8.789,102.894c-4.073,94.961-2.358,189.924,11.79,284.242c3.001,19.507,12.861,28.51,30.439,32.153
	c7.074,1.5,13.934,2.786,21.007,4.072c79.313,13.934,159.27,12.646,239.227,14.362c4.073,0,8.36,0,12.435,0c2.356,0,4.715,0,7.072,0
	c21.311-0.515,42.618-0.88,63.912-1.436c21.098,0.455,62.116,25.2,62.116,57.604h8c0-32.222,38.844-65.326,68.95-67.474
	l-0.009-0.113c12.031-1.729,24.048-3.755,36.043-6.159c20.363-4.073,31.938-13.29,35.368-34.941
	c7.288-47.159,10.505-94.317,11.147-141.906C611.357,230.836,611.785,153.452,602.782,76.282z M601.925,308.006
	c-0.643,50.16-4.287,96.248-11.146,140.62c-2.572,16.721-10.289,24.224-28.511,27.867c-12.387,2.5-24.843,4.595-37.343,6.366l0,0
	c-4.133,0.831-8.422,2.132-12.75,3.841c-0.013,0.004-0.023,0.009-0.037,0.013c-27.77,10.975-57.14,38.784-57.14,67.891
	c0-27.53-28.174-49.891-50.81-58.378c-0.033-0.011-0.067-0.022-0.103-0.033c-5.67-2.117-11.888-3.702-15.426-3.599
	c-11.918,0.319-23.796,0.577-35.61,0.834c-9.432,0.216-18.863,0.43-28.295,0.645c-1.93,0-4.287,0-6.859,0c-2.144,0-4.072,0-6.217,0
	c-2.144,0-4.073,0-6.217,0c-13.719-0.215-27.652-0.43-41.157-0.645c-64.737-1.07-131.832-2.144-196.783-13.505
	c-6.217-1.07-12.647-2.356-18.649-3.644l-2.144-0.43c-15.005-3.001-21.436-9.86-23.794-25.079
	C10.718,367.813,7.074,278.21,11.576,168.457c1.5-39.442,4.287-71.811,8.789-102.036c2.358-16.291,4.93-24.223,9.218-28.724
	c4.501-4.716,12.218-7.717,27.867-10.503c81.886-14.362,165.701-15.648,237.726-15.648c3.858,0,7.717,0,11.79,0
	c73.097,0.214,157.771,1.5,239.869,15.005c20.364,3.43,31.727,6.217,37.299,12.004c5.359,5.788,7.503,16.935,10.075,38.371
	C602.997,151.522,602.997,225.691,601.925,308.006z"/>
</svg>
