<?xml version="1.0" encoding="utf-8"?>
<!-- Generator: Adobe Illustrator 19.2.0, SVG Export Plug-In . SVG Version: 6.00 Build 0)  -->
<svg version="1.1" id="Lager_1" xmlns="http://www.w3.org/2000/svg" xmlns:xlink="http://www.w3.org/1999/xlink" x="0px" y="0px"
	 viewBox="0 0 285.5 234" style="enable-background:new 0 0 285.5 234;" xml:space="preserve">
<style type="text/css">
	.st0{fill:#FFFEF3;stroke:#FFFEF3;stroke-width:3.9329;stroke-linejoin:round;stroke-miterlimit:10;}
	.st1{fill:#8ECDEE;}
	.st2{fill:#D391BF;}
	.st3{fill:#87C385;}
	.st4{fill:#D19561;}
	.st5{fill:#FCC430;}
	.st6{fill:#DE3E24;}
	.st7{fill:#F18525;}
	.st8{fill:#49AE4A;}
	.st9{fill:#F5F3EB;}
	.st10{fill:#D4D2C6;}
</style>
<g>
	<path class="st9" d="M148.4,231.6c-1,0-1.9,0-2.9,0c-1,0-2,0-2.9,0c-6.4-0.1-12.8-0.2-19.2-0.3c-30.3-0.5-61.6-1-92.1-6.3
		c-2.9-0.5-5.9-1.1-8.8-1.7l-0.9-0.2c-7.8-1.6-11.5-5.4-12.7-13.3C3,170.8,1.3,128.8,3.4,77.5c0.8-18.4,2.1-33.6,4.2-47.8
		c2.2-14.8,4.7-17.5,18.9-20C64.8,3,104,2.4,137.8,2.4c1.8,0,3.6,0,5.4,0c34.1,0.1,73.8,0.7,112.2,7.1c20,3.3,21.3,4.7,23.7,25.3
		c4.2,35,4.1,69.6,3.6,108c-0.3,23.5-2,45.1-5.2,65.9c-1.3,8.7-5.5,12.8-14.9,14.7c-32.3,6.5-65.7,7.2-98,7.9
		c-4.4,0.1-8.8,0.2-13.2,0.3C150.5,231.6,149.4,231.6,148.4,231.6z"/>
	<path class="st10" d="M137.7,0.4v4c1.8,0,3.6,0,5.5,0c34.1,0.1,73.6,0.7,111.9,7c9.5,1.6,14.8,2.9,17.4,5.6
		c2.5,2.7,3.5,7.9,4.7,17.9c4.1,34.8,4.1,69.4,3.6,107.8c-0.3,23.4-2,44.9-5.2,65.6c-1.2,7.8-4.8,11.3-13.3,13
		c-32.2,6.5-65.4,7.2-97.6,7.9c-4.4,0.1-8.8,0.2-13.2,0.3c-0.9,0-2,0-3.2,0c-1,0-1.9,0-2.9,0c-1,0-1.9,0-2.9,0
		c-6.4-0.1-12.9-0.2-19.2-0.3c-30.2-0.5-61.5-1-91.8-6.3c-2.9-0.5-5.9-1.1-8.7-1.7l-1-0.2c-7-1.4-10-4.6-11.1-11.7
		C5,170.6,3.3,128.8,5.4,77.6C6.1,59.2,7.4,44.1,9.5,30c1.1-7.6,2.3-11.3,4.3-13.4c2.1-2.2,5.7-3.6,13-4.9C65,5,104.1,4.4,137.7,4.4
		V0.4 M137.7,0.4c-37.4,0-74.7,0.8-111.6,7.3C10.6,10.5,7.8,14,5.5,29.4C3.2,45.3,2,61.3,1.4,77.4C-0.5,121.7,0.3,166,6.9,210
		c1.4,9.1,6,13.3,14.2,15c3.3,0.7,6.5,1.3,9.8,1.9c37,6.5,74.3,5.9,111.6,6.7c1.9,0,3.9,0,5.8,0c1.1,0,2.2,0,3.3,0
		c37.3-0.9,74.6-0.8,111.5-8.2c9.5-1.9,14.9-6.2,16.5-16.3c3.4-22,4.9-44,5.2-66.2c0.4-36.2,0.6-72.3-3.6-108.3
		c-2.5-21.2-4.4-23.5-25.4-27c-37.3-6.2-74.9-7-112.6-7.1C141.4,0.4,139.6,0.4,137.7,0.4L137.7,0.4z"/>
</g>
</svg>
