<?xml version="1.0" encoding="utf-8"?>
<!-- Generator: Adobe Illustrator 15.0.0, SVG Export Plug-In . SVG Version: 6.00 Build 0)  -->
<!DOCTYPE svg PUBLIC "-//W3C//DTD SVG 1.1//EN" "http://www.w3.org/Graphics/SVG/1.1/DTD/svg11.dtd">
<svg version="1.1" id="Lager_1" xmlns="http://www.w3.org/2000/svg" xmlns:xlink="http://www.w3.org/1999/xlink" x="0px" y="0px"
	 width="614.5px" height="562px" viewBox="0 0 614.5 562" enable-background="new 0 0 614.5 562" xml:space="preserve">
<path fill="#F5F3EB" d="M606.994,254.379c-0.643-50.375-4.287-96.678-11.146-141.265c-2.786-18.649-11.789-27.438-31.939-31.512
	c-19.227-3.869-31.422-6.777-50.911-8.995c-25.362-12.603-57.001-40.883-57.001-67.425c0,27.126-36.294,52.045-58.749,60.807
	c-17.55-0.569-26.084-0.944-43.412-1.32c-9.432-0.215-18.864-0.43-28.296-0.644c-1.929,0-4.287,0-6.431,0c-2.145,0-4.073,0-6.218,0
	c-2.144,0-4.285,0-6.211,0c-13.72,0.214-27.438,0.429-41.158,0.644c-64.951,1.071-132.046,2.144-197.426,13.505
	c-6.217,1.072-12.647,2.358-18.864,3.645l-1.929,0.43c-16.72,3.43-24.652,11.574-27.224,28.51
	c-12.647,83.6-16.291,173.629-11.79,283.596c1.714,39.442,4.502,72.025,9.003,102.464c4.716,31.726,10.075,37.515,40.514,42.873
	c82.1,14.362,166.129,15.648,238.583,15.648c3.859,0,7.718,0,11.575,0c73.093-0.214,158.195-1.5,240.509-15.22
	c42.872-7.073,45.658-10.074,50.805-54.232C608.28,410.859,608.065,336.69,606.994,254.379z"/>
<path fill="#D4D2C6" d="M611.495,254.164c-0.644-47.588-3.859-94.746-11.147-141.905c-3.43-21.651-15.005-30.868-35.369-34.941
	c-11.994-2.405-24.011-4.431-36.041-6.159l0.008-0.113c-30.106-2.147-68.95-35.252-68.95-67.474h-8
	c0,32.404-41.019,57.149-62.116,57.604c-21.294-0.556-42.602-0.921-63.912-1.436c-2.356,0-4.716,0-7.072,0c-4.074,0-8.361,0-12.43,0
	c-79.957,1.715-159.914,0.429-239.227,14.362c-7.073,1.286-13.933,2.572-21.007,4.072c-17.578,3.644-27.438,12.646-30.439,32.153
	C1.644,204.646-0.071,299.606,4.002,394.567c1.286,34.513,3.858,68.812,8.789,102.895c4.93,33.011,10.932,40.514,44.158,46.516
	c79.1,13.933,159.056,15.647,239.227,15.647c4.073,0,7.933,0,11.789-0.213c80.81-0.215,161.409-1.93,241.366-15.221
	c45.015-7.502,49.089-12.433,54.447-57.877C612.781,409.145,612.354,331.761,611.495,254.164z M595.205,485.671
	c-2.572,21.436-4.716,32.583-10.075,38.37c-5.573,5.787-16.935,8.574-37.299,12.005c-82.099,13.505-166.772,14.791-239.865,15.005
	c-4.072,0-7.931,0-11.789,0c-72.025,0-155.84-1.286-237.726-15.648c-15.649-2.785-23.366-5.787-27.867-10.503
	c-4.288-4.501-6.86-12.433-9.218-28.724c-4.502-30.225-7.289-62.594-8.789-102.036c-4.502-109.753-0.858-199.353,11.36-282.31
	c2.358-15.22,8.789-22.079,23.794-25.08l2.144-0.43c6.002-1.287,12.432-2.572,18.649-3.644
	c64.951-11.361,132.046-12.435,196.783-13.505c13.505-0.215,27.438-0.43,41.157-0.645c2.141,0,4.068,0,6.212,0
	c2.145,0,4.073,0,6.217,0c2.572,0,4.93,0,6.859,0c9.432,0.215,18.863,0.43,28.295,0.645c11.814,0.257,23.692,0.515,35.61,0.834
	c3.538,0.104,9.756-1.481,15.426-3.599c0.035-0.011,0.069-0.022,0.104-0.034c22.635-8.486,50.809-30.847,50.809-58.377
	c0,29.106,29.37,56.916,57.14,67.891c0.014,0.004,0.024,0.009,0.037,0.013c4.328,1.709,8.617,3.01,12.75,3.841l0,0
	c12.5,1.771,24.956,3.866,37.343,6.366c18.222,3.644,25.938,11.146,28.511,27.867c6.858,44.372,10.503,90.46,11.146,140.62
	C603.993,336.906,603.993,411.074,595.205,485.671z"/>
</svg>
