<?xml version="1.0" encoding="utf-8"?>
<!-- Generator: Adobe Illustrator 15.0.0, SVG Export Plug-In . SVG Version: 6.00 Build 0)  -->
<!DOCTYPE svg PUBLIC "-//W3C//DTD SVG 1.1//EN" "http://www.w3.org/Graphics/SVG/1.1/DTD/svg11.dtd">
<svg version="1.1" id="Layer_1" xmlns="http://www.w3.org/2000/svg" xmlns:xlink="http://www.w3.org/1999/xlink" x="0px" y="0px"
	 width="866.461px" height="728px" viewBox="0 0 866.461 728" enable-background="new 0 0 866.461 728" xml:space="preserve">
<path fill="#79231B" d="M420.367,704.65c-106.059-1.323-212.361,0.211-317.542-17.345c-9.486-1.581-18.814-4.152-28.313-5.619
	c-27.337-4.198-40.444-20.533-43.867-47.453C14.664,508.588,10.501,382.508,16.473,256.082c1.822-38.538,5.849-76.966,7.797-115.495
	c3.294-65.21,18.535-83.148,83.068-90.762c209.07-24.651,418.277-23.599,627.314-0.053c77.562,8.733,84.359,20.167,91.961,98.66
	c12.723,131.385,8.351,262.74,3.746,394.131c-1.104,31.412-6.738,62.674-10.516,93.978c-3.138,26.031-18.253,39.806-43.8,45.07
	C682.078,701,586.813,703.313,491.442,704.604C467.756,704.921,444.06,704.65,420.367,704.65z M412.173,671.407
	c83.704,0.707,158.333,1.201,232.567-6.291c39.979-4.039,80.5-4.756,119.749-14.876c13.429-3.459,22.509-9.181,24.829-25.881
	c9.194-66.126,11.676-132.675,14.088-199.184c3.278-90.394,1.034-180.883-9.605-270.667c-8.899-75.042,3.742-64.654-68.428-72.499
	C523.76,60.101,321.79,52.616,120.17,85.493c-53.178,8.67-53.459,7.071-62.094,59.444c-0.855,5.183-1.307,10.428-1.833,15.66
	C44.291,279.581,45.818,398.753,52.172,517.91c1.91,35.776,6.169,71.448,10.329,107.055c1.18,10.097,3.694,21.401,16.875,23.894
	c12.53,2.374,25.057,4.858,37.675,6.685C217.981,670.117,319.54,673.05,412.173,671.407z"/>
<path fill="#F28524" d="M412.173,671.407c-92.633,1.643-194.192-1.29-295.121-15.865c-12.619-1.825-25.145-4.311-37.675-6.685
	c-13.181-2.491-15.695-13.797-16.875-23.894c-4.16-35.605-8.419-71.277-10.329-107.055c-6.354-119.157-7.881-238.329,4.071-357.313
	c0.526-5.231,0.978-10.477,1.833-15.66c8.635-52.374,8.917-50.774,62.094-59.444c201.619-32.876,403.589-25.391,605.202-3.48
	c72.17,7.845,59.527-2.544,68.428,72.499c10.641,89.784,12.885,180.273,9.605,270.667c-2.412,66.509-4.894,133.058-14.088,199.184
	c-2.32,16.7-11.4,22.422-24.829,25.881c-39.249,10.12-79.771,10.837-119.749,14.876
	C570.506,672.608,495.877,672.114,412.173,671.407z M519.568,553.524c0,4.369,0.369,8.779-0.064,13.108
	c-1.863,18.58,9.358,27.923,23.293,37.3c15.033,10.126,23.946-1.822,32.188-8.188c17.93-13.842,34.389-29.83,47.493-48.716
	c65.605-94.499,14.536-243.244-99.827-279.479c-35.886-11.368-52.562-24.104-48.31-62.526c2.271-20.493-5.426-39.893-27.575-49.134
	c-23.18-9.677-40.194,1.084-56.586,15.795c-60.578,54.397-121.395,108.521-181.979,162.908
	c-33.627,30.185-32.887,63.583,1.109,94.12c61.887,55.588,124.025,110.914,184.932,167.563
	c16.472,15.314,32.704,14.258,50.522,7.781c18.162-6.581,28.232-19.937,28.312-39.976c0.063-15.775,0.86-31.56,0.535-47.323
	c-0.291-14.203,7.838-16.171,18.787-13.85C521.035,508.953,520.899,531.186,519.568,553.524z"/>
<path fill="#79231B" d="M519.568,553.524c1.331-22.34,1.467-44.571-27.17-50.616c-10.949-2.321-19.078-0.354-18.787,13.85
	c0.325,15.766-0.472,31.548-0.535,47.323c-0.078,20.039-10.148,33.395-28.312,39.976c-17.818,6.477-34.051,7.533-50.522-7.781
	c-60.907-56.647-123.045-111.975-184.932-167.563c-33.996-30.537-34.736-63.936-1.109-94.12
	c60.583-54.387,121.4-108.511,181.979-162.908c16.393-14.711,33.407-25.472,56.586-15.795c22.149,9.242,29.845,28.642,27.575,49.134
	c-4.252,38.421,12.424,51.158,48.31,62.526c114.363,36.235,165.434,184.98,99.828,279.479
	c-13.105,18.886-29.564,34.874-47.494,48.716c-8.241,6.365-17.154,18.314-32.188,8.188c-13.935-9.377-25.156-18.72-23.293-37.3
	C519.938,562.305,519.568,557.896,519.568,553.524z M555.894,568.799c50.215-40.682,69.873-89.926,58.053-148.637
	c-12.203-60.631-48.074-103.043-107.361-125.72c-20.496-7.846-49.75,5.578-61.32-19.523c-9.459-20.514-1.72-45.025-3.498-67.683
	c-0.606-7.708,1.046-17.228-7.468-21.028c-8.358-3.733-15.111,3.012-20.82,8.127c-61.915,55.488-123.761,111.052-185.288,166.972
	c-12.992,11.8-14.732,25.225-0.444,38.083c61.815,55.669,123.606,111.361,185.485,166.949c5.086,4.567,10.346,10.704,18.274,6.658
	c7.258-3.699,7.696-11.257,7.801-18.322c0.306-21.028,0.424-42.058,0.499-63.087c0.049-12.465,3.631-22.529,17.161-25.937
	c44.513-11.177,88.84,17.153,98.429,62.206C558.011,540.155,556.053,552.16,555.894,568.799z"/>
<path fill="#FAF6F2" d="M555.894,568.799c0.159-16.639,2.117-28.644-0.499-40.938c-9.588-45.053-53.916-73.383-98.428-62.206
	c-13.531,3.406-17.113,13.472-17.161,25.937c-0.075,21.029-0.193,42.06-0.499,63.087c-0.104,7.065-0.543,14.623-7.801,18.322
	c-7.929,4.046-13.188-2.091-18.275-6.658c-61.879-55.588-123.669-111.28-185.484-166.949c-14.288-12.858-12.548-26.283,0.444-38.083
	c61.527-55.92,123.372-111.484,185.287-166.972c5.709-5.115,12.463-11.861,20.821-8.127c8.513,3.8,6.86,13.32,7.468,21.028
	c1.778,22.657-5.961,47.169,3.498,67.683c11.57,25.102,40.824,11.678,61.32,19.523c59.287,22.677,95.158,65.089,107.361,125.72
	C625.767,478.873,606.107,528.117,555.894,568.799z"/>
</svg>
