<?xml version="1.0" encoding="utf-8"?>
<!-- Generator: Adobe Illustrator 15.0.0, SVG Export Plug-In . SVG Version: 6.00 Build 0)  -->
<!DOCTYPE svg PUBLIC "-//W3C//DTD SVG 1.1//EN" "http://www.w3.org/Graphics/SVG/1.1/DTD/svg11.dtd">
<svg version="1.1" id="Layer_1" xmlns="http://www.w3.org/2000/svg" xmlns:xlink="http://www.w3.org/1999/xlink" x="0px" y="0px"
	 width="866.461px" height="728px" viewBox="0 0 866.461 728" enable-background="new 0 0 866.461 728" xml:space="preserve">
<path fill="#79231B" d="M453.314,715.83c-111.532-2.137-216.811-1.064-321.366-17.33c-66.416-10.342-72.717-11.563-81.213-76.328
	c-15.088-115.031-17.801-230.83-12.006-346.74c2.275-45.547,2.69-91.262,9.859-136.455c11.102-69.982,12.377-68.436,80.303-78.031
	C303.884,36.219,480.087,37.977,656.04,50.028c44.01,3.012,88.442,5.211,131.984,14.883c42.809,9.512,48.659,14.807,55.53,57.305
	c8.98,55.557,12.458,111.668,13.908,167.697c2.725,105.305,4.288,210.898-9.828,315.514c-11.301,83.758-5.307,78.498-88.307,92.803
	C655.952,716.041,551.332,713.811,453.314,715.83z M442.159,682.07c112.176,0.272,224.107-1.879,335.275-20.091
	c26.476-4.331,33.875-17.434,36.38-41.512c9.727-93.438,13.887-187.098,12.506-280.945c-1.041-70.945-4.354-141.871-15.062-212.15
	c-1.57-10.301-0.451-23.33-16.059-26.648c-19.371-4.119-38.364-13.457-57.663-13.871c-86.729-1.859-172.919-13.258-259.865-11.977
	c-120.975,1.799-242-0.244-361.861,21.242c-22.135,3.975-30.189,14.133-32.879,35.869C66.59,263.916,68.95,396.191,74.102,528.496
	c1.327,33.971,6.75,67.791,10.623,101.645c2.037,17.744,7.848,27.945,29.914,31.621C223.255,679.854,332.575,682.154,442.159,682.07
	z"/>
<path fill="#F28524" d="M442.159,682.07c-109.584,0.084-218.904-2.218-327.52-20.31c-22.066-3.676-27.877-13.877-29.914-31.621
	c-3.873-33.854-9.296-67.674-10.623-101.645c-5.152-132.306-7.512-264.58,8.83-396.508c2.689-21.736,10.744-31.895,32.879-35.869
	c119.861-21.486,240.887-19.443,361.861-21.242c86.946-1.281,173.136,10.117,259.865,11.977
	c19.299,0.414,38.292,9.752,57.663,13.871c15.606,3.318,14.487,16.348,16.059,26.648c10.708,70.279,14.021,141.205,15.062,212.15
	c1.381,93.848-2.779,187.508-12.506,280.945c-2.505,24.078-9.904,37.181-36.38,41.513
	C666.268,680.191,554.335,682.344,442.159,682.07z M616.914,282.043c-0.482-60.021-21.633-97.668-64.082-123.15
	c-58.904-35.369-167.135-26.947-218.907,17.236c-9.886,8.434-18.451,17.391-17.083,32.938
	c5.792,65.789,42.829,91.039,104.103,70.051c1.654-0.57,3.223-1.615,4.909-1.846c9.289-1.283,20.1-5.986,26.528,4.023
	c5.676,8.848-1.791,16.055-6.804,23.311c-13.899,20.133-33.032,36.607-42.942,59.43c-14.65,33.743-25.396,70.795-4.144,102.764
	c12.105,18.222,9.267,24.017-2.454,37.14c-26.24,29.383-23.587,73.739,4.34,102.526c28.783,29.68,73.121,31.092,106.745,2.111
	c20.441-17.619,38.285-64.678,14.486-98.246c-13.64-19.238-11.371-31.629-4.773-54.09c10.613-36.121,34.311-61.906,58.969-88.185
	C600.956,341.254,617.979,310.041,616.914,282.043z"/>
<path fill="#79231B" d="M616.914,282.043c1.064,27.998-15.958,59.211-41.109,86.014c-24.658,26.277-48.354,52.063-58.969,88.185
	c-6.598,22.461-8.865,34.852,4.773,54.09c23.799,33.568,5.955,80.627-14.486,98.246c-33.624,28.979-77.962,27.568-106.745-2.111
	c-27.927-28.787-30.58-73.145-4.34-102.526c11.721-13.123,14.561-18.919,2.454-37.14c-21.253-31.969-10.508-69.021,4.144-102.764
	c9.91-22.822,29.043-39.297,42.942-59.43c5.013-7.256,12.479-14.463,6.804-23.311c-6.43-10.01-17.239-5.307-26.528-4.023
	c-1.688,0.23-3.255,1.275-4.909,1.846c-61.272,20.988-98.311-4.262-104.103-70.051c-1.368-15.547,7.197-24.504,17.083-32.938
	c51.772-44.184,160.003-52.605,218.907-17.236C595.281,184.375,616.432,222.021,616.914,282.043z M458.015,451.773
	c19.1,4.766,29.726-4.416,34.38-27.236c3.644-17.859,15.547-33.096,28.16-46.762c13.646-14.779,28.45-28.629,40.908-44.346
	c43.803-55.25,23.441-132.201-42.166-154.818c-53.238-18.348-105.262-10.197-154.588,16.164c-7.073,3.775-12.95,8.01-12.808,17.861
	c0.434,29.973,23.797,47.203,51.595,37.682c7.41-2.545,15.096-4.654,22.827-5.83c21.628-3.283,42.979-2.666,56.529,17.752
	c13.826,20.814,5.902,40.037-7.854,57.918c-9.076,11.793-17.209,24.365-26.876,35.639c-14.833,17.297-22.229,37.539-25.66,59.451
	C417.476,447.113,421.931,451.943,458.015,451.773z M499.83,551.473c0.213-22.807-20.634-43.239-43.974-43.096
	c-23.507,0.141-44.451,20.232-44.698,42.883c-0.249,22.66,20.757,44.927,42.691,45.25
	C477.343,596.863,499.615,575.047,499.83,551.473z"/>
<path fill="#FAF6F2" d="M458.015,451.773c-36.084,0.17-40.539-4.66-35.552-36.525c3.431-21.912,10.827-42.154,25.66-59.451
	c9.667-11.273,17.8-23.846,26.876-35.639c13.757-17.881,21.681-37.104,7.854-57.918c-13.553-20.418-34.902-21.035-56.53-17.752
	c-7.731,1.176-15.417,3.285-22.827,5.83c-27.798,9.521-51.161-7.709-51.595-37.682c-0.144-9.852,5.733-14.086,12.808-17.861
	c49.326-26.361,101.35-34.512,154.588-16.164c65.607,22.617,85.969,99.568,42.166,154.818
	c-12.458,15.717-27.264,29.566-40.908,44.346c-12.613,13.666-24.518,28.902-28.159,46.762
	C487.739,447.357,477.113,456.539,458.015,451.773z"/>
<path fill="#FAF6F2" d="M499.83,551.473c-0.215,23.574-22.487,45.392-45.979,45.037c-21.936-0.323-42.94-22.59-42.691-45.25
	c0.247-22.649,21.191-42.742,44.698-42.883C479.196,508.232,500.043,528.666,499.83,551.473z"/>
</svg>
