<?xml version="1.0" encoding="utf-8"?>
<!-- Generator: Adobe Illustrator 15.0.0, SVG Export Plug-In . SVG Version: 6.00 Build 0)  -->
<!DOCTYPE svg PUBLIC "-//W3C//DTD SVG 1.1//EN" "http://www.w3.org/Graphics/SVG/1.1/DTD/svg11.dtd">
<svg version="1.1" id="Layer_1" xmlns="http://www.w3.org/2000/svg" xmlns:xlink="http://www.w3.org/1999/xlink" x="0px" y="0px"
	 width="866.461px" height="728px" viewBox="0 0 866.461 728" enable-background="new 0 0 866.461 728" xml:space="preserve">
<path fill="#79231B" d="M443.104,712.523c-92.925,0.963-186.008,2.612-278.421-9.726c-26.841-3.582-53.421-9.203-80.056-14.25
	c-20.802-3.942-29.811-17.088-33.268-37.975C31.484,530.486,33.666,409.529,35.016,288.539
	c0.601-53.553,4.486-106.797,11.563-159.867c6.494-48.697,11.998-55.59,59.435-64.572c119.61-22.662,240.706-21.906,361.71-21.777
	c92.055,0.096,183.956,3.047,275.229,16.422c14.467,2.117,29.006,3.908,43.371,6.596c40.164,7.506,45.521,12.016,52.803,53.16
	c13.352,75.424,14.868,151.736,14.689,228.1c-0.232,99.531,0.479,199.039-15.313,297.895c-4.455,27.901-18.092,41.488-44.447,46.871
	c-61.127,12.465-123.063,18.285-185.162,20.709C553.711,714.227,498.371,712.523,443.104,712.523z M448.863,681.328
	c63.164,1.506,140.377,0.043,217.345-6.08c39.999-3.189,79.661-10.633,119.468-16.238c14.346-2.022,19.295-10.506,21.379-24.885
	c6.626-45.854,10.478-91.885,12.54-138.104c5.331-119.354,3.335-238.486-8.902-357.454c-3.025-29.439-16.326-39.691-45.476-44.293
	C664.277,78.348,562.771,75.117,461.035,74.785c-114.9-0.379-229.635,0.848-343.649,19.719
	c-28.596,4.738-35.874,18.887-38.692,42.758C61.641,281.625,65.42,426.195,74.292,570.773c1.603,26.084,6.312,52.032,10.783,77.84
	c1.208,6.969,5.696,20.608,12.299,17.211c32.042-16.492,60.428,6.125,90.466,7.74C270.158,678.018,352.379,681.391,448.863,681.328z
	"/>
<path fill="#F28524" d="M448.863,681.328c-96.484,0.063-178.705-3.312-261.023-7.764c-30.038-1.615-58.424-24.232-90.466-7.74
	c-6.603,3.397-11.091-10.242-12.299-17.211c-4.472-25.808-9.181-51.756-10.783-77.84c-8.872-144.578-12.651-289.148,4.401-433.512
	c2.818-23.871,10.097-38.02,38.692-42.758c114.015-18.87,228.75-20.097,343.65-19.718c101.736,0.332,203.242,3.563,304.182,19.488
	c29.148,4.602,42.449,14.854,45.476,44.293c12.237,118.967,14.233,238.1,8.902,357.453c-2.063,46.222-5.914,92.25-12.54,138.105
	c-2.084,14.379-7.033,22.861-21.379,24.885c-39.807,5.605-79.469,13.049-119.468,16.238
	C589.24,681.371,512.027,682.834,448.863,681.328z M523.387,613.918c0,0.027,0,0.047,0,0.08c14.931,0,29.854,0.111,44.783-0.021
	c48.566-0.42,71.217-26.95,67.121-75.463c-2.279-27.022-1.455-54.342-1.336-81.52c0.051-12.133,3.217-22.93,18.977-22.834
	c15.916,0.096,29.355-3.348,34.669-21.425c5.301-18.021-3.261-30.153-14.837-41.942c-64.477-65.68-128.727-131.582-193.25-197.223
	c-28.806-29.301-40.59-29.361-69.311,0.469c-63.83,66.297-127.118,133.125-191.041,199.334
	c-11.346,11.752-18.176,24.36-12.465,40.063c6.324,17.384,20.955,22.521,38.326,20.636c17.203-1.853,23.262,5.528,22.842,22.656
	c-0.873,35.098,0.033,70.239-0.168,105.356c-0.07,12.793,2.553,23.635,12.086,33.346c22.383,22.787,48.65,21.959,75.645,13.043
	c25.281-8.362,32.938-29.961,33.896-53.94c0.789-19.943-1.582-40.021-0.478-59.926c0.418-7.525-4.543-22.476,12.113-20.607
	c12.685,1.412,9.463,12.865,9.629,21.055c0.385,19.285-0.285,38.601,0.19,57.884c0.979,39.69,20.444,59.5,59.933,60.877
	C488.254,614.422,505.832,613.918,523.387,613.918z"/>
<path fill="#79231B" d="M523.387,613.918c-17.555,0-35.133,0.504-52.674-0.102c-39.487-1.377-58.953-21.187-59.933-60.877
	c-0.477-19.283,0.193-38.599-0.19-57.884c-0.166-8.188,3.055-19.643-9.629-21.055c-16.656-1.867-11.695,13.082-12.113,20.607
	c-1.104,19.903,1.267,39.981,0.478,59.926c-0.958,23.979-8.615,45.578-33.896,53.94c-26.993,8.916-53.262,9.744-75.645-13.043
	c-9.533-9.711-12.156-20.553-12.086-33.346c0.201-35.117-0.705-70.26,0.168-105.356c0.42-17.128-5.639-24.509-22.842-22.656
	c-17.371,1.887-32.002-3.252-38.326-20.636c-5.711-15.703,1.119-28.313,12.465-40.063
	c63.923-66.209,127.211-133.037,191.041-199.334c28.721-29.83,40.505-29.77,69.311-0.469
	c64.523,65.641,128.773,131.543,193.25,197.223c11.576,11.789,20.138,23.922,14.837,41.942
	c-5.313,18.077-18.753,21.521-34.669,21.425c-15.76-0.096-18.926,10.701-18.977,22.834c-0.119,27.178-0.943,54.496,1.336,81.52
	c4.096,48.513-18.555,75.043-67.121,75.463c-14.929,0.132-29.854,0.021-44.783,0.021
	C523.387,613.965,523.387,613.945,523.387,613.918z M237.955,401.658c18.784,0,30.282,1.045,41.521-0.238
	c17.239-1.969,21.741,4.412,21.252,21.512c-1.252,43.789,0.103,87.64-0.318,131.455c-0.17,17.744,7.78,25.82,25.016,26.213
	c17.362,0.4,28.864-5.034,28.979-25.061c0.159-26.262,1.34-52.514,1.883-78.783c0.635-30.649,6.419-37.483,32.995-38.348
	c45.679-1.479,56.058,4.752,57.412,37.221c1.063,25.381,1.064,50.887-0.2,76.246c-1.005,20.119,6.113,29.064,26.844,28.547
	c32.424-0.807,64.892-0.67,97.316-0.006c22.731,0.463,30.977-9.873,30.261-32.092c-1.069-33.275-0.063-66.613-0.067-99.933
	c-0.004-46.624-0.055-46.604,45.638-47.646c1.198-0.025,2.361-1.783,4.994-3.898C585.633,329.123,519.832,261.6,454.291,193.83
	c-7.159-7.396-11.516-6.908-18.572,0.535C371.531,262.1,306.938,329.471,237.955,401.658z"/>
<path fill="#FAF6F2" d="M237.955,401.658c68.982-72.188,133.576-139.559,197.764-207.293c7.058-7.443,11.413-7.932,18.572-0.535
	c65.541,67.77,131.342,135.293,197.188,203.018c-2.633,2.115-3.796,3.873-4.994,3.898c-45.691,1.041-45.642,1.021-45.638,47.646
	c0.006,33.318-1.002,66.656,0.067,99.933c0.716,22.219-7.528,32.555-30.261,32.092c-32.427-0.664-64.894-0.801-97.316,0.006
	c-20.729,0.519-27.849-8.428-26.844-28.547c1.266-25.359,1.263-50.865,0.2-76.246c-1.354-32.469-11.733-38.699-57.412-37.221
	c-26.576,0.862-32.36,7.696-32.995,38.348c-0.543,26.271-1.724,52.521-1.883,78.783c-0.115,20.024-11.617,25.461-28.979,25.061
	c-17.234-0.393-25.186-8.469-25.016-26.213c0.421-43.815-0.934-87.666,0.317-131.455c0.489-17.1-4.013-23.48-21.251-21.512
	C268.237,402.703,256.739,401.658,237.955,401.658z M523.377,517.758c40.074-0.166,45.584-5.328,45.369-42.496
	c-0.209-35.813-4.396-38.842-53.779-38.895c-26.744-0.033-33.421,8.17-33.163,40.701
	C482.078,511.92,488.193,517.898,523.377,517.758z"/>
<path fill="#79231B" d="M523.377,517.758c-35.184,0.142-41.299-5.838-41.573-40.688c-0.258-32.531,6.419-40.734,33.163-40.701
	c49.383,0.053,53.57,3.082,53.779,38.895C568.961,512.43,563.451,517.592,523.377,517.758z"/>
</svg>
