<?xml version="1.0" encoding="utf-8"?>
<!-- Generator: Adobe Illustrator 15.0.0, SVG Export Plug-In . SVG Version: 6.00 Build 0)  -->
<!DOCTYPE svg PUBLIC "-//W3C//DTD SVG 1.1//EN" "http://www.w3.org/Graphics/SVG/1.1/DTD/svg11.dtd">
<svg version="1.1" id="Layer_1" xmlns="http://www.w3.org/2000/svg" xmlns:xlink="http://www.w3.org/1999/xlink" x="0px" y="0px"
	 width="866.461px" height="728px" viewBox="0 0 866.461 728" enable-background="new 0 0 866.461 728" xml:space="preserve">
<path fill="#79231B" d="M444.098,711.289c-99.147,1.744-198.417,1.424-296.514-14.041C42.064,680.611,57.861,684.33,47.541,590.285
	C30.488,434.908,30.91,278.795,50.922,123.25c6.223-48.334,17.465-57.768,78.117-65.957
	c170.168-22.977,340.904-19.287,511.764-11.434c50.842,2.332,101.099,8.91,151.285,16.998c29.498,4.744,46.641,18.32,51.375,49.705
	c9.988,66.088,13.81,132.488,14.404,199.123c0.979,108.736,3.158,217.592-14.908,325.441c-6.506,38.863-12.512,44.9-50.633,52.508
	c-76.729,15.31-154.492,20.16-232.51,21.539C521.252,711.85,482.668,711.289,444.098,711.289z M71.529,370.6
	c0,9.65,0,19.299,0,28.947c-0.02,72.732,3.787,145.238,11.461,217.576c2.498,23.531,8.373,38.846,37.396,43.293
	c58.941,9.018,118.146,15.037,177.416,16.971c127.717,4.188,255.595,4.67,383.125-4.926c36.324-2.736,73.002-6.99,108.695-16.531
	c15.432-4.127,19.41-12.914,21.688-27.752c7.302-47.596,10.572-95.438,12.548-143.405c4.973-121.025,3.864-241.813-12.162-362.213
	c-2.537-19.041-11.558-25.033-27.738-28.1c-43.084-8.17-86.65-12.492-130.256-16.063c-99.797-8.164-199.84-5.795-299.812-5.531
	c-77.018,0.203-153.434,7.432-229.731,18.723c-30.23,4.479-38.307,18.906-41.734,45.52C72.412,214.711,70.803,292.57,71.529,370.6z"
	/>
<path fill="#F28524" d="M71.549,370.607c-0.746-78.038,0.863-155.896,10.877-233.5c3.428-26.613,11.504-41.041,41.734-45.52
	c76.299-11.291,152.715-18.52,229.731-18.723c99.972-0.264,200.015-2.633,299.812,5.531c43.604,3.57,87.172,7.893,130.256,16.063
	c16.182,3.066,25.201,9.059,27.738,28.1c16.026,120.4,17.135,241.188,12.162,362.212c-1.976,47.97-5.246,95.812-12.548,143.406
	c-2.278,14.838-6.258,23.625-21.688,27.752c-35.693,9.541-72.371,13.795-108.695,16.531c-127.531,9.596-255.408,9.113-383.125,4.926
	c-59.27-1.934-118.475-7.953-177.416-16.971c-29.023-4.447-34.898-19.762-37.396-43.293c-7.674-72.338-11.48-144.844-11.461-217.576
	C71.529,389.898,71.529,380.25,71.549,370.607z M414.191,281.447c-23.56,14.068-41.854,29.322-41.814,57.869
	c0.129,81.656-0.352,163.311,0.197,244.949c0.217,32.341,20.928,54.66,53.281,57.379c20.93,1.761,42.209,1.705,63.155,0.14
	c30.611-2.289,52.455-26.467,54.654-56.888c5.387-74.534,0.902-149.151,2.367-223.714c0.69-35.51-7.125-65.973-45.717-79.299
	c50.954-42.717,59.526-94.857,23.643-136.016c-31.654-36.289-91.445-40.633-124.389-4.689
	C360.523,183.781,352.633,222.141,414.191,281.447z"/>
<path fill="#79231B" d="M414.191,281.447c-61.56-59.307-53.668-97.666-14.621-140.271c32.942-35.943,92.733-31.6,124.389,4.689
	c35.885,41.158,27.313,93.299-23.643,136.016c38.592,13.326,46.407,43.789,45.717,79.299c-1.465,74.563,3.02,149.18-2.367,223.714
	c-2.199,30.421-24.043,54.599-54.654,56.888c-20.946,1.565-42.227,1.621-63.156-0.14c-32.354-2.719-53.063-25.038-53.28-57.379
	c-0.549-81.639-0.068-163.293-0.197-244.949C372.338,310.77,390.633,295.516,414.191,281.447z M405.053,460.629
	c0.297,0,0.604-0.008,0.9-0.008c0,25.44,0.26,50.881-0.039,76.307c-0.938,80.107-2.156,69.996,73.85,70.871
	c21.892,0.244,32.187-10.037,32.205-31.832c0.068-75.393,0.334-150.783,0.652-226.174c0.094-23.314-8.992-36.609-34.525-34.674
	c-13.092,0.998-26.356,1.16-39.438,0.217c-23.644-1.709-33.972,8.863-33.72,32.172C405.346,385.211,405.053,422.92,405.053,460.629z
	 M457.207,150.529c-29.729,0.469-52.488,23.967-51.945,53.65c0.523,28.539,25.711,53.504,53.648,53.172
	c30.402-0.367,54.854-25.867,53.602-55.895C511.291,172.184,487.262,150.055,457.207,150.529z"/>
<path fill="#FAF6F2" d="M405.053,460.629c0-37.709,0.293-75.418-0.114-113.121c-0.253-23.309,10.075-33.881,33.719-32.172
	c13.082,0.943,26.348,0.781,39.438-0.217c25.533-1.936,34.619,11.359,34.525,34.674c-0.318,75.391-0.584,150.781-0.652,226.174
	c-0.02,21.795-10.313,32.076-32.205,31.832c-76.006-0.875-74.787,9.236-73.85-70.871c0.299-25.426,0.039-50.864,0.039-76.307
	C405.656,460.621,405.35,460.629,405.053,460.629z"/>
<path fill="#FAF6F2" d="M457.207,150.529c30.055-0.475,54.084,21.654,55.305,50.928c1.254,30.027-23.198,55.527-53.602,55.895
	c-27.938,0.332-53.125-24.633-53.648-53.172C404.719,174.496,427.479,150.998,457.207,150.529z"/>
</svg>
