<?xml version="1.0" encoding="utf-8"?>
<!-- Generator: Adobe Illustrator 15.0.0, SVG Export Plug-In . SVG Version: 6.00 Build 0)  -->
<!DOCTYPE svg PUBLIC "-//W3C//DTD SVG 1.1//EN" "http://www.w3.org/Graphics/SVG/1.1/DTD/svg11.dtd">
<svg version="1.1" id="Layer_1" xmlns="http://www.w3.org/2000/svg" xmlns:xlink="http://www.w3.org/1999/xlink" x="0px" y="0px"
	 width="866.461px" height="728px" viewBox="0 0 866.461 728" enable-background="new 0 0 866.461 728" xml:space="preserve">
<path fill="#79231B" d="M449.008,703.553c-109.58,0.42-219.388,1.994-327.938-17.155c-11.18-1.972-22.365-4.064-33.369-6.82
	c-19.654-4.918-31.025-16.326-34.506-37.726C34.633,527.822,35.234,412.949,36.473,298.019c0.443-41.183-1.047-82.563,2.602-123.475
	c2.816-31.608,11.458-62.833,19.115-93.825c3.885-15.716,19.188-19.027,32.878-22.605c42.595-11.136,86.342-15.914,129.921-19.137
	c113.89-8.427,228.135-9.446,342.145-4.811c79.451,3.229,159.34,5.628,237.539,24.175c24.087,5.71,35.398,18.67,39.187,42.312
	c22.067,137.793,17.467,276.396,12.683,414.929c-1.388,40.16-6.073,80.248-12.011,120.186
	c-4.178,28.117-19.476,40.492-45.689,45.832c-76.814,15.654-154.516,20.925-232.635,21.875
	C524.48,703.932,486.74,703.553,449.008,703.553z M446.006,670.902c20.193,0,40.396,0.106,60.593-0.021
	c92.979-0.588,185.772-3.281,277.518-20.879c15.014-2.877,22.084-8.959,24.984-24.783c8.266-45.069,9.673-90.572,11.764-136.076
	c5.639-122.808,5.342-245.343-10.095-367.71c-3.342-26.484-16.274-32.453-37.711-36.09C702.041,73.296,630.22,68.187,558.558,65.607
	c-106.133-3.817-212.47-2.632-318.528,4.666c-38.408,2.646-76.924,6.701-114.795,13.456c-41.361,7.379-40.014,9.252-45.465,50.47
	c-9.336,70.593-10.768,141.436-10.207,212.456c0.543,69.277-4.539,139.222,6.467,207.579
	c16.611,103.151-17.385,90.412,94.211,105.67C261.665,672.404,353.922,671.197,446.006,670.902z"/>
<path fill="#F28524" d="M446.006,670.902c-92.084,0.295-184.341,1.502-275.766-11c-111.596-15.259-77.6-2.519-94.211-105.67
	c-11.006-68.355-5.924-138.301-6.467-207.579c-0.561-71.02,0.871-141.863,10.207-212.456c5.451-41.217,4.104-43.09,45.465-50.47
	c37.871-6.755,76.387-10.81,114.795-13.456c106.059-7.298,212.396-8.482,318.528-4.666c71.662,2.579,143.483,7.689,214.501,19.733
	c21.437,3.638,34.369,9.606,37.711,36.09c15.437,122.369,15.732,244.904,10.095,367.71c-2.09,45.504-3.498,91.006-11.764,136.076
	c-2.9,15.824-9.972,21.906-24.984,24.783c-91.744,17.598-184.537,20.291-277.518,20.879
	C486.402,671.01,466.199,670.902,446.006,670.902z M256.932,442.207c-33.021,31.695-39.252,73.395-15.83,105.93
	c19.906,27.656,52.674,32.138,92.84,11.343c11.892-6.154,19.96-8.363,31.817,1.954c10.172,8.855,25.48,9.781,39.932,9.662
	c57.927-0.475,115.864-0.457,173.796-0.146c26.856,0.141,53.159-4.139,63.436-31.73c10.65-28.578,16.365-60.057-7.719-85.924
	c-9.98-10.719-7.125-15.318,0.85-25.037c19.121-23.297,20.465-71.223,1.352-93.742c-10.857-12.798-10.03-18.949-0.244-31.757
	c20.149-26.367,16.622-57.297,3.674-84.793c-11.021-23.411-34.211-28.934-60.275-28.392c-53.322,1.1-106.707-1.265-160.05-0.756
	c-22.365,0.214-46.225-1.385-63.475,18.491c-8.311,9.582-13.478-0.071-19.652-3.865c-36.331-22.325-70.592-17.632-96.158,13.04
	c-20.479,24.571-17.725,61.87,7.692,90.848c7.081,8.075,11.384,11.886,1.323,22.62C217.473,364.91,221.008,409.363,256.932,442.207z
	"/>
<path fill="#79231B" d="M256.932,442.207c-35.924-32.844-39.459-77.297-6.693-112.255c10.061-10.734,5.758-14.545-1.323-22.62
	c-25.417-28.979-28.171-66.277-7.692-90.848c25.566-30.672,59.827-35.365,96.158-13.04c6.176,3.794,11.343,13.447,19.652,3.865
	c17.25-19.875,41.108-18.277,63.475-18.491c53.343-0.509,106.728,1.855,160.05,0.756c26.064-0.542,49.257,4.981,60.275,28.392
	c12.948,27.496,16.477,58.426-3.674,84.793c-9.786,12.809-10.613,18.959,0.244,31.757c19.113,22.519,17.771,70.445-1.352,93.742
	c-7.975,9.719-10.83,14.318-0.85,25.037c24.084,25.867,18.369,57.346,7.719,85.924c-10.275,27.592-36.578,31.871-63.436,31.73
	c-57.932-0.312-115.869-0.328-173.796,0.146c-14.45,0.119-29.76-0.807-39.932-9.662c-11.857-10.317-19.927-8.108-31.817-1.955
	c-40.167,20.795-72.935,16.314-92.84-11.342C217.68,515.602,223.91,473.902,256.932,442.207z M497.136,467.311
	c0-0.022,0-0.059,0-0.081c-28.923,0-57.882,0.85-86.759-0.261c-24.117-0.934-35.531,7.793-34.799,33.164
	c0.869,30.185,5.666,37.424,33.354,37.695c58.715,0.578,117.441,0.395,176.159,0.713c24.083,0.129,31.622-13.463,31.714-35.271
	c0.081-21.187-5.26-36.269-30.295-36.025C556.719,467.531,526.93,467.311,497.136,467.311z M496.369,415.836
	c28.918,0,57.84,0.234,86.754-0.074c25.16-0.271,33.609-9.775,33.539-35.543c-0.068-22.702-7.93-36.189-33.719-35.849
	c-58.707,0.773-117.439,0.732-176.138-0.17c-25.2-0.384-30.896,12.78-31.205,34.532c-0.32,22.576,4.881,37.793,31.431,37.269
	C436.801,415.408,466.586,415.861,496.369,415.836z M494.666,292.566c31.518,0,63.027,0.041,94.537-0.01
	c24.045-0.042,28.707-15.845,28.12-35.34c-0.565-18.759-3.848-35.252-28.528-35.191c-61.265,0.156-122.545,0.058-183.809-0.424
	c-25.244-0.204-30.693,15.152-30.544,35.952c0.148,20.703,5.354,36.049,30.939,35.296
	C435.121,291.972,464.904,292.64,494.666,292.566z M330.498,378.941c-0.631-18.784-17.117-34.626-35.986-34.585
	c-17.311,0.034-34.454,18.67-33.484,36.399c1.016,18.47,18.427,35.491,35.646,34.843
	C315.254,414.893,331.125,397.688,330.498,378.941z M330.548,503.592c0.299-19.211-15.722-35.981-34.349-35.955
	c-19.137,0.029-35.633,16.263-34.795,35.293c0.916,20.681,14.053,31.824,32.908,34.718
	C312.115,540.377,330.273,522.004,330.548,503.592z M294.634,292.886c19.771,0.698,37.532-16.457,37.454-36.18
	c-0.065-17.629-17.758-34.417-36.426-34.574c-19.299-0.159-34.927,15.16-35.357,34.672
	C259.888,275.696,275.59,292.207,294.634,292.886z M349.321,424.418c-6.444,5.668-17.999,8.496-16.178,17.83
	c1.144,5.854,10.349,13.289,16.728,14.154c7.746,1.053,14.074-8.101,14.074-15.479C363.947,433.43,356.915,427.973,349.321,424.418z
	 M366.459,315.666c-6.416-3.793-8.639-14.89-17.508-12.646c-6.604,1.669-14.877,8.662-13.965,16.514
	c0.686,5.896,7.661,13.167,14.848,12.659C357.641,331.628,362.652,324.765,366.459,315.666z"/>
<path fill="#FAF6F2" d="M497.136,467.311c29.794,0,59.583,0.222,89.374-0.065c25.035-0.242,30.376,14.84,30.295,36.024
	c-0.092,21.81-7.631,35.4-31.714,35.271c-58.718-0.318-117.443-0.135-176.159-0.713c-27.688-0.271-32.483-7.512-33.354-37.695
	c-0.732-25.371,10.682-34.098,34.799-33.164c28.877,1.109,57.836,0.261,86.759,0.261
	C497.136,467.252,497.136,467.287,497.136,467.311z"/>
<path fill="#FAF6F2" d="M496.369,415.85c-29.783,0.012-59.568-0.44-89.338,0.15c-26.55,0.525-31.751-14.691-31.431-37.268
	c0.31-21.753,6.005-34.917,31.205-34.533c58.697,0.902,117.431,0.943,176.138,0.17c25.789-0.34,33.649,13.147,33.719,35.849
	c0.07,25.769-8.379,35.272-33.539,35.544C554.209,416.07,525.287,415.836,496.369,415.85z"/>
<path fill="#FAF6F2" d="M494.666,292.606c-29.762,0.034-59.545-0.634-89.283,0.241c-25.586,0.753-30.791-14.593-30.939-35.296
	c-0.149-20.8,5.3-36.155,30.544-35.952c61.264,0.482,122.544,0.58,183.809,0.424c24.683-0.062,27.963,16.432,28.528,35.191
	c0.587,19.495-4.075,35.299-28.12,35.34C557.693,292.606,526.184,292.566,494.666,292.606z"/>
<path fill="#FAF6F2" d="M330.498,378.941c0.627,18.746-15.244,35.951-33.824,36.656c-17.22,0.648-34.631-16.373-35.646-34.843
	c-0.97-17.729,16.174-36.366,33.484-36.399C313.381,344.315,329.867,360.157,330.498,378.941z"/>
<path fill="#FAF6F2" d="M330.548,503.592c-0.273,18.412-18.433,36.785-36.235,34.056c-18.855-2.894-31.992-14.037-32.908-34.718
	c-0.838-19.03,15.658-35.264,34.795-35.293C314.826,467.609,330.847,484.381,330.548,503.592z"/>
<path fill="#FAF6F2" d="M294.634,292.886c-19.044-0.679-34.746-17.188-34.329-36.081c0.431-19.513,16.059-34.831,35.357-34.672
	c18.668,0.156,36.359,16.945,36.426,34.574C332.166,276.429,314.404,293.584,294.634,292.886z"/>
<path fill="#F28524" d="M349.321,424.418c7.594,3.555,14.626,9.012,14.624,16.506c0,7.379-6.328,16.531-14.074,15.479
	c-6.379-0.865-15.584-8.299-16.728-14.154C331.322,432.914,342.877,430.086,349.321,424.418z"/>
<path fill="#F28524" d="M366.459,315.666c-3.807,9.099-8.818,15.963-16.625,16.526c-7.187,0.509-14.162-6.763-14.848-12.659
	c-0.912-7.852,7.361-14.844,13.965-16.514C357.82,300.776,360.043,311.872,366.459,315.666z"/>
</svg>
