<?xml version="1.0" encoding="utf-8"?>
<!-- Generator: Adobe Illustrator 15.0.0, SVG Export Plug-In . SVG Version: 6.00 Build 0)  -->
<!DOCTYPE svg PUBLIC "-//W3C//DTD SVG 1.1//EN" "http://www.w3.org/Graphics/SVG/1.1/DTD/svg11.dtd">
<svg version="1.1" id="Layer_1" xmlns="http://www.w3.org/2000/svg" xmlns:xlink="http://www.w3.org/1999/xlink" x="0px" y="0px"
	 width="866.461px" height="728px" viewBox="0 0 866.461 728" enable-background="new 0 0 866.461 728" xml:space="preserve">
<path fill="#79231B" d="M438.268,701.107c-92.925,0.964-186.009,2.612-278.421-9.725c-26.841-3.583-53.421-9.204-80.056-14.251
	c-20.802-3.941-29.811-17.087-33.268-37.974C26.647,519.07,28.829,398.113,30.179,277.123
	c0.601-53.553,4.486-106.796,11.563-159.866c6.494-48.697,11.998-55.591,59.435-64.573c119.61-22.661,240.706-21.905,361.711-21.776
	c92.055,0.096,183.956,3.046,275.229,16.422c14.467,2.116,29.006,3.907,43.371,6.596c40.164,7.505,45.521,12.016,52.803,53.16
	c13.352,75.423,14.868,151.736,14.689,228.099c-0.232,99.532,0.479,199.04-15.313,297.895
	c-4.455,27.903-18.092,41.489-44.447,46.871c-61.127,12.465-123.063,18.286-185.162,20.71
	C548.874,702.811,493.534,701.107,438.268,701.107z M444.026,669.912c63.164,1.507,140.377,0.043,217.345-6.08
	c39.999-3.188,79.661-10.632,119.468-16.237c14.345-2.023,19.295-10.506,21.379-24.885c6.626-45.856,10.478-91.886,12.54-138.105
	c5.331-119.354,3.335-238.485-8.902-357.454c-3.025-29.438-16.326-39.691-45.476-44.292C659.44,66.932,557.935,63.701,456.198,63.37
	c-114.9-0.38-229.635,0.847-343.649,19.719c-28.596,4.737-35.874,18.886-38.692,42.757
	c-17.053,144.363-13.274,288.933-4.402,433.512c1.603,26.084,6.312,52.032,10.783,77.839c1.208,6.97,5.696,20.608,12.299,17.211
	c32.042-16.491,60.428,6.126,90.466,7.741C265.321,666.602,347.542,669.975,444.026,669.912z"/>
<path fill="#F28524" d="M444.026,669.912c-96.484,0.063-178.706-3.312-261.023-7.763c-30.038-1.615-58.424-24.232-90.466-7.741
	c-6.603,3.397-11.091-10.241-12.299-17.211c-4.472-25.807-9.181-51.755-10.783-77.839c-8.872-144.579-12.651-289.149,4.401-433.514
	c2.818-23.871,10.097-38.02,38.692-42.757c114.015-18.871,228.75-20.098,343.65-19.718c101.735,0.331,203.242,3.562,304.182,19.488
	c29.148,4.601,42.449,14.854,45.476,44.292c12.237,118.968,14.233,238.1,8.902,357.455c-2.063,46.22-5.914,92.248-12.54,138.104
	c-2.084,14.379-7.034,22.86-21.379,24.885c-39.807,5.605-79.469,13.049-119.468,16.237
	C584.403,669.955,507.19,671.419,444.026,669.912z M518.55,602.503c0,0.027,0,0.047,0,0.08c14.931,0,29.854,0.11,44.783-0.02
	c48.566-0.421,71.217-26.952,67.121-75.465c-2.279-27.022-1.455-54.341-1.336-81.519c0.051-12.134,3.217-22.931,18.977-22.835
	c15.916,0.096,29.355-3.347,34.669-21.423c5.301-18.022-3.261-30.155-14.837-41.943c-64.477-65.68-128.727-131.581-193.25-197.222
	c-28.806-29.301-40.59-29.361-69.311,0.468c-63.83,66.298-127.118,133.126-191.041,199.335
	c-11.346,11.752-18.176,24.36-12.465,40.063c6.324,17.384,20.955,22.521,38.326,20.636c17.203-1.853,23.262,5.529,22.842,22.656
	c-0.873,35.098,0.033,70.239-0.168,105.356c-0.07,12.792,2.553,23.635,12.086,33.346c22.383,22.786,48.651,21.958,75.645,13.042
	c25.281-8.361,32.938-29.96,33.896-53.94c0.789-19.942-1.582-40.021-0.478-59.925c0.418-7.525-4.543-22.477,12.113-20.608
	c12.684,1.412,9.463,12.866,9.629,21.055c0.385,19.286-0.285,38.602,0.19,57.885c0.979,39.689,20.444,59.499,59.933,60.877
	C483.417,603.006,500.995,602.503,518.55,602.503z"/>
<path fill="#79231B" d="M518.55,602.503c-17.555,0-35.133,0.503-52.674-0.102c-39.487-1.378-58.953-21.188-59.933-60.877
	c-0.477-19.283,0.193-38.599-0.19-57.885c-0.166-8.188,3.055-19.643-9.629-21.055c-16.656-1.867-11.695,13.083-12.113,20.608
	c-1.104,19.903,1.267,39.981,0.478,59.925c-0.958,23.98-8.615,45.579-33.896,53.94c-26.993,8.916-53.262,9.744-75.645-13.042
	c-9.533-9.711-12.156-20.554-12.086-33.346c0.201-35.117-0.705-70.26,0.168-105.357c0.42-17.127-5.639-24.509-22.842-22.655
	c-17.371,1.887-32.002-3.252-38.326-20.637c-5.711-15.701,1.119-28.312,12.465-40.063
	c63.923-66.209,127.211-133.037,191.041-199.335c28.721-29.829,40.505-29.769,69.311-0.468
	C539.2,227.798,603.45,293.699,667.927,359.38c11.576,11.788,20.138,23.921,14.837,41.943
	c-5.313,18.075-18.753,21.519-34.669,21.423c-15.76-0.096-18.926,10.701-18.977,22.835c-0.119,27.178-0.943,54.495,1.336,81.519
	c4.096,48.513-18.555,75.044-67.121,75.464c-14.929,0.131-29.854,0.021-44.783,0.021C518.55,602.55,518.55,602.53,518.55,602.503z
	 M233.118,390.243c18.784,0,30.282,1.044,41.521-0.239c17.239-1.968,21.741,4.412,21.252,21.514
	c-1.251,43.787,0.103,87.639-0.318,131.453c-0.17,17.745,7.78,25.821,25.016,26.214c17.362,0.399,28.864-5.035,28.979-25.062
	c0.158-26.261,1.34-52.513,1.883-78.782c0.635-30.65,6.419-37.483,32.995-38.348c45.679-1.479,56.058,4.752,57.412,37.221
	c1.063,25.38,1.064,50.887-0.2,76.246c-1.005,20.118,6.113,29.064,26.844,28.547c32.424-0.807,64.891-0.671,97.316-0.007
	c22.731,0.463,30.977-9.873,30.261-32.091c-1.069-33.275-0.063-66.614-0.067-99.933c-0.004-46.625-0.055-46.605,45.638-47.646
	c1.198-0.024,2.361-1.783,4.994-3.897c-65.847-67.726-131.646-135.25-197.188-203.02c-7.159-7.396-11.516-6.908-18.572,0.535
	C366.694,250.684,302.101,318.056,233.118,390.243z"/>
<path fill="#FAF6F2" d="M233.118,390.243c68.981-72.188,133.576-139.56,197.764-207.294c7.058-7.443,11.413-7.932,18.572-0.535
	c65.541,67.77,131.342,135.294,197.188,203.02c-2.633,2.114-3.796,3.873-4.994,3.897c-45.691,1.04-45.642,1.021-45.638,47.646
	c0.006,33.317-1.002,66.656,0.067,99.933c0.716,22.218-7.528,32.554-30.261,32.091c-32.427-0.664-64.894-0.8-97.316,0.007
	c-20.73,0.519-27.849-8.429-26.844-28.547c1.266-25.359,1.263-50.866,0.2-76.246c-1.354-32.469-11.733-38.7-57.412-37.221
	c-26.576,0.863-32.36,7.696-32.995,38.348c-0.543,26.271-1.725,52.521-1.883,78.782c-0.115,20.025-11.617,25.461-28.979,25.062
	c-17.235-0.393-25.186-8.469-25.016-26.214c0.421-43.814-0.933-87.666,0.318-131.453c0.489-17.102-4.013-23.48-21.252-21.514
	C263.4,391.287,251.902,390.243,233.118,390.243z M518.54,506.342c40.074-0.165,45.584-5.327,45.369-42.495
	c-0.209-35.813-4.396-38.842-53.779-38.895c-26.744-0.034-33.421,8.17-33.163,40.701
	C477.241,500.505,483.356,506.482,518.54,506.342z"/>
<path fill="#79231B" d="M518.54,506.342c-35.184,0.142-41.299-5.837-41.573-40.688c-0.258-32.531,6.419-40.735,33.163-40.701
	c49.383,0.053,53.57,3.081,53.779,38.895C564.124,501.015,558.614,506.177,518.54,506.342z"/>
</svg>
