<?xml version="1.0" encoding="utf-8"?>
<!-- Generator: Adobe Illustrator 15.0.0, SVG Export Plug-In . SVG Version: 6.00 Build 0)  -->
<!DOCTYPE svg PUBLIC "-//W3C//DTD SVG 1.1//EN" "http://www.w3.org/Graphics/SVG/1.1/DTD/svg11.dtd">
<svg version="1.1" id="Layer_1" xmlns="http://www.w3.org/2000/svg" xmlns:xlink="http://www.w3.org/1999/xlink" x="0px" y="0px"
	 width="818.5px" height="1012.75px" viewBox="0 0 818.5 1012.75" enable-background="new 0 0 818.5 1012.75" xml:space="preserve">
<path fill="#79231B" d="M410.166,1012.673c-107.725-2.438-215.715-0.599-322.455-19.377c-9.439-1.662-18.836-3.584-28.236-5.478
	c-23.846-4.806-37.186-17.138-41.115-43.345C-0.721,817.346-2.744,689.654,2.48,561.613c1.895-46.384,5.313-92.612,12.086-138.654
	c6.535-44.464,14.684-54.67,59.404-62.548c111.943-19.723,225.014-21.419,338.23-21.206c108.797,0.208,217.416,2.583,325.115,20.463
	c60.754,10.087,66.061,16.762,73.334,78.065c12.352,104.02,11.801,208.354,10.52,312.768c-0.789,64.063-5.314,127.78-15.08,191.221
	c-4.479,29.103-20.109,41.589-47.605,47.146c-106.41,21.494-214.275,21.187-321.994,23.785
	C427.721,1012.86,418.939,1012.673,410.166,1012.673z M410.627,977.716c78.064,0.276,156.129,0.062,233.969-6.476
	c32.213-2.698,64.32-6.868,96.332-11.416c19.189-2.729,32.518-10.205,35.197-33.978c7.191-63.59,12.377-127.207,13.307-191.166
	c1.467-101.787-1.023-203.352-12.479-304.707c-3.025-26.808-15.619-34.187-39.301-38.082
	c-71.998-11.854-144.566-16.104-217.236-18.62c-146.457-5.063-292.725-4.266-438.098,18.439
	c-20.941,3.274-31.867,11.569-35.354,33.814c-9.543,60.797-10.914,121.947-11.727,183.2c-1.359,102.56-0.475,205.024,11.469,307.11
	c4.301,36.774,9.057,40.28,46.658,45.647C198.685,976.522,304.572,978.305,410.627,977.716z"/>
<path fill="#F28524" d="M410.635,977.678c-106.063,0.627-211.949-1.155-317.271-16.19c-37.602-5.367-42.357-8.873-46.658-45.647
	c-11.944-102.087-12.829-204.552-11.47-307.112c0.813-61.253,2.184-122.403,11.727-183.2c3.486-22.245,14.412-30.54,35.354-33.814
	c145.373-22.706,291.641-23.503,438.098-18.439c72.67,2.517,145.238,6.766,217.236,18.62c23.682,3.896,36.273,11.274,39.301,38.082
	c11.455,101.356,13.945,202.92,12.479,304.707c-0.93,63.959-6.113,127.576-13.307,191.166
	c-2.682,23.771-16.008,31.248-35.197,33.978c-32.012,4.548-64.119,8.718-96.331,11.416
	C566.756,977.776,488.691,977.993,410.635,977.678z"/>
<path fill="#79231B" d="M476.604,446.706c9.857,17.181,20.956,32.806,20.355,53.546c-0.771,26.312,0.411,52.687-0.475,78.998
	c-0.465,13.892,4.443,18.28,18.147,17.868c28.057-0.85,56.175-0.621,84.246-0.041c35.943,0.742,59.167,23.468,59.504,59.196
	c0.224,22.688,2.689,45.558-2.797,68.132c-8.284,34.065-14.836,40.25-50.683,41.443c-28.908,0.964-57.881,0.882-86.8,0.229
	c-18.297-0.412-24.407,7.055-23.191,25.149c1.704,25.332,1.259,50.829,1.464,76.26c0.261,34.089-16.729,55.009-49.89,60.177
	c-16.358,2.546-32.994,4.068-49.543,4.513c-44.572,1.196-70.903-24.702-70.839-68.927c0.04-25.457-0.176-50.941,0.943-76.357
	c0.663-15.019-4.64-20.206-19.714-19.619c-26.296,1.024-52.663,0.76-78.989,0.202c-40.89-0.854-63.613-23.154-64.921-63.473
	c-0.51-15.779-0.507-31.641,0.513-47.383c2.386-36.848,26.219-59.145,63.301-59.616c25.445-0.32,50.969-1.128,76.337,0.354
	c17.762,1.046,24.9-3.188,23.545-22.564c-1.826-26.202-1.096-52.649-0.297-78.96c1.117-36.859,22.084-58.892,58.594-61.374
	c18.342-1.251,36.88-1.008,55.264-0.068C453.676,435.048,466.447,438.293,476.604,446.706z M455.937,476.371
	c-5.852-7.369-14.229-9.25-23.289-9.225c-14.029,0.032-28.066,0.533-42.08,0.213c-22.264-0.517-31.643,9.994-31.074,32.178
	c0.828,32.4-0.117,64.841,0.458,97.24c0.416,23.33-10.568,33.777-33.441,33.313c-21.031-0.427-42.068-0.503-63.104-0.569
	c-70.253-0.221-68.656-1.367-68.074,67.393c0.226,26.316,8.986,36.36,35.428,36.815c29.8,0.511,59.607,0.178,89.417,0.032
	c35.303-0.174,40.683,5.313,40.207,41.351c-0.229,17.46-0.486,34.916-0.439,52.382c0.198,75.129-3.807,67.333,71.407,68.301
	c22.911,0.29,31.59-9.928,31.302-31.521c-0.433-31.504-0.191-63.02-0.254-94.539c-0.056-26.938,7.807-35.543,34.874-36.361
	c20.148-0.608,40.332-0.445,60.479-0.073c68.954,1.26,69.405,0.396,67.578-69.427c-0.609-23.156-10.213-33.77-33.393-33.456
	c-31.551,0.416-63.131-0.552-94.668,0.075c-22.794,0.463-34.371-8.515-33.868-32.341c0.663-31.552,0.408-63.12,0.249-94.68
	C463.604,493.941,464.46,483.884,455.937,476.371z"/>
<path fill="#FAF6F2" d="M455.937,476.371c8.522,7.513,7.668,17.57,7.717,27.099c0.161,31.561,0.415,63.129-0.249,94.68
	c-0.503,23.826,11.073,32.805,33.868,32.342c31.537-0.629,63.118,0.339,94.667-0.076c23.181-0.313,32.783,10.3,33.394,33.457
	c1.827,69.821,1.375,70.686-67.579,69.426c-20.147-0.371-40.33-0.534-60.479,0.074c-27.068,0.817-34.93,9.424-34.874,36.361
	c0.062,31.52-0.179,63.034,0.254,94.538c0.29,21.594-8.39,31.813-31.303,31.521c-75.212-0.968-71.209,6.829-71.406-68.301
	c-0.047-17.465,0.21-34.922,0.439-52.382c0.475-36.037-4.904-41.523-40.207-41.351c-29.81,0.146-59.618,0.479-89.417-0.031
	c-26.441-0.455-35.202-10.5-35.428-36.815c-0.581-68.76-2.179-67.612,68.074-67.394c21.036,0.067,42.073,0.146,63.103,0.569
	c22.873,0.467,33.857-9.98,33.441-33.312c-0.575-32.399,0.369-64.84-0.458-97.241c-0.57-22.184,8.81-32.695,31.072-32.178
	c14.015,0.319,28.051-0.182,42.081-0.213C441.709,467.121,450.086,469.002,455.937,476.371z"/>
</svg>
