<?xml version="1.0" encoding="utf-8"?>
<!-- Generator: Adobe Illustrator 15.0.0, SVG Export Plug-In . SVG Version: 6.00 Build 0)  -->
<!DOCTYPE svg PUBLIC "-//W3C//DTD SVG 1.1//EN" "http://www.w3.org/Graphics/SVG/1.1/DTD/svg11.dtd">
<svg version="1.1" id="Layer_1" xmlns="http://www.w3.org/2000/svg" xmlns:xlink="http://www.w3.org/1999/xlink" x="0px" y="0px"
	 width="866.461px" height="728px" viewBox="0 0 866.461 728" enable-background="new 0 0 866.461 728" xml:space="preserve">
<path fill="#79231B" d="M445.798,704.299c-107.725-2.438-215.715-0.598-322.455-19.377c-9.438-1.662-18.836-3.584-28.235-5.477
	c-23.847-4.807-37.187-17.139-41.115-43.346C34.911,508.973,32.889,381.281,38.111,253.24c1.896-46.384,5.313-92.612,12.086-138.653
	c6.535-44.465,14.685-54.67,59.404-62.549c111.943-19.723,225.015-21.418,338.23-21.205c108.797,0.207,217.416,2.582,325.115,20.463
	c60.754,10.086,66.061,16.762,73.334,78.064c12.352,104.02,11.801,208.354,10.52,312.767c-0.789,64.063-5.314,127.781-15.08,191.221
	c-4.479,29.104-20.109,41.59-47.605,47.146c-106.41,21.494-214.275,21.186-321.994,23.785
	C463.353,704.486,454.571,704.299,445.798,704.299z M446.259,669.342c78.064,0.277,156.129,0.063,233.969-6.475
	c32.212-2.699,64.32-6.869,96.332-11.416c19.189-2.729,32.518-10.205,35.197-33.979c7.191-63.59,12.377-127.207,13.306-191.166
	c1.468-101.787-1.022-203.351-12.479-304.707c-3.025-26.809-15.619-34.188-39.301-38.082
	c-71.998-11.854-144.566-16.104-217.236-18.62c-146.457-5.063-292.725-4.267-438.098,18.438
	c-20.941,3.274-31.867,11.569-35.354,33.814c-9.544,60.797-10.914,121.947-11.728,183.2c-1.359,102.559-0.476,205.024,11.469,307.11
	c4.302,36.775,9.058,40.281,46.658,45.648C234.316,668.148,340.204,669.932,446.259,669.342z"/>
<path fill="#F28524" d="M446.267,669.305c-106.063,0.627-211.948-1.156-317.271-16.191c-37.602-5.367-42.357-8.873-46.658-45.646
	c-11.943-102.088-12.829-204.551-11.47-307.113c0.813-61.253,2.184-122.402,11.728-183.2c3.485-22.245,14.411-30.54,35.354-33.813
	C263.322,60.634,409.59,59.836,556.047,64.901c72.67,2.518,145.238,6.766,217.236,18.62c23.682,3.896,36.273,11.274,39.301,38.082
	c11.455,101.356,13.945,202.92,12.479,304.708c-0.929,63.959-6.112,127.576-13.306,191.166
	c-2.682,23.771-16.008,31.248-35.197,33.979c-32.012,4.547-64.12,8.717-96.331,11.416
	C602.388,669.402,524.323,669.619,446.267,669.305z"/>
<path fill="#79231B" d="M512.236,138.333c9.857,17.181,20.956,32.806,20.355,53.545c-0.771,26.313,0.411,52.688-0.475,78.999
	c-0.465,13.892,4.443,18.28,18.147,17.868c28.057-0.85,56.175-0.62,84.246-0.041c35.943,0.742,59.167,23.468,59.504,59.196
	c0.224,22.688,2.689,45.557-2.797,68.131c-8.284,34.066-14.836,40.25-50.683,41.443c-28.908,0.965-57.881,0.883-86.8,0.229
	c-18.297-0.412-24.407,7.055-23.191,25.15c1.704,25.332,1.259,50.828,1.464,76.26c0.262,34.088-16.729,55.008-49.89,60.178
	c-16.358,2.545-32.994,4.066-49.543,4.512c-44.572,1.195-70.903-24.703-70.839-68.928c0.04-25.457-0.176-50.941,0.942-76.357
	c0.663-15.018-4.64-20.205-19.714-19.619c-26.296,1.025-52.662,0.76-78.988,0.203c-40.891-0.854-63.613-23.154-64.922-63.473
	c-0.51-15.779-0.507-31.641,0.514-47.383c2.386-36.848,26.219-59.145,63.301-59.616c25.445-0.32,50.969-1.128,76.337,0.354
	c17.762,1.046,24.9-3.188,23.545-22.564c-1.826-26.202-1.096-52.649-0.297-78.961c1.117-36.858,22.084-58.891,58.594-61.373
	c18.342-1.25,36.88-1.008,55.264-0.067C489.308,126.675,502.079,129.92,512.236,138.333z M491.568,167.999
	c-5.852-7.371-14.229-9.25-23.289-9.226c-14.029,0.032-28.066,0.533-42.08,0.213c-22.265-0.517-31.644,9.994-31.074,32.179
	c0.828,32.399-0.117,64.84,0.458,97.239c0.416,23.33-10.568,33.777-33.441,33.313c-21.03-0.426-42.067-0.503-63.104-0.569
	c-70.253-0.221-68.656-1.367-68.074,67.394c0.226,26.314,8.986,36.359,35.429,36.814c29.799,0.51,59.606,0.178,89.416,0.031
	c35.304-0.174,40.684,5.313,40.207,41.352c-0.229,17.459-0.485,34.916-0.438,52.381c0.198,75.129-3.808,67.334,71.407,68.301
	c22.911,0.291,31.59-9.928,31.302-31.521c-0.433-31.504-0.191-63.02-0.254-94.539c-0.056-26.938,7.807-35.543,34.874-36.359
	c20.148-0.609,40.332-0.447,60.479-0.074c68.954,1.26,69.405,0.395,67.578-69.428c-0.609-23.155-10.213-33.769-33.393-33.455
	c-31.551,0.416-63.13-0.552-94.668,0.075c-22.794,0.464-34.371-8.515-33.868-32.341c0.663-31.552,0.408-63.12,0.249-94.68
	C499.236,185.568,500.092,175.51,491.568,167.999z"/>
<path fill="#FAF6F2" d="M491.568,167.999c8.522,7.512,7.668,17.569,7.717,27.098c0.161,31.561,0.415,63.129-0.249,94.68
	c-0.503,23.826,11.073,32.805,33.868,32.342c31.537-0.629,63.117,0.339,94.667-0.077c23.181-0.312,32.784,10.301,33.394,33.457
	c1.827,69.823,1.375,70.686-67.579,69.426c-20.147-0.371-40.33-0.533-60.479,0.074c-27.068,0.818-34.93,9.424-34.874,36.361
	c0.062,31.52-0.18,63.035,0.254,94.539c0.29,21.594-8.391,31.813-31.303,31.521c-75.213-0.969-71.209,6.828-71.406-68.301
	c-0.047-17.465,0.21-34.922,0.438-52.383c0.476-36.037-4.903-41.523-40.207-41.35c-29.81,0.145-59.618,0.479-89.417-0.031
	c-26.44-0.455-35.201-10.5-35.428-36.816c-0.581-68.759-2.179-67.612,68.074-67.393c21.036,0.067,42.073,0.146,63.103,0.569
	c22.873,0.467,33.857-9.98,33.441-33.312c-0.575-32.399,0.369-64.84-0.458-97.241c-0.57-22.184,8.81-32.695,31.073-32.178
	c14.014,0.319,28.05-0.182,42.08-0.213C477.341,158.749,485.718,160.627,491.568,167.999z"/>
</svg>
