<?xml version="1.0" encoding="utf-8"?>
<!-- Generator: Adobe Illustrator 16.0.0, SVG Export Plug-In . SVG Version: 6.00 Build 0)  -->
<!DOCTYPE svg PUBLIC "-//W3C//DTD SVG 1.1//EN" "http://www.w3.org/Graphics/SVG/1.1/DTD/svg11.dtd">
<svg version="1.1" id="Layer_1" xmlns="http://www.w3.org/2000/svg" xmlns:xlink="http://www.w3.org/1999/xlink" x="0px" y="0px"
	 width="866.461px" height="728px" viewBox="0 0 866.461 728" enable-background="new 0 0 866.461 728" xml:space="preserve">
<path fill="#331501" d="M440.806,712.756c-113.322-3.672-221.343-1.655-328.159-20.371c-56.644-9.917-63.341-12.502-69.388-66.848
	C24.185,454.136,21.358,282.6,44.549,111.076c4.34-32.101,22.018-45.319,50.556-50.355c96.208-16.974,193.354-22.131,290.802-21.51
	c80.622,0.512,161.313,1.174,241.826,4.917c57.587,2.676,115.342,7.26,171.693,21.507c17.877,4.52,28.294,14.383,32.209,33.349
	C849.482,185.5,850.031,273.406,850.45,360.9c0.451,94.471-0.461,189.188-17.285,282.924c-4.862,27.104-19.319,38.485-44.276,43.722
	C672.09,712.047,553.434,708.867,440.806,712.756z M439.693,677.063c77.994-0.481,156.088,1.225,233.824-6.678
	c35.604-3.617,71.013-9.3,106.386-14.834c12.645-1.979,22.78-7.517,23.95-23.267c3.248-43.658,8.673-87.185,10.927-130.884
	c4.381-84.912,3.022-169.938,0.14-254.852c-1.392-41.063-7.392-81.959-10.597-122.983c-1.547-19.852-12.164-27.563-30.961-31.049
	c-74.192-13.744-149.45-18.321-224.354-22.295c-101.547-5.383-203.403-0.654-304.951,5.729
	c-46.286,2.906-92.657,6.944-138.143,16.557c-10.623,2.25-26.501,0.02-28.483,17.416c-3.996,35.08-9.232,70.108-11.148,105.314
	c-6.77,124.389-6.232,248.696,5.674,372.889c6.028,62.94,5.045,63.026,66.301,73.253c8.606,1.437,17.146,3.386,25.796,4.465
	C255.614,677.288,347.637,677.581,439.693,677.063z"/>
<path fill="#F7D117" d="M439.693,677.063c-92.057,0.52-184.079,0.227-275.644-11.218c-8.648-1.079-17.189-3.028-25.796-4.465
	c-61.255-10.227-60.271-10.313-66.301-73.253c-11.906-124.189-12.442-248.5-5.674-372.889c1.917-35.208,7.152-70.235,11.148-105.314
	c1.982-17.396,17.86-15.166,28.483-17.416c45.484-9.612,91.855-13.65,138.143-16.557c101.547-6.382,203.403-11.11,304.952-5.728
	c74.904,3.974,150.162,8.551,224.354,22.295c18.797,3.485,29.414,11.197,30.961,31.049c3.205,41.024,9.205,81.922,10.597,122.983
	c2.885,84.914,4.241,169.938-0.14,254.852c-2.254,43.699-7.679,87.226-10.927,130.884c-1.17,15.75-11.308,21.286-23.95,23.267
	c-35.373,5.534-70.781,11.217-106.386,14.834C595.781,678.286,517.688,676.58,439.693,677.063z M219.65,293.926
	c0.374,33.037-2.182,66.113,5.289,98.891c4.442,19.475,13.816,33.609,35.313,30.839c52.883-6.813,105.808-13.864,158.218-23.521
	c28.109-5.179,35.365-35.747,16.12-56.889c-5.438-5.975-17.641-10.141-11.729-20.422c4.737-8.237,15.93-4.839,24.421-5.205
	c9.638-0.414,19.004,0.396,28.241,4.522c38.709,17.29,53.911,59.041,34.646,96.503c-18.453,35.896-68.513,52.021-101.271,29.332
	c-20.471-14.183-39.194-15.934-61.647-9.283c-18.38,5.442-37.605,7.976-56.231,12.674c-38.374,9.683-47.423,28.389-28.334,63.165
	c21.469,39.109,55.49,62.559,97.435,78.376c81.465,30.731,158.136,23.569,225.783-30.037
	c69.854-55.361,99.047-130.272,82.017-219.397c-30.546-159.915-215.567-234.848-350.992-140.501
	c-16.663,11.614-27.375,18.869-42.69-0.42c-8.783-11.067-22.752-12.523-36.212-6.276c-13.493,6.267-18.8,17.147-18.494,31.846
	C219.99,250.045,219.65,271.99,219.65,293.926z"/>
<path fill="#331501" d="M219.65,293.926c0-21.937,0.34-43.881-0.117-65.806c-0.307-14.698,5.001-25.579,18.493-31.846
	c13.46-6.247,27.43-4.791,36.212,6.276c15.315,19.289,26.027,12.034,42.69,0.42c135.426-94.347,320.446-19.414,350.992,140.501
	c17.03,89.125-12.163,164.036-82.017,219.397c-67.647,53.606-144.317,60.771-225.783,30.037
	c-41.944-15.817-75.965-39.267-97.435-78.376c-19.089-34.776-10.04-53.482,28.334-63.165c18.626-4.699,37.852-7.229,56.231-12.674
	c22.454-6.648,41.179-4.897,61.647,9.283c32.758,22.688,82.816,6.563,101.271-29.331c19.267-37.465,4.063-79.214-34.646-96.504
	c-9.235-4.126-18.604-4.938-28.241-4.522c-8.49,0.366-19.684-3.032-24.421,5.205c-5.91,10.281,6.289,14.448,11.729,20.422
	c19.245,21.142,11.99,51.71-16.12,56.889c-52.41,9.655-105.335,16.706-158.218,23.521c-21.497,2.771-30.871-11.364-35.313-30.84
	C217.468,360.039,220.023,326.962,219.65,293.926z M411.207,368.24c-5.876-7.273-8.846-11.475-12.333-15.183
	c-33.844-35.961-29.387-51.586,19.569-65.286c13.386-3.745,27.293-7.402,41.479-4.639c42.817,8.374,73.644,30.829,86.517,74.28
	c12.536,42.336,1.448,78.661-30.91,107.017c-33.586,29.439-73.449,39.725-113.919,17.032c-22.365-12.545-41.978-12.326-64.284-5.748
	c-10.007,2.956-20.415,6.16-30.677,6.286c-19.419,2.001-19.958,10.565-9.673,23.367c39.398,49.03,91.456,71.071,153.611,70.686
	c84.279-0.521,153.15-52.414,179.966-135.307c24.951-77.12-2.242-158.472-70.063-209.585
	c-62.668-47.233-157.048-49.229-221.899-3.764c-14.891,10.44-27.176,32.264-41.722,33.257
	c-13.249,0.899-27.944-19.363-40.142-28.853c0,49.476,0.006,99.021-0.004,148.563c0,9.283,4.638,12.15,13.492,10.691
	C315.77,383.563,361.361,376.281,411.207,368.24z"/>
<path fill="#FAF6F2" d="M411.207,368.24c-49.847,8.042-95.438,15.322-140.993,22.814c-8.854,1.459-13.492-1.408-13.492-10.691
	c0.01-49.541,0.004-99.086,0.004-148.563c12.197,9.489,26.893,29.752,40.142,28.853c14.546-0.993,26.83-22.816,41.722-33.257
	c64.853-45.466,159.231-43.471,221.899,3.764c67.819,51.113,95.015,132.464,70.063,209.585
	c-26.813,82.893-95.687,134.786-179.966,135.307c-62.155,0.388-114.212-21.652-153.611-70.686
	c-10.284-12.802-10.744-21.365,9.673-23.367c12.686-1.488,20.67-3.33,30.677-6.286c22.309-6.578,41.919-6.796,64.284,5.748
	c40.471,22.69,80.333,12.407,113.919-17.032c32.358-28.354,43.446-64.681,30.909-107.017c-12.872-43.451-43.696-65.906-86.516-74.28
	c-14.187-2.765-28.094,0.894-41.479,4.639c-48.956,13.7-53.413,29.325-19.569,65.286
	C402.361,356.766,405.331,360.966,411.207,368.24z"/>
</svg>
