<?xml version="1.0" encoding="utf-8"?>
<!-- Generator: Adobe Illustrator 15.0.0, SVG Export Plug-In . SVG Version: 6.00 Build 0)  -->
<!DOCTYPE svg PUBLIC "-//W3C//DTD SVG 1.1//EN" "http://www.w3.org/Graphics/SVG/1.1/DTD/svg11.dtd">
<svg version="1.1" id="Layer_1" xmlns="http://www.w3.org/2000/svg" xmlns:xlink="http://www.w3.org/1999/xlink" x="0px" y="0px"
	 width="866.461px" height="728px" viewBox="0 0 866.461 728" enable-background="new 0 0 866.461 728" xml:space="preserve">
<path fill="#79231B" d="M478.421,707.852c-147.225-0.067-249.799-0.435-351.512-16.593c-93.068-14.779-80.283-16.759-89.424-96.988
	c-17.209-151.106-16.564-302.863-1.127-454.353c0.266-2.619,0.25-5.271,0.674-7.863c10.197-63.836,18.334-69.751,85.445-79.937
	c132.541-20.126,265.867-15.866,399.08-15.247c85.8,0.392,171.308,5.896,255.961,21.137c41.226,7.424,49.787,16.368,55.08,56.914
	c20.779,159.118,20.732,318.7,4.427,477.875c-9.793,95.642-7.433,83.195-88.394,97.608
	C644.577,708.923,539.058,707.729,478.421,707.852z M424.101,68.322c-17.135,0-46.098-0.143-75.053,0.028
	c-83.328,0.494-166.137,6.718-248.346,21.028c-16.523,2.876-25.025,10.22-26.947,26.418c-3.391,28.656-8.502,57.19-10.32,85.94
	c-6.779,106.849-6.176,213.793-0.006,320.651c1.959,33.947,6.654,67.756,10.707,101.559c2.035,17.017,9.969,26.448,29.281,30.385
	c73.436,14.956,147.943,17.357,222.152,18.885c151.453,3.102,303.09,5.796,453.455-19.937c15.438-2.646,19.788-7.603,21.784-22.511
	c10.121-75.646,13.488-151.764,14.14-227.812c0.809-92.872-0.955-185.81-13.123-278.247c-3.033-23.023-12.758-32.348-35.707-36.1
	C656.663,70.683,546.481,66.83,424.101,68.322z"/>
<path fill="#F28524" d="M424.101,68.914c122.382-1.492,232.563,2.36,342.019,20.289c22.949,3.752,32.674,13.076,35.707,36.1
	c12.168,92.438,13.932,185.375,13.123,278.247c-0.65,76.048-4.019,152.164-14.139,227.813c-1.996,14.908-6.347,19.863-21.785,22.51
	c-150.365,25.732-302.002,23.037-453.455,19.937c-74.209-1.525-148.717-3.929-222.152-18.885
	c-19.313-3.936-27.246-13.368-29.281-30.385c-4.053-33.802-8.748-67.61-10.707-101.558c-6.17-106.857-6.773-213.803,0.006-320.651
	c1.818-28.75,6.93-57.284,10.32-85.94c1.922-16.198,10.424-23.542,26.947-26.418c82.208-14.312,165.017-20.535,248.345-21.03
	C378.003,68.771,406.966,68.914,424.101,68.914z"/>
<path fill="#FFFFFF" stroke="#79231B" stroke-width="25" stroke-miterlimit="10" d="M443.136,601.028
	c-57.667,0-115.336,0.164-173.002-0.089c-20.182-0.089-34.912-10.187-45.547-27.023c-5.842-9.248-7.858-19.137-7.846-29.973
	c0.131-114.038-0.046-228.077,0.149-342.115c0.036-21.233,11.453-36.233,29.226-46.629c7.163-4.19,15.032-6.373,23.574-6.365
	c104.955,0.094,209.91,0.078,314.866,0.014c3.815-0.002,6.388,1.093,9.081,4.08c17.769,19.699,35.396,39.525,53.494,58.932
	c6.922,7.423,13.563,15.169,20.344,22.754c1.558,1.74,1.443,3.648,1.444,5.626c0.017,17.3,0.008,34.6,0.008,51.901
	c0.003,84.771,0.062,169.542-0.03,254.314c-0.021,20.873-9.893,36.114-27.491,46.978c-8.933,5.512-18.332,7.686-28.726,7.655
	c-56.516-0.162-113.028-0.077-169.545-0.077C443.136,601.017,443.136,601.022,443.136,601.028z M443.136,203.003
	c0-0.014,0-0.028,0-0.042c-35.449,0-70.899-0.058-106.35,0.047c-7.327,0.021-6.924-1.604-6.929,6.88
	c-0.025,45.104-0.012,64.257-0.085,109.359c-0.023,14.101,12.696,27.413,27.946,27.412c56.779-0.003,113.558-0.031,170.335,0.04
	c5.505,0.008,10.387-1.722,14.805-4.594c9.739-6.331,13.205-15.464,13.118-27.068c-0.334-44.382-0.133-62.816-0.002-107.2
	c0.012-3.655-0.782-4.947-4.761-4.93C515.188,203.071,479.163,203.003,443.136,203.003z"/>
<path fill="#79231B" d="M443.136,205.077c36.027,0,72.054,0.058,108.079-0.079c3.979-0.016,4.771,1.063,4.761,4.114
	c-0.131,37.052-0.332,74.105,0.002,111.155c0.087,9.688-3.379,17.312-13.118,22.596c-4.418,2.398-9.3,3.843-14.805,3.836
	c-56.777-0.06-113.556-0.035-170.335-0.033c-15.25,0.001-27.971-11.113-27.947-22.884c0.074-37.651,0.061-75.306,0.085-112.958
	c0.006-7.082-0.397-5.726,6.93-5.743c35.449-0.087,70.899-0.039,106.35-0.039C443.136,205.053,443.136,205.066,443.136,205.077z
	 M527.722,275.935c0-14.666,0.009-29.331-0.011-43.998c-0.003-1.585,0.708-3.464-2.675-3.449
	c-16.992,0.075-33.984,0.082-50.978,0.025c-2.723-0.009-2.944,1.177-2.943,2.949c0.027,29.453,0.038,58.905-0.023,88.358
	c-0.005,2.393,0.776,3.422,3.904,3.4c16.127-0.105,32.257-0.141,48.382,0.011c3.795,0.034,4.443-1.194,4.414-4.02
	C527.64,304.787,527.722,290.361,527.722,275.935z"/>
<path fill="#FFFFFF" stroke="#79231B" stroke-width="25" stroke-miterlimit="10" d="M527.722,261.931
	c0,17.281-0.082,34.563,0.07,51.842c0.029,3.384-0.619,4.856-4.414,4.814c-16.125-0.181-32.255-0.14-48.382-0.012
	c-3.128,0.024-3.909-1.208-3.904-4.075c0.063-35.281,0.052-70.561,0.023-105.842c-0.001-2.124,0.222-3.545,2.943-3.533
	c16.992,0.067,33.984,0.059,50.978-0.03c3.383-0.017,2.672,2.233,2.675,4.131C527.729,226.795,527.722,244.363,527.722,261.931z"/>
<g id="Layer_2">
</g>
</svg>
