<?xml version="1.0" encoding="utf-8"?>
<!-- Generator: Adobe Illustrator 15.0.0, SVG Export Plug-In . SVG Version: 6.00 Build 0)  -->
<!DOCTYPE svg PUBLIC "-//W3C//DTD SVG 1.1//EN" "http://www.w3.org/Graphics/SVG/1.1/DTD/svg11.dtd">
<svg version="1.1" id="Layer_1" xmlns="http://www.w3.org/2000/svg" xmlns:xlink="http://www.w3.org/1999/xlink" x="0px" y="0px"
	 width="866.461px" height="728px" viewBox="0 0 866.461 728" enable-background="new 0 0 866.461 728" xml:space="preserve">
<path fill="#79231B" d="M19.279,395.586c-0.957-86.933,0.295-173.759,10.915-260.182c0.217-1.744,0.224-3.516,0.509-5.246
	c11.403-68.877,10.097-65.211,79.536-77.67c86.176-15.473,173.772-18.064,261.374-18.085
	c119.905-0.027,239.895-0.726,358.848,16.605c97.528,14.216,89.922,7.688,100.443,106.068
	c15.237,142.414,13.354,285.385,0.624,428.104c-0.776,8.691-2.674,17.289-3.979,25.935c-9.907,65.641-15.602,69.476-81.82,78.961
	c-75.694,10.845-151.683,12.974-227.887,14.168c-107.862,1.696-215.77,5.565-323.386-4.839
	c-39.188-3.792-78.179-10.036-117.072-16.327c-25.447-4.118-38.218-19.398-41.967-46.169
	C24.208,556.783,20.626,476.282,19.279,395.586z M807.178,354.457c-0.881-56.776,0.763-131.407-9.99-205.448
	c-8.803-60.611-9.012-59.524-69.521-66.589C614.221,69.168,500.43,65.231,386.361,66.84c-96.447,1.358-192.81,3.57-288.163,20.948
	c-18.788,3.428-28.62,9.527-32,30.365c-9.87,60.849-11.041,122.227-13.456,183.435c-3.314,84.145,2.487,168.174,6.908,252.236
	c4.839,92.097,3.427,92.177,87.303,107.514c3.443,0.631,6.952,0.93,10.438,1.303c103.948,11.121,208.249,11.461,312.623,10.716
	c98.162-0.698,196.129-2.897,293.054-20.955c18.159-3.38,29.698-9.718,31.973-30.792
	C803.982,538.664,807.871,455.544,807.178,354.457z"/>
<path fill="#F28524" d="M807.178,354.457c0.693,101.087-3.194,184.207-12.139,267.151c-2.273,21.074-13.813,27.413-31.973,30.792
	c-96.925,18.058-194.892,20.257-293.054,20.955c-104.374,0.745-208.675,0.405-312.623-10.716c-3.485-0.373-6.994-0.672-10.438-1.303
	C63.076,646,64.488,645.92,59.649,553.823c-4.421-84.063-10.223-168.093-6.908-252.236c2.415-61.208,3.586-122.586,13.456-183.435
	c3.379-20.838,13.212-26.938,32-30.365c95.354-17.378,191.715-19.59,288.164-20.948c114.068-1.608,227.859,2.328,341.305,15.58
	c60.51,7.064,60.719,5.978,69.521,66.589C807.939,223.05,806.297,297.681,807.178,354.457z"/>
<g id="Layer_2">
	<path fill="#FFFFFF" stroke="#79231B" stroke-width="30" stroke-miterlimit="10" d="M426.245,577.818
		c-67.663,0-135.325-0.039-202.987,0.039c-10.853,0.012-21.688,0.194-32.031-3.712c-15.354-5.798-26.624-16.225-31.613-31.843
		c-2.723-8.521-3.863-17.886-3.896-26.877c-0.287-77.161-0.177-154.323-0.146-231.485c0.011-25.656,11.656-43.983,35.136-54.398
		c3.945-1.75,8.582-2.641,12.916-2.702c22.161-0.311,44.329-0.399,66.492-0.208c16.171,0.14,24.366-8.821,28.379-21.956
		c4.75-15.551,9.43-31.203,15.598-46.212c3.92-9.539,12.982-13.622,23.452-13.626c44.331-0.018,88.661-0.039,132.991-0.048
		c14.832-0.003,29.664,0.007,44.497,0.045c12.87,0.034,21.975,5.931,26.423,19.466c5.03,15.302,9.973,30.636,15.251,45.853
		c3.508,10.111,12.941,16.4,23.687,16.424c22.831,0.051,45.693-0.628,68.483,0.36c17.913,0.777,31.297,10.562,40.688,25.748
		c6.41,10.366,7.988,21.83,7.982,33.758c-0.043,77.829,0.063,155.658-0.032,233.486c-0.025,21.787-8.487,39.119-27.788,50.537
		c-10.115,5.984-21.189,7.435-32.496,7.453c-70.327,0.119-140.655,0.061-210.983,0.061
		C426.245,577.926,426.245,577.872,426.245,577.818z M561.65,388.614c0.739-75.579-61.117-135.426-134.896-135.558
		c-74.175-0.133-135.839,60.247-135.485,136.121c0.345,73.918,60.873,134.586,135.488,134.455
		C501.357,523.5,562.313,462.741,561.65,388.614z M624.178,280.681c-10.49-0.071-19.684,8.346-19.266,18.365
		c0.379,9.072,7.625,18.813,18.892,18.898c13.082,0.1,18.75-9.737,19.442-18.466C644.063,289.185,634.959,280.753,624.178,280.681z"
		/>
	<path fill="#FFFFFF" d="M561.65,388.614c0.662,74.127-60.293,134.886-134.893,135.018
		c-74.615,0.132-135.144-60.536-135.488-134.455c-0.354-75.875,61.311-136.254,135.485-136.121
		C500.533,253.188,562.391,313.035,561.65,388.614z M507.399,384.363c-2.176-47.488-42.902-80.961-88.021-76.947
		c-41.669,3.707-79.127,39.232-73.142,91.805c2.373,20.842,12.061,38.242,28.35,51.336c19.974,16.058,42.688,22.603,68.334,17.303
		C478.223,460.563,509.838,428.004,507.399,384.363z"/>
	<path fill="#FFFFFF" d="M624.178,280.681c10.781,0.073,19.885,8.504,19.068,18.797c-0.692,8.729-6.36,18.566-19.442,18.466
		c-11.267-0.085-18.513-9.827-18.892-18.898C604.494,289.026,613.688,280.61,624.178,280.681z"/>
	<path fill="#79231B" d="M507.399,384.363c2.438,43.641-29.178,76.198-64.479,83.495c-25.646,5.3-48.36-1.245-68.334-17.303
		c-16.289-13.094-25.977-30.495-28.35-51.337c-5.985-52.571,31.473-88.097,73.142-91.804
		C464.497,303.402,505.225,336.875,507.399,384.363z"/>
</g>
</svg>
