<?xml version="1.0" encoding="utf-8"?>
<!-- Generator: Adobe Illustrator 15.0.0, SVG Export Plug-In . SVG Version: 6.00 Build 0)  -->
<!DOCTYPE svg PUBLIC "-//W3C//DTD SVG 1.1//EN" "http://www.w3.org/Graphics/SVG/1.1/DTD/svg11.dtd">
<svg version="1.1" id="Layer_1" xmlns="http://www.w3.org/2000/svg" xmlns:xlink="http://www.w3.org/1999/xlink" x="0px" y="0px"
	 width="866.461px" height="728px" viewBox="0 0 866.461 728" enable-background="new 0 0 866.461 728" xml:space="preserve">
<path fill="#79231B" d="M450.356,713.633c-104.315,0.116-208.614,0.231-312.125-16.292c-76.283-12.181-78.668-11.264-86.967-90.396
	c-16.68-159.105-18.481-318.52,1.184-477.611c6.541-52.902,10.389-57.09,63.641-67.031c89.891-16.779,180.94-19.766,272.18-19.719
	c120.916,0.063,241.954-2.877,362.021,15.723c91.021,14.102,90.752,6.073,99.656,100.994
	c15.02,160.109,16.244,320.364-5.811,480.057c-5.47,39.613-12.122,44.188-50.795,52.072
	c-84.525,17.236-170.239,20.859-256.134,22.136C508.262,713.993,479.311,713.633,450.356,713.633z M452.884,680.932
	c62.53,0.733,141.393,0.104,219.989-6.209c38.248-3.072,76.194-9.92,114.238-15.342c15.813-2.245,22.409-10.886,25.516-27.701
	c8.468-45.83,10.551-92.116,12.574-138.286c5.251-120.104,3.814-240.088-9.715-359.798c-2.851-25.236-13.257-35.13-38.397-39.192
	C654.456,74.587,530.965,74.064,407.334,74.239c-94.738,0.144-189.002,5.002-282.936,18.879
	c-29.283,4.323-37.27,19.447-40.141,44.488c-18.601,162.356-13.584,324.667,0.432,486.956c1.691,19.578,9.947,31.906,32.479,36.143
	C222.909,680.565,329.699,680.756,452.884,680.932z"/>
<path fill="#F28524" d="M452.884,680.932c-123.185-0.176-229.975-0.365-335.716-20.228c-22.531-4.235-30.787-16.563-32.479-36.143
	c-14.016-162.289-19.032-324.6-0.432-486.956c2.871-25.041,10.857-40.165,40.141-44.488
	c93.934-13.877,188.197-18.735,282.936-18.879c123.631-0.175,247.122,0.348,369.755,20.163
	c25.143,4.063,35.548,13.956,38.397,39.192c13.529,119.71,14.966,239.695,9.715,359.798c-2.023,46.17-4.106,92.457-12.574,138.287
	c-3.104,16.815-9.701,25.456-25.516,27.701c-38.044,5.422-75.99,12.27-114.238,15.342
	C594.275,681.034,515.414,681.665,452.884,680.932z M439.18,185.655c0-0.032,0-0.067,0-0.095c-35.083,0-70.176-0.616-105.233,0.196
	c-27.381,0.639-43.708,13.946-46.5,40.364c-1.611,15.232-8.917,20.561-21.328,25.521c-30.549,12.221-43.599,37.492-44.074,68.584
	c-0.477,30.909,11.724,57.863,32.264,81.166c22.75,25.8,51.121,42.534,83.703,52.079c17.134,5.023,27.441,18.079,31.67,32.383
	c4.014,13.601-14.807,13.692-22.306,21.159c-5.538,5.522-12.313,9.797-18.45,14.731c-20.131,16.195-28.619,37.781-22.521,62.313
	c5.76,23.173,27.565,25.311,46.697,25.744c59.617,1.365,119.292,2.647,178.886,1.182c35.05-0.861,51.118-32.28,36.439-63.774
	c-10.546-22.622-30.303-35.542-49.188-49.563c-5.09-3.771-15.457-5.285-7.42-14.65c9.364-10.918,14.731-24.733,31.537-29.797
	c32.056-9.656,59.938-27.095,83.355-52.007c40.015-42.566,53.106-129.521-21.405-154.022c-9.644-3.17-9.538-10.424-11.03-18.43
	c-5.872-31.486-17.804-42.128-49.805-42.894C509.396,184.997,474.282,185.655,439.18,185.655z"/>
<path fill="#79231B" d="M439.18,185.655c35.104,0,70.217-0.658,105.292,0.191c32.001,0.766,43.933,11.407,49.805,42.894
	c1.492,8.006,1.388,15.26,11.03,18.43c74.513,24.503,61.42,111.456,21.405,154.023c-23.418,24.911-51.301,42.35-83.355,52.006
	c-16.806,5.063-22.173,18.879-31.537,29.797c-8.037,9.365,2.33,10.879,7.42,14.649c18.885,14.021,38.642,26.94,49.188,49.563
	c14.679,31.494-1.391,62.913-36.439,63.774c-59.594,1.467-119.269,0.185-178.886-1.182c-19.132-0.435-40.938-2.57-46.697-25.744
	c-6.099-24.533,2.391-46.117,22.521-62.313c6.14-4.936,12.912-9.209,18.45-14.731c7.499-7.467,26.318-7.56,22.306-21.159
	c-4.229-14.304-14.536-27.358-31.67-32.383c-32.582-9.545-60.953-26.28-83.703-52.08c-20.54-23.302-32.74-50.256-32.264-81.165
	c0.476-31.092,13.525-56.363,44.074-68.584c12.411-4.96,19.717-10.288,21.328-25.521c2.793-26.418,19.12-39.726,46.5-40.364
	c35.059-0.813,70.15-0.196,105.233-0.196C439.18,185.588,439.18,185.623,439.18,185.655z M440.744,217.468c0-0.054,0-0.108,0-0.161
	c-27.205,0-54.402,0.02-81.604-0.008c-37.825-0.035-38.502-0.041-37.895,36.425c0.258,15.596-1.644,22.327-20.592,22.922
	c-35.062,1.116-50.545,24.716-43.297,59.784c8.316,40.22,35.916,67.031,72.098,76.477c38.938,10.178,58.542,38.143,81.583,64.525
	c13.814,15.823,7.757,34.532-12.167,40.605c-21.726,6.632-39.245,19.732-53.438,36.745c-8.34,9.989-11.942,21.313,8.618,21.266
	c57.944-0.135,115.896-0.371,173.835-0.25c18.406,0.042,16.563-8.244,8.407-19.061c-14.09-18.695-32.215-33.99-54.853-38.211
	c-21.521-4.024-23.558-21.232-16.541-29.928c19.385-23.992,29.735-56.938,65.194-66.765c43.973-12.181,80.138-35.394,93.889-82.753
	c9.511-32.762-6.678-60.706-40.357-61.96c-23.429-0.869-25.586-10.519-22.591-28.474c4.082-24.417-6.338-33.021-30.764-31.595
	C500.522,218.799,470.595,217.468,440.744,217.468z"/>
<path fill="#FAF6F2" d="M440.744,217.468c29.851,0,59.777,1.331,89.527-0.413c24.426-1.427,34.846,7.178,30.764,31.595
	c-2.995,17.955-0.838,27.604,22.591,28.474c33.681,1.254,49.868,29.198,40.357,61.96c-13.751,47.359-49.916,70.572-93.889,82.753
	c-35.459,9.826-45.811,42.771-65.194,66.765c-7.017,8.694-4.98,25.902,16.541,29.928c22.638,4.221,40.763,19.516,54.853,38.211
	c8.156,10.815,9.999,19.103-8.407,19.061c-57.939-0.121-115.891,0.115-173.835,0.25c-20.562,0.049-16.958-11.275-8.618-21.266
	c14.192-17.013,31.714-30.113,53.438-36.745c19.924-6.073,25.981-24.782,12.167-40.605c-23.041-26.384-42.646-54.349-81.583-64.525
	c-36.182-9.445-63.781-36.257-72.098-76.477c-7.248-35.068,8.236-58.668,43.297-59.784c18.948-0.595,20.85-7.326,20.592-22.922
	c-0.607-36.466,0.068-36.46,37.895-36.425c27.201,0.027,54.398,0.008,81.604,0.008C440.744,217.359,440.744,217.414,440.744,217.468
	z M348.131,388.238c-6.725-22.778-11.974-40.796-17.389-58.771c-2.104-7.003-0.561-16.801-11.779-17.481
	c-9.649-0.59-19.762-0.826-26.418,7.662c-6.342,8.096-2.684,16.408,1.656,24.307C305.218,363.993,323.838,374.857,348.131,388.238z
	 M532.385,389.577c25.611-16.384,48.308-26.771,56.948-52.075c3.827-11.223,1.624-21.659-11.791-24.327
	c-10.403-2.07-22.146-6.466-25.952,11.381C547.32,344.595,540.099,364,532.385,389.577z"/>
<path fill="#79231B" d="M348.131,388.238c-24.293-13.381-42.913-24.245-53.93-44.283c-4.34-7.898-7.998-16.211-1.656-24.307
	c6.656-8.488,16.769-8.252,26.418-7.662c11.22,0.681,9.676,10.479,11.779,17.481C336.157,347.442,341.406,365.46,348.131,388.238z"
	/>
<path fill="#79231B" d="M532.385,389.577c7.714-25.577,14.937-44.982,19.205-65.021c3.808-17.847,15.549-13.451,25.952-11.381
	c13.415,2.668,15.618,13.104,11.791,24.327C580.691,362.807,557.996,373.193,532.385,389.577z"/>
</svg>
