<?xml version="1.0" encoding="utf-8"?>
<!-- Generator: Adobe Illustrator 16.0.0, SVG Export Plug-In . SVG Version: 6.00 Build 0)  -->
<!DOCTYPE svg PUBLIC "-//W3C//DTD SVG 1.1//EN" "http://www.w3.org/Graphics/SVG/1.1/DTD/svg11.dtd">
<svg version="1.1" id="Layer_1" xmlns="http://www.w3.org/2000/svg" xmlns:xlink="http://www.w3.org/1999/xlink" x="0px" y="0px"
	 width="866.461px" height="728px" viewBox="0 0 866.461 728" enable-background="new 0 0 866.461 728" xml:space="preserve">
<path fill="#331501" d="M448.936,713.733c-107.801,0.528-215.771,1.567-322.678-16.008c-11.217-1.854-22.375-4.143-33.469-6.646
	c-21.904-4.951-33.957-17.499-37.783-40.938C37.979,545.828,35.776,440.732,36.951,335.49c0.858-77.077,3.92-154.092,18.319-230.205
	c3.935-20.813,15.213-30.911,35.652-36.063c71.018-17.88,143.688-21.259,216.072-23.525c148.217-4.649,296.52-6.02,444.03,14.142
	c8.67,1.188,17.258,2.998,25.866,4.594c61.765,11.414,61.201,8.984,69.377,74.971c18.084,145.854,15.33,292.318,5.125,438.661
	c-1.59,22.639-6.877,44.997-9.067,67.613c-2.575,26.602-17.403,40.396-42.389,46.228c-65.268,15.238-131.938,18.115-198.371,21.332
	C550.805,715.7,499.822,713.733,448.936,713.733z M488.409,75.616c-80.772-2.986-161.437,0.896-241.936,5.673
	c-45.195,2.681-90.727,5.814-135.18,16.218c-13.402,3.135-21.976,7.974-25.318,24.626c-7.799,38.849-11.326,78.104-12.385,117.245
	c-3.332,123.487-5.131,247.002,9.055,370.198c5.453,47.42,6.506,49.979,53.531,56.344c107.027,14.479,214.58,16.347,322.373,16.463
	c104.347,0.107,208.332-3.813,311.769-17.751c19.082-2.565,40.313-3.781,41.948-32.472c2.24-39.315,8.529-78.408,10.519-117.727
	c6.476-127.962,6.033-255.725-9.825-383.264c-3.128-25.148-15.246-31.038-36.371-34.688
	C681.157,79.987,584.721,78.69,488.409,75.616z"/>
<path fill="#F7D117" d="M488.409,75.616c96.312,3.073,192.748,4.37,288.179,20.866c21.125,3.65,33.243,9.54,36.37,34.688
	c15.859,127.539,16.302,255.302,9.826,383.263c-1.987,39.317-8.276,78.41-10.519,117.728c-1.635,28.688-22.866,29.904-41.948,32.472
	c-103.437,13.938-207.422,17.858-311.769,17.751c-107.793-0.116-215.346-1.981-322.373-16.463
	c-47.025-6.365-48.078-8.924-53.531-56.344C68.461,486.38,70.26,362.865,73.592,239.378c1.059-39.142,4.586-78.396,12.385-117.245
	c3.344-16.652,11.916-21.491,25.318-24.626c44.453-10.402,89.983-13.537,135.18-16.218C326.975,76.513,407.637,72.63,488.409,75.616
	z M704.752,303.097c-0.527-21.178-3.937-28.793-21.802-44.955c-8.397-7.594-17.655-14.367-25.346-22.61
	c-27.537-29.512-56.74-30.219-86.232-1.73c-37.594,36.306-74.93,72.895-113.25,108.424c-15.87,14.718-28.961,41.909-48.544,40.802
	c-20.48-1.151-34.73-27.082-49.849-43.688c-65.334-71.773-93.958-57.543-148.599,3.339c-8.313,9.256-13.068,20.209-18.103,31.514
	c-8.53,19.156-1.373,35.836,9.959,47.786c51.75,54.599,105.06,107.71,158.118,161.055c25.989,26.125,56.653,26.743,82.875,1.736
	c80.881-77.136,161.413-154.634,242.36-231.695C700.083,339.99,706.286,324.817,704.752,303.097z"/>
<path fill="#331501" d="M704.752,303.097c1.534,21.721-4.669,36.894-18.408,49.977c-80.947,77.063-161.479,154.562-242.36,231.694
	c-26.222,25.008-56.886,24.39-82.875-1.735c-53.06-53.345-106.367-106.457-158.117-161.056c-11.332-11.948-18.49-28.63-9.959-47.786
	c5.032-11.304,9.788-22.257,18.102-31.514c54.641-60.882,83.264-75.112,148.599-3.339c15.116,16.604,29.366,42.534,49.849,43.688
	c19.584,1.105,32.674-26.085,48.545-40.803c38.319-35.529,75.655-72.118,113.25-108.424c29.491-28.487,58.694-27.78,86.231,1.73
	c7.688,8.243,16.946,15.018,25.346,22.61C700.816,274.304,704.225,281.919,704.752,303.097z M673.484,306.144
	c-3.113-18.906-18.606-28.805-30.813-40.864c-26.752-26.424-29.701-26.438-56.929-0.007
	c-51.551,50.053-103.192,100.021-153.983,150.849c-15.35,15.355-27.848,14.604-42.344,0.145
	c-19.854-19.803-40.523-38.781-60.306-58.65c-42.879-43.084-42.735-43.217-85.69,0.496c-22.846,23.249-22.887,32.239-1.289,54.659
	c46.068,47.813,95.504,92.343,137.873,143.819c9.312,11.313,24.271,18.464,39.021,4.442
	c81.287-77.215,162.614-154.361,243.772-231.715C669.107,323.298,674.85,316.281,673.484,306.144z"/>
<path fill="#FAF6F2" d="M673.484,306.144c1.364,10.138-4.377,17.154-10.688,23.173c-81.158,77.354-162.486,154.5-243.772,231.715
	c-14.75,14.021-29.709,6.869-39.021-4.442c-42.369-51.479-91.805-96.007-137.873-143.819c-21.598-22.42-21.557-31.41,1.289-54.659
	c42.955-43.713,42.813-43.58,85.69-0.496c19.78,19.869,40.45,38.85,60.306,58.65c14.496,14.459,26.994,15.213,42.344-0.145
	c50.791-50.826,102.435-100.796,153.983-150.849c27.228-26.43,30.177-26.417,56.929,0.007
	C654.877,277.339,670.37,287.237,673.484,306.144z"/>
</svg>
