<?xml version="1.0" encoding="utf-8"?>
<!-- Generator: Adobe Illustrator 16.0.0, SVG Export Plug-In . SVG Version: 6.00 Build 0)  -->
<!DOCTYPE svg PUBLIC "-//W3C//DTD SVG 1.1//EN" "http://www.w3.org/Graphics/SVG/1.1/DTD/svg11.dtd">
<svg version="1.1" id="Layer_1" xmlns="http://www.w3.org/2000/svg" xmlns:xlink="http://www.w3.org/1999/xlink" x="0px" y="0px"
	 width="1801.62px" height="600px" viewBox="0 0 1801.62 600" enable-background="new 0 0 1801.62 600" xml:space="preserve">
<g>
	<path fill="#321A0E" d="M180.414,286.483c-44.423,0.206-88.929,0.66-132.979-6.593c-4.615-0.783-9.23-1.688-13.806-2.72
		c-9.024-2.062-14.012-7.212-15.577-16.854c-6.965-43.021-7.871-86.333-7.377-129.685c0.371-31.771,1.607-63.502,7.542-94.862
		c1.606-8.571,6.265-12.732,14.711-14.876c29.219-7.377,59.177-8.736,89.013-9.685c61.07-1.938,122.184-2.474,182.967,5.811
		c3.585,0.494,7.129,1.236,10.673,1.896c25.467,4.697,25.22,3.709,28.599,30.905c7.46,60.124,6.307,120.454,2.104,180.783
		c-0.66,9.313-2.844,18.544-3.751,27.857c-1.071,10.962-7.17,16.647-17.473,19.038c-26.867,6.264-54.354,7.459-81.718,8.776
		C222.406,287.307,201.39,286.483,180.414,286.483z M196.691,23.53c-33.296-1.235-66.512,0.371-99.685,2.351
		c-18.627,1.111-37.377,2.39-55.715,6.676c-5.521,1.277-9.064,3.296-10.426,10.137c-3.214,15.989-4.656,32.186-5.109,48.297
		c-1.359,50.894-2.102,101.786,3.75,152.556c2.268,19.533,2.68,20.604,22.047,23.201c44.094,5.975,88.435,6.717,132.856,6.799
		c42.981,0.042,85.838-1.565,128.489-7.335c7.871-1.071,16.606-1.565,17.267-13.394c0.906-16.194,3.503-32.308,4.327-48.503
		c2.679-52.747,2.473-105.371-4.039-157.953c-1.277-10.344-6.264-12.773-15-14.3C276.143,25.343,236.376,24.807,196.691,23.53z"/>
	<path fill="#F7D119" d="M196.691,23.53c39.685,1.277,79.409,1.813,118.764,8.613c8.695,1.524,13.682,3.914,15,14.299
		c6.553,52.541,6.718,105.206,4.039,157.953c-0.824,16.195-3.421,32.31-4.327,48.503c-0.659,11.827-9.437,12.321-17.267,13.395
		c-42.609,5.728-85.467,7.376-128.489,7.335c-44.423-0.041-88.722-0.824-132.856-6.8c-19.367-2.639-19.82-3.668-22.047-23.2
		c-5.852-50.771-5.109-101.662-3.75-152.557c0.453-16.111,1.896-32.308,5.109-48.296c1.36-6.882,4.904-8.859,10.426-10.138
		c18.338-4.286,37.088-5.563,55.715-6.676C130.181,23.901,163.396,22.293,196.691,23.53z"/>
	<path fill="#321A0E" d="M222.117,195.165c-42.238-0.082-76.03-34.079-75.865-76.277c0.165-41.909,34.615-76.03,76.607-75.824
		c41.58,0.206,75.288,34.286,75.371,76.195C298.313,161.415,264.356,195.289,222.117,195.165z M221.747,174.684
		c30.618,0.288,55.467-23.942,55.92-54.561c0.453-30.906-24.106-56.209-54.849-56.538c-30.865-0.33-55.879,24.766-56.085,56.208
		C166.609,149.505,191.541,174.395,221.747,174.684z"/>
	<path fill="#FFFFFF" stroke="#321A0E" stroke-width="30" stroke-miterlimit="10" d="M174.356,194.381
		c-1.359,2.102-2.185,4.245-3.667,5.604c-18.627,17.103-37.294,34.121-56.003,51.142c-4.203,3.832-8.242,3.503-12.033-0.742
		c-6.183-6.882-12.321-13.764-18.544-20.563c-3.956-4.325-3.297-8.199,0.824-11.949c18.379-16.648,36.758-33.257,55.014-50.068
		c4.862-4.492,8.777-4.08,12.979,0.741c5.771,6.594,11.786,12.938,17.557,19.533C171.967,189.766,172.914,191.991,174.356,194.381z"
		/>
	<path fill="#FFFFFF" d="M221.705,181.195c-33.75-0.33-61.606-28.104-61.4-61.317c0.206-35.11,28.146-63.132,62.638-62.763
		c34.327,0.371,61.73,28.642,61.235,63.134C283.643,154.45,255.909,181.483,221.705,181.195z"/>
	<path fill="#321A0E" d="M260.029,116.002c-0.37-5.646-3.791-8.901-9.479-9.065c-4.08-0.124-8.158-0.248-12.197,0.041
		c-3.009,0.206-3.667-0.907-3.502-3.627c0.246-3.914,0.122-7.87,0.041-11.785c-0.083-5.729-3.504-9.396-9.231-9.767
		c-2.431-0.165-4.903-0.165-7.335-0.082c-6.223,0.206-9.684,3.708-9.808,10.055c-0.082,4.079-0.123,8.159,0.041,12.197
		c0.083,2.35-0.7,3.132-3.05,3.05c-3.915-0.165-7.871-0.124-11.786-0.165c-6.841,0-10.838,4.08-10.673,10.962
		c0.082,2.556,0.288,5.109,0.7,7.665c0.783,5.109,4.039,7.747,9.313,7.706c3.915-0.042,7.871,0.041,11.784-0.206
		c2.804-0.206,3.956,0.741,3.874,3.585c-0.082,4.45-0.123,8.942,0.041,13.435c0.165,5.521,1.154,6.553,6.389,7.83
		c3.503,0.864,7.006,0.452,10.55,0.412c5.521-0.041,9.023-3.627,9.146-9.189c0.083-4.327,0.124-8.695,0-13.022
		c-0.082-2.102,0.618-2.885,2.763-2.802c4.079,0.123,8.159-0.041,12.196,0.082c3.216,0.083,5.604-1.605,8.283-3.132
		c1.318-1.565,1.813-3.544,1.896-5.563C260.194,121.689,260.235,118.846,260.029,116.002z"/>
</g>
<g>
	<path fill="#321A0E" d="M182.219,590.174c-34.515,0.394-69.061,0.307-103.46-2.849c-15.102-1.384-30.206-3.511-45.064-6.502
		c-8.118-1.64-13.592-7.272-14.935-16.491c-8.642-59.247-8.135-118.752-5.27-178.316c0.698-14.48,1.697-28.967,4.627-43.238
		c3.149-15.33,6.322-18.627,21.718-21.215c21.625-3.64,43.305-6.374,65.298-7.328c67.064-2.903,134.029-3.431,200.79,4.912
		c7.517,0.941,14.938,2.678,22.381,4.153c10.032,1.982,14.5,8.229,16.458,18.302c6.113,31.459,6.06,63.311,6.492,95.045
		c0.527,38.841,0.434,77.744-4.983,116.387c-3.252,23.198-6.296,26.543-29.292,30.052c-29.493,4.5-59.157,6.876-88.987,7.069
		C212.735,590.252,197.477,590.174,182.219,590.174z M179.935,576.855c31.559,0.08,63.133,0.196,94.607-2.634
		c14.03-1.266,28.04-2.872,42.012-4.659c10.549-1.347,15.49-6.291,16.818-18.305c5.468-49.268,4.494-98.607,3.749-147.953
		c-0.29-19.179-2.135-38.33-5.315-57.32c-1.675-10.004-6.603-10.215-16.906-12.262c-1.958,0.333-3.423-0.184-5.153-0.535
		c-27.416-5.55-55.354-5.838-83.09-6.76c-61.135-2.027-122.257-1.311-182.957,8.047c-6.839,1.053-11.296,3.223-12.309,10.982
		c-9.381,71.633-8.134,143.213,0.521,214.79c0.571,4.712,4.864,6.897,7.802,7.439c12.56,1.298,24.497,4.205,37.026,5.341
		C111.122,576.14,145.482,577.052,179.935,576.855z"/>
	<path fill="#F7D119" d="M179.935,576.855c-34.453,0.196-68.813-0.715-103.194-3.828c-12.529-1.136-24.474-5.041-37.026-5.34
		c-4.225-3.131-7.231-2.729-7.802-7.44c-8.655-71.577-9.902-143.157-0.521-214.79c1.012-7.76,5.469-9.928,12.308-10.982
		c60.702-9.357,121.823-10.074,182.958-8.046c27.735,0.921,55.673,1.209,83.089,6.759c1.731,0.352,3.195,0.869,5.153,0.535
		c11.115,2.48,15.231,2.26,16.906,12.262c3.18,18.991,5.026,38.142,5.315,57.321c0.746,49.347,1.719,98.687-3.748,147.952
		c-1.329,12.014-6.27,16.959-16.819,18.307c-13.973,1.785-27.984,3.392-42.012,4.658
		C243.068,577.052,211.494,576.934,179.935,576.855z M279.603,452.311c0.18,0,0.363,0,0.543,0c0-5.811,0.2-11.626-0.039-17.423
		c-0.807-19.62-10.932-29.007-30.396-28.476c-7.953,0.217-15.926,0.65-23.862,0.305c-5.299-0.229-11.403-0.312-15.561-2.957
		c-3.775-2.404,1.038-7.838,0.342-12.158c-0.964-5.992-0.733-12.08-1.879-18.163c-3.132-16.599-16.903-22.694-29.847-11.628
		c-27.82,23.793-55.216,48.1-82.294,72.729c-12.262,11.154-11.898,24.549-0.033,36.174c7.99,7.832,17.346,14.412,25.167,22.165
		c18.562,18.397,39.196,34.35,58.265,52.098c5.705,5.313,12.6,6.582,20.081,3.673c6.835-2.66,10.295-7.764,10.765-14.887
		c0.618-9.35,1.39-18.715,1.378-28.076c-0.005-7.369,3.649-10.156,10.085-8.887c9.406,1.855,18.817,0.891,28.2,0.956
		c16.663,0.11,26.472-8.265,28.917-24.815C280.432,466.201,279.603,459.195,279.603,452.311z"/>
	<path fill="#321A0E" d="M279.603,452.311c0,6.885,0.829,13.891-0.165,20.627c-2.445,16.553-12.255,24.927-28.917,24.816
		c-9.382-0.064-18.794,0.9-28.2-0.955c-6.438-1.27-10.09,1.516-10.085,8.886c0.012,9.358-0.76,18.726-1.378,28.075
		c-0.469,7.125-3.93,12.229-10.764,14.887c-7.481,2.91-14.376,1.641-20.082-3.672c-19.069-17.748-39.703-33.699-58.264-52.099
		c-7.821-7.751-17.178-14.332-25.167-22.165c-11.864-11.624-12.229-25.02,0.033-36.173c27.079-24.629,54.474-48.937,82.294-72.729
		c12.944-11.066,26.713-4.972,29.847,11.628c1.147,6.082,0.502,12.171,1.465,18.162c-0.851,7.361,0.39,8.602,0.072,12.158
		c4.158,2.646,10.262,2.729,15.561,2.959c7.937,0.346,15.909-0.09,23.862-0.307c19.462-0.531,29.588,8.856,30.396,28.477
		c0.24,5.797,0.039,11.611,0.039,17.422C279.966,452.311,279.782,452.311,279.603,452.311z M232.389,483.254
		c5.811,0,11.62,0.087,17.427-0.018c11.893-0.214,15.314-3.627,15.567-15.662c0.221-10.526,0.395-21.054,0.352-31.58
		c-0.053-12.584-3.657-16.114-16.021-16.424c-13.371-0.334-26.748-0.576-40.109-1.184c-7.18-0.327-11.273-4.563-11.788-11.73
		c-0.646-9.029-1.09-18.073-1.393-27.123c-0.106-3.178,1.224-6.823-2.405-8.676c-3.615-1.844-6.206,0.998-8.59,3.087
		c-25.622,22.481-51.274,44.924-76.708,67.612c-9.931,8.861-9.694,13.273,0.188,22.047c23.599,20.949,47.101,42.012,71.024,62.585
		c4.296,3.694,8.222,11.827,14.816,8.5c5.565-2.809,2.695-10.649,2.669-16.229C197.274,483.768,194.565,482.63,232.389,483.254z"/>
	<path fill="#FAF6F2" d="M232.389,483.254c-37.824-0.624-35.115,0.514-34.973,35.205c0.026,5.581,2.896,13.421-2.669,16.229
		c-6.593,3.327-10.52-4.807-14.816-8.5c-23.923-20.571-47.425-41.637-71.024-62.587c-9.882-8.771-10.118-13.186-0.187-22.046
		c25.432-22.688,51.085-45.132,76.708-67.611c2.384-2.089,4.976-4.932,8.591-3.087c3.629,1.851,2.297,5.496,2.403,8.676
		c0.304,9.049,0.749,18.094,1.394,27.123c0.515,7.168,4.608,11.403,11.788,11.73c13.36,0.607,26.739,0.85,40.109,1.184
		c12.364,0.309,15.968,3.84,16.021,16.424c0.043,10.526-0.13,21.054-0.352,31.58c-0.252,12.035-3.674,15.448-15.567,15.662
		C244.009,483.341,238.2,483.254,232.389,483.254z"/>
</g>
<g>
	<path fill="#321A0E" d="M449.673,453.977c-0.034-6.885-0.403-13.791-0.033-20.654c0.767-14.342,10.92-24.328,25.171-24.738
		c13.37-0.383,26.761-0.723,40.117-0.309c5.946,0.188,6.544-2.372,6.437-7.053c-0.22-9.423-0.142-18.85-0.114-28.275
		c0.028-8.57,2.692-15.783,11.159-19.429c7.945-3.422,14.915-0.92,21.065,4.392c29.037,25.079,58.167,50.046,86.959,75.404
		c13.221,11.642,13.227,27.882,0.026,39.816c-28.189,25.489-56.714,50.604-85.154,75.813c-6.201,5.5-13.15,7.089-21.141,3.787
		c-7.943-3.279-10.204-9.788-10.511-17.405c-0.305-7.603-0.364-15.226-0.236-22.831c0.122-7.185-2.516-10.5-10.299-10.076
		c-11.21,0.61-22.468,0.363-33.705,0.3c-16.816-0.087-28.867-11.447-29.669-28.08c-0.331-6.871-0.119-13.769-0.153-20.661
		C449.623,453.978,449.647,453.977,449.673,453.977z M498.316,421.509c0,0.02,0,0.041,0,0.061
		c-6.891,0.034-13.779,0.156-20.67,0.083c-9.504-0.1-14.137,5.381-14.522,14.006c-0.553,12.3-0.488,24.663,0.027,36.969
		c0.516,12.193,5.456,16.399,18.061,16.476c13.418,0.086,26.84-0.167,40.257-0.022c10.396,0.108,15.081,4.768,15.416,15.203
		c0.284,8.698,0.239,17.405,0.282,26.11c0.018,3.625-0.728,8.002,3.103,9.703c3.255,1.445,6.133-1.659,8.509-3.767
		c27.632-24.521,55.238-49.067,82.706-73.767c6.648-5.975,6.679-12.865-0.015-18.75c-28.553-25.108-57.196-50.121-86.048-74.889
		c-6.821-5.853-10.356-4.206-10.788,4.722c-0.508,10.487-0.14,21.017-0.178,31.526c-0.035,11.171-4.365,15.802-15.499,16.194
		C512.085,421.608,505.2,421.475,498.316,421.509z"/>
	<g>
		<path fill="#321A0E" d="M539.87,590.26c-43.458-0.497-86.986,0.309-130.114-6.634c-3.924-0.629-7.801-1.663-11.747-2.04
			c-13.173-1.269-19.591-8.54-21.255-21.543c-6.309-49.286-8.543-98.742-6.619-148.371c0.952-24.547,1.623-49.136,6.919-73.314
			c1.761-8.053,5.952-12.251,14.036-14.273c37.196-9.296,75.191-10.34,113.148-11.319c49.285-1.264,98.581-1.016,147.695,4.054
			c11.105,1.147,22.022,4.047,33.106,5.525c10.2,1.361,14.852,7.08,16.654,16.839c3.827,20.731,5.81,41.667,6.388,62.647
			c1.331,48.191,2.775,96.423-3.117,144.47c-0.527,4.292-1.405,8.535-1.997,12.823c-2.039,14.768-5.313,17.796-20.288,20.858
			C635.508,589.63,587.649,589.259,539.87,590.26z M538.721,576.305c4.351-0.021,8.704-0.074,13.057-0.063
			c42.399,0.149,84.633-1.765,126.5-9.191c6.932-1.231,10.637-3.543,11.793-11.313c3.685-24.778,5.051-49.701,5.533-74.653
			c0.854-44.593-0.048-89.122-5.828-133.471c-1.225-9.393-5.443-12.599-14.263-13.967c-40.18-6.244-80.617-8.042-121.177-7.958
			c-50.723,0.109-101.418,0.325-151.686,9.054c-10.078,1.745-13.245,6.813-14.248,15.535c-6.329,55.253-5.327,110.544-2.106,165.95
			c0.671,11.544,2.089,22.756,2.861,34.393c3.643,14.135,2.046,15.199,13.224,17.784
			C447.501,576.325,493.074,577.091,538.721,576.305z"/>
		<path fill="#F7D119" d="M538.721,576.305c-45.647,0.786-91.22,0.021-136.34-7.902c-11.996-0.927-12.747-6.603-13.224-17.784
			c-0.93-11.459-2.192-22.886-2.862-34.393c-3.22-55.406-4.224-110.697,2.107-165.948c1.003-8.726,4.169-13.792,14.247-15.537
			c50.268-8.727,100.963-8.942,151.686-9.052c40.559-0.084,80.998,1.714,121.178,7.956c8.817,1.368,13.038,4.574,14.262,13.967
			c5.78,44.349,6.682,88.878,5.827,133.471c-0.481,24.952-1.848,49.875-5.532,74.653c-1.157,7.771-4.86,10.081-11.792,11.313
			c-41.867,7.429-84.102,9.341-126.502,9.193C547.425,576.23,543.072,576.283,538.721,576.305z M449.673,453.977
			c-0.026,0-0.051,0.001-0.079,0.001c0.034,6.893-0.178,13.79,0.153,20.661c0.801,16.633,12.852,27.993,29.668,28.08
			c11.237,0.063,22.495,0.311,33.705-0.3c7.782-0.424,10.419,2.89,10.299,10.076c-0.127,7.605-0.068,15.229,0.236,22.831
			c0.307,7.617,2.567,14.126,10.511,17.405c7.99,3.302,14.939,1.713,21.141-3.787c28.438-25.209,56.965-50.324,85.153-75.813
			c13.2-11.933,13.195-28.175-0.026-39.816c-28.792-25.358-57.922-50.325-86.959-75.404c-6.151-5.312-13.12-7.813-21.065-4.392
			c-8.467,3.647-11.132,10.858-11.16,19.429c-0.028,9.426-0.105,18.854,0.115,28.275c0.107,4.681-0.491,7.238-6.437,7.053
			c-13.355-0.414-26.747-0.074-40.117,0.309c-14.251,0.41-24.403,10.396-25.171,24.738
			C449.271,440.188,449.639,447.092,449.673,453.977z"/>
		<path fill="#FAF6F2" d="M498.316,421.509c6.884-0.034,13.77,0.1,20.644-0.142c11.134-0.393,15.464-5.023,15.499-16.194
			c0.039-10.51-0.332-21.039,0.178-31.526c0.431-8.928,3.967-10.574,10.788-4.722c28.852,24.768,57.496,49.78,86.05,74.891
			c6.692,5.883,6.662,12.775,0.016,18.75c-27.473,24.699-55.079,49.245-82.708,73.765c-2.375,2.107-5.253,5.214-8.508,3.769
			c-3.833-1.701-3.085-6.078-3.104-9.703c-0.043-8.705,0.002-17.41-0.282-26.11c-0.335-10.438-5.02-15.097-15.417-15.203
			c-13.417-0.145-26.839,0.108-40.257,0.022c-12.606-0.078-17.547-4.282-18.061-16.476c-0.518-12.308-0.582-24.671-0.028-36.971
			c0.385-8.623,5.017-14.104,14.522-14.006c6.891,0.073,13.78-0.047,20.67-0.081C498.316,421.55,498.316,421.528,498.316,421.509z"
			/>
	</g>
</g>
<g>
	<path fill="#321A0E" d="M542.163,289.378c-45.711-0.875-88.859-0.435-131.71-7.101c-27.22-4.24-29.803-4.739-33.285-31.283
		c-6.184-47.145-7.296-94.604-4.92-142.11c0.932-18.667,1.102-37.403,4.04-55.925c4.551-28.681,5.073-28.047,32.912-31.98
		c71.721-10.134,143.937-9.413,216.049-4.475c18.038,1.235,36.248,2.136,54.093,6.101c17.545,3.898,19.942,6.068,22.758,23.485
		c3.68,22.77,5.106,45.767,5.7,68.73c1.117,43.158,1.757,86.435-4.027,129.311c-4.632,34.328-2.176,32.173-36.193,38.035
		C625.213,289.466,582.335,288.552,542.163,289.378z M537.59,275.542c45.976,0.113,91.85-0.77,137.411-8.233
		c10.851-1.776,13.884-7.146,14.91-17.014c3.987-38.295,5.692-76.682,5.125-115.144c-0.427-29.076-1.784-58.145-6.173-86.948
		c-0.643-4.223-1.308-9.374-6.582-10.921c-7.939-1.688-15.785-4.519-23.633-5.686c-35.545-0.761-70.87-5.434-106.504-4.908
		c-49.581,0.736-99.182-0.101-148.306,8.706c-9.073,1.628-12.373,5.792-13.476,14.699c-6.697,54.071-5.73,108.283-3.618,162.507
		c0.543,13.924,2.767,27.784,4.354,41.66c0.834,7.271,3.216,11.453,12.26,12.959C447.875,274.635,492.679,275.577,537.59,275.542z"
		/>
	<path fill="#F7D119" d="M537.59,275.542c-44.912,0.035-89.716-0.909-134.231-8.324c-9.043-1.505-11.426-5.687-12.26-12.959
		c-1.587-13.875-3.81-27.735-4.354-41.658c-2.112-54.226-3.079-108.436,3.619-162.507c1.102-8.908,4.403-13.071,13.475-14.7
		c49.125-8.806,98.726-7.969,148.307-8.706c35.633-0.525,100.572,3.808,106.503,4.909c11.35,1.161,16.984,2.436,23.851,5.047
		c6.147,3.005,5.719,7.337,6.363,11.56c4.389,28.802,5.747,57.872,6.173,86.948c0.566,38.462-1.139,76.848-5.125,115.144
		c-1.026,9.868-4.059,15.238-14.91,17.013C629.441,274.773,583.566,275.655,537.59,275.542z M609.213,111.595
		c-0.197-24.6-8.867-40.029-26.264-50.473c-24.141-14.496-68.5-11.044-89.717,7.065c-4.052,3.456-7.562,7.127-7.001,13.499
		c2.374,26.963,17.553,37.312,42.666,28.711c0.678-0.234,1.322-0.662,2.012-0.758c3.807-0.525,8.238-2.452,10.873,1.649
		c2.326,3.626-0.734,6.58-2.79,9.554c-5.696,8.251-13.537,15.003-17.599,24.357c-6.004,13.829-10.408,29.015-1.698,42.118
		c4.96,7.468,3.798,9.843-1.006,15.221c-10.754,12.042-9.667,30.222,1.778,42.021c11.796,12.164,29.968,12.742,43.749,0.864
		c8.377-7.221,15.69-26.508,5.937-40.266c-5.59-7.883-4.661-12.962-1.955-22.168c4.348-14.804,14.061-25.371,24.167-36.142
		C602.672,135.862,609.65,123.069,609.213,111.595z"/>
	<path fill="#321A0E" d="M609.213,111.595c0.436,11.474-6.541,24.268-16.848,35.252c-10.106,10.77-19.818,21.337-24.167,36.142
		c-2.706,9.205-3.634,14.285,1.955,22.168c9.754,13.758,2.44,33.046-5.937,40.265c-13.781,11.877-31.953,11.3-43.749-0.864
		c-11.445-11.798-12.533-29.979-1.778-42.02c4.804-5.378,5.968-7.754,1.006-15.222c-8.71-13.103-4.308-28.288,1.698-42.118
		c4.062-9.352,11.903-16.105,17.6-24.357c2.055-2.974,5.114-5.927,2.789-9.554c-2.636-4.102-7.065-2.175-10.873-1.648
		c-0.692,0.094-1.334,0.522-2.012,0.757c-25.111,8.601-40.292-1.748-42.666-28.71c-0.561-6.373,2.949-10.043,7.001-13.5
		c21.218-18.109,65.576-21.561,89.717-7.064C600.347,71.566,609.016,86.995,609.213,111.595z M544.09,181.157
		c7.828,1.954,12.182-1.81,14.09-11.163c1.494-7.318,6.373-13.563,11.542-19.165c5.592-6.058,11.66-11.734,16.766-18.175
		c17.953-22.644,9.606-54.182-17.282-63.451c-21.819-7.52-43.142-4.179-63.357,6.625c-2.899,1.547-5.308,3.283-5.25,7.321
		c0.179,12.284,9.753,19.345,21.146,15.443c3.037-1.043,6.187-1.907,9.355-2.39c8.864-1.345,17.615-1.093,23.168,7.276
		c5.667,8.53,2.419,16.408-3.219,23.736c-3.719,4.833-7.053,9.986-11.015,14.607c-6.08,7.089-9.11,15.386-10.516,24.365
		C527.475,179.248,529.301,181.227,544.09,181.157z M561.227,222.02c0.087-9.348-8.457-17.723-18.022-17.663
		c-9.634,0.058-18.218,8.291-18.319,17.575c-0.102,9.288,8.506,18.414,17.497,18.546C552.011,240.622,561.139,231.68,561.227,222.02
		z"/>
	<path fill="#FAF6F2" d="M544.09,181.157c-14.789,0.07-16.615-1.91-14.57-14.97c1.405-8.979,4.436-17.276,10.516-24.365
		c3.961-4.62,7.296-9.774,11.016-14.607c5.638-7.328,8.885-15.207,3.219-23.736c-5.555-8.369-14.305-8.621-23.168-7.276
		c-3.168,0.482-6.318,1.346-9.355,2.39c-11.393,3.902-20.968-3.16-21.146-15.443c-0.06-4.038,2.35-5.773,5.25-7.321
		c20.216-10.803,41.538-14.144,63.357-6.625c26.888,9.269,35.233,40.807,17.281,63.451c-5.106,6.441-11.175,12.117-16.766,18.175
		c-5.169,5.601-10.049,11.845-11.541,19.165C556.271,179.347,551.917,183.11,544.09,181.157z"/>
	<path fill="#FAF6F2" d="M561.227,222.02c-0.088,9.661-9.215,18.603-18.844,18.458c-8.991-0.132-17.598-9.258-17.497-18.546
		c0.101-9.282,8.685-17.517,18.319-17.575C552.771,204.296,561.314,212.672,561.227,222.02z"/>
</g>
<g>
	<path fill="#321A0E" d="M898.049,286.514c-37.921,0.394-75.908,1.066-113.62-3.969c-10.954-1.462-21.801-3.755-32.67-5.815
		c-8.49-1.609-12.166-6.973-13.577-15.498c-8.11-49.005-7.221-98.367-6.669-147.741c0.246-21.855,1.83-43.583,4.719-65.24
		c2.649-19.873,4.896-22.687,24.254-26.352c48.812-9.248,98.229-8.94,147.611-8.886c37.566,0.04,75.07,1.243,112.317,6.701
		c5.904,0.863,11.838,1.594,17.699,2.692c16.391,3.063,18.577,4.904,21.548,21.694c5.45,30.779,6.068,61.921,5.995,93.085
		c-0.095,40.618,0.195,81.226-6.248,121.568c-1.818,11.386-7.385,16.931-18.139,19.127c-24.945,5.086-50.222,7.462-75.563,8.451
		C943.187,287.21,920.602,286.514,898.049,286.514z M900.398,273.784c25.777,0.615,57.287,0.017,88.696-2.481
		c16.324-1.301,32.509-4.339,48.754-6.626c5.854-0.826,7.875-4.288,8.726-10.156c2.703-18.712,4.275-37.498,5.117-56.359
		c2.176-48.707,1.361-97.323-3.633-145.874c-1.235-12.013-6.662-16.197-18.559-18.075c-41.193-6.5-82.616-7.818-124.134-7.953
		c-46.889-0.156-93.712,0.345-140.239,8.047c-11.67,1.933-14.64,7.707-15.791,17.448c-6.959,58.914-5.417,117.911-1.796,176.913
		c0.655,10.645,2.577,21.234,4.401,31.764c0.493,2.845,1.425,6.247,5.019,7.024c13.076-6.73,24.66,2.5,36.918,3.159
		C827.471,272.433,861.024,273.81,900.398,273.784z"/>
	<path fill="#F7D119" d="M900.398,273.784c-39.374,0.025-72.928-1.352-106.52-3.168c-12.259-0.659-23.1-1.216-36.918-3.158
		c-2.777,0.038-4.526-4.18-5.019-7.024c-1.825-10.531-3.747-21.121-4.401-31.765c-3.621-59.001-5.162-117.998,1.796-176.913
		c1.15-9.742,4.121-15.516,15.79-17.449c46.528-7.701,93.351-8.202,140.239-8.046c41.518,0.133,82.941,1.453,124.135,7.952
		c11.895,1.878,17.322,6.062,18.558,18.075c4.993,48.55,5.81,97.166,3.634,145.874c-0.842,18.862-2.414,37.646-5.117,56.359
		c-0.852,5.868-2.871,9.329-8.726,10.156c-16.245,2.286-32.431,5.325-48.754,6.625C957.686,273.801,926.176,274.399,900.398,273.784
		z M930.813,246.274c0,0.011,0,0.02,0,0.033c6.092,0,12.182,0.044,18.275-0.008c19.818-0.172,29.063-10.999,27.39-30.796
		c-0.929-11.027-0.594-22.175-0.545-33.268c0.021-4.951,1.313-9.357,7.745-9.319c6.494,0.041,11.979-1.365,14.147-8.742
		c2.163-7.354-1.331-12.306-6.054-17.115c-26.314-26.804-52.533-53.698-78.863-80.485c-11.756-11.958-16.565-11.981-28.287,0.191
		c-26.048,27.056-51.875,54.327-77.961,81.346c-4.631,4.796-7.418,9.94-5.087,16.349c2.582,7.094,8.552,9.19,15.641,8.421
		c7.021-0.756,9.493,2.256,9.322,9.246c-0.356,14.324,0.014,28.665-0.068,42.995c-0.029,5.221,1.042,9.646,4.932,13.608
		c9.135,9.299,19.854,8.961,30.871,5.323c10.317-3.413,13.442-12.226,13.833-22.012c0.322-8.138-0.646-16.332-0.195-24.456
		c0.172-3.07-1.854-9.172,4.943-8.409c5.176,0.575,3.861,5.25,3.929,8.591c0.158,7.872-0.115,15.753,0.078,23.623
		c0.399,16.198,8.343,24.28,24.458,24.843C916.475,246.48,923.646,246.274,930.813,246.274z"/>
	<path fill="#321A0E" d="M930.813,246.274c-7.166,0-14.338,0.206-21.497-0.041c-16.114-0.563-24.058-8.646-24.458-24.844
		c-0.195-7.869,0.079-15.751-0.077-23.622c-0.067-3.342,1.247-8.017-3.93-8.592c-6.797-0.761-4.772,5.339-4.943,8.41
		c-0.45,8.122,0.517,16.315,0.194,24.454c-0.391,9.787-3.515,18.601-13.831,22.013c-11.016,3.639-21.737,3.977-30.871-5.322
		c-3.89-3.964-4.961-8.388-4.932-13.608c0.082-14.331-0.287-28.673,0.069-42.996c0.171-6.989-2.301-10.001-9.322-9.245
		c-7.088,0.769-13.06-1.328-15.64-8.422c-2.331-6.408,0.457-11.554,5.087-16.349c26.086-27.019,51.913-54.291,77.962-81.346
		c11.721-12.173,16.529-12.149,28.285-0.191c26.33,26.789,52.551,53.683,78.863,80.486c4.723,4.81,8.217,9.762,6.054,17.116
		c-2.168,7.375-7.653,8.782-14.147,8.742c-6.432-0.039-7.725,4.367-7.745,9.318c-0.049,11.092-0.384,22.24,0.545,33.268
		c1.673,19.797-7.571,30.625-27.39,30.796c-6.094,0.054-12.184,0.009-18.275,0.009C930.813,246.294,930.813,246.286,930.813,246.274
		z M814.33,159.654c7.665,0,12.357,0.425,16.944-0.097c7.035-0.804,8.872,1.8,8.672,8.779c-0.511,17.87,0.042,35.765-0.129,53.645
		c-0.07,7.242,3.174,10.537,10.208,10.697c7.085,0.163,11.779-2.054,11.826-10.228c0.064-10.716,0.547-21.429,0.768-32.148
		c0.26-12.509,2.62-15.297,13.465-15.651c18.642-0.603,22.877,1.94,23.429,15.191c0.435,10.357,0.436,20.765-0.081,31.114
		c-0.41,8.209,2.495,11.86,10.956,11.649c13.231-0.329,26.48-0.273,39.713-0.002c9.275,0.188,12.643-4.029,12.349-13.097
		c-0.436-13.579-0.025-27.183-0.026-40.781c-0.002-19.028-0.023-19.02,18.625-19.444c0.488-0.01,0.963-0.727,2.037-1.59
		c-26.871-27.639-53.724-55.194-80.471-82.85c-2.92-3.018-4.699-2.819-7.578,0.218C868.84,102.701,842.481,130.195,814.33,159.654z"
		/>
	<path fill="#FAF6F2" d="M814.33,159.654c28.15-29.46,54.511-56.953,80.706-84.594c2.88-3.038,4.657-3.237,7.578-0.218
		c26.747,27.655,53.6,55.21,80.471,82.849c-1.074,0.863-1.549,1.581-2.037,1.59c-18.646,0.424-18.627,0.417-18.625,19.444
		c0.002,13.597-0.41,27.202,0.026,40.781c0.293,9.068-3.071,13.287-12.349,13.097c-13.234-0.27-26.482-0.327-39.713,0.003
		c-8.461,0.211-11.366-3.441-10.955-11.65c0.517-10.349,0.515-20.758,0.081-31.115c-0.554-13.251-4.788-15.793-23.429-15.19
		c-10.846,0.352-13.206,3.141-13.465,15.65c-0.222,10.72-0.705,21.433-0.769,32.149c-0.047,8.172-4.74,10.39-11.826,10.228
		c-7.033-0.161-10.278-3.456-10.209-10.697c0.172-17.881-0.38-35.776,0.13-53.646c0.2-6.979-1.638-9.582-8.673-8.779
		C826.688,160.079,821.995,159.654,814.33,159.654z M930.807,207.033c16.354-0.068,18.602-2.175,18.515-17.341
		c-0.085-14.616-1.794-15.851-21.946-15.875c-10.913-0.013-13.639,3.334-13.533,16.61
		C913.953,204.651,916.449,207.089,930.807,207.033z"/>
	<path fill="#321A0E" d="M930.807,207.033c-14.357,0.057-16.854-2.382-16.965-16.604c-0.105-13.276,2.62-16.623,13.533-16.61
		c20.152,0.022,21.861,1.257,21.946,15.874C949.41,204.858,947.161,206.965,930.807,207.033z"/>
</g>
<g>
	<path fill="#321A0E" d="M899.328,588.935c-46.46-1.506-90.748-0.68-134.54-8.353c-23.225-4.066-25.969-5.126-28.449-27.407
		c-7.82-70.271-8.979-140.598,0.529-210.921c1.78-13.16,9.028-18.58,20.727-20.646c39.445-6.959,79.272-9.072,119.225-8.818
		c33.055,0.209,66.137,0.482,99.146,2.016c23.609,1.098,47.289,2.977,70.392,8.818c7.33,1.852,11.6,5.896,13.205,13.673
		c7.316,35.469,7.542,71.509,7.715,107.381c0.184,38.731-0.19,77.564-7.088,115.994c-1.992,11.113-7.92,15.779-18.151,17.927
		C994.152,588.643,945.504,587.34,899.328,588.935z M898.871,574.3c31.978-0.196,63.994,0.502,95.865-2.738
		c14.598-1.481,29.114-3.812,43.617-6.081c5.184-0.812,9.34-3.081,9.818-9.539c1.332-17.899,3.557-35.744,4.48-53.66
		c1.796-34.813,1.239-69.672,0.057-104.485c-0.57-16.835-3.029-33.603-4.344-50.422c-0.634-8.14-4.988-11.301-12.695-12.729
		c-30.416-5.634-61.271-7.51-91.98-9.141c-41.633-2.207-83.392-0.269-125.026,2.349c-18.976,1.191-37.987,2.847-56.637,6.788
		c-4.355,0.923-10.865,0.009-11.677,7.142c-1.639,14.381-3.785,28.742-4.571,43.176c-2.775,50.998-2.555,101.962,2.326,152.879
		c2.472,25.805,2.069,25.84,27.183,30.033c3.529,0.589,7.029,1.389,10.577,1.83C823.401,574.393,861.13,574.512,898.871,574.3z"/>
	<path fill="#F7D119" d="M898.871,574.3c-37.741,0.213-75.47,0.093-113.01-4.6c-3.545-0.441-7.045-1.241-10.576-1.83
		c-25.113-4.193-24.709-4.228-27.182-30.032c-4.881-50.915-5.101-101.882-2.326-152.88c0.786-14.434,2.933-28.795,4.571-43.176
		c0.813-7.133,7.322-6.219,11.677-7.141c18.648-3.941,37.66-5.597,56.637-6.789c41.633-2.617,83.393-4.555,125.026-2.348
		c30.709,1.63,61.564,3.507,91.982,9.14c7.707,1.431,12.06,4.591,12.694,12.729c1.313,16.819,3.772,33.588,4.343,50.423
		c1.184,34.813,1.74,69.672-0.056,104.484c-0.925,17.917-3.149,35.762-4.48,53.661c-0.479,6.458-4.636,8.727-9.819,9.539
		c-14.503,2.27-29.02,4.599-43.617,6.081C962.865,574.802,930.849,574.104,898.871,574.3z M808.658,417.22
		c0.152,13.544-0.895,27.104,2.169,40.545c1.82,7.982,5.664,13.777,14.477,12.642c21.681-2.793,43.379-5.684,64.868-9.643
		c11.523-2.124,14.498-14.656,6.609-23.324c-2.23-2.449-7.234-4.156-4.811-8.372c1.943-3.376,6.531-1.984,10.014-2.134
		c3.95-0.17,7.79,0.161,11.577,1.854c15.87,7.089,22.103,24.207,14.204,39.565c-7.564,14.716-28.089,21.327-41.52,12.026
		c-8.393-5.815-16.069-6.535-25.273-3.807c-7.536,2.23-15.418,3.27-23.055,5.196c-15.732,3.97-19.443,11.639-11.616,25.896
		c8.801,16.034,22.75,25.648,39.946,32.133c33.399,12.6,64.834,9.663,92.568-12.314c28.639-22.696,40.607-53.411,33.627-89.949
		c-12.524-65.563-88.379-96.284-143.903-57.604c-6.832,4.763-11.223,7.737-17.502-0.171c-3.601-4.538-9.328-5.136-14.846-2.572
		c-5.533,2.568-7.708,7.028-7.583,13.055C808.796,399.229,808.658,408.227,808.658,417.22z"/>
	<path fill="#321A0E" d="M808.658,417.22c0-8.993,0.139-17.99-0.049-26.979c-0.125-6.025,2.051-10.487,7.583-13.057
		c5.518-2.562,11.245-1.965,14.845,2.574c6.28,7.907,10.672,4.933,17.502,0.171c55.525-38.68,131.379-7.96,143.902,57.604
		c6.982,36.538-4.986,67.252-33.625,89.949c-27.735,21.977-59.169,24.915-92.568,12.314c-17.196-6.484-31.145-16.099-39.947-32.134
		c-7.827-14.257-4.116-21.926,11.617-25.896c7.637-1.927,15.519-2.965,23.054-5.196c9.206-2.727,16.882-2.008,25.274,3.807
		c13.431,9.3,33.953,2.689,41.52-12.026c7.898-15.359,1.666-32.477-14.204-39.565c-3.787-1.692-7.628-2.024-11.579-1.854
		c-3.48,0.148-8.07-1.244-10.012,2.134c-2.424,4.216,2.578,5.923,4.809,8.372c7.891,8.668,4.916,21.2-6.609,23.325
		c-21.487,3.957-43.187,6.848-64.868,9.642c-8.813,1.136-12.656-4.659-14.477-12.643C807.763,444.324,808.81,430.764,808.658,417.22
		z M887.192,447.687c-2.409-2.981-3.626-4.704-5.056-6.225c-13.875-14.743-12.048-21.148,8.022-26.766
		c5.488-1.535,11.19-3.034,17.007-1.901c17.553,3.434,30.192,12.639,35.471,30.453c5.14,17.356,0.594,32.25-12.674,43.876
		c-13.77,12.069-30.111,16.286-46.705,6.981c-9.169-5.143-17.21-5.053-26.355-2.356c-4.103,1.213-8.37,2.526-12.577,2.577
		c-7.96,0.821-8.183,4.332-3.965,9.58c16.153,20.103,37.495,29.138,62.978,28.98c34.553-0.213,62.789-21.488,73.785-55.474
		c10.229-31.618-0.921-64.971-28.727-85.926c-25.691-19.366-64.387-20.184-90.975-1.543c-6.104,4.28-11.142,13.227-17.106,13.634
		c-5.431,0.369-11.456-7.938-16.458-11.828c0,20.283,0.002,40.596-0.001,60.907c0,3.807,1.901,4.982,5.531,4.384
		C848.065,453.969,866.757,450.984,887.192,447.687z"/>
	<path fill="#FAF6F2" d="M887.192,447.687c-20.437,3.298-39.128,6.282-57.804,9.354c-3.631,0.599-5.531-0.577-5.531-4.384
		c0.003-20.312,0-40.624,0-60.907c5.001,3.89,11.027,12.197,16.458,11.828c5.964-0.407,11.001-9.354,17.106-13.634
		c26.588-18.641,65.284-17.823,90.975,1.543c27.805,20.955,38.955,54.308,28.725,85.926c-10.992,33.985-39.23,55.261-73.783,55.474
		c-25.482,0.158-46.825-8.877-62.978-28.98c-4.218-5.248-4.407-8.759,3.965-9.58c5.201-0.608,8.473-1.364,12.577-2.577
		c9.146-2.696,17.186-2.786,26.355,2.356c16.594,9.304,32.935,5.088,46.705-6.981c13.268-11.625,17.813-26.52,12.672-43.876
		c-5.276-17.814-17.914-27.02-35.469-30.453c-5.816-1.135-11.52,0.366-17.007,1.901c-20.071,5.617-21.898,12.022-8.024,26.766
		C883.566,442.982,884.783,444.705,887.192,447.687z"/>
</g>
<g>
	<path fill="#321A0E" d="M1091.798,161.521c-0.391-35.505,0.12-70.964,4.458-106.261c0.089-0.712,0.092-1.436,0.207-2.143
		c4.658-28.129,4.123-26.633,32.482-31.721c35.197-6.319,70.972-7.377,106.748-7.387c48.972-0.01,97.977-0.296,146.557,6.782
		c39.832,5.806,36.726,3.14,41.022,43.319c6.223,58.162,5.453,116.554,0.254,174.841c-0.315,3.548-1.091,7.061-1.623,10.592
		c-4.049,26.81-6.375,28.375-33.417,32.248c-30.915,4.43-61.949,5.3-93.07,5.787c-44.053,0.692-88.124,2.272-132.075-1.977
		c-16.005-1.548-31.929-4.099-47.813-6.667c-10.393-1.682-15.608-7.922-17.14-18.856
		C1093.811,227.354,1092.348,194.478,1091.798,161.521z M1413.583,144.723c-0.36-23.187,0.311-53.667-4.081-83.906
		c-3.596-24.754-3.68-24.31-28.394-27.195c-46.332-5.412-92.805-7.021-139.392-6.363c-39.389,0.555-78.745,1.458-117.688,8.555
		c-7.672,1.4-11.688,3.891-13.069,12.401c-4.029,24.851-4.508,49.918-5.495,74.917c-1.353,34.365,1.017,68.684,2.821,103.015
		c1.977,37.615,1.4,37.646,35.656,43.91c1.406,0.258,2.838,0.38,4.263,0.531c42.454,4.543,85.051,4.682,127.678,4.378
		c40.091-0.286,80.1-1.184,119.687-8.558c7.415-1.382,12.128-3.971,13.058-12.577
		C1412.276,219.955,1413.864,186.009,1413.583,144.723z"/>
	<path fill="#F7D119" d="M1413.583,144.723c0.281,41.286-1.307,75.232-4.959,109.107c-0.928,8.607-5.641,11.195-13.058,12.575
		c-39.585,7.375-79.596,8.273-119.687,8.559c-42.627,0.304-85.224,0.166-127.678-4.376c-1.423-0.152-2.856-0.274-4.263-0.533
		c-34.255-6.263-33.678-6.295-35.654-43.909c-1.807-34.332-4.175-68.65-2.821-103.015c0.986-24.998,1.464-50.065,5.495-74.917
		c1.381-8.511,5.396-11.001,13.069-12.401c38.943-7.097,78.298-8,117.688-8.555c46.587-0.657,93.06,0.951,139.392,6.363
		c24.714,2.884,24.798,2.441,28.394,27.195C1413.894,91.056,1413.223,121.537,1413.583,144.723z"/>
	<path fill="#FFFFFF" stroke="#321A0E" stroke-width="12" stroke-miterlimit="10" d="M1258.005,235.947
		c-27.634,0-55.267-0.016-82.9,0.016c-4.433,0.005-8.858,0.08-13.082-1.516c-6.271-2.368-10.872-6.626-12.911-13.005
		c-1.111-3.479-1.576-7.305-1.591-10.976c-0.117-31.514-0.072-63.027-0.06-94.541c0.005-10.478,4.76-17.962,14.35-22.216
		c1.61-0.715,3.505-1.079,5.275-1.104c9.05-0.127,18.104-0.163,27.156-0.085c6.604,0.057,9.949-3.603,11.59-8.967
		c1.939-6.351,3.852-12.744,6.371-18.874c1.601-3.896,5.301-5.563,9.578-5.565c18.104-0.008,36.21-0.016,54.314-0.02
		c6.056,0,12.115,0.003,18.173,0.019c5.255,0.014,8.974,2.422,10.79,7.95c2.055,6.25,4.075,12.512,6.229,18.727
		c1.434,4.13,5.286,6.698,9.676,6.708c9.323,0.021,18.66-0.256,27.968,0.146c7.316,0.317,12.783,4.314,16.617,10.516
		c2.619,4.233,3.263,8.916,3.261,13.787c-0.019,31.786,0.026,63.572-0.015,95.358c-0.011,8.898-3.466,15.977-11.348,20.64
		c-4.131,2.443-8.653,3.036-13.271,3.043c-28.723,0.048-57.445,0.025-86.168,0.025
		C1258.005,235.991,1258.005,235.968,1258.005,235.947z M1313.307,158.674c0.303-30.867-24.96-55.309-55.092-55.363
		c-30.295-0.054-55.479,24.605-55.334,55.593c0.141,30.188,24.86,54.966,55.334,54.913
		C1288.682,213.763,1313.576,188.948,1313.307,158.674z M1338.844,114.593c-4.285-0.029-8.041,3.408-7.87,7.5
		c0.156,3.705,3.116,7.684,7.718,7.718c5.342,0.042,7.657-3.977,7.939-7.542C1346.964,118.066,1343.247,114.623,1338.844,114.593z"
		/>
	<path fill="#FFFFFF" d="M1313.307,158.674c0.27,30.274-24.625,55.089-55.092,55.144c-30.474,0.054-55.194-24.724-55.334-54.913
		c-0.145-30.988,25.039-55.647,55.334-55.593C1288.345,103.365,1313.609,127.806,1313.307,158.674z M1291.15,156.938
		c-0.889-19.393-17.523-33.065-35.949-31.425c-17.018,1.514-32.316,16.022-29.871,37.494c0.969,8.512,4.925,15.619,11.577,20.966
		c8.158,6.558,17.435,9.231,27.91,7.066C1279.234,188.059,1292.146,174.761,1291.15,156.938z"/>
	<path fill="#FFFFFF" d="M1338.844,114.593c4.403,0.03,8.12,3.473,7.787,7.677c-0.282,3.565-2.598,7.583-7.939,7.542
		c-4.602-0.035-7.562-4.014-7.718-7.718C1330.803,118.001,1334.559,114.564,1338.844,114.593z"/>
	<path fill="#321A0E" d="M1291.15,156.938c0.995,17.824-11.918,31.12-26.333,34.101c-10.476,2.164-19.752-0.509-27.91-7.066
		c-6.652-5.348-10.608-12.455-11.577-20.967c-2.445-21.47,12.854-35.979,29.871-37.494
		C1273.627,123.873,1290.262,137.544,1291.15,156.938z"/>
</g>
<g>
	<path fill="#321A0E" d="M1258.446,586.497c-44.003,0.214-88.075,0.638-131.712-6.534c-4.58-0.759-9.134-1.692-13.662-2.713
		c-8.941-2.023-13.861-7.145-15.422-16.713c-6.951-42.579-7.851-85.477-7.37-128.436c0.351-31.46,1.6-62.898,7.478-93.967
		c1.605-8.495,6.21-12.617,14.553-14.721c28.988-7.298,58.651-8.679,88.197-9.604c60.5-1.896,121.037-2.457,181.247,5.774
		c3.539,0.485,7.045,1.223,10.56,1.874c25.211,4.66,24.98,3.667,28.318,30.603c7.382,59.536,6.257,119.321,2.092,179.058
		c-0.649,9.239-2.806,18.365-3.701,27.596c-1.052,10.861-7.104,16.491-17.303,18.871c-26.642,6.219-53.855,7.396-80.973,8.708
		C1300.028,587.299,1279.219,586.497,1258.446,586.497z M1274.559,326.025c-32.97-1.219-65.896,0.364-98.755,2.315
		c-18.448,1.093-37.034,2.373-55.179,6.619c-5.471,1.28-8.971,3.255-10.335,10.052c-3.183,15.858-4.622,31.881-5.055,47.856
		c-1.36,50.407-2.095,100.825,3.695,151.112c2.227,19.355,2.656,20.401,21.852,22.999c43.687,5.91,87.589,6.672,131.589,6.72
		c42.593,0.044,85.039-1.556,127.261-7.246c7.788-1.047,16.455-1.542,17.123-13.254c0.913-16.049,3.479-32.004,4.293-48.057
		c2.643-52.23,2.462-104.383-4.01-156.442c-1.277-10.266-6.225-12.669-14.848-14.159
		C1353.237,327.809,1313.873,327.278,1274.559,326.025z"/>
	<path fill="#F7D119" d="M1274.559,326.025c39.314,1.253,78.679,1.782,117.632,8.518c8.623,1.488,13.57,3.892,14.846,14.157
		c6.474,52.06,6.654,104.212,4.011,156.442c-0.812,16.049-3.377,32.008-4.293,48.057c-0.669,11.709-9.334,12.207-17.122,13.254
		c-42.222,5.69-84.668,7.29-127.262,7.246c-43.999-0.046-87.901-0.808-131.589-6.72c-19.194-2.598-19.624-3.642-21.851-22.999
		c-5.79-50.287-5.055-100.705-3.695-151.112c0.433-15.977,1.874-31.998,5.056-47.856c1.366-6.797,4.865-8.771,10.334-10.052
		c18.146-4.246,36.73-5.526,55.181-6.619C1208.664,326.39,1241.589,324.807,1274.559,326.025z M1362.867,418.879
		c-0.214-8.645-1.606-11.753-8.899-18.35c-3.428-3.1-7.206-5.864-10.345-9.229c-11.241-12.047-23.16-12.335-35.198-0.705
		c-15.346,14.819-30.587,29.755-46.229,44.256c-6.477,6.009-11.821,17.106-19.815,16.654c-8.358-0.468-14.176-11.054-20.347-17.831
		c-26.669-29.298-38.353-23.489-60.656,1.362c-3.395,3.778-5.335,8.249-7.39,12.864c-3.482,7.819-0.561,14.626,4.064,19.506
		c21.124,22.286,42.885,43.964,64.542,65.741c10.608,10.662,23.125,10.915,33.829,0.708c33.014-31.486,65.888-63.12,98.929-94.575
		C1360.962,433.939,1363.494,427.746,1362.867,418.879z"/>
	<path fill="#321A0E" d="M1362.867,418.879c0.627,8.867-1.905,15.061-7.514,20.4c-33.041,31.456-65.914,63.09-98.929,94.573
		c-10.702,10.21-23.22,9.957-33.827-0.708c-21.659-21.774-43.418-43.452-64.543-65.738c-4.625-4.88-7.547-11.689-4.064-19.509
		c2.054-4.612,3.996-9.083,7.389-12.861c22.305-24.852,33.988-30.662,60.656-1.364c6.171,6.776,11.987,17.362,20.349,17.833
		c7.993,0.452,13.337-10.646,19.815-16.654c15.642-14.503,30.881-29.439,46.228-44.258c12.037-11.628,23.958-11.34,35.197,0.705
		c3.139,3.365,6.918,6.132,10.347,9.229C1361.261,407.126,1362.653,410.234,1362.867,418.879z M1350.104,420.124
		c-1.271-7.719-7.595-11.76-12.576-16.682c-10.92-10.784-12.125-10.79-23.239-0.003c-21.042,20.432-42.122,40.828-62.854,61.576
		c-6.267,6.267-11.367,5.96-17.285,0.058c-8.104-8.084-16.54-15.829-24.615-23.939c-17.503-17.588-17.444-17.64-34.979,0.202
		c-9.324,9.49-9.342,13.159-0.525,22.313c18.804,19.515,38.984,37.692,56.278,58.705c3.802,4.617,9.907,7.536,15.927,1.811
		c33.182-31.518,66.378-63.007,99.507-94.582C1348.317,427.126,1350.662,424.26,1350.104,420.124z"/>
	<path fill="#FAF6F2" d="M1350.104,420.124c0.557,4.136-1.787,7.002-4.361,9.458c-33.129,31.575-66.326,63.064-99.507,94.582
		c-6.02,5.726-12.125,2.807-15.927-1.811c-17.294-21.015-37.475-39.19-56.278-58.705c-8.816-9.153-8.799-12.822,0.525-22.313
		c17.534-17.841,17.476-17.789,34.979-0.201c8.074,8.11,16.512,15.858,24.615,23.939c5.918,5.902,11.019,6.209,17.285-0.058
		c20.731-20.748,41.813-41.146,62.854-61.577c11.114-10.786,12.319-10.782,23.239,0.004
		C1342.51,408.364,1348.834,412.405,1350.104,420.124z"/>
</g>
<g>
	<path fill="#321A0E" d="M1563.777,287.668c-28.798-0.284-57.307-3.013-85.636-8.513c-12.154-2.359-17.689-8.659-19.209-20.496
		c-6.648-51.78-8-103.724-5.331-155.803c1.112-21.691,1.348-43.469,7.117-64.717c1.704-6.274,4.764-9.638,10.854-11.581
		c18.532-5.917,37.783-7.813,56.896-8.935c70.96-4.161,141.925-4.828,212.696,3.703c1.415,0.17,2.85,0.228,4.262,0.415
		c30.163,4.017,34.318,8.256,37.188,38.241c5.856,61.258,5.86,122.516-0.06,183.773c-3.017,31.23-3.907,32.17-35.032,37.572
		c-24.658,4.279-49.512,6.178-74.484,6.347C1636.639,287.673,1600.209,287.67,1563.777,287.668z M1608.463,274.683
		c40.875,0.053,73.729,0.26,106.447-2.725c14.48-1.319,29.055-2.523,43.279-6.053c5.958-1.477,8.64-4.62,9.468-11.002
		c2.526-19.463,3.676-38.981,4.765-58.562c2.638-47.455,1.075-94.673-3.884-141.944c-1.339-12.745-6.444-16.704-17.958-18.337
		c-72.066-10.24-144.393-9.588-216.778-5.613c-15.962,0.876-31.764,4.356-47.714,5.833c-10.164,0.939-13.596,6.518-14.772,15.672
		c-1.474,11.484-3.444,22.77-3.903,34.504c-1.618,41.368-2.129,82.691,0.457,124.01c0.912,14.569,2.796,29.071,4.04,43.624
		c0.578,6.756,2.673,11.258,10.519,12.169c11.985,1.396,23.789,4.535,35.789,5.569
		C1550.908,274.642,1583.71,274.953,1608.463,274.683z"/>
	<path fill="#F18523" d="M1563.777,287.668c36.432,0.001,72.861,0.005,109.261,0.007
		C1636.597,290.25,1600.187,289.53,1563.777,287.668z"/>
	<path fill="#F7D119" d="M1608.463,274.683c-24.753,0.27-57.554-0.042-90.246-2.854c-11.998-1.034-23.804-4.173-35.788-5.568
		c-7.846-0.912-9.941-5.414-10.519-12.17c-1.244-14.552-3.127-29.055-4.041-43.623c-2.585-41.318-2.074-82.642-0.456-124.011
		c0.459-11.734,2.429-23.021,3.903-34.504c1.176-9.154,4.607-14.733,14.772-15.672c15.95-1.477,31.752-4.958,47.713-5.833
		c72.388-3.975,144.714-4.626,216.779,5.614c11.514,1.634,16.62,5.592,17.958,18.337c4.958,47.271,6.521,94.489,3.884,141.944
		c-1.09,19.581-2.237,39.098-4.765,58.562c-0.828,6.382-3.51,9.526-9.469,11.002c-14.224,3.53-28.798,4.734-43.276,6.054
		C1682.192,274.942,1649.338,274.736,1608.463,274.683z M1574.453,155.025c-0.078,0-0.16,0-0.238,0
		c0,24.247-0.159,48.492,0.052,72.736c0.152,17.342,15.048,26.659,29.219,17.268c34.408-22.798,68.413-46.23,102.016-70.201
		c13.247-9.45,11.851-26.332-1.511-36.021c-5.754-4.17-11.531-8.306-17.35-12.386c-26.804-18.795-53.608-37.593-80.456-56.326
		c-6.808-4.753-13.886-6.552-22.101-2.856c-8.811,3.965-9.729,11.117-9.68,19.327
		C1574.545,109.384,1574.453,132.207,1574.453,155.025z"/>
	<path fill="#321A0E" d="M1574.453,155.025c0-22.818,0.092-45.64-0.047-68.459c-0.051-8.21,0.868-15.362,9.68-19.328
		c8.215-3.696,15.292-1.896,22.1,2.856c26.849,18.734,53.653,37.531,80.458,56.326c5.816,4.081,11.594,8.217,17.347,12.387
		c13.362,9.689,14.759,26.57,1.512,36.02c-33.603,23.971-67.608,47.403-102.015,70.202c-14.171,9.392-29.067,0.074-29.22-17.268
		c-0.211-24.244-0.052-48.489-0.052-72.736C1574.294,155.025,1574.375,155.025,1574.453,155.025z M1587.422,156.593
		c0.11,0,0.222,0,0.334,0c0,22.5-0.023,45.003,0.022,67.504c0.007,3.414-1.653,7.431,2.262,9.789
		c4.229,2.55,7.397-0.494,10.546-2.678c31.057-21.559,62.103-43.127,93.113-64.749c10.055-7.01,10.188-11.355,0.097-18.491
		c-31.154-22.031-62.447-43.865-93.671-65.796c-2.931-2.058-5.813-4.777-9.634-2.704c-3.838,2.083-3.034,6.136-3.042,9.621
		C1587.398,111.593,1587.422,134.094,1587.422,156.593z"/>
	<path fill="#FAF6F2" d="M1587.422,156.593c0-22.499-0.025-45,0.027-67.503c0.008-3.484-0.796-7.538,3.042-9.62
		c3.821-2.074,6.703,0.645,9.634,2.703c31.224,21.932,62.517,43.765,93.671,65.797c10.091,7.135,9.958,11.481-0.097,18.491
		c-31.011,21.622-62.059,43.191-93.113,64.749c-3.149,2.184-6.316,5.228-10.546,2.679c-3.915-2.359-2.256-6.377-2.264-9.789
		c-0.044-22.501-0.022-45.004-0.022-67.505C1587.644,156.593,1587.533,156.593,1587.422,156.593z"/>
</g>
</svg>
