<?xml version="1.0" encoding="utf-8"?>
<!-- Generator: Adobe Illustrator 16.0.0, SVG Export Plug-In . SVG Version: 6.00 Build 0)  -->
<!DOCTYPE svg PUBLIC "-//W3C//DTD SVG 1.1//EN" "http://www.w3.org/Graphics/SVG/1.1/DTD/svg11.dtd">
<svg version="1.1" id="Layer_1" xmlns="http://www.w3.org/2000/svg" xmlns:xlink="http://www.w3.org/1999/xlink" x="0px" y="0px"
	 width="1801.621px" height="600px" viewBox="0 0 1801.621 600" enable-background="new 0 0 1801.621 600" xml:space="preserve">
<path fill="#321A0E" d="M180.414,286.483c-44.423,0.206-88.929,0.66-132.979-6.593c-4.615-0.783-9.23-1.688-13.807-2.72
	c-9.023-2.063-14.012-7.212-15.576-16.854c-6.966-43.021-7.871-86.333-7.378-129.685c0.371-31.771,1.607-63.502,7.542-94.862
	c1.606-8.571,6.266-12.731,14.712-14.876c29.219-7.377,59.177-8.736,89.013-9.685c61.07-1.938,122.184-2.475,182.967,5.811
	c3.585,0.494,7.129,1.236,10.673,1.896c25.467,4.696,25.221,3.709,28.6,30.904c7.46,60.124,6.307,120.454,2.104,180.783
	c-0.66,9.313-2.844,18.544-3.751,27.857c-1.071,10.962-7.17,16.646-17.473,19.038c-26.867,6.264-54.354,7.459-81.719,8.775
	C222.406,287.307,201.39,286.483,180.414,286.483z M196.691,23.53c-33.296-1.234-66.512,0.371-99.686,2.352
	c-18.627,1.111-37.377,2.39-55.715,6.676c-5.521,1.277-9.063,3.296-10.426,10.137c-3.214,15.989-4.656,32.187-5.109,48.298
	c-1.358,50.894-2.102,101.785,3.75,152.556c2.269,19.533,2.681,20.604,22.048,23.201c44.094,5.975,88.435,6.717,132.855,6.799
	c42.981,0.042,85.838-1.565,128.489-7.335c7.871-1.071,16.605-1.565,17.267-13.395c0.906-16.193,3.503-32.308,4.327-48.503
	c2.679-52.747,2.473-105.371-4.039-157.953c-1.276-10.344-6.264-12.772-15-14.3C276.143,25.343,236.376,24.807,196.691,23.53z"/>
<path fill="#F7D119" d="M196.691,23.53c39.685,1.277,79.409,1.813,118.764,8.613c8.695,1.524,13.683,3.914,15,14.299
	c6.553,52.541,6.718,105.206,4.039,157.953c-0.824,16.195-3.421,32.311-4.327,48.503c-0.659,11.827-9.437,12.321-17.267,13.396
	c-42.609,5.728-85.467,7.376-128.489,7.335c-44.423-0.041-88.722-0.824-132.855-6.8c-19.367-2.64-19.82-3.668-22.048-23.2
	c-5.852-50.771-5.108-101.662-3.75-152.558c0.453-16.11,1.896-32.308,5.109-48.296c1.36-6.882,4.904-8.858,10.426-10.138
	c18.338-4.286,37.088-5.563,55.715-6.676C130.181,23.901,163.396,22.293,196.691,23.53z"/>
<path fill="#321A0E" d="M222.117,195.165c-42.238-0.082-76.03-34.079-75.865-76.277c0.165-41.909,34.615-76.03,76.607-75.824
	c41.58,0.206,75.288,34.286,75.371,76.195C298.313,161.415,264.356,195.289,222.117,195.165z M221.747,174.684
	c30.618,0.288,55.467-23.941,55.92-54.561c0.453-30.906-24.105-56.209-54.849-56.538c-30.865-0.33-55.879,24.766-56.085,56.208
	C166.609,149.505,191.541,174.395,221.747,174.684z"/>
<path fill="#FFFFFF" stroke="#321A0E" stroke-width="14" stroke-miterlimit="10" d="M174.356,194.381
	c-1.359,2.102-2.186,4.245-3.667,5.604c-18.627,17.104-37.294,34.121-56.003,51.143c-4.203,3.832-8.242,3.503-12.033-0.742
	c-6.183-6.882-12.321-13.764-18.544-20.563c-3.956-4.324-3.297-8.198,0.824-11.948c18.379-16.648,36.758-33.258,55.014-50.068
	c4.862-4.492,8.777-4.08,12.979,0.741c5.771,6.594,11.785,12.938,17.557,19.533C171.967,189.766,172.914,191.991,174.356,194.381z"
	/>
<path fill="#FFFFFF" d="M221.705,181.195c-33.75-0.33-61.605-28.104-61.399-61.316c0.206-35.11,28.146-63.132,62.638-62.764
	c34.327,0.371,61.729,28.643,61.235,63.135C283.643,154.45,255.909,181.483,221.705,181.195z"/>
<path fill="#321A0E" d="M260.029,116.002c-0.37-5.646-3.791-8.901-9.479-9.065c-4.079-0.124-8.157-0.248-12.196,0.041
	c-3.009,0.206-3.667-0.907-3.502-3.627c0.246-3.914,0.122-7.87,0.041-11.785c-0.083-5.729-3.504-9.396-9.231-9.767
	c-2.431-0.165-4.903-0.165-7.335-0.082c-6.223,0.206-9.684,3.708-9.808,10.055c-0.082,4.079-0.123,8.159,0.041,12.197
	c0.083,2.35-0.7,3.132-3.051,3.05c-3.914-0.165-7.87-0.124-11.785-0.165c-6.842,0-10.838,4.08-10.674,10.962
	c0.082,2.557,0.288,5.109,0.7,7.665c0.783,5.109,4.039,7.747,9.313,7.706c3.915-0.042,7.871,0.041,11.784-0.206
	c2.804-0.206,3.956,0.741,3.874,3.585c-0.082,4.45-0.123,8.942,0.041,13.436c0.164,5.521,1.153,6.553,6.389,7.83
	c3.503,0.863,7.006,0.452,10.55,0.412c5.521-0.041,9.023-3.627,9.146-9.189c0.083-4.327,0.124-8.695,0-13.021
	c-0.082-2.103,0.617-2.886,2.763-2.803c4.079,0.123,8.159-0.041,12.196,0.082c3.216,0.083,5.604-1.604,8.282-3.132
	c1.318-1.565,1.813-3.544,1.896-5.563C260.194,121.689,260.235,118.846,260.029,116.002z"/>
<g>
	<path fill="#321A0E" d="M182.219,590.174c-34.516,0.394-69.062,0.307-103.461-2.85c-15.102-1.384-30.205-3.511-45.063-6.502
		c-8.118-1.64-13.592-7.271-14.935-16.491c-8.643-59.247-8.136-118.752-5.271-178.315c0.698-14.48,1.697-28.967,4.627-43.238
		c3.149-15.33,6.322-18.627,21.718-21.215c21.625-3.64,43.306-6.374,65.298-7.328c67.064-2.903,134.029-3.431,200.79,4.912
		c7.518,0.941,14.938,2.678,22.382,4.153c10.031,1.981,14.5,8.229,16.458,18.302c6.112,31.459,6.06,63.311,6.491,95.045
		c0.527,38.841,0.435,77.744-4.982,116.387c-3.252,23.198-6.296,26.543-29.292,30.053c-29.493,4.5-59.157,6.876-88.987,7.068
		C212.735,590.252,197.477,590.174,182.219,590.174z M179.935,576.855c31.559,0.08,63.133,0.196,94.606-2.634
		c14.03-1.267,28.04-2.872,42.013-4.659c10.549-1.347,15.489-6.291,16.817-18.305c5.468-49.269,4.494-98.607,3.749-147.953
		c-0.29-19.179-2.135-38.33-5.314-57.32c-1.676-10.004-6.604-10.215-16.906-12.262c-1.958,0.333-3.423-0.185-5.153-0.535
		c-27.416-5.55-55.354-5.838-83.09-6.76C165.522,324.4,104.4,325.115,43.7,334.474c-6.839,1.053-11.296,3.223-12.309,10.981
		c-9.382,71.634-8.135,143.214,0.521,214.79c0.571,4.712,4.864,6.897,7.802,7.439c12.561,1.298,24.497,4.205,37.026,5.341
		C111.122,576.14,145.482,577.052,179.935,576.855z"/>
	<path fill="#F7D119" d="M179.935,576.855c-34.453,0.196-68.813-0.715-103.194-3.828c-12.529-1.136-24.474-5.041-37.026-5.34
		c-4.225-3.131-7.23-2.729-7.802-7.44c-8.655-71.576-9.901-143.156-0.521-214.79c1.012-7.76,5.469-9.928,12.308-10.981
		c60.702-9.357,121.823-10.074,182.958-8.046c27.735,0.921,55.673,1.209,83.089,6.759c1.731,0.352,3.195,0.869,5.153,0.535
		c11.115,2.479,15.23,2.26,16.906,12.262c3.18,18.991,5.025,38.143,5.314,57.321c0.746,49.347,1.719,98.687-3.748,147.952
		c-1.329,12.014-6.27,16.959-16.818,18.307c-13.974,1.785-27.984,3.392-42.013,4.658
		C243.068,577.052,211.494,576.934,179.935,576.855z M279.603,452.311c0.18,0,0.362,0,0.543,0c0-5.811,0.2-11.626-0.039-17.423
		c-0.808-19.62-10.933-29.007-30.396-28.477c-7.953,0.218-15.926,0.65-23.861,0.306c-5.3-0.229-11.403-0.313-15.562-2.957
		c-3.774-2.404,1.038-7.838,0.342-12.158c-0.964-5.992-0.732-12.08-1.879-18.163c-3.132-16.599-16.902-22.694-29.847-11.628
		c-27.82,23.793-55.216,48.1-82.294,72.729c-12.262,11.154-11.898,24.55-0.033,36.175c7.99,7.832,17.346,14.412,25.167,22.165
		c18.563,18.396,39.196,34.35,58.266,52.098c5.704,5.313,12.6,6.582,20.08,3.673c6.835-2.66,10.296-7.764,10.766-14.887
		c0.618-9.351,1.39-18.715,1.378-28.076c-0.005-7.369,3.648-10.156,10.085-8.887c9.406,1.854,18.817,0.891,28.2,0.956
		c16.663,0.109,26.472-8.266,28.917-24.815C280.432,466.2,279.603,459.195,279.603,452.311z"/>
	<path fill="#321A0E" d="M279.603,452.311c0,6.885,0.829,13.891-0.165,20.627c-2.445,16.553-12.255,24.927-28.917,24.816
		c-9.382-0.064-18.794,0.899-28.2-0.955c-6.438-1.271-10.09,1.516-10.085,8.886c0.012,9.358-0.76,18.726-1.378,28.075
		c-0.469,7.125-3.93,12.229-10.764,14.887c-7.481,2.91-14.376,1.641-20.082-3.672c-19.069-17.748-39.703-33.699-58.265-52.099
		c-7.82-7.751-17.178-14.332-25.167-22.165c-11.864-11.624-12.229-25.021,0.033-36.174c27.079-24.629,54.474-48.937,82.294-72.729
		c12.944-11.066,26.713-4.972,29.847,11.628c1.147,6.082,0.502,12.171,1.466,18.162c-0.852,7.361,0.39,8.602,0.071,12.158
		c4.158,2.646,10.263,2.729,15.562,2.959c7.937,0.346,15.909-0.09,23.861-0.308c19.463-0.53,29.589,8.856,30.396,28.478
		c0.24,5.797,0.039,11.61,0.039,17.422C279.966,452.311,279.782,452.311,279.603,452.311z M232.389,483.254
		c5.811,0,11.62,0.087,17.427-0.019c11.893-0.214,15.313-3.627,15.566-15.662c0.222-10.525,0.396-21.054,0.353-31.58
		c-0.053-12.584-3.657-16.113-16.021-16.424c-13.37-0.334-26.748-0.576-40.108-1.184c-7.181-0.327-11.273-4.563-11.788-11.73
		c-0.646-9.028-1.09-18.073-1.394-27.123c-0.105-3.178,1.225-6.822-2.404-8.676c-3.615-1.844-6.206,0.998-8.59,3.087
		c-25.622,22.481-51.274,44.924-76.708,67.612c-9.932,8.861-9.694,13.272,0.188,22.047c23.599,20.949,47.102,42.012,71.024,62.585
		c4.296,3.694,8.222,11.827,14.815,8.5c5.565-2.809,2.695-10.648,2.669-16.229C197.274,483.768,194.565,482.63,232.389,483.254z"/>
	<path fill="#FAF6F2" d="M232.389,483.254c-37.824-0.624-35.115,0.514-34.974,35.205c0.026,5.58,2.896,13.421-2.669,16.229
		c-6.593,3.327-10.52-4.807-14.815-8.5c-23.924-20.571-47.426-41.637-71.024-62.587c-9.882-8.771-10.118-13.187-0.187-22.046
		c25.432-22.688,51.085-45.132,76.708-67.611c2.384-2.089,4.976-4.932,8.591-3.087c3.629,1.851,2.297,5.496,2.402,8.676
		c0.305,9.049,0.749,18.095,1.395,27.123c0.515,7.168,4.607,11.403,11.788,11.73c13.359,0.606,26.739,0.85,40.108,1.184
		c12.364,0.31,15.969,3.84,16.021,16.424c0.043,10.526-0.13,21.055-0.353,31.58c-0.252,12.035-3.674,15.448-15.566,15.662
		C244.01,483.341,238.2,483.254,232.389,483.254z"/>
</g>
<g>
	<path fill="#321A0E" d="M449.674,453.977c-0.034-6.885-0.403-13.791-0.033-20.654c0.767-14.342,10.92-24.328,25.171-24.737
		c13.37-0.384,26.761-0.724,40.117-0.31c5.945,0.188,6.544-2.372,6.437-7.053c-0.22-9.423-0.142-18.851-0.113-28.275
		c0.027-8.569,2.691-15.783,11.158-19.429c7.945-3.422,14.915-0.92,21.065,4.392c29.037,25.079,58.167,50.046,86.959,75.404
		c13.221,11.642,13.227,27.882,0.026,39.816c-28.189,25.488-56.715,50.604-85.154,75.813c-6.201,5.5-13.15,7.089-21.142,3.787
		c-7.942-3.279-10.203-9.788-10.511-17.405c-0.305-7.603-0.364-15.226-0.236-22.831c0.122-7.185-2.516-10.5-10.299-10.076
		c-11.21,0.61-22.468,0.363-33.705,0.301c-16.815-0.087-28.866-11.447-29.669-28.08c-0.331-6.871-0.118-13.77-0.152-20.661
		C449.623,453.978,449.647,453.977,449.674,453.977z M498.316,421.509c0,0.02,0,0.041,0,0.061
		c-6.891,0.034-13.779,0.156-20.67,0.083c-9.504-0.1-14.137,5.381-14.521,14.006c-0.554,12.301-0.488,24.663,0.026,36.97
		c0.517,12.192,5.456,16.398,18.062,16.476c13.418,0.086,26.84-0.167,40.257-0.021c10.396,0.107,15.081,4.768,15.416,15.202
		c0.284,8.698,0.239,17.405,0.282,26.11c0.018,3.625-0.729,8.002,3.103,9.703c3.255,1.445,6.133-1.659,8.509-3.768
		c27.632-24.521,55.238-49.066,82.706-73.767c6.648-5.975,6.679-12.865-0.015-18.75c-28.553-25.108-57.196-50.121-86.048-74.889
		c-6.821-5.854-10.356-4.206-10.788,4.722c-0.508,10.487-0.141,21.017-0.179,31.526c-0.034,11.171-4.364,15.802-15.499,16.193
		C512.086,421.608,505.2,421.475,498.316,421.509z"/>
	<g>
		<path fill="#321A0E" d="M539.87,590.26c-43.458-0.497-86.985,0.309-130.114-6.634c-3.924-0.63-7.801-1.663-11.747-2.04
			c-13.173-1.27-19.591-8.54-21.255-21.543c-6.309-49.286-8.543-98.742-6.618-148.371c0.951-24.547,1.622-49.137,6.919-73.314
			c1.761-8.053,5.951-12.251,14.035-14.272c37.196-9.296,75.191-10.341,113.148-11.319c49.285-1.264,98.581-1.016,147.695,4.054
			c11.104,1.147,22.021,4.047,33.105,5.525c10.2,1.36,14.853,7.08,16.654,16.839c3.827,20.73,5.811,41.667,6.389,62.646
			c1.33,48.191,2.774,96.424-3.117,144.471c-0.527,4.292-1.405,8.535-1.997,12.822c-2.039,14.769-5.313,17.797-20.288,20.858
			C635.509,589.63,587.649,589.259,539.87,590.26z M538.721,576.305c4.351-0.021,8.704-0.074,13.057-0.063
			c42.399,0.149,84.633-1.765,126.5-9.19c6.933-1.231,10.638-3.543,11.793-11.313c3.686-24.777,5.052-49.701,5.533-74.652
			c0.854-44.594-0.048-89.122-5.828-133.472c-1.225-9.393-5.442-12.599-14.263-13.967c-40.18-6.244-80.617-8.042-121.177-7.958
			c-50.724,0.109-101.418,0.325-151.687,9.054c-10.078,1.745-13.245,6.813-14.248,15.535c-6.329,55.253-5.327,110.544-2.106,165.95
			c0.672,11.544,2.09,22.756,2.861,34.393c3.644,14.136,2.046,15.199,13.225,17.784
			C447.502,576.324,493.074,577.091,538.721,576.305z"/>
		<path fill="#F7D119" d="M538.721,576.305c-45.647,0.786-91.22,0.021-136.341-7.902c-11.995-0.927-12.746-6.603-13.224-17.784
			c-0.93-11.459-2.192-22.886-2.862-34.393c-3.22-55.406-4.224-110.697,2.107-165.948c1.003-8.726,4.169-13.792,14.247-15.537
			c50.269-8.727,100.963-8.941,151.687-9.052c40.559-0.084,80.998,1.714,121.178,7.956c8.816,1.368,13.038,4.574,14.262,13.967
			c5.78,44.35,6.682,88.878,5.827,133.471c-0.481,24.952-1.848,49.875-5.532,74.653c-1.156,7.771-4.859,10.081-11.792,11.313
			c-41.866,7.429-84.102,9.341-126.502,9.192C547.426,576.23,543.072,576.282,538.721,576.305z M449.674,453.977
			c-0.026,0-0.052,0.001-0.079,0.001c0.034,6.893-0.179,13.79,0.152,20.661c0.802,16.633,12.853,27.993,29.669,28.08
			c11.236,0.063,22.494,0.311,33.704-0.3c7.782-0.425,10.419,2.89,10.3,10.075c-0.127,7.605-0.068,15.229,0.235,22.831
			c0.308,7.617,2.567,14.126,10.511,17.405c7.99,3.302,14.939,1.713,21.142-3.787c28.438-25.209,56.965-50.324,85.153-75.813
			c13.199-11.934,13.194-28.176-0.026-39.816c-28.792-25.357-57.922-50.325-86.959-75.404c-6.151-5.312-13.12-7.813-21.065-4.392
			c-8.467,3.647-11.132,10.858-11.159,19.429c-0.028,9.427-0.105,18.854,0.114,28.275c0.107,4.681-0.49,7.238-6.437,7.053
			c-13.355-0.414-26.747-0.074-40.117,0.31c-14.251,0.409-24.403,10.396-25.171,24.737
			C449.271,440.188,449.639,447.092,449.674,453.977z"/>
		<path fill="#FAF6F2" d="M498.316,421.509c6.884-0.034,13.771,0.1,20.645-0.143c11.134-0.393,15.464-5.022,15.499-16.193
			c0.038-10.511-0.332-21.039,0.178-31.526c0.431-8.928,3.967-10.574,10.788-4.722c28.852,24.768,57.496,49.779,86.05,74.891
			c6.692,5.883,6.662,12.775,0.016,18.75c-27.473,24.699-55.079,49.245-82.708,73.765c-2.375,2.107-5.253,5.215-8.508,3.77
			c-3.833-1.701-3.085-6.078-3.104-9.703c-0.043-8.705,0.002-17.41-0.282-26.11c-0.335-10.438-5.021-15.097-15.417-15.202
			c-13.417-0.146-26.839,0.107-40.257,0.021c-12.606-0.078-17.547-4.282-18.062-16.476c-0.518-12.309-0.582-24.671-0.027-36.972
			c0.385-8.623,5.017-14.104,14.521-14.006c6.891,0.073,13.78-0.047,20.67-0.081C498.316,421.55,498.316,421.528,498.316,421.509z"
			/>
	</g>
</g>
<g>
	<path fill="#321A0E" d="M542.163,289.378c-45.711-0.875-88.858-0.436-131.71-7.102c-27.22-4.239-29.803-4.738-33.285-31.282
		c-6.184-47.146-7.296-94.604-4.92-142.11c0.933-18.667,1.103-37.403,4.04-55.925c4.551-28.682,5.073-28.047,32.912-31.98
		c71.722-10.134,143.938-9.413,216.05-4.475c18.037,1.234,36.247,2.136,54.093,6.101c17.545,3.898,19.941,6.068,22.758,23.485
		c3.68,22.77,5.106,45.767,5.7,68.729c1.117,43.158,1.757,86.436-4.027,129.312c-4.632,34.328-2.176,32.173-36.193,38.035
		C625.214,289.466,582.336,288.552,542.163,289.378z M537.591,275.542c45.976,0.112,91.85-0.771,137.411-8.233
		c10.851-1.775,13.884-7.146,14.909-17.014c3.987-38.295,5.692-76.683,5.125-115.145c-0.427-29.075-1.784-58.145-6.173-86.947
		c-0.643-4.224-1.308-9.374-6.582-10.922c-7.938-1.688-15.785-4.519-23.633-5.686c-35.545-0.761-70.87-5.434-106.504-4.908
		c-49.581,0.736-99.182-0.101-148.307,8.706c-9.072,1.628-12.372,5.792-13.476,14.699c-6.697,54.071-5.73,108.283-3.618,162.507
		c0.543,13.924,2.768,27.784,4.354,41.66c0.834,7.271,3.216,11.453,12.26,12.959C447.875,274.635,492.679,275.577,537.591,275.542z"
		/>
	<path fill="#F7D119" d="M537.591,275.542c-44.912,0.035-89.716-0.909-134.231-8.324c-9.043-1.505-11.426-5.688-12.26-12.959
		c-1.587-13.875-3.811-27.735-4.354-41.658c-2.112-54.226-3.079-108.436,3.619-162.507c1.102-8.908,4.403-13.071,13.475-14.7
		c49.126-8.806,98.727-7.969,148.308-8.706c35.633-0.524,100.572,3.809,106.503,4.909c11.351,1.161,16.984,2.436,23.851,5.047
		c6.147,3.005,5.72,7.337,6.363,11.561c4.389,28.802,5.747,57.872,6.173,86.947c0.566,38.462-1.139,76.849-5.125,115.145
		c-1.025,9.868-4.059,15.238-14.909,17.013C629.441,274.773,583.566,275.655,537.591,275.542z M609.214,111.595
		c-0.197-24.6-8.867-40.029-26.265-50.473c-24.141-14.496-68.5-11.044-89.717,7.064c-4.052,3.456-7.562,7.127-7.001,13.499
		c2.374,26.963,17.553,37.313,42.666,28.711c0.678-0.233,1.322-0.662,2.012-0.758c3.808-0.525,8.238-2.452,10.873,1.649
		c2.326,3.626-0.733,6.58-2.79,9.554c-5.695,8.251-13.537,15.003-17.599,24.357c-6.004,13.828-10.408,29.015-1.698,42.117
		c4.96,7.469,3.798,9.844-1.006,15.222c-10.754,12.042-9.667,30.222,1.778,42.021c11.796,12.164,29.968,12.742,43.749,0.864
		c8.377-7.221,15.689-26.508,5.937-40.267c-5.59-7.883-4.661-12.962-1.955-22.168c4.349-14.804,14.062-25.37,24.167-36.142
		C602.673,135.862,609.65,123.069,609.214,111.595z"/>
	<path fill="#321A0E" d="M609.214,111.595c0.436,11.474-6.541,24.268-16.849,35.252c-10.105,10.771-19.817,21.337-24.167,36.142
		c-2.706,9.205-3.634,14.285,1.955,22.168c9.754,13.759,2.44,33.047-5.937,40.266c-13.781,11.877-31.953,11.3-43.749-0.864
		c-11.445-11.798-12.533-29.979-1.778-42.02c4.804-5.378,5.968-7.754,1.006-15.223c-8.71-13.103-4.308-28.288,1.698-42.118
		c4.062-9.352,11.903-16.104,17.6-24.356c2.056-2.974,5.114-5.927,2.789-9.554c-2.636-4.103-7.064-2.176-10.873-1.648
		c-0.691,0.094-1.334,0.522-2.012,0.757c-25.111,8.602-40.292-1.748-42.666-28.71c-0.562-6.373,2.949-10.043,7.001-13.5
		c21.218-18.108,65.576-21.561,89.717-7.063C600.347,71.566,609.016,86.995,609.214,111.595z M544.091,181.156
		c7.828,1.954,12.182-1.81,14.09-11.162c1.494-7.318,6.373-13.563,11.542-19.165c5.592-6.059,11.66-11.734,16.766-18.176
		c17.953-22.644,9.606-54.182-17.281-63.45c-21.819-7.521-43.143-4.18-63.357,6.625c-2.899,1.547-5.309,3.282-5.25,7.32
		c0.179,12.284,9.753,19.346,21.146,15.443c3.037-1.043,6.188-1.907,9.355-2.39c8.864-1.346,17.615-1.094,23.168,7.275
		c5.667,8.53,2.419,16.408-3.219,23.736c-3.72,4.833-7.054,9.986-11.016,14.606c-6.08,7.09-9.109,15.387-10.516,24.365
		C527.475,179.248,529.302,181.227,544.091,181.156z M561.227,222.02c0.087-9.348-8.457-17.723-18.022-17.663
		c-9.634,0.059-18.218,8.291-18.318,17.575c-0.103,9.288,8.506,18.414,17.497,18.546C552.011,240.622,561.139,231.68,561.227,222.02
		z"/>
	<path fill="#FAF6F2" d="M544.091,181.156c-14.789,0.07-16.615-1.909-14.57-14.97c1.405-8.979,4.436-17.275,10.516-24.365
		c3.961-4.619,7.296-9.773,11.017-14.606c5.638-7.328,8.885-15.207,3.219-23.736c-5.555-8.369-14.305-8.621-23.168-7.275
		c-3.168,0.481-6.318,1.346-9.355,2.39c-11.393,3.902-20.968-3.16-21.146-15.443c-0.06-4.038,2.35-5.772,5.25-7.32
		c20.216-10.804,41.538-14.145,63.357-6.625c26.888,9.269,35.232,40.807,17.28,63.45c-5.105,6.441-11.175,12.117-16.766,18.176
		c-5.169,5.601-10.049,11.845-11.541,19.165C556.271,179.347,551.918,183.11,544.091,181.156z"/>
	<path fill="#FAF6F2" d="M561.227,222.02c-0.088,9.661-9.215,18.604-18.844,18.458c-8.991-0.132-17.599-9.258-17.497-18.546
		c0.101-9.282,8.685-17.517,18.318-17.575C552.771,204.296,561.314,212.672,561.227,222.02z"/>
</g>
<g>
	<path fill="#321A0E" d="M898.05,286.514c-37.921,0.395-75.908,1.066-113.62-3.969c-10.954-1.462-21.801-3.755-32.67-5.815
		c-8.49-1.608-12.166-6.973-13.577-15.498c-8.11-49.005-7.222-98.366-6.669-147.74c0.246-21.855,1.83-43.583,4.719-65.24
		c2.649-19.873,4.896-22.688,24.254-26.353c48.813-9.248,98.229-8.939,147.611-8.886c37.566,0.04,75.07,1.243,112.316,6.701
		c5.904,0.863,11.839,1.594,17.699,2.691c16.392,3.063,18.577,4.904,21.548,21.694c5.45,30.779,6.068,61.921,5.995,93.085
		c-0.095,40.618,0.195,81.227-6.248,121.568c-1.817,11.386-7.385,16.931-18.139,19.127c-24.945,5.086-50.223,7.462-75.563,8.451
		C943.187,287.21,920.602,286.514,898.05,286.514z M900.398,273.784c25.777,0.614,57.287,0.017,88.696-2.481
		c16.323-1.301,32.509-4.339,48.754-6.626c5.854-0.826,7.875-4.288,8.726-10.156c2.703-18.712,4.275-37.498,5.117-56.358
		c2.176-48.707,1.361-97.323-3.633-145.874c-1.235-12.014-6.662-16.197-18.56-18.075c-41.192-6.5-82.615-7.818-124.134-7.953
		c-46.889-0.156-93.712,0.345-140.239,8.047c-11.67,1.933-14.64,7.707-15.791,17.448c-6.959,58.914-5.417,117.911-1.796,176.913
		c0.655,10.645,2.577,21.233,4.401,31.764c0.493,2.845,1.425,6.247,5.019,7.024c13.076-6.73,24.66,2.5,36.918,3.158
		C827.471,272.433,861.024,273.81,900.398,273.784z"/>
	<path fill="#F7D119" d="M900.398,273.784c-39.374,0.024-72.928-1.353-106.52-3.168c-12.26-0.659-23.101-1.217-36.918-3.158
		c-2.777,0.038-4.526-4.181-5.02-7.024c-1.825-10.531-3.747-21.121-4.4-31.765c-3.621-59.001-5.162-117.998,1.795-176.913
		c1.15-9.742,4.121-15.516,15.791-17.449c46.527-7.701,93.351-8.202,140.238-8.046c41.519,0.133,82.941,1.453,124.135,7.952
		c11.896,1.878,17.322,6.062,18.559,18.075c4.993,48.55,5.81,97.166,3.634,145.874c-0.842,18.861-2.414,37.646-5.117,56.358
		c-0.852,5.868-2.87,9.329-8.726,10.156c-16.245,2.286-32.431,5.325-48.754,6.625C957.686,273.801,926.177,274.399,900.398,273.784z
		 M930.813,246.274c0,0.012,0,0.021,0,0.033c6.092,0,12.182,0.044,18.275-0.008c19.817-0.172,29.063-10.999,27.39-30.796
		c-0.929-11.027-0.594-22.175-0.545-33.269c0.021-4.95,1.313-9.356,7.745-9.318c6.494,0.041,11.979-1.365,14.146-8.742
		c2.163-7.354-1.331-12.306-6.054-17.115c-26.314-26.804-52.533-53.698-78.863-80.485c-11.756-11.958-16.564-11.98-28.287,0.191
		c-26.048,27.056-51.875,54.327-77.961,81.346c-4.631,4.796-7.418,9.94-5.087,16.35c2.582,7.094,8.552,9.189,15.642,8.421
		c7.021-0.756,9.492,2.256,9.322,9.246c-0.356,14.324,0.014,28.665-0.068,42.995c-0.029,5.221,1.042,9.646,4.932,13.607
		c9.135,9.299,19.854,8.961,30.871,5.323c10.317-3.413,13.442-12.226,13.833-22.012c0.322-8.139-0.646-16.332-0.195-24.456
		c0.173-3.07-1.854-9.172,4.943-8.409c5.176,0.575,3.861,5.25,3.929,8.591c0.158,7.872-0.115,15.753,0.078,23.623
		c0.399,16.198,8.344,24.28,24.458,24.843C916.475,246.48,923.646,246.274,930.813,246.274z"/>
	<path fill="#321A0E" d="M930.813,246.274c-7.166,0-14.338,0.206-21.497-0.041c-16.114-0.563-24.058-8.646-24.458-24.844
		c-0.195-7.869,0.079-15.751-0.077-23.622c-0.066-3.342,1.247-8.017-3.93-8.592c-6.797-0.761-4.772,5.339-4.943,8.41
		c-0.449,8.122,0.518,16.314,0.194,24.454c-0.392,9.787-3.515,18.601-13.831,22.013c-11.016,3.639-21.737,3.977-30.871-5.322
		c-3.89-3.964-4.961-8.388-4.932-13.607c0.082-14.331-0.287-28.673,0.068-42.996c0.172-6.989-2.301-10.001-9.322-9.245
		c-7.088,0.769-13.06-1.328-15.64-8.422c-2.331-6.408,0.457-11.555,5.087-16.35c26.086-27.019,51.913-54.291,77.962-81.346
		c11.722-12.173,16.529-12.149,28.285-0.191c26.33,26.789,52.551,53.684,78.863,80.486c4.723,4.811,8.217,9.762,6.054,17.116
		c-2.168,7.375-7.652,8.782-14.146,8.742c-6.433-0.039-7.726,4.367-7.745,9.317c-0.05,11.093-0.384,22.24,0.545,33.269
		c1.673,19.797-7.571,30.625-27.39,30.796c-6.095,0.054-12.185,0.009-18.275,0.009C930.813,246.294,930.813,246.286,930.813,246.274
		z M814.33,159.654c7.665,0,12.357,0.426,16.944-0.097c7.035-0.804,8.872,1.8,8.672,8.779c-0.511,17.87,0.042,35.765-0.129,53.645
		c-0.069,7.242,3.174,10.537,10.208,10.697c7.085,0.163,11.779-2.054,11.826-10.228c0.064-10.717,0.547-21.43,0.768-32.148
		c0.261-12.509,2.62-15.297,13.465-15.651c18.643-0.603,22.878,1.94,23.43,15.191c0.435,10.357,0.436,20.765-0.081,31.114
		c-0.41,8.209,2.495,11.859,10.956,11.648c13.23-0.329,26.479-0.272,39.713-0.002c9.275,0.188,12.643-4.028,12.349-13.097
		c-0.436-13.579-0.024-27.183-0.025-40.781c-0.002-19.028-0.023-19.02,18.625-19.443c0.487-0.011,0.963-0.728,2.037-1.591
		c-26.871-27.639-53.725-55.193-80.472-82.85c-2.92-3.018-4.699-2.819-7.578,0.218C868.841,102.701,842.481,130.195,814.33,159.654z
		"/>
	<path fill="#FAF6F2" d="M814.33,159.654c28.15-29.46,54.512-56.952,80.706-84.594c2.88-3.038,4.657-3.237,7.578-0.218
		c26.747,27.655,53.601,55.21,80.472,82.849c-1.074,0.863-1.55,1.581-2.037,1.59c-18.646,0.425-18.627,0.417-18.625,19.444
		c0.002,13.597-0.41,27.202,0.025,40.781c0.293,9.068-3.07,13.287-12.349,13.097c-13.234-0.27-26.482-0.327-39.713,0.003
		c-8.461,0.211-11.366-3.44-10.955-11.649c0.517-10.35,0.515-20.758,0.081-31.115c-0.555-13.251-4.788-15.793-23.43-15.19
		c-10.846,0.353-13.205,3.142-13.465,15.65c-0.222,10.72-0.705,21.433-0.769,32.149c-0.047,8.172-4.74,10.39-11.826,10.228
		c-7.033-0.161-10.278-3.456-10.209-10.697c0.172-17.881-0.38-35.775,0.13-53.646c0.2-6.979-1.638-9.582-8.673-8.779
		C826.688,160.079,821.995,159.654,814.33,159.654z M930.807,207.033c16.354-0.068,18.602-2.176,18.515-17.342
		c-0.085-14.615-1.794-15.851-21.945-15.875c-10.913-0.013-13.64,3.334-13.533,16.61
		C913.953,204.651,916.449,207.089,930.807,207.033z"/>
	<path fill="#321A0E" d="M930.807,207.033c-14.357,0.057-16.854-2.383-16.965-16.604c-0.105-13.276,2.62-16.623,13.532-16.61
		c20.152,0.022,21.861,1.258,21.946,15.874C949.41,204.858,947.161,206.965,930.807,207.033z"/>
</g>
<g>
	<path fill="#321A0E" d="M899.328,588.935c-46.46-1.506-90.748-0.68-134.539-8.354c-23.226-4.065-25.97-5.126-28.449-27.406
		c-7.82-70.271-8.979-140.599,0.528-210.921c1.78-13.16,9.028-18.58,20.728-20.646c39.445-6.959,79.271-9.072,119.225-8.818
		c33.055,0.209,66.137,0.482,99.146,2.017c23.608,1.098,47.289,2.977,70.392,8.817c7.33,1.853,11.601,5.896,13.205,13.674
		c7.316,35.469,7.542,71.509,7.715,107.381c0.185,38.73-0.189,77.563-7.088,115.994c-1.992,11.112-7.92,15.778-18.151,17.927
		C994.152,588.643,945.505,587.34,899.328,588.935z M898.871,574.3c31.979-0.196,63.994,0.502,95.865-2.738
		c14.598-1.481,29.114-3.812,43.617-6.081c5.184-0.812,9.34-3.081,9.818-9.539c1.332-17.898,3.557-35.744,4.479-53.66
		c1.796-34.813,1.239-69.672,0.057-104.484c-0.569-16.835-3.028-33.604-4.344-50.422c-0.634-8.141-4.988-11.302-12.694-12.729
		c-30.416-5.634-61.271-7.51-91.98-9.141c-41.633-2.207-83.392-0.27-125.026,2.349c-18.976,1.191-37.986,2.847-56.637,6.788
		c-4.354,0.923-10.865,0.009-11.677,7.142c-1.639,14.381-3.785,28.742-4.571,43.177c-2.774,50.997-2.555,101.962,2.326,152.879
		c2.472,25.805,2.069,25.84,27.183,30.032c3.529,0.59,7.029,1.39,10.577,1.83C823.401,574.393,861.131,574.512,898.871,574.3z"/>
	<path fill="#F7D119" d="M898.871,574.3c-37.74,0.213-75.47,0.093-113.01-4.601c-3.545-0.44-7.045-1.24-10.576-1.83
		c-25.112-4.192-24.709-4.228-27.182-30.031c-4.881-50.915-5.102-101.883-2.326-152.881c0.786-14.434,2.934-28.795,4.571-43.176
		c0.813-7.133,7.321-6.219,11.677-7.141c18.648-3.941,37.66-5.597,56.637-6.789c41.633-2.617,83.394-4.555,125.026-2.348
		c30.709,1.63,61.563,3.507,91.982,9.14c7.707,1.431,12.06,4.591,12.693,12.729c1.313,16.818,3.772,33.588,4.343,50.423
		c1.185,34.813,1.74,69.672-0.056,104.483c-0.925,17.917-3.149,35.763-4.479,53.661c-0.479,6.458-4.637,8.728-9.819,9.539
		c-14.503,2.271-29.021,4.599-43.617,6.081C962.865,574.802,930.849,574.104,898.871,574.3z M808.658,417.22
		c0.152,13.544-0.895,27.104,2.169,40.545c1.82,7.981,5.664,13.777,14.478,12.642c21.681-2.793,43.379-5.684,64.868-9.643
		c11.522-2.124,14.497-14.656,6.608-23.324c-2.229-2.449-7.233-4.156-4.811-8.372c1.943-3.376,6.531-1.983,10.014-2.134
		c3.95-0.17,7.79,0.161,11.577,1.854c15.87,7.09,22.103,24.207,14.204,39.565c-7.564,14.716-28.089,21.327-41.521,12.026
		c-8.393-5.815-16.068-6.535-25.272-3.808c-7.536,2.23-15.418,3.271-23.055,5.196c-15.732,3.97-19.443,11.639-11.616,25.896
		c8.801,16.034,22.75,25.648,39.945,32.134c33.399,12.6,64.834,9.663,92.568-12.314c28.639-22.696,40.606-53.411,33.627-89.949
		c-12.524-65.563-88.379-96.284-143.903-57.604c-6.832,4.763-11.223,7.736-17.502-0.171c-3.601-4.538-9.328-5.137-14.846-2.572
		c-5.533,2.568-7.708,7.028-7.583,13.055C808.797,399.229,808.658,408.227,808.658,417.22z"/>
	<path fill="#321A0E" d="M808.658,417.22c0-8.993,0.14-17.99-0.049-26.979c-0.125-6.024,2.051-10.486,7.583-13.057
		c5.519-2.563,11.245-1.965,14.845,2.574c6.28,7.906,10.672,4.933,17.502,0.171c55.525-38.681,131.379-7.96,143.902,57.604
		c6.982,36.538-4.986,67.252-33.625,89.949c-27.734,21.978-59.169,24.915-92.568,12.314c-17.195-6.484-31.145-16.1-39.946-32.135
		c-7.827-14.257-4.116-21.926,11.616-25.896c7.638-1.927,15.52-2.965,23.055-5.196c9.206-2.727,16.882-2.008,25.273,3.808
		c13.432,9.3,33.953,2.688,41.521-12.026c7.897-15.359,1.666-32.478-14.204-39.565c-3.787-1.691-7.628-2.023-11.579-1.854
		c-3.479,0.147-8.069-1.244-10.012,2.134c-2.424,4.216,2.578,5.923,4.809,8.372c7.892,8.668,4.916,21.2-6.608,23.325
		c-21.487,3.957-43.188,6.848-64.868,9.642c-8.813,1.137-12.656-4.659-14.478-12.643C807.763,444.323,808.81,430.764,808.658,417.22
		z M887.192,447.687c-2.409-2.981-3.626-4.704-5.056-6.225c-13.875-14.743-12.048-21.148,8.021-26.767
		c5.488-1.535,11.19-3.034,17.008-1.9c17.553,3.434,30.191,12.639,35.471,30.452c5.14,17.356,0.594,32.25-12.674,43.876
		c-13.771,12.069-30.111,16.286-46.705,6.981c-9.17-5.143-17.211-5.053-26.355-2.356c-4.103,1.214-8.37,2.526-12.577,2.577
		c-7.96,0.821-8.183,4.332-3.965,9.58c16.153,20.104,37.495,29.139,62.978,28.98c34.554-0.213,62.789-21.488,73.785-55.475
		c10.229-31.617-0.921-64.971-28.727-85.926c-25.691-19.366-64.387-20.184-90.975-1.543c-6.104,4.28-11.143,13.228-17.106,13.634
		c-5.431,0.369-11.456-7.938-16.458-11.828c0,20.283,0.002,40.597-0.001,60.907c0,3.808,1.901,4.982,5.531,4.384
		C848.065,453.969,866.758,450.984,887.192,447.687z"/>
	<path fill="#FAF6F2" d="M887.192,447.687c-20.437,3.298-39.128,6.282-57.804,9.354c-3.631,0.599-5.531-0.577-5.531-4.385
		c0.003-20.312,0-40.624,0-60.906c5.001,3.89,11.027,12.196,16.458,11.827c5.964-0.406,11.001-9.354,17.106-13.634
		c26.588-18.641,65.283-17.823,90.975,1.543c27.805,20.955,38.955,54.309,28.725,85.926c-10.992,33.985-39.229,55.262-73.783,55.475
		c-25.481,0.158-46.824-8.877-62.978-28.98c-4.218-5.248-4.407-8.759,3.965-9.58c5.201-0.607,8.474-1.363,12.577-2.577
		c9.146-2.695,17.186-2.785,26.355,2.356c16.594,9.304,32.935,5.088,46.705-6.981c13.268-11.625,17.813-26.52,12.672-43.876
		c-5.276-17.813-17.914-27.02-35.469-30.452c-5.816-1.136-11.521,0.365-17.008,1.9c-20.07,5.617-21.897,12.022-8.023,26.767
		C883.566,442.982,884.783,444.704,887.192,447.687z"/>
</g>
<g>
	<path fill="#321A0E" d="M1091.799,161.521c-0.392-35.505,0.119-70.964,4.458-106.261c0.089-0.712,0.092-1.437,0.207-2.143
		c4.657-28.13,4.123-26.634,32.481-31.722c35.197-6.318,70.973-7.377,106.748-7.387c48.973-0.01,97.978-0.296,146.558,6.782
		c39.832,5.806,36.726,3.14,41.021,43.318c6.224,58.162,5.453,116.555,0.254,174.842c-0.314,3.548-1.091,7.061-1.623,10.592
		c-4.049,26.81-6.375,28.375-33.417,32.248c-30.915,4.43-61.949,5.3-93.069,5.787c-44.054,0.691-88.124,2.271-132.075-1.978
		c-16.005-1.548-31.929-4.099-47.813-6.667c-10.393-1.682-15.607-7.922-17.14-18.855
		C1093.811,227.354,1092.348,194.478,1091.799,161.521z M1413.584,144.723c-0.36-23.187,0.311-53.667-4.082-83.906
		c-3.596-24.754-3.68-24.31-28.394-27.194c-46.332-5.412-92.805-7.021-139.392-6.363c-39.39,0.555-78.745,1.458-117.688,8.555
		c-7.672,1.4-11.688,3.892-13.069,12.401c-4.028,24.851-4.508,49.918-5.494,74.917c-1.354,34.365,1.017,68.684,2.82,103.015
		c1.978,37.615,1.4,37.646,35.656,43.91c1.406,0.258,2.838,0.38,4.263,0.531c42.454,4.543,85.052,4.682,127.679,4.378
		c40.091-0.286,80.1-1.184,119.687-8.558c7.415-1.383,12.128-3.972,13.058-12.577
		C1412.276,219.955,1413.864,186.009,1413.584,144.723z"/>
	<path fill="#F7D119" d="M1413.584,144.723c0.28,41.286-1.308,75.232-4.959,109.107c-0.929,8.606-5.642,11.194-13.059,12.574
		c-39.585,7.375-79.596,8.273-119.687,8.56c-42.627,0.304-85.225,0.166-127.679-4.376c-1.423-0.152-2.855-0.274-4.263-0.533
		c-34.255-6.263-33.678-6.295-35.654-43.909c-1.807-34.332-4.175-68.649-2.82-103.015c0.985-24.998,1.464-50.065,5.495-74.917
		c1.381-8.511,5.396-11.001,13.068-12.401c38.943-7.097,78.298-8,117.688-8.555c46.587-0.657,93.06,0.951,139.392,6.363
		c24.714,2.884,24.798,2.44,28.395,27.194C1413.894,91.056,1413.223,121.537,1413.584,144.723z"/>
	<path fill="#FFFFFF" stroke="#321A0E" stroke-width="12" stroke-miterlimit="10" d="M1258.006,235.947
		c-27.635,0-55.268-0.016-82.9,0.017c-4.433,0.005-8.858,0.08-13.082-1.517c-6.271-2.367-10.872-6.626-12.911-13.005
		c-1.11-3.479-1.576-7.305-1.591-10.976c-0.117-31.514-0.072-63.027-0.061-94.541c0.006-10.479,4.761-17.962,14.351-22.216
		c1.61-0.715,3.505-1.079,5.274-1.104c9.051-0.127,18.104-0.163,27.156-0.085c6.604,0.058,9.949-3.603,11.59-8.967
		c1.939-6.351,3.853-12.744,6.371-18.874c1.602-3.896,5.301-5.563,9.578-5.565c18.104-0.008,36.21-0.016,54.314-0.02
		c6.056,0,12.114,0.003,18.173,0.019c5.255,0.015,8.974,2.423,10.79,7.95c2.055,6.25,4.074,12.513,6.229,18.728
		c1.435,4.13,5.286,6.697,9.676,6.708c9.323,0.021,18.66-0.256,27.969,0.146c7.315,0.317,12.783,4.314,16.617,10.517
		c2.618,4.232,3.263,8.916,3.261,13.786c-0.02,31.786,0.025,63.572-0.016,95.358c-0.011,8.898-3.466,15.978-11.348,20.64
		c-4.131,2.443-8.653,3.036-13.271,3.043c-28.724,0.049-57.445,0.025-86.168,0.025
		C1258.006,235.991,1258.006,235.968,1258.006,235.947z M1313.307,158.674c0.303-30.867-24.96-55.31-55.092-55.363
		c-30.296-0.054-55.479,24.605-55.334,55.593c0.141,30.188,24.859,54.967,55.334,54.913
		C1288.682,213.763,1313.576,188.948,1313.307,158.674z M1338.844,114.593c-4.285-0.029-8.041,3.408-7.87,7.5
		c0.156,3.705,3.116,7.684,7.718,7.718c5.342,0.042,7.657-3.977,7.939-7.542C1346.965,118.066,1343.247,114.623,1338.844,114.593z"
		/>
	<path fill="#FFFFFF" d="M1313.307,158.674c0.27,30.273-24.625,55.089-55.092,55.144c-30.475,0.055-55.194-24.724-55.334-54.913
		c-0.146-30.987,25.038-55.646,55.334-55.593C1288.345,103.365,1313.609,127.806,1313.307,158.674z M1291.15,156.938
		c-0.889-19.393-17.522-33.064-35.949-31.425c-17.018,1.514-32.315,16.022-29.871,37.494c0.97,8.512,4.926,15.619,11.577,20.966
		c8.158,6.558,17.436,9.231,27.91,7.066C1279.234,188.059,1292.146,174.761,1291.15,156.938z"/>
	<path fill="#FFFFFF" d="M1338.844,114.593c4.402,0.03,8.12,3.473,7.787,7.677c-0.282,3.565-2.599,7.583-7.939,7.542
		c-4.602-0.035-7.562-4.014-7.718-7.718C1330.803,118.001,1334.559,114.564,1338.844,114.593z"/>
	<path fill="#321A0E" d="M1291.15,156.938c0.995,17.824-11.918,31.12-26.333,34.102c-10.476,2.164-19.752-0.51-27.91-7.066
		c-6.651-5.348-10.607-12.455-11.577-20.967c-2.444-21.47,12.854-35.979,29.871-37.494
		C1273.627,123.873,1290.262,137.544,1291.15,156.938z"/>
</g>
<g>
	<path fill="#321A0E" d="M1258.446,586.496c-44.003,0.215-88.075,0.639-131.712-6.533c-4.58-0.76-9.134-1.692-13.662-2.713
		c-8.94-2.023-13.86-7.146-15.422-16.714c-6.951-42.579-7.851-85.477-7.37-128.436c0.352-31.46,1.601-62.898,7.479-93.967
		c1.604-8.495,6.21-12.617,14.553-14.722c28.988-7.298,58.651-8.679,88.197-9.604c60.5-1.896,121.037-2.457,181.247,5.773
		c3.539,0.485,7.045,1.224,10.56,1.874c25.211,4.66,24.98,3.667,28.318,30.604c7.382,59.536,6.257,119.321,2.092,179.058
		c-0.649,9.239-2.806,18.365-3.701,27.597c-1.052,10.86-7.104,16.49-17.303,18.87c-26.642,6.22-53.855,7.396-80.974,8.708
		C1300.028,587.299,1279.219,586.496,1258.446,586.496z M1274.559,326.025c-32.97-1.219-65.896,0.364-98.755,2.315
		c-18.448,1.093-37.034,2.373-55.18,6.619c-5.471,1.279-8.971,3.255-10.334,10.052c-3.184,15.857-4.622,31.881-5.056,47.855
		c-1.36,50.407-2.095,100.825,3.695,151.112c2.227,19.355,2.655,20.401,21.852,22.999c43.688,5.91,87.589,6.672,131.589,6.72
		c42.594,0.044,85.039-1.556,127.262-7.246c7.787-1.047,16.455-1.542,17.123-13.254c0.912-16.049,3.479-32.004,4.293-48.057
		c2.643-52.23,2.462-104.383-4.011-156.442c-1.276-10.266-6.225-12.669-14.848-14.159
		C1353.237,327.809,1313.873,327.278,1274.559,326.025z"/>
	<path fill="#F7D119" d="M1274.559,326.025c39.313,1.253,78.679,1.782,117.632,8.519c8.623,1.487,13.57,3.892,14.846,14.156
		c6.475,52.061,6.654,104.212,4.012,156.442c-0.813,16.049-3.377,32.008-4.293,48.057c-0.67,11.709-9.334,12.207-17.122,13.254
		c-42.223,5.69-84.668,7.29-127.263,7.246c-43.999-0.046-87.9-0.808-131.589-6.72c-19.193-2.598-19.624-3.642-21.851-22.999
		c-5.79-50.287-5.055-100.705-3.695-151.112c0.434-15.977,1.874-31.998,5.057-47.855c1.365-6.797,4.864-8.771,10.334-10.052
		c18.146-4.246,36.729-5.526,55.181-6.619C1208.664,326.39,1241.59,324.807,1274.559,326.025z M1362.867,418.879
		c-0.214-8.646-1.605-11.753-8.898-18.351c-3.429-3.1-7.206-5.864-10.346-9.229c-11.24-12.047-23.16-12.335-35.197-0.705
		c-15.347,14.818-30.588,29.755-46.229,44.256c-6.477,6.009-11.821,17.105-19.814,16.654c-8.358-0.469-14.177-11.055-20.348-17.831
		c-26.669-29.298-38.353-23.489-60.655,1.361c-3.396,3.778-5.336,8.249-7.391,12.864c-3.482,7.819-0.561,14.626,4.064,19.506
		c21.124,22.286,42.885,43.964,64.542,65.741c10.607,10.662,23.125,10.915,33.829,0.708c33.014-31.486,65.888-63.12,98.929-94.575
		C1360.963,433.939,1363.494,427.745,1362.867,418.879z"/>
	<path fill="#321A0E" d="M1362.867,418.879c0.627,8.866-1.904,15.061-7.514,20.399c-33.041,31.456-65.914,63.09-98.929,94.573
		c-10.702,10.21-23.221,9.957-33.827-0.708c-21.659-21.774-43.418-43.452-64.543-65.738c-4.625-4.88-7.547-11.688-4.064-19.509
		c2.055-4.612,3.996-9.083,7.39-12.861c22.305-24.852,33.987-30.662,60.655-1.363c6.172,6.775,11.987,17.361,20.35,17.833
		c7.993,0.451,13.337-10.646,19.814-16.654c15.643-14.503,30.881-29.439,46.229-44.258c12.037-11.628,23.958-11.34,35.197,0.705
		c3.139,3.364,6.918,6.132,10.347,9.229C1361.261,407.126,1362.653,410.234,1362.867,418.879z M1350.104,420.123
		c-1.271-7.719-7.595-11.76-12.576-16.682c-10.92-10.784-12.125-10.79-23.239-0.003c-21.042,20.432-42.121,40.828-62.854,61.576
		c-6.268,6.267-11.367,5.96-17.285,0.058c-8.104-8.084-16.54-15.829-24.615-23.938c-17.503-17.588-17.443-17.641-34.979,0.202
		c-9.324,9.489-9.342,13.158-0.525,22.313c18.804,19.515,38.984,37.692,56.278,58.705c3.802,4.617,9.907,7.536,15.927,1.811
		c33.182-31.518,66.378-63.007,99.507-94.582C1348.317,427.126,1350.662,424.26,1350.104,420.123z"/>
	<path fill="#FAF6F2" d="M1350.104,420.123c0.557,4.137-1.787,7.003-4.361,9.458c-33.129,31.575-66.325,63.064-99.507,94.582
		c-6.02,5.727-12.125,2.808-15.927-1.811c-17.294-21.015-37.475-39.19-56.278-58.705c-8.815-9.153-8.799-12.822,0.525-22.313
		c17.534-17.842,17.476-17.789,34.979-0.201c8.074,8.109,16.513,15.857,24.615,23.938c5.918,5.902,11.02,6.209,17.285-0.058
		c20.731-20.748,41.813-41.146,62.854-61.577c11.113-10.786,12.318-10.782,23.238,0.004
		C1342.51,408.364,1348.834,412.405,1350.104,420.123z"/>
</g>
<g>
	<path fill="#321A0E" d="M1563.777,287.668c-28.798-0.284-57.307-3.014-85.636-8.514c-12.154-2.358-17.689-8.658-19.209-20.495
		c-6.648-51.78-8-103.725-5.331-155.804c1.112-21.69,1.348-43.469,7.117-64.717c1.703-6.274,4.764-9.638,10.854-11.581
		c18.532-5.917,37.783-7.813,56.896-8.935c70.959-4.161,141.925-4.828,212.695,3.703c1.416,0.17,2.851,0.228,4.262,0.414
		c30.164,4.018,34.318,8.257,37.188,38.241c5.856,61.258,5.86,122.517-0.06,183.773c-3.018,31.229-3.907,32.17-35.032,37.572
		c-24.658,4.278-49.513,6.178-74.484,6.347C1636.639,287.673,1600.209,287.67,1563.777,287.668z M1608.463,274.683
		c40.875,0.053,73.729,0.26,106.447-2.725c14.48-1.319,29.056-2.523,43.279-6.054c5.958-1.477,8.641-4.619,9.469-11.002
		c2.525-19.463,3.676-38.98,4.765-58.562c2.638-47.455,1.075-94.673-3.884-141.944c-1.34-12.745-6.444-16.704-17.959-18.337
		c-72.065-10.24-144.393-9.588-216.777-5.613c-15.962,0.876-31.764,4.356-47.714,5.833c-10.164,0.939-13.597,6.519-14.772,15.673
		c-1.474,11.483-3.443,22.77-3.902,34.504c-1.618,41.368-2.129,82.69,0.457,124.01c0.912,14.569,2.796,29.071,4.04,43.624
		c0.577,6.756,2.673,11.258,10.519,12.169c11.985,1.396,23.789,4.535,35.789,5.569
		C1550.908,274.642,1583.711,274.953,1608.463,274.683z"/>
	<path fill="#F18523" d="M1563.777,287.668c36.432,0.001,72.861,0.005,109.262,0.007
		C1636.597,290.25,1600.187,289.53,1563.777,287.668z"/>
	<path fill="#F7D119" d="M1608.463,274.683c-24.752,0.271-57.554-0.042-90.245-2.854c-11.998-1.034-23.804-4.174-35.788-5.568
		c-7.846-0.912-9.941-5.414-10.52-12.17c-1.244-14.552-3.127-29.055-4.041-43.623c-2.585-41.318-2.073-82.642-0.456-124.011
		c0.459-11.734,2.43-23.021,3.903-34.504c1.176-9.154,4.607-14.733,14.771-15.673c15.95-1.477,31.752-4.958,47.714-5.833
		c72.388-3.975,144.714-4.626,216.778,5.614c11.515,1.634,16.62,5.592,17.959,18.337c4.957,47.271,6.521,94.489,3.883,141.944
		c-1.09,19.581-2.236,39.098-4.765,58.562c-0.827,6.383-3.51,9.526-9.469,11.003c-14.224,3.529-28.798,4.733-43.276,6.054
		C1682.192,274.942,1649.338,274.736,1608.463,274.683z M1574.453,155.025c-0.078,0-0.16,0-0.237,0
		c0,24.247-0.159,48.492,0.052,72.736c0.152,17.342,15.048,26.659,29.219,17.268c34.408-22.798,68.413-46.229,102.016-70.2
		c13.248-9.45,11.852-26.332-1.511-36.021c-5.754-4.17-11.53-8.306-17.35-12.386c-26.804-18.795-53.608-37.593-80.456-56.326
		c-6.809-4.753-13.886-6.552-22.102-2.856c-8.811,3.966-9.729,11.117-9.68,19.327
		C1574.546,109.384,1574.453,132.207,1574.453,155.025z"/>
	<path fill="#321A0E" d="M1574.453,155.025c0-22.817,0.093-45.64-0.047-68.459c-0.051-8.21,0.868-15.361,9.681-19.328
		c8.215-3.695,15.292-1.896,22.1,2.856c26.849,18.734,53.653,37.531,80.458,56.326c5.816,4.081,11.594,8.217,17.348,12.387
		c13.361,9.689,14.758,26.57,1.512,36.021c-33.604,23.971-67.608,47.402-102.016,70.201c-14.171,9.393-29.066,0.074-29.22-17.268
		c-0.211-24.244-0.052-48.489-0.052-72.736C1574.295,155.025,1574.375,155.025,1574.453,155.025z M1587.423,156.593
		c0.109,0,0.222,0,0.334,0c0,22.5-0.023,45.003,0.021,67.504c0.007,3.414-1.653,7.431,2.262,9.789
		c4.229,2.55,7.397-0.494,10.546-2.678c31.058-21.56,62.104-43.127,93.113-64.749c10.055-7.01,10.188-11.355,0.098-18.491
		c-31.154-22.031-62.447-43.865-93.672-65.796c-2.931-2.059-5.813-4.777-9.634-2.704c-3.838,2.083-3.034,6.136-3.042,9.621
		C1587.398,111.593,1587.423,134.094,1587.423,156.593z"/>
	<path fill="#FAF6F2" d="M1587.423,156.593c0-22.499-0.025-45,0.026-67.503c0.008-3.484-0.796-7.538,3.042-9.62
		c3.821-2.074,6.703,0.645,9.634,2.703c31.225,21.932,62.518,43.765,93.672,65.797c10.091,7.135,9.957,11.481-0.098,18.491
		c-31.011,21.622-62.059,43.19-93.113,64.749c-3.148,2.184-6.315,5.228-10.546,2.679c-3.915-2.359-2.256-6.377-2.264-9.789
		c-0.044-22.501-0.022-45.004-0.022-67.505C1587.644,156.593,1587.533,156.593,1587.423,156.593z"/>
</g>
</svg>
