<?xml version="1.0" encoding="utf-8"?>
<!-- Generator: Adobe Illustrator 15.0.0, SVG Export Plug-In . SVG Version: 6.00 Build 0)  -->
<!DOCTYPE svg PUBLIC "-//W3C//DTD SVG 1.1//EN" "http://www.w3.org/Graphics/SVG/1.1/DTD/svg11.dtd">
<svg version="1.1" id="Layer_1" xmlns="http://www.w3.org/2000/svg" xmlns:xlink="http://www.w3.org/1999/xlink" x="0px" y="0px"
	 width="866.461px" height="728px" viewBox="0 0 866.461 728" enable-background="new 0 0 866.461 728" xml:space="preserve">
<path fill="#79231B" d="M444.971,723.146c-106.13,0.313-212.139-1.282-317.364-17.288c-0.869-0.138-1.759-0.103-2.627-0.226
	c-61.555-8.713-70.764-16.145-77.806-77.244c-15.513-134.541-15.052-269.533-8.015-404.617
	c1.879-35.959,6.936-71.441,12.242-106.951c3.317-22.225,14.371-35.498,37.68-40.912c63.523-14.75,128.145-21.01,192.842-22.426
	c105.254-2.314,210.649-2.844,315.878-0.008c68.951,1.867,137.994,8.055,205.728,23.934c19.889,4.662,29.518,15.08,34.051,34.459
	c9.053,38.666,12.262,78.064,13.869,117.299c5.565,135.92,8.123,271.881-9.228,407.34c-6.313,49.326-11.307,54.605-59.467,64.437
	C671.148,723.736,557.955,721.844,444.971,723.146z M456.818,83.398c-124.239-0.676-234.626,0.611-343.911,20.76
	c-18.716,3.447-28.169,9.92-31.445,30.861C65.067,239.602,66.18,344.816,68.319,449.977c1.187,58.623,7.342,117.144,10.768,175.732
	c1.588,27.137,12.771,41.244,41.889,46.271c58.915,10.166,118.459,14.916,177.613,16.47c127.097,3.34,254.419,4.188,381.407-5.313
	c32.117-2.401,63.795-10.61,95.904-13.496c24.354-2.186,32.321-16.131,34.364-37.008c3.738-38.383,9.752-76.758,10.334-115.197
	c1.871-121.872,5.933-243.844-8.625-365.403c-4.771-39.791-6.446-43.102-46.278-49.332
	C658.793,85.959,551.129,81.643,456.818,83.398z"/>
<path fill="#F28524" d="M456.818,83.398c94.311-1.756,201.975,2.561,308.877,19.301c39.832,6.23,41.508,9.541,46.278,49.332
	c14.558,121.561,10.496,243.531,8.625,365.403c-0.582,38.439-6.596,76.814-10.334,115.197c-2.043,20.877-10.01,34.822-34.364,37.008
	c-32.109,2.886-63.787,11.095-95.904,13.496c-126.988,9.502-254.312,8.652-381.407,5.313c-59.154-1.554-118.698-6.304-177.613-16.47
	c-29.117-5.026-40.301-19.135-41.889-46.271c-3.426-58.59-9.581-117.109-10.768-175.732c-2.14-105.16-3.252-210.375,13.143-314.957
	c3.276-20.941,12.729-27.414,31.445-30.861C222.192,84.01,332.579,82.723,456.818,83.398z M566.729,612.023
	c28.604,0.561,43.261-14.015,43.83-43.195c0.558-27.576-7.356-53.709-14.127-79.881c-5.207-20.127-1.121-35.537,14.451-49.467
	c20.25-18.093,39.59-37.229,58.836-56.412c14.16-14.115,20.533-32.461,12.98-50.644c-8.082-19.441-25-30.754-47.291-32.227
	c-24.469-1.621-48.871-4.559-73.361-5.617c-17.861-0.768-29.613-8.027-36.338-24.74c-10.471-25.998-21.268-51.877-32.676-77.475
	c-7.754-17.398-21.986-28.5-41.004-28.141c-18.765,0.361-33.027,11.109-40.708,28.752c-9.779,22.488-20.379,44.752-28.162,67.938
	c-8.238,24.545-23.451,34.066-49.008,34.262c-26.134,0.191-52.781,1.978-78.228,7.535c-37.504,8.197-49.631,46.488-24.586,74.5
	c20.371,22.787,42.223,44.324,64.33,65.455c11.197,10.709,17.02,22.687,13.938,37.512c-4.442,21.392-8.637,43.105-16.096,63.523
	c-6.879,18.854-9.166,36.318,5.51,50.914c16.595,16.496,37.113,23.783,60.07,13.149c12.689-5.877,24.896-13.01,36.703-20.547
	c33.13-21.159,65.245-29.151,101.688-4.508C517.959,596.557,539.611,611.941,566.729,612.023z"/>
<path fill="#79231B" d="M566.729,612.016c-27.116-0.073-48.77-15.459-69.247-29.303c-36.441-24.645-68.558-16.651-101.688,4.508
	c-11.807,7.537-24.014,14.67-36.703,20.547c-22.957,10.634-43.477,3.347-60.069-13.149c-14.676-14.596-12.39-32.06-5.511-50.914
	c7.459-20.418,11.652-42.133,16.097-63.523c3.082-14.826-2.74-26.803-13.938-37.512c-22.107-21.131-43.959-42.668-64.33-65.455
	c-25.045-28.012-12.918-66.303,24.586-74.5c25.445-5.559,52.094-7.344,78.228-7.535c25.557-0.195,40.77-9.717,49.008-34.262
	c7.783-23.186,18.383-45.449,28.162-67.938c7.681-17.643,21.943-28.391,40.708-28.752c19.018-0.359,33.25,10.742,41.004,28.141
	c11.408,25.598,22.205,51.477,32.676,77.475c6.725,16.713,18.478,23.973,36.338,24.74c24.49,1.059,48.894,3.996,73.361,5.617
	c22.291,1.473,39.209,12.785,47.291,32.227c7.553,18.182,1.18,36.527-12.98,50.644c-19.245,19.184-38.586,38.319-58.836,56.412
	c-15.571,13.93-19.657,29.34-14.45,49.467c6.77,26.172,14.684,52.305,14.127,79.881C609.988,598.01,595.332,612.584,566.729,612.016
	z M578.205,557.811c-4.066-15.94-8.994-36.311-14.482-56.532c-9.047-33.306-3.637-61.894,23.8-85.462
	c19.235-16.534,36.934-34.887,55.094-52.649c5.578-5.449,12.072-11.301,9.426-20.258c-2.852-9.641-12.582-8.99-19.707-9.805
	c-25.201-2.877-50.521-5.285-75.858-6.418c-30.712-1.377-50.656-16.301-61.847-44.379c-9.385-23.541-18.926-47.025-28.846-70.342
	c-2.553-5.998-4.029-13.742-13.748-13.32c-9.053,0.393-11.396,7.166-14.062,13.477c-10.538,24.965-20.879,49.998-31.152,75.07
	c-10.465,25.502-30.23,37.242-56.926,39.168c-24.431,1.771-48.871,3.516-73.26,5.768c-9.338,0.855-20.602,0.693-24.213,11.686
	c-3.215,9.813,5.219,16.035,11.367,22.027c18.803,18.328,37.424,36.888,57.037,54.326c21.197,18.846,27.33,41.76,21.521,68.564
	c-4.442,20.521-9.676,40.862-14.176,61.37c-2.008,9.183-6.914,20.339,2.017,27.009c8.991,6.717,18.497-1.691,26.764-5.699
	c19.652-9.529,39.012-19.754,57.991-30.564c25.137-14.317,49.646-13.246,74.631,0.162c22.317,11.978,44.813,23.637,67.498,34.894
	C570.76,582.693,579.16,579.32,578.205,557.811z"/>
<path fill="#FAF6F2" d="M578.205,557.811c0.955,21.511-7.445,24.884-21.133,18.091c-22.685-11.256-45.181-22.916-67.498-34.894
	c-24.984-13.408-49.494-14.479-74.631-0.162c-18.979,10.812-38.339,21.035-57.991,30.564c-8.266,4.008-17.771,12.416-26.764,5.699
	c-8.931-6.67-4.023-17.826-2.017-27.009c4.5-20.508,9.732-40.85,14.176-61.37c5.81-26.806-0.323-49.72-21.521-68.564
	c-19.613-17.439-38.234-35.998-57.037-54.326c-6.148-5.992-14.582-12.215-11.367-22.027c3.611-10.992,14.875-10.83,24.213-11.686
	c24.389-2.252,48.83-3.996,73.26-5.768c26.694-1.926,46.461-13.666,56.926-39.168c10.273-25.072,20.614-50.105,31.152-75.07
	c2.666-6.311,5.009-13.084,14.062-13.477c9.719-0.422,11.195,7.322,13.748,13.32c9.92,23.316,19.461,46.801,28.846,70.342
	c11.189,28.078,31.135,43.002,61.847,44.379c25.338,1.133,50.657,3.541,75.858,6.418c7.125,0.814,16.855,0.164,19.707,9.805
	c2.646,8.957-3.848,14.809-9.426,20.258c-18.16,17.764-35.857,36.115-55.094,52.65c-27.437,23.567-32.847,52.155-23.8,85.461
	C569.211,521.5,574.139,541.869,578.205,557.811z"/>
</svg>
