<?xml version="1.0" encoding="utf-8"?>
<!-- Generator: Adobe Illustrator 15.0.0, SVG Export Plug-In . SVG Version: 6.00 Build 0)  -->
<!DOCTYPE svg PUBLIC "-//W3C//DTD SVG 1.1//EN" "http://www.w3.org/Graphics/SVG/1.1/DTD/svg11.dtd">
<svg version="1.1" id="Layer_1" xmlns="http://www.w3.org/2000/svg" xmlns:xlink="http://www.w3.org/1999/xlink" x="0px" y="0px"
	 width="866.461px" height="728px" viewBox="0 0 866.461 728" enable-background="new 0 0 866.461 728" xml:space="preserve">
<path fill="#79231B" d="M312.081,713.933c-70.793-0.697-140.873-7.409-210.512-20.927c-29.879-5.799-43.486-21.287-47.223-50.385
	c-16.34-127.288-19.665-254.98-13.104-383.004c2.734-53.323,3.311-106.857,17.497-159.09c4.19-15.424,11.71-23.693,26.679-28.469
	C130.976,57.511,178.3,52.85,225.284,50.095C399.718,39.866,574.17,38.226,748.14,59.198c3.482,0.417,7.005,0.557,10.48,1.018
	c74.148,9.874,84.365,20.296,91.416,94.007c14.397,150.587,14.406,301.174-0.146,451.759c-7.416,76.771-9.604,79.085-86.117,92.36
	c-60.618,10.519-121.715,15.19-183.103,15.604C491.193,713.943,401.638,713.936,312.081,713.933z M421.931,682.01
	c100.48,0.128,181.245,0.639,261.675-6.696c35.595-3.244,71.421-6.203,106.388-14.88c14.647-3.631,21.24-11.358,23.275-27.048
	c6.212-47.847,9.035-95.826,11.712-143.961c6.484-116.655,2.644-232.729-9.547-348.934c-3.289-31.33-15.842-41.061-44.143-45.078
	c-177.158-25.172-354.952-23.57-532.899-13.799c-39.236,2.155-78.082,10.708-117.291,14.339
	c-24.987,2.31-33.422,16.024-36.313,38.529c-3.623,28.228-8.466,55.972-9.596,84.819c-3.977,101.695-5.234,203.278,1.123,304.85
	c2.243,35.812,6.874,71.464,9.932,107.238c1.421,16.608,6.572,27.673,25.857,29.916c29.463,3.431,58.482,11.148,87.98,13.689
	C280.446,681.91,361.082,682.674,421.931,682.01z"/>
<path fill="#F28524" d="M312.081,713.933c89.557,0.003,179.112,0.012,268.59,0.016C491.088,720.277,401.583,718.507,312.081,713.933
	z"/>
<path fill="#F28524" d="M421.931,682.01c-60.849,0.664-141.483-0.1-221.846-7.014c-29.498-2.541-58.518-10.26-87.98-13.689
	c-19.285-2.243-24.437-13.308-25.857-29.916c-3.058-35.774-7.688-71.428-9.932-107.238c-6.357-101.571-5.1-203.154-1.123-304.85
	c1.13-28.847,5.973-56.591,9.596-84.819c2.891-22.505,11.325-36.219,36.313-38.529c39.209-3.631,78.055-12.185,117.291-14.339
	c177.947-9.771,355.741-11.373,532.899,13.799c28.301,4.017,40.854,13.748,44.143,45.078
	c12.189,116.204,16.031,232.278,9.548,348.934c-2.678,48.135-5.5,96.114-11.713,143.961c-2.035,15.688-8.628,23.417-23.275,27.048
	c-34.967,8.677-70.793,11.636-106.387,14.88C603.176,682.647,522.411,682.138,421.931,682.01z M338.325,387.861
	c-0.193,0-0.394,0-0.586,0c0,59.604-0.392,119.207,0.129,178.803c0.373,42.629,36.992,65.534,71.828,42.449
	c84.581-56.045,168.176-113.649,250.778-172.573c32.565-23.231,29.131-64.729-3.716-88.548
	c-14.141-10.25-28.344-20.418-42.643-30.449c-65.894-46.204-131.785-92.413-197.784-138.465
	c-16.738-11.681-34.134-16.105-54.328-7.019c-21.66,9.747-23.92,27.329-23.795,47.511
	C338.55,275.664,338.325,331.767,338.325,387.861z"/>
<path fill="#79231B" d="M338.325,387.861c0-56.095,0.225-112.197-0.115-168.292c-0.125-20.182,2.135-37.764,23.795-47.511
	c20.194-9.087,37.59-4.662,54.328,7.019c65.999,46.052,131.892,92.261,197.784,138.465c14.299,10.03,28.502,20.198,42.643,30.449
	c32.847,23.818,36.281,65.316,3.717,88.548c-82.604,58.924-166.198,116.528-250.779,172.573
	c-34.836,23.085-71.455,0.18-71.828-42.449c-0.521-59.596-0.129-119.199-0.129-178.803
	C337.933,387.861,338.132,387.861,338.325,387.861z M370.206,391.715c0.271,0,0.545,0,0.82,0c0,55.314-0.055,110.629,0.055,165.944
	c0.017,8.392-4.063,18.267,5.561,24.064c10.398,6.271,18.184-1.215,25.927-6.585c76.341-52.994,152.662-106.015,228.892-159.168
	c24.715-17.232,25.043-27.912,0.238-45.455c-76.585-54.158-153.51-107.831-230.268-161.744c-7.203-5.059-14.287-11.743-23.68-6.646
	c-9.432,5.119-7.457,15.084-7.478,23.651C370.146,281.093,370.206,336.409,370.206,391.715z"/>
<path fill="#FAF6F2" d="M370.206,391.715c0-55.307-0.062-110.622,0.067-165.937c0.021-8.567-1.954-18.532,7.478-23.651
	c9.393-5.097,16.477,1.587,23.68,6.646c76.759,53.913,153.683,107.585,230.268,161.745c24.805,17.541,24.477,28.222-0.238,45.455
	C555.23,469.125,478.908,522.146,402.567,575.14c-7.743,5.37-15.527,12.854-25.927,6.585c-9.622-5.799-5.544-15.674-5.561-24.064
	c-0.108-55.314-0.055-110.63-0.055-165.944C370.751,391.715,370.478,391.715,370.206,391.715z"/>
</svg>
