<?xml version="1.0" encoding="utf-8"?>
<!-- Generator: Adobe Illustrator 19.2.0, SVG Export Plug-In . SVG Version: 6.00 Build 0)  -->
<svg version="1.1" id="Layer_1" xmlns="http://www.w3.org/2000/svg" xmlns:xlink="http://www.w3.org/1999/xlink" x="0px" y="0px"
	 viewBox="0 0 866.5 728" style="enable-background:new 0 0 866.5 728;" xml:space="preserve">
<style type="text/css">
	.st0{fill:#79231B;}
	.st1{fill:#F28524;}
	.st2{fill:#FFFFFF;stroke:#79231B;stroke-width:30;stroke-miterlimit:10;}
	.st3{fill:#FFFFFF;}
</style>
<path class="st0" d="M448.9,713.7c-107.8,0.5-215.8,1.6-322.7-16c-11.2-1.9-22.4-4.1-33.5-6.6c-21.9-5-34-17.5-37.8-40.9
	C38,545.8,35.8,440.7,37,335.5c0.9-77.1,3.9-154.1,18.3-230.2C59.2,84.5,70.5,74.4,91,69.2C161.9,51.3,234.6,48,307,45.7
	c148.2-4.7,296.5-6,444,14.1c8.7,1.2,17.3,3,25.9,4.6c61.8,11.4,61.2,9,69.4,75c18.1,145.9,15.3,292.3,5.1,438.7
	c-1.6,22.6-6.9,45-9.1,67.6c-2.6,26.6-17.4,40.4-42.4,46.2C734.7,707.1,668,710,601.6,713.2C550.8,715.7,499.8,713.7,448.9,713.7z
	 M488.4,75.6c-80.8-3-161.4,0.9-241.9,5.7c-45.2,2.7-90.7,5.8-135.2,16.2c-13.4,3.1-22,8-25.3,24.6c-7.8,38.8-11.3,78.1-12.4,117.2
	c-3.3,123.5-5.1,247,9.1,370.2c5.5,47.4,6.5,50,53.5,56.3c107,14.5,214.6,16.3,322.4,16.5c104.3,0.1,208.3-3.8,311.8-17.8
	c19.1-2.6,40.3-3.8,41.9-32.5c2.2-39.3,8.5-78.4,10.5-117.7c6.5-128,6-255.7-9.8-383.3c-3.1-25.1-15.2-31-36.4-34.7
	C681.2,80,584.7,78.7,488.4,75.6z"/>
<path class="st1" d="M488.4,75.6c96.3,3.1,192.7,4.4,288.2,20.9c21.1,3.7,33.2,9.5,36.4,34.7c15.9,127.5,16.3,255.3,9.8,383.3
	c-2,39.3-8.3,78.4-10.5,117.7c-1.6,28.7-22.9,29.9-41.9,32.5C667,678.6,563,682.6,458.6,682.5c-107.8-0.1-215.3-2-322.4-16.5
	c-47-6.4-48.1-8.9-53.5-56.3C68.5,486.5,70.3,363,73.6,239.5c1.1-39.1,4.6-78.4,12.4-117.2c3.3-16.7,11.9-21.5,25.3-24.6
	c44.5-10.4,90-13.5,135.2-16.2C327,76.5,407.6,72.6,488.4,75.6z"/>
<g>
	<path class="st0" d="M550.1,492.1C447.6,491.9,365.6,409.4,366,307c0.4-101.7,84-184.5,185.9-184c100.9,0.5,182.7,83.2,182.9,184.9
		C735,410.2,652.6,492.4,550.1,492.1z M549.2,442.4c74.3,0.7,134.6-58.1,135.7-132.4c1.1-75-58.5-136.4-133.1-137.2
		c-74.9-0.8-135.6,60.1-136.1,136.4C415.4,381.3,475.9,441.7,549.2,442.4z"/>
	<path class="st2" d="M434.2,490.2c-3.3,5.1-5.3,10.3-8.9,13.6c-45.2,41.5-90.5,82.8-135.9,124.1c-10.2,9.3-20,8.5-29.2-1.8
		c-15-16.7-29.9-33.4-45-49.9c-9.6-10.5-8-19.9,2-29c44.6-40.4,89.2-80.7,133.5-121.5c11.8-10.9,21.3-9.9,31.5,1.8
		c14,16,28.6,31.4,42.6,47.4C428.4,479,430.7,484.4,434.2,490.2z"/>
	<path class="st3" d="M549.1,458.2c-81.9-0.8-149.5-68.2-149-148.8c0.5-85.2,68.3-153.2,152-152.3c83.3,0.9,149.8,69.5,148.6,153.2
		C699.4,393.3,632.1,458.9,549.1,458.2z"/>
</g>
<path class="st0" d="M642.1,300c-0.9-13.7-9.2-21.6-23-22c-9.9-0.3-19.8-0.6-29.6,0.1c-7.3,0.5-8.9-2.2-8.5-8.8
	c0.6-9.5,0.3-19.1,0.1-28.6c-0.2-13.9-8.5-22.8-22.4-23.7c-5.9-0.4-11.9-0.4-17.8-0.2c-15.1,0.5-23.5,9-23.8,24.4
	c-0.2,9.9-0.3,19.8,0.1,29.6c0.2,5.7-1.7,7.6-7.4,7.4c-9.5-0.4-19.1-0.3-28.6-0.4c-16.6,0-26.3,9.9-25.9,26.6
	c0.2,6.2,0.7,12.4,1.7,18.6c1.9,12.4,9.8,18.8,22.6,18.7c9.5-0.1,19.1,0.1,28.6-0.5c6.8-0.5,9.6,1.8,9.4,8.7
	c-0.2,10.8-0.3,21.7,0.1,32.6c0.4,13.4,2.8,15.9,15.5,19c8.5,2.1,17,1.1,25.6,1c13.4-0.1,21.9-8.8,22.2-22.3
	c0.2-10.5,0.3-21.1,0-31.6c-0.2-5.1,1.5-7,6.7-6.8c9.9,0.3,19.8-0.1,29.6,0.2c7.8,0.2,13.6-3.9,20.1-7.6c3.2-3.8,4.4-8.6,4.6-13.5
	C642.5,313.8,642.6,306.9,642.1,300z"/>
</svg>
