<?xml version="1.0" encoding="utf-8"?>
<!-- Generator: Adobe Illustrator 16.0.0, SVG Export Plug-In . SVG Version: 6.00 Build 0)  -->
<!DOCTYPE svg PUBLIC "-//W3C//DTD SVG 1.1//EN" "http://www.w3.org/Graphics/SVG/1.1/DTD/svg11.dtd">
<svg version="1.1" id="Layer_1" xmlns="http://www.w3.org/2000/svg" xmlns:xlink="http://www.w3.org/1999/xlink" x="0px" y="0px"
	 width="500px" height="300px" viewBox="0 0 500 300" enable-background="new 0 0 500 300" xml:space="preserve">
<path fill="#331501" d="M256.449,294.107c-44.423,0.206-88.929,0.66-132.979-6.593c-4.615-0.783-9.23-1.688-13.806-2.72
	c-9.024-2.062-14.012-7.212-15.577-16.854c-6.965-43.021-7.871-86.333-7.377-129.685c0.371-31.771,1.607-63.502,7.542-94.862
	c1.606-8.571,6.265-12.732,14.711-14.876c29.219-7.377,59.177-8.736,89.013-9.685c61.07-1.938,122.184-2.474,182.967,5.811
	c3.585,0.494,7.129,1.236,10.673,1.896c25.467,4.697,25.22,3.709,28.599,30.905c7.46,60.124,6.307,120.454,2.104,180.783
	c-0.66,9.313-2.844,18.544-3.751,27.857c-1.071,10.962-7.17,16.647-17.473,19.038c-26.867,6.264-54.354,7.459-81.718,8.776
	C298.441,294.931,277.425,294.107,256.449,294.107z M272.726,31.154c-33.296-1.235-66.512,0.371-99.685,2.351
	c-18.627,1.111-37.377,2.39-55.715,6.676c-5.521,1.277-9.064,3.296-10.426,10.137c-3.214,15.989-4.656,32.186-5.109,48.297
	c-1.359,50.894-2.102,101.786,3.75,152.556c2.268,19.533,2.68,20.604,22.047,23.201c44.094,5.975,88.435,6.717,132.856,6.799
	c42.981,0.042,85.838-1.565,128.489-7.335c7.871-1.071,16.606-1.565,17.267-13.394c0.906-16.194,3.503-32.308,4.327-48.503
	c2.679-52.747,2.473-105.371-4.039-157.953c-1.277-10.344-6.264-12.773-15-14.3C352.177,32.967,312.411,32.431,272.726,31.154z"/>
<path fill="#F7D117" d="M272.726,31.154c39.685,1.277,79.409,1.813,118.764,8.613c8.695,1.524,13.682,3.914,15,14.299
	c6.553,52.541,6.718,105.206,4.039,157.953c-0.824,16.195-3.421,32.31-4.327,48.503c-0.659,11.827-9.437,12.321-17.267,13.395
	c-42.609,5.728-85.467,7.376-128.489,7.335c-44.423-0.041-88.722-0.824-132.856-6.8c-19.367-2.639-19.82-3.668-22.047-23.2
	c-5.852-50.771-5.109-101.662-3.75-152.557c0.453-16.111,1.896-32.308,5.109-48.296c1.36-6.882,4.904-8.859,10.426-10.138
	c18.338-4.286,37.088-5.563,55.715-6.676C206.216,31.525,239.43,29.917,272.726,31.154z"/>
<path fill="#331501" d="M298.152,202.788c-42.238-0.082-76.03-34.079-75.865-76.277c0.165-41.909,34.615-76.03,76.607-75.824
	c41.58,0.206,75.288,34.286,75.371,76.195C374.347,169.038,340.391,202.912,298.152,202.788z M297.782,182.308
	c30.618,0.288,55.467-23.941,55.92-54.561c0.453-30.906-24.106-56.209-54.849-56.538c-30.865-0.33-55.879,24.766-56.085,56.208
	C242.644,157.129,267.576,182.019,297.782,182.308z"/>
<path fill="#FFFFFF" stroke="#331501" stroke-width="16" stroke-miterlimit="10" d="M250.391,202.005
	c-1.359,2.102-2.185,4.245-3.667,5.604c-18.627,17.103-37.294,34.121-56.003,51.142c-4.203,3.832-8.242,3.503-12.033-0.742
	c-6.183-6.882-12.321-13.764-18.544-20.563c-3.956-4.325-3.297-8.199,0.824-11.949c18.379-16.648,36.758-33.257,55.014-50.068
	c4.862-4.492,8.777-4.08,12.979,0.741c5.771,6.594,11.786,12.938,17.557,19.533C248.002,197.39,248.949,199.615,250.391,202.005z"/>
<path fill="#FFFFFF" d="M297.74,188.819c-33.75-0.33-61.606-28.104-61.4-61.317c0.206-35.11,28.146-63.132,62.638-62.763
	c34.327,0.371,61.73,28.642,61.235,63.134C359.677,162.074,331.944,189.107,297.74,188.819z"/>
<path fill="#331501" d="M336.064,123.626c-0.37-5.646-3.791-8.901-9.479-9.065c-4.08-0.124-8.158-0.248-12.197,0.041
	c-3.009,0.206-3.667-0.907-3.502-3.627c0.246-3.914,0.122-7.87,0.041-11.785c-0.083-5.729-3.504-9.396-9.231-9.767
	c-2.431-0.165-4.903-0.165-7.335-0.082c-6.223,0.206-9.684,3.708-9.808,10.055c-0.082,4.079-0.123,8.159,0.041,12.197
	c0.083,2.35-0.7,3.132-3.05,3.05c-3.915-0.165-7.871-0.124-11.786-0.165c-6.841,0-10.838,4.08-10.673,10.962
	c0.082,2.556,0.288,5.109,0.7,7.665c0.783,5.109,4.039,7.747,9.313,7.706c3.915-0.042,7.871,0.041,11.784-0.206
	c2.804-0.206,3.956,0.741,3.874,3.585c-0.082,4.45-0.123,8.942,0.041,13.435c0.165,5.521,1.154,6.553,6.389,7.83
	c3.503,0.864,7.006,0.453,10.55,0.412c5.521-0.041,9.023-3.627,9.146-9.189c0.083-4.327,0.124-8.695,0-13.022
	c-0.082-2.102,0.618-2.885,2.763-2.802c4.079,0.123,8.159-0.041,12.196,0.082c3.216,0.083,5.604-1.605,8.283-3.132
	c1.318-1.565,1.813-3.544,1.896-5.563C336.229,129.313,336.27,126.47,336.064,123.626z"/>
</svg>
