<?xml version="1.0" encoding="utf-8"?>
<!-- Generator: Adobe Illustrator 15.0.0, SVG Export Plug-In . SVG Version: 6.00 Build 0)  -->
<!DOCTYPE svg PUBLIC "-//W3C//DTD SVG 1.1//EN" "http://www.w3.org/Graphics/SVG/1.1/DTD/svg11.dtd">
<svg version="1.1" id="Layer_1" xmlns="http://www.w3.org/2000/svg" xmlns:xlink="http://www.w3.org/1999/xlink" x="0px" y="0px"
	 width="866.461px" height="728px" viewBox="0 0 866.461 728" enable-background="new 0 0 866.461 728" xml:space="preserve">
<path fill="#79231B" d="M446.758,715.529c-107.725-2.439-215.715-0.599-322.455-19.377c-9.439-1.662-18.836-3.584-28.236-5.478
	c-23.846-4.805-37.186-17.137-41.115-43.344c-19.081-127.128-21.104-254.82-15.88-382.861c1.895-46.384,5.313-92.613,12.086-138.654
	c6.535-44.464,14.684-54.67,59.404-62.548c111.943-19.723,225.014-21.419,338.23-21.206c108.797,0.208,217.416,2.583,325.115,20.463
	c60.754,10.087,66.061,16.761,73.334,78.065c12.352,104.019,11.801,208.354,10.52,312.768c-0.789,64.063-5.315,127.78-15.08,191.221
	c-4.479,29.102-20.11,41.588-47.606,47.145c-106.41,21.494-214.275,21.187-321.994,23.785
	C464.313,715.717,455.531,715.529,446.758,715.529z M447.219,680.572c78.064,0.276,156.129,0.061,233.969-6.476
	c32.212-2.698,64.32-6.869,96.332-11.416c19.189-2.729,32.517-10.205,35.197-33.977c7.191-63.59,12.377-127.207,13.306-191.166
	c1.467-101.788-1.023-203.351-12.479-304.708c-3.025-26.807-15.619-34.186-39.301-38.082
	c-71.998-11.854-144.566-16.103-217.236-18.62c-146.457-5.063-292.725-4.265-438.098,18.44
	c-20.941,3.274-31.867,11.569-35.354,33.814c-9.543,60.797-10.914,121.947-11.727,183.2
	c-1.359,102.561-0.475,205.025,11.469,307.111c4.301,36.774,9.057,40.28,46.658,45.647
	C235.277,679.379,341.164,681.162,447.219,680.572z"/>
<path fill="#F28524" d="M447.227,680.535c-106.063,0.627-211.949-1.156-317.271-16.191c-37.602-5.367-42.357-8.873-46.658-45.647
	c-11.944-102.087-12.829-204.552-11.47-307.112c0.813-61.253,2.184-122.403,11.727-183.2c3.486-22.245,14.412-30.54,35.354-33.814
	C264.282,71.864,410.55,71.067,557.007,76.13c72.67,2.517,145.238,6.766,217.236,18.62c23.682,3.896,36.274,11.275,39.301,38.082
	c11.455,101.357,13.945,202.92,12.479,304.708c-0.929,63.959-6.113,127.576-13.306,191.166
	c-2.682,23.771-16.008,31.248-35.197,33.977c-32.012,4.548-64.12,8.718-96.331,11.416
	C603.348,680.633,525.283,680.85,447.227,680.535z M661.975,263.632c-1.233-13.13-7.971-24.456-16.692-34.108
	c-12.334-13.664-25.271-26.944-39.125-39.029c-27.572-24.063-57.978-23.31-84.83,1.964c-19.17,18.041-38.387,36.226-55.623,56.044
	c-12.744,14.661-20.785,12.607-32.605-0.692c-16.891-18.987-35.51-36.464-53.729-54.229c-26.555-25.888-59.174-26.973-86.916-2.605
	c-11.854,10.41-23.07,21.623-33.867,33.142c-27.584,29.434-27.283,61.27,1.025,90.788c18.221,19.01,36.678,37.841,55.997,55.711
	c11.073,10.243,11.155,17.661,0.067,27.812c-18.764,17.182-36.631,35.354-54.66,53.327c-31.316,31.228-31.012,68.158,1.352,98.83
	c12.016,11.387,24.855,22.074,38.223,31.84c27.104,19.795,53.908,17.017,77.828-7.272c17.838-18.127,36.182-35.843,52.889-54.959
	c11.937-13.654,21.537-14.613,34.183-1.386c19.987,20.91,40.416,41.455,61.539,61.216c26.19,24.504,35.196,24.764,65.143,6.532
	c19.844-12.084,34.271-29.998,50.154-46.198c25.026-25.502,24.674-57.992-0.217-83.935c-19.439-20.26-39.16-40.305-59.601-59.542
	c-9.981-9.398-10.35-15.973-0.197-25.467c19.23-17.979,37.046-37.465,56.195-55.525C653.596,301.646,656.797,282.75,661.975,263.632
	z"/>
<path fill="#79231B" d="M661.975,263.632c-5.178,19.119-8.379,38.015-23.469,52.257c-19.15,18.061-36.965,37.546-56.195,55.525
	c-10.151,9.494-9.784,16.068,0.197,25.467c20.439,19.238,40.16,39.283,59.601,59.542c24.891,25.941,25.243,58.432,0.217,83.935
	c-15.886,16.2-30.312,34.114-50.154,46.198c-29.945,18.23-38.951,17.972-65.143-6.533c-21.123-19.76-41.552-40.305-61.539-61.215
	c-12.646-13.229-22.246-12.27-34.183,1.386c-16.707,19.116-35.051,36.831-52.889,54.959c-23.92,24.288-50.725,27.067-77.828,7.272
	c-13.367-9.766-26.207-20.453-38.223-31.84c-32.363-30.672-32.668-67.604-1.352-98.83c18.029-17.973,35.896-36.146,54.66-53.327
	c11.088-10.15,11.006-17.568-0.067-27.813c-19.318-17.869-37.775-36.7-55.997-55.71c-28.309-29.518-28.609-61.354-1.025-90.788
	c10.797-11.519,22.014-22.732,33.867-33.142c27.742-24.368,60.361-23.282,86.916,2.605c18.219,17.766,36.838,35.243,53.729,54.229
	c11.82,13.299,19.861,15.353,32.605,0.692c17.236-19.819,36.453-38.004,55.623-56.044c26.854-25.273,57.258-26.026,84.83-1.964
	c13.854,12.085,26.791,25.365,39.125,39.029C654.004,239.176,660.74,250.501,661.975,263.632z M626.383,269.994
	c1.074-9.347-3.52-16.601-9.945-22.99c-9.942-9.897-20.223-19.469-29.905-29.604c-15.377-16.109-29.441-15.309-44.726,0.781
	c-22.325,23.495-45.932,45.767-68.436,69.083c-16.203,16.791-31.357,16.411-47.201-0.092C411.6,272,396.779,257.07,381.951,242.148
	c-49.521-49.832-47.58-49.514-95.789-0.482c-18.449,18.769-19.357,32.066-0.982,51.084c20.71,21.433,42.023,42.275,63.205,63.25
	c25.086,24.84,25.01,32.523-0.809,57.67c-12.508,12.184-25.033,24.346-37.351,36.729c-52.983,53.264-50.303,44.92,2.197,98.786
	c15.996,16.406,29.357,15.318,44.422-0.153c21.972-22.582,44.427-44.697,66.67-67.029c19.009-19.086,30.652-19.613,50.371-1.051
	c14.679,13.815,28.834,28.203,42.818,42.713c47.867,49.648,48.797,49.357,96.877-1.307c15.943-16.806,16.656-31.101,0.045-47.271
	c-22.604-22.014-44.25-45.029-66.994-66.885c-16.444-15.791-18.283-30.326-1.08-46.818c22.779-21.841,44.922-44.343,67.125-66.772
	C619.381,287.84,627.098,281.333,626.383,269.994z"/>
<path fill="#FAF6F2" d="M626.383,269.994c0.715,11.339-7.002,17.846-13.705,24.619c-22.203,22.43-44.346,44.932-67.125,66.772
	c-17.203,16.492-15.365,31.027,1.08,46.818c22.744,21.854,44.392,44.871,66.994,66.885c16.611,16.17,15.898,30.465-0.045,47.271
	c-48.08,50.664-49.01,50.955-96.877,1.307c-13.984-14.51-28.141-28.896-42.818-42.713c-19.719-18.563-31.362-18.035-50.371,1.051
	c-22.243,22.332-44.698,44.447-66.67,67.029c-15.063,15.473-28.426,16.561-44.422,0.153c-52.5-53.866-55.182-45.522-2.197-98.786
	c12.316-12.384,24.843-24.546,37.351-36.729c25.817-25.146,25.895-32.83,0.809-57.67c-21.182-20.975-42.494-41.817-63.205-63.25
	c-18.375-19.018-17.467-32.315,0.982-51.084c48.209-49.031,46.268-49.35,95.789,0.482C396.779,257.07,411.6,272,426.17,287.171
	c15.844,16.503,30.998,16.883,47.201,0.092c22.504-23.316,46.109-45.587,68.436-69.083c15.283-16.09,29.349-16.89,44.726-0.781
	c9.684,10.135,19.963,19.706,29.905,29.604C622.863,253.393,627.457,260.646,626.383,269.994z"/>
</svg>
