<?xml version="1.0" encoding="utf-8"?>
<!-- Generator: Adobe Illustrator 15.0.0, SVG Export Plug-In . SVG Version: 6.00 Build 0)  -->
<!DOCTYPE svg PUBLIC "-//W3C//DTD SVG 1.1//EN" "http://www.w3.org/Graphics/SVG/1.1/DTD/svg11.dtd">
<svg version="1.1" id="Layer_1" xmlns="http://www.w3.org/2000/svg" xmlns:xlink="http://www.w3.org/1999/xlink" x="0px" y="0px"
	 width="450px" height="550px" viewBox="0 0 450 550" enable-background="new 0 0 450 550" xml:space="preserve">
<g id="outline_body_top">
	<g>
		<g>
			<path fill="#FFFFFF" d="M387.326,405.971c-9.527-0.029-20.67-1.351-29.154,15.114c0,0.001,0,0.003-0.002,0.004
				c-0.758,1.473-1.494,3.087-2.207,4.857c-8.74,17.754-22.557,29.926-35.803,38.109l-0.043-0.449
				c0.195-0.995,0.498-3.126-0.123-4.614v3.355l-0.338-3.5c15.242-12.91,20.678-30.119,20.156-40.779
				c-1.318-27.006-21.832-52.195-26.408-57.497l-0.236-1.033c49.418-7.469,58.602-33,64.631-40.082c0,0,8.074,6.345,10.852,3.793
				c2.775-2.554-3.287-12.918-4.074-14.185c-1.207-1.943-0.279-3.14-0.279-3.14c5.352,4.313,12.857,5.503,8.732-3.424
				c-1.854-4.01-2.898-5.138-5.172-7.979c0,0,2.434-10.238,1.229-13.293c0,0,22.398-1.058,24.785-2.291
				c2.387-1.234,28.602-5.803,21.795-50.127c-6.809-44.325-38.072-46.644-57.725-39.464c-19.654,7.18-20.807,10.801-20.807,10.801
				s-35.955-33.542-92.816-45.946c0,0-13.896-18.601-16.646-16.715c-2.748,1.886,0.162,12.018,2.049,14.766
				c0,0-12.164-12.189-23.801-11.183c0,0-8.708-1.196,8.203,9.191c0,0-14.622-9.29-95.168,1.997c0,0-22.972-24.966-51.8-21.688
				c-28.83,3.278-41.268,45.125-37.293,61.641c3.976,16.515,6.969,24.648,37.439,29.935c0,0-3.697,16.525-7.516,20.035
				c-3.818,3.509-1.543,4.939,4.119,5.178c0,0,4.066-1.497-4.469,3.148c-8.537,4.645-8.679,7.975-0.033,8.672
				c3.023,0.244,4.587,0.223,5.343,0.135c-0.008,0.027-0.014,0.057-0.015,0.09c-0.041,1-9.107,10.293-4.473,11.154
				c4.635,0.862,4.012-0.164,6.385-1.065c0,0-4.03,41.915,71.386,70.09l-0.319,1.407c-3.282,0.976-11.135,5.916-28.714,26.857
				c-20.69,24.646-30.063,62.982-15.002,81.646c13.137,16.279,36.348,30.533,39.066,32.173
				c-19.92-8.835-47.796-25.199-61.265-51.404c-8.826-23.221-21.536-22.644-32.072-22.61c0,0-51.385-4.229-41.166,85.342
				c2.949,25.849,17.138,39.197,32.924,41.727l-0.154,0.449c50.03,13.75,103.582-5.519,120-12.303l6.138-1.667
				c14.142,3.996,29.642,5.364,43.968,5.421c0.023,0.001,0.047,0.002,0.07,0.003c12.697,0.44,26.9-1.018,37.912-2.581
				c7.35-0.993,12.234-1.942,13.344-2.165c0.389-0.071,0.754-0.139,1.104-0.204c8.148,3.191,72.297,27.232,117.799,11.584
				l-0.004-0.015c16.848-0.395,32.705-13.186,35.867-40.915C437.742,402.756,387.326,405.971,387.326,405.971z M178.738,520.852
				l0.098-0.026c0,0,0.042,0.012,0.104,0.028L178.738,520.852z"/>
		</g>
	</g>
	<g>
		<g>
			<path fill="#282828" d="M269.109,477.007c-9.014,0-25.146-4.216-33.032-16.053c-5.889-8.837-5.886-19.843,0.007-32.711
				c15.657-34.193,76.146-26.264,78.713-25.908l-0.273,1.98c-0.612-0.082-61.581-8.083-76.621,24.76
				c-5.585,12.196-5.639,22.548-0.161,30.77c7.712,11.574,23.855,15.433,32.218,15.148c29.143-0.997,45.697-12.548,54.453-22.063
				c11.286-12.264,14.812-26.418,14.401-34.813c-1.451-29.688-26.81-57.635-27.065-57.913l1.473-1.354
				c0.261,0.284,26.104,28.75,27.591,59.169c0.429,8.781-3.224,23.548-14.928,36.266c-9.015,9.795-26.022,21.687-55.856,22.706
				C269.73,477.002,269.424,477.007,269.109,477.007z"/>
		</g>
	</g>
	<g>
		<g>
			<path fill="#282828" d="M285.758,404.432l-0.447-1.483c-4.573-15.155-21.074-27.36-21.24-27.481l1.18-1.615
				c0.68,0.497,16.247,12.004,21.523,27.13c2.039-1.521,6.474-4.395,11.165-4.654l0.111,1.996
				c-5.592,0.311-11.069,5.041-11.124,5.089L285.758,404.432z"/>
		</g>
	</g>
	<g>
		<g>
			<path fill="#282828" d="M158.041,404.401l-1.07-1.018c-0.067-0.064-6.802-6.421-11.707-6.728l0.125-1.996
				c4.402,0.274,9.66,4.392,11.888,6.312c6.839-15.98,19.527-26.625,20.079-27.082l1.277,1.539
				c-0.135,0.112-13.553,11.378-20.043,27.602L158.041,404.401z"/>
		</g>
	</g>
	<g>
		<g>
			<path fill="#282828" d="M175.305,489.43c-11.963,0.001-22.353-6.653-22.526-6.767c-0.217-0.128-25.643-15.291-39.564-32.543
				c-16.006-19.835-5.159-58.888,15.014-82.917c19.775-23.557,27.643-27.297,30.572-27.43c1.06-0.055,1.581,0.341,1.751,0.51
				l-1.409,1.42c0.081,0.08,0.131,0.103,0.133,0.104c-0.049-0.021-5.467-1.966-29.516,26.682
				c-10.09,12.02-17.632,27.555-20.694,42.623c-3.211,15.808-1.186,29.215,5.704,37.753c13.697,16.974,38.813,31.952,39.065,32.102
				c1.148,0.749,27.421,17.531,43.334-5.526c8.013-11.611,7.94-26.367-0.2-40.482c-9.922-17.204-32.618-33.546-60.916-31.301
				l-0.159-1.994c29.184-2.314,52.572,14.547,62.808,32.296c8.542,14.812,8.583,30.345,0.114,42.618
				C191.998,486.458,183.3,489.43,175.305,489.43z"/>
		</g>
	</g>
	<g>
		<g>
			<path fill="#282828" d="M320.961,464.413l-1.935-0.507c0.207-0.793,0.618-3.152,0.045-4.529l1.846-0.77
				C321.854,460.854,321.056,464.056,320.961,464.413z"/>
		</g>
	</g>
	<g>
		<g>
			<path fill="#282828" d="M356.683,539.45c-41.457,0.002-83.524-16.976-84.068-17.198l-0.407-0.167l-0.152-0.412
				c-0.116-0.317-11.444-31.815,10.815-43.236l0.262-0.092c0.547-0.107,54.889-11.366,74.116-57.644l1.848,0.768
				c-19.151,46.094-72.263,58.132-75.432,58.809c-19.217,9.984-11.094,36.646-9.875,40.29c5.87,2.315,71.732,27.498,117.546,11.743
				l0.65,1.891C380.985,537.984,368.856,539.449,356.683,539.45z"/>
		</g>
	</g>
	<g>
		<g>
			<path fill="#282828" d="M390.852,534.256c-11.145,0-22.31-5.239-30.632-14.373c-11.008-12.081-16.059-29.595-14.222-49.316
				c5.64-60.564,21.394-65.633,37.045-65.633c0.793,0,1.578,0.01,2.354,0.02c0.646,0.008,1.287,0.016,1.921,0.018
				c0.01-0.002,0.25-0.015,0.653-0.015c3.619,0,16.25,0.922,26.833,12.78c13.081,14.659,17.695,39.793,13.712,74.703
				C425,523.271,406.754,534.256,390.852,534.256z M383.043,406.934c-11.592,0-29.11,0-35.053,63.818
				c-1.785,19.154,3.083,36.124,13.707,47.784c7.945,8.719,18.571,13.72,29.154,13.72c15.039,0,32.311-10.52,35.679-40.043
				c3.915-34.319-0.532-58.929-13.218-73.145c-10.288-11.528-22.915-12.112-25.341-12.112c-0.363,0-0.566,0.012-0.583,0.013
				c-0.709,0-1.359-0.008-2.016-0.016C384.604,406.943,383.827,406.934,383.043,406.934z"/>
		</g>
	</g>
	<g>
		<g>
			<path fill="#282828" d="M88.899,540.954c-12.432,0.001-25.259-1.364-37.838-4.822l0.53-1.928
				c56.771,15.604,118.937-11.955,124.05-14.298c1.085-2.53,7.686-19.082-0.547-29.033c-4.975-1.407-67.792-20.024-86.733-65.614
				l1.847-0.768c19.254,46.342,85.047,64.358,85.709,64.535l0.299,0.079l0.202,0.235c10.042,11.688,1.271,30.922,0.893,31.735
				l-0.152,0.326l-0.325,0.154C176.319,521.803,135.438,540.952,88.899,540.954z"/>
		</g>
	</g>
	<g>
		<g>
			<path fill="#282828" d="M57.121,536.168c-0.001,0-0.002,0-0.004,0c-15.98-0.002-35.928-11.28-39.554-43.063
				c-3.922-34.378,0.64-59.149,13.56-73.627c10.648-11.933,23.759-12.859,27.524-12.859c0.745,0,1.157,0.034,1.157,0.034l2.015-0.01
				c7.871,0,16.155,0.729,23.327,9.442c8.26,10.035,13.596,29.096,16.313,58.271c1.782,19.124-3.059,36.044-13.63,47.645
				C79.624,531.005,68.431,536.168,57.121,536.168z M58.647,408.619c-3.555,0-15.937,0.879-26.032,12.19
				c-12.524,14.034-16.92,38.282-13.065,72.069c3.476,30.473,22.41,41.287,37.567,41.289c0,0,0.003,0,0.003,0
				c10.75,0.001,21.402-4.925,29.229-13.514c10.188-11.18,14.846-27.556,13.118-46.112c-6.136-65.898-24.349-65.898-37.648-65.898
				l-2.094,0.007C59.619,408.646,59.267,408.619,58.647,408.619z"/>
		</g>
	</g>
	<g>
		<g>
			<path fill="#282828" d="M222.261,527.582c-15.118,0-31.584-1.418-46.385-5.798l0.567-1.918c41.27,12.217,95.814,1.094,96.36,0.98
				l0.408,1.957C272.856,522.878,249.797,527.582,222.261,527.582z"/>
		</g>
	</g>
	<g>
		<g>
			<path fill="#282828" d="M283.243,362.609c-19.305,0-41.598-2.209-66.26-6.564c-70.775-12.499-102.696-35.263-117.012-52.158
				c-12.812-15.121-14.291-28.146-14.37-32.744c-0.967,0.584-2.043,1.045-5.526,0.397c-1.249-0.232-1.762-0.933-1.973-1.481
				c-0.8-2.083,1.463-5.295,4.275-8.972c0.176-0.23,0.365-0.478,0.546-0.717c-0.979-0.016-2.188-0.081-3.602-0.195
				c-4.512-0.363-6.898-1.448-7.293-3.314c-0.443-2.089,1.823-4.455,6.928-7.233c1.084-0.59,1.94-1.068,2.616-1.454
				c-2.658-0.34-4.085-1.084-4.539-2.326c-0.684-1.87,1.392-3.777,2.074-4.404c2.742-2.521,5.765-13.381,6.981-18.497
				c-29.867-5.358-33.166-13.744-37.2-30.503c-2.482-10.314,1.273-30.64,11.667-45.49c7.148-10.212,16.306-16.222,26.484-17.379
				c1.769-0.201,3.575-0.303,5.37-0.303c24.507,0,44.018,18.966,46.91,21.924c26.304-3.67,48.33-5.531,65.475-5.531
				c11.263,0,18.498,0.804,23.023,1.669c-4.83-3.441-5.375-4.927-5.08-5.967c0.172-0.611,0.745-1.34,2.491-1.34
				c0.301,0,0.562,0.022,0.707,0.037c8.214-0.661,16.519,4.814,21.035,8.438c-0.396-1.207-0.744-2.506-0.994-3.761
				c-0.584-2.932-0.862-6.713,1.129-8.08c0.299-0.206,0.648-0.31,1.038-0.31c3.703,0,13.479,12.594,16.751,16.953
				c51.604,11.356,86.402,40.381,92.099,45.377c1.634-1.698,6.445-5.102,20.604-10.275c5.664-2.069,11.707-3.163,17.476-3.163
				c13.038,0,35.777,5.64,41.579,43.415c2.896,18.852,1.543,42.969-21.344,50.808c-0.432,0.147-0.84,0.287-0.98,0.36
				c-2.259,1.167-18.476,2.067-24.007,2.344c0.455,3.579-0.933,10.13-1.381,12.104l0.282,0.351c1.918,2.384,2.975,3.697,4.713,7.456
				c1.419,3.071,1.663,5.261,0.745,6.695c-0.419,0.656-1.283,1.438-3.017,1.438c-1.87,0-4.308-0.933-6.621-2.495
				c0.071,0.238,0.191,0.512,0.382,0.817c0.771,1.24,7.425,12.206,3.9,15.449c-0.628,0.576-1.453,0.869-2.454,0.869
				c-3.023,0-7.144-2.74-8.899-4.016c-0.703,0.928-1.479,2.101-2.347,3.412C367.39,336.701,350.25,362.609,283.243,362.609z
				 M87.786,267.987l-0.148,1.599c-0.014,0.151-1.227,15.303,14,33.173c14.132,16.586,45.676,38.952,115.693,51.317
				c24.548,4.335,46.724,6.533,65.912,6.533c65.932,0,82.671-25.303,90.715-37.462c1.151-1.741,2.146-3.245,3.078-4.34l0.623-0.731
				l0.756,0.594c1.483,1.163,5.893,4.185,8.457,4.185c0.49,0,0.851-0.112,1.101-0.342c1.55-1.426-1.526-8.545-4.246-12.92
				c-1.243-2.001-0.723-3.633-0.22-4.281l0.625-0.805l0.793,0.64c2.275,1.835,4.984,3.067,6.74,3.067
				c0.665,0,1.113-0.173,1.332-0.515c0.232-0.363,0.612-1.558-0.877-4.778c-1.634-3.537-2.577-4.708-4.455-7.042l-0.894-1.113
				l0.113-0.476c0.912-3.841,2.063-10.684,1.27-12.694l-0.513-1.3l1.396-0.066c8.575-0.405,22.775-1.354,24.373-2.181
				c0.271-0.14,0.66-0.273,1.25-0.476c17.324-5.933,24.059-22.289,20.016-48.611c-5.575-36.299-27.205-41.719-39.603-41.719
				c-5.537,0-11.343,1.052-16.79,3.042c-18.242,6.664-20.156,10.104-20.229,10.247l-0.479,1.505l-1.124-1.159
				c-0.358-0.334-36.43-33.502-92.347-45.7l-0.365-0.08l-0.223-0.299c-5.872-7.859-13.371-16.338-15.335-16.447
				c-0.621,0.526-0.93,2.552-0.243,5.998c0.645,3.238,1.823,6.196,2.605,7.335l-1.532,1.272
				c-0.114-0.114-11.949-11.844-23.007-10.894l-0.111,0.01l-0.11-0.015c-0.032-0.005-0.698-0.046-0.986-0.006
				c0.41,0.664,2.183,2.645,9.839,7.348l-1.037,1.71c-0.061-0.037-5.967-3.447-28.803-3.447c-17.163,0-39.269,1.878-65.704,5.583
				l-0.519,0.073l-0.355-0.386c-0.199-0.216-20.252-21.662-45.807-21.662c-1.72,0-3.45,0.098-5.145,0.291
				c-12.118,1.378-20.322,9.754-25.071,16.539c-10.076,14.394-13.743,33.982-11.362,43.875c3.976,16.519,6.983,24.038,36.638,29.184
				l1.034,0.18l-0.229,1.024c-0.386,1.723-3.88,16.935-7.815,20.553c-1.4,1.287-1.633,2.016-1.549,2.244
				c0.037,0.101,0.484,0.981,4.841,1.189c0.333-0.113,0.73-0.222,1.021-0.222c0.597,0,0.966,0.397,1.066,0.792
				c0.213,0.836,0.277,1.089-5.927,4.465c-6.101,3.319-5.963,4.893-5.928,5.061c0.028,0.135,0.425,1.327,5.498,1.736
				c1.581,0.127,2.887,0.192,3.881,0.192c0.375,0,0.664-0.01,0.882-0.022c0.251-0.196,0.575-0.309,0.929-0.309
				c0.747,0,1.167,0.511,1.196,1.016c0.031,0.529-0.247,0.896-0.825,1.1l-0.02,0.071l-0.07,0.008
				c-0.254,0.44-0.713,1.048-1.492,2.065c-1.22,1.595-4.461,5.832-3.997,7.04c0.049,0.129,0.283,0.197,0.471,0.232
				c1.115,0.208,1.951,0.308,2.555,0.308c0.828,0,1.11-0.171,1.672-0.511c0.391-0.237,0.877-0.532,1.619-0.814L87.786,267.987z"/>
		</g>
	</g>
	<g>
		<g>
			<path fill="none" stroke="#282828" stroke-width="2" stroke-miterlimit="10" d="M134.137,155.725"/>
		</g>
	</g>
</g>
</svg>
