<?xml version="1.0" standalone="no"?>
<!DOCTYPE svg PUBLIC "-//W3C//DTD SVG 1.1//EN" "http://www.w3.org/Graphics/SVG/1.1/DTD/svg11.dtd" >
<svg xmlns="http://www.w3.org/2000/svg">
<metadata></metadata>
<defs>
<font id="jollygood_sansbasic" horiz-adv-x="666" >
<font-face units-per-em="1000" ascent="800" descent="-200" />
<missing-glyph horiz-adv-x="225" />
<glyph unicode="&#xfb01;" horiz-adv-x="599" d="M538 485q1 -5 1 -15q0 -11 -1 -16l-3 -204q-1 -24 -1 -73v-80q-1 -11 -1 -32v-13q1 -3 1 -11q0 -20 -12.5 -30.5t-29.5 -10.5h-6q-27 0 -40 16t-13 39q0 2 3 35l3 47q3 51 3 104v28q0 51 -4 153q-65 -3 -227 -8q4 -304 4 -322l1 -6q0 -6 0.5 -14.5t0.5 -15.5 q0 -19 -3 -31q-9 -33 -46 -33q-22 0 -37 14.5t-15 37.5q0 8 1 13q-2 234 -2 351h-13q-62 0 -62 49q0 41 35 49q12 2 18 2l22 -1q0 86 10 132q11 55 39 96q31 44 79 62q29 11 64 11q70 0 116 -35q47 -35 47 -74q0 -21 -16.5 -33.5t-34.5 -12.5q-7 0 -13.5 2t-12 6.5t-8.5 7.5 t-8 9t-6 7q-23 27 -64 27q-36 0 -57 -20q-26 -25 -35 -87q-5 -37 -5 -79v-18q169 5 183 6q37 3 66 7q28 5 35 5q15 0 26 -7q16 -10 18 -34z" />
<glyph unicode="&#xfb02;" horiz-adv-x="643" d="M575 714q8 -13 8 -37l-1 -14q-6 -506 -6 -545v-89q-2 -39 -45 -39q-23 0 -39 13.5t-16 39.5q0 3 0.5 6.5t1.5 19.5t2 41q4 67 5 104q2 86 2 132v165q0 71 -3 115q-2 26 -2 39q0 11 1 17q-1 0 -5.5 4t-6 5t-6.5 5t-8.5 5t-9.5 4t-12 4t-14 2.5t-17 2t-20 0.5 q-55 0 -88 -17t-53 -58q-22 -48 -22 -137q32 2 48 4q83 10 93 10q15 0 26 -10q14 -13 14 -36t-15.5 -38t-45.5 -17l-118 -8l2 -168q4 -162 4 -204q0 -24 -10 -35q-14 -15 -37 -15q-25 0 -39.5 16.5t-14.5 37.5q0 7 1 10q-2 220 -2 351q-8 -1 -23 -1q-64 0 -64 49q0 40 32 47 q11 2 55 4v11q0 16 1 28q4 62 15 99q21 69 59 107q66 66 184 66q100 0 158 -49q27 -25 31 -47z" />
<glyph horiz-adv-x="0" />
<glyph horiz-adv-x="333" />
<glyph unicode=" "  horiz-adv-x="225" />
<glyph unicode="&#x09;" horiz-adv-x="225" />
<glyph unicode="&#xa0;" horiz-adv-x="225" />
<glyph unicode="!" horiz-adv-x="242" d="M124 752q25 0 41.5 -14.5t16.5 -38.5q0 -3 -0.5 -10t-0.5 -10q-11 -141 -11 -384q0 -16 0.5 -48.5t0.5 -48.5v-18q0 -56 -51 -56q-18 0 -34 9.5t-16 32.5q0 6 1 10q7 170 8 204v70q0 141 2 210v25q0 42 14 56q10 11 29 11zM111 66h3q37 0 52 -37q4 -8 4 -16 q0 -20 -17 -40.5t-40 -20.5q-22 0 -37.5 18t-15.5 39q0 23 14 39.5t37 17.5z" />
<glyph unicode="&#x22;" horiz-adv-x="415" d="M303 747h7q45 -5 45 -54q0 -8 -3 -25.5t-3 -26.5v-15q0 -10 0.5 -30t0.5 -30v-7q0 -49 -44 -49q-23 0 -39 14.5t-16 48.5q0 48 3 96q1 16 2 25.5t5.5 23.5t15 21.5t26.5 7.5zM113 744h5q14 0 23 -4t12.5 -13.5t4 -15t1.5 -18.5q1 -10 3 -30.5t2 -31.5v-78q0 -20 -16 -34 t-39 -14t-34 22.5t-11 50.5q0 6 0.5 19t0.5 20v18q0 7 -2.5 24t-2.5 25q0 25 16.5 42.5t36.5 17.5z" />
<glyph unicode="#" horiz-adv-x="835" d="M727 578q20 0 34 -16t14 -39v-4q-9 -39 -63 -42l-69 -4q-31 -136 -40 -177q15 0 49 3.5t52 3.5q49 0 49 -46q0 -23 -14.5 -39t-47.5 -16h-27l-82 -1q-19 -94 -21 -104l-3 -16q-3 -18 -6 -26.5t-12 -16.5t-25 -8q-26 0 -41.5 15t-15.5 39v7q1 10 7 30l18 78 q-134 -6 -201 -12l-23 -112q-4 -18 -7 -27t-12 -18.5t-23 -9.5h-3q-21 0 -38 17.5t-17 38.5v6q0 9 9 36q7 24 16 61l-58 -7q-2 0 -6 -0.5t-6 -0.5q-54 0 -54 50q0 47 58 51l90 5q13 59 35 177q-64 -4 -96 -4q-23 0 -38.5 17.5t-15.5 40.5q0 17 16 28.5t34 13.5h104h13 q4 17 10.5 52t9.5 53q8 47 22 61q11 10 29 12q4 1 13 1q20 0 31 -13t11 -34q0 -16 -6 -33q-2 -7 -9.5 -41.5t-12.5 -53.5q62 2 193 10l16 1l17 80q1 7 4 21.5t4.5 21.5t5.5 18.5t8.5 17.5t13 12t19.5 9q14 4 23 4q17 0 25.5 -14.5t8.5 -32.5q0 -16 -6 -34l-23 -96 q4 0 12.5 1t12.5 2q33 3 35 3zM505 291q23 95 41 177l-207 -9q-30 -145 -37 -178q132 6 203 10z" />
<glyph unicode="$" horiz-adv-x="678" d="M638 251q0 -111 -76.5 -180t-189.5 -88l1 -92q0 -52 -53 -52h-8q-17 2 -28.5 12t-11.5 27v4l5 96q-91 5 -154 45q-80 51 -83 108v4q0 33 42 37h5q31 0 55 -34q37 -56 139 -62q3 93 3 292v17q-97 2 -149 26q-42 19 -64 56.5t-22 85.5q0 16 1 24q9 81 74 124.5t158 55.5 q1 9 -0.5 26t-1.5 24q0 26 6 38q10 22 38 22q25 0 40.5 -14.5t15.5 -36.5l-4 -56q152 -6 152 -67v-6q-2 -19 -20.5 -32t-37.5 -13q-8 0 -15 3q-36 14 -83 18q-3 -62 -5 -186q29 0 57 -3q94 -11 154 -65t60 -158zM212 485q24 -5 73 -7q1 33 1 99q0 53 -1 79v4 q-59 -7 -100.5 -33t-41.5 -74q0 -33 17.5 -47.5t51.5 -20.5zM371 82q73 15 122.5 57.5t49.5 112.5q0 41 -13 68.5t-40 40.5t-54.5 17.5t-68.5 5.5v-7q0 -97 4 -295z" />
<glyph unicode="&#x26;" horiz-adv-x="740" d="M650 194q1 -1 10.5 -9.5t11.5 -11l8 -10t8 -13.5t2 -13q0 -18 -18 -33t-37 -15q-6 0 -11.5 1.5t-9 3t-9 6t-8 6.5t-8.5 8l-8 8l-37 34q-109 -137 -252 -137q-96 0 -169 60t-73 162q0 125 145 247q-2 2 -13 13.5t-13.5 14t-11.5 13t-11.5 14.5t-9 13.5t-8.5 15.5 t-5.5 15.5t-4.5 18.5t-1 19q0 62 39 100.5t90 44.5q6 1 18 1q64 0 105.5 -37t41.5 -108q0 -77 -81 -145q63 -63 195 -177q8 14 22 44q2 4 6.5 16t8 19t9.5 16t14 13t18 4q21 0 41 -13t20 -33q0 -12 -9 -25q-38 -76 -56 -106l12 -10q13 -11 39 -35zM210 630v-5 q0 -12 10 -27.5t18.5 -24.5t28.5 -28q53 42 53 78q0 56 -55 56q-45 0 -55 -49zM286 112q105 0 187 108q-140 125 -216 202q-53 -43 -84.5 -86t-31.5 -94q0 -60 43.5 -94t101.5 -36z" />
<glyph unicode="'" horiz-adv-x="224" d="M111 747h8q45 -5 45 -54q0 -7 -4 -21q-3 -27 -3 -50q0 -9 1 -27.5t1 -28.5q0 -56 -44 -56q-23 0 -39 14.5t-16 48.5q0 48 3 96q1 16 2 25t5 23.5t14.5 22t26.5 7.5z" />
<glyph unicode="(" horiz-adv-x="336" d="M255 790q18 0 28 -15.5t10 -35.5v-3q0 -16 -7.5 -27t-23.5 -23.5t-21 -18.5q-53 -57 -76.5 -148t-23.5 -187q0 -101 28 -197.5t94 -152.5q1 -1 11 -8t12.5 -10t6.5 -11t4 -17q0 -21 -12.5 -36.5t-31.5 -17.5h-5q-28 0 -45 21q-80 67 -116.5 181.5t-36.5 242.5 q0 213 82 353q54 91 107 108q10 2 16 2z" />
<glyph unicode=")" horiz-adv-x="358" d="M90 787q24 0 55 -23q83 -62 123 -177.5t40 -243.5q0 -129 -41 -250t-132 -193q-31 -24 -53 -24q-18 0 -30 16.5t-12 38.5q0 33 26 43q33 19 65 62q86 116 86 301q0 105 -33.5 198.5t-108.5 147.5q-11 5 -20 24t-9 37q0 24 18 36q11 7 26 7z" />
<glyph unicode="*" horiz-adv-x="534" d="M356 529l71 -39q3 -2 13.5 -7.5t16 -9t13 -9.5t11 -13t3.5 -15q0 -21 -16 -36.5t-35 -15.5q-14 0 -42 13q-51 25 -95 51v-2l3 -75q1 -20 -10.5 -33.5t-34.5 -13.5q-22 0 -38 15t-16 50v40l-29 -22q-5 -3 -13.5 -10.5t-13.5 -11t-12.5 -7t-15.5 -3.5q-18 0 -36 12t-18 30 q0 30 30 55q33 27 66 51l-32 16q-2 1 -11.5 5.5t-13 6t-12.5 6.5t-12.5 8t-10 8t-9 10t-5 11.5t-2.5 13.5q0 16 10 32.5t26 18.5q2 0 4 0.5t4 0.5q12 0 24.5 -5.5t28.5 -15.5t24 -14l28 -15v59q0 78 48 78h7q45 -5 45 -53q0 -11 -0.5 -22.5t-1.5 -26t-1 -22.5q34 34 50 53 q21 28 34 34q13 7 31 7q17 0 33.5 -12t16.5 -28q0 -13 -15 -34q-51 -64 -102 -108z" />
<glyph unicode="+" horiz-adv-x="525" d="M428 435q20 0 33.5 -11.5t13.5 -34.5q0 -22 -15.5 -37.5t-47.5 -17.5q-70 -2 -104 -4v-104q0 -49 -40 -52h-5q-22 0 -38 14t-16 48v4l2 86l-79 -3q-4 0 -10 -0.5t-10 -0.5q-62 0 -62 49q0 46 49 50h12q19 0 28 -1q12 0 36 0.5t37 0.5l-1 79q-1 9 -1 28q0 42 25 57 q9 5 24 5q51 0 51 -54l-1 -10q-1 -15 -1 -46v-54l38 2l67 6q3 0 8 0.5t7 0.5z" />
<glyph unicode="," horiz-adv-x="215" d="M88 110q34 0 55.5 -37t21.5 -75q0 -5 -0.5 -12.5t-3 -26.5t-7 -34t-15 -28t-24.5 -14h-5q-23 0 -40 17t-17 39q0 12 8.5 31t8.5 29q0 4 -1 7t-6.5 13t-7 13.5t-3.5 12.5t-2 19q0 37 27 44q8 2 11 2z" />
<glyph unicode="-" horiz-adv-x="536" d="M430 347q46 0 46 -44q0 -57 -61 -57q-20 -1 -93.5 -2.5t-113.5 -4.5q-14 -1 -47 -7t-50 -6q-51 0 -51 48q0 49 54 53q44 4 139 8.5t145 9.5q20 2 32 2z" />
<glyph unicode="." horiz-adv-x="210" d="M101 102h3q37 0 52 -37q4 -8 4 -16q0 -20 -17 -40.5t-40 -20.5q-22 0 -37.5 18t-15.5 39q0 23 14 39.5t37 17.5z" />
<glyph unicode="/" horiz-adv-x="543" d="M428 784h4q18 -3 34 -17t17 -31v-4q0 -15 -8 -29q-8 -18 -30.5 -65.5t-33.5 -72.5q-46 -102 -224 -524l-21 -50q-15 -36 -29 -43q-8 -4 -17 -4q-20 0 -38 12.5t-20 22.5q-2 5 -2 11q0 15 8 25q49 105 99 220t116 271t95 223q0 1 3 8.5t4 9.5t4.5 8.5t5.5 9.5t6 7.5 t7.5 6.5t8.5 3.5t11 1.5z" />
<glyph unicode="0" horiz-adv-x="706" d="M648 500q18 -97 18 -161q0 -148 -73 -242q-39 -50 -99.5 -77t-126.5 -27q-81 0 -145.5 32t-103 85t-58.5 116.5t-20 131.5q0 81 22.5 156t75 140t127.5 92q49 17 98 17q95 0 163.5 -56.5t105.5 -150.5q5 -10 9 -22v-1q7 -19 7 -33zM365 87h15q67 5 111 42t61 87.5 t17 111.5q0 30 -6 84q-2 14 -9.5 51.5t-9.5 46.5q-21 66 -68.5 111t-113.5 45q-59 -2 -104.5 -31t-71.5 -75.5t-39 -98t-13 -104.5q0 -112 60 -191t171 -79z" />
<glyph unicode="1" horiz-adv-x="412" d="M300 751q20 -1 36 -13t16 -31q0 -7 -3 -16q-17 -322 -18 -402v-102q0 -17 -0.5 -50.5t-0.5 -50.5v-37q0 -23 -16.5 -44.5t-40.5 -21.5t-37 18.5t-13 42.5q0 2 3 50q7 125 21 491q-52 -50 -76 -77q-2 -3 -19.5 -27.5t-34.5 -40t-34 -17.5h-4q-19 0 -34 17.5t-15 34.5 q0 20 28 50q22 23 79 82t88 92q2 2 18.5 20t25.5 25q13 8 23 8q6 0 8 -1z" />
<glyph unicode="2" horiz-adv-x="631" d="M551 120q40 0 40 -49q0 -50 -65 -54l-48 -1q-32 -1 -98 -5q-81 -5 -130 -10t-82 -6l-46 -2q-7 -1 -20 -1q-22 0 -41 11t-19 35q0 21 13 37q2 12 5 21q37 137 171 231q19 13 59.5 39t62.5 42t49 39.5t39 48.5t12 53q0 115 -133 115q-47 0 -97 -16t-75 -53q-1 -1 -10 -19.5 t-18 -25t-26 -6.5q-54 0 -54 43q0 28 28 66q42 57 113 80.5t138 23.5q100 0 162.5 -53t62.5 -154q0 -26 -6.5 -50t-14.5 -42.5t-26 -40t-29.5 -34t-39 -33t-39 -28.5t-44 -29.5t-42.5 -28.5q-111 -76 -141 -172q90 2 355 24q5 0 15.5 2t18.5 2z" />
<glyph unicode="3" horiz-adv-x="678" d="M580 440q58 -55 58 -151q0 -91 -47 -159.5t-130 -105.5q-77 -35 -170 -35q-141 0 -220 69q-31 25 -31 45q0 16 17 32t41 16q21 0 38 -15q62 -55 151 -55q101 0 179.5 54t78.5 153q0 67 -45 97t-142 30q-25 0 -78.5 -6.5t-76.5 -6.5h-4q-3 0 -8.5 -0.5t-8.5 -0.5h-8 q-17 0 -26.5 13t-9.5 32q0 20 14.5 39t43.5 19l12 1q118 10 162 27q34 12 59 33.5t25 47.5q0 29 -32 43.5t-77 14.5q-100 0 -168 -47q-9 -6 -17.5 -13t-12.5 -10t-10 -5.5t-14 -2.5q-16 0 -34 13.5t-18 35.5q0 35 45 62t107 43q63 16 117 16q83 0 144 -38.5t61 -112.5 q0 -73 -59 -119q56 -17 94 -53z" />
<glyph unicode="4" horiz-adv-x="717" d="M667 261q0 -34 -23.5 -45t-70.5 -12q3 -41 8.5 -88t5.5 -65q0 -54 -48 -54q-19 0 -36 12.5t-17 33.5q0 2 0.5 4.5t0.5 4.5q0 60 -6 148q-22 -1 -77 -6.5t-112 -8.5q-8 0 -42 -3t-63 -5l-49 -3h-16t-14 -1q-25 0 -41.5 16t-16.5 41q0 30 29 40q3 4 10 11t10 11l36 39 q49 53 123 138t90 103l68 77l61 75q6 6 14 9q6 6 10 8q9 5 21 5q57 0 57 -59l-1 -47l-3 -103q-5 -158 -5 -191v-23v-20q5 1 49 4h7q41 0 41 -46zM324 280q58 3 154 13v8q0 21 2 83t2 85v101v5q-9 -9 -36.5 -38t-41.5 -45q-61 -63 -190 -217q20 0 110 5z" />
<glyph unicode="5" horiz-adv-x="694" d="M459 536q96 -26 145.5 -99t49.5 -159q0 -74 -38 -133t-98.5 -93t-126.5 -51t-131 -17q-41 0 -85 5.5t-83 22t-39 40.5q0 17 15.5 36.5t34.5 19.5q21 0 67 -15t89 -15q125 0 215 54.5t90 148.5q0 53 -21 90t-56.5 54t-67.5 23.5t-67 6.5q-93 0 -222 -38q-27 -9 -38 -9 q-25 0 -35 22q-15 16 -15 47v22l1 66q0 18 -2 58t-1 57q0 13 5 28q0 10 6 17q9 13 25 17q8 3 15 3h1q15 2 82.5 3.5t132.5 5.5q14 1 151 15l46 5q16 2 24 2q35 0 39 -39v-10q0 -8 -1.5 -14.5t-3 -11.5t-6 -8.5t-7 -6.5t-10 -5t-10.5 -3t-12 -2t-12 -1.5t-14 -1t-14 -0.5 l-48 -3q-9 -1 -113 -9.5t-176 -11.5q-1 -12 -2 -30.5t-2 -30t-1 -18.5q0 -13 4 -49q95 22 173 27q15 1 22 1q77 0 125 -13z" />
<glyph unicode="6" horiz-adv-x="680" d="M380 539q111 0 185.5 -74.5t74.5 -182.5q0 -68 -40 -132q-50 -79 -131 -123t-168 -44q-65 0 -116 25t-82 67t-47 93t-16 108q0 101 36 196.5t101 162.5q101 105 278 121q1 0 13.5 1t20.5 1q52 0 52 -43q0 -38 -28 -51q-8 -4 -20.5 -5t-35.5 -2t-40 -3q-80 -9 -140 -56 t-96 -119q10 7 25 13q101 47 174 47zM547 286v10q-5 64 -51 106q-45 41 -108 41h-10q-48 -1 -101.5 -21.5t-88.5 -51.5q-15 -14 -32 -36.5t-23 -27.5q-1 -10 -1 -31v-12q5 -111 67 -156q45 -33 106 -33q89 0 165.5 66t76.5 146z" />
<glyph unicode="7" horiz-adv-x="642" d="M586 757l5 -4q21 -18 21 -39q0 -11 -17 -50q-51 -112 -79 -179q-55 -130 -140 -346q-16 -38 -34 -87q-8 -21 -11.5 -30.5t-15 -21t-26.5 -11.5q-25 0 -42 15.5t-17 33.5q0 12 7 22q81 180 251 603q-248 -3 -337 -14q-42 -6 -60 -6q-51 0 -51 48q0 14 5 24t10.5 15.5 t19 8.5t18.5 4t23 1.5t19 0.5l193 6q156 8 197 11l19 2q8 2 12 2q16 0 30 -9z" />
<glyph unicode="8" horiz-adv-x="780" d="M565 476q43 -17 79 -40.5t66 -67t30 -95.5q0 -29 -7 -53q-16 -59 -59.5 -106.5t-99.5 -75.5t-116 -42.5t-117 -14.5q-147 0 -233 83q-68 66 -68 149q0 70 48 138q32 45 79 75q-20 12 -30 21q-52 44 -52 106q0 55 37.5 99.5t88 68t106.5 32.5q34 5 72 5t57 -8q3 1 11 1 q14 0 30 -5q61 -19 99.5 -61t38.5 -88q0 -40 -22 -76q-14 -25 -38 -45zM367 658q-38 0 -79 -9.5t-74.5 -34.5t-33.5 -60q0 -58 118 -65h11q44 0 93 11q47 11 88 36t41 56q0 26 -38 47q-12 7 -32.5 12t-21.5 5l-11 -1q-5 0 -25.5 1.5t-35.5 1.5zM347 72q66 0 134 23.5 t117 70.5t49 105q0 49 -46 80t-105 43l-9 2q-9 -2 -23 -2h-38q-181 0 -259 -100q-33 -42 -33 -82t34 -77q58 -63 179 -63z" />
<glyph unicode="9" horiz-adv-x="676" d="M373 754q68 0 120.5 -25.5t82.5 -68.5t45 -93t15 -105q0 -86 -26 -167q-47 -151 -161 -233.5t-259 -82.5q-52 0 -55 38v7q0 15 5 25.5t10 16.5t18 9t18.5 4t21.5 1.5t18 0.5q103 7 172 58q59 44 100 122q-95 -61 -201 -61q-115 0 -186 75.5t-71 183.5q0 132 129 226 q99 69 204 69zM293 295q67 0 131 35t98 94q5 9 11.5 26.5t10.5 24.5q-2 69 -28 114q-21 36 -60.5 55.5t-83.5 19.5q-84 0 -162 -61t-78 -146q0 -68 44.5 -115t116.5 -47z" />
<glyph unicode=":" horiz-adv-x="200" d="M104 478q37 0 49 -35q4 -9 4 -22q0 -36 -32 -47q-9 -4 -23 -4q-19 0 -33.5 10t-17.5 29q-1 4 -1 14q0 39 28 50q11 5 26 5zM101 102h3q37 0 52 -37q4 -8 4 -16q0 -20 -17 -40.5t-40 -20.5q-22 0 -37.5 18t-15.5 39q0 23 14 39.5t37 17.5z" />
<glyph unicode=";" horiz-adv-x="215" d="M104 478q37 0 49 -35q4 -9 4 -22q0 -36 -32 -47q-9 -4 -23 -4q-19 0 -33.5 10t-17.5 29q-1 4 -1 14q0 39 28 50q11 5 26 5zM88 110q34 0 55.5 -37t21.5 -75q0 -5 -0.5 -12.5t-3 -26.5t-7 -34t-15 -28t-24.5 -14h-5q-23 0 -40 17t-17 39q0 12 8.5 31t8.5 29q0 4 -1 7 t-6.5 13t-7 13.5t-3.5 12.5t-2 19q0 37 27 44q8 2 11 2z" />
<glyph unicode="&#x3c;" d="M604 3l-538 269v57l538 267v-63l-477 -231v-2l477 -234v-63z" />
<glyph unicode="=" horiz-adv-x="528" d="M411 531q46 0 46 -46q0 -49 -62 -54q-68 -5 -191 -13l-43 -3q-28 -2 -42 -2q-25 0 -42 12t-17 38q0 49 56 49h49q130 6 211 16q33 3 35 3zM413 290q25 0 40 -16t15 -40q0 -7 -2 -14.5t-17.5 -18.5t-42.5 -12q-25 -1 -90 -3t-100 -4q-9 -1 -37 -4.5t-43 -3.5 q-24 0 -42.5 17t-18.5 40q0 38 44 42l29 3q29 3 129 8l77 3q11 1 32 1q18 2 27 2z" />
<glyph unicode="&#x3e;" d="M66 596l538 -267v-57l-538 -269v63l476 233v2l-476 232v63z" />
<glyph unicode="?" horiz-adv-x="699" d="M510 780q57 -24 93 -76.5t36 -113.5q0 -92 -75.5 -155t-173.5 -86q-5 -1 -11.5 -2.5t-15 -3.5t-12.5 -3v-26q0 -5 2 -95q0 -48 -41 -48q-11 0 -22.5 3t-24 16t-12.5 34q0 4 1 12t1 12l1 42q0 19 -4 73v10v4q0 23 15 40.5t38 17.5h6q94 9 154 44q82 46 82 111 q0 44 -28 73.5t-63.5 40t-74.5 10.5q-104 0 -182 -42q-5 -2 -38.5 -26.5t-51.5 -24.5q-17 0 -33 16t-16 36q0 7 1.5 13t6.5 12t8 10t11.5 10t10.5 7.5t12 8.5l11 6q80 51 201 63q17 2 50 2q77 0 138 -25zM307 102h3q37 0 52 -37q4 -8 4 -16q0 -20 -17 -40.5t-40 -20.5 q-22 0 -37.5 18t-15.5 39q0 23 14 39.5t37 17.5z" />
<glyph unicode="@" horiz-adv-x="817" d="M687 107q19 0 34.5 -17t15.5 -37q0 -29 -27 -43q-134 -101 -289 -101t-263 108t-108 265q0 114 62 206.5t167 143.5q84 39 173 39q137 0 226 -93t89 -222q0 -94 -47 -152t-126 -58q-39 0 -65 18q-45 -36 -106 -36q-73 0 -122 50.5t-49 121.5q0 44 22.5 80t59.5 57 q41 23 87 23q41 0 84 -19q13 10 27 10q24 0 38 -18t14 -43q0 -8 -2 -25t-2 -26v-37v-9v-10.5t0.5 -10t1.5 -10.5t2.5 -8t4.5 -6t7 -2q64 0 73 100v14q0 92 -63 155.5t-158 63.5q-123 0 -215.5 -87t-92.5 -209q0 -119 81.5 -199.5t197.5 -80.5q115 0 214 74q37 30 54 30z M469 239q2 2 5 8.5t6 9.5q-5 26 -5 76v8q-23 22 -56 22q-28 0 -50.5 -17.5t-22.5 -45.5q0 -30 21.5 -53t51.5 -23h11q27 2 39 15z" />
<glyph unicode="A" horiz-adv-x="710" d="M633 152l18 -50q19 -52 19 -67q0 -19 -15 -30t-33 -12h-6q-16 0 -27.5 10t-16 20.5t-9.5 28.5l-31 100l-25 73q-112 -2 -168 -5l-105 -9l-22 -2q-45 -107 -59 -147q-2 -6 -7 -19t-8.5 -20.5t-9 -16t-14.5 -13t-20 -4.5q-27 0 -40.5 14t-13.5 34q0 21 10 35l61 147 q-11 13 -11 36q0 44 48 50q44 102 67 153q8 18 27 59t29.5 65t25 58.5t24.5 62.5l9 22q9 22 18.5 31.5t27.5 11.5q2 0 8 0.5t8 0.5q18 0 28 -10q14 -9 18 -32q43 -143 62 -199q33 -98 133 -376zM252 308q41 2 224 14l-11 31l-63 179l-23 62l-8 -18l-87 -194q-26 -60 -32 -74 z" />
<glyph unicode="B" horiz-adv-x="692" d="M502 477q69 -33 109.5 -94t40.5 -132q0 -100 -72 -171q-92 -89 -302 -89l-88 -1q-3 0 -2 -1h-10h-7q-11 -18 -39 -18q-27 0 -41.5 18t-14.5 35q0 6 2 10q-1 47 -2 189.5t-3 226.5q0 112 -9 208q-4 38 -4 60q0 16 2.5 25.5t13.5 16.5t31 7q26 0 38 -15q37 11 93 17 q63 7 125 7q100 0 161.5 -38.5t61.5 -122.5q0 -89 -84 -138zM265 673q-32 -4 -91 -15q-6 -2 -13 -2l2 -103l1 -57q69 9 139 12l30 5q74 17 117.5 40t43.5 60q0 13 -3.5 23t-15 21.5t-38 17.5t-66.5 6q-36 0 -106 -8zM487 128q72 46 72 124q0 80 -63.5 123t-160.5 43h-9 q-27 -5 -83 -10.5t-77 -8.5l3 -198q0 -22 2 -64l2 -37l1 -9h6q14 0 44 -1t46 -1h33q119 0 184 39z" />
<glyph unicode="C" horiz-adv-x="710" d="M468 780q25 0 52 -3.5t58 -11t50.5 -24t19.5 -38.5q0 -50 -54 -50q-12 0 -34 11q-35 17 -93 17q-143 0 -238 -99.5t-95 -240.5q0 -69 22 -122t58 -81.5t75 -42t79 -13.5q125 0 195 64q1 1 10 12t19 17t24 6q23 0 38.5 -12.5t15.5 -32.5q0 -23 -26 -51 q-101 -103 -272 -103q-150 0 -241 102.5t-91 248.5q0 130 65 240.5t183 165.5q90 41 180 41z" />
<glyph unicode="D" horiz-adv-x="717" d="M569 689q108 -105 108 -286v-9q0 -99 -30.5 -173.5t-77 -117t-112.5 -69t-125 -35t-127 -8.5q-35 0 -49 3q-13 -9 -37 -9h-4q-46 2 -46 43q0 36 2.5 110t2.5 111q0 92 -6.5 265.5t-7.5 202.5v17q0 51 30 59q8 2 14 2q33 0 49 -21q15 4 32 6q56 7 100 7q183 0 284 -98z M515 194q64 77 64 200q0 142 -71 218q-69 73 -215 73q-28 0 -86 -8q-4 -1 -19.5 -3.5t-23.5 -3.5v-7v-109l6 -241q4 -169 5 -215q7 0 22 -1.5t23 -1.5q212 0 295 99z" />
<glyph unicode="E" horiz-adv-x="651" d="M549 140q18 0 33.5 -17.5t15.5 -35.5q0 -21 -16 -34t-31 -16q-110 -48 -260 -48q-93 0 -148 25q-55 24 -69 94t-14 214q0 36 5 218q0 17 0.5 49.5t1 58.5t1.5 49v9q0 34 30 49q16 6 25 6q21 6 43 6h21q15 0 46.5 -1.5t47.5 -1.5q52 0 147.5 8.5t120.5 9.5h11 q24 0 37.5 -13t13.5 -35q0 -21 -13.5 -38t-34.5 -18q-4 0 -9 1q-33 -2 -205 -7q-32 -1 -93 -8t-91 -8q-1 -24 -3.5 -72t-3.5 -72q7 1 19 1h10q7 0 20.5 -0.5t20.5 -0.5h9q27 0 76.5 7t69.5 8q12 2 19 2q21 0 33.5 -14t12.5 -34q0 -26 -17 -39.5t-44 -13.5q-159 -15 -224 -15 l-8 1q-1 -34 -1 -102v-36q0 -112 19 -168q7 -22 109 -22q85 0 154 17l51 15q7 2 20 8t23.5 10t18.5 4z" />
<glyph unicode="F" horiz-adv-x="633" d="M550 783q23 0 38 -16.5t15 -42.5q0 -19 -11 -31t-32 -16t-34.5 -5t-34.5 -1h-5h-10q-7 0 -21 0.5t-21 0.5q-65 0 -98 -2q-14 -1 -75.5 -5t-93.5 -5v-144l9 1l50 3q70 4 152 12q3 0 15.5 2t18.5 2q22 0 33 -13t11 -34q0 -28 -17 -41t-39 -14l-58 -2q-86 -2 -106 -4 q-12 -1 -34 -6t-35 -6v-82q0 -47 1.5 -138.5t1.5 -137.5q0 -58 -46 -58q-30 0 -45.5 18t-15.5 40q0 8 1 12q7 273 7 351q0 168 -9 252q-2 22 -2 33q0 60 56 60h7q4 0 10 -2q48 -2 71 -2h28q114 0 276 19q18 2 42 2z" />
<glyph unicode="G" horiz-adv-x="771" d="M731 408q0 -18 -10 -31v-2q-10 -129 -35 -196q-36 -94 -116.5 -146t-179.5 -52q-142 0 -244 98.5t-106 238.5v13q0 125 53.5 235t154.5 170q99 59 195 59q42 0 90 -15q89 -29 89 -68v-3q-4 -51 -47 -51q-11 0 -19 2.5t-19.5 8.5t-15.5 8q-42 18 -85 18q-44 0 -83 -16 q-106 -37 -162.5 -133.5t-56.5 -215.5q0 -110 75 -180.5t179 -70.5q93 0 154 57q59 55 74 173q2 15 4 45l-136 -9q-8 0 -42.5 -3.5t-53.5 -3.5q-20 0 -35 17.5t-15 37.5q0 17 8.5 28t26.5 14.5t29 4.5t32 1h7h50q9 0 92 8q9 1 45 6t56 5q24 0 35.5 -15.5t11.5 -36.5z" />
<glyph unicode="H" horiz-adv-x="701" d="M623 457l1 -26q1 -24 2 -139t7 -176l5 -49v-10q0 -43 -43 -43q-29 0 -43.5 17t-14.5 37v5q-4 71 -4 148q0 11 0.5 35t0.5 35q0 104 -1 157q-306 -15 -366 -20q-5 -164 -4 -212l2 -165q0 -53 -53 -53q-20 2 -34 17t-14 36q0 56 2 120t5.5 142.5t4.5 121.5q-21 19 -21 45 q0 24 23 35v52q0 78 -6 131q0 3 -0.5 9t-0.5 8q0 44 36 52q5 1 15 1q13 0 23 -4.5t14.5 -10.5t7.5 -18t4 -19.5t1.5 -22t0.5 -20.5v-53l-3 -94l77 2q50 2 145 9.5t138 9.5q-4 87 -11 150q-2 20 -2 34q0 27 13 39q11 11 35 11q33 0 44 -24.5t11 -69.5q0 -8 -0.5 -23.5 t-0.5 -22.5l2 -96q25 -11 25 -45q0 -29 -23 -43z" />
<glyph unicode="I" horiz-adv-x="414" d="M303 105h18q23 0 38 -15t15 -38q0 -18 -13.5 -29.5t-25 -14t-19.5 -2.5h-7q-25 -2 -73 -2q-11 -4 -25 -4q-11 0 -19 3l-84 -6q-26 0 -43.5 17t-17.5 44q1 8 3 14t5.5 10t6.5 6.5t9 4t8.5 2t10.5 1t10 0.5l58 4q0 12 2 36q6 210 6 314v210l-48 -1h-13q-65 0 -65 54 q5 45 53 45q6 0 20 -1t21 -1q71 0 140 6q4 0 19.5 2t23.5 2q51 0 51 -47q0 -20 -16 -36.5t-48 -17.5l-39 -1q-4 -93 -6 -265t-4 -243v-51h48z" />
<glyph unicode="J" horiz-adv-x="649" d="M580 767h8q27 -5 31 -42v-8q0 -23 -15.5 -37t-42.5 -15l-38 -1h-4l2 -55q0 -15 0.5 -50.5t0.5 -58.5q0 -18 -0.5 -54.5t-0.5 -55.5l-1 -113q0 -40 -1 -60q-5 -98 -69 -165t-166 -67q-92 0 -152 57.5t-70 147.5q0 30 10.5 44.5t35.5 14.5q54 0 54 -46q0 -56 36 -91t90 -35 q75 0 108.5 48.5t32.5 118.5l-1 107q-3 197 -4 227q0 12 -5 82l-52 -3h-14q-28 0 -44 16.5t-16 41.5q0 43 57 43q11 0 43.5 -1.5t47.5 -1.5q45 0 66 6l45 3q27 3 28 3z" />
<glyph unicode="K" horiz-adv-x="670" d="M487 193l71 -62q2 -1 12.5 -9.5t16 -12.5t15.5 -13t15 -15t9 -14.5t4 -15.5q0 -20 -15.5 -36.5t-33.5 -16.5q-22 0 -48 24q-127 111 -305 282l-65 62q8 -277 8 -314v-5q0 -21 -12.5 -34.5t-38.5 -13.5q-18 0 -34 9t-16 32q0 28 2 84.5t2 84.5v53q0 73 -7 218t-7 216 q0 53 43 53h7q50 -5 50 -58v-23q0 -11 -1 -47.5t0 -56.5v-41q27 18 75.5 48t78.5 49.5t69 48t69 56.5q17 16 38 26q12 7 24 7q17 0 31.5 -18t14.5 -36q0 -7 -2.5 -13.5t-5.5 -11t-10 -10.5t-10 -8.5t-11.5 -8.5t-10.5 -7q-21 -14 -106.5 -72.5t-131.5 -91.5l-50 -36 q125 -129 266 -252z" />
<glyph unicode="L" horiz-adv-x="675" d="M579 124q23 0 39.5 -16t16.5 -40q0 -43 -77 -46q-221 -9 -286 -16q-104 -11 -116 -11q-9 0 -13 1q-12 -2 -19 -2q-21 0 -38.5 13t-17.5 42q0 49 1.5 148t1.5 149q0 199 -6 305q0 7 -2.5 27.5t-2.5 31.5q0 34 12 46q12 13 34 13q24 0 36.5 -13.5t15 -27t3.5 -39.5 q0 -361 7 -594h2q59 5 375 26q33 3 34 3z" />
<glyph unicode="M" horiz-adv-x="970" d="M918 95q12 -45 12 -51q0 -37 -46 -41h-5q-8 0 -14.5 1.5t-12 5t-9.5 6t-7 10t-5 10t-4 12t-2.5 11t-2.5 12.5l-2 11l-27 102q-11 39 -32.5 111.5t-28.5 95.5q-28 96 -41 145q-74 -234 -162 -447q-7 -17 -10 -23t-10 -16t-17 -13.5t-24 -3.5q-22 0 -34 12.5t-12 31.5 q0 5 2 15q-3 7 -5 15t-4.5 17t-3.5 14q-39 155 -97 342l-16 51q-85 -238 -131 -397l-15 -51q-1 -3 -3.5 -13.5t-3.5 -15t-4 -14t-5.5 -14t-7 -11t-9 -9.5t-11 -5.5t-13.5 -2.5q-23 0 -39 15t-16 36q0 10 5 22q20 62 62.5 189t74 226t56.5 191q3 10 8 23q-4 12 -4 26 q0 9 3 16q10 24 45 24q46 0 55 -47q5 -10 5 -22q57 -214 112 -395l21 -70q76 183 136 406q2 8 6.5 27.5t8 33t8.5 29.5t11 26.5t13 14.5q10 7 23 7q25 0 40.5 -14.5t15.5 -37.5v-4q2 -6 2 -12q13 -68 47 -202q20 -76 64 -214.5t60 -196.5z" />
<glyph unicode="N" horiz-adv-x="757" d="M643 759q26 0 40 -16t14 -40q0 -19 -2 -63l-6 -194q-1 -48 -2.5 -145t-3.5 -145v-73q0 -26 -7 -39q-11 -33 -44 -33q-14 0 -27.5 8t-19.5 15t-18 23l-96 123q-99 127 -305 373q-6 -372 -6 -463v-48q-2 -22 -19.5 -35t-36.5 -13q-23 0 -33.5 17.5t-10.5 39.5l5 108 q3 62 5 187q0 32 -0.5 95t-0.5 95l-1 127q0 24 7 36l6 9q18 23 45 23q30 0 45 -29q205 -265 417 -508q12 262 12 393q0 18 -2 55t-2 56q0 24 8 41q10 20 39 20z" />
<glyph unicode="O" horiz-adv-x="831" d="M650 723q141 -98 141 -280v-7q-1 -116 -57 -221t-154 -171.5t-213 -66.5q-100 0 -176 55t-113.5 139t-37.5 180q0 93 33.5 179.5t102 154t160.5 90.5q45 12 93 12q19 0 50 -3t78 -15t69 -31q14 -4 24 -15zM593 183q100 109 100 257q0 120 -83 188q-4 4 -9 7.5t-11.5 7.5 t-9.5 6q-1 1 -3.5 2t-3.5 1q-73 35 -147 35q-130 0 -212 -101t-82 -237q0 -114 67.5 -195.5t167.5 -81.5q62 0 121 30.5t105 80.5z" />
<glyph unicode="P" horiz-adv-x="690" d="M415 765q62 0 112.5 -15t86.5 -55t36 -101q0 -52 -17 -93q-24 -58 -70 -98t-110 -60.5t-116.5 -29t-125.5 -13.5q-42 -3 -43 -3h-2q7 -135 7 -230v-14q0 -53 -52 -53q-17 0 -32.5 13t-15.5 30v18q0 143 -1 215q-1 47 -6 164.5t-5 181.5q0 8 -0.5 24.5t-0.5 23.5 q0 37 10 58t40 28q3 1 8 1q22 0 36 -23q18 5 43 9l54 9q24 4 108 11q9 0 27.5 1t28.5 1zM373 415q75 17 130.5 61t55.5 113q0 28 -13 46t-37 25t-45 9.5t-51 2.5h-21q-87 -4 -203 -32q-17 -5 -29 -5q-4 -60 -4 -87q0 -9 0.5 -27t0.5 -27q2 -64 4 -96h7q2 0 5 -0.5t4 -0.5 q132 4 196 18z" />
<glyph unicode="Q" horiz-adv-x="821" d="M436 772h19q38 -2 92 -15q63 -16 85 -35q15 -7 38.5 -28.5t52 -59t48.5 -97t20 -127.5q0 -155 -85 -270l22 -23q3 -4 16.5 -16.5t20 -20t13 -18.5t6.5 -19q0 -21 -18.5 -38t-36.5 -17q-5 0 -9.5 1t-9.5 4.5t-8.5 6.5t-10.5 11t-12.5 14.5t-17 20.5t-20.5 25 q-99 -85 -234 -85q-149 0 -258 109t-109 252q0 146 93 270q116 155 303 155zM429 674q-64 0 -120.5 -29.5t-94 -76.5t-59 -105t-21.5 -115q0 -107 80.5 -187t188.5 -80q93 0 174 61l-12 13q-17 18 -60.5 63.5t-66.5 70.5q-35 38 -35 57t19 32.5t38 13.5q10 0 18 -4 t11.5 -7.5t11.5 -13t10 -12.5l31 -37q28 -34 59 -68l37 -40q49 67 55 183v15q0 66 -25.5 125t-77.5 97q-1 1 -6.5 5t-7.5 6h-1q-4 1 -21 8t-26 10q-48 15 -99 15z" />
<glyph unicode="R" horiz-adv-x="701" d="M419 775q47 0 85.5 -9.5t72 -30.5t52 -59.5t18.5 -91.5q0 -52 -26 -93.5t-64 -66t-87.5 -41t-89 -23t-76.5 -8.5q32 -24 115.5 -91t129.5 -100l72 -51q2 -2 8 -6t9 -6.5t8 -7t7.5 -8t5 -9t2.5 -10.5v-3q0 -21 -19 -36t-37 -15q-16 0 -39 18q-24 18 -139.5 112t-178.5 136 q-17 11 -38.5 24.5t-32 20.5t-16.5 13v-22l10 -219q0 -4 0.5 -15.5t0.5 -17.5q0 -26 -12 -43t-36 -17q-22 0 -38 14t-16 34q0 3 2 11l-1 212q-1 86 -6 232t-5 173q0 92 58 92q23 0 39 -24l100 18q82 14 162 14zM415 681q-74 0 -229 -35q-14 -2 -22 -2l-1 -23q-4 -70 -4 -105 v-69q13 0 39.5 -1t40.5 -1q316 0 316 144q0 31 -12.5 51t-36 28t-43 10.5t-48.5 2.5z" />
<glyph unicode="S" horiz-adv-x="742" d="M371 779q204 0 204 -72q0 -20 -18 -33.5t-43 -13.5q-4 0 -8 1t-11.5 3.5t-15.5 4.5q-53 14 -115 14q-39 0 -75.5 -5t-72 -17t-57 -35.5t-21.5 -55.5q0 -25 16 -40.5t48 -22t59 -8.5t69 -2h45q152 0 225 -46q56 -35 79 -90.5t23 -104.5q0 -71 -34.5 -126.5t-90 -87.5 t-118.5 -48.5t-128 -16.5q-187 0 -264 99q-27 34 -27 60q0 16 13 26t33 10q39 0 62 -38l4 -4q53 -55 179 -55q120 0 199 50q77 49 77 133q0 33 -16 65.5t-48 50.5q-34 20 -94 25q-38 4 -108 4.5t-102 3.5q-196 18 -196 165q0 43 18 78t49 57.5t63.5 36.5t70.5 23 q55 12 127 12z" />
<glyph unicode="T" horiz-adv-x="683" d="M606 779q26 0 41.5 -12.5t15.5 -36.5l-1 -7q-2 -19 -16 -31.5t-40 -12.5q-107 0 -215 -3v-4q0 -64 -4 -191t-4 -191q0 -43 2 -127q0 -16 3 -51.5t3 -54.5q0 -57 -48 -57q-23 0 -37.5 14.5t-14.5 41.5v57q0 59 1 176.5t1 175.5q0 33 -1 99t-1 101v7q-113 -8 -163 -13 q-48 -4 -51 -4q-25 0 -41 15.5t-16 40.5q0 22 17 36t42 16h184q46 0 133 4.5t102 5.5l66 3z" />
<glyph unicode="U" horiz-adv-x="734" d="M612 776q18 0 35.5 -15.5t17.5 -39.5v-3q19 -143 19 -262v-21q-2 -68 -10.5 -128t-30 -123.5t-55 -108.5t-89 -74t-126.5 -29q-77 0 -136.5 34.5t-94 86.5t-56 124t-29 137.5t-7.5 135.5l2 141l4 63q2 60 43 60q50 0 57 -43v-13q0 -9 -2 -25.5t-2 -21.5l-7 -160 q0 -102 15 -184q45 -243 213 -243q171 0 208 252q8 56 8 127q0 35 -2 71.5t-4.5 65.5t-6 56.5t-6.5 45t-5 30.5l-2 14v6q0 21 15.5 32.5t33.5 11.5z" />
<glyph unicode="V" horiz-adv-x="696" d="M601 770q26 0 40.5 -15.5t14.5 -37.5q0 -15 -6 -24l-174 -557l-27 -88q-9 -28 -22.5 -38t-36.5 -10q-24 0 -43 11.5t-24 33.5q-20 46 -74 174t-93 216.5t-79 168.5q-2 4 -12.5 22t-16.5 33t-8 31q0 17 17 30.5t37 13.5q9 0 16.5 -3.5t12.5 -8t10.5 -13.5t8 -13.5t7.5 -16 t6 -13.5q28 -61 92.5 -213.5t101.5 -230.5l32 -68q71 211 132 425l41 142q10 29 13 33q12 16 34 16z" />
<glyph unicode="W" horiz-adv-x="964" d="M868 768q20 0 38 -10.5t18 -31.5q0 -10 -4 -19q-81 -317 -133 -617l-4 -20t-6 -23.5t-8 -19.5t-13 -16.5t-19 -5.5q-29 0 -47 21q-4 2 -7.5 5t-5.5 8t-3.5 7.5t-3.5 11t-3 10.5q-25 69 -70 200t-53 155l-45 129q-21 -80 -63 -242l-45 -176q-2 -9 -10 -42t-13 -50v-2 q-1 -7 -6 -15q-12 -21 -44 -24h-7q-25 0 -36 20q-8 13 -11 30q-112 333 -136 400q-49 129 -58 150q-3 7 -8.5 19t-8.5 19t-6.5 16t-5 17t-1.5 16q0 12 6.5 20.5t13 12t18.5 7.5q10 2 14 2q10 0 18 -4t13.5 -8.5t11 -16t8 -18t8 -23t8.5 -23.5q17 -48 48 -135t56.5 -158.5 t48.5 -135.5q43 156 113 455l9 38q6 25 15 37.5t29 12.5h4q24 0 39 -15q23 -8 37 -51l30 -98q17 -56 36.5 -112.5t52 -144t40.5 -110.5q27 113 101 489q7 35 14 44q12 15 36 15z" />
<glyph unicode="X" horiz-adv-x="658" d="M560 773q19 0 35 -12t16 -30q0 -27 -26 -53q-136 -184 -199 -279l-8 -12l148 -193q7 -9 26.5 -33t31.5 -39t23 -34t11 -29q0 -20 -18 -34t-33 -14q-35 0 -50 31l-195 263q-111 -161 -175 -262q-2 -4 -8 -14.5t-9.5 -15t-11 -9.5t-16.5 -5q-22 0 -39 16t-17 37q0 19 21 48 l28 40q118 169 168 244l-23 31q-82 112 -134 180l-37 50q-2 3 -9 12t-10 13t-6.5 12t-3.5 15q0 21 14.5 38.5t32.5 17.5q19 0 29 -8t25 -30l36 -53l70 -98l72 -98l173 254q20 30 26 36q19 17 42 17z" />
<glyph unicode="Y" horiz-adv-x="667" d="M577 780q17 0 33.5 -11.5t16.5 -36.5q0 -18 -24.5 -50.5t-111.5 -134.5q-21 -24 -33 -38q-7 -9 -18 -25t-16 -22q-4 -5 -11 -12l-2 -94v-293q0 -72 -58 -72q-43 0 -43 55q0 4 0.5 10t0.5 8q8 160 8 225q0 41 -4 153q-6 3 -16 11q-33 29 -91.5 80t-87.5 76l-40 35 q-40 35 -40 62q0 12 7 22q18 26 43 26q21 0 47 -28q18 -19 41 -40q106 -94 136 -118l39 -32q5 7 173 207q1 1 4.5 6.5t7.5 10t10 9.5t13.5 8t15.5 3z" />
<glyph unicode="Z" horiz-adv-x="694" d="M562 767q5 0 17 -2l6 -3q17 -2 27.5 -14t10.5 -26q0 -20 -26 -53q-84 -111 -199 -278l-208 -303h2q114 0 212 7l155 10q5 0 14 1t16.5 1.5t14.5 0.5h7q20 -1 31.5 -15t11.5 -36q0 -23 -17 -36t-40 -13l-463 -19l-10 1q-8 -5 -18 -5h-7q-20 4 -34.5 19t-14.5 34l1 8 q1 8 17 34l240 344l166 242q-52 -1 -154 -7l-172 -12q-6 0 -18 -1t-18 -1q-52 0 -52 45q0 57 62 57q4 0 13 -0.5t14 -0.5h11q124 0 221 8l160 12q3 0 10 0.5t11 0.5z" />
<glyph unicode="[" horiz-adv-x="346" d="M206 32h17q53 0 53 -43v-5q-1 -20 -14 -37t-33 -17q-6 0 -24.5 3t-28.5 3h-6l-10 -3q-4 0 -15 -1.5t-16 -1.5q-23 2 -40 15t-17 36q0 21 10 31q-3 287 -16 550l-3 97q-3 84 -3 86q0 32 13 45q10 8 26 10q8 2 13 2q4 1 13 1q5 0 14.5 -2t14.5 -2h27q7 0 22 1t23 1h8 q52 0 52 -52q0 -23 -20 -35t-43 -12h-5q-16 1 -45 1h-13v-130q0 -56 2 -118t5.5 -138.5t4.5 -117.5l7 -167h27z" />
<glyph unicode="\" horiz-adv-x="543" d="M111 784h4q7 0 13.5 -3t10.5 -6t8.5 -10.5t6.5 -11t6 -13t5 -11.5q30 -70 95 -224t115.5 -269.5t99.5 -220.5q8 -10 8 -25q0 -19 -18.5 -32.5t-41.5 -13.5q-13 0 -22.5 8.5t-13 15.5t-10.5 23l-21 50q-161 383 -266 615q-2 5 -9 18t-10.5 20.5t-7 18.5t-3.5 19v4 q1 17 17 31t34 17z" />
<glyph unicode="]" horiz-adv-x="369" d="M303 353q0 -53 3 -175t3 -185v-10q0 -17 -15 -32q-13 -20 -46 -20q-8 0 -22 2t-21 2q-13 0 -38 -1t-37 -1q-44 0 -49 41v8q0 24 17.5 37t43.5 13h5q17 -1 49 -1h13q2 80 2 120v49q0 95 -12 503q-9 0 -27.5 -0.5t-27.5 -0.5h-25q-59 0 -59 42q0 27 18 43t36 16 q7 0 25.5 -3t29.5 -3q9 0 25 2t22 2q27 3 28 3q22 0 40.5 -14.5t18.5 -37.5q0 -12 -5 -22q2 -72 3 -203.5t2 -173.5z" />
<glyph unicode="^" horiz-adv-x="493" d="M358 600q9 -9 33.5 -29t38 -37t13.5 -34q0 -7 -2 -10q-2 -4 -7.5 -15.5t-8.5 -16t-10 -9.5t-16 -5q-15 0 -30 11l-8 7q-13 11 -25.5 22.5t-25.5 25t-20.5 22t-22 26t-20.5 23.5q-58 -60 -97 -109q-22 -28 -49 -28q-17 0 -34 14.5t-17 31.5q0 11 6.5 23t13 19.5t18.5 19.5 l16 16l33 36q22 24 66 74q23 25 37 27h4q30 0 46 -27q13 -11 36 -39.5t32 -38.5z" />
<glyph unicode="_" horiz-adv-x="567" d="M480 3q22 0 34.5 -12t12.5 -30q0 -22 -15 -41t-36 -19q-7 0 -11 1q-26 -2 -112.5 -2.5t-164.5 -4.5q-15 -1 -47 -7t-51 -6q-50 0 -50 50v8q4 39 54 43q32 3 130 5t129 5q32 2 94 8q20 2 33 2z" />
<glyph unicode="`" horiz-adv-x="332" d="M93 801q9 0 17 -3.5t13 -7.5t13 -11.5t12 -10.5q12 -10 34 -29.5t34 -28.5l30 -25q36 -30 36 -49q0 -20 -18.5 -34t-37.5 -14q-27 0 -42 20q-10 13 -61 56q-5 4 -22 16.5t-25.5 20t-17 21t-8.5 27.5q0 13 7 27.5t19 20.5q8 4 17 4z" />
<glyph unicode="a" horiz-adv-x="609" d="M546 108q0 -13 11.5 -28t11.5 -24q0 -26 -18 -42t-36 -16q-29 0 -52 46q-76 -54 -173 -54q-101 0 -175.5 68.5t-74.5 181.5q0 89 51 160q41 57 105 87t131 30q65 0 129 -29q7 26 27 36q16 8 34 8q15 0 24.5 -10t12 -20t2.5 -19q0 -6 -2 -17t-2 -12q-10 -64 -10 -197 q0 -16 2 -75.5t2 -73.5zM289 83q48 0 91.5 22t61.5 62l2 4t1.5 3.5t2 4t2.5 4.5v162v20q-2 2 -6.5 5.5t-6.5 5.5q-46 42 -119 42q-75 0 -131.5 -51t-56.5 -133q0 -57 41 -104t118 -47z" />
<glyph unicode="b" horiz-adv-x="601" d="M321 525q104 -4 172 -79.5t68 -179.5q0 -114 -79 -191q-47 -46 -109.5 -69.5t-114.5 -23.5q-24 0 -61 7q-31 6 -53 15q-11 -8 -28 -8q-22 0 -39 12.5t-17 39.5q0 10 4 14q3 24 3 101q0 52 1 67.5t1 36.5v61q0 98 -1 147l-7 259q-2 35 9 53q13 21 40 21q58 0 58 -74 q0 -13 -1.5 -41t-1.5 -37l-3 -156v-7q28 12 58 20q44 12 101 12zM263 77q79 0 142.5 55.5t63.5 132.5q0 68 -43.5 116t-114.5 48q-36 0 -65.5 -9.5t-55 -24t-30.5 -16.5v-31v-55q0 -29 2.5 -96.5t2.5 -92.5v-1q4 -2 17 -7.5t21.5 -9t24.5 -6.5t35 -3z" />
<glyph unicode="c" horiz-adv-x="572" d="M346 537q61 0 112 -21.5t51 -55.5q0 -19 -17 -33.5t-41 -14.5q-11 0 -40.5 14.5t-68.5 14.5q-82 0 -146.5 -58.5t-64.5 -148.5q0 -61 41.5 -103.5t115.5 -42.5t121 47q8 8 18 22t14 18q15 15 45 15q21 -1 33.5 -12.5t12.5 -30.5q0 -16 -15 -37q-40 -55 -98.5 -85.5 t-126.5 -30.5q-104 0 -178 68t-74 177q0 122 89.5 210t216.5 88z" />
<glyph unicode="d" horiz-adv-x="599" d="M528 254l1 -132q0 -46 7 -74q2 -6 2 -13q0 -16 -15.5 -29t-34.5 -15h-7q-25 0 -39 26q-68 -40 -145 -40q-94 0 -162 50q-95 71 -95 206q0 102 53 175.5t143 104.5q51 18 107 18q52 0 93 -12v212q0 32 11 47q20 28 55 28q37 0 37 -46q0 -4 -3 -28q-7 -145 -7 -337zM289 70 q26 0 49 6.5t34.5 13t32 20.5t26.5 18l2 2q3 228 3 267v8q-6 1 -41 12.5t-66 11.5q-97 0 -148 -60t-51 -135q0 -76 45 -121q43 -43 114 -43z" />
<glyph unicode="e" horiz-adv-x="590" d="M550 286q0 -14 -6 -26q-7 -15 -22 -23q-13 -7 -64 -10q-104 -6 -163.5 -10t-74 -5t-30 -3t-35.5 -3l-23 -1q11 -56 53.5 -87.5t99.5 -31.5q42 0 72 15q10 5 24.5 16t25.5 17.5t21 6.5q18 0 41.5 -16t23.5 -37q0 -26 -27 -44q-77 -57 -176 -57q-95 0 -167 62 q-83 71 -83 185q0 98 59.5 182.5t153.5 109.5q38 10 68 10q56 0 102.5 -29t72.5 -70.5t40 -81.5t14 -69zM139 306h55q140 0 238 16l4 1q-27 120 -125 120q-52 0 -102.5 -36.5t-69.5 -100.5z" />
<glyph unicode="f" horiz-adv-x="480" d="M423 773q47 -35 47 -74q0 -21 -16.5 -33.5t-34.5 -12.5q-7 0 -13.5 2t-12 6.5t-8.5 7.5t-8 9t-6 7q-23 27 -64 27q-21 0 -37.5 -7.5t-25.5 -18t-15.5 -27t-9 -27.5t-4.5 -27q-6 -45 -6 -79v-16q51 3 108 11q27 5 35 5q44 0 44 -48q0 -27 -15 -39.5t-46 -14.5l-126 -9 q1 -101 4 -195t4 -129t0 -35q0 -64 -49 -64q-22 0 -37 14.5t-15 37.5q0 8 1 13q-2 234 -2 351h-13q-62 0 -62 49q0 51 53 51l22 -1q0 40 2.5 70.5t10 68t20.5 64.5t37.5 51t57.5 36q29 11 64 11q70 0 116 -35z" />
<glyph unicode="g" horiz-adv-x="589" d="M527 443v-200q0 -72 2 -218v-55q0 -45 -16 -86q-28 -72 -81 -110.5t-122 -38.5q-60 0 -111 21q-41 16 -73.5 53.5t-32.5 77.5q0 38 54 38q25 0 38 -24q21 -42 52 -58q28 -15 66 -15q40 0 73.5 21t48.5 60q11 29 11 94v25q-66 -37 -142 -37q-102 0 -178 67t-76 185 q0 99 57 171t143 101q42 14 85 14q66 0 122 -26q12 11 33 11q24 0 36.5 -17t12.5 -37q0 -5 -2 -17zM423 144l11 11v9q-1 64 -2 95.5t-1 37.5v23t-1 49l-1 25q-8 3 -29.5 13t-41 16t-40.5 6q-24 0 -52.5 -9t-60.5 -28t-53 -59t-21 -93q0 -78 48.5 -116.5t113.5 -38.5 q40 0 69 13.5t61 45.5z" />
<glyph unicode="h" horiz-adv-x="581" d="M524 301q7 -52 7 -145v-62q0 -55 -9.5 -74t-45.5 -19q-19 0 -33 14.5t-14 39.5q0 22 2 66t2 64q0 130 -23 191q-22 59 -80 59q-65 0 -118 -36q-25 -17 -52 -54q0 -62 1 -93l3 -103q0 -14 0.5 -44t1.5 -44q0 -69 -47 -69q-20 0 -37 15.5t-17 34.5q0 40 2 141.5t2 196.5 v8.5t-0.5 23.5t-0.5 42q0 11 -4 128t-4 145q0 37 5 48q12 32 48 32q31 0 42 -20t11 -60q0 -4 -1.5 -46t-3 -100.5t-1.5 -99.5q77 48 168 48q166 0 196 -228z" />
<glyph unicode="i" horiz-adv-x="237" d="M124 749q37 0 49 -35q4 -9 4 -22q0 -36 -32 -47q-9 -4 -23 -4q-19 0 -33.5 10t-17.5 29q-1 4 -1 14q0 39 28 50q11 5 26 5zM122 525q20 0 32 -15t12 -40q0 -11 -1 -16l-3 -204q-1 -24 -1 -73v-80q-1 -11 -1 -32v-13q1 -3 1 -11q0 -20 -12.5 -30.5t-29.5 -10.5h-6 q-27 0 -40 16t-13 39q0 2 3 35l3 47q3 51 3 104v28q0 33 -2 94t-2 80v13q0 35 15 51q15 18 42 18z" />
<glyph unicode="j" horiz-adv-x="306" d="M186 755q37 0 49 -35q4 -9 4 -22q0 -36 -32 -47q-9 -4 -23 -4q-19 0 -33.5 10t-17.5 29q-1 4 -1 14q0 39 28 50q11 5 26 5zM189 525q18 0 29 -6.5t15.5 -21.5t6 -25t2.5 -31q4 -125 4 -282q0 -23 -0.5 -70.5t-0.5 -71.5q0 -114 -35 -183q-23 -45 -62.5 -71.5t-89.5 -29.5 h-10q-54 0 -88 16q-46 21 -78 68.5t-32 99.5q0 41 38 41q23 0 41 -12.5t18 -30.5q9 -39 34.5 -63.5t66.5 -24.5q25 0 44 9.5t30 28.5t18 37t10 46.5t3.5 45t0.5 43.5v35q0 194 -7 317q-6 78 -6 80q0 31 13 44q10 10 35 12z" />
<glyph unicode="k" horiz-adv-x="540" d="M458 116q3 -2 13 -10t14.5 -12t11.5 -10.5t10.5 -13t4.5 -12.5v-6q0 -21 -20 -35.5t-39 -14.5q-23 0 -39 20q-27 24 -78.5 71.5t-93.5 84.5t-83 68l3 -91l3 -56q1 -9 2.5 -27.5t1.5 -28.5q0 -20 -14 -30t-34 -10h-8q-46 1 -46 67v103q0 89 -3.5 268t-3.5 269v8 q0 54 41 67q9 3 19 3q21 0 31 -18t10 -39v-9q-4 -92 -4 -283v-58q10 6 39 22.5t43 25t36.5 22.5t40 27t32.5 27q18 16 36 26q16 9 30 9q18 0 31 -18.5t13 -34.5q0 -18 -9 -28t-34 -26q-29 -19 -84 -53.5t-78 -49.5l-27 -18q112 -96 232 -196z" />
<glyph unicode="l" horiz-adv-x="227" d="M115 808q21 0 33 -17.5t12 -34.5l-1 -164q0 -76 1 -142l5 -232q1 -48 1.5 -69.5t0.5 -36.5v-63q0 -47 -52 -47q-20 0 -34 15t-14 37q0 9 1 13v53q0 42 0.5 118.5t0.5 114.5q0 177 -7 343l-2 51v8q0 16 7 27q6 10 21 18t27 8z" />
<glyph unicode="m" horiz-adv-x="784" d="M708 382q10 -61 18 -162t8 -150q0 -32 -9.5 -48.5t-41.5 -16.5q-51 0 -51 45l1 32q1 31 1 62q0 73 -4 120l-7 89q-4 48 -23 68t-58 20q-43 0 -63.5 -20.5t-34.5 -57.5q-7 -16 -8 -18q5 -46 9 -282l1 -10q2 -10 2 -18q0 -44 -46 -44q-29 0 -42 12.5t-13 30.5q0 21 1 51.5 t1 55.5q0 67 -3 136l-2 54q0 40 -19 68.5t-62 28.5q-25 0 -50.5 -12.5t-39.5 -35.5q-3 -5 -8.5 -18t-9.5 -18l-1 -69q0 -71 2 -124.5t3.5 -81t1.5 -35.5q0 -55 -46 -55q-26 0 -40.5 14.5t-14.5 38.5q0 7 1 11v422q0 8 -0.5 17.5t-0.5 11.5q0 18 13.5 34t40.5 18h3 q20 0 32 -17.5t12 -31.5q29 15 76 22q16 2 28 2q75 0 123 -56q18 21 39 36q48 34 114 34q45 0 76.5 -12t49.5 -35.5t26.5 -47t14.5 -58.5z" />
<glyph unicode="n" horiz-adv-x="567" d="M504 261l2 -106q0 -13 0.5 -38.5t0.5 -38.5v-25q0 -57 -39 -57q-28 0 -45 18.5t-17 37.5q0 5 2 12q2 106 2 161v114q-4 51 -28 73t-70 22q-72 0 -111 -47q-7 -8 -17.5 -24t-15.5 -22q-4 -45 -5 -75v-101l-2 -104v-10q0 -10 -0.5 -12t-1.5 -11t-2 -12t-3.5 -10t-6 -9.5 t-8.5 -6.5t-11.5 -5.5t-14.5 -1.5q-53 0 -53 60q6 72 6 105q7 119 7 135q0 25 -5.5 85.5t-5.5 90.5q0 24 6 36q13 29 54 29q33 0 45 -41q25 16 44 24q49 19 101 19q58 0 100 -24q20 -11 35 -24.5t24.5 -31t15.5 -30.5t9 -37t4.5 -35.5t2 -41.5t1.5 -41z" />
<glyph unicode="o" horiz-adv-x="596" d="M550 314v-1q6 -20 6 -58q0 -63 -14 -104q-24 -72 -96 -119t-154 -47h-11q-102 3 -170 78q-71 77 -71 193q0 83 45.5 156t130.5 105q42 16 88 16q61 0 113 -26q49 -25 91 -82t42 -111zM413 125q45 41 45 114q0 13 -4 35t-4 35q-14 67 -57 99t-90 32q-71 0 -121.5 -53.5 t-50.5 -132.5q0 -72 41 -124t111 -52q79 0 130 47z" />
<glyph unicode="p" horiz-adv-x="601" d="M308 524q55 0 100 -17t72.5 -43.5t46.5 -60t26.5 -65t7.5 -61.5q0 -113 -83 -192t-212 -79q-59 0 -104 19l1 -85q0 -20 0.5 -59t0.5 -59q0 -24 -1 -37t-5.5 -27.5t-15 -20.5t-27.5 -6q-27 0 -39.5 17.5t-12.5 37.5v5q7 123 7 210v53q0 1 -3 160l-6 207q-1 23 -1 40 q0 28 14 45q16 19 40 19q35 0 48 -34q34 15 62 22q44 11 84 11zM268 100q95 0 148.5 50.5t53.5 127.5q0 59 -39.5 103t-111.5 44q-65 0 -118 -30q-9 -5 -37 -29v-2q-4 -72 -4 -104v-107v-6l6 -6q39 -41 102 -41z" />
<glyph unicode="q" horiz-adv-x="587" d="M527 461l-3 -106q-6 -198 -6 -298q0 -67 3.5 -143t3.5 -130q0 -55 -52 -55q-24 0 -36.5 18t-12.5 36q0 6 1 9q-3 79 -3 158l1 67q-38 -19 -106 -26l-1 -1q-2 0 -3.5 -0.5t-6.5 -1t-12 -0.5q-106 0 -180 75.5t-74 175.5q0 98 59 161.5t144 90.5q48 15 98 15q42 0 90 -12 q2 10 8 16q14 15 44 15q44 0 44 -64zM412 142q10 12 14 14q0 17 1.5 77t1.5 87l-1 58q-3 1 -6 3t-7 4.5t-6 3.5q-34 20 -87 20q-78 0 -137 -47t-59 -125q0 -66 46.5 -109.5t110.5 -43.5q35 0 71 15.5t58 42.5z" />
<glyph unicode="r" horiz-adv-x="489" d="M348 513q35 -6 73.5 -25.5t38.5 -48.5q0 -23 -17.5 -37t-38.5 -14q-24 0 -38 15q-34 20 -72 20q-47 0 -79.5 -25.5t-44.5 -68.5q-6 -22 -11 -29v-12v-19q0 -41 3 -85l4 -106q0 -4 0.5 -12.5t0.5 -13.5q0 -22 -12 -37t-36 -15q-19 0 -36 11.5t-17 35.5q0 3 0.5 5.5 t0.5 4.5v127q0 14 0.5 41.5t0.5 43.5q0 33 -4 103l-3 52q0 4 -0.5 13.5t-0.5 17.5q0 15 3 25q13 45 54 45q3 0 13 -3q34 -10 37 -46q63 40 140 40q27 0 41 -3z" />
<glyph unicode="s" horiz-adv-x="560" d="M286 532q142 0 142 -62q0 -22 -19.5 -35t-36.5 -13q-11 0 -27 6q-29 7 -64 7q-54 0 -94.5 -16t-40.5 -43q0 -6 3 -10.5t9 -8t13 -6t17.5 -4t19 -2.5t22 -1t22 -0.5t22.5 -0.5h21q30 -1 53.5 -3t58 -12t57 -25.5t39.5 -46.5t17 -73q0 -62 -41 -107.5t-100 -66t-126 -20.5 q-75 0 -132 29q-31 16 -51 38t-20 40q0 15 15.5 27.5t35.5 12.5q14 0 26 -5.5t22.5 -14t12.5 -9.5q40 -23 96 -23q23 0 48.5 4t54.5 14t47.5 31t18.5 50q0 23 -11.5 37.5t-34 20.5t-42 8t-48.5 2q-43 0 -72.5 2t-63.5 9t-54.5 20.5t-34.5 38t-14 58.5q0 61 50 101 q65 52 184 52z" />
<glyph unicode="t" horiz-adv-x="421" d="M326 520q30 0 47.5 -14.5t17.5 -42.5q0 -20 -14.5 -32t-38.5 -12q-7 0 -17 2h-75h-3l2 -116q0 -62 6 -214l2 -50q0 -31 -10.5 -43t-30.5 -12q-30 0 -45 17t-15 38q0 44 1 101.5t1 86.5q0 83 -2 187l-33 -4q-48 -6 -55 -6q-34 0 -34 49q0 20 5.5 31t21 16t31.5 6.5t49 1.5 h10q-7 89 -7 109q0 30 22 41q9 5 26 5q33 0 44 -25t11 -68q0 -10 -0.5 -29t-0.5 -28q57 5 84 5z" />
<glyph unicode="u" horiz-adv-x="567" d="M501 94q0 -3 3 -24t3 -30q0 -48 -50 -48q-21 0 -35 12q-9 9 -14 33q-64 -42 -154 -42q-95 0 -144 70q-6 8 -11 17.5t-8.5 17t-6.5 18.5t-5 17t-4 19t-2.5 18.5t-1.5 21t-1.5 19.5t-1 22t-0.5 22l-7 195q0 4 -0.5 10.5t-0.5 9.5q0 10 5 19q11 19 36 19q23 0 39.5 -13.5 t19.5 -35.5v-36l-1 -155q0 -57 8 -100q9 -47 28.5 -64t58.5 -17q74 0 126 52l21 21l1 1v303q0 23 4 37.5t11.5 20t13 7t14.5 1.5q59 0 59 -54q0 -7 -2 -13q-8 -142 -8 -230v-25q0 -60 7 -116z" />
<glyph unicode="v" horiz-adv-x="594" d="M499 535q22 0 38.5 -16t16.5 -37q0 -15 -8 -26q-17 -37 -34 -72t-53 -112q-22 -47 -90 -224l-1 -2q1 -2 1 -6q0 -15 -17 -30.5t-40 -15.5q-11 0 -21 5q-28 9 -32 40l-8 15l-33 62l-78 139q-7 13 -33 59t-40 71l-18 33q-9 16 -9 31q0 38 37 53q7 3 14 3q16 0 30.5 -15 t20.5 -34q74 -152 161 -300q62 125 79 166l38 92q36 87 39 92q15 29 40 29z" />
<glyph unicode="w" horiz-adv-x="814" d="M721 532q21 0 37 -14t16 -38q0 -12 -5 -21q-6 -18 -17 -53t-15 -47q-49 -154 -56 -183l-23 -96q-5 -19 -10 -31l1 -8q0 -22 -20 -34.5t-40 -12.5q-27 0 -35 24q-10 13 -11 29q-45 116 -125 297q-5 -12 -13 -33t-15 -39l-14 -36l-52 -141q-12 -32 -18 -46l1 -8 q0 -20 -15.5 -33t-36.5 -13h-4q-8 0 -19 6q-26 6 -30 32v8v6q-4 12 -9.5 26t-12.5 31.5t-11 26.5l-33 92q-5 12 -37 85l-42 89q-17 39 -17 65q0 24 18 40q13 11 31 11q15 0 27.5 -9.5t23 -30t15.5 -34t13.5 -40.5t9.5 -31q20 -59 71 -179l5 -12q32 80 67 178q31 88 42 126v1 q0 17 9 26q5 12 10.5 15t16.5 4h6q7 0 17 -2q9 -1 15.5 -4t10.5 -6t9 -12.5t7 -14t7.5 -19.5t7.5 -21l18 -47q36 -94 89 -210q18 49 29 83t17 60t6 27l27 98q1 3 3.5 13.5t4 15.5t5 13.5t8 14t10.5 9.5q10 7 25 7z" />
<glyph unicode="x" horiz-adv-x="533" d="M400 181l58 -67q2 -2 6.5 -7t6 -7t5 -6t5.5 -6.5t4 -6.5t3 -7t2 -6.5t1 -7.5q0 -19 -12.5 -33.5t-37.5 -14.5q-29 0 -46 22q-58 73 -132 164q-26 -42 -39 -64l-52 -86q-29 -47 -69 -47q-20 0 -32.5 15.5t-12.5 33.5q0 19 24 53q25 36 53.5 75t42.5 59.5t24 34.5 q-31 38 -55 63q-36 39 -50 54t-18 20q-1 1 -15 14.5t-20.5 25t-6.5 25.5q0 20 15 36q16 18 39 18q28 0 62 -43q14 -18 46.5 -60t56.5 -72l47 75l47 75q13 22 24 32t28 10q23 0 38 -17t15 -36q0 -16 -14 -32q-84 -120 -125 -180q8 -9 36.5 -43t47.5 -56z" />
<glyph unicode="y" horiz-adv-x="562" d="M464 531q26 0 42 -13t16 -38q0 -13 -15 -49l-78 -190q-88 -212 -149 -388q-10 -28 -16.5 -47.5t-8.5 -26.5t-3 -9q-5 -14 -8.5 -21.5t-13 -15.5t-22.5 -8q-21 0 -38.5 15.5t-17.5 40.5q0 15 8 28q31 86 89 231l-1 3q-17 30 -37 68t-31 58q-35 64 -65.5 118.5t-47.5 84.5 l-18 33q-9 16 -9 28v4q0 23 16.5 39t33.5 16q13 0 28.5 -12t23.5 -37q74 -151 154 -287q91 232 99 253l17 48q1 2 5 13.5t5 15t5 12t7 12.5t7.5 9t9.5 8q7 4 13 4z" />
<glyph unicode="z" horiz-adv-x="547" d="M468 120q18 0 28.5 -14.5t10.5 -37.5q0 -24 -17.5 -36.5t-37.5 -14.5t-56 -2q-72 0 -158 -7t-107 -7h-15h-5q-7 -6 -16 -6q-22 0 -38.5 17.5t-16.5 38.5q0 15 9 29q4 7 22 29t38.5 47t25.5 31l191 243h-7q-156 -7 -180 -10h-4h-19q-31 0 -47 16t-16 41q0 18 13 31t43 13 q2 0 41 -1t57 -1q23 0 65 2q23 1 81.5 7.5t69.5 6.5q6 0 14 -2q23 -1 37 -13.5t14 -30.5q0 -25 -29 -51q-129 -149 -268 -332l-3 -5l86 1l75 5q14 1 43.5 4t52 6t23.5 3z" />
<glyph unicode="{" horiz-adv-x="353" d="M250 30q28 -6 40.5 -19t12.5 -37q0 -21 -15 -33.5t-35 -12.5q-10 0 -19 3q-28 7 -46.5 19t-28 24t-14.5 33.5t-5.5 34t-0.5 38.5v11v72q0 136 -8 136l-17 4q-24 5 -43 21t-19 39q-2 10 -2 15q0 10 4 18q10 21 30.5 29t36 11t15.5 14v6l-1 4v13q0 20 -1 31q0 16 1.5 48 t1.5 48q0 8 -1 24t-1 25q0 52 27 96.5t75 58.5l21 3q19 0 28.5 -12t9.5 -28v-6q0 -10 -2 -18t-8 -14.5t-9.5 -10t-13 -9.5t-13.5 -9q-18 -14 -22 -40v-52q0 -14 -1 -44t-1 -44q0 -12 1.5 -35.5t1.5 -36.5q0 -11 -2 -33q-3 -21 -22 -40q27 -28 27 -83q0 -15 -1.5 -44.5 t-1.5 -44.5q0 -35 4 -105l3 -50q0 -9 2.5 -12t11.5 -6z" />
<glyph unicode="|" horiz-adv-x="292" d="M175 -296h-58v1185h58v-1185z" />
<glyph unicode="}" horiz-adv-x="358" d="M308 376q0 -11 -5 -24q-7 -27 -43 -40q-5 -1 -19 -8.5t-18 -7.5q-5 -5 -5 -46q1 -17 1 -52v-51q0 -13 0.5 -40.5t0.5 -41.5v-29q0 -49 -16 -71q-15 -21 -44 -34t-54 -13q-39 0 -44 39v6q0 20 14 38.5t36 18.5l10 3v2q0 5 1 22.5t1 18.5v55q0 8 1 33t0 39v31q0 7 -0.5 23 t-0.5 24q0 21 3 40q3 25 26 49q-29 28 -29 89q0 9 0.5 26t0.5 26q0 15 -2 44t-2 43v50q-4 36 -28 51q-43 26 -43 70q0 25 24 32q11 3 20 3q24 0 51 -20q66 -48 70 -123v-10q0 -7 -0.5 -21t-0.5 -21q0 -14 1.5 -44t1.5 -45v-48l-1 -6v-9q0 -18 5 -18h1q9 -4 34 -8t38.5 -13.5 t13.5 -31.5z" />
<glyph unicode="~" d="M576 356l35 -33q-63 -104 -152 -104q-24 0 -48 7.5t-38.5 14.5t-52.5 27q-72 37 -110 37q-63 0 -121 -83l-36 32q28 49 71 77t93 28q16 0 31 -3t30.5 -9t24 -10.5t25 -13.5t20.5 -11t16.5 -9t16.5 -9t14.5 -6.5t16 -6t14.5 -4t17.5 -3.5t17.5 -1q35 0 61.5 20t53.5 63z " />
<glyph unicode="&#xa1;" horiz-adv-x="245" d="M111 544h3q37 0 52 -37q4 -8 4 -16q0 -20 -17 -40.5t-40 -20.5q-22 0 -37.5 18t-15.5 39q0 23 14 39.5t37 17.5zM123 388q51 0 51 -56v-18q0 -16 -0.5 -48.5t-0.5 -48.5q0 -243 11 -384q0 -3 0.5 -10t0.5 -10q0 -25 -16.5 -39t-41.5 -14q-43 0 -43 67v25q-1 17 -1.5 52.5 t-0.5 52.5v175q0 33 -4.5 104.5t-4.5 109.5q0 15 9 25.5t20 13.5q9 3 21 3z" />
<glyph unicode="&#xa4;" horiz-adv-x="706" d="M599 147l-42 -39l-75 86q-55 -47 -131 -47q-79 0 -131 44l-73 -83l-42 39l77 79q-54 66 -54 155q0 41 15 83t40 69l-78 78l42 39l74 -84q52 48 130 48q81 0 134 -47l74 83l40 -39l-77 -77q25 -27 40 -69.5t15 -83.5q0 -40 -16.5 -83t-41.5 -70zM352 558h-1 q-66 0 -111.5 -50t-45.5 -127q0 -79 45.5 -128.5t112.5 -49.5q66 0 112.5 50t46.5 128q0 77 -46.5 127t-112.5 50z" />
<glyph unicode="&#xa5;" d="M420 434l-9 -10l-1 -10q8 1 23 2.5t23 2.5q5 0 20.5 2t24.5 2q20 0 34 -16.5t14 -36.5q0 -22 -19.5 -34t-39.5 -14q-3 0 -83 -9l-2 -52q56 6 85 6q44 0 53 -5q25 -15 25 -42t-19.5 -40t-40.5 -13h-6q-12 3 -33 3q-30 0 -65 -5q0 -17 2.5 -62t2.5 -69q0 -23 -17 -43.5 t-39 -20.5q-24 0 -37.5 19.5t-13.5 46.5q0 39 6 117l-86 -8q-4 -1 -13 -1q-24 0 -41.5 15t-17.5 38q0 22 14 34.5t34 12.5h17q27 0 83 4l15 2v54l-27 -4q-78 -12 -80 -12q-23 0 -41 15t-18 38q0 15 4 24.5t13 13.5t16 6t21.5 3t19.5 2l91 14v4q-10 5 -20 14q-6 6 -85.5 81.5 t-123.5 110.5q-1 0 -7.5 6t-7.5 6.5t-6.5 5.5t-7 7.5t-5 7.5t-4.5 9l-2.5 10t-2.5 12v4q0 16 11.5 31.5t29.5 18.5h4q8 0 14.5 -3.5t16.5 -12t11 -9.5q25 -19 55.5 -45.5t46.5 -41.5t55 -52.5t46 -44.5q6 -5 20 -17q122 130 182 220q16 22 26 27q6 3 13 3q18 0 36.5 -16.5 t18.5 -36.5q0 -7 -2 -14t-6.5 -14.5t-7.5 -11t-10 -12t-9 -10.5l-48 -56q-18 -21 -50.5 -62t-46.5 -58z" />
<glyph unicode="&#xa6;" horiz-adv-x="292" d="M174 385h-57v414h57v-414zM174 -207h-57v414h57v-414z" />
<glyph unicode="&#xa7;" horiz-adv-x="634" d="M579 240v-1q0 -122 -96.5 -231.5t-221.5 -131.5q-29 0 -69.5 10.5t-61.5 31.5q-21 20 -21 36q0 22 31 40q9 5 18 3q32 -36 62 -55.5t75 -19.5q39 0 72 27.5t33 61.5q0 32 -19.5 54.5t-81.5 66.5q-8 6 -59 40.5t-74 52.5q-115 83 -115 203q0 64 33.5 125t83.5 106 q56 50 93.5 71.5t102.5 31.5q89 0 130 -44q16 -17 16 -30q0 -12 -10 -23.5t-21 -16.5q-9 -7 -21 5q-52 67 -127 67q-34 0 -65 -21t-31 -66q0 -43 58 -87q28 -20 85 -57t78 -51q123 -83 123 -198zM104 472v-2q0 -62 30.5 -106.5t98.5 -91.5q27 -20 67.5 -48.5t66.5 -47 t39 -29.5q54 -46 50 -114l3 -1q66 73 66 150q0 63 -26.5 104.5t-98.5 93.5q-21 16 -81 55t-74 50q-74 56 -64 136l-5 1q-28 -23 -50 -64.5t-22 -85.5z" />
<glyph unicode="&#xa8;" horiz-adv-x="459" d="M363 724q37 0 49 -35q4 -9 4 -22q0 -36 -32 -47q-9 -4 -23 -4q-19 0 -33.5 10t-17.5 29q-1 4 -1 14q0 39 28 50q11 5 26 5zM101 705h3q37 0 52 -37q4 -8 4 -16q0 -20 -17 -40.5t-40 -20.5q-22 0 -37.5 18t-15.5 39q0 23 14 39.5t37 17.5z" />
<glyph unicode="&#xaa;" horiz-adv-x="514" d="M445 492q9 -63 9 -82t-16 -28.5t-33 -9.5q-14 0 -24 5q-59 -31 -115 -31q-82 0 -144 54.5t-62 134.5q0 81 65 143t144 72q16 2 30 2q26 0 50 -10q17 19 48 19q21 0 30 -17.5t9 -37.5q0 -4 -0.5 -9t-0.5 -6v-50q0 -84 10 -149zM262 440q48 0 84 36l3 4q-2 58 -3 64 q-1 18 -4.5 48t-5.5 56q-7 0 -22 2t-25 2q-57 0 -96.5 -38t-39.5 -80q0 -41 33.5 -67.5t75.5 -26.5z" />
<glyph unicode="&#xab;" horiz-adv-x="645" d="M294 188q4 -3 19.5 -15t21.5 -18t13 -19.5t7 -28.5q0 -18 -14 -34.5t-31 -16.5q-10 0 -31 16q-141 122 -154 134l-39 36q-26 22 -26 45v6q1 13 10 25q7 14 18 25q88 90 132 134l9.5 9.5l10.5 10.5t10 9t12 9t11.5 6.5t13.5 4.5q3 1 10 1q16 0 32 -16t16 -35 q0 -11 -5.5 -19.5t-19 -20t-14.5 -12.5l-18 -17q-64 -60 -102 -102l-9 -11q7 -6 50 -46.5t67 -59.5zM524 185q4 -3 19.5 -15t21.5 -18t13 -19.5t7 -28.5q0 -18 -14 -34.5t-31 -16.5q-10 0 -31 16q-141 122 -154 134l-39 36q-26 22 -26 45v6q1 13 10 25q7 14 18 25 q88 90 132 134l9.5 9.5l10.5 10.5t10 9t12 9t11.5 6.5t13.5 4.5q3 1 10 1q16 0 32 -16t16 -35q0 -11 -5.5 -19.5t-19 -20t-14.5 -12.5l-18 -17q-64 -60 -102 -102l-9 -11q7 -6 50 -46.5t67 -59.5z" />
<glyph unicode="&#xac;" d="M606 117h-58v266h-489v56h547v-322z" />
<glyph unicode="&#xad;" horiz-adv-x="536" d="M430 347q46 0 46 -44q0 -57 -61 -57q-20 -1 -93.5 -2.5t-113.5 -4.5q-14 -1 -47 -7t-50 -6q-51 0 -51 48q0 49 54 53q44 4 139 8.5t145 9.5q20 2 32 2z" />
<glyph unicode="&#xaf;" horiz-adv-x="454" d="M286 706h56q49 0 53 -37q0 -29 -17 -45.5t-37 -16.5h-11q-6 2 -20 2h-46q-4 -1 -12.5 -1.5t-12.5 -0.5q-22 -1 -74.5 -6.5t-63.5 -5.5h-5q-21 0 -36.5 14t-18.5 38q0 48 69 48h7z" />
<glyph unicode="&#xb0;" horiz-adv-x="408" d="M197 756h1q66 0 109.5 -46t43.5 -113q0 -72 -44 -114.5t-110 -42.5q-64 0 -108.5 42.5t-44.5 114.5q0 70 45 114.5t108 44.5zM196 714h-1q-43 0 -70.5 -31.5t-27.5 -84.5q0 -51 28.5 -84.5t73.5 -33.5q46 0 73 32t27 84q0 51 -26.5 84.5t-76.5 33.5z" />
<glyph unicode="&#xb1;" d="M605 353h-243v-242h-59v242h-244v56h244v228h59v-228h243v-56zM606 -1h-547v55h547v-55z" />
<glyph unicode="&#xb2;" horiz-adv-x="430" d="M294 626h11q45 0 45 -44q0 -24 -17 -40t-36 -16q-4 0 -11.5 1t-13.5 1q-33 0 -86.5 -6t-82.5 -6h-5q-16 0 -36.5 12t-20.5 32q0 19 6 31v3q0 25 18 57t42 52q15 13 52.5 33.5t60.5 38t23 36.5q0 38 -45 38q-10 0 -33 -5q-11 -3 -31.5 -18t-35.5 -15h-7q-21 0 -36 9.5 t-15 27.5q0 47 67 78q41 16 86 16q59 0 97 -31q44 -36 44 -101q0 -67 -75 -119q-9 -6 -33 -20.5t-40 -27t-26 -26.5q94 7 134 9z" />
<glyph unicode="&#xb3;" horiz-adv-x="415" d="M304 797q51 -35 51 -100q0 -76 -61.5 -123t-140.5 -47q-14 0 -21 1q-92 7 -92 52q0 21 21 37t44 16q10 0 29 -4.5t29 -4.5h4q36 0 65 17.5t29 51.5v5q0 24 -29 24q-6 0 -18 -2q-37 -14 -70 -14q-38 0 -40 42q-2 10 -2 16q0 40 61 48l26 4q1 0 3.5 1t3.5 1l5 1q6 3 13 11 t7 10q0 7 -19 10q-21 0 -56.5 -10.5t-52.5 -10.5q-21 0 -32.5 17.5t-11.5 37.5q0 52 111 57q20 2 32 2q47 0 84.5 -28.5t37.5 -71.5q0 -23 -10 -46z" />
<glyph unicode="&#xb4;" horiz-adv-x="321" d="M227 778q19 0 31.5 -17t12.5 -37q0 -9 -9 -24t-21 -19q-31 -14 -85 -75q-2 -2 -9 -9.5t-10.5 -11.5t-9.5 -9t-12 -8.5t-13 -4.5h-5q-18 0 -32.5 16t-14.5 33q0 29 25 52l72 67q3 3 11.5 10.5t12.5 11t12 9.5t14 8.5t14 5t16 2.5z" />
<glyph unicode="&#xb6;" horiz-adv-x="591" d="M560 629l-39 -21l-89 -12v-567q0 -146 -86 -228q-26 -24 -64.5 -39.5t-53.5 -15.5q-49 0 -82 29q-23 18 -14 38q9 22 30 33q9 5 17 -3q16 -18 41.5 -30.5t47.5 -12.5q47 0 82 48.5t35 163.5v162l-93 -36q-12 -7 -28 -7q-74 0 -144 69t-70 176q0 60 23.5 113t62.5 86 q78 69 179 69h242z" />
<glyph unicode="&#xb7;" horiz-adv-x="207" d="M104 428q37 0 49 -35q4 -9 4 -22q0 -36 -32 -47q-9 -4 -23 -4q-19 0 -33.5 10t-17.5 29q-1 4 -1 14q0 39 28 50q11 5 26 5z" />
<glyph unicode="&#xb8;" horiz-adv-x="334" d="M174 -27v-2q48 -6 79 -35t31 -75q0 -60 -53 -96.5t-116 -36.5h-9q-22 3 -39 14t-17 30q0 21 15.5 38.5t37.5 17.5q9 0 14 -1h5q17 0 42 8t25 25q0 14 -31 14h-6q-4 0 -15.5 -2t-17.5 -2q-22 1 -35 27q-9 11 -9 27v65q0 23 2 36.5t12 26.5t30 16q4 1 12 1q10 0 17.5 -3 t16.5 -23t9 -58v-12z" />
<glyph unicode="&#xb9;" horiz-adv-x="320" d="M186 961q54 0 54 -62v-5q-1 -63 -5 -194l-3 -87q-1 -18 -2 -28t-4.5 -27.5t-13 -26t-24.5 -8.5h-6q-51 0 -51 47v5q0 1 3 34l3 55q4 92 5 139q-4 -4 -4 -7q-37 -40 -59 -40q-18 0 -33.5 17t-15.5 36q0 17 13 32.5t33.5 31.5t27.5 24q30 37 46 48q10 16 36 16z" />
<glyph unicode="&#xba;" horiz-adv-x="548" d="M362 770q60 -21 93 -69.5t33 -108.5q0 -83 -62 -144.5t-146 -66.5h-12q-82 0 -145 59.5t-63 142.5q0 74 62 132.5t138 68.5q9 1 29 1q43 0 73 -15zM268 471q48 0 87.5 34t39.5 82q0 23 -11 47q-13 26 -38 36h-8q-11 0 -29 5t-33 5q-41 0 -81.5 -31.5t-40.5 -71.5 q0 -36 33 -71t81 -35z" />
<glyph unicode="&#xbb;" horiz-adv-x="664" d="M363 284q0 -8 -2 -15t-8.5 -14.5t-9 -10.5t-13.5 -12l-10 -9q-95 -83 -116 -103q-2 -2 -16 -15t-19.5 -18t-16.5 -13t-20.5 -11.5t-18.5 -3.5q-18 0 -35.5 13t-17.5 32q0 35 71 81q39 25 116 102l-7 8q-33 37 -122 120q-13 12 -17.5 16.5t-11 16t-7.5 23.5v3 q0 20 13.5 36t33.5 16q9 0 17.5 -4t13 -8.5t12.5 -13.5t11 -12q51 -52 103 -103l46 -45q31 -29 31 -47v-4v-5zM604 293v-4v-5q0 -8 -2 -15t-8.5 -14.5t-9 -10.5t-12.5 -12l-11 -9q-95 -83 -116 -103q-2 -2 -16 -15t-19.5 -18t-16.5 -13t-20.5 -11.5t-18.5 -3.5 q-18 0 -35.5 13t-17.5 32q0 35 71 81q39 25 116 102l-7 8q-33 37 -122 120q-13 12 -17.5 16.5t-11 16t-7.5 23.5v3q0 20 13.5 36t33.5 16q9 0 17.5 -4t13 -8.5t12.5 -13.5t11 -12q51 -52 103 -103l46 -45q31 -29 31 -47z" />
<glyph unicode="&#xbc;" horiz-adv-x="838" d="M158 618q-37 -40 -59 -40q-18 0 -33.5 17t-15.5 36q0 17 13 32.5t33.5 31.5t27.5 24q30 37 46 48q10 16 36 16q54 0 54 -62v-5q-1 -63 -5 -194l-3 -87q-1 -18 -2 -28t-4.5 -27.5t-13 -26t-24.5 -8.5h-6q-51 0 -51 47v5q0 1 3 34l3 55q4 92 5 139q-4 -4 -4 -7zM733 698 q0 -22 -20 -39q-255 -293 -506 -613q-21 -29 -38 -42t-41 -13q-19 0 -32.5 14t-13.5 34q0 22 21 47l69 80q180 202 449 537q1 2 5 7t6 8t6.5 7.5t7 7.5t7 6.5t8.5 5t8.5 3t9.5 1.5q24 0 39 -16t15 -35zM779 144q0 -34 -27 -48q6 -44 6 -65q0 -39 -53 -39q-17 0 -28 8 t-15.5 22t-6 25.5t-1.5 26.5v6v2q-16 -1 -45.5 -4t-53.5 -5t-45 -3h-9q-26 0 -42.5 15.5t-16.5 40.5q-2 8 -2 12q0 13 7 26.5t14.5 22t22.5 23t21 20.5q10 10 100 120q3 4 12 15.5t14 17.5t13 14t16 11.5t16 3.5h2q10 -2 21 -6q21 0 33 -16t12 -41q0 -2 -0.5 -6t-0.5 -6 q0 -7 0.5 -22t0.5 -23v-47q0 -9 -0.5 -28t-0.5 -28q36 -3 36 -45zM577 169h7q28 0 66 7v49q0 18 -1 26q-49 -54 -72 -82z" />
<glyph unicode="&#xbd;" horiz-adv-x="884" d="M158 618q-37 -40 -59 -40q-18 0 -33.5 17t-15.5 36q0 17 13 32.5t33.5 31.5t27.5 24q30 37 46 48q10 16 36 16q54 0 54 -62v-5q-1 -63 -5 -194l-3 -87q-1 -18 -2 -28t-4.5 -27.5t-13 -26t-24.5 -8.5h-6q-51 0 -51 47v5q0 1 3 34l3 55q4 92 5 139q-4 -4 -4 -7zM743 698 q0 -22 -20 -39q-255 -293 -506 -613q-21 -29 -38 -42t-41 -13q-19 0 -32.5 14t-13.5 34q0 22 21 47l69 80q180 202 449 537q1 2 5 7t6 8t6.5 7.5t7 7.5t7 6.5t8.5 5t8.5 3t9.5 1.5q24 0 39 -16t15 -35zM768 96h11q45 0 45 -44q0 -24 -17 -40t-36 -16q-4 0 -11.5 1t-13.5 1 q-33 0 -86.5 -6t-82.5 -6h-5q-16 0 -36.5 12t-20.5 32q0 19 6 31v3q0 25 18 57t42 52q15 13 52.5 33.5t60.5 38t23 36.5q0 38 -45 38q-10 0 -33 -5q-11 -3 -31.5 -18t-35.5 -15h-7q-21 0 -36 9.5t-15 27.5q0 47 67 78q41 16 86 16q59 0 97 -31q44 -36 44 -101 q0 -66 -75 -119q-9 -6 -33 -20.5t-40 -27t-26 -26.5q94 7 134 9z" />
<glyph unicode="&#xbe;" horiz-adv-x="873" d="M163 367q-14 0 -21 1q-92 7 -92 52q0 21 21 37t44 16q10 0 29 -4.5t29 -4.5h4q36 0 65 17.5t29 51.5v5q0 24 -29 24q-6 0 -18 -2q-37 -14 -70 -14q-38 0 -40 42q-2 10 -2 16q0 40 61 48l26 4q1 0 3.5 1t3.5 1l5 1q6 3 13 11t7 10q0 7 -19 10q-21 0 -56.5 -10.5 t-52.5 -10.5q-21 0 -32.5 17.5t-11.5 37.5q0 52 111 57q20 2 32 2q47 0 84.5 -28.5t37.5 -71.5q0 -23 -10 -46q51 -35 51 -100q0 -76 -61.5 -123t-140.5 -47zM733 698q0 -22 -20 -39q-255 -293 -506 -613q-21 -29 -38 -42t-41 -13q-19 0 -32.5 14t-13.5 34q0 22 21 47l69 80 q180 202 449 537q1 2 5 7t6 8t6.5 7.5t7 7.5t7 6.5t8.5 5t8.5 3t9.5 1.5q24 0 39 -16t15 -35zM814 144q0 -34 -27 -48q6 -44 6 -65q0 -39 -53 -39q-17 0 -28 8t-15.5 22t-6 25.5t-1.5 26.5v6v2q-16 -1 -45.5 -4t-53.5 -5t-45 -3h-9q-26 0 -42.5 15.5t-16.5 40.5q-2 8 -2 12 q0 13 7 26.5t14.5 22t22.5 23t21 20.5q10 10 100 120q3 4 12 15.5t14 17.5t13 14t16 11.5t16 3.5h2q11 -2 21 -6q21 0 33 -16t12 -41q0 -2 -0.5 -6t-0.5 -6q0 -7 0.5 -22t0.5 -23v-47q0 -9 -0.5 -28t-0.5 -28q36 -3 36 -45zM612 169h7q27 0 66 7v49q0 18 -1 26 q-49 -54 -72 -82z" />
<glyph unicode="&#xbf;" horiz-adv-x="679" d="M400 433q-22 0 -37.5 18t-15.5 39q0 23 14 39.5t37 17.5h3q37 0 52 -37q4 -8 4 -16q0 -20 -17 -40.5t-40 -20.5zM590 -55q16 0 32.5 -16.5t16.5 -35.5q0 -7 -1.5 -13t-6.5 -12t-8 -10t-11.5 -10t-10.5 -7.5t-13 -8.5l-10 -6q-102 -65 -251 -65q-78 0 -138 25 q-57 23 -93 75.5t-36 114.5q0 55 27 100.5t72 74.5t92 47t97 27v9v18q0 12 -1 37t-1 38v20q0 23 8 34q11 14 33 14q10 0 22 -3.5t24.5 -16.5t12.5 -33q0 -4 -1 -11.5t-1 -11.5l-1 -43q0 -19 1 -29l3 -44v-8v-6q0 -23 -15 -40.5t-38 -17.5h-6q-91 -9 -154 -44 q-82 -48 -82 -111q0 -44 28 -73.5t63.5 -40t74.5 -10.5q104 0 182 42q5 2 38.5 26.5t51.5 24.5z" />
<glyph unicode="&#xd7;" horiz-adv-x="542" d="M340 272l107 -94l9 -8q9 -7 10.5 -9t7 -8.5t7 -12.5t1.5 -13q0 -19 -12.5 -34.5t-30.5 -15.5h-3q-19 0 -42 15l-6 5l-114 100q-47 -54 -83 -99l-28 -37q-20 -20 -48 -20q-19 0 -35 13t-16 30q0 8 6 19t11.5 18.5t17.5 21t15 17.5q28 35 86 103l-46 40q-10 9 -28.5 23.5 t-27 22.5t-19 19.5t-15 22.5t-4.5 24q0 17 15 33t32 16h2q6 -1 36 -23q52 -43 119 -103l37 42l62 72q15 17 29 24q8 3 15 3q20 0 35.5 -12.5t15.5 -31.5q0 -27 -20 -50q-4 -5 -98 -113z" />
<glyph unicode="&#xf7;" horiz-adv-x="637" d="M285 514q37 0 49 -35q4 -9 4 -22q0 -36 -32 -47q-9 -4 -23 -4q-19 0 -33.5 10t-17.5 29q-1 4 -1 14q0 39 28 50q11 5 26 5zM510 351q22 0 34.5 -12t12.5 -30q0 -22 -15 -41t-36 -19q-7 0 -11 1q-26 -2 -119 -2.5t-188 -4.5q-15 -1 -47 -7t-51 -6q-50 0 -50 50v8 q4 39 54 43q32 3 144.5 5t144.5 5q32 2 94 8q20 2 33 2zM326 171h3q37 0 52 -37q4 -8 4 -16q0 -20 -17 -40.5t-40 -20.5q-22 0 -37.5 18t-15.5 39q0 23 14 39.5t37 17.5z" />
<glyph unicode="&#x2c6;" horiz-adv-x="475" d="M394 652l6 -4q25 -15 25 -37q0 -21 -12 -40.5t-31 -19.5h-5q-5 1 -15.5 6t-12.5 5h1q-25 16 -62 47l-50 41q-9 -7 -29 -22.5t-29 -23.5q-4 -4 -17.5 -16t-20.5 -17.5t-19 -11t-24 -5.5q-17 0 -33 16t-16 33q0 24 34 48q33 21 96 78l9 9t11 10t10.5 8t13 7t13.5 2 q17 0 33 -16q5 -3 17 -13q9 -7 31.5 -27.5t36.5 -30.5l22 -15q2 -1 8 -5z" />
<glyph unicode="&#x2dc;" horiz-adv-x="525" d="M172 750q37 0 73 -19q12 -7 34.5 -24t41 -27.5t33.5 -10.5q17 0 27 14l4 8t6 9q11 8 30 8q54 0 54 -40q0 -33 -35 -62t-78 -29h-7q-45 1 -93 34q-6 4 -23 17.5t-30.5 20t-30.5 8.5q-13 0 -37 -25.5t-46 -25.5q-18 0 -32 12t-14 29q0 30 33.5 62.5t73.5 39.5q5 1 16 1z " />
<glyph unicode="&#x2000;" horiz-adv-x="480" />
<glyph unicode="&#x2001;" horiz-adv-x="961" />
<glyph unicode="&#x2002;" horiz-adv-x="480" />
<glyph unicode="&#x2003;" horiz-adv-x="961" />
<glyph unicode="&#x2004;" horiz-adv-x="320" />
<glyph unicode="&#x2005;" horiz-adv-x="240" />
<glyph unicode="&#x2006;" horiz-adv-x="160" />
<glyph unicode="&#x2007;" horiz-adv-x="160" />
<glyph unicode="&#x2008;" horiz-adv-x="120" />
<glyph unicode="&#x2009;" horiz-adv-x="192" />
<glyph unicode="&#x200a;" horiz-adv-x="53" />
<glyph unicode="&#x2010;" horiz-adv-x="536" d="M430 347q46 0 46 -44q0 -57 -61 -57q-20 -1 -93.5 -2.5t-113.5 -4.5q-14 -1 -47 -7t-50 -6q-51 0 -51 48q0 49 54 53q44 4 139 8.5t145 9.5q20 2 32 2z" />
<glyph unicode="&#x2011;" horiz-adv-x="536" d="M430 347q46 0 46 -44q0 -57 -61 -57q-20 -1 -93.5 -2.5t-113.5 -4.5q-14 -1 -47 -7t-50 -6q-51 0 -51 48q0 49 54 53q44 4 139 8.5t145 9.5q20 2 32 2z" />
<glyph unicode="&#x2012;" horiz-adv-x="536" d="M430 347q46 0 46 -44q0 -57 -61 -57q-20 -1 -93.5 -2.5t-113.5 -4.5q-14 -1 -47 -7t-50 -6q-51 0 -51 48q0 49 54 53q44 4 139 8.5t145 9.5q20 2 32 2z" />
<glyph unicode="&#x2013;" horiz-adv-x="597" d="M510 351q22 0 34.5 -12t12.5 -30q0 -22 -15 -41t-36 -19q-7 0 -11 1q-26 -2 -119 -2.5t-188 -4.5q-15 -1 -47 -7t-51 -6q-50 0 -50 50v8q4 39 54 43q32 3 144.5 5t144.5 5q32 2 94 8q20 2 33 2z" />
<glyph unicode="&#x2014;" horiz-adv-x="786" d="M684 378h7q25 0 40 -15t15 -40q0 -20 -13 -33t-35 -13l-10 1q-262 -10 -362 -18q-38 -3 -108.5 -10t-94.5 -9q-3 0 -8.5 -0.5t-7.5 -0.5q-23 0 -45 15.5t-22 38.5q0 52 76 54q18 0 53 1t52 1q75 1 149.5 5.5t165 12t148.5 10.5z" />
<glyph unicode="&#x2018;" horiz-adv-x="249" d="M102 751q28 0 44 -19t16 -38q0 -10 -3 -25.5t-3 -26.5q0 -9 3 -18q4 -8 13 -24t13 -26t4 -22q0 -19 -11 -29t-26 -10q-45 0 -68.5 45t-23.5 95q0 68 16 87q10 11 26 11z" />
<glyph unicode="&#x2019;" horiz-adv-x="251" d="M101 779h3q45 -3 66 -46t21 -93q0 -72 -15 -93q-11 -15 -29 -15l-7 1q-25 3 -38.5 20.5t-13.5 37.5q0 8 4 27t4 29q0 18 -30 70q-6 11 -6 26q0 18 12 27t29 9z" />
<glyph unicode="&#x201a;" horiz-adv-x="215" d="M88 110q34 0 55.5 -37t21.5 -75q0 -5 -0.5 -12.5t-3 -26.5t-7 -34t-15 -28t-24.5 -14h-5q-23 0 -40 17t-17 39q0 12 8.5 31t8.5 29q0 4 -1 7t-6.5 13t-7 13.5t-3.5 12.5t-2 19q0 37 27 44q8 2 11 2z" />
<glyph unicode="&#x201c;" horiz-adv-x="372" d="M104 746q26 0 42 -20t16 -38q0 -10 -8.5 -33t-8.5 -35q0 -1 0.5 -4.5t0.5 -5.5l12 -30q0 -4 2.5 -15.5t2.5 -17.5q0 -19 -10 -32t-26 -13q-33 0 -53.5 32t-23.5 71v9q0 28 7 63q9 47 26 62q8 7 21 7zM264 746q28 0 42.5 -18.5t14.5 -38.5q0 -10 -10 -36.5t-10 -44.5v-6 q0 -10 10.5 -32.5t10.5 -37.5q0 -17 -11 -27.5t-27 -10.5q-37 0 -57.5 34.5t-20.5 73.5v10q1 36 11 75t27 53q9 6 20 6z" />
<glyph unicode="&#x201d;" horiz-adv-x="406" d="M101 779h3q45 -3 66 -46t21 -93q0 -72 -15 -93q-11 -15 -29 -15l-7 1q-25 3 -38.5 20.5t-13.5 37.5q0 8 4 27t4 29q0 18 -30 70q-6 11 -6 26q0 18 12 27t29 9zM256 763h3q45 -3 66 -46t21 -93q0 -72 -15 -93q-11 -15 -29 -15l-7 1q-25 3 -38.5 20.5t-13.5 37.5q0 8 4 27 t4 29q0 18 -30 70q-6 10 -6 26q0 18 12 27t29 9z" />
<glyph unicode="&#x201e;" horiz-adv-x="366" d="M88 110q34 0 55.5 -37t21.5 -75q0 -5 -0.5 -12.5t-3 -26.5t-7 -34t-15 -28t-24.5 -14h-5q-23 0 -40 17t-17 39q0 12 8.5 31t8.5 29q0 4 -1 7t-6.5 13t-7 13.5t-3.5 12.5t-2 19q0 37 27 44q8 2 11 2zM239 110q34 0 55.5 -37t21.5 -75q0 -5 -0.5 -12.5t-3 -26.5t-7 -34 t-15 -28t-24.5 -14h-5q-23 0 -40 17t-17 39q0 12 8.5 31t8.5 29q0 4 -1 7t-6.5 13t-7 13.5t-3.5 12.5t-2 19q0 37 27 44q8 2 11 2z" />
<glyph unicode="&#x2022;" horiz-adv-x="445" d="M238 454l24 -6q52 -6 87.5 -47.5t35.5 -95.5q0 -66 -50 -115.5t-117 -49.5q-61 0 -109.5 43.5t-48.5 104.5q0 60 51 112t113 52h6q6 2 8 2z" />
<glyph unicode="&#x2026;" horiz-adv-x="595" d="M486 113h3q37 0 52 -37q4 -8 4 -16q0 -20 -17 -40.5t-40 -20.5q-22 0 -37.5 18t-15.5 39q0 23 14 39.5t37 17.5zM296 109h3q37 0 52 -37q4 -8 4 -16q0 -20 -17 -40.5t-40 -20.5q-22 0 -37.5 18t-15.5 39q0 23 14 39.5t37 17.5zM101 102h3q37 0 52 -37q4 -8 4 -16 q0 -20 -17 -40.5t-40 -20.5q-22 0 -37.5 18t-15.5 39q0 23 14 39.5t37 17.5z" />
<glyph unicode="&#x202f;" horiz-adv-x="192" />
<glyph unicode="&#x2039;" horiz-adv-x="415" d="M294 165q4 -3 19.5 -15t21.5 -18t13 -19.5t7 -28.5q0 -18 -14 -34.5t-31 -16.5q-10 0 -31 16q-141 122 -154 134l-39 36q-26 22 -26 45v6q1 13 10 25q7 14 18 25q88 90 132 134l9.5 9.5l10.5 10.5t10 9t12 9t11.5 6.5t13.5 4.5q3 1 10 1q16 0 32 -16t16 -35 q0 -11 -5.5 -19.5t-19 -20t-14.5 -12.5l-18 -17q-64 -60 -102 -102l-9 -11q7 -6 50 -46.5t67 -59.5z" />
<glyph unicode="&#x203a;" horiz-adv-x="423" d="M363 264v-4v-5q0 -8 -2 -15t-8.5 -14.5t-9 -10.5t-13.5 -12l-10 -9q-95 -83 -116 -103q-2 -2 -16 -15t-19.5 -18t-16.5 -13t-20.5 -11.5t-18.5 -3.5q-18 0 -35.5 13t-17.5 32q0 35 71 81q39 25 116 102l-7 8q-33 37 -122 120q-13 12 -17.5 16.5t-11 16t-7.5 23.5v3 q0 20 13.5 36t33.5 16q9 0 17.5 -4t13 -8.5t12.5 -13.5t11 -12q51 -52 103 -103l46 -45q31 -29 31 -47z" />
<glyph unicode="&#x205f;" horiz-adv-x="240" />
<glyph unicode="&#x20ac;" horiz-adv-x="727" d="M626 184q61 0 61 -48q0 -31 -28 -54q-58 -48 -112 -72t-124 -24q-117 0 -189.5 71t-97.5 178q-32 -4 -47 -4q-45 4 -45 50q0 22 18.5 35.5t44.5 15.5h18v3q0 39 7 88l-31 -2q-2 0 -6.5 -1t-8 -1.5t-6.5 -0.5q-40 0 -40 52q0 44 64 51h40h15q39 99 115.5 166t178.5 85 q32 5 58 5q15 0 36 -2.5t50.5 -9.5t49.5 -23.5t20 -39.5q0 -24 -17 -38.5t-42 -14.5h-6q-8 0 -37 12q-27 10 -58 10h-11q-149 -10 -223 -147l23 1l74 3q7 0 20.5 1t19.5 1h33q23 -2 36.5 -19.5t13.5 -41.5q0 -39 -71 -39q-20 0 -61.5 1t-62.5 1l-60 -2q-10 -47 -10 -84v-10 l74 3l88 3q7 0 21 0.5t22 0.5h8q25 0 41.5 -12.5t16.5 -34.5q0 -52 -56 -52q-3 0 -9.5 0.5t-10.5 0.5h-50q-73 0 -132 -4q20 -66 66 -107.5t113 -41.5h7q99 6 150 59q3 3 9.5 11t10 11.5t11.5 7t18 3.5z" />
<glyph unicode="&#x25fc;" horiz-adv-x="545" d="M0 545h545v-545h-545v545z" />
</font>
</defs>
</svg>
