<?xml version="1.0" encoding="utf-8"?>
<!-- Generator: Adobe Illustrator 19.2.0, SVG Export Plug-In . SVG Version: 6.00 Build 0)  -->
<svg version="1.1" xmlns="http://www.w3.org/2000/svg" xmlns:xlink="http://www.w3.org/1999/xlink" x="0px" y="0px"
	 viewBox="0 0 955 480" style="enable-background:new 0 0 955 480;" xml:space="preserve">
<style type="text/css">
	.st0{display:none;}
	.st1{fill:#A55B16;}
	.st2{fill:#894B16;}
	.st3{fill:#6D7F3B;}
	.st4{fill:#5E6E30;}
	.st5{opacity:0.4;fill:#5E6E30;}
	.st6{fill:#6D843A;}
	.st7{opacity:0.7;}
	.st8{fill:#56642B;}
	.st9{fill:#798E41;}
	.st10{fill:#6C7C35;}
	.st11{opacity:0.4;}
	.st12{fill:url(#SVGID_1_);}
	.st13{fill:#E09D20;}
	.st14{fill:#7F4F12;}
	.st15{fill:#563A1C;}
	.st16{opacity:0.8;fill:#FFFFFF;}
	.st17{fill:url(#SVGID_2_);}
	.st18{fill:#FFD941;}
	.st19{fill:#F7A60B;}
	.st20{opacity:0.6;fill:#FAB722;}
	.st21{opacity:0.4;fill:#EFAF12;}
	.st22{fill:#FECD41;}
	.st23{fill:#FAB722;}
	.st24{fill:url(#SVGID_3_);}
	.st25{fill:url(#SVGID_4_);}
	.st26{opacity:0.6;fill:#563A1C;}
	.st27{fill:#5E71A3;}
	.st28{fill:#354366;}
	.st29{fill:#495682;}
	.st30{fill:#58699F;}
	.st31{fill:#6579AB;}
</style>
<g id="Lager_3" class="st0">
</g>
<g id="Tvåsits">
</g>
<g id="Fyrsits">
	<g>
		<radialGradient id="SVGID_1_" cx="144.7015" cy="468.2931" r="14.7393" gradientUnits="userSpaceOnUse">
			<stop  offset="0" style="stop-color:#FCEA10"/>
			<stop  offset="0.17" style="stop-color:#FCE80E"/>
			<stop  offset="0.3488" style="stop-color:#FCE00A"/>
			<stop  offset="0.5316" style="stop-color:#FAD302"/>
			<stop  offset="0.7171" style="stop-color:#F8C000"/>
			<stop  offset="0.903" style="stop-color:#F5A400"/>
			<stop  offset="1" style="stop-color:#F39200"/>
		</radialGradient>
		<circle class="st12" cx="148" cy="470.8" r="8.2"/>
		<path class="st13" d="M156.3,470.8c0,0,0,0.2,0,0.6c0,0.2,0,0.4-0.1,0.7c0,0.3-0.1,0.6-0.2,0.9c-0.2,0.7-0.4,1.6-0.9,2.4
			c-0.5,0.9-1.2,1.8-2.3,2.6c-1,0.8-2.4,1.3-3.9,1.5c-0.4,0-0.7,0-1.1,0c-0.4,0-0.7-0.1-1.1-0.2c-0.8-0.1-1.5-0.4-2.2-0.8
			c-1.4-0.7-2.6-1.8-3.5-3.2c-0.9-1.4-1.5-3-1.6-4.7c0-0.8,0-1.7,0.2-2.5c0.2-0.8,0.6-1.6,1-2.3c0.9-1.4,2.2-2.6,3.7-3.3
			c1.5-0.7,3.2-0.9,4.6-0.7c1.6,0.2,2.9,0.8,3.9,1.6c1,0.8,1.7,1.8,2.2,2.6c0.5,0.9,0.7,1.8,0.9,2.4c0.1,0.4,0.1,0.7,0.2,0.9
			c0,0.3,0.1,0.5,0.1,0.7C156.3,470.6,156.3,470.8,156.3,470.8z M156.2,470.8c0,0,0-0.2,0-0.6c0-0.4-0.1-0.9-0.3-1.6
			c-0.2-0.7-0.6-1.4-1.2-2.2c-0.6-0.8-1.4-1.5-2.4-2c-1-0.5-2.2-1-3.4-1.1c-1.3-0.1-2.6,0.1-3.9,0.6c-1.3,0.5-2.4,1.5-3.3,2.7
			c-0.9,1.2-1.4,2.6-1.5,4.2c0,0.8,0,1.6,0.2,2.3c0.2,0.7,0.5,1.5,0.9,2.1c0.4,0.6,1,1.2,1.6,1.7c0.6,0.5,1.3,0.8,1.9,1.1
			c0.7,0.2,1.4,0.4,2,0.4c0.3,0,0.7,0,1,0c0.3,0,0.6,0,1-0.1c1.3-0.2,2.4-0.6,3.4-1.2c1-0.6,1.8-1.3,2.4-2c0.6-0.8,1-1.5,1.2-2.2
			c0.2-0.7,0.3-1.2,0.3-1.6C156.2,471,156.2,470.8,156.2,470.8z"/>
	</g>
	<g>
		<circle class="st14" cx="148" cy="441.5" r="20.6"/>
		<path class="st15" d="M168.6,441.5c0,0,0,0.5-0.1,1.5c0,0.5-0.1,1.1-0.2,1.7c-0.1,0.3-0.1,0.7-0.2,1.1c-0.1,0.4-0.2,0.8-0.3,1.2
			c-0.5,1.7-1.1,3.8-2.5,5.9c-1.3,2.1-3.2,4.3-5.7,6.1c-2.5,1.8-5.8,3.1-9.3,3.5c-0.9,0.1-1.8,0.1-2.7,0.1c-0.9-0.1-1.8-0.1-2.7-0.3
			c-1.9-0.3-3.7-0.9-5.4-1.7c-1.8-0.8-3.4-1.9-4.9-3.2c-1.5-1.3-2.8-2.8-3.9-4.5c-1.1-1.7-2-3.5-2.6-5.5c-0.6-2-0.9-4-1-6.1
			c0-2,0.2-4.1,0.8-6.1c0.6-2,1.4-3.9,2.5-5.6c1.1-1.7,2.5-3.2,4-4.6c1.6-1.3,3.2-2.4,5-3.2c1.8-0.8,3.6-1.4,5.5-1.6
			c0.9-0.2,1.9-0.2,2.8-0.2c0.5,0,0.9,0,1.4,0c0.4,0,0.9,0,1.3,0.1c3.6,0.5,6.8,1.8,9.4,3.6c2.5,1.8,4.4,4,5.7,6.1
			c1.3,2.1,2,4.2,2.5,5.9c0.1,0.4,0.2,0.8,0.3,1.2c0.1,0.4,0.1,0.8,0.2,1.1c0.1,0.7,0.2,1.3,0.2,1.7
			C168.6,441,168.6,441.5,168.6,441.5z M168.5,441.5c0,0,0-0.5-0.1-1.4c0-0.5-0.1-1-0.2-1.7c-0.1-0.3-0.1-0.7-0.2-1.1
			c-0.1-0.4-0.2-0.8-0.3-1.2c-0.5-1.7-1.3-3.7-2.7-5.6c-1.4-2-3.3-4-5.8-5.5c-2.5-1.5-5.6-2.7-8.8-3.1c-3.4-0.3-7,0.1-10.3,1.6
			c-1.7,0.7-3.3,1.7-4.7,2.9c-1.5,1.2-2.7,2.6-3.8,4.2c-1.1,1.6-1.9,3.4-2.6,5.2c-0.6,1.9-0.9,3.8-1,5.8c0,1.9,0.2,4,0.8,5.9
			c0.6,1.9,1.4,3.7,2.5,5.4c1.1,1.6,2.4,3.1,3.9,4.3c1.5,1.2,3.1,2.2,4.9,2.9c1.7,0.7,3.5,1.2,5.2,1.4c0.8,0.2,1.8,0.1,2.7,0.2
			c0.8,0,1.7-0.1,2.5-0.2c3.3-0.4,6.4-1.6,8.9-3.2c2.5-1.6,4.4-3.6,5.8-5.5c1.4-2,2.2-4,2.7-5.7c0.1-0.4,0.2-0.8,0.3-1.2
			c0.1-0.4,0.1-0.7,0.2-1.1c0.1-0.7,0.2-1.2,0.2-1.7C168.5,442,168.5,441.5,168.5,441.5z"/>
	</g>
	<ellipse class="st15" cx="148" cy="440.3" rx="20" ry="10.8"/>
	<circle class="st16" cx="145.7" cy="469.7" r="3.1"/>
	<g>
		<radialGradient id="SVGID_2_" cx="807.6234" cy="468.2931" r="14.7393" gradientUnits="userSpaceOnUse">
			<stop  offset="0" style="stop-color:#FCEA10"/>
			<stop  offset="0.17" style="stop-color:#FCE80E"/>
			<stop  offset="0.3488" style="stop-color:#FCE00A"/>
			<stop  offset="0.5316" style="stop-color:#FAD302"/>
			<stop  offset="0.7171" style="stop-color:#F8C000"/>
			<stop  offset="0.903" style="stop-color:#F5A400"/>
			<stop  offset="1" style="stop-color:#F39200"/>
		</radialGradient>
		<circle class="st17" cx="810.9" cy="470.8" r="8.2"/>
		<path class="st13" d="M819.2,470.8c0,0,0,0.2,0,0.6c0,0.2,0,0.4-0.1,0.7c0,0.3-0.1,0.6-0.2,0.9c-0.2,0.7-0.4,1.6-0.9,2.4
			c-0.5,0.9-1.2,1.8-2.3,2.6c-1,0.8-2.4,1.3-3.9,1.5c-0.4,0-0.7,0-1.1,0c-0.4,0-0.7-0.1-1.1-0.2c-0.8-0.1-1.5-0.4-2.2-0.8
			c-1.4-0.7-2.6-1.8-3.5-3.2c-0.9-1.4-1.5-3-1.6-4.7c0-0.8,0-1.7,0.2-2.5c0.2-0.8,0.6-1.6,1-2.3c0.9-1.4,2.2-2.6,3.7-3.3
			c1.5-0.7,3.2-0.9,4.6-0.7c1.6,0.2,2.9,0.8,3.9,1.6c1,0.8,1.7,1.8,2.2,2.6c0.5,0.9,0.7,1.8,0.9,2.4c0.1,0.4,0.1,0.7,0.2,0.9
			c0,0.3,0.1,0.5,0.1,0.7C819.2,470.6,819.2,470.8,819.2,470.8z M819.1,470.8c0,0,0-0.2,0-0.6c0-0.4-0.1-0.9-0.3-1.6
			c-0.2-0.7-0.6-1.4-1.2-2.2c-0.6-0.8-1.4-1.5-2.4-2c-1-0.5-2.2-1-3.4-1.1c-1.3-0.1-2.6,0.1-3.9,0.6c-1.3,0.5-2.4,1.5-3.3,2.7
			c-0.4,0.6-0.8,1.3-1,2c-0.3,0.7-0.4,1.4-0.5,2.3c0,0.7,0,1.5,0.2,2.3c0.2,0.7,0.5,1.5,0.9,2.1c0.4,0.6,1,1.2,1.6,1.7
			c0.6,0.5,1.3,0.8,1.9,1.1c0.7,0.2,1.4,0.4,2,0.4c0.3,0,0.7,0,1,0c0.3,0,0.6,0,1-0.1c1.3-0.2,2.4-0.6,3.4-1.2c1-0.6,1.8-1.3,2.4-2
			c0.6-0.8,1-1.5,1.2-2.2c0.2-0.7,0.3-1.2,0.3-1.6C819.1,471,819.1,470.8,819.1,470.8z"/>
	</g>
	<g>
		<circle class="st14" cx="810.9" cy="441.5" r="20.6"/>
		<path class="st15" d="M831.6,441.5c0,0,0,0.5-0.1,1.5c0,0.5-0.1,1.1-0.2,1.7c-0.1,0.3-0.1,0.7-0.2,1.1c-0.1,0.4-0.2,0.8-0.3,1.2
			c-0.5,1.7-1.1,3.8-2.5,5.9c-1.3,2.1-3.2,4.3-5.7,6.1c-2.5,1.8-5.8,3.1-9.3,3.5c-0.9,0.1-1.8,0.1-2.7,0.1c-0.9-0.1-1.8-0.1-2.7-0.3
			c-1.9-0.3-3.7-0.9-5.4-1.7c-1.8-0.8-3.4-1.9-4.9-3.2c-1.5-1.3-2.8-2.8-3.9-4.5c-1.1-1.7-2-3.5-2.6-5.5c-0.6-2-0.9-4-1-6.1
			c0-2,0.2-4.1,0.8-6.1c0.6-2,1.4-3.9,2.5-5.6c1.1-1.7,2.5-3.2,4-4.6c1.6-1.3,3.2-2.4,5-3.2c1.8-0.8,3.6-1.4,5.5-1.6
			c0.9-0.2,1.9-0.2,2.8-0.2c0.5,0,0.9,0,1.4,0c0.4,0,0.9,0,1.3,0.1c3.6,0.5,6.8,1.8,9.4,3.6c2.5,1.8,4.4,4,5.7,6.1
			c1.3,2.1,2,4.2,2.5,5.9c0.1,0.4,0.2,0.8,0.3,1.2c0.1,0.4,0.1,0.8,0.2,1.1c0.1,0.7,0.2,1.3,0.2,1.7
			C831.5,441,831.6,441.5,831.6,441.5z M831.4,441.5c0,0,0-0.5-0.1-1.4c0-0.5-0.1-1-0.2-1.7c-0.1-0.3-0.1-0.7-0.2-1.1
			c-0.1-0.4-0.2-0.8-0.3-1.2c-0.5-1.7-1.3-3.7-2.7-5.6c-1.4-2-3.3-4-5.8-5.5c-2.5-1.5-5.6-2.7-8.8-3.1c-3.4-0.3-7,0.1-10.3,1.6
			c-1.7,0.7-3.3,1.7-4.7,2.9c-1.5,1.2-2.7,2.6-3.8,4.2c-1.1,1.6-1.9,3.4-2.6,5.2c-0.6,1.9-0.9,3.8-1,5.8c0,1.9,0.2,4,0.8,5.9
			c0.6,1.9,1.4,3.7,2.5,5.4c1.1,1.6,2.4,3.1,3.9,4.3c1.5,1.2,3.1,2.2,4.9,2.9c1.7,0.7,3.5,1.2,5.2,1.4c0.8,0.2,1.8,0.1,2.7,0.2
			c0.8,0,1.7-0.1,2.5-0.2c3.3-0.4,6.4-1.6,8.9-3.2c2.5-1.6,4.4-3.6,5.8-5.5c1.4-2,2.2-4,2.7-5.7c0.1-0.4,0.2-0.8,0.3-1.2
			c0.1-0.4,0.1-0.7,0.2-1.1c0.1-0.7,0.2-1.2,0.2-1.7C831.4,442,831.4,441.5,831.4,441.5z"/>
	</g>
	<ellipse class="st15" cx="810.9" cy="440.3" rx="20" ry="10.8"/>
	<circle class="st16" cx="808.6" cy="469.7" r="3.1"/>
	<path class="st18" d="M74.5,216.9c0,0-23.4-97.8,59-171.5C202-15.8,327-9.8,460,41.1C556.5,78,592.5,81.8,644,91.2
		c105,19.1,267.6-8,257,126.2c-3.1,39.3-85.5,184.7-85.5,184.7l-697.4-8.2L74.5,216.9z"/>
	<g>
		<path class="st19" d="M94.1,199c0,0,0.1-0.9,0.3-2.6c0.2-1.7,0.4-4.3,0.8-7.6c0.8-6.7,2.2-16.5,5.2-28.7
			c3-12.2,7.7-26.9,15.6-42.7c7.9-15.7,19.4-32.4,35.4-47.2c1-0.9,2-1.8,3-2.8c1-0.9,2.1-1.8,3.2-2.7c2.1-1.8,4.3-3.5,6.6-5.3
			c1.1-0.9,2.3-1.7,3.4-2.5c1.2-0.8,2.3-1.7,3.5-2.5c1.2-0.8,2.4-1.6,3.6-2.4c1.3-0.8,2.5-1.6,3.8-2.3c10.2-5.9,21.6-10.4,33.6-13.8
			c12-3.4,24.6-5.7,37.6-7.2c13-1.4,26.3-2,39.9-2c27.1,0.2,55,3,83,8.1c27.9,5.1,56,12.4,83.2,22.1c27.1,9.5,54.2,18.9,81.4,26.4
			c13.6,3.8,27.2,7.2,40.6,10.3c13.5,3.1,26.9,5.8,40.1,8.3c6.6,1.2,13.2,2.4,19.7,3.6c6.5,1.1,12.9,2.2,19.3,3.3
			c12.7,2,25.3,3.1,37.6,4.2c24.6,2.1,47.9,3.7,69.4,6.4c10.7,1.3,21,2.8,30.7,4.7c9.7,1.9,18.8,4.1,27.2,6.6
			c16.8,5.1,30.9,11.8,40.8,19.8c5,3.9,8.9,8.1,11.7,12.1c2.9,4,4.8,7.7,6,10.9c1.3,3.1,1.9,5.6,2.3,7.3c0.2,0.8,0.3,1.5,0.4,1.9
			c0.1,0.4,0.1,0.7,0.1,0.7s-0.1-0.2-0.2-0.6c-0.1-0.4-0.2-1.1-0.5-1.9c-0.5-1.7-1.2-4.2-2.5-7.2c-1.3-3.1-3.3-6.7-6.3-10.6
			c-3-3.8-6.9-7.9-11.8-11.6c-9.9-7.6-24-14-40.7-18.6c-8.4-2.3-17.5-4.3-27.1-6c-9.6-1.7-19.8-3.1-30.5-4.2
			c-21.4-2.4-44.7-3.7-69.3-5.4c-12.3-0.9-25-1.9-38-3.7c-6.5-1-12.9-2.1-19.4-3.2c-6.5-1.2-13.1-2.3-19.7-3.5
			c-26.5-4.9-53.9-10.7-81.2-18.3c-27.4-7.5-54.6-16.9-81.8-26.3c-13.5-4.8-27.1-9-40.9-12.7c-13.8-3.7-27.6-6.8-41.5-9.3
			c-13.8-2.6-27.7-4.5-41.4-6c-13.7-1.4-27.3-2.3-40.7-2.5c-13.4-0.2-26.6,0.3-39.3,1.7c-12.8,1.3-25.2,3.4-37,6.6
			c-11.8,3.2-23,7.4-32.9,13c-2.5,1.4-4.9,2.8-7.3,4.4c-1.2,0.8-2.3,1.6-3.4,2.4c-1.1,0.8-2.3,1.6-3.4,2.4c-2.2,1.7-4.4,3.3-6.5,5.1
			c-1.1,0.9-2.1,1.7-3.1,2.6c-1,0.9-2,1.8-3,2.7c-4,3.5-7.6,7.3-11.1,11c-3.4,3.8-6.7,7.6-9.6,11.5c-5.9,7.8-10.9,15.6-15,23.3
			c-8.2,15.4-13.2,29.9-16.4,42c-3.2,12.1-4.9,21.9-6,28.5c-0.5,3.3-0.8,5.9-1.1,7.6C94.2,198.1,94.1,199,94.1,199z"/>
	</g>
	<path class="st20" d="M894.6,208.7c0-108.5-208.6-88.4-282.6-105.4c-99-22.7-83.7-16.5-169.3-46.4C351.7,25,227,18.7,172,55.8
		c-63.7,43.1-74.5,111.3-78,143.1v132.4l756.6,8L894.6,208.7z"/>
	<path class="st21" d="M882.7,137.9c-51-2.1-75.4,29.6-85,71.6c-8.3,36.4,2.5,91.2,2.5,91.2l17.8,10.5L882.7,137.9z"/>
	<path class="st21" d="M72.6,137.9c51-2.1,75.4,29.6,85,71.6c8.3,36.4-2.5,91.2-2.5,91.2l-17.8,10.5L72.6,137.9z"/>
	<g>
		<path class="st22" d="M890.2,139.3c-29.7-6.5-68.8,10.1-83.3,48.6c-8.1,21.3-10.4,48.4,2.5,129.6c-138.6,0-524.9,0-663.6,0
			c12.8-81.2,10.5-108.3,2.5-129.6c-14.6-38.5-53.7-55.1-83.3-48.6C9.4,151.4-0.3,190.2,2.5,212.9C6,242,27.5,273.2,71,277.3
			l20.8,135.3c0,0-1.4,26,20.8,26c18.7,0,711,0,729.7,0c22.2,0,20.8-26,20.8-26L884,277.3c43.5-4,65-35.3,68.5-64.4
			C955.3,190.2,945.6,151.4,890.2,139.3z"/>
		<g>
			<path class="st23" d="M890.1,139.4c-4.8-1-9.7-1.4-14.6-1.3c-4.9,0.1-9.8,0.8-14.5,1.9c-4.8,1.1-9.4,2.8-13.9,4.8
				c-4.4,2-8.7,4.5-12.7,7.3c-8,5.7-14.8,12.9-20.1,21.2c-2.6,4.1-4.9,8.5-6.7,13.1c-1.9,4.5-3.3,9.2-4.4,14
				c-2.1,9.6-2.8,19.4-2.8,29.2c0,9.8,0.7,19.6,1.6,29.4c1.9,19.5,4.7,39,7.8,58.4l0.1,0.8l-0.8,0l-82.9,0.3l-82.9,0.2l-82.9,0.1
				l-82.9,0l-82.9-0.1l-82.9-0.2l-165.9-0.4l-0.7,0l0.1-0.7c2.9-18.3,5.5-36.6,7.4-55c0.9-9.2,1.6-18.4,1.8-27.7
				c0.2-9.2-0.1-18.5-1.5-27.6c-1.4-9.1-4.1-18-8.2-26.3c-4.1-8.3-9.7-15.8-16.4-22c-6.7-6.3-14.6-11.3-23.1-14.8
				c-8.5-3.5-17.7-5.5-26.8-5.5c-4.6,0-9.2,0.4-13.7,1.4c-4.5,1-9,2.2-13.3,3.8c-4.3,1.5-8.6,3.3-12.7,5.4c-4.1,2.2-8,4.6-11.6,7.4
				c-7.2,5.6-13.3,12.8-17.5,20.9c-4.2,8.2-6.4,17.3-6.7,26.4c-0.1,2.3,0,4.6,0.2,6.9c0.1,1.1,0.2,2.3,0.4,3.4
				c0.1,1.2,0.4,2.3,0.6,3.4c0.8,4.5,2.1,8.9,3.8,13.2c3.3,8.5,8.3,16.4,14.5,23.1c6.3,6.7,13.9,12,22.3,15.7
				c8.4,3.8,17.4,5.9,26.5,6.7l0.7,0.1l0.1,0.7L93,412.4l0,0.1l0,0.2c-0.1,4,0.5,8.1,1.8,11.9c1.3,3.8,3.5,7.3,6.7,9.5
				c3.1,2.3,7.1,3.2,11.1,3.2l12.6,0l50.3-0.1l100.7-0.1l201.3-0.1l201.3,0.1l100.7,0.2l50.3,0.1l12.6,0c4,0,8.1-0.9,11.2-3.2
				c3.2-2.3,5.4-5.8,6.8-9.6c1.3-3.8,1.9-8,1.8-12l0-0.1l0-0.1l21.3-135.2l0.1-0.4l0.4,0c8.6-0.8,17.1-2.7,25.1-6.1
				c8-3.3,15.4-8.1,21.6-14.1c6.3-6,11.3-13.2,15-21c1.8-3.9,3.4-8,4.5-12.2c1.1-4.2,1.9-8.5,2.3-12.8c0.3-4.3,0.2-8.7-0.3-13
				c-0.6-4.3-1.5-8.5-3-12.6c-2.8-8.2-7.5-15.7-13.4-22c-3-3.1-6.3-6-9.8-8.5c-3.5-2.5-7.3-4.7-11.2-6.6c-1.9-1-3.9-1.8-5.9-2.7
				c-2-0.8-4-1.6-6.1-2.2C898.6,141.5,894.3,140.4,890.1,139.4z M890.2,139.1c4.2,1,8.5,2,12.6,3.5c2.1,0.6,4.1,1.5,6.1,2.2
				c2,0.9,4,1.7,6,2.7c3.9,1.9,7.7,4.1,11.2,6.6c3.5,2.5,6.9,5.4,9.9,8.5c6,6.3,10.7,13.9,13.6,22.2c1.5,4.1,2.4,8.4,3,12.7
				c0.6,4.3,0.7,8.7,0.4,13.1c-0.4,4.3-1.2,8.7-2.3,12.9c-1.1,4.2-2.6,8.3-4.5,12.3c-3.7,7.9-8.8,15.2-15.1,21.3
				c-6.3,6.1-13.7,11-21.8,14.4c-8.1,3.5-16.7,5.4-25.4,6.3l0.5-0.4l-20.4,135.3l0-0.2c0.1,2.2-0.1,4.3-0.4,6.5
				c-0.3,2.1-0.8,4.2-1.5,6.3c-1.4,4.1-3.8,8-7.4,10.7c-3.6,2.7-8.2,3.7-12.5,3.7l-12.6,0l-50.3,0.1l-100.7,0.2l-201.3,0.1
				L276.2,440l-100.7-0.1l-50.3-0.1l-12.6,0c-4.4,0-8.9-1.1-12.6-3.7c-3.7-2.7-6.1-6.7-7.5-10.8c-0.7-2.1-1.2-4.2-1.5-6.3
				c-0.3-2.2-0.5-4.3-0.4-6.5l0,0.2L70.1,277.4l0.8,0.8c-9.3-0.9-18.5-3.1-27.1-7c-8.5-3.9-16.3-9.4-22.7-16.2
				c-6.4-6.9-11.4-15-14.8-23.7c-1.7-4.4-3-8.9-3.8-13.5c-0.2-1.2-0.4-2.3-0.6-3.5c-0.2-1.1-0.3-2.3-0.4-3.5c-0.2-2.3-0.2-4.7-0.2-7
				c0.3-9.4,2.7-18.7,6.9-27c4.3-8.3,10.5-15.6,17.9-21.3c3.7-2.9,7.7-5.3,11.8-7.5c4.1-2.1,8.5-3.9,12.8-5.5
				c4.4-1.5,8.9-2.7,13.4-3.8c4.6-1,9.2-1.5,13.9-1.5c9.3,0,18.6,2.1,27.2,5.6c8.6,3.6,16.6,8.7,23.4,15c6.8,6.4,12.4,14,16.6,22.3
				c4.1,8.4,6.8,17.4,8.2,26.6c1.4,9.2,1.7,18.5,1.6,27.8c-0.2,9.3-0.8,18.5-1.7,27.8c-1.8,18.5-4.4,36.8-7.2,55.1l-0.6-0.7
				l165.9-0.4l82.9-0.2l82.9-0.1l82.9,0l82.9,0.1l82.9,0.2l82.9,0.3l-0.7,0.8c-3-19.4-5.7-38.9-7.4-58.5c-0.8-9.8-1.4-19.6-1.3-29.5
				c0.1-9.8,0.7-19.7,2.9-29.3c1.1-4.8,2.6-9.5,4.4-14.1c1.8-4.6,4.1-9,6.7-13.1c5.3-8.3,12.2-15.6,20.2-21.3
				c4-2.9,8.3-5.3,12.8-7.4c4.5-2,9.1-3.7,13.9-4.8c4.8-1.1,9.7-1.8,14.6-1.9C880.4,137.6,885.4,138.1,890.2,139.1z"/>
		</g>
	</g>
	<path class="st21" d="M146.9,312.8c0.1,55.5-2.9,52.3,69.1,52.3c79.2,0,89.2,7.3,94.2-48c4-43.9-38.3-34.6-88.6-39.5
		C165,272.2,146.8,292.4,146.9,312.8z"/>
	<path class="st21" d="M481.9,313.9c-0.1,55.7,3.1,52.6-74.3,52.6c-85.1,0-105.1,4.7-97.9-50.5c4.7-35.6,37.7-35.3,91.8-37.4
		C464.4,276.2,482,291.8,481.9,313.9z"/>
	<path class="st21" d="M482,313.9c0.1,55.7-3.1,52.6,74.3,52.6c85.1,0,97.3,5.3,97.9-50.5c0.5-42.9-37.8-32.5-91.8-37.4
		C501.5,273.1,481.9,290.4,482,313.9z"/>
	<path class="st21" d="M820.9,326c-0.1,55.7,8.6,39.1-68.8,39.1c-85.1,0-97.9,5.3-97.9-50.5c0-42.9,31.9-35.3,86.1-36.3
		C801.6,277.2,820.9,310.6,820.9,326z"/>
	<g>
		<path class="st23" d="M88.9,206.9c0.6,6.7-4.5,12.6-11.2,13.2c-6.7,0.6-11.2-4.5-11.7-11.2c-0.6-6.7,3.9-11,10.6-11.6
			C83.2,196.7,88.3,200.2,88.9,206.9z"/>
		<g>
			<path class="st13" d="M89,206.9c0,0,0,0.3,0,0.8c0,0.3,0,0.6,0,1c0,0.4,0,0.8-0.1,1.3c-0.1,1-0.4,2.2-1,3.5
				c-0.6,1.3-1.4,2.7-2.7,3.9c-1.3,1.2-3,2.3-5,2.8c-2,0.5-4.2,0.5-6.3-0.1c-2.1-0.7-4-2-5.4-3.9c-0.7-0.9-1.3-1.9-1.7-3
				c-0.5-1.1-0.8-2.2-1-3.3c-0.1-0.6-0.2-1.2-0.2-1.7c-0.1-0.6,0-1.2,0-1.8c0.1-1.2,0.4-2.4,0.8-3.5c1-2.2,2.8-3.9,4.8-4.9
				c2-1.1,4.2-1.5,6.2-1.5c2-0.1,4,0.3,5.6,1c1.6,0.7,2.9,1.8,3.8,3c0.9,1.1,1.3,2.3,1.7,3.3c0.1,0.2,0.1,0.5,0.2,0.7
				c0,0.2,0.1,0.4,0.1,0.6c0.1,0.4,0.1,0.7,0.2,1C89,206.6,89,206.9,89,206.9z M88.9,206.9c0,0,0-0.3-0.1-0.8c0-0.3-0.1-0.6-0.2-1
				c-0.1-0.4-0.2-0.8-0.4-1.3c-0.4-0.9-0.9-2-1.9-2.9c-0.9-1-2.2-1.8-3.8-2.3c-1.5-0.5-3.3-0.8-5.1-0.7c-1.9,0.1-3.8,0.5-5.6,1.4
				c-1.8,0.8-3.4,2.3-4.3,4.2c-0.5,0.9-0.8,2-0.9,3c-0.1,1-0.1,2.2,0,3.3c0.2,2.2,1,4.4,2.3,6.1c1.3,1.8,3.2,3,5.3,3.4
				c2,0.5,4,0.2,5.8-0.3c1.8-0.5,3.3-1.4,4.6-2.5c1.3-1,2.3-2.2,2.9-3.4c0.7-1.2,1.1-2.3,1.3-3.3c0.1-0.5,0.2-0.9,0.2-1.3
				c0-0.4,0-0.7,0-1C88.9,207.2,88.9,206.9,88.9,206.9z"/>
		</g>
	</g>
	<g>
		<path class="st23" d="M884.2,197.3c6.7,1,11.2,7.3,10.3,13.9s-7,9.8-13.6,8.9c-6.7-1-9.8-6.3-8.8-12.9S877.5,196.3,884.2,197.3z"
			/>
		<g>
			<path class="st13" d="M884.2,197.2c0,0,0.3,0.1,0.8,0.2c0.3,0,0.6,0.1,1,0.2c0.4,0.1,0.8,0.2,1.3,0.4c0.9,0.4,2.1,0.9,3.2,1.8
				c1.1,0.9,2.3,2,3.2,3.6c0.9,1.5,1.5,3.4,1.6,5.5c0,2-0.4,4.2-1.6,6.1c-1.1,1.9-2.9,3.4-5,4.4c-1,0.5-2.2,0.8-3.3,1
				c-1.1,0.2-2.3,0.3-3.5,0.2c-0.6,0-1.2-0.1-1.7-0.2c-0.6-0.1-1.1-0.2-1.7-0.4c-1.1-0.4-2.2-0.9-3.2-1.6c-1.9-1.4-3.2-3.6-3.7-5.8
				c-0.6-2.2-0.4-4.4,0-6.4c0.4-2,1.2-3.8,2.3-5.3c1.1-1.4,2.5-2.4,3.8-3c1.3-0.6,2.6-0.8,3.5-0.9c0.3,0,0.5,0,0.7,0
				c0.2,0,0.4,0,0.6,0c0.4,0,0.7,0,1,0.1C883.9,197.2,884.2,197.2,884.2,197.2z M884.2,197.3c0,0-0.3,0-0.8-0.1c-0.3,0-0.6,0-1,0
				c-0.4,0-0.8,0-1.3,0.1c-1,0.1-2.1,0.5-3.3,1.2c-1.2,0.7-2.2,1.8-3.1,3.1c-0.9,1.4-1.5,3-1.8,4.9c-0.3,1.9-0.4,3.8,0,5.8
				c0.4,2,1.5,3.8,3.1,5.2c0.8,0.7,1.8,1.2,2.8,1.6c1,0.4,2.1,0.6,3.2,0.8c2.2,0.3,4.5,0,6.5-0.8c2-0.9,3.7-2.5,4.5-4.3
				c0.9-1.8,1.1-3.9,1-5.7c-0.1-1.9-0.6-3.6-1.3-5c-0.7-1.5-1.6-2.7-2.6-3.6c-1-0.9-2-1.6-2.9-2c-0.4-0.2-0.9-0.4-1.2-0.5
				c-0.4-0.1-0.7-0.2-0.9-0.3C884.4,197.4,884.2,197.3,884.2,197.3z"/>
		</g>
	</g>
	<path class="st21" d="M823.5,350.7c0,28.5-29.7,25.3-278.4,24.8c-15.1,0-41-6.6-57.6-6.6c-11.9,0-30.2,6.6-59,6.6
		c-326.5,0-280.4,5.8-290.1-26.3c-8.8-29.2,55.9-24.9,286.3-21.3C635.4,331,823.5,314.1,823.5,350.7z"/>
	<g>
		<path class="st18" d="M137.6,319c0.1,57.6-3.1,54.3,74.3,54.3c85.1,0,97.9,5.5,97.9-52.1c0-50.7-37.8-33.6-91.8-38.6
			C157.1,276.9,137.6,297.8,137.6,319z"/>
		<path class="st23" d="M137.7,319c0,0,0,1.8,0,5.3c0,3.4,0,8.5,0.1,14.9c0.1,3.2,0.2,6.7,0.6,10.6c0.4,3.8,1,8,2.9,11.9
			c0.9,1.9,2.3,3.7,4.1,5.1c1.8,1.4,4,2.3,6.3,3c4.7,1.4,9.9,1.8,15.4,2c10.9,0.5,22.8,0.2,35.4,0.3c12.6,0,25.9,0.3,39.6,0.5
			c6.9,0.1,13.8,0.2,20.9,0.1c7-0.2,14.2-0.5,21.2-1.8c3.5-0.7,7-1.7,10.2-3.3c3.2-1.6,6-4,8-6.9c2-2.9,3.4-6.3,4.2-9.8
			c0.9-3.5,1.3-7.1,1.7-10.7c0.6-7.2,0.6-14.6,0.4-21.8c-0.2-3.6-0.6-7.2-1.3-10.6c-0.7-3.5-1.9-6.8-3.7-9.8c-1.7-3-4.2-5.4-7-7.2
			c-2.9-1.8-6.1-3-9.4-3.7c-6.7-1.5-13.7-1.7-20.5-1.7c-6.8,0-13.6,0.2-20.2,0.2c-6.6,0-13.1-0.1-19.4-0.4c-3.2-0.2-6.3-0.4-9.3-0.7
			c-3-0.3-6-0.5-8.9-0.7c-5.9-0.3-11.5-0.5-17-0.3c-10.9,0.3-20.9,1.7-29.2,4.7c-8.3,3-14.9,7.5-18.7,12.6c-3.9,5-5.3,10.1-5.8,13.4
			c-0.1,0.8-0.2,1.6-0.3,2.2c-0.1,0.6-0.1,1.2-0.1,1.6C137.7,318.6,137.7,319,137.7,319z M137.4,319c0,0,0-0.5,0-1.3
			c0-0.4,0-1,0.1-1.7c0-0.7,0.1-1.4,0.3-2.3c0.3-1.7,0.7-3.8,1.6-6.1c0.9-2.3,2.2-4.9,4.1-7.5c1.9-2.6,4.5-5.2,7.6-7.5
			c3.1-2.3,6.9-4.4,11.1-6.1c8.4-3.4,18.5-5.4,29.6-6c5.5-0.3,11.3-0.3,17.3,0c3,0.1,6,0.4,9.1,0.6c3,0.3,6.1,0.5,9.2,0.6
			c6.2,0.3,12.7,0.4,19.3,0.4c6.6,0,13.3-0.1,20.2,0c3.5,0.1,6.9,0.2,10.5,0.4c3.5,0.3,7.1,0.7,10.6,1.6c3.5,0.9,7.1,2.1,10.2,4.2
			c3.2,2.1,5.8,4.9,7.7,8.2c1.9,3.3,3,6.9,3.7,10.5c0.7,3.7,1,7.3,1.1,11c0.1,3.7-0.1,7.3-0.2,11c-0.1,3.7-0.4,7.3-0.8,11
			c-0.4,3.7-1,7.3-1.9,10.9c-1,3.6-2.3,7.1-4.5,10.1c-2.1,3.1-5.1,5.5-8.4,7.2c-3.3,1.7-6.8,2.7-10.4,3.4c-3.6,0.7-7.1,1.1-10.7,1.5
			c-3.6,0.3-7.1,0.5-10.7,0.7c-7.1,0.3-14.1,0.4-20.9,0.5c-13.7,0.1-27,0.2-39.6,0.3c-6.3,0-12.4,0.1-18.3,0
			c-5.9-0.1-11.7-0.2-17.2-0.6c-5.5-0.4-10.8-1-15.7-2.6c-2.4-0.8-4.8-1.9-6.7-3.5c-1.9-1.6-3.4-3.6-4.3-5.7
			c-1.9-4.2-2.3-8.5-2.6-12.3c-0.3-3.9-0.3-7.4-0.4-10.6C137.4,326.3,137.4,319,137.4,319z"/>
	</g>
	<g>
		<path class="st18" d="M481.9,319c-0.1,57.6,3.1,54.3-74.3,54.3c-85.1,0-105.1,4.9-97.9-52.1c4.7-36.7,37.8-33.6,91.8-38.6
			C462.5,276.9,482,289.8,481.9,319z"/>
		<path class="st23" d="M482.1,319c0,0,0,7.3,0,20.1c0,3.2-0.1,6.7-0.4,10.6c-0.3,3.8-0.7,8.1-2.6,12.3c-0.9,2.1-2.3,4.1-4.2,5.7
			c-1.9,1.6-4.2,2.7-6.6,3.6c-4.9,1.6-10.2,2.3-15.7,2.7c-5.5,0.4-11.2,0.6-17.1,0.6c-5.9,0.1-12,0.1-18.3,0
			c-12.6-0.1-25.8-0.2-39.5-0.3c-6.9-0.1-13.8-0.2-20.9-0.5c-7.1-0.3-14.2-0.7-21.3-1.8c-3.6-0.6-7.1-1.4-10.6-2.6
			c-3.4-1.2-6.8-3-9.5-5.6c-2.7-2.6-4.6-6-5.7-9.5c-1.2-3.5-1.7-7.2-1.9-10.9c-0.4-7.4,0.2-14.7,1-22c0.4-3.6,1.1-7.3,2.3-10.8
			c1.2-3.5,3-6.9,5.4-9.8c2.4-2.9,5.3-5.3,8.5-7.2c3.2-1.9,6.6-3.3,10-4.4c6.9-2.2,13.8-3.3,20.7-4.2c6.8-0.9,13.6-1.5,20.1-2
			c6.6-0.5,13-1,19.2-1.5c3.1-0.3,6.2-0.5,9.2-0.8c3.1-0.2,6.1-0.5,9-0.6c5.9-0.3,11.7-0.4,17.2-0.2c11,0.4,21.2,1.8,29.7,5.1
			c4.2,1.6,8,3.7,11,6.2c3,2.5,5.2,5.4,6.8,8.2c1.6,2.8,2.4,5.6,3,8c0.6,2.4,0.8,4.5,1,6.2c0.1,1.7,0.2,3,0.2,3.9
			C482.1,318.6,482.1,319,482.1,319z M481.8,319c0,0,0-0.5,0-1.3c0-0.9-0.1-2.2-0.2-3.9c-0.2-1.7-0.4-3.8-1-6.2
			c-0.6-2.4-1.5-5.1-3.1-7.8c-1.6-2.8-3.8-5.5-6.9-7.8c-3-2.3-6.7-4.2-10.9-5.6c-8.3-2.8-18.4-3.7-29.2-3.8c-5.4,0-11.1,0.2-17,0.6
			c-2.9,0.2-5.9,0.4-8.9,0.7c-3,0.3-6.1,0.6-9.2,0.9c-12.5,1.2-25.8,1.8-39.3,3.3c-6.7,0.8-13.6,1.8-20.2,3.8
			c-6.6,2-13,5.2-17.4,10.5c-4.5,5.3-6.8,12.2-7.7,19.3c-1,7.2-1.8,14.4-1.5,21.7c0.2,3.6,0.6,7.2,1.6,10.6c1.1,3.4,2.8,6.6,5.4,9.1
			c2.5,2.5,5.7,4.3,9.1,5.5c3.4,1.3,6.9,2,10.4,2.6c7.1,1.1,14.2,1.4,21.2,1.5c7,0.1,14,0,20.8-0.1c6.8-0.1,13.6-0.2,20.2-0.4
			c6.6-0.1,13-0.1,19.3-0.1c12.6,0,24.4,0.2,35.3-0.3c5.4-0.3,10.6-0.7,15.3-2.1c2.3-0.7,4.5-1.7,6.3-3.1c1.8-1.4,3.1-3.2,4.1-5.1
			c1.9-3.9,2.5-8.1,2.9-11.9c0.4-3.8,0.5-7.4,0.6-10.5c0.2-6.4,0.1-11.4,0.1-14.8C481.8,320.8,481.8,319,481.8,319z"/>
	</g>
	<g>
		<path class="st18" d="M482,319c0,57.6-3.1,54.3,74.3,54.3c85.1,0,91.6,5,97.9-52.1c5.5-50.1-37.8-33.6-91.8-38.6
			C501.5,276.9,482,291.8,482,319z"/>
		<path class="st23" d="M482.1,319c0,0,0,1.8,0,5.3c0,3.4,0,8.5,0.1,14.9c0.1,3.2,0.2,6.8,0.6,10.6c0.4,3.8,1,8,3,11.9
			c1,1.9,2.4,3.7,4.2,5.1c1.8,1.4,4,2.3,6.3,3c4.7,1.3,10,1.7,15.4,2c10.9,0.4,22.9,0.2,35.5,0.2c12.6,0,25.9,0.3,39.7,0.5
			c6.9,0.1,13.9,0.2,20.9,0c7.1-0.2,14.2-0.6,21.2-2.4c3.5-0.9,6.8-2.3,9.7-4.4c2.9-2.1,5.2-4.9,6.9-8.1c1.7-3.2,2.8-6.6,3.7-10.2
			c0.9-3.5,1.5-7.1,2-10.8c0.5-3.6,1-7.3,1.3-10.9c0.4-3.6,0.8-7.3,0.8-10.9c0-3.6-0.2-7.2-0.9-10.6c-0.8-3.4-2.1-6.7-4.2-9.3
			c-2.1-2.7-5-4.6-8.1-6c-3.1-1.4-6.5-2.2-9.9-2.7c-6.9-1.1-13.8-1.2-20.7-1.2c-13.7,0.1-27.1,0.4-39.8-0.5
			c-3.2-0.2-6.3-0.5-9.3-0.8c-3-0.3-6-0.5-9-0.7c-5.9-0.4-11.6-0.6-17.1-0.5c-10.9,0.1-21,1.1-29.4,4c-4.2,1.4-7.9,3.3-11,5.5
			c-3.1,2.3-5.5,4.9-7.2,7.6c-1.7,2.7-2.7,5.4-3.4,7.8c-0.7,2.4-1,4.5-1.2,6.2c-0.2,1.7-0.2,3-0.3,3.9
			C482.1,318.6,482.1,319,482.1,319z M481.8,319c0,0,0-0.5,0-1.4c0-0.9,0.1-2.2,0.2-3.9c0.2-1.7,0.5-3.8,1.1-6.3
			c0.7-2.4,1.6-5.2,3.3-8c1.7-2.8,4-5.6,7.1-8c3.1-2.4,6.8-4.5,11.1-6.1c8.5-3.2,18.7-4.8,29.8-5.2c5.5-0.2,11.3-0.1,17.3,0.2
			c3,0.2,6,0.4,9.1,0.6c3.1,0.3,6.1,0.5,9.3,0.7c6.3,0.3,12.7,0.5,19.3,0.5c6.6,0,13.4,0,20.3,0c6.9,0.1,14,0.3,21.1,1.4
			c3.6,0.6,7.2,1.5,10.6,3c3.4,1.5,6.6,3.8,9,6.9c2.4,3,3.8,6.7,4.5,10.4c0.8,3.7,0.9,7.4,0.7,11.2c-0.2,3.7-0.7,7.4-1.1,11
			c-0.5,3.6-1,7.3-1.6,10.9c-0.6,3.6-1.3,7.3-2.3,10.8c-1,3.6-2.2,7.1-3.9,10.4c-1.8,3.3-4.2,6.2-7.2,8.4c-3,2.2-6.5,3.5-10,4.5
			c-3.5,0.9-7.1,1.5-10.7,1.9c-3.6,0.4-7.1,0.6-10.7,0.8c-7.1,0.4-14.1,0.5-21,0.6c-13.8,0.1-27.1,0.2-39.7,0.3
			c-6.3,0-12.4,0.1-18.4,0c-5.9-0.1-11.7-0.2-17.2-0.6c-5.5-0.4-10.9-1-15.8-2.6c-2.4-0.8-4.8-1.9-6.7-3.5c-1.9-1.6-3.4-3.6-4.4-5.7
			c-1.9-4.2-2.3-8.5-2.7-12.4c-0.3-3.9-0.3-7.4-0.4-10.7C481.8,326.4,481.8,319,481.8,319z"/>
	</g>
	<g>
		<path class="st18" d="M826.4,319c-0.1,57.6,3.1,54.3-74.3,54.3c-85.1,0-97.9,5.5-97.9-52.1c0-51.4,37.8-33.6,91.8-38.6
			C806.9,276.9,826.4,303.1,826.4,319z"/>
		<path class="st23" d="M826.5,319c0,0,0,7.3,0,20.1c0,3.2-0.1,6.7-0.4,10.6c-0.3,3.8-0.7,8.1-2.6,12.3c-0.9,2.1-2.3,4.1-4.2,5.7
			c-1.9,1.6-4.2,2.8-6.6,3.6c-4.9,1.6-10.2,2.3-15.7,2.7c-5.5,0.4-11.2,0.6-17.1,0.6c-5.9,0.1-12,0.1-18.3,0
			c-12.5-0.1-25.8-0.2-39.5-0.3c-6.8-0.1-13.8-0.2-20.9-0.5c-3.5-0.1-7.1-0.3-10.6-0.6c-3.6-0.3-7.1-0.7-10.7-1.4
			c-3.5-0.7-7.1-1.7-10.4-3.3c-3.3-1.6-6.3-3.9-8.6-6.9c-2.2-3-3.7-6.5-4.7-10c-1-3.6-1.6-7.2-2-10.9c-0.8-7.3-1-14.6-1-21.9
			c0.1-3.7,0.3-7.4,0.9-11c0.6-3.6,1.7-7.3,3.4-10.6c1.7-3.3,4.2-6.3,7.3-8.5c3.1-2.2,6.6-3.6,10.1-4.6c7.1-1.8,14.2-2.1,21-2.2
			c6.9-0.1,13.6,0,20.2,0.1c6.6,0.1,13,0,19.2-0.3c3.1-0.1,6.2-0.3,9.2-0.6c1.5-0.1,3-0.2,4.5-0.3c1.5-0.1,3-0.2,4.5-0.3
			c6-0.3,11.7-0.2,17.2,0.2c11,0.8,21.1,3.1,29.3,6.7c8.3,3.5,14.7,8.4,18.8,13.3c4.2,4.9,6.1,9.8,6.9,13.1c0.2,0.8,0.3,1.6,0.4,2.2
			c0.1,0.7,0.1,1.2,0.2,1.6C826.5,318.6,826.5,319,826.5,319z M826.2,319c0,0,0-0.5-0.1-1.3c0-0.4-0.1-1-0.2-1.6
			c-0.1-0.6-0.2-1.4-0.4-2.2c-0.8-3.3-2.8-8-7-12.8c-4.2-4.8-10.7-9.2-19-12.3c-8.2-3.1-18.1-4.9-28.9-5.4
			c-5.4-0.3-11.1-0.2-16.9,0.2c-1.4,0.1-2.9,0.2-4.4,0.3c-1.5,0.1-3,0.3-4.5,0.4c-3.1,0.3-6.2,0.5-9.3,0.7
			c-6.3,0.3-12.8,0.3-19.4,0.3c-6.6,0-13.3-0.3-20.1-0.3c-6.8,0.1-13.7,0.2-20.4,1.9c-3.3,0.8-6.5,2.1-9.2,4c-2.8,1.9-5,4.5-6.6,7.5
			c-1.6,3-2.7,6.4-3.3,9.9c-0.7,3.5-1,7.1-1.2,10.6c-0.2,7.2-0.1,14.5,0.5,21.8c0.3,3.6,0.8,7.2,1.8,10.7c0.9,3.5,2.3,6.8,4.4,9.7
			c2.1,2.9,4.9,5.1,8.1,6.7c3.2,1.6,6.7,2.5,10.2,3.2c7,1.3,14.2,1.6,21.2,1.7c7,0.1,14,0,20.8-0.1c6.8-0.1,13.6-0.3,20.2-0.4
			c6.6-0.1,13-0.2,19.3-0.2c12.5,0,24.4,0.2,35.3-0.3c5.4-0.3,10.6-0.7,15.3-2.1c2.3-0.7,4.5-1.7,6.3-3.1c1.8-1.4,3.1-3.2,4.1-5.1
			c1.9-3.9,2.5-8.1,2.9-11.9c0.4-3.8,0.5-7.3,0.6-10.5c0.2-6.4,0.1-11.4,0.1-14.8C826.2,320.8,826.2,319,826.2,319z"/>
	</g>
</g>
<g id="Tresits">
</g>
</svg>
