<?xml version="1.0" encoding="utf-8"?>
<!-- Generator: Adobe Illustrator 19.2.0, SVG Export Plug-In . SVG Version: 6.00 Build 0)  -->
<svg version="1.1" xmlns="http://www.w3.org/2000/svg" xmlns:xlink="http://www.w3.org/1999/xlink" x="0px" y="0px"
	 viewBox="0 0 955 480" style="enable-background:new 0 0 955 480;" xml:space="preserve">
<style type="text/css">
	.st0{display:none;}
	.st1{fill:#A55B16;}
	.st2{fill:#894B16;}
	.st3{fill:#6D7F3B;}
	.st4{fill:#5E6E30;}
	.st5{opacity:0.4;fill:#5E6E30;}
	.st6{fill:#6D843A;}
	.st7{opacity:0.7;}
	.st8{fill:#56642B;}
	.st9{fill:#798E41;}
	.st10{fill:#6C7C35;}
	.st11{opacity:0.4;}
	.st12{fill:url(#SVGID_1_);}
	.st13{fill:#E09D20;}
	.st14{fill:#7F4F12;}
	.st15{fill:#563A1C;}
	.st16{opacity:0.8;fill:#FFFFFF;}
	.st17{fill:url(#SVGID_2_);}
	.st18{fill:#FFD941;}
	.st19{fill:#F7A60B;}
	.st20{opacity:0.6;fill:#FAB722;}
	.st21{opacity:0.4;fill:#EFAF12;}
	.st22{fill:#FECD41;}
	.st23{fill:#FAB722;}
	.st24{fill:url(#SVGID_3_);}
	.st25{fill:url(#SVGID_4_);}
	.st26{opacity:0.6;fill:#563A1C;}
	.st27{fill:#5E71A3;}
	.st28{fill:#354366;}
	.st29{fill:#495682;}
	.st30{fill:#58699F;}
	.st31{fill:#6579AB;}
</style>
<g id="Lager_3" class="st0">
</g>
<g id="Tvåsits">
</g>
<g id="Fyrsits">
	<g>
		<g>
			<g>
				<path class="st14" d="M135.4,435c0,0-9.2,32.9-10.3,37.8c-1.9,7.8,10.1,9.8,14.2,3c3.4-5.6,25.2-41.1,25.2-41.1L135.4,435z"/>
				<path class="st15" d="M135.4,435.1c-1,4.4-2.1,8.7-3.2,13c-0.5,2.2-1.1,4.3-1.7,6.5l-1.7,6.5c-0.6,2.2-1.2,4.3-1.8,6.5l-1,3.2
					c-0.3,1.1-0.7,2.2-0.8,3.2c-0.1,1,0.1,2.1,0.7,3c0.6,0.9,1.4,1.6,2.4,2c2,0.9,4.3,0.9,6.4,0.2c1-0.4,2-1,2.8-1.7
					c0.8-0.7,1.4-1.6,2-2.6c1.2-1.9,2.3-3.9,3.4-5.8c2.3-3.9,4.5-7.8,6.8-11.6l6.9-11.6c2.3-3.8,4.7-7.7,7.1-11.5l0.6,1.1l-7.3,0
					l-7.3-0.1C145.1,435.4,140.2,435.3,135.4,435.1z M135.4,435c4.8-0.2,9.7-0.4,14.5-0.5l7.3-0.2l7.3-0.1l1.3,0l-0.7,1.1
					c-2.3,3.9-4.7,7.7-7,11.5l-7.1,11.4c-2.4,3.8-4.8,7.6-7.3,11.4c-1.2,1.9-2.4,3.8-3.6,5.7c-0.6,0.9-1.2,2-2.1,2.7
					c-0.9,0.8-1.9,1.4-3,1.7c-1.1,0.4-2.2,0.6-3.4,0.6c-1.2,0-2.3-0.2-3.4-0.6c-1.1-0.4-2.1-1.1-2.8-2.1c-0.7-1-1-2.2-1-3.4
					c0.1-1.2,0.4-2.3,0.7-3.4l0.8-3.3c0.6-2.2,1.1-4.3,1.7-6.5l1.8-6.5c0.6-2.2,1.2-4.3,1.9-6.5C132.6,443.6,133.9,439.3,135.4,435
					L135.4,435L135.4,435z"/>
			</g>
			<ellipse class="st15" cx="147.2" cy="438.1" rx="14.6" ry="9.1"/>
			<path class="st26" d="M146.7,444.5c-4.6,6.3-14.2,28.6-15.5,31.6c-2.1,4.6,4,5.2,7.4,0.7c3.5-4.6,20.6-33.5,20.6-33.5
				L146.7,444.5z"/>
		</g>
		<g>
			<g>
				<path class="st14" d="M821.9,435c0,0,9.2,32.9,10.3,37.8c1.9,7.8-10.1,9.8-14.2,3c-3.4-5.6-25.2-41.1-25.2-41.1L821.9,435z"/>
				<path class="st15" d="M822,435c1.4,4.3,2.7,8.6,3.9,12.9c0.7,2.2,1.2,4.3,1.9,6.5l1.8,6.5c0.6,2.2,1.2,4.3,1.7,6.5l0.8,3.3
					c0.2,1.1,0.6,2.2,0.7,3.4c0.1,1.2-0.3,2.5-1,3.4c-0.7,1-1.7,1.7-2.8,2.1c-1.1,0.4-2.2,0.6-3.4,0.6c-1.2,0-2.3-0.2-3.4-0.6
					c-1.1-0.4-2.1-1-3-1.7c-0.9-0.7-1.5-1.8-2.1-2.7c-1.2-1.9-2.4-3.8-3.6-5.7c-2.4-3.8-4.9-7.6-7.3-11.4l-7.1-11.4
					c-2.4-3.8-4.7-7.7-7-11.5l-0.7-1.1l1.3,0l7.3,0.1l7.3,0.2C812.3,434.6,817.1,434.7,822,435L822,435L822,435z M821.9,435.1
					c-4.8,0.2-9.6,0.2-14.5,0.3l-7.3,0.1l-7.3,0l0.6-1.1c2.4,3.8,4.7,7.6,7.1,11.5l6.9,11.6c2.3,3.9,4.6,7.7,6.8,11.6
					c1.1,1.9,2.3,3.9,3.4,5.8c0.6,1,1.1,1.9,2,2.6c0.8,0.7,1.8,1.3,2.8,1.7c2.1,0.7,4.4,0.7,6.4-0.2c1-0.4,1.9-1.1,2.4-2
					c0.6-0.9,0.8-1.9,0.7-3c-0.1-1-0.5-2.1-0.8-3.2l-1-3.2c-0.6-2.2-1.2-4.3-1.8-6.5l-1.7-6.5c-0.6-2.2-1.2-4.3-1.7-6.5
					C823.9,443.8,822.9,439.5,821.9,435.1z"/>
			</g>
			<ellipse class="st15" cx="810.1" cy="438.1" rx="14.6" ry="9.1"/>
			<path class="st26" d="M810.6,444.5c4.6,6.3,14.2,28.6,15.5,31.6c2.1,4.6-4,5.2-7.4,0.7c-3.5-4.6-20.6-33.5-20.6-33.5L810.6,444.5
				z"/>
		</g>
	</g>
	<g>
		<path class="st27" d="M816.8,303.9c-36.2,59.8-64.3,51.3-134.3,42.6c-17-2.1-97.7-6.1-95.3-41.1c17.4-247.3-2.2-268,155.5-263.9
			S927.6,120.7,816.8,303.9z"/>
		<path class="st28" d="M816.9,304c0,0-0.5,0.8-1.5,2.5c-0.5,0.8-1.1,1.8-1.9,3c-0.8,1.2-1.7,2.6-2.7,4.1c-1,1.6-2.3,3.2-3.6,5.1
			c-0.7,0.9-1.4,1.9-2.2,2.9c-0.8,1-1.5,2-2.4,3.1c-3.4,4.2-7.6,8.8-12.9,13.3c-0.7,0.5-1.4,1.1-2.1,1.7c-0.7,0.6-1.5,1.1-2.2,1.6
			c-1.5,1.1-3.1,2.1-4.7,3.1c-3.3,1.9-7,3.7-11,5.1c-8,2.7-17.1,4-26.8,4c-9.7,0-20-0.9-30.8-2.1c-10.8-1.2-22.1-2.7-33.9-4
			c-11.8-1.1-24.2-2.3-36.9-4.6c-6.3-1.1-12.8-2.6-19.2-4.4c-6.4-1.9-12.8-4.2-18.9-7.6c-1.5-0.8-3-1.7-4.5-2.7
			c-1.5-1-2.9-2.1-4.2-3.3c-2.7-2.4-5-5.2-6.6-8.6c-1.6-3.3-2.2-7.2-1.9-10.9c0.3-3.5,0.5-7.1,0.8-10.6c1.1-14.3,2.1-28.8,3.1-43.7
			c2.1-29.7,3.7-60.3,6.3-91.5c1.3-15.6,2.8-31.2,5.6-46.8c1.4-7.8,3.2-15.5,5.7-23.1c2.5-7.5,5.8-15,10.6-21.5
			c4.7-6.5,10.9-12,18-15.8c3.5-1.9,7.2-3.5,11-4.8c3.8-1.3,7.7-2.3,11.5-3.2c7.8-1.6,15.7-2.6,23.6-3.2c7.9-0.6,15.7-0.9,23.5-1.1
			c7.8-0.1,15.6-0.1,23.4,0c7.7,0.1,15.4,0.3,23.1,0.6c15.3,0.6,30.5,2.1,45.2,4.8c14.7,2.7,29,6.7,42.1,13
			c6.5,3.2,12.7,6.9,18.3,11.4l2.1,1.7l2,1.8c1.3,1.2,2.5,2.5,3.8,3.7c2.4,2.6,4.7,5.3,6.6,8.2c2,2.8,3.7,5.9,5.3,8.9l1.1,2.3
			l0.5,1.2l0.5,1.2l0.9,2.4c0.3,0.8,0.5,1.6,0.8,2.4c2.1,6.4,3.3,13,3.8,19.5c1,13-0.5,25.5-2.8,37.3c-0.6,2.9-1.3,5.8-1.9,8.7
			c-0.8,2.8-1.5,5.6-2.3,8.4c-1.6,5.5-3.4,10.8-5.2,15.9c-3.7,10.2-7.7,19.7-11.6,28.6c-7.9,17.7-15.9,32.5-22.5,44.7
			c-6.7,12.2-12.2,21.6-16,28C819,300.6,816.9,304,816.9,304z M816.7,303.8c0,0,2-3.4,5.8-9.8c3.7-6.4,9.2-15.9,15.8-28.1
			c1.7-3,3.3-6.3,5.1-9.7c1.7-3.4,3.5-7,5.4-10.7c3.7-7.5,7.5-15.7,11.3-24.6c7.5-17.7,15.3-38.2,19.8-61.4
			c2.2-11.6,3.5-23.9,2.4-36.5c-0.6-6.3-1.7-12.6-3.8-18.8c-0.3-0.8-0.5-1.5-0.8-2.3l-0.9-2.3l-0.4-1.1l-0.5-1.1l-1-2.2
			c-1.5-2.9-3.1-5.8-5.1-8.5c-1.9-2.8-4.1-5.3-6.3-7.8c-1.2-1.2-2.3-2.4-3.6-3.5l-1.9-1.7l-2-1.6c-5.3-4.3-11.3-7.9-17.7-11
			c-12.7-6.1-26.8-10-41.3-12.8c-29.1-5.5-59.9-5.7-91-5.8c-7.8,0.1-15.6,0.3-23.4,0.8c-7.8,0.5-15.6,1.4-23.3,3
			c-3.8,0.8-7.6,1.7-11.3,3c-3.7,1.2-7.3,2.7-10.8,4.6c-6.9,3.6-12.9,8.8-17.6,15.1c-4.7,6.3-8,13.5-10.6,20.9
			c-2.5,7.5-4.4,15.1-5.9,22.9c-2.9,15.5-4.5,31.2-5.8,46.7c-1.3,15.5-2.2,31-3.1,46.3c-0.9,15.3-1.6,30.4-2.4,45.2
			c-0.8,14.8-1.6,29.4-2.5,43.7c-0.2,3.6-0.4,7.1-0.7,10.7c-0.2,3.4,0.3,6.7,1.8,9.6c1.4,3,3.5,5.6,6,7.8c2.5,2.2,5.3,4,8.2,5.6
			c5.9,3.2,12.2,5.4,18.5,7.3c6.3,1.8,12.6,3.2,18.9,4.4c12.5,2.4,24.8,3.7,36.7,4.9c6,0.6,11.7,1.5,17.3,2.2
			c5.6,0.8,11.1,1.5,16.5,2.2c10.7,1.4,20.9,2.5,30.6,2.6c9.6,0.2,18.6-0.9,26.5-3.5c3.9-1.3,7.6-3,10.9-4.8c1.6-1,3.2-1.9,4.7-3
			c0.7-0.5,1.5-1,2.2-1.6c0.7-0.6,1.4-1.1,2.1-1.6c5.4-4.4,9.5-9,12.9-13.1c0.9-1,1.7-2,2.4-3c0.8-1,1.5-1.9,2.2-2.8
			c1.3-1.9,2.6-3.5,3.6-5.1c1-1.5,1.9-2.9,2.7-4.1c0.8-1.2,1.4-2.2,1.9-3C816.1,304.7,816.7,303.8,816.7,303.8z"/>
	</g>
	<g>
		<path class="st27" d="M134.9,303.9c35.7,59.8,63.4,51.3,132.4,42.6c16.8-2.1,96.3-6.1,93.9-41.1C344,58.1,363.3,37.4,207.9,41.5
			S25.6,120.7,134.9,303.9z"/>
		<path class="st28" d="M135,303.8c0,0,0.5,0.8,1.5,2.5c0.5,0.8,1.1,1.8,1.9,3c0.8,1.2,1.7,2.5,2.7,4.1c1,1.5,2.2,3.2,3.5,5.1
			c0.7,0.9,1.4,1.9,2.1,2.8c0.7,1,1.5,2,2.4,3c3.4,4.1,7.5,8.8,12.8,13.1c1.3,1.1,2.7,2.2,4.2,3.2c1.4,1.1,3,2,4.6,3
			c3.3,1.9,6.9,3.5,10.8,4.8c7.8,2.6,16.8,3.6,26.4,3.4c9.6-0.1,19.7-1.3,30.3-2.7c5.3-0.7,10.8-1.5,16.4-2.3
			c5.6-0.8,11.3-1.6,17.2-2.2c11.7-1.2,23.9-2.6,36.4-5c6.2-1.2,12.5-2.6,18.7-4.5c6.2-1.9,12.4-4.2,18.2-7.5c2.9-1.7,5.6-3.6,8-5.9
			c2.4-2.3,4.3-5,5.6-8c0.6-1.5,1-3.1,1.2-4.7c0.1-0.8,0.1-1.6,0.1-2.5l0-1.2l-0.1-1.3c-0.2-3.5-0.4-7-0.6-10.6
			c-0.9-14.2-1.7-28.7-2.4-43.4c-0.8-14.7-1.5-29.7-2.4-44.9c-0.9-15.2-1.8-30.5-3-46c-1.3-15.4-2.9-31-5.7-46.4
			c-1.4-7.7-3.3-15.3-5.7-22.8c-1.3-3.7-2.7-7.3-4.4-10.9c-1.7-3.5-3.7-6.9-5.9-10c-2.3-3.1-4.9-6-7.8-8.6c-2.9-2.6-6.1-4.8-9.5-6.6
			c-3.4-1.9-7-3.4-10.6-4.6c-3.7-1.2-7.4-2.2-11.2-3c-7.6-1.6-15.3-2.5-23.1-3c-7.7-0.6-15.5-0.8-23.2-0.8
			c-30.9,0-61.6,0.3-90.4,5.9c-14.4,2.8-28.3,6.8-40.9,13.1c-12.5,6.2-23.5,15-30.8,26.1c-3.7,5.5-6.4,11.5-8.3,17.6
			c-1.9,6.1-2.9,12.5-3.5,18.7c-0.5,6.3-0.4,12.5,0.1,18.5c0.5,6.1,1.3,12,2.4,17.8c4.5,23.1,12.1,43.5,19.5,61.1
			c3.7,8.8,7.5,17,11.1,24.5c1.8,3.7,3.6,7.3,5.3,10.7c1.7,3.4,3.4,6.6,5,9.6c6.5,12.2,11.8,21.6,15.5,28
			C133,300.4,135,303.8,135,303.8z M134.8,304c0,0-2-3.4-5.8-9.7c-3.7-6.4-9.2-15.7-15.7-27.9c-6.5-12.2-14.3-27-22.1-44.5
			c-3.9-8.8-7.8-18.2-11.4-28.4c-1.8-5.1-3.5-10.4-5.1-15.8c-1.6-5.4-3-11.1-4.2-16.9c-1.2-5.8-2.2-11.8-2.7-18
			c-0.6-6.2-0.7-12.5-0.3-19c0.4-6.4,1.5-13,3.5-19.4c2-6.4,4.8-12.7,8.6-18.5c3.8-5.8,8.5-11.1,14-15.6c5.4-4.5,11.5-8.4,17.9-11.6
			c12.9-6.5,27.1-10.6,41.7-13.3c14.6-2.7,29.6-4.2,44.9-4.9c7.6-0.3,15.3-0.5,23-0.6c7.7-0.1,15.4-0.2,23.2,0
			c7.8,0.1,15.6,0.4,23.4,1.1c7.8,0.6,15.6,1.6,23.4,3.3c3.9,0.9,7.7,1.9,11.5,3.2c3.7,1.3,7.4,3,10.9,4.9c3.5,2,6.8,4.3,9.7,7
			c3,2.7,5.6,5.7,7.9,9c2.3,3.3,4.3,6.7,6,10.3c1.7,3.6,3.1,7.3,4.3,11.1c2.4,7.5,4.1,15.2,5.5,23c2.7,15.5,4.2,31.1,5.5,46.5
			c2.5,30.9,4.1,61.4,6.1,90.8c1,14.7,2,29.2,3,43.4c0.3,3.5,0.5,7.1,0.8,10.6l0.1,1.3l0.1,1.4c0,0.9,0,1.9-0.1,2.8
			c-0.2,1.8-0.6,3.7-1.3,5.4c-1.4,3.4-3.6,6.4-6.1,8.9c-2.6,2.5-5.4,4.5-8.4,6.3c-6,3.5-12.4,5.9-18.7,7.8c-6.4,1.9-12.7,3.4-19,4.6
			c-12.6,2.3-24.9,3.6-36.6,4.7c-11.7,1.3-22.9,2.8-33.6,4c-10.7,1.2-20.9,2.2-30.6,2.1c-9.6,0-18.7-1.2-26.6-4
			c-3.9-1.4-7.6-3.2-10.9-5.1c-1.6-1-3.2-2-4.7-3.1c-1.5-1-2.9-2.2-4.2-3.3c-5.3-4.4-9.4-9.1-12.7-13.3c-0.9-1-1.6-2.1-2.4-3.1
			c-0.7-1-1.5-1.9-2.1-2.9c-1.3-1.9-2.5-3.5-3.5-5.1c-1-1.5-1.9-2.9-2.7-4.1c-0.7-1.2-1.4-2.2-1.8-3
			C135.3,304.8,134.8,304,134.8,304z"/>
	</g>
	<path class="st29" d="M602.9,298.8c-16.9,69.9-61.5,45.4-130,45.4s-99.9-0.6-111.6-36.3c-79.7-241.8-41.4-294.2,116-294.2
		C652.3,13.7,662.3,54.1,602.9,298.8z"/>
	<g>
		<path class="st27" d="M599.7,297.8c-19.8,88.5-61,52.4-127.7,52.4s-97-6.7-108.5-43.1C286,60.5,320,2.2,473.2,2.2
			C643.5,2.2,656.3,44,599.7,297.8z"/>
		<path class="st28" d="M599.8,297.8c0,0-0.2,1.1-0.7,3.1c-0.5,2.1-1.2,5.1-2.3,9.1c-1.1,3.9-2.6,8.8-4.8,14.3
			c-1.1,2.8-2.4,5.7-4,8.7c-1.6,3-3.5,6.1-5.9,9.2c-1.2,1.5-2.5,3-3.9,4.4c-1.5,1.4-3,2.8-4.8,4c-3.5,2.4-7.5,4.4-12,5.6
			c-4.5,1.2-9.3,1.7-14.3,1.8c-5,0.1-10.2-0.4-15.5-0.9c-10.6-1.2-21.8-3.1-33.6-4.3c-5.9-0.6-12-1.1-18.2-1.3
			c-6.2-0.2-12.6,0-19.2-0.1c-13.1-0.2-26.8-0.6-40.9-2.4c-7-1-14.2-2.3-21.2-4.7c-7-2.4-14-5.8-19.8-10.8
			c-5.9-5-10.5-11.6-13.5-18.9c-0.8-1.8-1.5-3.6-2.1-5.5c-0.6-1.9-1.2-3.7-1.7-5.6c-1.1-3.7-2.3-7.5-3.4-11.3
			c-4.5-15.1-8.9-30.6-13.1-46.5c-4.2-15.9-8-32.1-11.5-48.6c-3.4-16.5-6.4-33.4-8.2-50.5c-1.9-17.1-2.8-34.5-1.1-51.9
			c0.9-8.7,2.4-17.4,4.9-25.8c2.6-8.4,6.2-16.5,11.2-23.8c4.9-7.3,11.2-13.8,18.3-19c7.1-5.3,15-9.3,23.2-12.5
			c8.2-3.2,16.7-5.5,25.2-7.2c8.5-1.7,17.1-2.9,25.7-3.8c17.2-1.7,34.3-2,51.2-1.8c16.9,0.2,33.6,0.8,50,2.5
			c16.3,1.8,32.5,4.7,47.4,10.6c7.4,3,14.5,6.8,20.7,11.7c6.2,4.8,11.5,10.7,15.6,17.2c4.1,6.5,7,13.6,9.1,20.7
			c2.1,7.1,3.4,14.3,4.1,21.4c1.5,14.2,1.2,28,0.3,41.1c-0.8,13.1-2.4,25.6-4.1,37.5c-1.7,11.8-3.6,23-5.5,33.5
			c-3.8,21-7.7,39.1-10.8,54.1c-3.2,15-5.8,26.7-7.6,34.7C600.8,293.6,599.8,297.8,599.8,297.8z M599.5,297.8c0,0,0.9-4.3,2.7-12.3
			c1.7-8,4.3-19.7,7.3-34.7c1.5-7.5,3.2-15.8,4.9-24.8c1.7-9.1,3.5-18.9,5.2-29.4c3.4-21,6.9-44.8,8.4-70.9
			c0.7-13,0.8-26.7-0.8-40.6c-0.8-6.9-2-14-4.1-20.8c-2-6.9-4.8-13.6-8.8-19.8c-3.9-6.2-9-11.8-14.9-16.4
			c-5.9-4.6-12.7-8.3-19.9-11.2c-7.2-2.9-14.8-5-22.6-6.7c-7.8-1.7-15.8-2.9-23.9-3.8c-16.2-1.8-32.8-2.5-49.6-2.7
			c-16.8-0.2-33.9,0-50.9,1.5c-17,1.6-34.2,4.4-50.4,10.5c-8.1,3-15.8,6.9-22.8,12c-7,5-13.2,11.2-18.1,18.3
			c-4.9,7.1-8.6,15-11.2,23.3c-2.6,8.3-4.2,16.8-5.1,25.5c-1.7,17.3-0.9,34.7,0.9,51.7c3.9,34.1,11.8,67.2,20.5,98.7
			c4.4,15.8,8.9,31.2,13.6,46.2c1.2,3.8,2.4,7.5,3.5,11.2c0.6,1.8,1.2,3.7,1.8,5.5c0.6,1.8,1.3,3.6,2,5.3c3,6.9,7.3,13.1,12.9,17.9
			c5.6,4.7,12.2,8,19,10.2c6.8,2.2,13.8,3.7,20.7,4.7c13.9,2,27.5,2.5,40.6,2.7c3.3,0,6.5,0.1,9.7,0.1c3.2,0,6.4,0.1,9.5,0.2
			c6.3,0.3,12.4,0.9,18.4,1.6c11.9,1.5,23,3.5,33.6,4.9c5.3,0.7,10.4,1.1,15.3,1.2c4.9,0,9.7-0.4,14.1-1.5c4.4-1.1,8.5-3,11.9-5.4
			c1.7-1.2,3.3-2.5,4.7-3.9c1.4-1.4,2.7-2.9,3.9-4.3c2.4-3,4.3-6.1,5.9-9c1.6-3,2.9-5.9,4-8.6c2.2-5.5,3.8-10.3,4.9-14.2
			c1.1-3.9,1.9-7,2.4-9C599.3,298.8,599.5,297.8,599.5,297.8z"/>
	</g>
	<path class="st29" d="M882.7,137.9c-51-2.1-75.4,29.6-85,71.6c-8.3,36.4,2.5,91.2,2.5,91.2l17.8,10.5L882.7,137.9z"/>
	<path class="st29" d="M72.6,137.9c51-2.1,75.4,29.6,85,71.6c8.3,36.4-2.5,91.2-2.5,91.2l-17.8,10.5L72.6,137.9z"/>
	<g>
		<path class="st30" d="M890.2,139.3c-29.7-6.5-68.8,10.1-83.3,48.6c-8.1,21.3-10.4,48.4,2.5,129.6c-138.6,0-524.9,0-663.6,0
			c12.8-81.2,10.5-108.3,2.5-129.6c-14.6-38.5-53.7-55.1-83.3-48.6C9.4,151.4-0.3,190.2,2.5,212.9C6,242,27.5,273.2,71,277.3
			l20.8,135.3c0,0-1.4,26,20.8,26c18.7,0,711,0,729.7,0c22.2,0,20.8-26,20.8-26L884,277.3c43.5-4,65-35.3,68.5-64.4
			C955.3,190.2,945.6,151.4,890.2,139.3z"/>
		<g>
			<path class="st28" d="M890.1,139.4c-4.8-1-9.7-1.4-14.6-1.3c-4.9,0.1-9.8,0.8-14.5,1.9c-4.8,1.1-9.4,2.8-13.9,4.8
				c-4.4,2-8.7,4.5-12.7,7.3c-8,5.7-14.8,12.9-20.1,21.2c-2.6,4.1-4.9,8.5-6.7,13.1c-1.9,4.5-3.3,9.2-4.4,14
				c-2.1,9.6-2.8,19.4-2.8,29.2c0,9.8,0.7,19.6,1.6,29.4c1.9,19.5,4.7,39,7.8,58.4l0.1,0.8l-0.8,0l-82.9,0.3l-82.9,0.2l-82.9,0.1
				l-82.9,0l-82.9-0.1l-82.9-0.2l-165.9-0.4l-0.7,0l0.1-0.7c2.9-18.3,5.5-36.6,7.4-55c0.9-9.2,1.6-18.4,1.8-27.7
				c0.2-9.2-0.1-18.5-1.5-27.6c-1.4-9.1-4.1-18-8.2-26.3c-4.1-8.3-9.7-15.8-16.4-22c-6.7-6.3-14.6-11.3-23.1-14.8
				c-8.5-3.5-17.7-5.5-26.8-5.5c-4.6,0-9.2,0.4-13.7,1.4c-4.5,1-9,2.2-13.3,3.8c-4.3,1.5-8.6,3.3-12.7,5.4c-4.1,2.2-8,4.6-11.6,7.4
				c-7.2,5.6-13.3,12.8-17.5,20.9c-4.2,8.2-6.4,17.3-6.7,26.4c-0.1,2.3,0,4.6,0.2,6.9c0.1,1.1,0.2,2.3,0.4,3.4
				c0.1,1.2,0.4,2.3,0.6,3.4c0.8,4.5,2.1,8.9,3.8,13.2c3.3,8.5,8.3,16.4,14.5,23.1c6.3,6.7,13.9,12,22.3,15.7
				c8.4,3.8,17.4,5.9,26.5,6.7l0.7,0.1l0.1,0.7L93,412.4l0,0.1l0,0.2c-0.1,4,0.5,8.1,1.8,11.9c1.3,3.8,3.5,7.3,6.7,9.5
				c3.1,2.3,7.1,3.2,11.1,3.2l12.6,0l50.3-0.1l100.7-0.1l201.3-0.1l201.3,0.1l100.7,0.2l50.3,0.1l12.6,0c4,0,8.1-0.9,11.2-3.2
				c3.2-2.3,5.4-5.8,6.8-9.6c1.3-3.8,1.9-8,1.8-12l0-0.1l0-0.1l21.3-135.2l0.1-0.4l0.4,0c8.6-0.8,17.1-2.7,25.1-6.1
				c8-3.3,15.4-8.1,21.6-14.1c6.3-6,11.3-13.2,15-21c1.8-3.9,3.4-8,4.5-12.2c1.1-4.2,1.9-8.5,2.3-12.8c0.3-4.3,0.2-8.7-0.3-13
				c-0.6-4.3-1.5-8.5-3-12.6c-2.8-8.2-7.5-15.7-13.4-22c-3-3.1-6.3-6-9.8-8.5c-3.5-2.5-7.3-4.7-11.2-6.6c-1.9-1-3.9-1.8-5.9-2.7
				c-2-0.8-4-1.6-6.1-2.2C898.6,141.5,894.3,140.4,890.1,139.4z M890.2,139.1c4.2,1,8.5,2,12.6,3.5c2.1,0.6,4.1,1.5,6.1,2.2
				c2,0.9,4,1.7,6,2.7c3.9,1.9,7.7,4.1,11.2,6.6c3.5,2.5,6.9,5.4,9.9,8.5c6,6.3,10.7,13.9,13.6,22.2c1.5,4.1,2.4,8.4,3,12.7
				c0.6,4.3,0.7,8.7,0.4,13.1c-0.4,4.3-1.2,8.7-2.3,12.9c-1.1,4.2-2.6,8.3-4.5,12.3c-3.7,7.9-8.8,15.2-15.1,21.3
				c-6.3,6.1-13.7,11-21.8,14.4c-8.1,3.5-16.7,5.4-25.4,6.3l0.5-0.4l-20.4,135.3l0-0.2c0.1,2.2-0.1,4.3-0.4,6.5
				c-0.3,2.1-0.8,4.2-1.5,6.3c-1.4,4.1-3.8,8-7.4,10.7c-3.6,2.7-8.2,3.7-12.5,3.7l-12.6,0l-50.3,0.1l-100.7,0.2l-201.3,0.1
				L276.2,440l-100.7-0.1l-50.3-0.1l-12.6,0c-4.4,0-8.9-1.1-12.6-3.7c-3.7-2.7-6.1-6.7-7.5-10.8c-0.7-2.1-1.2-4.2-1.5-6.3
				c-0.3-2.2-0.5-4.3-0.4-6.5l0,0.2L70.1,277.4l0.8,0.8c-9.3-0.9-18.5-3.1-27.1-7c-8.5-3.9-16.3-9.4-22.7-16.2
				c-6.4-6.9-11.4-15-14.8-23.7c-1.7-4.4-3-8.9-3.8-13.5c-0.2-1.2-0.4-2.3-0.6-3.5c-0.2-1.1-0.3-2.3-0.4-3.5c-0.2-2.3-0.2-4.7-0.2-7
				c0.3-9.4,2.7-18.7,6.9-27c4.3-8.3,10.5-15.6,17.9-21.3c3.7-2.9,7.7-5.3,11.8-7.5c4.1-2.1,8.5-3.9,12.8-5.5
				c4.4-1.5,8.9-2.7,13.4-3.8c4.6-1,9.2-1.5,13.9-1.5c9.3,0,18.6,2.1,27.2,5.6c8.6,3.6,16.6,8.7,23.4,15c6.8,6.4,12.4,14,16.6,22.3
				c4.1,8.4,6.8,17.4,8.2,26.6c1.4,9.2,1.7,18.5,1.6,27.8c-0.2,9.3-0.8,18.5-1.7,27.8c-1.8,18.5-4.4,36.8-7.2,55.1l-0.6-0.7
				l165.9-0.4l82.9-0.2l82.9-0.1l82.9,0l82.9,0.1l82.9,0.2l82.9,0.3l-0.7,0.8c-3-19.4-5.7-38.9-7.4-58.5c-0.8-9.8-1.4-19.6-1.3-29.5
				c0.1-9.8,0.7-19.7,2.9-29.3c1.1-4.8,2.6-9.5,4.4-14.1c1.8-4.6,4.1-9,6.7-13.1c5.3-8.3,12.2-15.6,20.2-21.3
				c4-2.9,8.3-5.3,12.8-7.4c4.5-2,9.1-3.7,13.9-4.8c4.8-1.1,9.7-1.8,14.6-1.9C880.4,137.6,885.4,138.1,890.2,139.1z"/>
		</g>
	</g>
	<path class="st29" d="M828,361.4c0,24.9-18.1,22-119.6,22c-17.5,0-86.4-9.1-105.7-9.1c-13.8,0,0,8.8-130.7,8.8
		c-378.5,0-325,5.1-336.2-23c-10.2-25.5,64.8-21.7,331.8-18.6C711.9,344.3,828,329.5,828,361.4z"/>
	<path class="st29" d="M147.3,316.1c0.1,59.1-3.8,55.8,92.6,55.8c106,0,121.1,8,125.2-51.1c2.9-41.4-50.3-36.9-117.6-42.1
		C171.6,272.8,147.3,294.3,147.3,316.1z"/>
	<path class="st29" d="M595.7,319.7c-0.1,59.4,4.6,53.6-99,53.6c-113.9,0-140.8,5-131.1-53.8c6.3-37.9,50.5-37.6,123-39.8
		C572.6,277,595.7,296,595.7,319.7z"/>
	<path class="st29" d="M819.9,330.1c-0.1,59.4,11.5,41.7-92.2,41.7c-113.9,0-130.4,7.5-130.4-51.9c0-38.3,42-39.5,114.6-40.6
		C794.1,278.1,819.9,313.7,819.9,330.1z"/>
	<g>
		<path class="st31" d="M134.9,322.7c0.1,61.4-4.1,57.9,99.5,57.9c113.9,0,131.1,5.8,131.1-55.6c0-54.1-50.7-35.8-123-41.2
			C161,277.7,134.8,300,134.9,322.7z"/>
		<g>
			<path class="st28" d="M135,322.7c0,0,0,2.3,0,6.6c0,4.3-0.1,10.6,0.3,18.6c0.2,4,0.5,8.5,1.6,13.1c0.6,2.3,1.4,4.7,2.7,6.9
				c1.3,2.2,3.2,4.1,5.4,5.6c4.6,2.9,10.5,4,16.7,4.7c6.2,0.7,12.8,0.9,19.6,1c13.7,0.2,28.6,0,44.4,0c15.8,0,32.4,0.3,49.6,0.6
				c8.6,0.1,17.3,0.2,26.2,0.1c8.8-0.2,17.8-0.4,26.7-1.5c4.5-0.6,8.9-1.4,13.2-2.8c4.3-1.3,8.4-3.3,11.8-6.2
				c3.4-2.9,5.9-6.8,7.5-11c1.6-4.2,2.4-8.7,2.9-13.2c0.5-4.5,0.7-9.1,0.8-13.7c0-4.6,0.1-9.1-0.4-13.6c-0.5-4.5-1.5-8.9-3.3-12.9
				c-1.8-4-4.5-7.5-8-10.1c-3.5-2.6-7.5-4.3-11.7-5.5c-4.2-1.2-8.5-1.9-12.9-2.3c-8.7-0.9-17.4-0.9-26-0.8
				c-17.2,0.2-33.9,0.5-49.7-0.4c-7.9-0.4-15.5-1.2-22.9-1.4c-7.4-0.4-14.5-0.5-21.4-0.3c-3.4,0.1-6.8,0.2-10,0.4
				c-3.3,0.2-6.5,0.5-9.6,0.8c-6.2,0.7-12,1.7-17.4,3.1c-10.8,2.7-19.7,6.9-25.7,12.2c-3,2.6-5.3,5.4-6.8,8.1
				c-1.5,2.7-2.4,5.2-2.9,7.3c-0.5,2.1-0.6,3.7-0.7,4.8c0,0.6,0,1,0,1.3C135,322.5,135,322.7,135,322.7z M134.7,322.7
				c0,0,0-0.1,0-0.4c0-0.3,0-0.7,0-1.3c0.1-1.1,0.2-2.8,0.7-4.9c0.5-2.1,1.4-4.7,2.9-7.4c1.5-2.7,3.8-5.6,6.8-8.4
				c3-2.7,6.7-5.3,11.1-7.5c4.3-2.2,9.3-4.1,14.7-5.7c10.8-3.1,23.5-5,37.3-5.5c6.9-0.3,14.1-0.3,21.6-0.1
				c7.5,0.2,15.1,0.9,22.9,1.3c7.8,0.3,15.9,0.5,24.2,0.5c8.3,0,16.7,0,25.3,0c8.6,0,17.4,0.1,26.3,1.1c4.4,0.5,8.9,1.2,13.3,2.5
				c4.4,1.3,8.7,3.2,12.5,6.1c3.8,2.9,6.7,6.8,8.6,11.1c1.9,4.3,2.8,9,3.2,13.6c0.4,4.7,0.3,9.2,0.1,13.8c-0.2,4.6-0.5,9.2-1.1,13.8
				c-0.6,4.6-1.6,9.2-3.3,13.5c-1.7,4.3-4.3,8.4-7.9,11.4c-3.6,3-7.9,5-12.2,6.3c-4.4,1.4-8.9,2.1-13.4,2.7c-9,1.2-18,1.6-26.8,1.8
				c-8.9,0.2-17.6,0.4-26.2,0.4c-17.2,0.1-33.8,0.2-49.6,0.3c-15.8,0-30.7,0.1-44.5-0.4c-6.9-0.3-13.5-0.7-19.8-1.6
				c-3.1-0.4-6.2-1-9.1-1.9c-2.9-0.8-5.7-2-8.1-3.6c-2.4-1.6-4.3-3.7-5.6-6.1c-1.3-2.3-2.1-4.8-2.6-7.2c-0.5-2.4-0.8-4.7-1-6.9
				c-0.2-2.2-0.3-4.3-0.4-6.3c-0.2-8-0.1-14.3-0.1-18.6C134.7,325,134.7,322.7,134.7,322.7z"/>
		</g>
	</g>
	<g>
		<path class="st31" d="M596.2,322.7c-0.1,61.4,4.1,57.9-99.5,57.9c-113.9,0-136.3,5.7-131.1-55.6c3.6-42.2,50.7-35.8,123-41.2
			C570.1,277.7,596.2,291.5,596.2,322.7z"/>
		<g>
			<path class="st28" d="M596.3,322.7c0,0,0,2.3,0,6.6c0,4.3,0.1,10.6-0.1,18.6c-0.1,2-0.2,4.1-0.4,6.3c-0.2,2.2-0.5,4.5-1,6.9
				c-0.5,2.4-1.3,4.9-2.6,7.2c-1.3,2.3-3.2,4.5-5.6,6.1c-2.4,1.6-5.2,2.7-8.1,3.6c-2.9,0.8-5.9,1.4-9.1,1.9
				c-6.3,0.9-12.9,1.3-19.8,1.6c-13.8,0.5-28.7,0.4-44.4,0.4c-15.8-0.1-32.4-0.2-49.6-0.3c-8.6-0.1-17.3-0.2-26.2-0.4
				c-8.8-0.2-17.8-0.6-26.8-1.6c-4.5-0.6-9-1.2-13.4-2.4c-4.4-1.1-8.8-2.8-12.7-5.4c-3.9-2.6-7-6.3-8.9-10.6
				c-1.9-4.3-2.9-8.9-3.3-13.5c-0.5-4.6-0.5-9.2-0.4-13.8c0.1-2.3,0.2-4.6,0.3-6.9c0.1-2.3,0.3-4.6,0.7-6.9
				c0.8-4.6,2.3-9.1,4.8-13.1c2.5-4,6-7.3,10-9.8c3.9-2.5,8.2-4.3,12.6-5.7c4.4-1.4,8.8-2.3,13.2-3.1c8.8-1.5,17.6-2.2,26.2-2.8
				c8.6-0.6,17-1,25.3-1.4c8.3-0.4,16.3-0.9,24.2-1.3c7.8-0.5,15.5-1.1,22.9-1.4c7.4-0.3,14.6-0.3,21.5-0.2
				c6.9,0.1,13.5,0.5,19.8,1.3c6.3,0.7,12.2,1.7,17.6,3.1c5.4,1.4,10.4,3.2,14.8,5.5c4.3,2.3,7.9,5.1,10.6,8.1
				c2.7,3,4.4,6.3,5.5,9.2c1.1,2.9,1.6,5.6,1.9,7.7c0.3,2.1,0.4,3.8,0.4,4.9C596.3,322.1,596.3,322.7,596.3,322.7z M596,322.7
				c0,0,0-0.6,0-1.7c0-1.1-0.1-2.7-0.4-4.9c-0.3-2.1-0.8-4.7-1.9-7.6c-1.1-2.9-2.9-6-5.6-9c-1.3-1.5-2.9-2.9-4.7-4.2
				c-1.8-1.3-3.8-2.5-5.9-3.5c-4.3-2.1-9.3-3.7-14.7-4.9c-10.8-2.4-23.4-3.2-37.1-3.2c-6.8,0-14,0.2-21.4,0.6
				c-7.4,0.4-15,1-22.9,1.5c-15.7,1.1-32.4,1.7-49.5,2.7c-8.6,0.5-17.2,1.2-25.9,2.6c-4.3,0.7-8.6,1.6-12.8,2.9
				c-4.2,1.3-8.3,2.9-12,5.2c-3.7,2.3-7,5.3-9.4,9c-2.4,3.7-3.9,7.9-4.8,12.3c-0.4,2.2-0.7,4.4-0.9,6.7c-0.2,2.3-0.4,4.5-0.5,6.8
				c-0.2,4.5-0.3,9.1,0.1,13.6c0.4,4.5,1.2,9,3,13.1c1.8,4.1,4.7,7.7,8.4,10.2c3.7,2.5,8,4.2,12.3,5.3c4.4,1.1,8.8,1.9,13.3,2.4
				c17.9,1.8,35.7,1.4,52.9,1.2c17.2-0.2,33.8-0.6,49.6-0.6c15.8,0,30.7,0.1,44.4,0c6.9-0.1,13.4-0.3,19.6-1
				c6.1-0.7,12-1.9,16.7-4.8c2.3-1.5,4.1-3.4,5.4-5.6c1.3-2.2,2.1-4.6,2.7-6.9c1.1-4.7,1.4-9.1,1.6-13.1c0.4-8,0.3-14.3,0.3-18.6
				C596,324.9,596,322.7,596,322.7z"/>
		</g>
	</g>
	<g>
		<path class="st31" d="M827.2,322.7c-0.1,61.4,4.1,57.9-99.5,57.9c-113.9,0-131.1,5.8-131.1-55.6c0-54.8,50.7-35.8,123-41.2
			C801.1,277.7,827.3,305.7,827.2,322.7z"/>
		<g>
			<path class="st28" d="M827.4,322.7c0,0,0,2.3,0,6.6c0,4.3,0.1,10.6-0.1,18.6c-0.1,2-0.2,4.1-0.4,6.3c-0.2,2.2-0.5,4.5-1,6.9
				c-0.5,2.4-1.3,4.8-2.6,7.2c-1.3,2.3-3.2,4.5-5.6,6.1c-2.4,1.6-5.1,2.8-8,3.6c-2.9,0.8-5.9,1.4-9.1,1.9
				c-6.3,0.9-12.9,1.3-19.7,1.6c-13.8,0.5-28.6,0.4-44.4,0.4c-15.7-0.1-32.3-0.2-49.5-0.3c-8.6-0.1-17.3-0.2-26.1-0.4
				c-8.8-0.2-17.8-0.6-26.8-1.7c-4.5-0.6-9-1.3-13.4-2.6c-4.4-1.3-8.7-3.2-12.3-6.1c-3.7-2.9-6.4-6.9-8.2-11.1
				c-1.8-4.3-2.8-8.9-3.4-13.4c-0.6-4.6-1-9.2-1.1-13.8c-0.1-4.6-0.3-9.1,0-13.8c0.3-4.6,1.1-9.2,2.9-13.6c1.7-4.4,4.4-8.4,8.1-11.5
				c3.6-3.1,7.9-5.1,12.3-6.5c4.4-1.4,8.9-2.2,13.3-2.7c8.9-1,17.7-1.1,26.3-1.1c8.6,0,17,0.1,25.3,0.1c8.2,0,16.3-0.1,24.1-0.4
				c7.8-0.3,15.4-1,22.9-1.2c7.4-0.2,14.6-0.1,21.5,0.2c6.9,0.4,13.5,1.1,19.7,2.2c6.2,1.1,12,2.4,17.4,4.1
				c10.7,3.3,19.5,8,25.7,13.2c6.2,5.1,9.7,10.7,11.1,14.8c0.7,2,1,3.7,1.1,4.8c0,0.6,0.1,1,0.1,1.3
				C827.4,322.5,827.4,322.7,827.4,322.7z M827.1,322.7c0,0,0-0.1,0-0.4c0-0.3,0-0.7-0.1-1.2c-0.1-1.1-0.4-2.7-1.1-4.7
				c-0.7-2-1.9-4.4-3.7-6.9c-1.8-2.5-4.3-5.1-7.4-7.6c-6.2-5-15.1-9.3-25.8-12.2c-10.7-3-23.2-4.6-36.8-5.1
				c-6.8-0.3-13.9-0.1-21.3,0.2c-7.3,0.3-15,1.1-22.9,1.4c-15.8,0.8-32.4,0.4-49.5,0.1c-8.6-0.1-17.3-0.1-25.9,0.9
				c-4.3,0.5-8.7,1.2-12.8,2.5c-4.1,1.3-8.1,3.1-11.5,5.8c-3.3,2.7-5.9,6.3-7.5,10.4c-1.7,4.1-2.6,8.5-3,12.9
				c-0.4,4.4-0.4,9-0.3,13.6c0.1,4.6,0.3,9.1,0.9,13.6c0.6,4.5,1.4,9,3.1,13.2c1.6,4.2,4.2,8,7.7,10.8c3.5,2.8,7.7,4.7,11.9,6
				c4.3,1.3,8.8,2.1,13.2,2.6c8.9,1.1,17.9,1.3,26.7,1.5c8.8,0.1,17.5,0,26.1-0.1c17.2-0.2,33.7-0.6,49.5-0.6
				c15.7,0,30.6,0.1,44.3,0c6.8-0.1,13.4-0.3,19.6-1c6.1-0.7,12-1.9,16.6-4.8c2.3-1.5,4.1-3.4,5.4-5.6c1.3-2.2,2.1-4.6,2.7-6.9
				c1.1-4.7,1.4-9.1,1.6-13.1c0.4-8,0.3-14.3,0.3-18.6C827.1,324.9,827.1,322.7,827.1,322.7z"/>
		</g>
	</g>
</g>
<g id="Tresits">
</g>
</svg>
