<?xml version="1.0" encoding="utf-8"?>
<!-- Generator: Adobe Illustrator 19.2.0, SVG Export Plug-In . SVG Version: 6.00 Build 0)  -->
<svg version="1.1" xmlns="http://www.w3.org/2000/svg" xmlns:xlink="http://www.w3.org/1999/xlink" x="0px" y="0px"
	 viewBox="0 0 955 480" style="enable-background:new 0 0 955 480;" xml:space="preserve">
<style type="text/css">
	.st0{display:none;}
	.st1{fill:#A55B16;}
	.st2{fill:#894B16;}
	.st3{fill:#6D7F3B;}
	.st4{fill:#5E6E30;}
	.st5{opacity:0.4;fill:#5E6E30;}
	.st6{fill:#6D843A;}
	.st7{opacity:0.7;}
	.st8{fill:#56642B;}
	.st9{fill:#798E41;}
	.st10{fill:#6C7C35;}
	.st11{opacity:0.4;}
	.st12{fill:url(#SVGID_1_);}
	.st13{fill:#E09D20;}
	.st14{fill:#7F4F12;}
	.st15{fill:#563A1C;}
	.st16{opacity:0.8;fill:#FFFFFF;}
	.st17{fill:url(#SVGID_2_);}
	.st18{fill:#FFD941;}
	.st19{fill:#F7A60B;}
	.st20{opacity:0.6;fill:#FAB722;}
	.st21{opacity:0.4;fill:#EFAF12;}
	.st22{fill:#FECD41;}
	.st23{fill:#FAB722;}
	.st24{fill:url(#SVGID_3_);}
	.st25{fill:url(#SVGID_4_);}
	.st26{opacity:0.6;fill:#563A1C;}
	.st27{fill:#5E71A3;}
	.st28{fill:#354366;}
	.st29{fill:#495682;}
	.st30{fill:#58699F;}
	.st31{fill:#6579AB;}
</style>
<g id="Lager_3" class="st0">
</g>
<g id="Tvåsits">
	<g>
		<g>
			<path class="st1" d="M208.1,454c0,28.8-0.1,25.9-28.1,25.9c-31.6,0-36.3,2.7-36.3-26.1c0-28.8,12.7-25.7,32.8-25.7
				S208.1,419.1,208.1,454z"/>
			<path class="st2" d="M208.3,454c0,0,0,3.3-0.1,9c0,1.4-0.1,3-0.2,4.7c-0.1,1.7-0.2,3.6-0.7,5.6c-0.2,1-0.6,2-1.1,3
				c-0.5,1-1.4,1.8-2.4,2.5c-2.1,1.2-4.5,1.5-7,1.8c-2.5,0.2-5,0.2-7.7,0.3c-2.6,0-5.4,0.1-8.2,0.1c-5.6,0-11.5,0.2-17.7,0.2
				c-3.1,0-6.2-0.1-9.5-0.7c-1.6-0.3-3.3-0.8-4.8-1.7c-1.6-0.9-2.9-2.3-3.8-3.8c-0.9-1.6-1.5-3.2-1.9-4.9c-0.4-1.7-0.6-3.3-0.8-5
				c-0.3-3.3-0.5-6.6-0.5-9.9l0-1.2l0-1.2c0-0.8,0-1.6,0-2.5c0-0.8,0.1-1.7,0.1-2.5c0-0.8,0.1-1.7,0.2-2.5c0.4-3.3,1.1-6.7,2.6-9.9
				c0.8-1.6,1.8-3.1,3.2-4.4c1.3-1.3,2.9-2.2,4.5-2.9c3.3-1.3,6.6-1.6,9.8-1.8c6.3-0.3,12.2,0.2,17.6,0c2.7-0.1,5.4-0.3,8.1-0.4
				c2.7-0.1,5.3-0.3,7.9,0.1c1.3,0.2,2.6,0.5,3.8,1c1.2,0.5,2.3,1.2,3.2,2.1c1.8,1.8,2.7,3.9,3.4,5.8c0.6,2,0.9,3.8,1.1,5.6
				c0.2,1.7,0.3,3.3,0.4,4.7c0.1,2.9,0.2,5.1,0.2,6.6C208.3,453.2,208.3,454,208.3,454z M208,454c0,0,0-0.8-0.1-2.3
				c-0.1-1.5-0.1-3.8-0.4-6.6c-0.3-2.8-0.8-6.3-2.3-9.9c-0.7-1.8-1.8-3.5-3.3-4.8c-1.5-1.2-3.6-1.8-5.9-1.9
				c-2.3-0.1-4.8,0.2-7.3,0.5c-2.6,0.3-5.3,0.6-8.2,0.8c-5.8,0.4-11.7,0-17.6,0.1c-2.9,0.1-5.9,0.4-8.5,1.4c-2.6,1-4.7,2.8-6,5.4
				c-1.4,2.6-2.1,5.6-2.5,8.7c-0.1,0.8-0.2,1.6-0.3,2.4c-0.1,0.8-0.1,1.6-0.2,2.4c-0.1,0.8-0.1,1.6-0.1,2.4l0,1.2l0,1.2
				c0,3.2,0,6.5,0.3,9.6c0.3,3.1,0.8,6.3,2.1,8.8c0.7,1.2,1.6,2.2,2.8,3c1.2,0.7,2.6,1.2,4,1.5c2.9,0.6,6,0.8,9,0.9
				c6.1,0.1,12,0,17.6,0.1c5.6,0.1,10.9,0.4,15.8,0.3c2.4-0.1,4.8-0.3,6.6-1.3c1.9-1,2.8-3,3.3-4.8c1-3.8,1-7.3,1.1-10.2
				c0.1-2.9,0-5.1,0-6.6C208,454.8,208,454,208,454z"/>
		</g>
		<path class="st2" d="M143.7,450.9c0.6,12.7-2.5,17,22.8,15.4c17.7-1.1,41,8.9,41.6-15.2S143.7,450.9,143.7,450.9z"/>
	</g>
	<g>
		<g>
			<path class="st1" d="M746.9,454c0,28.8,0.1,25.9,28.1,25.9c31.6,0,36.3,2.7,36.3-26.1c0-28.8-12.7-25.7-32.8-25.7
				C758.5,428.1,746.9,419.1,746.9,454z"/>
			<path class="st2" d="M747,454c0,0,0,0.8,0,2.3c0,1.5,0,3.8,0,6.6c0.1,2.8,0.1,6.4,1.1,10.2c0.5,1.9,1.4,3.8,3.3,4.8
				c1.9,1,4.2,1.2,6.6,1.3c4.8,0.1,10.1-0.2,15.8-0.3c5.6-0.1,11.5,0,17.6-0.1c3-0.1,6.1-0.2,9-0.9c1.5-0.3,2.9-0.8,4-1.5
				c1.2-0.7,2.1-1.7,2.8-3c1.4-2.5,1.9-5.7,2.1-8.8c0.3-3.2,0.3-6.4,0.3-9.6l0-1.2l0-1.2c0-0.8,0-1.6-0.1-2.4c0-0.8-0.1-1.6-0.2-2.4
				c-0.1-0.8-0.2-1.6-0.3-2.4c-0.4-3.1-1.2-6.1-2.5-8.7c-1.3-2.6-3.4-4.4-6-5.4c-2.6-1-5.6-1.3-8.5-1.4c-6-0.2-11.9,0.2-17.6-0.1
				c-2.9-0.2-5.6-0.5-8.2-0.8c-2.6-0.3-5.1-0.6-7.3-0.5c-2.3,0.1-4.3,0.6-5.9,1.9c-1.5,1.2-2.6,3-3.3,4.8c-1.5,3.6-1.9,7-2.3,9.9
				c-0.3,2.8-0.4,5.1-0.4,6.6C747.1,453.2,747,454,747,454z M746.7,454c0,0,0-0.8,0-2.3c0-1.5,0-3.8,0.2-6.6c0.1-1.4,0.2-3,0.4-4.7
				c0.2-1.7,0.5-3.6,1.1-5.6c0.6-2,1.6-4.1,3.4-5.8c0.9-0.9,2-1.6,3.2-2.1c1.2-0.5,2.5-0.8,3.8-1c2.6-0.4,5.2-0.2,7.9-0.1
				c2.7,0.1,5.3,0.4,8.1,0.4c5.4,0.2,11.3-0.3,17.6,0c3.1,0.2,6.5,0.5,9.8,1.8c1.6,0.7,3.2,1.6,4.5,2.9c1.3,1.3,2.4,2.8,3.2,4.4
				c1.6,3.2,2.2,6.6,2.6,9.9c0.1,0.8,0.2,1.7,0.2,2.5c0.1,0.8,0.1,1.7,0.1,2.5c0,0.8,0,1.7,0,2.5l0,1.2l0,1.2
				c-0.1,3.3-0.2,6.6-0.5,9.9c-0.2,1.7-0.4,3.3-0.8,5c-0.4,1.7-0.9,3.3-1.9,4.9c-0.9,1.6-2.2,2.9-3.8,3.8c-1.6,0.9-3.2,1.4-4.8,1.7
				c-3.3,0.6-6.4,0.7-9.5,0.7c-6.2,0-12.1-0.2-17.7-0.2c-2.8,0-5.5-0.1-8.2-0.1c-2.6,0-5.2-0.1-7.7-0.3c-2.4-0.2-4.9-0.5-7-1.8
				c-1-0.6-1.8-1.5-2.4-2.5c-0.6-1-0.9-2-1.1-3c-0.4-2-0.6-3.8-0.7-5.6c-0.1-1.7-0.1-3.3-0.2-4.7C746.7,457.3,746.7,454,746.7,454z"
				/>
		</g>
		<path class="st2" d="M811.3,450.9c-0.6,12.7,2.5,17-22.8,15.4c-17.7-1.1-41,8.9-41.6-15.2S811.3,450.9,811.3,450.9z"/>
	</g>
	<g>
		<path class="st3" d="M884,149.1C739.4,71,671,28.5,477.5,28.5S215.6,71,71,149.1c-49.9,27.1-63,62.5-58.1,88
			c5.7,29.8,21.7,43.1,58.1,53.5l20.8,135.3c0,0-1.4,26,20.8,26c18.7,0,364.9,0,364.9,0s346.1,0,364.9,0c22.2,0,20.8-26,20.8-26
			L884,290.6c36.4-10.4,52.4-23.7,58.1-53.5C947,211.5,933.9,176.1,884,149.1z"/>
		<path class="st4" d="M883.9,149.2c-19.4-10.5-38.8-21-58.2-31.4c-19.5-10.3-39.1-20.5-59-29.9c-10-4.7-20-9.2-30.2-13.5
			c-5.1-2.2-10.2-4.2-15.3-6.2l-7.7-2.9l-3.9-1.4l-3.9-1.4c-10.4-3.7-20.9-7-31.4-10.1l-8-2.2c-2.6-0.7-5.3-1.4-8-2
			c-5.3-1.4-10.7-2.5-16.1-3.8c-21.5-4.6-43.3-7.9-65.2-10.1c-21.9-2.2-43.9-3.5-65.9-4.1c-22-0.6-44.1-0.5-66.1,0.1
			c-22,0.7-44,1.9-65.9,4.1c-21.9,2.3-43.7,5.6-65.2,10.2c-21.5,4.7-42.7,10.6-63.4,18c-5.2,1.8-10.3,3.8-15.5,5.7
			c-2.6,1-5.1,2-7.7,3l-3.8,1.5l-3.8,1.6c-10.2,4.2-20.2,8.8-30.2,13.4c-19.9,9.4-39.5,19.5-59,29.8c-19.5,10.3-38.9,20.8-58.3,31.2
			c-4.8,2.6-9.6,5.4-14.2,8.4c-4.6,3-9,6.3-13.2,9.8c-8.4,7-16,15.1-21.8,24.5c-5.8,9.3-9.7,19.8-10.6,30.7
			c-0.4,5.4-0.1,11,1.1,16.3c1.1,5.4,2.7,10.6,5,15.6c2.3,5,5.3,9.6,9.1,13.5c3.7,4,8.2,7.3,12.8,10.1c9.5,5.5,20,9.1,30.5,12.2
			l0.4,0.1l0.1,0.4l21.1,135.2l0,0.1l0,0.1c-0.1,4,0.5,8.2,1.8,12c1.3,3.8,3.6,7.4,6.8,9.7c3.2,2.3,7.3,3.3,11.3,3.3l12.6,0
			l50.3-0.2l100.7-0.2l201.3-0.3l201.3,0l100.7,0.1l50.3,0.1l12.6,0c4,0,7.9-0.9,11.1-3.2c3.2-2.2,5.3-5.7,6.6-9.5
			c1.3-3.8,1.9-7.9,1.8-11.9l0-0.2l0-0.1l21.4-135.2l0.1-0.4l0.4-0.1c7.9-2.2,15.7-4.8,23.1-8.2c3.7-1.7,7.3-3.7,10.7-5.9
			c3.4-2.2,6.6-4.8,9.4-7.8c2.8-2.9,5.3-6.2,7.3-9.8c2-3.6,3.6-7.3,4.9-11.2c1.2-3.9,2.2-7.9,2.9-11.9c0.7-4,0.8-8.1,0.5-12.2
			c-0.5-8.2-2.8-16.2-6.3-23.6c-3.5-7.4-8.2-14.2-13.6-20.4c-2.7-3.1-5.6-6-8.6-8.8c-3-2.8-6.2-5.3-9.5-7.8c-3.3-2.4-6.6-4.8-10.1-7
			C891.1,153.2,887.5,151.2,883.9,149.2z M884.1,148.9c3.6,2,7.2,4,10.6,6.2c3.5,2.2,6.9,4.5,10.2,7c3.3,2.5,6.5,5.1,9.5,7.8
			c3,2.8,6,5.7,8.7,8.8c5.4,6.2,10.2,13,13.7,20.5c3.5,7.4,5.9,15.5,6.4,23.8c0.3,4.1,0.2,8.3-0.5,12.4c-0.7,4.1-1.6,8.1-2.9,12
			c-1.3,3.9-2.9,7.8-4.9,11.4c-2,3.6-4.5,7-7.3,10c-2.8,3-6.1,5.7-9.5,8c-3.4,2.3-7.1,4.3-10.8,6.1c-7.5,3.5-15.3,6.2-23.2,8.5
			l0.5-0.5L864.4,426l0-0.3c0.1,2.3-0.1,4.4-0.4,6.5c-0.3,2.1-0.8,4.3-1.5,6.3c-1.4,4.1-3.8,8.1-7.5,10.8c-3.7,2.7-8.3,3.8-12.7,3.8
			l-12.6,0l-50.3,0.1l-100.7,0.1l-201.3,0l-201.3-0.3L175.5,453l-50.3-0.2l-12.6,0c-4.3,0-8.8-1.1-12.4-3.7c-3.6-2.6-6-6.6-7.4-10.6
			c-1.4-4.1-2-8.4-1.9-12.7l0,0.2L70.4,290.7l0.4,0.5c-10.6-3.1-21.1-6.7-30.7-12.3c-4.8-2.9-9.3-6.2-13.1-10.3
			c-3.8-4.1-6.9-8.8-9.2-13.8c-2.3-5.1-3.9-10.4-5-15.8c-1.2-5.4-1.5-11-1.1-16.6c0.9-11.1,4.9-21.8,10.7-31.2
			c5.8-9.4,13.5-17.7,22-24.8c4.2-3.6,8.7-6.8,13.3-9.9c4.6-3,9.4-5.8,14.3-8.5c19.4-10.5,38.7-21.1,58.1-31.5
			c19.4-10.4,39-20.6,58.9-30.2c10-4.7,20-9.4,30.2-13.6l3.8-1.6l3.8-1.6c2.6-1,5.1-2.1,7.7-3.1c5.2-2,10.3-4,15.5-5.8
			c20.8-7.5,42.1-13.6,63.7-18.4c21.6-4.7,43.5-8,65.4-10.4c22-2.3,44-3.6,66.1-4.2c22.1-0.5,44.1-0.5,66.2,0.1
			c22.1,0.7,44.1,2,66.1,4.5c21.9,2.5,43.8,5.9,65.3,10.7c5.4,1.3,10.8,2.5,16.1,3.9c2.7,0.7,5.4,1.3,8,2.1l8,2.3
			c10.6,3.1,21.1,6.5,31.5,10.3l3.9,1.4l3.9,1.5l7.7,3c5.1,2.1,10.2,4.1,15.3,6.3c10.2,4.3,20.2,9,30.1,13.7
			c19.9,9.5,39.4,19.8,58.9,30.2C845.3,127.9,864.7,138.4,884.1,148.9z"/>
	</g>
	<path class="st5" d="M479.1,234.8c-1.6,153.5,30.8,112.6-131.6,104.6c-252.6-12.6-204.3,62-217.5-76
		c-13.4-140.5-6.1-204.7,152-247.8c87-23.7,142-10.6,170,17.4C484.6,65.5,480.3,121.3,479.1,234.8z"/>
	<path class="st5" d="M479.1,234.8c0.6,153.8-33.7,107.8,135.2,101.4c262.9-10,207.7,55.3,219-83.1
		c10.5-128.5,10.6-199.8-147.2-231.9c-83.6-17-134.9-13.5-166.3,2.5C473,47.5,478.6,101.3,479.1,234.8z"/>
	<g>
		<path class="st6" d="M478.5,234.8c0.6,154-28.5,111.7,128.2,102c243.8-15.1,207.2,34.1,220.8-104.6
			c13.8-141.1-6.3-197.7-155.6-220.9C487-17.5,477.7,23.3,478.5,234.8z"/>
		<path class="st4" d="M478.6,234.8c0,0,0,4.8,0,13.9c-0.1,9.1-0.3,22.4-0.8,39.4c-0.3,8.5-0.7,17.9-0.8,28.1
			c-0.1,5.1-0.1,10.4,0.5,15.9c0.3,2.7,0.7,5.5,1.7,8.2c0.9,2.7,2.6,5.2,5.1,6.7c2.5,1.5,5.5,2,8.6,2.2c3,0.1,6.1,0,9.2-0.3
			c6.2-0.6,12.6-1.6,19.2-2.6c13.1-2,26.9-4.2,41.3-5.9c28.9-3.6,60.4-5.2,93.7-6.5c16.7-0.6,33.8-0.9,51.3-1
			c17.5-0.1,35.4,0.1,53.6,0.3c9.1,0,18.3,0.1,27.4-0.6c4.6-0.3,9.2-0.9,13.6-2c4.4-1.2,8.7-3.2,11.7-6.6c3-3.4,4.7-7.8,5.8-12.3
			c1.1-4.5,1.7-9.2,2.2-13.9c0.9-9.4,1.4-18.9,2.1-28.4c0.6-9.5,1.3-19.1,2.1-28.7c0.9-9.6,1.8-19.2,2.6-28.8
			c1.4-19.2,2.3-38.6,1.5-57.9c-0.2-4.8-0.5-9.7-1-14.5c-0.5-4.8-1.1-9.6-1.9-14.3c-1.6-9.5-4-18.9-7.4-27.8
			c-3.4-9-7.9-17.5-13.6-25.1c-5.7-7.7-12.4-14.4-19.9-20.2c-3.7-2.9-7.7-5.5-11.7-8c-4-2.4-8.2-4.7-12.4-6.7c-4.2-2-8.5-4-12.9-5.7
			c-2.2-0.9-4.4-1.7-6.6-2.5c-2.2-0.8-4.4-1.6-6.6-2.3c-17.7-5.8-35.8-9.8-53.7-12.9c-17.9-3-35.6-5.5-53-7.4
			c-17.4-1.9-34.5-3-51.1-2.5c-8.3,0.3-16.5,1-24.4,2.5c-7.9,1.5-15.6,3.6-22.7,6.9c-7.1,3.2-13.5,7.5-18.9,12.8
			c-5.4,5.2-9.7,11.3-13.1,17.6c-3.4,6.4-6,13-8.1,19.6c-2.1,6.6-3.6,13.2-4.9,19.7c-2.5,13-3.9,25.5-4.8,37.3
			c-1,11.8-1.5,22.8-1.9,33c-0.4,10.2-0.6,19.6-0.7,28.1c-0.3,17-0.3,30.3-0.3,39.4C478.6,229.9,478.6,234.8,478.6,234.8z
			 M478.4,234.8c0,0,0-4.8-0.1-13.9c0-9.1-0.1-22.4,0.1-39.4c0.1-8.5,0.2-17.9,0.6-28.1c0.3-10.2,0.8-21.3,1.7-33.1
			c0.9-11.8,2.2-24.3,4.7-37.4c1.2-6.5,2.8-13.2,4.8-19.8c2.1-6.7,4.6-13.4,8.1-19.8c3.4-6.4,7.8-12.6,13.3-18
			c5.4-5.4,12-9.8,19.2-13.1c7.2-3.3,14.9-5.6,22.9-7.1c8-1.5,16.2-2.3,24.6-2.6C595,1.9,612.1,3,629.5,4.8c8.7,0.9,17.5,2,26.4,3.2
			c8.8,1.3,17.8,2.6,26.7,4.1c17.9,3.1,36.1,7.1,53.9,12.9c2.2,0.7,4.4,1.5,6.7,2.3c2.2,0.8,4.4,1.6,6.6,2.5c4.4,1.7,8.7,3.6,13,5.7
			c4.3,2.1,8.5,4.3,12.6,6.8c4.1,2.5,8.1,5.2,11.9,8.1c7.6,5.9,14.5,12.8,20.3,20.6c5.8,7.8,10.3,16.5,13.8,25.6
			c3.5,9.1,5.8,18.6,7.4,28.2c0.8,4.8,1.4,9.6,1.9,14.5c0.5,4.8,0.8,9.7,1,14.5c0.8,19.4-0.1,38.9-1.6,58.1
			c-0.7,9.6-1.7,19.2-2.6,28.8c-0.9,9.6-1.6,19.1-2.2,28.6c-0.7,9.5-1.2,19-2.1,28.5c-0.5,4.7-1.1,9.4-2.2,14.1
			c-1.1,4.6-2.9,9.2-6.1,12.9c-3.3,3.6-7.8,5.7-12.3,6.9c-4.6,1.2-9.2,1.7-13.8,2c-9.3,0.6-18.4,0.6-27.5,0.5
			c-18.2-0.2-36-0.5-53.5-0.4c-17.5,0-34.6,0.4-51.2,0.9c-16.6,0.6-32.8,1.3-48.5,2.3c-15.6,0.9-30.7,2.2-45.2,3.9
			c-14.4,1.7-28.2,3.7-41.3,5.7c-6.6,1-12.9,1.9-19.2,2.5c-3.1,0.3-6.2,0.4-9.3,0.3c-3-0.2-6.1-0.7-8.7-2.2c-1.3-0.8-2.4-1.8-3.3-3
			c-0.9-1.2-1.5-2.5-2-3.9c-1-2.7-1.4-5.5-1.7-8.3c-0.5-5.5-0.5-10.8-0.4-16c0.2-10.2,0.6-19.6,0.9-28.1c0.6-17,0.8-30.3,0.9-39.4
			C478.4,239.6,478.4,234.8,478.4,234.8z"/>
	</g>
	<g>
		<path class="st6" d="M479.1,234.8c-0.6,154,12.4,107.7-128.2,102c-243.9-9.9-198.7,51-212.3-87.6
			c-13.8-141.1-2.2-214.7,147.1-237.9C470.6-17.5,479.9,23.3,479.1,234.8z"/>
		<path class="st4" d="M479.2,234.8c0,0,0,4.8,0,13.8c0,9,0.1,22.3,0.1,39.1c0,8.4,0,17.8-0.5,27.9c-0.3,5.1-0.7,10.4-1.9,15.7
			c-0.6,2.7-1.4,5.4-2.8,7.9c-1.3,2.5-3.3,4.8-6,6.2c-2.6,1.4-5.6,2-8.7,2.2c-3,0.2-6.1,0.1-9.2-0.1c-6.2-0.5-12.6-1.4-19.1-2.3
			c-13-1.9-26.7-3.9-41.1-5.3c-14.4-1.5-29.4-2.5-44.9-3c-15.6-0.6-31.6-0.9-48.2-0.9c-16.5,0-33.5,0.3-50.9,1.1
			c-17.3,0.8-35,2.1-53,3.6c-4.5,0.4-9,0.7-13.6,1.1c-4.5,0.3-9.1,0.6-13.7,0.5c-2.3,0-4.6-0.1-6.9-0.5c-2.3-0.3-4.6-0.9-6.8-1.9
			c-2.2-1.1-4.1-2.7-5.4-4.8c-1.3-2-2.1-4.3-2.7-6.6c-1.1-4.6-1.5-9.3-1.9-13.9c-0.3-4.7-0.5-9.4-0.8-14c-0.4-9.4-0.9-18.8-1.5-28.3
			c-0.6-9.5-1.5-18.9-2.4-28.4c-0.9-9.5-1.7-19-2.4-28.6c-1.3-19.1-2-38.4-1.1-57.7c0.9-19.2,3.5-38.6,9.9-56.9
			c3.2-9.1,7.4-17.9,12.7-25.9c5.3-8,11.7-15.3,18.8-21.6c7.2-6.3,15.1-11.7,23.3-16.3c8.3-4.6,16.9-8.3,25.7-11.6
			c17.5-6.4,35.5-10.6,53.3-13.7c17.8-3,35.4-5.4,52.7-7.2c17.3-1.7,34.4-2.7,51-1.9c8.3,0.4,16.5,1.3,24.4,2.9
			c7.9,1.6,15.6,4,22.6,7.5c7.1,3.4,13.4,8,18.7,13.4c5.3,5.4,9.5,11.7,12.8,18.1c3.3,6.5,5.8,13.1,7.8,19.8
			c2,6.6,3.5,13.3,4.7,19.7c2.4,13,3.6,25.4,4.5,37.1c1.7,23.4,2,43.9,2.2,60.7c0.2,16.8,0.1,30.1,0.1,39.1
			C479.2,230,479.2,234.8,479.2,234.8z M479,234.8c0,0,0-4.8,0-13.8c0-9,0-22.3-0.3-39.1c-0.3-16.8-0.7-37.3-2.5-60.7
			c-1-11.7-2.3-24.1-4.7-37c-1.2-6.5-2.7-13-4.7-19.6c-2-6.6-4.5-13.2-7.8-19.6c-3.3-6.4-7.5-12.5-12.7-17.8
			c-5.2-5.3-11.5-9.8-18.4-13.1c-6.9-3.4-14.5-5.7-22.4-7.2c-7.8-1.6-16-2.4-24.2-2.7c-16.5-0.7-33.5,0.4-50.7,2.2
			c-8.6,0.9-17.3,2-26.1,3.2c-8.8,1.2-17.6,2.5-26.5,4c-17.7,3.1-35.6,7.3-53,13.6c-17.3,6.3-34.3,15-48.4,27.5
			c-7,6.2-13.3,13.4-18.5,21.3c-5.2,7.9-9.4,16.5-12.6,25.5c-6.4,18-8.9,37.2-9.9,56.4c-0.9,19.2-0.2,38.4,1,57.6
			c0.6,9.6,1.4,19.1,2.3,28.6c0.9,9.5,1.8,19,2.4,28.5c0.6,9.5,1.1,18.9,1.5,28.3c0.2,4.7,0.4,9.4,0.7,14c0.3,4.6,0.7,9.3,1.8,13.7
			c0.6,2.2,1.3,4.4,2.5,6.2c1.2,1.9,2.9,3.4,4.8,4.3c2,1,4.2,1.5,6.4,1.8c2.2,0.3,4.5,0.4,6.8,0.5c4.6,0.1,9.1-0.2,13.6-0.5
			c4.5-0.3,9-0.7,13.5-1c18-1.5,35.7-2.8,53.1-3.5c17.4-0.8,34.4-1.1,50.9-1c16.6,0,32.7,0.4,48.2,1c15.6,0.5,30.6,1.6,45,3.2
			c14.4,1.5,28.1,3.6,41.1,5.5c6.5,1,12.8,1.9,19.1,2.4c3.1,0.2,6.2,0.4,9.2,0.2c3-0.2,6-0.8,8.5-2.2c2.6-1.4,4.5-3.6,5.9-6.1
			c1.3-2.5,2.1-5.2,2.7-7.8c1.2-5.3,1.6-10.6,1.9-15.7c0.6-10.1,0.5-19.5,0.6-27.9c0-16.8-0.1-30.1-0.1-39.1
			C479,239.6,479,234.8,479,234.8z"/>
	</g>
	<g class="st7">
		<path class="st4" d="M729.7,146.6c-1.8,4.5,0.4,9.7,5,11.6s8.7-0.7,10.6-5.3s-0.3-8.5-4.9-10.3S731.5,142,729.7,146.6z"/>
		<path class="st8" d="M729.7,146.6c0,0-0.1,0.2-0.2,0.6c-0.1,0.2-0.1,0.4-0.2,0.7c-0.1,0.3-0.1,0.6-0.1,0.9c-0.1,0.7,0,1.6,0.3,2.5
			c0.3,0.9,0.7,1.9,1.4,2.9c0.7,0.9,1.5,1.9,2.6,2.6c1.1,0.7,2.4,1.4,3.8,1.5c1.4,0.2,3-0.2,4.3-1.1c1.3-0.9,2.2-2.3,2.8-3.8
			l0.2-0.6c0.1-0.1,0.1-0.4,0.2-0.6c0.1-0.4,0.2-0.8,0.2-1.1c0.1-0.8,0.1-1.5,0-2.2c-0.3-1.4-1-2.7-2-3.6c-1-1-2.3-1.6-3.5-2.1
			c-1.2-0.5-2.4-0.7-3.6-0.7c-1.1,0-2.2,0.2-3,0.6c-0.9,0.4-1.5,1-2,1.6c-0.2,0.3-0.4,0.5-0.6,0.8c-0.1,0.2-0.3,0.4-0.3,0.6
			C729.8,146.4,729.7,146.6,729.7,146.6z M729.6,146.5c0,0,0.1-0.2,0.2-0.6c0.1-0.2,0.2-0.4,0.3-0.6c0.1-0.3,0.3-0.5,0.5-0.8
			c0.4-0.6,1-1.3,1.8-2c0.8-0.6,2-1.2,3.3-1.4c1.3-0.2,2.8,0,4.3,0.5c1.4,0.5,2.9,1.2,4.1,2.5c1.2,1.2,2.1,2.9,2.3,4.7
			c0.1,0.9,0,1.8-0.2,2.7c-0.1,0.4-0.3,0.9-0.4,1.2c-0.1,0.2-0.1,0.4-0.3,0.6l-0.3,0.6c-0.8,1.5-2,2.8-3.3,3.8c-1.4,1-3,1.6-4.6,1.6
			c-1.7,0-3.2-0.4-4.6-1.2c-1.3-0.8-2.3-1.9-2.9-3.1c-0.6-1.2-0.9-2.4-1-3.4c-0.1-1,0-1.9,0.1-2.7c0.1-0.4,0.1-0.7,0.2-1
			c0.1-0.3,0.1-0.5,0.2-0.7C729.5,146.7,729.6,146.5,729.6,146.5z"/>
	</g>
	<g class="st7">
		<path class="st4" d="M644.2,142.8c4.9-0.6,8.3-5,7.8-9.9s-4.8-7.3-9.7-6.7c-4.9,0.6-7.3,4.3-6.7,9.2S639.3,143.4,644.2,142.8z"/>
		<path class="st8" d="M644.2,142.8c0,0,0.2,0,0.6-0.1c0.2,0,0.4-0.1,0.7-0.2c0.3-0.1,0.6-0.2,0.9-0.3c0.7-0.3,1.4-0.8,2.1-1.4
			c0.7-0.7,1.3-1.6,1.8-2.6c0.5-1,0.9-2.2,1-3.5c0.1-1.3,0.1-2.7-0.5-4.1c-0.5-1.4-1.6-2.6-3.1-3.2c-1.4-0.7-3.1-0.8-4.7-0.7
			l-0.6,0.1c-0.1,0-0.4,0.1-0.6,0.1c-0.4,0.1-0.8,0.2-1.1,0.3c-0.7,0.3-1.4,0.6-1.9,1.1c-1.1,0.9-1.9,2.2-2.2,3.5
			c-0.3,1.4-0.3,2.8-0.1,4.1c0.2,1.3,0.6,2.5,1.1,3.5c0.5,1,1.2,1.8,2,2.4c0.8,0.6,1.6,0.8,2.3,1c0.3,0.1,0.7,0.1,0.9,0.1
			c0.3,0,0.5,0,0.7,0C644,142.8,644.2,142.8,644.2,142.8z M644.2,142.9c0,0-0.2,0-0.6,0.1c-0.2,0-0.4,0-0.7,0c-0.3,0-0.6,0-1,0
			c-0.7-0.1-1.6-0.2-2.6-0.6c-1-0.4-2-1.2-2.8-2.3c-0.8-1.1-1.4-2.5-1.6-4c-0.3-1.5-0.3-3.1,0.2-4.8c0.5-1.6,1.5-3.2,3-4.3
			c0.7-0.5,1.6-0.9,2.4-1.1c0.4-0.1,0.9-0.2,1.3-0.2c0.2,0,0.4,0,0.6-0.1l0.6,0c1.7,0,3.4,0.4,4.9,1.1c1.5,0.7,2.8,1.9,3.6,3.3
			c0.8,1.4,1.2,3.1,1.1,4.6c-0.1,1.5-0.6,2.9-1.3,4.1c-0.7,1.1-1.7,1.9-2.5,2.5c-0.9,0.6-1.7,0.9-2.4,1.2c-0.3,0.1-0.7,0.2-0.9,0.3
			c-0.3,0.1-0.5,0.1-0.7,0.1C644.4,142.9,644.2,142.9,644.2,142.9z"/>
	</g>
	<g class="st7">
		<path class="st4" d="M550,130.5c-3.7,3.2-4.1,8.8-1,12.5c3.2,3.7,8.1,3.4,11.8,0.2s3.6-7.6,0.5-11.4
			C558.2,128.1,553.8,127.3,550,130.5z"/>
		<path class="st8" d="M550.1,130.5c0,0-0.1,0.1-0.4,0.4c-0.1,0.1-0.3,0.3-0.5,0.5c-0.2,0.2-0.4,0.5-0.5,0.8
			c-0.4,0.6-0.7,1.4-0.9,2.4c-0.2,0.9-0.2,2-0.1,3.2c0.2,1.1,0.5,2.3,1.1,3.5c0.6,1.1,1.5,2.3,2.7,3.1c1.2,0.8,2.8,1.2,4.4,1
			c1.6-0.2,3-1,4.3-2l0.4-0.4c0.1-0.1,0.3-0.3,0.4-0.4c0.3-0.3,0.5-0.6,0.7-0.9c0.4-0.6,0.8-1.3,1-2c0.4-1.4,0.4-2.9-0.1-4.2
			c-0.5-1.3-1.3-2.5-2.2-3.5c-0.9-1-1.9-1.7-2.9-2.3c-1-0.5-2-0.8-3-0.8c-1,0-1.8,0.2-2.5,0.5c-0.3,0.1-0.6,0.3-0.8,0.4
			c-0.2,0.1-0.4,0.3-0.6,0.4C550.3,130.4,550.1,130.5,550.1,130.5z M550,130.4c0,0,0.2-0.1,0.5-0.4c0.1-0.1,0.3-0.3,0.6-0.4
			c0.2-0.2,0.5-0.3,0.8-0.5c0.6-0.3,1.5-0.7,2.5-0.9c1-0.2,2.3-0.1,3.6,0.3c1.3,0.4,2.5,1.3,3.6,2.4c1,1.1,2,2.4,2.5,4.1
			c0.5,1.6,0.5,3.5-0.1,5.2c-0.3,0.8-0.8,1.6-1.4,2.3c-0.3,0.3-0.6,0.7-1,0.9c-0.2,0.1-0.3,0.3-0.5,0.4l-0.5,0.4
			c-1.4,0.9-3.1,1.6-4.7,1.8c-1.7,0.2-3.4,0-4.9-0.7c-1.5-0.7-2.7-1.9-3.5-3.2c-0.8-1.3-1.1-2.8-1.2-4.1c0-1.3,0.3-2.5,0.7-3.5
			c0.4-1,0.9-1.7,1.4-2.3c0.2-0.3,0.4-0.5,0.6-0.7c0.2-0.2,0.4-0.4,0.5-0.5C549.8,130.6,550,130.4,550,130.4z"/>
	</g>
	<g class="st7">
		<path class="st4" d="M637.4,204.8c-3.3,3.6-2.9,9.3,0.8,12.6c3.6,3.3,8.5,2.2,11.7-1.4c3.3-3.6,2.5-8.1-1.1-11.3
			S640.7,201.2,637.4,204.8z"/>
		<path class="st8" d="M637.5,204.9c0,0-0.1,0.2-0.4,0.5c-0.1,0.1-0.3,0.3-0.4,0.6c-0.2,0.2-0.3,0.5-0.4,0.8
			c-0.3,0.6-0.5,1.5-0.6,2.5c-0.1,1,0,2.1,0.4,3.2c0.3,1.1,0.8,2.3,1.6,3.3c0.8,1,1.8,2.1,3.1,2.7c1.3,0.7,2.9,0.8,4.5,0.4
			c1.5-0.4,2.9-1.4,3.9-2.6l0.4-0.5c0.1-0.1,0.2-0.3,0.3-0.5c0.3-0.3,0.4-0.7,0.6-1c0.3-0.7,0.6-1.4,0.7-2.1c0.2-1.4,0-2.9-0.7-4.1
			c-0.6-1.2-1.6-2.3-2.6-3.1c-1-0.9-2.1-1.5-3.1-1.9c-1.1-0.4-2.1-0.5-3.1-0.4c-1,0.1-1.8,0.4-2.4,0.8c-0.3,0.2-0.6,0.3-0.8,0.5
			c-0.2,0.2-0.4,0.3-0.5,0.5C637.6,204.7,637.5,204.9,637.5,204.9z M637.3,204.8c0,0,0.1-0.2,0.4-0.4c0.1-0.1,0.3-0.3,0.5-0.5
			c0.2-0.2,0.5-0.4,0.8-0.6c0.6-0.4,1.4-0.9,2.4-1.3c1-0.3,2.3-0.5,3.6-0.2c1.3,0.2,2.7,0.9,3.9,1.9c1.2,0.9,2.3,2.1,3,3.7
			c0.8,1.5,1,3.4,0.6,5.2c-0.2,0.9-0.6,1.7-1.1,2.4c-0.3,0.4-0.5,0.7-0.8,1c-0.2,0.2-0.3,0.3-0.4,0.5l-0.5,0.4
			c-1.3,1.1-2.8,2-4.4,2.4c-1.6,0.5-3.3,0.5-4.9,0c-1.6-0.5-2.9-1.5-3.9-2.7c-1-1.2-1.5-2.6-1.7-3.9c-0.2-1.3,0-2.5,0.2-3.5
			c0.3-1,0.7-1.8,1-2.5c0.2-0.3,0.4-0.6,0.5-0.8c0.2-0.2,0.3-0.4,0.4-0.6C637.2,204.9,637.3,204.8,637.3,204.8z"/>
	</g>
	<g class="st7">
		<path class="st4" d="M553.3,211.1c0.5,4.9,4.9,8.4,9.8,7.9c4.9-0.5,7.4-4.7,6.9-9.6c-0.5-4.9-4.2-7.3-9.1-6.9
			S552.8,206.2,553.3,211.1z"/>
		<path class="st8" d="M553.3,211.1c0,0,0,0.2,0.1,0.6c0,0.2,0.1,0.4,0.2,0.7c0.1,0.3,0.2,0.6,0.3,0.9c0.3,0.7,0.7,1.4,1.4,2.1
			c0.7,0.7,1.5,1.4,2.6,1.9c1,0.5,2.2,0.9,3.5,1.1c1.3,0.1,2.7,0.1,4.1-0.4c1.4-0.5,2.6-1.6,3.3-3c0.7-1.4,0.9-3.1,0.8-4.6l-0.1-0.6
			c0-0.1-0.1-0.4-0.1-0.6c-0.1-0.4-0.2-0.8-0.3-1.1c-0.3-0.7-0.6-1.4-1.1-2c-0.9-1.2-2.1-1.9-3.5-2.3c-1.4-0.4-2.7-0.4-4.1-0.2
			c-1.3,0.2-2.5,0.5-3.5,1.1c-1,0.5-1.8,1.2-2.4,2c-0.6,0.8-0.9,1.6-1,2.3c-0.1,0.3-0.1,0.7-0.1,0.9c0,0.3,0,0.5,0,0.7
			C553.3,210.9,553.3,211.1,553.3,211.1z M553.2,211.1c0,0,0-0.2,0-0.6c0-0.2,0-0.4,0-0.7c0-0.3,0-0.6,0.1-1
			c0.1-0.7,0.2-1.6,0.7-2.6c0.4-1,1.2-2,2.3-2.8c1.1-0.8,2.5-1.3,4-1.6c1.5-0.2,3.1-0.2,4.8,0.3c1.6,0.5,3.2,1.6,4.2,3
			c0.5,0.8,0.8,1.6,1.1,2.5c0.1,0.4,0.2,0.9,0.2,1.3c0,0.2,0,0.4,0,0.6l0,0.6c0,1.7-0.5,3.4-1.2,4.9c-0.8,1.5-1.9,2.8-3.4,3.6
			c-1.5,0.8-3.1,1.1-4.6,1c-1.5-0.1-2.9-0.6-4-1.4c-1.1-0.8-1.9-1.7-2.5-2.6c-0.6-0.9-0.9-1.7-1.1-2.4c-0.1-0.3-0.2-0.7-0.3-0.9
			c-0.1-0.3-0.1-0.5-0.1-0.7C553.2,211.3,553.2,211.1,553.2,211.1z"/>
	</g>
	<g class="st7">
		<path class="st4" d="M712.1,216.8c0,4.9,4.1,8.8,8.9,8.8c4.9,0,7.8-4,7.8-8.8s-3.5-7.7-8.4-7.7
			C715.6,209.1,712.1,211.9,712.1,216.8z"/>
		<path class="st8" d="M712.2,216.8c0,0,0,0.2,0,0.6c0,0.2,0,0.4,0.1,0.7c0,0.3,0.1,0.6,0.2,0.9c0.2,0.7,0.6,1.5,1.2,2.2
			c0.6,0.8,1.4,1.5,2.4,2.1c1,0.6,2.1,1.1,3.4,1.4c1.3,0.3,2.7,0.4,4.1,0c1.4-0.4,2.7-1.3,3.6-2.7c0.9-1.3,1.2-3,1.2-4.6l0-0.6
			c0-0.1,0-0.4-0.1-0.6c0-0.4-0.1-0.8-0.2-1.1c-0.2-0.7-0.5-1.4-0.9-2.1c-0.8-1.2-1.9-2.1-3.3-2.6c-1.3-0.5-2.7-0.6-4-0.6
			c-1.3,0-2.5,0.3-3.6,0.7c-1.1,0.4-1.9,1-2.6,1.7c-0.6,0.7-1,1.5-1.2,2.2c-0.1,0.3-0.2,0.6-0.2,0.9c-0.1,0.3-0.1,0.5-0.1,0.7
			C712.2,216.6,712.2,216.8,712.2,216.8z M712,216.8c0,0,0-0.2,0-0.6c0-0.2,0-0.4,0.1-0.7c0-0.3,0.1-0.6,0.1-1
			c0.2-0.7,0.4-1.6,0.9-2.5c0.5-0.9,1.4-1.9,2.6-2.5c1.2-0.7,2.6-1.1,4.1-1.2c1.5-0.1,3.1,0.1,4.7,0.7c1.6,0.6,3,1.9,3.9,3.4
			c0.4,0.8,0.7,1.7,0.8,2.5c0,0.5,0.1,0.9,0.1,1.3c0,0.2,0,0.4,0,0.6l-0.1,0.6c-0.2,1.7-0.8,3.3-1.7,4.8c-0.9,1.4-2.2,2.6-3.7,3.2
			c-1.5,0.7-3.2,0.8-4.7,0.6c-1.5-0.3-2.9-0.9-3.9-1.8c-1-0.9-1.7-1.9-2.2-2.8c-0.5-0.9-0.7-1.8-0.9-2.5c-0.1-0.4-0.1-0.7-0.2-1
			c0-0.3-0.1-0.5-0.1-0.7C712,217,712,216.8,712,216.8z"/>
	</g>
	<g class="st7">
		<path class="st4" d="M224.2,149.1c1.8,4.5-0.4,9.7-5,11.6c-4.5,1.8-8.7-0.7-10.6-5.3c-1.8-4.5,0.3-8.5,4.9-10.3
			C218.1,143.3,222.4,144.6,224.2,149.1z"/>
		<path class="st8" d="M224.3,149.1c0,0,0.1,0.2,0.2,0.6c0.1,0.2,0.1,0.4,0.2,0.7c0.1,0.3,0.2,0.6,0.2,1c0.1,0.7,0.2,1.6,0.1,2.7
			c-0.1,1-0.4,2.2-1,3.4c-0.6,1.2-1.6,2.3-2.9,3.1c-1.3,0.8-2.9,1.3-4.6,1.2c-1.6-0.1-3.3-0.6-4.6-1.6c-1.4-1-2.5-2.3-3.3-3.8
			l-0.3-0.6c-0.1-0.2-0.2-0.4-0.3-0.6c-0.2-0.4-0.3-0.8-0.4-1.2c-0.2-0.9-0.3-1.8-0.2-2.7c0.2-1.8,1.1-3.5,2.3-4.7
			c1.2-1.2,2.7-2,4.1-2.5c1.4-0.5,2.9-0.7,4.3-0.5c1.3,0.2,2.5,0.7,3.3,1.4c0.9,0.7,1.4,1.4,1.8,2c0.2,0.3,0.4,0.6,0.5,0.8
			c0.1,0.2,0.3,0.5,0.3,0.6C224.2,148.9,224.3,149.1,224.3,149.1z M224.1,149.1c0,0-0.1-0.2-0.3-0.5c-0.1-0.2-0.2-0.4-0.3-0.6
			c-0.1-0.2-0.3-0.5-0.6-0.8c-0.4-0.5-1.1-1.1-2-1.6c-0.9-0.4-1.9-0.7-3-0.6c-1.1,0-2.4,0.2-3.6,0.7c-1.2,0.5-2.5,1.1-3.5,2.1
			c-1,0.9-1.8,2.2-2,3.6c-0.1,0.7-0.1,1.5,0,2.2c0.1,0.4,0.1,0.7,0.2,1.1c0.1,0.2,0.1,0.4,0.2,0.6l0.2,0.6c0.6,1.5,1.5,2.9,2.8,3.8
			c1.3,0.9,2.9,1.3,4.3,1.1c1.4-0.1,2.7-0.8,3.8-1.5c1.1-0.7,1.9-1.7,2.6-2.6c0.7-0.9,1.1-1.9,1.4-2.9c0.3-0.9,0.3-1.8,0.3-2.5
			c0-0.4-0.1-0.7-0.1-0.9c-0.1-0.3-0.1-0.5-0.2-0.7C224.2,149.3,224.1,149.1,224.1,149.1z"/>
	</g>
	<g class="st7">
		<path class="st4" d="M313.9,204.8c3.3,3.6,2.9,9.3-0.8,12.6c-3.6,3.3-8.5,2.2-11.7-1.4c-3.3-3.6-2.5-8.1,1.1-11.3
			C306.2,201.4,310.7,201.2,313.9,204.8z"/>
		<path class="st8" d="M314,204.8c0,0,0.1,0.2,0.4,0.5c0.1,0.1,0.3,0.3,0.4,0.6c0.2,0.2,0.4,0.5,0.5,0.8c0.4,0.6,0.8,1.5,1,2.5
			c0.3,1,0.4,2.2,0.2,3.5c-0.2,1.3-0.7,2.7-1.7,3.9c-1,1.2-2.3,2.2-3.9,2.7c-1.6,0.5-3.3,0.5-4.9,0c-1.6-0.5-3.1-1.3-4.4-2.4
			l-0.5-0.4c-0.2-0.2-0.3-0.3-0.4-0.5c-0.3-0.3-0.6-0.7-0.8-1c-0.5-0.7-0.9-1.6-1.1-2.4c-0.4-1.8-0.1-3.6,0.6-5.2
			c0.7-1.5,1.9-2.8,3-3.7c1.2-0.9,2.5-1.6,3.9-1.9c1.3-0.3,2.6-0.1,3.6,0.2c1,0.3,1.8,0.8,2.4,1.3c0.3,0.2,0.5,0.4,0.8,0.6
			c0.2,0.2,0.4,0.3,0.5,0.5C313.9,204.6,314,204.8,314,204.8z M313.9,204.9c0,0-0.1-0.1-0.4-0.4c-0.1-0.1-0.3-0.3-0.5-0.5
			c-0.2-0.2-0.5-0.4-0.8-0.5c-0.6-0.4-1.4-0.7-2.4-0.8c-1-0.1-2,0-3.1,0.4c-1.1,0.4-2.1,1-3.1,1.9c-1,0.9-2,1.9-2.6,3.1
			c-0.7,1.2-1,2.7-0.7,4.1c0.1,0.7,0.4,1.4,0.7,2.1c0.2,0.3,0.3,0.6,0.6,1c0.1,0.2,0.2,0.4,0.3,0.5l0.4,0.5c1.1,1.2,2.4,2.2,3.9,2.6
			c1.5,0.5,3.2,0.3,4.5-0.4c1.3-0.6,2.3-1.7,3.1-2.7c0.8-1.1,1.3-2.2,1.6-3.3c0.3-1.1,0.4-2.2,0.4-3.2c-0.1-1-0.3-1.8-0.6-2.5
			c-0.1-0.3-0.3-0.6-0.4-0.8c-0.1-0.2-0.3-0.4-0.4-0.6C314,205.1,313.9,204.9,313.9,204.9z"/>
	</g>
	<g class="st7">
		<path class="st4" d="M400.6,213.6c-0.5,4.9-4.9,8.4-9.8,7.9c-4.9-0.5-7.4-4.7-6.9-9.6s4.2-7.3,9.1-6.9S401.1,208.7,400.6,213.6z"
			/>
		<path class="st8" d="M400.7,213.6c0,0,0,0.2-0.1,0.6c0,0.2-0.1,0.4-0.1,0.7c-0.1,0.3-0.1,0.6-0.3,0.9c-0.2,0.7-0.6,1.5-1.1,2.4
			c-0.6,0.9-1.4,1.8-2.5,2.6c-1.1,0.8-2.5,1.3-4,1.4c-1.5,0.1-3.2-0.2-4.6-1c-1.4-0.8-2.6-2.1-3.4-3.6c-0.8-1.5-1.2-3.2-1.2-4.9
			l0-0.6c0-0.3,0-0.4,0-0.6c0-0.4,0.1-0.9,0.2-1.3c0.2-0.9,0.6-1.7,1.1-2.5c1-1.5,2.6-2.6,4.2-3c1.6-0.5,3.3-0.5,4.8-0.3
			c1.5,0.2,2.9,0.8,4,1.6c1.1,0.8,1.9,1.8,2.3,2.8c0.5,1,0.6,1.9,0.7,2.6c0,0.4,0.1,0.7,0.1,1c0,0.3,0,0.5,0,0.7
			C400.7,213.4,400.7,213.6,400.7,213.6z M400.5,213.6c0,0,0-0.2,0-0.6c0-0.2,0-0.4,0-0.7c0-0.3-0.1-0.6-0.1-0.9
			c-0.1-0.7-0.4-1.5-1-2.3c-0.6-0.8-1.4-1.5-2.4-2c-1-0.5-2.2-0.9-3.5-1.1c-1.3-0.1-2.7-0.2-4.1,0.2c-1.4,0.3-2.6,1.1-3.5,2.3
			c-0.4,0.6-0.8,1.2-1.1,2c-0.1,0.4-0.2,0.7-0.3,1.1c0,0.2-0.1,0.4-0.1,0.6l-0.1,0.6c-0.1,1.6,0,3.2,0.8,4.6c0.7,1.4,1.9,2.5,3.3,3
			c1.3,0.5,2.8,0.5,4.1,0.4c1.3-0.1,2.5-0.6,3.5-1.1c1-0.5,1.9-1.2,2.6-1.9c0.7-0.7,1.1-1.4,1.4-2.1c0.1-0.3,0.3-0.6,0.3-0.9
			c0.1-0.3,0.1-0.5,0.2-0.7C400.5,213.8,400.5,213.6,400.5,213.6z"/>
	</g>
	<g class="st7">
		<path class="st4" d="M239.3,216.8c0,4.9-4.1,8.8-8.9,8.8s-7.8-4-7.8-8.8s3.5-7.7,8.4-7.7S239.3,211.9,239.3,216.8z"/>
		<path class="st8" d="M239.3,216.8c0,0,0,0.2,0,0.6c0,0.2,0,0.4-0.1,0.7c0,0.3-0.1,0.6-0.2,1c-0.1,0.7-0.4,1.6-0.9,2.5
			c-0.5,0.9-1.2,1.9-2.2,2.8c-1,0.9-2.4,1.5-3.9,1.8c-1.5,0.2-3.2,0.1-4.7-0.6c-1.5-0.7-2.8-1.8-3.7-3.2c-0.9-1.4-1.5-3.1-1.7-4.8
			L222,217c0-0.3,0-0.4,0-0.6c0-0.4,0-0.9,0.1-1.3c0.1-0.9,0.4-1.7,0.8-2.5c0.9-1.6,2.3-2.8,3.9-3.4c1.6-0.7,3.2-0.8,4.7-0.7
			c1.5,0.1,3,0.5,4.1,1.2c1.2,0.7,2,1.6,2.6,2.5c0.5,0.9,0.8,1.8,0.9,2.5c0.1,0.4,0.1,0.7,0.1,1c0,0.3,0.1,0.5,0.1,0.7
			C239.3,216.6,239.3,216.8,239.3,216.8z M239.2,216.8c0,0,0-0.2,0-0.6c0-0.2,0-0.4-0.1-0.7c0-0.3-0.1-0.6-0.2-0.9
			c-0.2-0.7-0.6-1.5-1.2-2.2c-0.6-0.7-1.5-1.3-2.6-1.7c-1.1-0.4-2.3-0.7-3.6-0.7c-1.3,0-2.7,0.1-4,0.6c-1.3,0.5-2.5,1.4-3.3,2.6
			c-0.4,0.6-0.7,1.3-0.9,2.1c-0.1,0.4-0.2,0.7-0.2,1.1c0,0.2-0.1,0.4-0.1,0.6l0,0.6c0,1.6,0.3,3.2,1.2,4.6c0.8,1.3,2.2,2.3,3.6,2.7
			c1.4,0.4,2.9,0.3,4.1,0c1.3-0.3,2.4-0.8,3.4-1.4c1-0.6,1.8-1.4,2.4-2.1c0.6-0.8,1-1.6,1.2-2.2c0.1-0.3,0.2-0.6,0.2-0.9
			c0.1-0.3,0.1-0.5,0.1-0.7C239.2,217,239.2,216.8,239.2,216.8z"/>
	</g>
	<path class="st5" d="M882.7,151.9c-51-2.1-75.4,29.6-85,71.6c-8.3,36.4,2.5,91.2,2.5,91.2l17.8,10.5L882.7,151.9z"/>
	<path class="st5" d="M72.6,151.9c51-2.1,75.4,29.6,85,71.6c8.3,36.4-2.5,91.2-2.5,91.2l-17.8,10.5L72.6,151.9z"/>
	<g>
		<path class="st9" d="M890.2,152.5c-29.7-6.5-68.8,10.1-83.3,48.6c-8.1,21.3-10.4,88.4,2.5,169.6c-138.6,0-524.9,0-663.6,0
			c12.8-81.2,10.5-148.3,2.5-169.6c-14.6-38.5-53.7-55.1-83.3-48.6C9.4,164.7-0.3,203.4,2.5,226.2c3.5,29.1,25,60.3,68.5,64.4
			l20.8,135.3c0,0-1.4,26,20.8,26c18.7,0,711,0,729.7,0c22.2,0,20.8-26,20.8-26L884,290.6c43.5-4,65-35.3,68.5-64.4
			C955.3,203.4,945.6,164.7,890.2,152.5z"/>
		<g>
			<path class="st10" d="M890.1,152.7c-2.8-0.6-5.6-1-8.5-1.2c-2.9-0.2-5.7-0.2-8.6,0c-5.7,0.4-11.4,1.4-16.8,3.2
				c-5.5,1.7-10.7,4-15.7,6.9c-4.9,2.9-9.6,6.3-13.8,10.2c-4.2,3.9-7.9,8.3-11.1,13c-3.2,4.7-5.9,9.8-8,15.1
				c-2.2,5.3-3.3,10.9-4.2,16.6c-0.9,5.7-1.5,11.4-1.9,17.1c-0.4,5.7-0.7,11.4-0.8,17.2c-0.1,5.7-0.2,11.5-0.1,17.2
				c0.1,5.7,0.2,11.5,0.5,17.2c0.2,5.7,0.6,11.5,1,17.2c0.4,5.7,0.9,11.4,1.4,17.1c0.5,5.7,1.1,11.4,1.8,17.1
				c0.7,5.7,1.4,11.4,2.2,17.1c0.8,5.7,1.7,11.3,2.6,17l0.1,0.9l-0.9,0l-82.9,0.3l-82.9,0.2l-82.9,0.1l-82.9,0l-82.9-0.1l-82.9-0.2
				l-165.9-0.4l-0.7,0l0.1-0.7c3.2-19.9,5.6-39.9,7.2-60c0.8-10.1,1.4-20.1,1.7-30.2c0.3-10.1,0.4-20.2,0.1-30.2
				c-0.3-10.1-0.9-20.1-2.2-30.1c-0.7-5-1.5-10-2.9-14.8c-0.6-2.4-1.6-4.7-2.5-7.1c-0.5-1.2-1-2.3-1.6-3.4c-0.5-1.1-1.1-2.2-1.7-3.3
				c-4.8-8.8-11.3-16.7-19.1-23c-7.8-6.3-16.8-11.1-26.4-13.9c-9.6-2.8-19.8-3.7-29.7-2.1c-1.2,0.2-2.5,0.4-3.7,0.7l-3.7,0.9
				c-1.2,0.3-2.4,0.7-3.6,1l-1.8,0.5l-1.8,0.6c-4.8,1.5-9.4,3.4-13.9,5.7c-8.9,4.5-17.1,10.7-23.3,18.5c-3.1,3.9-5.7,8.2-7.8,12.7
				c-2.1,4.5-3.6,9.3-4.5,14.2c-0.9,4.9-1.2,9.9-1,14.9c0.1,2.5,0.5,5,0.9,7.4c0.4,2.4,1,4.9,1.6,7.3c2.7,9.6,7.3,18.7,13.6,26.4
				c6.3,7.7,14.3,14,23.3,18.4c8.9,4.4,18.8,6.8,28.7,7.7l0.8,0.1l0.1,0.8l21.1,135.2l0,0.1l0,0.2c-0.1,4,0.5,8.1,1.8,11.9
				c1.3,3.8,3.5,7.2,6.6,9.5c3.1,2.3,7.1,3.2,11.1,3.2l12.6,0l50.3-0.1l100.7-0.1l201.3-0.1l201.3,0.1l100.7,0.2l50.3,0.1l12.6,0
				c4,0,8-0.9,11.2-3.2c3.2-2.3,5.4-5.8,6.7-9.6c1.3-3.8,1.9-8,1.8-12l0-0.1l0-0.1l21.3-135.2l0.1-0.4l0.4,0
				c8.6-0.8,17.1-2.7,25.1-6.1c8-3.3,15.4-8.1,21.6-14.1c6.3-6,11.3-13.2,15-21c1.8-3.9,3.4-8,4.5-12.2c1.1-4.2,1.9-8.5,2.3-12.8
				c0.3-4.3,0.2-8.7-0.3-13c-0.6-4.3-1.5-8.5-3-12.6c-2.8-8.2-7.5-15.7-13.4-22c-3-3.1-6.3-6-9.8-8.5c-3.5-2.5-7.3-4.7-11.2-6.6
				c-1.9-1-3.9-1.8-5.9-2.7c-2-0.8-4-1.6-6.1-2.2C898.6,154.7,894.3,153.7,890.1,152.7z M890.2,152.4c4.2,1,8.5,2,12.6,3.5
				c2.1,0.6,4.1,1.5,6.1,2.2c2,0.9,4,1.7,6,2.7c3.9,1.9,7.7,4.1,11.2,6.6c3.5,2.5,6.9,5.4,9.9,8.5c6,6.3,10.7,13.9,13.6,22.2
				c1.5,4.1,2.4,8.4,3,12.7c0.6,4.3,0.7,8.7,0.4,13.1c-0.4,4.3-1.2,8.7-2.3,12.9c-1.1,4.2-2.6,8.3-4.5,12.3
				c-3.7,7.9-8.8,15.2-15.1,21.3c-6.3,6.1-13.7,11-21.8,14.4c-8.1,3.5-16.7,5.4-25.4,6.3l0.5-0.5L864.2,426l0-0.2
				c0.1,2.2-0.1,4.3-0.4,6.5c-0.3,2.1-0.8,4.2-1.5,6.3c-1.4,4.1-3.8,8.1-7.4,10.7c-3.6,2.7-8.2,3.7-12.5,3.7l-12.6,0l-50.3,0.1
				l-100.7,0.2l-201.3,0.1l-201.3-0.1l-100.7-0.1l-50.3-0.1l-12.6,0c-4.4,0-9-1.1-12.6-3.8c-3.7-2.7-6.1-6.7-7.5-10.8
				c-0.7-2.1-1.2-4.2-1.5-6.3c-0.3-2.2-0.5-4.3-0.4-6.5l0,0.3L70,290.7l0.9,0.8c-10.1-1-20.2-3.5-29.4-8.1c-9.2-4.5-17.4-11-23.8-19
				c-6.4-7.9-11.1-17.2-13.8-27.1c-0.6-2.5-1.3-4.9-1.7-7.5c-0.4-2.5-0.8-5-0.9-7.6c-0.3-5.1,0.1-10.2,1.1-15.2
				c1-5,2.5-9.9,4.6-14.5c2.1-4.6,4.8-9,8-13c6.4-7.9,14.7-14.2,23.8-18.8c1.1-0.5,2.3-1.1,3.4-1.6l3.5-1.5c2.4-0.9,4.7-1.8,7.2-2.6
				l1.8-0.6l1.8-0.5c1.2-0.3,2.4-0.7,3.7-1l3.7-0.9c1.2-0.3,2.5-0.5,3.8-0.7c10.1-1.6,20.4-0.7,30.2,2.2c9.7,2.9,18.9,7.7,26.8,14.1
				c7.9,6.4,14.5,14.4,19.3,23.3c0.6,1.1,1.2,2.2,1.7,3.4c0.5,1.2,1.1,2.3,1.6,3.5c0.9,2.3,1.9,4.7,2.6,7.2
				c1.4,4.9,2.2,9.9,2.9,14.9c1.3,10,2,20.1,2.3,30.2c0.3,10.1,0.2,20.2-0.1,30.3c-0.3,10.1-0.9,20.2-1.6,30.2
				c-1.5,20.1-3.9,40.2-7.1,60.2l-0.6-0.7l165.9-0.4l82.9-0.2l82.9-0.1l82.9,0l82.9,0.1l82.9,0.2l82.9,0.3l-0.7,0.9
				c-0.9-5.7-1.7-11.4-2.4-17.1c-0.7-5.7-1.5-11.4-2.1-17.1c-0.6-5.7-1.2-11.4-1.7-17.1c-0.5-5.7-0.9-11.4-1.3-17.2
				c-0.4-5.7-0.6-11.5-0.9-17.2c-0.2-5.7-0.3-11.5-0.4-17.2c0-5.7,0-11.5,0.2-17.2c0.2-5.7,0.4-11.5,0.9-17.2c0.4-5.7,1-11.4,2-17.1
				c0.9-5.7,2-11.4,4.2-16.7c2.1-5.3,4.8-10.5,8.1-15.2c3.3-4.7,7-9.1,11.2-13.1c4.2-3.9,8.9-7.4,13.9-10.2c5-2.9,10.3-5.2,15.8-6.9
				c5.5-1.7,11.2-2.8,16.9-3.1c2.9-0.2,5.8-0.1,8.6,0C884.5,151.4,887.4,151.8,890.2,152.4z"/>
		</g>
	</g>
	<path class="st5" d="M806,380.1c0,30.5-31.5,27.1-272,26.6c-14.6,0-39.6-7-55.7-7c-11.5,0-29.2,7-57.1,7
		c-315.7,0-271.1,6.2-280.5-28.2c-8.5-31.2,54-26.6,276.8-22.9C621.3,359.1,806,341,806,380.1z"/>
	<path class="st5" d="M159.7,291.4c9.2-14.7,31.8-19.3,62.6-16.7s131.7,10.4,159,4.5c27.3-5.9,71.5-1.2,77.8,12.1
		S159.7,291.4,159.7,291.4z"/>
	<path class="st5" d="M794.6,291.4c-9.2-14.7-34.8-14.8-65.6-12.1c-30.8,2.7-70.8,6.4-156,0c-27.7-2.1-75.1,1.2-81.3,14.6
		C485.4,307.1,794.6,291.4,794.6,291.4z"/>
	<g>
		<path class="st6" d="M478.5,337.6c0,72.6,10.3,64.1-148.2,65.2c-166.6,1.1-191.7,6.9-191.7-65.7s28.3-59.7,145-51.2
			C390.5,293.6,478.5,249.9,478.5,337.6z"/>
		<path class="st4" d="M478.6,337.6c0,0,0,3.3,0,9.5c0,3.1,0.1,7,0.1,11.5c0,4.5,0,9.7-0.5,15.5c-0.3,2.9-0.7,6-1.6,9.1
			c-0.9,3.1-2.4,6.2-4.9,8.8c-2.4,2.6-5.7,4.4-9.3,5.7c-3.6,1.3-7.4,2.2-11.4,2.8c-8,1.2-16.7,1.7-25.7,2.1
			c-9.1,0.3-18.6,0.5-28.6,0.5c-19.9,0.2-41.5,0.2-64.4,0.4c-22.8,0.2-46.9,0.5-71.8,0.7c-12.5,0.1-25.1,0.1-38-0.2
			c-12.8-0.4-25.9-0.9-38.9-2.9c-6.5-1-13-2.4-19.3-4.9c-6.2-2.5-12.2-6.2-16.5-11.6c-4.3-5.4-6.7-12-8.2-18.5
			c-1.4-6.6-2-13.3-2.2-20c-0.2-6.7-0.2-13.3,0.1-20c0.3-6.7,1-13.4,2.6-20c0.8-3.3,1.9-6.5,3.5-9.6c1.6-3.1,3.6-5.9,6.1-8.3
			c2.5-2.4,5.5-4.3,8.6-5.7c3.1-1.4,6.4-2.4,9.7-3c6.6-1.3,13.2-1.7,19.7-1.8c6.5-0.1,13,0.2,19.4,0.5c12.8,0.7,25.5,1.8,37.9,2.9
			c12.4,1.1,24.6,2.1,36.6,3c6,0.5,11.9,0.8,17.7,1c5.8,0.2,11.6,0.3,17.3,0.2c22.8-0.1,44.3-1.9,64.2-3.1c10-0.6,19.5-1.2,28.6-1.3
			c9.1-0.1,17.8,0.2,25.8,1.3c8,1.2,15.5,3.3,21.7,6.7c6.2,3.4,10.9,8.3,13.9,13.3c1.5,2.5,2.7,5,3.6,7.5c0.5,1.2,0.8,2.4,1.2,3.6
			c0.3,1.2,0.6,2.3,0.9,3.4c1,4.4,1.5,8.3,1.7,11.4c0.1,1.6,0.2,2.9,0.2,4.1c0.1,1.2,0.1,2.2,0.1,3
			C478.6,336.8,478.6,337.6,478.6,337.6z M478.3,337.6c0,0,0-0.8-0.1-2.4c0-0.8,0-1.8-0.1-3c-0.1-1.2-0.1-2.6-0.3-4.1
			c-0.3-3.1-0.7-6.9-1.8-11.3c-0.3-1.1-0.6-2.2-0.9-3.4c-0.4-1.1-0.7-2.3-1.2-3.5c-0.9-2.4-2.1-4.9-3.6-7.3
			c-3-4.9-7.6-9.6-13.7-12.9c-6.1-3.3-13.5-5.3-21.5-6.3c-8-1-16.6-1.1-25.6-0.9c-9.1,0.3-18.6,1-28.5,1.8
			c-19.8,1.7-41.4,3.6-64.3,4c-5.7,0.1-11.5,0.1-17.4-0.1c-5.9-0.2-11.8-0.5-17.8-0.9c-12-0.9-24.2-1.9-36.6-2.9
			c-12.4-1.1-25-2.2-37.8-3c-6.4-0.4-12.8-0.7-19.2-0.6c-6.4,0-12.9,0.4-19.1,1.6c-6.2,1.2-12.3,3.6-16.9,7.9
			c-2.3,2.1-4.1,4.7-5.6,7.5c-1.4,2.8-2.5,5.9-3.3,9c-1.6,6.3-2.3,12.8-2.7,19.4c-0.3,6.6-0.4,13.2-0.2,19.8
			c0.2,6.6,0.7,13.2,2.1,19.6c1.4,6.4,3.6,12.6,7.6,17.6c3.9,5.1,9.5,8.6,15.5,11c6,2.4,12.4,3.8,18.8,4.9c12.8,2,25.8,2.6,38.6,3
			c12.8,0.4,25.5,0.4,37.9,0.4c24.9-0.1,49-0.3,71.8-0.4c22.8,0,44.4,0.1,64.4,0.2c10,0,19.5,0,28.6-0.3c9.1-0.3,17.7-0.7,25.7-1.9
			c4-0.6,7.8-1.4,11.4-2.7c3.5-1.3,6.8-3.1,9.2-5.6c2.5-2.5,3.9-5.6,4.8-8.7c0.9-3.1,1.3-6.1,1.6-9c0.5-5.8,0.5-11,0.5-15.5
			c0-4.5-0.1-8.4-0.1-11.5C478.3,341,478.3,337.6,478.3,337.6z"/>
	</g>
	<g>
		<path class="st6" d="M478.3,334.4c1.9,72.5-6,68.4,145.1,68.4c166.1,0,191.2,6.9,191.1-65.7c-0.1-83.4-73.9-42.3-179.3-48.7
			C516.4,281.3,476.7,273,478.3,334.4z"/>
		<path class="st4" d="M478.5,334.4c0,0,0.1,3.3,0.2,9.4c0.1,3.1,0.2,6.8,0.3,11.3c0.2,4.4,0.4,9.5,1,15.2c0.3,2.8,0.8,5.8,1.7,8.8
			c0.8,3,2.1,6.1,4,8.8c2,2.7,4.7,5,7.9,6.7c3.2,1.7,6.9,2.8,10.7,3.7c7.7,1.7,16.1,2.3,25,2.7c8.9,0.4,18.2,0.5,28,0.5
			c19.6,0,40.7,0,63.1,0.1c22.4,0.1,46.1,0.5,70.5,0.7c12.2,0.1,24.6,0.2,37.2-0.1c6.3-0.1,12.6-0.3,18.9-0.7
			c6.3-0.4,12.7-0.9,19-1.7c6.3-0.9,12.7-2.1,18.8-4.1c6.1-2,11.9-4.9,16.5-9.5c4.6-4.5,7.5-10.4,9.2-16.6
			c1.7-6.2,2.4-12.7,2.8-19.2c0.3-6.5,0.4-13,0-19.5c-0.2-3.2-0.5-6.4-1-9.6c-0.5-3.2-1.2-6.3-2.2-9.3c-2-6-5.1-11.7-9.8-15.9
			c-4.6-4.2-10.4-6.9-16.5-8.4c-6.1-1.5-12.4-2.1-18.7-2.3c-6.3-0.2-12.6,0-18.8,0.3c-12.5,0.7-24.9,1.9-37.1,2.8
			c-12.2,1-24.2,1.8-36,2.1c-11.8,0.4-23.4,0.3-34.6-0.3c-11.2-0.6-22.1-1.4-32.6-2.1c-10.5-0.7-20.7-1.4-30.4-2
			c-9.7-0.6-19.1-1.1-28-1.4c-8.9-0.3-17.3-0.3-25.2,0.3c-7.9,0.6-15.2,1.8-21.6,4.2c-6.4,2.3-11.6,6.2-14.9,10.8
			c-1.7,2.3-2.9,4.7-3.8,7c-0.9,2.3-1.6,4.6-2.1,6.8c-1,4.3-1.3,8.1-1.5,11.1c-0.2,3-0.2,5.4-0.2,7
			C478.4,333.6,478.5,334.4,478.5,334.4z M478.1,334.4c0,0,0-0.8,0-2.4c0-1.6,0-3.9,0.1-7c0.2-3.1,0.5-6.8,1.4-11.2
			c0.4-2.2,1.1-4.5,2-6.9c0.9-2.4,2.1-4.9,3.8-7.2c3.3-4.8,8.5-8.9,15-11.5c6.5-2.6,13.9-4,21.9-4.9c8-0.8,16.5-1.1,25.4-1
			c8.9,0.1,18.3,0.4,28.1,0.9c9.8,0.4,20,1.1,30.5,1.8c10.5,0.7,21.4,1.4,32.6,2c22.3,1.1,45.9,0.2,70.2-1.6
			c12.2-0.9,24.6-2,37.2-2.6c6.3-0.3,12.7-0.4,19.1-0.2c6.4,0.3,12.9,0.9,19.3,2.6c6.3,1.7,12.6,4.5,17.5,9.1
			c4.9,4.6,8.2,10.7,10.2,17c1,3.2,1.7,6.4,2.1,9.7c0.5,3.3,0.8,6.5,0.9,9.8c0.2,6.6,0.1,13.1-0.3,19.6c-0.4,6.5-1.2,13.1-3.1,19.4
			c-0.9,3.2-2.1,6.3-3.7,9.2c-1.6,2.9-3.6,5.6-6,7.9c-4.7,4.7-10.8,7.6-17,9.6c-6.2,2-12.6,3.2-19,4.1c-12.8,1.7-25.5,2.3-38.1,2.7
			c-12.6,0.3-25,0.5-37.2,0.6c-24.4,0.1-48.1,0.2-70.5,0.3c-11.2,0-22.1,0.1-32.6,0.1c-10.5,0-20.7,0-30.5-0.2
			c-9.8-0.2-19.2-0.5-28.1-1.1c-8.9-0.6-17.4-1.5-25.2-3.4c-3.9-1-7.6-2.2-10.9-4.1c-3.3-1.8-6.2-4.3-8.1-7.2c-2-2.9-3.2-6.1-4-9.2
			c-0.8-3.1-1.2-6.1-1.5-8.9c-0.6-5.7-0.7-10.8-0.8-15.2c-0.1-4.4-0.2-8.2-0.2-11.3C478.2,337.6,478.1,334.4,478.1,334.4z"/>
	</g>
	<g>
		<g class="st11">
			<path class="st4" d="M62.7,169.9c0,0-0.6,0.1-1.6,0.3c-0.5,0.1-1.2,0.2-1.9,0.3c-0.4,0-0.8,0.2-1.2,0.3c-0.4,0.1-0.9,0.2-1.3,0.4
				c-0.9,0.2-2,0.5-3.1,1c-1.1,0.4-2.3,0.8-3.5,1.4c-1.2,0.6-2.6,1.1-3.8,2c-0.7,0.4-1.3,0.8-2,1.2c-0.7,0.5-1.3,0.9-2,1.4
				c-1.4,0.9-2.7,2.1-4,3.2c-0.7,0.6-1.3,1.2-2,1.9c-0.7,0.6-1.3,1.3-1.9,2c-0.6,0.7-1.3,1.4-1.9,2.2c-0.6,0.8-1.2,1.6-1.8,2.4
				c-0.6,0.8-1.1,1.6-1.7,2.5c-0.5,0.9-1.1,1.7-1.6,2.6c-2.1,3.5-3.7,7.5-5.1,11.6c-0.3,1-0.7,2.1-0.9,3.1c-0.2,1.1-0.5,2.1-0.7,3.2
				c-0.3,2.2-0.7,4.3-0.8,6.5c-0.2,2.2-0.1,4.4-0.1,6.6c0.1,1.1,0.2,2.2,0.3,3.3c0.1,1.1,0.3,2.1,0.5,3.2l0.3,1.6l0.4,1.6
				c0.3,1,0.5,2.1,0.8,3.1c0.3,1,0.7,2,1,3c0.2,0.5,0.3,1,0.6,1.4c0.2,0.5,0.4,0.9,0.6,1.4c0.8,1.9,1.8,3.6,2.8,5.4l0.4,0.7l0.4,0.6
				c0.3,0.4,0.5,0.8,0.8,1.2c0.6,0.8,1.1,1.6,1.6,2.4c0.6,0.7,1.2,1.5,1.8,2.2c0.6,0.7,1.1,1.4,1.8,2.1c0.6,0.7,1.2,1.3,1.8,1.9
				c0.6,0.6,1.2,1.3,1.8,1.8c1.3,1.1,2.4,2.2,3.6,3.2c1.2,0.9,2.4,1.8,3.4,2.6c0.5,0.4,1.1,0.8,1.6,1.1c0.5,0.4,1,0.7,1.5,1
				c1,0.6,1.9,1.3,2.7,1.8c3.4,2,5.4,3.1,5.4,3.1s-2.1-0.9-5.7-2.5c-0.9-0.5-1.8-1-2.9-1.6c-0.5-0.3-1.1-0.6-1.6-0.9
				c-0.6-0.3-1.2-0.6-1.7-1c-1.2-0.8-2.4-1.6-3.7-2.4c-1.3-0.9-2.5-2-3.9-3c-0.7-0.5-1.3-1.1-2-1.7c-0.7-0.6-1.3-1.2-2-1.9
				c-0.7-0.6-1.3-1.3-1.9-2.1c-0.6-0.7-1.3-1.5-1.9-2.2c-0.6-0.8-1.2-1.6-1.8-2.4c-0.3-0.4-0.6-0.8-0.9-1.2l-0.5-0.6l-0.4-0.7
				c-1.1-1.8-2.2-3.6-3.1-5.6c-0.2-0.5-0.5-1-0.7-1.5c-0.3-0.5-0.5-1-0.6-1.5c-0.4-1-0.8-2.1-1.2-3.1c-0.4-1.1-0.6-2.2-1-3.2
				l-0.4-1.6l-0.3-1.7c-0.2-1.1-0.5-2.2-0.6-3.4c-0.1-1.1-0.2-2.3-0.3-3.5c-0.1-2.3-0.2-4.6,0-7c0.1-2.3,0.5-4.6,0.9-6.9
				c0.3-1.1,0.5-2.3,0.8-3.4c0.3-1.1,0.7-2.2,1-3.3c0.2-0.5,0.3-1.1,0.5-1.6l0.6-1.6c0.4-1,0.8-2.1,1.3-3.1c0.5-1,1-2,1.5-3
				c0.6-1,1.1-1.9,1.7-2.8c0.5-1,1.2-1.8,1.8-2.7c0.6-0.9,1.2-1.8,1.9-2.5c0.7-0.8,1.3-1.6,2-2.4c0.7-0.7,1.4-1.5,2.1-2.2
				c0.7-0.7,1.4-1.4,2.1-2c0.7-0.6,1.4-1.3,2.1-1.9c1.5-1.1,2.9-2.2,4.4-3.1c0.7-0.5,1.5-0.9,2.2-1.3c0.7-0.4,1.5-0.7,2.2-1.1
				c1.4-0.8,2.8-1.2,4.1-1.7c1.3-0.6,2.6-0.8,3.7-1.2c1.1-0.4,2.3-0.5,3.2-0.7c1-0.1,1.9-0.4,2.6-0.4c0.8,0,1.4-0.1,1.9-0.1
				C62.1,170,62.7,169.9,62.7,169.9z"/>
		</g>
		<g class="st11">
			<path class="st4" d="M90.8,169.9c0,0,0.5,0.1,1.6,0.4c1,0.3,2.5,0.6,4.4,1.3c1.9,0.6,4.1,1.6,6.5,2.9c1.2,0.7,2.5,1.4,3.8,2.3
				c0.6,0.4,1.3,0.9,2,1.4c0.6,0.5,1.3,1.1,1.9,1.6c1.4,1.1,2.6,2.4,3.9,3.6c0.6,0.7,1.2,1.4,1.9,2.1c0.6,0.7,1.2,1.5,1.8,2.3
				c0.6,0.8,1.2,1.6,1.8,2.4c0.6,0.8,1.1,1.7,1.7,2.6c0.5,0.9,1,1.8,1.6,2.7c0.5,0.9,1,1.9,1.5,2.8c1.9,3.8,3.6,7.9,4.9,12.2
				c0.7,2.1,1.3,4.3,1.9,6.5c0.5,2.2,1.1,4.4,1.5,6.6c0.9,4.4,1.6,8.9,2.2,13.3c0.1,1.1,0.3,2.2,0.4,3.3c0.1,1.1,0.2,2.2,0.3,3.3
				c0.2,2.2,0.4,4.3,0.5,6.4c0.3,4.2,0.5,8.3,0.6,12.1c0.1,3.9,0.2,7.5,0.2,10.9c0,3.4,0,6.4-0.1,9.2c0,2.7-0.1,5.1-0.2,7.1
				c-0.1,2-0.1,3.5-0.2,4.5c0,1-0.1,1.6-0.1,1.6s-0.1-2.2-0.4-6.1c-0.2-3.9-0.6-9.5-0.9-16.2c-0.1-1.7-0.2-3.4-0.3-5.2
				c-0.1-1.8-0.2-3.7-0.4-5.6c-0.3-3.8-0.6-7.9-1-12c-0.4-4.2-0.9-8.4-1.5-12.8c-0.6-4.3-1.3-8.7-2.2-13c-0.4-2.2-0.9-4.3-1.4-6.5
				c-0.6-2.1-1.1-4.3-1.8-6.3c-0.6-2.1-1.4-4.1-2.1-6.1c-0.8-2-1.5-3.9-2.4-5.8c-1.7-3.7-3.6-7.2-5.8-10.3c-1-1.6-2.2-3-3.3-4.4
				c-1.2-1.3-2.3-2.6-3.5-3.7c-0.6-0.6-1.2-1.1-1.8-1.7c-0.6-0.5-1.2-1-1.8-1.4c-1.1-1-2.4-1.7-3.5-2.5c-0.3-0.2-0.6-0.4-0.8-0.6
				c-0.3-0.2-0.6-0.3-0.8-0.5c-0.5-0.3-1.1-0.6-1.6-0.9c-1-0.6-2-1-2.9-1.4c-1.7-0.9-3.2-1.4-4.2-1.8
				C91.3,170.1,90.8,169.9,90.8,169.9z"/>
		</g>
	</g>
	<g>
		<g class="st11">
			<path class="st4" d="M890.7,169.9c0,0,0.6,0,1.6,0.1c0.5,0,1.2,0.1,1.9,0.1c0.8,0,1.6,0.2,2.6,0.4c1,0.2,2.1,0.3,3.2,0.7
				c1.2,0.3,2.4,0.6,3.7,1.2c1.3,0.5,2.7,1,4.1,1.7c0.7,0.4,1.4,0.7,2.2,1.1c0.7,0.4,1.4,0.9,2.2,1.3c1.5,0.9,2.9,2,4.4,3.1
				c0.7,0.6,1.4,1.2,2.1,1.9c0.7,0.6,1.5,1.3,2.1,2c0.7,0.7,1.4,1.4,2.1,2.2c0.6,0.8,1.3,1.6,2,2.4c0.7,0.8,1.3,1.7,1.9,2.5
				c0.6,0.9,1.2,1.7,1.8,2.7c0.5,0.9,1.1,1.9,1.7,2.8c0.5,1,1,2,1.5,3c0.5,1,0.9,2.1,1.3,3.1l0.6,1.6c0.2,0.5,0.3,1.1,0.5,1.6
				c0.3,1.1,0.7,2.2,1,3.3c0.3,1.1,0.5,2.2,0.8,3.4c0.4,2.3,0.8,4.6,0.9,6.9c0.2,2.3,0.1,4.6,0,7c-0.1,1.2-0.2,2.3-0.3,3.5
				c-0.1,1.1-0.4,2.3-0.6,3.4l-0.3,1.7l-0.4,1.6c-0.3,1.1-0.6,2.2-1,3.2c-0.4,1-0.8,2.1-1.2,3.1c-0.2,0.5-0.4,1-0.6,1.5
				c-0.2,0.5-0.5,1-0.7,1.5c-0.9,2-2,3.8-3.1,5.6l-0.4,0.7l-0.5,0.6c-0.3,0.4-0.6,0.8-0.9,1.2c-0.6,0.8-1.2,1.6-1.8,2.4
				c-0.7,0.7-1.3,1.5-1.9,2.2c-0.6,0.7-1.2,1.5-1.9,2.1c-0.7,0.6-1.3,1.3-2,1.9c-0.6,0.6-1.3,1.2-2,1.7c-1.4,1.1-2.6,2.1-3.9,3
				c-1.3,0.9-2.5,1.7-3.7,2.4c-0.6,0.4-1.2,0.7-1.7,1c-0.6,0.3-1.1,0.6-1.6,0.9c-1.1,0.6-2,1.1-2.9,1.6c-3.6,1.6-5.7,2.5-5.7,2.5
				s2-1.1,5.4-3.1c0.8-0.5,1.7-1.1,2.7-1.8c0.5-0.3,1-0.7,1.5-1c0.5-0.3,1.1-0.7,1.6-1.1c1.1-0.8,2.2-1.7,3.4-2.6
				c1.2-1,2.3-2.1,3.6-3.2c0.6-0.5,1.2-1.2,1.8-1.8c0.6-0.6,1.2-1.3,1.8-1.9c0.6-0.6,1.2-1.4,1.8-2.1c0.6-0.7,1.2-1.4,1.8-2.2
				c0.6-0.8,1.1-1.6,1.6-2.4c0.3-0.4,0.5-0.8,0.8-1.2l0.4-0.6l0.4-0.7c0.9-1.7,2-3.5,2.8-5.4c0.2-0.5,0.4-0.9,0.6-1.4
				c0.2-0.5,0.4-1,0.6-1.4c0.3-1,0.7-2,1-3c0.3-1,0.5-2.1,0.8-3.1l0.4-1.6l0.3-1.6c0.2-1.1,0.4-2.1,0.5-3.2c0.1-1.1,0.2-2.2,0.3-3.3
				c0-2.2,0.1-4.4-0.1-6.6c-0.1-2.2-0.5-4.4-0.8-6.5c-0.2-1.1-0.5-2.1-0.7-3.2c-0.2-1.1-0.6-2.1-0.9-3.1c-1.3-4.1-2.9-8.1-5.1-11.6
				c-0.5-0.9-1.1-1.8-1.6-2.6c-0.6-0.8-1.1-1.7-1.7-2.5c-0.6-0.8-1.2-1.6-1.8-2.4c-0.6-0.7-1.3-1.5-1.9-2.2c-0.6-0.7-1.3-1.4-1.9-2
				c-0.7-0.6-1.3-1.3-2-1.9c-1.4-1.1-2.7-2.3-4-3.2c-0.7-0.5-1.3-0.9-2-1.4c-0.7-0.4-1.4-0.8-2-1.2c-1.3-0.8-2.6-1.4-3.8-2
				c-1.2-0.6-2.4-1-3.5-1.4c-1.1-0.5-2.1-0.7-3.1-1c-0.5-0.1-0.9-0.2-1.3-0.4c-0.4-0.1-0.8-0.2-1.2-0.3c-0.8-0.1-1.4-0.2-1.9-0.3
				C891.2,170,890.7,169.9,890.7,169.9z"/>
		</g>
		<g class="st11">
			<path class="st4" d="M862.6,169.9c0,0-0.5,0.2-1.5,0.6c-1,0.4-2.4,0.9-4.2,1.8c-0.9,0.4-1.9,0.8-2.9,1.4c-0.5,0.3-1,0.6-1.6,0.9
				c-0.3,0.2-0.6,0.3-0.8,0.5c-0.3,0.2-0.5,0.4-0.8,0.6c-1.1,0.8-2.3,1.5-3.5,2.5c-0.6,0.5-1.2,1-1.8,1.4c-0.6,0.5-1.2,1.1-1.8,1.7
				c-1.2,1.1-2.3,2.4-3.5,3.7c-1.1,1.4-2.3,2.8-3.3,4.4c-2.2,3.1-4.1,6.6-5.8,10.3c-0.9,1.9-1.6,3.8-2.4,5.8c-0.7,2-1.4,4-2.1,6.1
				c-0.7,2.1-1.2,4.2-1.8,6.3c-0.5,2.1-1,4.3-1.4,6.5c-0.9,4.3-1.6,8.7-2.2,13c-0.6,4.3-1.1,8.6-1.5,12.8c-0.4,4.2-0.7,8.2-1,12
				c-0.1,1.9-0.3,3.8-0.4,5.6c-0.1,1.8-0.2,3.5-0.3,5.2c-0.4,6.7-0.7,12.3-0.9,16.2c-0.3,3.9-0.4,6.1-0.4,6.1s0-0.6-0.1-1.6
				c0-1-0.1-2.6-0.2-4.5c-0.1-2-0.1-4.3-0.2-7.1c-0.1-2.7-0.1-5.8-0.1-9.2c0-3.4,0-7,0.2-10.9c0.1-3.9,0.3-7.9,0.6-12.1
				c0.2-2.1,0.3-4.2,0.5-6.4c0.1-1.1,0.2-2.2,0.3-3.3c0.1-1.1,0.3-2.2,0.4-3.3c0.6-4.4,1.3-8.9,2.2-13.3c0.4-2.2,1-4.4,1.5-6.6
				c0.6-2.2,1.2-4.4,1.9-6.5c1.3-4.3,3-8.4,4.9-12.2c0.5-1,0.9-1.9,1.5-2.8c0.5-0.9,1-1.8,1.6-2.7c0.6-0.9,1.1-1.7,1.7-2.6
				c0.5-0.9,1.2-1.6,1.8-2.4c0.6-0.8,1.2-1.6,1.8-2.3c0.6-0.7,1.2-1.4,1.9-2.1c1.3-1.3,2.5-2.6,3.9-3.6c0.7-0.5,1.3-1.1,1.9-1.6
				c0.7-0.5,1.3-0.9,2-1.4c1.2-0.9,2.6-1.6,3.8-2.3c2.4-1.3,4.6-2.3,6.5-2.9c1.8-0.7,3.3-1,4.4-1.3
				C862,170.1,862.6,169.9,862.6,169.9z"/>
		</g>
	</g>
	<g class="st7">
		<path class="st4" d="M403.8,133c3.7,3.2,4.1,8.8,1,12.5s-8.1,3.4-11.8,0.2c-3.7-3.2-3.6-7.6-0.5-11.4
			C395.7,130.7,400.1,129.8,403.8,133z"/>
		<path class="st8" d="M403.9,132.9c0,0,0.2,0.1,0.4,0.4c0.1,0.1,0.3,0.3,0.5,0.5c0.2,0.2,0.4,0.4,0.6,0.7c0.5,0.6,0.9,1.3,1.4,2.3
			c0.4,1,0.7,2.2,0.7,3.5c0,1.3-0.4,2.8-1.2,4.1c-0.8,1.3-2,2.5-3.5,3.2c-1.5,0.7-3.2,0.9-4.9,0.7c-1.7-0.2-3.3-0.9-4.7-1.8
			l-0.5-0.4c-0.2-0.1-0.3-0.3-0.5-0.4c-0.3-0.2-0.6-0.6-1-0.9c-0.6-0.7-1.1-1.4-1.4-2.3c-0.7-1.7-0.6-3.6-0.1-5.2
			c0.5-1.6,1.5-3,2.5-4.1c1-1.1,2.3-2,3.6-2.4c1.3-0.4,2.5-0.5,3.6-0.3c1.1,0.2,1.9,0.6,2.5,0.9c0.3,0.2,0.6,0.4,0.8,0.5
			c0.2,0.2,0.4,0.3,0.6,0.4C403.7,132.8,403.9,132.9,403.9,132.9z M403.8,133.1c0,0-0.2-0.1-0.5-0.3c-0.1-0.1-0.3-0.2-0.6-0.4
			c-0.2-0.2-0.5-0.3-0.8-0.4c-0.6-0.3-1.5-0.5-2.5-0.5c-1,0-2,0.3-3,0.8c-1,0.5-2,1.3-2.9,2.3c-0.9,1-1.7,2.1-2.2,3.5
			c-0.5,1.3-0.6,2.8-0.1,4.2c0.2,0.7,0.6,1.4,1,2c0.2,0.3,0.4,0.6,0.7,0.9c0.1,0.1,0.3,0.3,0.4,0.4l0.4,0.4c1.2,1,2.7,1.8,4.3,2
			c1.6,0.2,3.2-0.1,4.4-1c1.2-0.8,2.1-2,2.7-3.1c0.6-1.2,0.9-2.4,1.1-3.5c0.2-1.1,0.1-2.2-0.1-3.2c-0.2-1-0.5-1.8-0.9-2.4
			c-0.2-0.3-0.4-0.6-0.5-0.8c-0.2-0.2-0.3-0.4-0.5-0.5C403.9,133.2,403.8,133.1,403.8,133.1z"/>
	</g>
	<g class="st7">
		<path class="st4" d="M309.7,145.4c-4.9-0.6-8.3-5-7.8-9.9s4.8-7.3,9.7-6.7c4.9,0.6,7.3,4.3,6.7,9.2S314.6,145.9,309.7,145.4z"/>
		<path class="st8" d="M309.7,145.4c0,0-0.2,0-0.6-0.1c-0.2,0-0.4-0.1-0.7-0.1c-0.3-0.1-0.6-0.1-0.9-0.3c-0.7-0.2-1.5-0.6-2.4-1.2
			c-0.9-0.6-1.8-1.4-2.5-2.5c-0.7-1.1-1.2-2.5-1.3-4.1c-0.1-1.5,0.3-3.1,1.1-4.6c0.8-1.4,2.1-2.6,3.6-3.3c1.5-0.7,3.2-1.1,4.9-1.1
			l0.6,0c0.3,0,0.4,0,0.6,0.1c0.4,0,0.9,0.1,1.3,0.2c0.9,0.2,1.7,0.6,2.4,1.1c1.5,1,2.5,2.6,3,4.3c0.5,1.6,0.5,3.3,0.2,4.8
			c-0.3,1.5-0.8,2.9-1.6,4c-0.8,1.1-1.8,1.8-2.8,2.3c-1,0.4-1.9,0.6-2.6,0.6c-0.4,0-0.7,0-1,0c-0.3,0-0.5,0-0.7,0
			C309.9,145.5,309.7,145.4,309.7,145.4z M309.7,145.3c0,0,0.2,0,0.6,0c0.2,0,0.4,0,0.7,0c0.3,0,0.6-0.1,0.9-0.1
			c0.7-0.1,1.5-0.4,2.3-1c0.8-0.5,1.5-1.4,2-2.4c0.5-1,0.9-2.2,1.1-3.5c0.2-1.3,0.2-2.7-0.1-4.1c-0.3-1.4-1.1-2.6-2.2-3.5
			c-0.6-0.4-1.2-0.8-1.9-1.1c-0.4-0.1-0.7-0.3-1.1-0.3c-0.2,0-0.4-0.1-0.6-0.1l-0.6-0.1c-1.6-0.2-3.2,0-4.7,0.7
			c-1.4,0.7-2.6,1.9-3.1,3.2c-0.6,1.3-0.6,2.8-0.5,4.1c0.1,1.3,0.5,2.5,1,3.5c0.5,1,1.1,1.9,1.8,2.6c0.7,0.7,1.4,1.2,2.1,1.4
			c0.3,0.2,0.6,0.3,0.9,0.3c0.3,0.1,0.5,0.1,0.7,0.2C309.5,145.2,309.7,145.3,309.7,145.3z"/>
	</g>
</g>
<g id="Fyrsits">
</g>
<g id="Tresits">
</g>
</svg>
