<?xml version="1.0" encoding="utf-8"?>
<!-- Generator: Adobe Illustrator 15.0.0, SVG Export Plug-In . SVG Version: 6.00 Build 0)  -->
<!DOCTYPE svg PUBLIC "-//W3C//DTD SVG 1.1//EN" "http://www.w3.org/Graphics/SVG/1.1/DTD/svg11.dtd">
<svg version="1.1" id="Layer_1" xmlns="http://www.w3.org/2000/svg" xmlns:xlink="http://www.w3.org/1999/xlink" x="0px" y="0px"
	 width="500px" height="500px" viewBox="0 0 500 500" enable-background="new 0 0 500 500" xml:space="preserve">
<circle fill="#FCC3FC" cx="250" cy="249.061" r="246.688"/>
<g>
	<g id="bowtie">
		<path fill="#7F3360" stroke="#272727" stroke-width="2" stroke-miterlimit="10" d="M156.725,370.211c-0.1,0-0.204,0-0.304,0
			c-0.086-0.239-0.083-0.243-0.377-0.311c-2.266-0.5-4.293-1.522-6.139-2.917c-0.97-0.741-1.828-1.612-2.725-2.439
			c-10.904-10.08-20.396-21.366-28.693-33.67c-8.353-12.391-15.332-25.529-21.211-39.254c-5.8-13.521-10.41-27.449-14.162-41.668
			c-1.027-3.904-1.949-7.825-2.582-11.811c-0.658-4.159-1.174-8.344-1.577-12.533c-0.386-4.02-0.667-8.044-0.828-12.078
			c-0.195-4.896-0.321-9.791-0.091-14.699c0.229-4.761,0.502-9.526,1.083-14.267c0.55-4.488,1.33-8.933,2.478-13.309
			c1.169-4.453,2.69-8.777,4.925-12.82c1.647-2.977,3.635-5.688,6.204-7.945c1.715-1.503,3.669-2.6,5.71-3.595
			c2.495-1.213,5.034-2.292,7.694-3.067c2.959-0.862,5.961-1.468,9.042-1.62c0.229-0.017,0.455-0.034,0.681-0.078
			c0.116-0.03,0.139-0.126,0.021-0.204c0.408,0,0.814,0,1.222,0c0.004,0.125,0.087,0.16,0.195,0.16c0.936,0,1.872,0,2.807,0
			c0.112,0,0.19-0.04,0.199-0.16c0.459,0,0.915,0,1.374,0c-0.116,0.086-0.082,0.174,0.034,0.204
			c0.221,0.043,0.451,0.065,0.676,0.078c3.864,0.182,7.672,0.763,11.437,1.625c7.629,1.759,14.773,4.722,21.57,8.552
			c7.894,4.445,15.059,9.882,21.757,15.96c7.404,6.728,14.097,14.115,20.283,21.969c8.591,10.917,16.207,22.477,22.697,34.766
			c0.065,0.125,0.087,0.29,0.282,0.325c0.238-0.157,0.351-0.421,0.507-0.646c3.157-4.54,6.61-8.82,10.765-12.499
			c3.232-2.872,6.763-5.264,10.804-6.867c4.146-1.633,8.431-2.179,12.85-1.572c3.817,0.528,7.356,1.88,10.685,3.799
			c5.4,3.111,9.876,7.265,13.71,12.152c0.151,0.2,0.261,0.441,0.508,0.572c0.254-0.222,0.376-0.533,0.533-0.814
			c1.614-2.907,3.3-5.774,5.09-8.578c7.128-11.186,15.458-21.388,25.032-30.568c2.582-2.479,5.233-4.878,8.17-6.953
			c10.81-7.621,22.16-14.318,34.068-20.075c6.628-3.198,13.413-6.026,20.471-8.167c3.89-1.183,7.824-2.136,11.855-2.699
			c0.829-0.117,1.666-0.186,2.492-0.303c0.155-0.022,0.454,0.091,0.416-0.265c0.208,0,0.413,0,0.61,0
			c0.355,0.247,0.711,0.186,1.062,0c1.431,0,2.847,0,4.271,0c0.351,0.178,0.706,0.26,1.065,0c0.152,0,0.304,0,0.454,0
			c0.117,0.243,0.117,0.247,0.477,0.286c1.213,0.117,2.409,0.338,3.593,0.637c4.575,1.14,8.43,3.427,11.307,7.222
			c2.022,2.668,3.304,5.684,4.133,8.907c1.325,5.134,2.396,10.315,3.244,15.544c0.682,4.155,1.208,8.332,1.608,12.525
			c0.306,3.257,0.563,6.516,0.667,9.791c0.008,0.226,0.035,0.451,0.072,0.676c0.021,0.117,0.108,0.155,0.199,0.043
			c0,1.018,0,2.032,0,3.05c-0.173,0.035-0.146,0.174-0.146,0.295c0,3.816,0,7.629,0,11.45c0,0.122-0.026,0.256,0.146,0.294
			c0,1.062,0,2.136,0,3.198c-0.087-0.112-0.182-0.087-0.199,0.035c-0.047,0.325-0.068,0.654-0.086,0.979
			c-0.072,1.473-0.117,2.946-0.226,4.415c-0.26,3.769-0.575,7.539-0.982,11.298c-0.413,3.713-0.889,7.408-1.443,11.094
			c-0.688,4.566-1.511,9.106-2.412,13.633c-0.226,1.101-0.454,2.188-1.178,3.096c-0.195,0.246-0.265,0.545-0.305,0.856
			c-0.199,1.547-0.654,3.021-1.339,4.425c-0.147,0.303-0.22,0.605-0.22,0.952c-0.005,1.2-0.174,2.378-0.489,3.535
			c-0.138,0.479-0.191,0.947-0.078,1.43c0.139,0.563,0.052,1.096-0.091,1.642c-2.02,7.712-4.347,15.319-6.953,22.853
			c-3.554,10.233-7.885,20.111-13.261,29.53c-3.97,6.957-8.323,13.653-13.435,19.832c-3.743,4.516-7.812,8.682-12.56,12.151
			c-3.192,2.337-6.598,4.271-10.371,5.524c-4.046,1.339-8.175,1.736-12.386,1.019c-3.288-0.564-6.338-1.776-9.225-3.433
			c-4.525-2.6-8.746-5.627-12.731-8.998c-7.058-5.957-13.257-12.724-18.871-20.036c-10.125-13.188-18.403-27.476-25.123-42.669
			c-0.1-0.229-0.16-0.473-0.32-0.65c-0.091,0.039-0.152,0.047-0.179,0.077c-0.406,0.52-0.797,1.058-1.198,1.577
			c-2.805,3.592-5.971,6.779-9.893,9.158c-5.57,3.375-11.522,4.319-17.861,2.855c-4.358-1.008-8.296-2.958-11.992-5.437
			c-4.969-3.336-9.288-7.392-13.123-11.974c-0.138-0.169-0.234-0.395-0.489-0.478c-0.043,0.061-0.108,0.116-0.122,0.184
			c-0.511,2.126-1.313,4.153-2.131,6.177c-6.299,15.582-13.847,30.543-22.68,44.839c-3.938,6.377-8.201,12.533-13.031,18.277
			c-3.405,4.056-7.057,7.864-11.303,11.057c-2.508,1.89-5.173,3.487-8.149,4.54c-0.866,0.304-1.746,0.537-2.639,0.711
			c-0.208,0.043-0.208,0.048-0.312,0.299c-0.104,0-0.204,0-0.308,0c-0.129-0.204-0.303-0.204-0.606,0c-1.118,0-2.235,0-3.354,0
			C157.032,370.011,156.919,370.011,156.725,370.211z"/>
		<path fill="#010000" d="M421.13,212.634c-0.173-0.04-0.147-0.174-0.147-0.299c-0.004-3.817-0.004-7.629,0-11.446
			c0-0.121-0.025-0.26,0.147-0.299C421.13,204.606,421.13,208.618,421.13,212.634z"/>
		<path fill="#010000" d="M120.303,141.918c-0.004,0.13-0.086,0.165-0.2,0.165c-0.931,0-1.872,0-2.807,0
			c-0.113,0-0.191-0.039-0.195-0.165C118.172,141.918,119.237,141.918,120.303,141.918z"/>
		<path fill="#010000" d="M390.038,141.918c-0.355,0.187-0.713,0.251-1.065,0C389.328,141.918,389.683,141.918,390.038,141.918z"/>
		<path fill="#010000" d="M395.376,141.918c-0.361,0.264-0.715,0.183-1.069,0C394.66,141.918,395.015,141.918,395.376,141.918z"/>
		<path fill="#010000" d="M156.725,370.211c0.195-0.199,0.308-0.199,0.763,0C157.23,370.211,156.98,370.211,156.725,370.211z"/>
		<path fill="#010000" d="M160.835,370.211c0.312-0.204,0.485-0.204,0.611,0C161.248,370.211,161.044,370.211,160.835,370.211z"/>
		<path fill="#7F3360" stroke="#272727" stroke-width="2" stroke-miterlimit="10" d="M252.515,206.191
			c19.726,0,35.715,21.267,35.715,47.503c0,26.236-15.989,47.507-35.715,47.507c-19.72,0-35.71-21.271-35.71-47.507
			C216.805,227.458,232.794,206.191,252.515,206.191z"/>
		<path fill="#E8B4D3" stroke="#272727" stroke-width="2" stroke-miterlimit="10" d="M216.808,264.594"/>
		<path fill="#511F3F" d="M139.499,147.953c0,0-19.894-3.037-29.918,18.273c-11.979,25.448-12.936,80.194,9.12,142.245
			c24.793,69.731-0.208,22.406-17.083-7.27C101.618,301.202,32.51,107.875,139.499,147.953z"/>
		<path fill="#511F3F" d="M276.281,219.837c0,0-21.695-8.179-34.862,6.456c-8.881,9.877-19.85,38.306-5.692,70.286
			c0,0-42.031-34.016-5.133-80.363C247.537,194.931,271.846,213.184,276.281,219.837z"/>
		<path fill="#511F3F" d="M418.584,174.514c0,0-32.874-51.541-134.908,52.71l-2.217-5.168c0,0,29.57-65.812,107.514-80.138
			C418.487,136.495,417.664,165.815,418.584,174.514z"/>
		<path fill="#511F3F" d="M281.458,281.516"/>
		<path fill="#511F3F" d="M285.57,271.726c0,0,6.979,29.476,64.451,29.476c-31.157-7.33-61.787-35.207-61.787-35.207L285.57,271.726
			z"/>
		<path fill="#511F3F" d="M284.92,252.469c0,0-5.451-17.624,45.957-21.683c-24.963,6.459-41.304,24.829-41.304,24.829
			L284.92,252.469z"/>
		<path fill="#511F3F" d="M220.504,266.345c0,0-14.665-11.185-36.183,35.676c14.66-21.213,37.534-30.226,37.534-30.226
			L220.504,266.345z"/>
		<path fill="#511F3F" d="M220.162,248.531c0,0-19.967,21.938-88.365-45.354c39.978,28.996,87.468,36.378,87.468,36.378
			L220.162,248.531z"/>
	</g>
	<g id="bowtie_outline">
		<path fill="none" stroke="#272727" stroke-width="2" stroke-miterlimit="10" d="M157.678,370.055c-0.1,0-0.204,0-0.304,0
			c-0.087-0.234-0.083-0.238-0.372-0.305c-2.271-0.507-4.298-1.528-6.139-2.92c-0.975-0.741-1.828-1.607-2.725-2.435
			c-10.905-10.08-20.396-21.37-28.692-33.675c-8.357-12.395-15.328-25.53-21.215-39.249c-5.797-13.526-10.406-27.449-14.153-41.672
			c-1.032-3.899-1.954-7.824-2.586-11.81c-0.659-4.164-1.174-8.34-1.577-12.533c-0.381-4.021-0.667-8.05-0.828-12.075
			c-0.19-4.899-0.325-9.795-0.091-14.699c0.226-4.77,0.498-9.527,1.083-14.274c0.555-4.48,1.33-8.925,2.474-13.305
			c1.174-4.453,2.694-8.777,4.93-12.824c1.645-2.976,3.634-5.684,6.208-7.937c1.707-1.508,3.665-2.604,5.71-3.596
			c2.495-1.212,5.03-2.292,7.693-3.071c2.955-0.862,5.957-1.464,9.042-1.621c0.225-0.013,0.455-0.034,0.675-0.078
			c0.122-0.026,0.143-0.121,0.026-0.204c0.412,0,0.811,0,1.217,0c0.008,0.126,0.087,0.165,0.2,0.165c0.936,0,1.872,0,2.807,0
			c0.108,0,0.191-0.042,0.2-0.165c0.455,0,0.914,0,1.369,0c-0.112,0.086-0.083,0.177,0.035,0.2c0.23,0.047,0.455,0.073,0.685,0.083
			c3.864,0.182,7.672,0.758,11.433,1.629c7.625,1.759,14.769,4.722,21.575,8.547c7.889,4.445,15.059,9.882,21.752,15.96
			c7.404,6.728,14.102,14.11,20.288,21.969c8.591,10.921,16.203,22.479,22.693,34.771c0.065,0.122,0.086,0.291,0.281,0.321
			c0.238-0.152,0.351-0.417,0.507-0.646c3.153-4.539,6.606-8.815,10.761-12.498c3.231-2.868,6.763-5.264,10.805-6.862
			c4.146-1.638,8.435-2.184,12.85-1.572c3.821,0.524,7.36,1.876,10.688,3.795c5.396,3.111,9.877,7.265,13.707,12.152
			c0.155,0.199,0.261,0.441,0.511,0.567c0.251-0.221,0.377-0.524,0.529-0.81c1.615-2.907,3.3-5.774,5.091-8.573
			c7.13-11.186,15.461-21.393,25.031-30.573c2.581-2.478,5.233-4.878,8.175-6.949c10.809-7.629,22.155-14.322,34.064-20.076
			c6.628-3.206,13.418-6.03,20.472-8.171c3.888-1.183,7.823-2.136,11.855-2.699c0.829-0.117,1.664-0.187,2.49-0.299
			c0.16-0.026,0.456,0.091,0.422-0.269c0.203,0,0.405,0,0.601,0c0.355,0.251,0.715,0.187,1.071,0c1.421,0,2.841,0,4.267,0
			c0.355,0.183,0.71,0.265,1.064,0c0.147,0,0.306,0,0.451,0c0.126,0.247,0.122,0.251,0.48,0.286
			c1.213,0.117,2.408,0.342,3.592,0.637c4.574,1.14,8.43,3.427,11.307,7.222c2.022,2.668,3.304,5.684,4.133,8.907
			c1.324,5.129,2.396,10.314,3.243,15.548c0.677,4.151,1.214,8.327,1.609,12.516c0.303,3.258,0.559,6.516,0.661,9.791
			c0.011,0.229,0.04,0.455,0.073,0.681c0.021,0.122,0.109,0.151,0.204,0.043c0,1.018,0,2.032,0,3.05
			c-0.173,0.035-0.144,0.174-0.144,0.294c-0.004,3.817-0.004,7.63,0,11.451c0,0.117-0.029,0.26,0.144,0.294c0,1.062,0,2.131,0,3.201
			c-0.091-0.122-0.188-0.086-0.204,0.03c-0.044,0.32-0.064,0.654-0.082,0.983c-0.073,1.469-0.116,2.938-0.221,4.406
			c-0.265,3.773-0.58,7.543-0.991,11.308c-0.408,3.708-0.887,7.404-1.441,11.09c-0.689,4.566-1.513,9.107-2.414,13.634
			c-0.221,1.1-0.455,2.188-1.176,3.098c-0.198,0.242-0.259,0.54-0.303,0.854c-0.204,1.547-0.658,3.019-1.339,4.423
			c-0.151,0.305-0.225,0.607-0.225,0.953c-0.005,1.196-0.174,2.378-0.49,3.534c-0.133,0.48-0.188,0.953-0.076,1.43
			c0.143,0.564,0.051,1.095-0.091,1.646c-2.021,7.707-4.347,15.315-6.955,22.849c-3.548,10.228-7.881,20.109-13.256,29.529
			c-3.97,6.963-8.323,13.654-13.439,19.832c-3.737,4.515-7.81,8.688-12.56,12.152c-3.187,2.341-6.598,4.276-10.369,5.523
			c-4.048,1.344-8.171,1.738-12.386,1.019c-3.284-0.564-6.334-1.776-9.226-3.432c-4.526-2.595-8.745-5.626-12.727-8.994
			c-7.062-5.96-13.261-12.728-18.876-20.036c-10.119-13.191-18.403-27.476-25.118-42.673c-0.102-0.226-0.159-0.473-0.324-0.65
			c-0.093,0.045-0.152,0.047-0.178,0.078c-0.402,0.523-0.794,1.058-1.201,1.577c-2.799,3.592-5.966,6.78-9.891,9.159
			c-5.567,3.378-11.524,4.323-17.858,2.854c-4.358-1.01-8.301-2.96-11.991-5.438c-4.973-3.336-9.292-7.391-13.123-11.969
			c-0.144-0.169-0.234-0.398-0.489-0.48c-0.044,0.061-0.104,0.117-0.122,0.182c-0.511,2.127-1.317,4.154-2.136,6.18
			c-6.299,15.583-13.837,30.542-22.68,44.838c-3.938,6.377-8.201,12.533-13.031,18.277c-3.405,4.057-7.053,7.863-11.298,11.062
			c-2.508,1.883-5.173,3.486-8.149,4.535c-0.867,0.304-1.742,0.537-2.638,0.713c-0.208,0.042-0.208,0.047-0.312,0.296
			c-0.104,0-0.204,0-0.307,0c-0.131-0.199-0.304-0.199-0.606,0c-1.118,0-2.235,0-3.354,0
			C157.985,369.863,157.873,369.863,157.678,370.055z"/>
		<path fill="none" stroke="#272727" stroke-width="2" stroke-miterlimit="10" d="M252.515,206.191
			c19.726,0,35.715,21.267,35.715,47.503c0,26.236-15.989,47.507-35.715,47.507c-19.72,0-35.71-21.271-35.71-47.507
			C216.805,227.458,232.794,206.191,252.515,206.191z"/>
		<g>
			<path fill="#272727" d="M216.808,253.695c0,0-1.265-0.053-3.461-0.341c-2.192-0.306-5.324-0.812-9.007-1.752
				c-3.704-0.87-7.932-2.226-12.395-3.882c-2.183-0.931-4.523-1.72-6.762-2.846c-2.262-1.066-4.566-2.148-6.793-3.375l-3.323-1.863
				c-1.075-0.671-2.149-1.338-3.21-1.997c-2.17-1.261-4.12-2.773-6.052-4.172c-1.971-1.344-3.708-2.869-5.364-4.298
				c-0.828-0.71-1.628-1.403-2.408-2.075c-0.728-0.724-1.435-1.43-2.105-2.102c-1.343-1.348-2.565-2.591-3.596-3.738
				c-0.97-1.2-1.819-2.249-2.525-3.107c-1.374-1.737-2.119-2.75-2.119-2.75s1.022,0.767,2.747,2.127
				c0.849,0.698,1.88,1.529,3.059,2.491c1.217,0.905,2.595,1.928,4.094,3.045c1.46,1.157,3.12,2.292,4.883,3.488
				c1.746,1.212,3.583,2.486,5.553,3.705c1.941,1.265,3.973,2.513,6.074,3.729c1.044,0.62,2.093,1.248,3.149,1.876l3.262,1.742
				c2.131,1.239,4.346,2.331,6.521,3.417c2.162,1.105,4.341,2.097,6.425,3.11c2.131,0.906,4.15,1.911,6.117,2.73
				c1.971,0.828,3.834,1.607,5.55,2.331c3.457,1.416,6.377,2.534,8.435,3.309C215.625,253.258,216.808,253.695,216.808,253.695z"/>
		</g>
		<g>
			<path fill="#272727" d="M216.808,264.594c0,0-0.121,0.058-0.355,0.174c-0.229,0.096-0.546,0.343-0.936,0.555
				c-0.385,0.195-0.822,0.55-1.334,0.897c-0.506,0.376-1.074,0.71-1.642,1.238c-0.572,0.493-1.178,1.019-1.837,1.524
				c-0.606,0.594-1.248,1.218-1.906,1.864c-0.671,0.619-1.377,1.243-1.989,2.009c-0.64,0.732-1.316,1.447-1.997,2.167
				c-0.728,0.657-1.317,1.469-1.941,2.23c-0.614,0.767-1.252,1.498-1.889,2.2c-0.611,0.719-1.317,1.334-1.815,2.053
				c-0.537,0.693-1.083,1.324-1.59,1.914c-2.01,2.357-3.73,3.805-3.73,3.805s0.394-2.129,1.551-5.134
				c0.282-0.749,0.603-1.568,0.971-2.412c0.325-0.872,0.901-1.66,1.421-2.526c0.538-0.85,1.109-1.725,1.719-2.591
				c0.594-0.885,1.226-1.756,2.015-2.526c0.767-0.773,1.529-1.55,2.313-2.281c0.732-0.784,1.625-1.391,2.5-1.964
				c0.866-0.57,1.693-1.121,2.521-1.577c0.885-0.391,1.733-0.711,2.504-1.001c0.741-0.341,1.546-0.429,2.205-0.563
				c0.659-0.139,1.239-0.204,1.746-0.188C216.293,264.447,216.808,264.594,216.808,264.594z"/>
		</g>
		<g>
			<path fill="#272727" d="M288.229,247.928c0,0,0.034-0.476,0.307-1.278c0.239-0.854,0.794-1.897,1.551-3.167
				c0.422-0.576,0.897-1.204,1.436-1.846c0.52-0.671,1.165-1.248,1.871-1.819c0.693-0.585,1.421-1.178,2.192-1.737
				c0.81-0.477,1.665-0.917,2.518-1.369c0.875-0.386,1.693-0.94,2.611-1.152c0.894-0.281,1.789-0.516,2.651-0.732
				c0.867-0.221,1.708-0.403,2.496-0.55c0.814-0.056,1.595-0.065,2.306-0.069c2.845-0.04,4.713,0.342,4.713,0.342
				s-1.676,1.1-4.143,2.14c-0.614,0.269-1.277,0.55-1.988,0.806c-0.671,0.351-1.382,0.711-2.119,1.058
				c-0.735,0.342-1.495,0.68-2.283,0.988c-0.797,0.272-1.493,0.774-2.261,1.139c-0.758,0.373-1.521,0.75-2.286,1.083
				c-0.703,0.424-1.405,0.849-2.105,1.23c-0.702,0.381-1.405,0.732-1.99,1.166c-0.609,0.407-1.226,0.763-1.802,1.091
				c-1.019,0.789-2.036,1.374-2.63,1.88C288.605,247.599,288.229,247.928,288.229,247.928z"/>
		</g>
		<g>
			<path fill="#272727" d="M287.271,264.594c0,0,2.311,2.258,5.757,5.43c0.867,0.784,1.804,1.628,2.796,2.529
				c0.97,0.91,2.093,1.768,3.146,2.756c2.235,1.832,4.588,3.799,7.062,5.598c1.205,0.957,2.456,1.823,3.699,2.672
				c1.23,0.88,2.456,1.702,3.679,2.462c1.2,0.787,2.396,1.496,3.544,2.168c1.14,0.689,2.219,1.335,3.258,1.854
				c1.026,0.57,1.97,1.083,2.806,1.542c0.865,0.398,1.613,0.789,2.226,1.104c1.245,0.643,1.951,1.053,1.951,1.053
				s-0.794-0.043-2.196-0.208c-0.697-0.086-1.556-0.182-2.535-0.341c-0.967-0.188-2.04-0.469-3.21-0.783
				c-0.59-0.165-1.206-0.334-1.834-0.512c-0.61-0.229-1.247-0.477-1.893-0.719c-1.303-0.503-2.694-1.009-4.021-1.755
				c-1.354-0.693-2.794-1.365-4.113-2.266c-1.38-0.814-2.719-1.737-4.008-2.726c-1.322-0.957-2.548-2.01-3.748-3.071
				c-1.221-1.026-2.262-2.214-3.348-3.267c-2.055-2.234-3.844-4.424-5.173-6.45c-1.379-1.989-2.331-3.773-2.952-5.039
				C287.536,265.36,287.271,264.594,287.271,264.594z"/>
		</g>
	</g>
</g>
</svg>
