<?xml version="1.0" encoding="utf-8"?>
<!-- Generator: Adobe Illustrator 15.0.0, SVG Export Plug-In . SVG Version: 6.00 Build 0)  -->
<!DOCTYPE svg PUBLIC "-//W3C//DTD SVG 1.1//EN" "http://www.w3.org/Graphics/SVG/1.1/DTD/svg11.dtd">
<svg version="1.1" id="Layer_1" xmlns="http://www.w3.org/2000/svg" xmlns:xlink="http://www.w3.org/1999/xlink" x="0px" y="0px"
	 width="500px" height="500px" viewBox="0 0 500 500" enable-background="new 0 0 500 500" xml:space="preserve">
<circle fill="#F4E8B3" cx="250" cy="249.061" r="246.688"/>
<g id="crown">
	<g>
		<path fill="#272727" d="M327.729,350.251c-22.294,2.364-45.994,2.963-69.712,2.976c-28.231,0.016-56.42-1.04-84.523-3.714
			c-18.131-1.723-36.115-4.604-53.618-9.852c-4.729-1.407-9.424-3.072-13.528-5.968c-5.497-3.872-5.784-7.32-1.137-12.233
			c2.33-2.469,5.2-4.087,8.28-5.367c5.218-2.186,7.645-6.181,8.424-11.701c1.397-9.904-0.626-18.914-5.484-27.62
			c-15.216-27.299-34.028-52.072-53.33-76.513c-1.686-2.139-3.46-4.218-5.004-6.453c-1.005-1.444-3.791-2.664-1.493-4.942
			c2.075-2.064,4.522-2.213,7.069-0.474c3.513,2.405,7.048,4.796,10.702,6.973c9.37,5.585,19.1,10.345,30.03,12.102
			c13.605,2.182,24.019-5.872,29.424-14.435c3.39-5.367,5.53-11.232,6.345-17.522c0.308-2.394,1.125-4.009,3.609-4.561
			c2.559-0.567,3.839,0.842,5.134,2.773c8.005,11.936,18.334,20.991,32.347,25.205c12.937,3.892,24.551,1.312,34.675-7.611
			c14.729-12.985,25.099-29.176,33.858-46.515c1.171-2.317,2.318-4.655,3.311-7.053c1.019-2.458,2.881-3.245,5.351-3.257
			c2.478-0.006,2.582,1.966,3.145,3.611c5.231,15.21,11.944,29.619,22.985,41.606c9.771,10.612,21.553,17.361,36.352,15.919
			c20.011-1.961,34.531-12.461,43.601-30.445c0.416-0.844,0.714-1.761,1.226-2.543c1.307-1.982,3.31-2.119,5.369-1.692
			c2.019,0.424,1.841,2.129,1.945,3.672c0.596,8.52,1.77,16.928,4.669,25.033c5.459,15.294,15.358,20.512,31.07,16.376
			c12.35-3.245,22.848-10.025,33.124-17.227c0.68-0.478,1.305-1.047,2.021-1.431c1.894-1.012,4.072-1.493,5.633,0.119
			c1.786,1.841-0.389,3.206-1.383,4.462c-16.829,21.278-32.505,43.383-47.004,66.306c-6.159,9.74-10.984,20.092-12.046,31.878
			c-0.643,7.188,0.881,13.842,3.698,20.347c0.621,1.424,1.788,1.695,3.056,2.082c4.77,1.455,9.389,3.224,13.393,6.33
			c6.532,5.069,6.438,11.11-0.656,15.271c-9.598,5.633-20.331,8.2-31.1,10.41c-11.008,2.258-22.182,3.273-33.367,4.273
			C339.155,349.293,334.137,350.103,327.729,350.251z M431.122,203.017c-6.72,3.227-13.345,6.544-20.482,8.652
			c-18.215,5.364-31.966-0.88-39.397-18.05c-2.373-5.486-3.77-11.299-4.781-17.068c-1.086-0.121-1.355,0.524-1.687,0.949
			c-6.797,8.661-15.335,15.116-25.388,19.47c-14.849,6.434-29.731,7.328-44.462-0.496c-13.466-7.157-22.614-18.444-30.034-31.393
			c-3.176-5.558-5.717-11.428-8.265-17.383c-0.46,0.351-0.716,0.45-0.816,0.639c-0.563,1.037-1.075,2.104-1.625,3.151
			c-8.621,16.48-18.486,32.006-33.245,43.841c-15.653,12.548-32.605,14.611-50.864,6.374c-9.349-4.212-17.003-10.631-23.827-18.476
			c-1.333,2.925-2.425,5.78-3.881,8.438c-5.704,10.389-13.091,19.069-25.314,21.663c-7.794,1.659-15.573,0.212-23.152-1.955
			c-5.983-1.71-11.699-4.164-18.158-7.375c2.188,2.905,3.716,4.971,5.284,7.004c15.178,19.726,29.178,40.259,42.262,61.427
			c8,12.925,8.671,26.498,4.37,40.627c-0.558,1.826-0.179,2.494,1.306,3.267c4.451,2.325,9.286,3.409,14.143,4.301
			c7.937,1.454,15.989,1.941,24.023,2.487c0.979,0.066,2.396-0.312,2.745,1.047c0.381,1.446-0.992,1.982-1.917,2.663
			c-0.787,0.584-1.661,0.866-2.66,0.845c-13.662-0.315-27.38-1.018-40.006-6.635c-5.7-2.532-9.418-0.428-13.48,2.398
			c-2.044,1.425-2.064,3.219-0.108,5.02c2.22,2.042,4.825,3.465,7.586,4.465c18.742,6.834,38.345,9.281,58.061,11.001
			c17.117,1.486,34.265,2.541,51.443,3.181c30.723,1.128,61.418,0.266,92.087-1.344c11.874-0.628,23.797-1.685,35.612-3.564
			c12.504-1.983,24.956-4.132,37.176-7.446c3.894-1.059,7.674-2.498,10.949-4.92c2.09-1.554,2.976-3.474,0.581-5.583
			c-4.232-3.716-9.557-5.069-14.744-6.667c-0.554-0.175-1.393,0.237-1.973,0.577c-3.797,2.225-8.061,2.655-12.278,3.236
			c-1.728,0.232-3.51,0.127-3.879-2.024c-0.364-2.113,1.253-2.938,2.931-3.358c2.061-0.524,4.17-0.87,6.276-1.218
			c3.133-0.514,3.855-2.047,2.614-5.009c-2.599-6.241-3.336-12.789-2.652-19.516c1.183-11.59,5.968-21.854,11.917-31.609
			C405.064,239.534,417.909,221.207,431.122,203.017z"/>
		<g>
			<path fill="#FEDC49" stroke="#282828" stroke-width="0.75" stroke-miterlimit="10" d="M439.965,196.699
				c-13.85,19.077-27.323,38.286-39.541,58.335c-6.229,10.231-11.248,20.989-12.484,33.147c-0.717,7.052,0.043,13.91,2.778,20.456
				c1.295,3.108,0.544,4.714-2.746,5.255c-2.205,0.359-4.411,0.727-6.576,1.271c-1.762,0.442-3.455,1.313-3.077,3.527
				c0.39,2.256,2.268,2.373,4.072,2.127c4.414-0.61,8.89-1.062,12.867-3.396c0.614-0.361,1.498-0.786,2.076-0.611
				c5.435,1.679,11.023,3.099,15.456,6.993c2.506,2.209,1.581,4.228-0.611,5.853c-3.434,2.545-7.391,4.052-11.483,5.161
				c-12.814,3.476-25.864,5.731-38.975,7.811c-12.394,1.97-24.889,3.085-37.35,3.739c-32.154,1.686-64.342,2.591-96.555,1.406
				c-18.009-0.662-35.986-1.774-53.933-3.337c-20.681-1.799-41.225-4.363-60.883-11.527c-2.889-1.055-5.619-2.538-7.954-4.685
				c-2.054-1.889-2.035-3.773,0.118-5.266c4.255-2.962,8.153-5.17,14.129-2.511c13.243,5.883,27.627,6.624,41.953,6.948
				c1.042,0.026,1.969-0.274,2.786-0.877c0.967-0.723,2.408-1.277,2.014-2.795c-0.376-1.422-1.852-1.034-2.88-1.102
				c-8.43-0.571-16.867-1.082-25.193-2.608c-5.096-0.938-10.162-2.072-14.83-4.508c-1.548-0.813-1.95-1.509-1.368-3.423
				c4.516-14.813,3.801-29.051-4.578-42.604c-13.727-22.197-28.406-43.72-44.319-64.405c-1.643-2.129-3.247-4.295-5.542-7.344
				c6.773,3.365,12.766,5.938,19.04,7.734c7.948,2.271,16.1,3.787,24.28,2.049c12.822-2.722,20.562-11.82,26.542-22.715
				c1.529-2.786,2.677-5.776,4.072-8.848c7.146,8.228,15.177,14.956,24.979,19.375c19.144,8.635,36.925,6.475,53.333-6.687
				c15.473-12.399,25.825-28.685,34.851-45.966c0.579-1.096,1.121-2.213,1.712-3.301c0.104-0.195,0.375-0.302,0.855-0.671
				c2.667,6.239,5.332,12.399,8.666,18.229c7.787,13.577,17.382,25.416,31.496,32.916c15.438,8.203,31.045,7.266,46.621,0.521
				c10.545-4.566,19.493-11.33,26.62-20.417c0.344-0.445,0.628-1.118,1.769-0.994c1.068,6.053,2.523,12.142,5.011,17.897
				c7.787,18.001,22.207,24.548,41.309,18.927C425.977,203.564,432.913,200.083,439.965,196.699z M251.688,314.156
				c2.509-0.118,4.306-1.052,5.868-2.628c13.156-13.204,26.302-26.402,39.547-39.513c1.789-1.774,1.659-2.845-0.042-4.53
				c-12.881-12.75-25.676-25.585-38.52-38.377c-3.277-3.261-5.881-3.302-9.21,0.027c-13.19,13.158-26.304,26.388-39.516,39.532
				c-1.752,1.744-2.069,2.934-0.13,4.858c13.096,12.943,26.079,25.975,39.077,39.003C249.681,313.45,250.64,314.139,251.688,314.156
				z M329.112,293.563c1.895-0.215,3.56-0.95,4.928-2.325c6.483-6.508,12.918-13.047,19.473-19.471
				c1.604-1.578,1.688-2.55,0.013-4.174c-6.159-5.971-12.129-12.11-18.21-18.142c-2.78-2.763-5.66-2.873-8.447-0.139
				c-6.651,6.531-13.161,13.193-19.801,19.736c-1.413,1.397-1.742,2.443-0.189,3.98c6.472,6.356,12.86,12.793,19.286,19.19
				C326.958,293.011,327.822,293.742,329.112,293.563z M178.54,247.321c-2.963,0.246-4.626,0.909-6.018,2.309
				c-6.479,6.51-12.952,13.035-19.506,19.473c-1.615,1.594-1.537,2.682,0.076,4.255c6.06,5.897,11.999,11.908,17.98,17.892
				c3.064,3.071,5.786,3.238,8.972,0.125c6.583-6.43,13-13.017,19.554-19.471c1.626-1.597,1.533-2.697-0.1-4.289
				c-6.23-6.064-12.338-12.261-18.477-18.419C180.034,248.205,179.06,247.248,178.54,247.321z"/>
			<g>
				<path fill="#EEA420" stroke="#282828" stroke-miterlimit="10" d="M251.688,314.156c-1.048-0.017-2.001-0.705-2.924-1.63
					c-12.998-13.025-25.982-26.06-39.078-39.002c-1.944-1.927-1.622-3.118,0.131-4.862c13.207-13.142,26.325-26.374,39.516-39.528
					c3.33-3.331,5.932-3.292,9.211-0.028c12.842,12.792,25.637,25.625,38.52,38.376c1.7,1.688,1.828,2.76,0.035,4.531
					c-13.236,13.112-26.382,26.308-39.54,39.511C255.993,313.105,254.191,314.037,251.688,314.156z M228.525,271.962
					c0.909-0.655,1.857-1.098,2.46-1.817c2.448-2.953,4.835-5.962,7.157-9.009c4.395-5.784,10.407-10.11,14.511-16.16
					c0.412-0.613,1.124-1.051,0.62-1.881c-0.524-0.858-1.387-0.955-2.293-0.817c-1.072,0.161-1.75,0.954-2.351,1.709
					c-3.088,3.864-6.726,7.218-9.691,11.244c-3.438,4.675-7.725,8.735-11.631,13.068c-0.563,0.625-1.394,1.243-0.473,2.172
					C227.336,270.984,227.901,271.421,228.525,271.962z"/>
				<path fill="#EEA420" stroke="#282828" stroke-miterlimit="10" d="M329.112,293.563c-1.29,0.183-2.154-0.55-2.947-1.348
					c-6.427-6.394-12.813-12.83-19.285-19.189c-1.556-1.531-1.224-2.581,0.189-3.979c6.635-6.542,13.149-13.209,19.801-19.736
					c2.783-2.736,5.657-2.625,8.448,0.14c6.082,6.031,12.051,12.17,18.204,18.142c1.677,1.62,1.597,2.594-0.008,4.173
					c-6.56,6.425-12.995,12.968-19.478,19.471C332.672,292.613,331.004,293.346,329.112,293.563z M334.431,269.913
					c0.63-3.646-1.628-7.212-1.959-11.152c-0.271-3.215-2.916-3.655-5.219-1.36c-3.505,3.499-7.002,7.012-10.539,10.482
					c-1.205,1.19-1.643,2.064-0.103,3.532c4.396,4.19,8.582,8.602,12.904,12.873c0.492,0.488,1.051,1.866,2.001,0.748
					c0.607-0.716,2.057-1.273,1.41-2.581c-0.928-1.856-0.362-3.869,0.284-5.279C334.262,274.885,334.34,272.643,334.431,269.913z"/>
				<path fill="#EEA420" stroke="#282828" stroke-miterlimit="10" d="M178.54,247.321c0.52-0.073,1.494,0.883,2.483,1.875
					c6.143,6.158,12.251,12.354,18.48,18.419c1.627,1.587,1.721,2.692,0.095,4.289c-6.555,6.458-12.971,13.041-19.554,19.471
					c-3.182,3.113-5.907,2.945-8.972-0.127c-5.982-5.98-11.92-11.992-17.98-17.89c-1.613-1.573-1.691-2.664-0.076-4.257
					c6.554-6.439,13.027-12.962,19.506-19.471C173.914,248.23,175.576,247.567,178.54,247.321z M179.132,276.519
					c1.975-6.395,0.499-12.621-1.244-18.732c-0.496-1.756-1.973-3.414-4.257-0.827c-3.439,3.889-7.167,7.542-10.99,11.068
					c-1.726,1.591-1.239,2.361,0.171,3.713c3.843,3.655,7.515,7.482,11.269,11.233c2.96,2.957,4.284,2.77,6.275-1.029
					c0.511-0.963,0.701-2.095,1.03-3.147c0.045-0.087,0.08-0.173,0.12-0.261c-0.055,0.072-0.104,0.146-0.164,0.217
					c-1.567,0.12-2.148-0.787-2.261-2.179L179.132,276.519z"/>
				<path fill="#F3E243" d="M228.525,271.962c-0.625-0.54-1.19-0.979-1.691-1.487c-0.922-0.932-0.091-1.549,0.473-2.175
					c3.906-4.334,8.193-8.394,11.631-13.068c2.969-4.025,6.603-7.381,9.69-11.245c0.602-0.755,1.279-1.549,2.352-1.709
					c0.905-0.139,1.769-0.044,2.292,0.816c0.5,0.832-0.212,1.268-0.62,1.881c-4.104,6.051-10.115,10.371-14.516,16.161
					c-2.316,3.049-4.709,6.056-7.156,9.009C230.378,270.87,229.435,271.305,228.525,271.962z"/>
				<path fill="#F3E243" d="M334.431,269.913c-0.095,2.733-0.169,4.972-1.221,7.259c-0.646,1.413-1.211,3.421-0.285,5.278
					c0.646,1.31-0.798,1.866-1.405,2.582c-0.956,1.118-1.514-0.26-2.008-0.747c-4.322-4.27-8.508-8.684-12.904-12.875
					c-1.542-1.468-1.103-2.337,0.107-3.532c3.54-3.471,7.03-6.983,10.535-10.481c2.309-2.294,4.95-1.855,5.221,1.357
					C332.803,262.699,335.066,266.267,334.431,269.913z"/>
				<path fill="#F3E243" d="M181.383,278.798c-0.329,1.056-0.516,2.188-1.025,3.149c-1.996,3.796-3.315,3.986-6.275,1.03
					c-3.755-3.75-7.431-7.578-11.269-11.236c-1.415-1.347-1.901-2.118-0.17-3.712c3.817-3.525,7.554-7.178,10.984-11.066
					c2.289-2.589,3.761-0.931,4.262,0.824c1.742,6.114,3.221,12.338,1.243,18.735c-0.115-0.049-0.238-0.094-0.348-0.137
					c0.1,0.061,0.199,0.131,0.294,0.193c0.118,1.39,0.694,2.299,2.267,2.178L181.383,278.798z"/>
			</g>
		</g>
		<path fill="#F3E243" d="M257.712,245.562c0.06-0.073,0.114-0.15,0.163-0.217c-0.041,0.083-0.081,0.168-0.126,0.257
			L257.712,245.562z"/>
		<path fill="#1C1C1A" d="M257.919,245.575c-0.1-0.065-0.204-0.131-0.306-0.195c0.12,0.044,0.241,0.095,0.354,0.135L257.919,245.575
			z"/>
	</g>
</g>
</svg>
