<?xml version="1.0" encoding="utf-8"?>
<!-- Generator: Adobe Illustrator 15.0.0, SVG Export Plug-In . SVG Version: 6.00 Build 0)  -->
<!DOCTYPE svg PUBLIC "-//W3C//DTD SVG 1.1//EN" "http://www.w3.org/Graphics/SVG/1.1/DTD/svg11.dtd">
<svg version="1.1" id="Layer_1" xmlns="http://www.w3.org/2000/svg" xmlns:xlink="http://www.w3.org/1999/xlink" x="0px" y="0px"
	 width="500px" height="500px" viewBox="0 0 500 500" enable-background="new 0 0 500 500" xml:space="preserve">
<circle fill="#F9BDC2" stroke="#272727" stroke-miterlimit="10" cx="250" cy="249.061" r="246.688"/>
<g id="hat_outline">
	<g>
		<path fill="#F8AEB0" stroke="#282828" stroke-width="2" stroke-miterlimit="10" d="M274.576,151.745
			c-5.839-4.078-10.052-9.646-13.937-15.443c-6.848-10.22-10.659-21.561-11.645-33.817c-0.242-2.888-0.125-5.8-0.188-8.7
			c-0.053-1.813,1.04-2.991,2.215-4.125c4.803-4.627,9.629-9.231,14.413-13.882c0.851-0.837,1.527-1.914,2.956-1.307
			c1.462,0.629,1.023,1.963,1.063,3.101c0.123,3.42,0.225,6.841,0.675,10.313c0.665-1.581,0.862-3.186,0.756-4.932
			c-0.396-7.002,0.938-13.697,3.767-20.113c0.98-2.245,2.572-3.397,4.99-4.046c4.734-1.277,9.38-1.286,14.025,0.037
			c3.995,1.133,4.524,2.178,3.078,6.038c-1.798,4.761-2.886,9.692-3.996,14.626c-0.18,0.841-0.344,1.707,0.12,2.772
			c2.414-3.807,5.117-7.273,8.161-10.48c1.364-1.452,2.799-1.917,4.843-1.793c8.744,0.516,17.354,1.714,25.751,4.253
			c3.76,1.133,7.033,3.231,10.393,5.124c1.034,0.586,1.623,1.556,1.102,2.712c-0.508,1.125-1.608,0.841-2.565,0.677
			c-3.171-0.559-6.302-1.433-9.593-1.056c-7.346,0.849-12.313,5.459-16.49,10.91c-7.195,9.36-11.178,20.288-14.353,31.508
			c-0.737,2.572-1.844,5.077-1.913,7.849c1.13,0.323,1.438-0.616,1.94-1.242c7.954-10.098,17.607-17.708,30.597-20.011
			c7.162-1.272,14.399-1.516,21.151,1.963c8.232,4.231,9.924,13.053,9.296,20.44c-0.217,2.572-2.157,2.312-3.897,1.591
			c-5.427-2.256-11.151-3.33-16.921-4.056c-6.488-0.821-12.946-0.641-19.417,1.755c0.991,0.973,1.856,0.752,2.654,0.627
			c10.274-1.632,19.579,1.129,28.391,6.233c1.876,1.085,2.447,2.334,2.093,4.474c-0.794,4.769-1.808,9.512-2.037,14.384
			c-0.149,3.035-2.03,2.286-3.895,1.402c-8.009-3.797-16.335-6.628-25.128-8.006c-8.513-1.332-16.932-0.944-25.267,1.291
			c-1.604-4.576-1.797-9.445-2.88-14.138c-0.354-1.537-0.633-2.994-2.576-3.168c-0.932-1.419-2.6-1.626-3.968-2.304
			c-1.328-0.653-2.213-0.12-2.49,1.362c-0.146,0.028-0.215,0.115-0.196,0.265c-0.438,0.095-0.641,0.371-0.645,0.813l0.009-0.022
			c-2.212,2.738-4.11,5.66-5.434,8.937v-0.005C277.917,146.945,276.25,149.344,274.576,151.745z"/>
		<path fill="#B92025" d="M292.539,441.663c-10.081,0.631-20.143,0.236-30.211-0.396c-14.075-0.889-27.874-3.673-41.705-6.263
			c-0.853-0.157-1.701-0.287-2.314-0.975c0.083-0.474,0.171-0.941,0.25-1.418l-0.033,0.016c0.944,0.496,1.792-0.285,2.696-0.203
			c16.334,1.543,32.332,5.825,48.861,5.986c-0.234-1.036-1.76-0.159-1.876-1.493c1.144-0.586,2.611-0.553,3.276,0.215
			c1.747,2.018,3.839,1.415,5.945,1.396c5.427-0.035,10.852-0.433,16.267,0.152C292.796,439.473,292.735,440.594,292.539,441.663z"
			/>
		<path fill="#B92025" d="M157.611,341.915c3.992-6.638,7.913-13.313,11.974-19.901c12.808-20.776,25.658-41.535,38.53-62.271
			c1.299-2.078,2.203-4.55,4.659-5.705c0.679,0.525,1.364,1.02,2.264,1.094c-0.444,0.226-1.13,0.346-1.286,0.708
			c-3.826,8.448-9.675,15.693-13.979,23.835c-1.336,2.519-4.405,3.733-4.682,6.868c-1.654-0.52-2.457,0.284-3.217,1.711
			c-0.807,1.497,0.359,1.828,1.042,2.528c-0.448,0.838-1.521,1.228-1.646,2.302c-0.235,0.194-0.465,0.383-0.709,0.576h0.019
			c-0.218,0.009-0.521-0.069-0.627,0.044c-4.018,4.21-6.669,9.411-10.144,14.027c-0.464,0.617-0.299,1.456,0.378,2.027
			c-0.23,0.631-0.341,1.339-1.083,1.631c-2.341,0.658-1.817,2.673-2.037,4.327c-0.037,0.176-0.069,0.354-0.12,0.532
			c-0.245,0.201-0.483,0.394-0.728,0.59l0.018,0.003c-2.83-0.71-1.594,1.991-2.453,2.926c-0.008,0.984-1.045,1.002-1.488,1.583
			c-2.355-0.028-1.212,2.479-2.365,3.289c-3.166,2.221-3.479,6.227-5.691,9.034c-1.475,1.861-3.106,3.668-2.347,6.354h0.009
			c-1.83-0.26-2.719,1.505-4.217,1.956L157.611,341.915z"/>
		<path fill="#B92025" d="M325.988,322.127c-1.471-0.727-1.902,0.758-2.761,1.324c-0.894,0.582-1.304,1.93-2.706,1.716
			c0.236-1.472-0.377-3.315,2.161-3.581c0.836-0.086,1.623-1.559,1.148-2.381c-0.936-1.613-0.642-3.265-0.895-4.913
			c-1.317-8.327-2.944-16.616-4.571-24.895c-0.934-4.782-2.749-9.502-2.167-14.437c0.317-2.632-0.452-4.72-1.476-6.909
			c1.222-1.299,1.222-1.299,3.106,1.329c0.13,0.114,0.147,0.244,0.059,0.391c-0.175,0.612-0.368,1.235,0.301,1.709
			c1.525,8.283,3.082,16.561,4.581,24.846c1.53,8.397,3.014,16.805,4.521,25.205c0.125,0.641,0.269,1.261-0.124,1.854
			C326.938,322.802,326.674,322.267,325.988,322.127z"/>
		<path fill="#B92025" d="M298.475,163.653c-0.867-0.492-1.696-0.145-2.531,0.107c-0.844-8.013-2.649-15.858-4.105-23.761
			c-0.306-1.659-1.459-2.337-2.785-2.791c-1.566-0.536-2.234,0.911-2.594,1.851c-1.609,4.194-5.763,6.845-6.775,11.371
			c-0.06,0.267-0.684,0.406-1.052,0.604c-1.673-0.438-1.755-0.262-1.188,2.36c-0.318,0.594-0.632,1.191-0.955,1.786
			c-0.611-0.575-0.798-1.602-1.824-1.747c1.881-2.828,4.241-5.39,4.932-8.879v0.004c2.896-2.318,4.374-5.499,5.431-8.937
			l-0.006,0.021c0.435-0.094,0.632-0.375,0.646-0.81c-0.023-0.151,0.046-0.244,0.196-0.266c2.319-0.871,4.235,1.083,6.454,0.936
			c1.945,0.18,2.218,1.631,2.566,3.171c1.084,4.687,1.283,9.563,2.892,14.135c0.331,2.389,0.599,4.793,1.026,7.166
			C299.027,161.258,299.133,162.472,298.475,163.653z"/>
		<path fill="#B92025" d="M253.004,194.502c-1.271,1.312-2.779,2.314-4.359,3.203c-0.594-0.129-1.179-0.253-1.771-0.383
			c6.558-10.697,13.108-21.396,19.698-32.076c2.405-3.904,4.903-7.756,7.364-11.638c-0.262,2.097-0.53,4.181-0.803,6.278h-0.017
			c-0.756-0.042-1.863-0.674-1.808,0.815c0.028,0.826-0.093,1.747-0.733,1.926c-2.981,0.854-2.24,3.042-2.037,5.084
			c-0.032,0.164-0.069,0.337-0.115,0.503c-0.249,0.221-0.487,0.437-0.738,0.657c-1.442,3.937-4.115,7.17-6.155,10.768
			C258.729,184.611,254.71,188.895,253.004,194.502z"/>
		<path fill="#B92025" d="M303.75,200.863c1.125,0.228,2.219,0.221,2.504,1.885c1.774,10.674,3.663,21.321,5.521,31.98
			c-0.479,0.65-0.958,1.314-1.437,1.964c-0.673-0.045-1.341-0.092-2.019-0.138c-0.199-0.766,0.454-1.489-0.26-2.379
			c-1.442-1.834,1.288-5.074-2.014-6.424c0.05-0.094,0.096-0.193,0.148-0.288c0.677-1.198,0.566-2.461,0.341-3.751
			c-1.002-5.708-1.99-11.418-2.987-17.124c-0.245-1.367-1.104-2.014-2.45-2.111l0.004,0.004
			C300.607,202.27,303.247,202.345,303.75,200.863z"/>
		<path fill="#B92025" d="M339.786,405.683c0.715,0.047,1.442,0.262,2.085-0.246c1.447,4.374,1.511,9.029,2.778,13.463
			c0.669,2.349-1.052,4.319-2.798,5.826c-7.715,6.657-16.256,11.592-26.383,13.891c-7.598,1.72-15.157,3.01-22.932,3.046
			c0.193-1.068,0.253-2.189,1.15-2.986l-0.004-0.025c0.612,0.063,1.227,0.137,1.834,0.197c0.88,1.279,2.198,1.109,3.457,0.97
			c2.665-0.294,5.328-0.625,7.985-0.978c12.175-1.606,23.014-6.321,32.555-14.047c2.188-1.765,3.695-3.856,3.234-6.815
			c-0.423-2.749-1.141-5.462-1.483-8.224c-0.281-2.34-1.136-2.308-2.654-1.007C338.556,407.549,339.194,406.627,339.786,405.683z"/>
		<path fill="#B92025" d="M136.457,392.778c-0.65-1.094-1.281-2.207-1.954-3.279c-2.517-4.003-2.378-7.483,0.429-11.698
			c7.346-11.083,14.097-22.576,21.094-33.896c0.336-0.544,0.797-1.01,1.203-1.506c0.11-0.008,0.225-0.022,0.332-0.038
			c-0.254,1.361,0.889,1.405,1.677,1.783c-1.774,1.051-2.963,2.638-4.028,4.36c-6.249,10.083-12.182,20.39-18.929,30.129
			c-3.115,4.508-1.778,7.721,0.346,11.573c0.931,1.701,2.042,1.933,3.641,1.328C139.434,393.313,137.926,392.995,136.457,392.778z"
			/>
		<path fill="#B92025" d="M310.337,236.689c0.475-0.647,0.954-1.312,1.434-1.961c2.349,11.49,4.405,23.036,6.057,34.651
			c-1.887-2.629-1.887-2.629-3.104-1.33c-1.165,0.21-1.424,2.305-3.083,1.491c0.377-0.51,0.655-1.164,1.156-1.499
			c2.582-1.747,2.928-4.089,2.315-6.959c-0.954-4.484-1.586-9.04-2.516-13.522C311.85,243.932,311.868,240.146,310.337,236.689z"/>
		<path fill="#B92025" d="M215.033,255.132c-0.895-0.075-1.586-0.568-2.259-1.094c0.641-5.035,4.365-8.462,6.661-12.623
			c2.894-5.211,6.147-10.225,9.36-15.247c0.461-0.729,0.683-2.696,2.48-1.429c-5.023,8.352-10.042,16.703-15.057,25.047
			c-0.443,0.739-0.843,1.502-1.271,2.24c-0.36,0.646-1.056,1.356-0.572,2.049c0.691,0.99,1.521-0.241,2.309-0.141
			C216.404,254.715,215.77,254.987,215.033,255.132z"/>
		<path fill="#B92025" d="M218.558,432.611c-0.078,0.477-0.166,0.942-0.25,1.417c-11.84-2.136-23.131-6.065-34.293-10.406
			c0.133-0.84,0.267-1.683,0.405-2.522l0.051-0.024c0.28-0.132,0.562-0.256,0.838-0.391c0.834-0.229,1.641-0.736,2.559-0.322
			c-0.389,1.023-2.425,0.889-1.997,2.103c0.318,0.881,1.401,1.632,2.674,1.981c8.365,2.258,16.675,4.681,25.012,7.021
			C215.202,431.925,216.89,432.233,218.558,432.611z"/>
		<path fill="#B92025" d="M184.416,421.099c-0.133,0.839-0.272,1.683-0.405,2.521c-10.449-3.794-20.56-8.272-29.741-14.655
			l0.203-0.153c3.429,0.044,5.701,2.286,8.292,4.11c3.489,2.461,8.199,2.644,11.398,5.807c0.382,0.384,1,0.774,1.742,0.604
			C178.996,418.637,181.835,419.28,184.416,421.099z"/>
		<path fill="#B92025" d="M246.875,197.327c0.591,0.125,1.181,0.251,1.775,0.383c-3.582,4.663-6.559,9.694-9.476,14.794
			c-2.014,3.498-4.419,6.77-6.651,10.144c-1.669-0.615-0.54-1.756-0.194-2.313C237.126,212.628,242.017,204.987,246.875,197.327z"/>
		<path fill="#B92025" d="M325.988,322.127c0.686,0.146,0.949,0.675,1.189,1.248c2.203,8.455,3.398,17.106,4.853,25.707
			c0.089,0.525,0.28,1.386-0.834,1.171c-1.695-3.979-1.84-8.293-2.585-12.466C327.693,332.576,326.173,327.462,325.988,322.127z"/>
		<path fill="#B92025" d="M302.523,191.577c-0.709-7.669-2.682-15.124-3.853-22.719c-0.15-1.009-0.572-1.985,0.244-2.89
			c1.758,0.516,1.135,2.161,1.342,3.24c1.438,7.514,2.706,15.068,4.024,22.606C303.7,191.741,303.111,191.656,302.523,191.577z"/>
		<path fill="#B92025" d="M302.523,191.577c0.588,0.079,1.177,0.158,1.758,0.242c0.374,1.871,0.759,3.743,1.116,5.618
			c0.276,1.422-0.12,2.521-1.6,3.033c0.349-1.558,0.176-2.908-1.488-3.65c-0.417-0.991-0.841-1.987-1.249-2.982
			c-0.016-0.143-0.048-0.28-0.106-0.417l0.087-0.085C302.34,193.425,302.558,192.607,302.523,191.577L302.523,191.577z"/>
		<path fill="#B92025" d="M302.31,196.821c1.667,0.738,1.837,2.088,1.492,3.645c0.011,0.136-0.01,0.268-0.05,0.392
			c-0.498,1.488-3.136,1.413-2.654,3.622c-1.134-1.151-0.777-2.742-1.207-4.111c-0.738-2.417,0.148-2.756,2.13-1.613
			c0.079,0.104,0.15,0.212,0.238,0.312c-0.062-0.113-0.138-0.223-0.206-0.336C302.134,198.096,302.222,197.458,302.31,196.821z"/>
		<path fill="#B92025" d="M273.134,159.89c0.272-2.098,0.541-4.181,0.803-6.277l-0.017-0.175l0.149-0.088l0.297,0.067l0.291,0.012
			c1.03,0.147,1.216,1.172,1.823,1.747C275.396,156.762,274.785,158.695,273.134,159.89z"/>
		<path fill="#B92025" d="M274.66,153.428l-0.294-0.011c0,0-0.292-0.067-0.297-0.067c0.166-0.536,0.338-1.069,0.509-1.604
			c1.673-2.401,3.339-4.8,5.014-7.196C278.9,148.036,276.541,150.599,274.66,153.428z"/>
		<path fill="#B92025" d="M318.189,271.473c-0.663-0.474-0.47-1.097-0.295-1.71C318.352,270.271,318.281,270.869,318.189,271.473z"
			/>
		<path fill="#B92025" d="M157.556,342.361c-0.106,0.017-0.217,0.032-0.327,0.039c0.133-0.158,0.253-0.331,0.377-0.484l0.078,0.068
			C157.652,342.112,157.606,342.242,157.556,342.361z"/>
		<path fill="#B92025" d="M285.021,135.62c-1.06,3.44-2.54,6.618-5.434,8.936C280.909,141.278,282.808,138.356,285.021,135.62z"/>
		<path fill="#B92025" d="M292.313,135.5c-2.218,0.152-4.135-1.807-6.455-0.94c0.27-1.479,1.158-2.014,2.489-1.36
			C289.717,133.868,291.376,134.081,292.313,135.5z"/>
		<path fill="#B92025" d="M285.661,134.83c-0.019,0.435-0.216,0.714-0.644,0.81C285.018,135.201,285.223,134.923,285.661,134.83z"/>
		<path fill="#B92025" d="M339.786,405.683c-0.594,0.939-1.231,1.865-1.171,3.064l0.023-0.032c-1.999,0.139-1.496,1.822-1.833,2.982
			l0.018-0.016c-1.725-0.054-1.507,1.312-1.728,2.36l0.033-0.032c-1.499,0.479-2.938,1.01-2.946,2.964l-0.161-0.105l0.177,0.091
			c-1.555,0.229-2.499,1.065-2.644,2.686l0.017-0.014c-0.444-0.059-0.688,0.133-0.719,0.586l0.004-0.005
			c-0.271-0.075-0.549-0.148-0.834-0.217c-0.494-0.015-0.937,0.068-1.13,0.617v0.014c-0.107,0.014-0.204,0.022-0.306,0.036
			c0.033,0.158,0.056,0.324,0.093,0.486c-0.075,0.413-0.151,0.825-0.227,1.23l0.004-0.004c-0.515-0.112-0.788,0.17-1.008,0.574
			c-0.009,0.231-0.134,0.336-0.363,0.323c-0.443,0.009-0.89,0.028-1.337,0.043c-0.13-0.783,0.788-1.792-0.521-2.389
			c-0.815,1.062-0.843,1.874,0.54,2.375c-0.118,0.411-0.242,0.825-0.359,1.229c-0.213,0.15-0.429,0.305-0.642,0.451
			c-0.428-0.051-0.719,0.082-0.777,0.554l0,0c-0.403-0.071-0.808-0.149-1.209-0.222c-0.247-0.35-0.441-0.309-0.579,0.088h-0.015
			c-1.024,0.129-1.726,0.719-2.285,1.522l0.015,0.011c-0.678-0.297-1.401-1.523-2.001-0.574c-0.432,0.667,0.826,0.903,1.448,1.189
			c0.087,0.201,0.188,0.408,0.279,0.609l0.015-0.005c-0.455-0.147-0.7,0.026-0.752,0.492l-0.009,0.005
			c-0.631-0.268-1.1-0.149-1.327,0.549l0.037-0.02c-0.443-0.111-0.723,0.042-0.793,0.506l-0.06-0.012
			c-0.374-0.063-0.6,0.081-0.659,0.455l-0.092,0.059c-3.48-0.673-5.675,2.116-8.504,3.191c-0.01,0,0.193,0.552,0.305,0.847
			l-0.124,0.038c-4.258-1.128-4.755-0.913-5.111,2.176l-0.046,0.023c-2.514,0.017-5.014,0.029-6.836,2.19l0.011,0.025
			c-5.421-0.585-10.846-0.184-16.271-0.152c-2.105,0.019-4.193,0.624-5.945-1.396c-0.667-0.773-2.127-0.803-3.275-0.216
			c0.115,1.331,1.641,0.453,1.876,1.494c-16.531-0.162-32.528-4.443-48.861-5.982c0.087-0.401,0.169-0.803,0.257-1.198h-0.003
			c0.507,0.158,0.816-0.075,1.032-0.503c10.933-6.493,21.86-12.997,32.791-19.493c0.467,0.08,0.834-0.026,0.992-0.533l-0.037,0.01
			c0.475,0.065,0.707-0.161,0.737-0.626l-0.041,0.026c1.446,0.543,2.18-0.03,2.335-1.493l-0.016,0.015
			c0.441,0.121,0.719-0.023,0.777-0.497h-0.005c0.466,0.109,0.688-0.112,0.742-0.552l-0.019,0.007
			c0.443,0.089,0.71-0.051,0.767-0.519h-0.005c0.455,0.096,0.687-0.116,0.746-0.552l-0.018,0.015c0.438,0.066,0.7-0.096,0.755-0.545
			l-0.021,0.004c0.52,0.162,0.834-0.085,1.06-0.516l-0.019,0.009c1.255,0.044,2.084-0.536,2.465-1.729c0,0-0.037,0.051-0.037,0.049
			c0.742,0.092,1.406,0.063,1.434-0.934c0.239-0.206,0.476-0.412,0.714-0.621c0.466,0.138,0.811,0.015,0.958-0.479l-0.032,0.01
			c1.895,0.553,2.873-0.187,3.002-2.116l-0.014,0.015c3.726-0.555,6.497-2.46,8.208-5.852c0,0-0.019,0.016-0.016,0.016
			c0.462,0.095,0.706-0.099,0.745-0.563l-0.024,0.015c2.339,0.612,3.322-0.646,3.736-2.702l-0.037,0.022
			c0.442,0.103,0.727-0.049,0.788-0.528l-0.021,0.01c3.032,0.08,4.556-1.693,5.36-4.354l-0.036,0.022
			c0.432,0.078,0.69-0.104,0.777-0.525l-0.032,0.02c2.143,0.334,3.098-0.953,3.714-2.704l0,0c0.471,0.112,0.708-0.097,0.745-0.558
			l-0.025,0.021c0.492-0.015,0.713-0.309,0.771-0.766c0.05-0.227,0.188-0.341,0.418-0.346c0.524,0.088,0.881-0.088,1.02-0.637
			l-0.065,0.024c2.129-0.034,3.442-1.102,3.955-3.163l-0.004,0.005c0.45,0.097,0.699-0.079,0.741-0.548l-0.016,0.01
			c0.461,0.104,0.715-0.074,0.747-0.553l-0.016,0.009c2.189,0.392,2.677-1.152,3.13-2.733l-0.005,0.015
			c0.443,0.064,0.687-0.114,0.733-0.567l-0.015,0.011c0.456,0.099,0.696-0.107,0.75-0.554l-0.03,0.015
			c1.277,0.047,2.079-0.444,2.092-1.827l0.152,0.222l-0.166-0.21c1.362,0.402,1.598-0.522,1.784-1.512l-0.047,0.025
			c0.939,0.177,1.388-0.277,1.479-1.175l-0.06,0.05c0.465,0.048,0.731-0.17,0.777-0.633l-0.074,0.065
			c0.687,0,1.066-0.309,1.036-1.031l-0.004,0.009c0.455,0.082,0.682-0.133,0.733-0.571l-0.019,0.014
			c1.253,0.214,2.122-0.051,1.969-1.585l0.24-0.082c3.752-1.067,5.978-3.812,7.755-7.055l0.157-0.141
			c0.19-0.165,0.394-0.334,0.581-0.498l0.036-0.046c4.554,1.366,4.891,1.757,4.203,6.197c-0.341,2.176,0.106,4.471,0.746,6.191
			c1.394,3.694,1.329,7.453,2.02,11.148c0.836,4.441,1.604,8.986,2.932,13.347c0.95,3.117,0.217,6.424,1.411,9.485
			c0.346,0.89,0.719,1.524,1.668,1.703l0.01,0.01C339.92,404.793,339.857,405.235,339.786,405.683z"/>
		<path fill="#B92025" d="M154.472,408.812c-0.654-1.752-2.273-2.734-2.862-4.899c-0.536-1.94-4.374-3.291-6.992-4.215
			c-1.133-0.399-1.921-0.649-2.195-1.704c-0.415-1.667,1.886-0.014,1.807-1.488c-0.663-0.756-1.631-1.145-2.626-1.512l-0.023-0.032
			c-1.295-1.028-0.618-2.116-0.083-3.2c0.94-0.792,2.705-0.516,2.945-2.231h-0.005c1.779,0.354,2.798-0.696,3.65-2.013l-0.042,0.018
			c0.272,0.05,0.54,0.097,0.812,0.147c1.709,0.064,3.438-0.009,5.125,0.214c6.388,0.852,12.836,0.808,19.243,0.86
			c11.982,0.087,23.97-0.226,35.948-0.86c10.176-0.536,20.353-0.918,30.146-4.228c2.535-0.857,4.756-2.578,7.531-2.725
			c0.452,1.005,0.912,2.01,1.368,3.01c-0.632,0.451-1.253,0.906-1.881,1.359c0.049-0.198,0.011-0.366-0.142-0.507
			c-0.667-0.788-0.567,0.14-0.779,0.349c-0.042,0.263-0.079,0.535-0.11,0.796h0.002c-0.469-0.132-0.69,0.088-0.746,0.538
			c0,0,0.023-0.016,0.019-0.016c-1.724-0.326-2.512,0.702-3.033,2.102l0.018-0.014c-0.424-0.074-0.673,0.101-0.756,0.522
			l0.009-0.009c-0.618-0.123-1.088,0.031-1.268,0.702l0.079-0.051c-0.461-0.105-0.747,0.065-0.834,0.543l0.055-0.041
			c-1.253-0.237-2.018,0.296-2.341,1.513l0.023-0.01c-0.456-0.112-0.714,0.068-0.766,0.54l0.01-0.015
			c-1.285-0.291-2.111,0.119-2.287,1.511l-0.027,0.016c-0.444-0.156-0.677,0.008-0.72,0.47l-0.046,0.03
			c-1.4-0.259-2.415,0.122-2.766,1.638l0.024-0.018c-0.313,0.143-0.627,0.282-0.931,0.43c-0.203,0.129-0.406,0.257-0.614,0.386
			c-0.797,0.058-1.464,0.277-1.517,1.249l0.023-0.02c-2.503,0.357-4.858,0.937-5.84,3.694l0.033-0.021
			c-0.258,0.16-0.525,0.32-0.778,0.487c0,0,0.004-0.004,0,0c-0.608-0.172-1.134-0.167-1.314,0.605l0.047-0.02
			c-0.898-0.264-1.438,0.037-1.582,0.982l0.023-0.018c-0.438-0.1-0.715,0.045-0.774,0.51v0.006c-0.462-0.167-0.71,0.005-0.77,0.479
			l0,0c-1.383-0.253-2.438,0.081-2.834,1.594l0.036-0.019c-0.442-0.096-0.7,0.085-0.788,0.531l0.033-0.02
			c-0.424-0.071-0.687,0.085-0.783,0.505l0.009-0.004c-0.65-0.251-1.129-0.116-1.332,0.604l0.069-0.032
			c-2.069-0.176-3.355,1.014-4.434,2.562l0.055-0.017c-1.558-0.188-2.747,0.229-3.144,1.931l0.033-0.007
			c-0.964-0.146-1.65,0.214-2.079,1.085l0.023-0.01c-3.774,0.461-6.701,2.508-9.383,5.006l0.037-0.015
			c-0.659-0.199-1.147-0.097-1.258,0.701l-0.087-0.274l0.101,0.265c-0.89-0.388-1.461-0.147-1.627,0.853l0.022-0.018
			c-0.456-0.135-0.713,0.05-0.792,0.507l0.022-0.014c-0.92-0.418-1.719,0.09-2.562,0.322c-0.276,0.123-0.558,0.255-0.838,0.392
			l-0.05,0.021c-2.585-1.82-5.419-2.461-8.513-1.77c-0.742,0.172-1.354-0.22-1.737-0.598c-3.199-3.164-7.913-3.346-11.398-5.809
			C160.174,411.099,157.907,408.855,154.472,408.812z"/>
		<path fill="#B92025" d="M311.646,269.539c1.658,0.813,1.918-1.277,3.084-1.49c1.021,2.186,1.786,4.272,1.473,6.906
			c-0.581,4.934,1.232,9.653,2.166,14.436c1.627,8.289,3.255,16.569,4.572,24.896c0.255,1.65-0.045,3.298,0.896,4.912
			c0.474,0.823-0.313,2.293-1.147,2.384c-2.539,0.262-1.927,2.108-2.161,3.578l0.01-0.023c-0.729,0.03-0.896,0.521-0.94,1.12
			c-12.486,12.184-25.718,23.51-39.607,34.064c-1.72-0.528-2.462,0.193-2.456,1.894c0.008,0.188-0.088,0.285-0.279,0.285
			c-0.161,0.135-0.33,0.258-0.492,0.392l-0.051,0.157c0,0-0.155-0.022-0.161-0.026c-0.176,0.142-0.363,0.271-0.537,0.412
			l-0.141,0.119c-0.21,0.156-0.414,0.317-0.622,0.478l-0.079,0.056c-0.216,0.168-0.443,0.327-0.654,0.494l-0.064,0.046
			c-0.42-0.028-0.927-0.228-1.234-0.055c-3.23,1.733-5.613,4.679-8.937,6.309c-0.644,0.314-0.207,1.164-0.308,1.758l-0.07,0.066
			c-0.216,0.172-0.438,0.346-0.654,0.522l-0.036,0.022c-0.589-0.104-1.13-0.123-1.106,0.723c0,0-0.079,0.077-0.075,0.076
			c-1.894-1.144-3.11,1.819-4.968,0.814c5.217-4.442,10.534-8.801,14.656-14.348c10.244-13.789,16.655-29.399,20.785-45.908
			c2.682-10.696,5.13-21.487,6.798-32.42c1.419-0.723,2.488-1.714,2.649-3.398l-0.011,0.016c2.089,0.181,2.376-1.548,3.053-2.866
			l-0.038,0.033c1.577,0.066,2.213-0.84,2.374-2.26l-0.031,0.03c2.501-0.278,3.591-2.056,4.391-4.132L311.646,269.539z"/>
		<path fill="#B92025" d="M257.046,374.854c1.857,1.009,3.079-1.954,4.969-0.812c-4.295,3.72-8.969,6.927-13.79,9.91
			c-0.456-1.005-0.917-2.007-1.367-3.007C250.252,378.913,253.649,376.887,257.046,374.854z"/>
		<path fill="#B92025" d="M263.958,372.638c0.103-0.595-0.341-1.442,0.311-1.761c3.322-1.629,5.702-4.576,8.937-6.31
			c0.312-0.169,0.82,0.032,1.234,0.058C271.227,367.664,267.742,370.347,263.958,372.638z"/>
		<path fill="#B92025" d="M280.762,393.825c-1.721,3.391-4.483,5.295-8.213,5.847C275.059,397.405,277.775,395.433,280.762,393.825z
			"/>
		<path fill="#B92025" d="M191.462,418.361c2.678-2.506,5.608-4.54,9.379-5.006C197.813,415.214,194.946,417.369,191.462,418.361z"
			/>
		<path fill="#B92025" d="M326.22,356.946c-1.779,3.242-4.006,5.989-7.758,7.054C320.568,361.124,323.453,359.104,326.22,356.946z"
			/>
		<path fill="#B92025" d="M291.298,385.738c-0.803,2.66-2.322,4.437-5.361,4.354C287.435,388.283,289.348,386.997,291.298,385.738z"
			/>
		<path fill="#B92025" d="M221.102,401.645c0.978-2.756,3.333-3.336,5.835-3.694C225.222,399.548,223.194,400.655,221.102,401.645z"
			/>
		<path fill="#B92025" d="M302.54,377.131c-0.509,2.06-1.818,3.128-3.956,3.161C299.551,378.792,300.972,377.871,302.54,377.131z"/>
		<path fill="#B92025" d="M205.953,410.374c1.079-1.549,2.365-2.737,4.434-2.563C209.193,409.146,207.723,410.019,205.953,410.374z"
			/>
		<path fill="#B92025" d="M285.204,390.591c-0.412,2.052-1.396,3.311-3.731,2.704C282.545,392.152,283.665,391.091,285.204,390.591z
			"/>
		<path fill="#B92025" d="M295.728,382.551c-0.623,1.753-1.572,3.037-3.716,2.704C292.976,383.974,294.225,383.075,295.728,382.551z
			"/>
		<path fill="#B92025" d="M307.135,373.319c-0.457,1.576-0.94,3.125-3.131,2.733C304.649,374.679,305.849,373.941,307.135,373.319z"
			/>
		<path fill="#B92025" d="M272.563,399.662c-0.135,1.929-1.116,2.675-3.001,2.117C270.286,400.69,271.358,400.084,272.563,399.662z"
			/>
		<path fill="#B92025" d="M202.87,412.29c0.396-1.704,1.585-2.119,3.143-1.936C205.238,411.447,204.086,411.915,202.87,412.29z"/>
		<path fill="#B92025" d="M213.147,406.254c0.396-1.515,1.452-1.854,2.835-1.601C215.207,405.483,214.382,406.229,213.147,406.254z"
			/>
		<path fill="#B92025" d="M229.95,395.926c0.351-1.519,1.364-1.901,2.765-1.64C231.937,395.077,231.201,395.921,229.95,395.926z"/>
		<path fill="#B92025" d="M241.56,388.579c0.526-1.396,1.31-2.426,3.028-2.102C243.879,387.604,242.722,388.106,241.56,388.579z"/>
		<path fill="#B92025" d="M236.524,391.75c0.322-1.213,1.087-1.742,2.345-1.511C238.325,391.124,237.56,391.656,236.524,391.75z"/>
		<path fill="#B92025" d="M310.658,370.407c-0.014,1.385-0.81,1.871-2.086,1.824C308.88,371.182,309.651,370.655,310.658,370.407z"
			/>
		<path fill="#B92025" d="M277.521,362.207c-0.004-1.7,0.738-2.417,2.457-1.894C279.407,361.264,278.521,361.815,277.521,362.207z"
			/>
		<path fill="#B92025" d="M221.485,431.229c-0.087,0.397-0.17,0.798-0.259,1.198c-0.903-0.083-1.742,0.695-2.696,0.199
			C219.402,431.92,220.388,431.46,221.485,431.229z"/>
		<path fill="#B92025" d="M318.227,364.083c0.153,1.534-0.712,1.799-1.973,1.585C316.545,364.692,317.449,364.466,318.227,364.083z"
			/>
		<path fill="#B92025" d="M259.294,408.618c-0.155,1.462-0.883,2.042-2.333,1.496C257.572,409.351,258.25,408.701,259.294,408.618z"
			/>
		<path fill="#B92025" d="M233.5,393.768c0.175-1.393,1.004-1.803,2.291-1.511C235.261,393.121,234.448,393.541,233.5,393.768z"/>
		<path fill="#B92025" d="M312.434,368.907c-0.187,0.989-0.419,1.914-1.789,1.511C310.979,369.612,311.493,369.015,312.434,368.907z
			"/>
		<path fill="#B92025" d="M266.52,403.751c-0.386,1.2-1.211,1.772-2.464,1.729C264.591,404.506,265.412,403.917,266.52,403.751z"/>
		<path fill="#B92025" d="M217.502,403.682c0.143-0.949,0.687-1.249,1.59-0.986C218.821,403.44,218.23,403.674,217.502,403.682z"/>
		<path fill="#B92025" d="M313.863,367.76c-0.093,0.899-0.535,1.353-1.477,1.173C312.665,368.277,313.078,367.789,313.863,367.76z"
			/>
		<path fill="#B92025" d="M200.818,413.366c0.428-0.872,1.115-1.228,2.079-1.084C202.334,412.889,201.713,413.382,200.818,413.366z"
			/>
		<path fill="#B92025" d="M188.619,419.888c0.167-0.995,0.738-1.235,1.632-0.845C189.905,419.697,189.393,420.043,188.619,419.888z"
			/>
		<path fill="#B92025" d="M267.917,402.868c-0.031,1.002-0.695,1.026-1.428,0.935C266.958,403.494,267.434,403.18,267.917,402.868z"
			/>
		<path fill="#B92025" d="M226.914,397.972c0.051-0.977,0.719-1.191,1.521-1.249C228.351,397.653,227.605,397.774,226.914,397.972z"
			/>
		<path fill="#B92025" d="M262.093,373.966c-0.022-0.839,0.517-0.826,1.106-0.719C263.01,373.773,262.627,373.987,262.093,373.966z"
			/>
		<path fill="#B92025" d="M239.56,389.779c0.184-0.67,0.649-0.822,1.271-0.701C240.556,389.571,240.146,389.833,239.56,389.779z"/>
		<path fill="#B92025" d="M319.588,326.254c0.049-0.6,0.214-1.093,0.94-1.12C320.379,325.646,320.274,326.19,319.588,326.254z"/>
		<path fill="#B92025" d="M219.038,402.715c0.18-0.772,0.709-0.775,1.317-0.605C220.051,402.612,219.646,402.885,219.038,402.715z"
			/>
		<path fill="#B92025" d="M210.317,407.844c0.203-0.719,0.677-0.854,1.333-0.604C211.368,407.791,210.902,407.954,210.317,407.844z"
			/>
		<path fill="#B92025" d="M315.549,366.221c0.024,0.714-0.353,1.031-1.035,1.027C314.637,366.685,314.932,366.29,315.549,366.221z"
			/>
		<path fill="#B92025" d="M190.237,419.043c0.11-0.793,0.599-0.895,1.259-0.696C191.231,418.858,190.831,419.126,190.237,419.043z"
			/>
		<path fill="#B92025" d="M232.763,394.258c0.036-0.466,0.271-0.631,0.714-0.47C233.38,394.154,233.145,394.326,232.763,394.258z"/>
		<path fill="#B92025" d="M285.96,390.083c-0.061,0.479-0.345,0.635-0.788,0.532C285.28,390.215,285.519,390.008,285.96,390.083z"/>
		<path fill="#B92025" d="M269.59,401.77c-0.148,0.494-0.492,0.616-0.959,0.479C268.857,401.913,269.12,401.631,269.59,401.77z"/>
		<path fill="#B92025" d="M229.038,396.335c0.309-0.148,0.623-0.285,0.936-0.429C229.821,396.404,229.508,396.538,229.038,396.335z"
			/>
		<path fill="#B92025" d="M308.599,372.221c-0.056,0.445-0.289,0.651-0.751,0.552C307.912,372.344,308.171,372.162,308.599,372.221z
			"/>
		<path fill="#B92025" d="M274.503,364.581c0.216-0.167,0.446-0.326,0.658-0.493C275.106,364.472,274.904,364.655,274.503,364.581z"
			/>
		<path fill="#B92025" d="M264.07,405.475c-0.227,0.43-0.545,0.678-1.061,0.517C263.195,405.475,263.591,405.384,264.07,405.475z"/>
		<path fill="#B92025" d="M275.24,364.031c0.209-0.159,0.415-0.32,0.622-0.48C275.812,363.92,275.624,364.092,275.24,364.031z"/>
		<path fill="#B92025" d="M263.028,405.987c-0.05,0.45-0.318,0.612-0.751,0.547C262.365,406.13,262.613,405.941,263.028,405.987z"/>
		<path fill="#B92025" d="M262.294,406.519c-0.063,0.44-0.29,0.646-0.75,0.554C261.798,406.888,262.043,406.703,262.294,406.519z"/>
		<path fill="#B92025" d="M261.549,407.072c-0.055,0.463-0.33,0.607-0.764,0.517C260.881,407.176,261.12,406.999,261.549,407.072z"
			/>
		<path fill="#B92025" d="M260.804,407.581c-0.061,0.443-0.277,0.664-0.746,0.549C260.145,407.733,260.393,407.544,260.804,407.581z
			"/>
		<path fill="#B92025" d="M220.346,402.115c0.258-0.166,0.526-0.33,0.784-0.489C221.014,402.022,220.771,402.202,220.346,402.115z"
			/>
		<path fill="#B92025" d="M260.059,408.135c-0.058,0.475-0.34,0.62-0.777,0.497C259.379,408.222,259.659,408.078,260.059,408.135z"
			/>
		<path fill="#B92025" d="M297.22,381.248c-0.055,0.459-0.276,0.753-0.773,0.767C296.488,381.536,296.792,381.332,297.22,381.248z"
			/>
		<path fill="#B92025" d="M276.753,362.89c0.16-0.134,0.331-0.259,0.492-0.394C277.27,362.862,277.093,362.986,276.753,362.89z"/>
		<path fill="#B92025" d="M216.756,404.176c0.061-0.473,0.336-0.613,0.774-0.514C217.437,404.088,217.189,404.263,216.756,404.176z"
			/>
		<path fill="#B92025" d="M256.999,410.088c-0.031,0.466-0.262,0.69-0.736,0.628C256.236,410.185,256.534,410.039,256.999,410.088z"
			/>
		<path fill="#B92025" d="M215.986,404.653c0.065-0.468,0.31-0.641,0.77-0.477C216.654,404.586,216.392,404.742,215.986,404.653z"/>
		<path fill="#B92025" d="M256.3,410.706c-0.156,0.503-0.521,0.608-0.992,0.529C255.499,410.793,255.76,410.498,256.3,410.706z"/>
		<path fill="#B92025" d="M314.581,367.179c-0.052,0.465-0.311,0.677-0.772,0.632C313.88,367.371,314.145,367.173,314.581,367.179z"
			/>
		<path fill="#B92025" d="M212.392,406.761c0.087-0.443,0.345-0.627,0.788-0.531C213.068,406.633,212.806,406.794,212.392,406.761z"
			/>
		<path fill="#B92025" d="M245.317,385.956c0.037-0.263,0.069-0.531,0.111-0.796c0.257-0.117,0.521-0.237,0.779-0.347
			c0.147,0.139,0.193,0.309,0.143,0.508C246.123,385.712,245.847,386.033,245.317,385.956z"/>
		<path fill="#B92025" d="M211.645,407.245c0.092-0.424,0.358-0.58,0.779-0.505C212.327,407.166,212.055,407.326,211.645,407.245z"
			/>
		<path fill="#B92025" d="M244.575,386.491c0.056-0.447,0.282-0.669,0.748-0.538C245.225,386.354,244.976,386.531,244.575,386.491z"
			/>
		<path fill="#B92025" d="M281.494,393.275c-0.048,0.471-0.289,0.656-0.745,0.568C280.813,393.415,281.075,393.232,281.494,393.275z
			"/>
		<path fill="#B92025" d="M298.656,380.273c-0.14,0.544-0.496,0.72-1.021,0.633C297.811,380.432,298.146,380.21,298.656,380.273z"/>
		<path fill="#B92025" d="M240.823,389.085c0.078-0.417,0.333-0.594,0.751-0.52C241.477,388.961,241.232,389.146,240.823,389.085z"
			/>
		<path fill="#B92025" d="M238.805,390.277c0.087-0.482,0.368-0.648,0.838-0.542C239.515,390.146,239.247,390.341,238.805,390.277z"
			/>
		<path fill="#B92025" d="M316.272,365.655c-0.047,0.44-0.272,0.652-0.728,0.571C315.604,365.8,315.862,365.631,316.272,365.655z"/>
		<path fill="#B92025" d="M263.232,373.224c0.22-0.177,0.443-0.35,0.654-0.521C263.83,373.08,263.632,373.28,263.232,373.224z"/>
		<path fill="#B92025" d="M326.962,356.309c-0.194,0.171-0.394,0.334-0.587,0.497C326.381,356.419,326.584,356.258,326.962,356.309z
			"/>
		<path fill="#B92025" d="M303.279,376.582c-0.046,0.471-0.29,0.649-0.739,0.554C302.594,376.699,302.833,376.501,303.279,376.582z"
			/>
		<path fill="#B92025" d="M275.996,363.434c0.177-0.144,0.359-0.278,0.54-0.414C276.355,363.155,276.173,363.291,275.996,363.434z"
			/>
		<path fill="#B92025" d="M235.777,392.275c0.05-0.466,0.309-0.646,0.766-0.54C236.446,392.139,236.196,392.321,235.777,392.275z"/>
		<path fill="#B92025" d="M304.014,376.043c-0.032,0.476-0.285,0.654-0.741,0.551C303.322,376.15,303.543,375.921,304.014,376.043z"
			/>
		<path fill="#B92025" d="M292.046,385.238c-0.093,0.419-0.35,0.601-0.783,0.524C291.52,385.589,291.782,385.408,292.046,385.238z"
			/>
		<path fill="#B92025" d="M187.849,420.379c0.083-0.45,0.341-0.637,0.793-0.504C188.577,420.357,188.264,420.451,187.849,420.379z"
			/>
		<path fill="#B92025" d="M307.856,372.766c-0.041,0.447-0.29,0.637-0.731,0.567C307.193,372.908,307.415,372.702,307.856,372.766z"
			/>
		<path fill="#B92025" d="M222.512,430.722c-0.221,0.429-0.53,0.664-1.032,0.503C221.679,430.755,222.057,430.645,222.512,430.722z"
			/>
		<path fill="#B92025" d="M296.478,381.993c-0.046,0.46-0.279,0.669-0.746,0.558C295.745,382.058,296.036,381.921,296.478,381.993z"
			/>
		<path fill="#B92025" d="M302.529,191.577c0.028,1.03-0.189,1.848-1.488,1.758C301.285,192.534,301.74,191.92,302.529,191.577z"/>
		<path fill="#B92025" d="M300.285,194.011c-0.151,0.5-0.313,0.989-0.965,1.005C299.44,194.489,299.736,194.129,300.285,194.011z"/>
		<path fill="#B92025" d="M298.656,195.641c-0.191,0.484-0.408,0.948-1,1.055C297.698,196.069,298.1,195.785,298.656,195.641z"/>
		<path fill="#B92025" d="M301.061,193.838c-0.241,0.042-0.485,0.074-0.729,0.115c0.045-0.364,0.218-0.59,0.623-0.535
			C301.013,193.555,301.045,193.695,301.061,193.838z"/>
		<path fill="#B92025" d="M299.377,195.049c-0.221,0.185-0.447,0.36-0.677,0.544C298.93,195.412,299.156,195.234,299.377,195.049z"
			/>
		<path fill="#B92025" d="M297.783,196.625c-0.285,0.208-0.576,0.42-0.853,0.629C297.077,196.863,297.28,196.544,297.783,196.625z"
			/>
		<path fill="#B92025" d="M217.309,253.572c-0.207,0.123-0.415,0.245-0.618,0.369C216.899,253.817,217.103,253.696,217.309,253.572z
			"/>
		<path fill="#B92025" d="M172.294,321.354c0.991,0.359,0.977,0.94,0.466,1.738c-3.623,5.646-6.762,11.601-10.868,16.934
			c-0.755-2.684,0.871-4.49,2.347-6.354c2.212-2.807,2.524-6.813,5.691-9.034C171.082,323.829,169.939,321.327,172.294,321.354z"/>
		<path fill="#B92025" d="M190.572,293.661c-2.962,5.685-5.898,11.392-10.387,16.097c-0.677-0.575-0.843-1.415-0.377-2.025
			c3.475-4.617,6.129-9.821,10.144-14.03C190.058,293.587,190.36,293.67,190.572,293.661z"/>
		<path fill="#B92025" d="M161.902,340.029c-0.392,1.033-0.779,2.061-1.166,3.093c-0.203,0.054-0.401,0.063-0.604,0.034
			c-0.811-0.12-0.936,0.386-0.921,1.013l0.023-0.016c-0.788-0.378-1.931-0.429-1.677-1.788c0.05-0.123,0.097-0.247,0.133-0.377
			C159.183,341.532,160.067,339.768,161.902,340.029z"/>
		<path fill="#B92025" d="M195.085,286.543c-0.729,1.416-1.447,2.822-2.175,4.24c-0.683-0.697-1.844-1.036-1.042-2.528
			C192.628,286.828,193.431,286.023,195.085,286.543z"/>
		<path fill="#B92025" d="M179.102,311.39c-0.184,1.674-0.788,3.153-2.036,4.325C177.286,314.063,176.761,312.05,179.102,311.39z"/>
		<path fill="#B92025" d="M176.24,316.843c-0.627,1.144-0.691,2.742-2.452,2.928C174.646,318.829,173.405,316.133,176.24,316.843z"
			/>
		<path fill="#B92025" d="M176.944,316.252c-0.244,0.197-0.482,0.392-0.722,0.589C176.463,316.644,176.7,316.449,176.944,316.252z"
			/>
		<path fill="#B92025" d="M191.264,293.08c-0.235,0.192-0.466,0.388-0.706,0.576C190.798,293.468,191.034,293.272,191.264,293.08z"
			/>
		<path fill="#B92025" d="M339.978,404.337c0.138-0.264,0.262-0.535,0.396-0.795c0.069,0.065,0.139,0.14,0.212,0.204
			c-0.197,0.199-0.397,0.402-0.599,0.6L339.978,404.337z"/>
		<path fill="#B92025" d="M278.632,151.031c-0.362,0.804-0.183,1.881-1.193,2.355C276.873,150.767,276.961,150.593,278.632,151.031z
			"/>
		<path fill="#B92025" d="M273.117,159.89c-0.934,2.954-2.58,5.484-4.574,7.821c-0.203-2.037-0.943-4.227,2.033-5.079
			c0.641-0.182,0.756-1.105,0.733-1.927C271.257,159.217,272.361,159.848,273.117,159.89z"/>
		<path fill="#B92025" d="M268.428,168.218c-0.246,0.222-0.492,0.438-0.736,0.657C267.939,168.655,268.181,168.435,268.428,168.218z
			"/>
		<path fill="#B92025" d="M300.521,436.465c-1.416,1.335-3.375,1.52-4.993,2.387c-0.611-0.06-1.225-0.134-1.838-0.197
			C295.507,436.494,298.008,436.483,300.521,436.465z"/>
		<path fill="#B92025" d="M184.466,421.075c0.281-0.133,0.562-0.262,0.838-0.392C185.034,420.813,184.748,420.943,184.466,421.075z"
			/>
		<path fill="#B92025" d="M140.25,391.539c1.216-1.053,2.599-1.76,4.194-2.013c-0.244,1.721-2.005,1.439-2.945,2.234
			C141.083,391.689,140.669,391.617,140.25,391.539z"/>
		<path fill="#B92025" d="M141.605,394.997c-0.019,0.361,0.41,0.859-0.115,1.053c-0.433,0.156-0.807-0.251-0.811-0.661
			c0-0.607,0.54-0.401,0.904-0.422L141.605,394.997z"/>
		<path fill="#B92025" d="M302.047,198.737c0.068,0.11,0.142,0.221,0.206,0.336c-0.082-0.101-0.155-0.209-0.24-0.313
			L302.047,198.737z"/>
		<path fill="#B92025" d="M314,430.192c-2.52,1.778-5.275,3.097-8.203,4.035c-0.105-0.292-0.309-0.841-0.299-0.847
			C308.325,432.306,310.522,429.522,314,430.192z"/>
		<path fill="#B92025" d="M305.677,434.266c-1.521,1.141-3.223,1.885-5.107,2.176C300.926,433.355,301.423,433.141,305.677,434.266z
			"/>
		<path fill="#B92025" d="M321.983,425.537c-1.233,1.217-2.622,2.181-4.342,2.618c-0.094-0.198-0.192-0.408-0.285-0.608
			c0.184-0.204,0.363-0.409,0.553-0.616l-0.019-0.011c1.168,0.091,1.914-0.443,2.29-1.521h0.017c0.201,0.021,0.396,0,0.578-0.084
			C321.177,425.386,321.587,425.463,321.983,425.537z"/>
		<path fill="#B92025" d="M335.123,414.015c-0.626,1.347-1.516,2.421-2.945,2.965C332.188,415.024,333.619,414.489,335.123,414.015z
			"/>
		<path fill="#B92025" d="M332.188,416.96c-0.462,1.304-1.327,2.212-2.637,2.686C329.688,418.029,330.634,417.195,332.188,416.96z"
			/>
		<path fill="#B92025" d="M323.768,423.301c-1.388-0.502-1.355-1.317-0.541-2.379c1.309,0.594,0.387,1.606,0.516,2.391
			L323.768,423.301z"/>
		<path fill="#B92025" d="M338.637,408.72c-0.173,1.263-0.689,2.315-1.83,2.979C337.141,410.538,336.64,408.855,338.637,408.72z"/>
		<path fill="#B92025" d="M336.824,411.683c-0.28,1.005-0.775,1.854-1.729,2.36C335.313,412.996,335.096,411.629,336.824,411.683z"
			/>
		<path fill="#B92025" d="M317.909,426.933c-0.184,0.205-0.369,0.412-0.548,0.615c-0.623-0.285-1.879-0.522-1.447-1.188
			C316.508,425.407,317.229,426.635,317.909,426.933z"/>
		<path fill="#B92025" d="M328.155,420.818c-0.379,0.728-0.884,1.312-1.706,1.562c0.07-0.411,0.148-0.825,0.23-1.234
			c0.112-0.151,0.18-0.327,0.21-0.517l0.003-0.014C327.311,420.684,327.73,420.752,328.155,420.818z"/>
		<path fill="#B92025" d="M320.187,425.397c-0.378,1.079-1.13,1.62-2.29,1.526C318.458,426.118,319.157,425.527,320.187,425.397z"/>
		<path fill="#B92025" d="M325.085,423.27c-0.304,0.755-0.868,1.175-1.684,1.258c0.124-0.41,0.246-0.816,0.36-1.227l-0.022,0.013
			C324.19,423.301,324.639,423.282,325.085,423.27z"/>
		<path fill="#B92025" d="M328.155,420.818c-0.425-0.066-0.839-0.14-1.263-0.203c0.187-0.547,0.632-0.635,1.129-0.618
			c0.038,0.259,0.08,0.525,0.116,0.788L328.155,420.818z"/>
		<path fill="#B92025" d="M316.895,428.652c-0.321,0.483-0.708,0.792-1.327,0.55C315.793,428.507,316.264,428.385,316.895,428.652z"
			/>
		<path fill="#B92025" d="M329.56,419.632c-0.063,0.411-0.263,0.655-0.718,0.587C328.873,419.767,329.116,419.572,329.56,419.632z"
			/>
		<path fill="#B92025" d="M328.138,420.785c-0.039-0.263-0.081-0.529-0.116-0.788c0.271,0.067,0.553,0.144,0.831,0.217
			C328.817,420.661,328.589,420.864,328.138,420.785z"/>
		<path fill="#B92025" d="M326.888,420.628c-0.028,0.188-0.098,0.359-0.208,0.516c-0.038-0.156-0.065-0.322-0.093-0.485
			C326.684,420.649,326.785,420.641,326.888,420.628z"/>
		<path fill="#B92025" d="M326.453,422.376c-0.15,0.502-0.52,0.635-1.004,0.57C325.665,422.544,325.942,422.263,326.453,422.376z"/>
		<path fill="#B92025" d="M320.775,425.315c-0.184,0.084-0.377,0.106-0.575,0.084C320.333,425.002,320.528,424.96,320.775,425.315z"
			/>
		<path fill="#B92025" d="M322.767,424.983c-0.114,0.39-0.341,0.624-0.783,0.554C322.043,425.064,322.339,424.929,322.767,424.983z"
			/>
		<path fill="#B92025" d="M317.654,428.155c-0.067,0.436-0.327,0.589-0.75,0.492C316.962,428.178,317.198,428.01,317.654,428.155z"
			/>
		<path fill="#B92025" d="M315.601,429.182c-0.042,0.515-0.369,0.595-0.793,0.509C314.882,429.225,315.156,429.075,315.601,429.182z
			"/>
		<path fill="#B92025" d="M314.751,429.676c-0.049,0.392-0.278,0.539-0.67,0.451C314.152,429.753,314.378,429.612,314.751,429.676z"
			/>
		<path fill="#B92025" d="M144.439,389.532c0.99-1.072,2.198-1.778,3.649-2.014C147.236,388.837,146.218,389.884,144.439,389.532z"
			/>
		<path fill="#B92025" d="M246.207,384.809c-0.259,0.118-0.521,0.237-0.779,0.35C245.645,384.943,245.543,384.021,246.207,384.809z"
			/>
		<path fill="#B92025" d="M148.892,386.992c-0.015,0.231-0.028,0.457-0.037,0.688c-0.268-0.049-0.534-0.096-0.806-0.146
			C148.338,387.358,148.609,387.178,148.892,386.992z"/>
		<path fill="#B92025" d="M307.281,273.733c1.19-1.669,2.545-3.163,4.392-4.131C310.866,271.677,309.783,273.455,307.281,273.733z"
			/>
		<path fill="#B92025" d="M299.284,282.18c-0.243-0.056-0.488-0.111-0.728-0.166c0.747-1.472,1.936-2.483,3.379-3.235
			C301.764,280.468,300.701,281.461,299.284,282.18z"/>
		<path fill="#B92025" d="M301.921,278.795c0.783-1.203,1.701-2.267,3.047-2.866C304.294,277.249,304.01,278.979,301.921,278.795z"
			/>
		<path fill="#B92025" d="M304.939,275.957c0.479-1.077,1.272-1.828,2.375-2.257C307.147,275.118,306.516,276.033,304.939,275.957z"
			/>
		<path fill="#B92025" d="M160.133,343.15c-0.061,0.563-0.148,1.101-0.922,1.015C159.196,343.542,159.32,343.034,160.133,343.15z"/>
		<path fill="#B92025" d="M298.632,281.972c-0.131,0.864-0.633,1.237-1.491,1.176C297.465,282.531,297.945,282.116,298.632,281.972z
			"/>
		<path fill="#B92025" d="M295.635,284.486c-0.111,0.366-0.199,0.764-0.729,0.681C295.146,284.94,295.396,284.715,295.635,284.486z"
			/>
		<path fill="#B92025" d="M297.183,283.116c-0.202,0.169-0.4,0.336-0.604,0.507C296.782,283.45,296.98,283.284,297.183,283.116z"/>
		<path fill="#F8AEB0" stroke="#272727" stroke-miterlimit="10" d="M331.196,350.254c0.106,0.565,0.216,1.133,0.325,1.694
			c-1.424,1.521-3.464,2.41-4.523,4.318l-0.036,0.045c-0.378-0.05-0.581,0.111-0.587,0.499l-0.15,0.141
			c-2.766,2.156-5.656,4.179-7.763,7.053l-0.234,0.083c-0.778,0.381-1.684,0.607-1.974,1.585l0.018-0.013
			c-0.409-0.023-0.669,0.147-0.732,0.569l0.01-0.003c-0.617,0.066-0.912,0.463-1.037,1.028l0.069-0.066
			c-0.437-0.009-0.701,0.192-0.772,0.633l0.055-0.051c-0.779,0.029-1.198,0.517-1.477,1.174l0.047-0.023
			c-0.935,0.108-1.452,0.704-1.788,1.51l0.171,0.216l-0.156-0.228c-1.008,0.247-1.78,0.777-2.087,1.827l0.027-0.015
			c-0.428-0.052-0.687,0.123-0.751,0.553l0.018-0.01c-0.446-0.064-0.67,0.143-0.737,0.567l0.009-0.015
			c-1.29,0.625-2.488,1.359-3.129,2.734l0.01-0.005c-0.467-0.126-0.691,0.104-0.742,0.547l0.01-0.009
			c-0.444-0.083-0.688,0.115-0.742,0.547l0.011-0.004c-1.568,0.739-2.998,1.663-3.959,3.163l0.068-0.019
			c-0.51-0.061-0.843,0.158-1.018,0.631c-0.236,0.007-0.37,0.12-0.421,0.346c-0.432,0.081-0.735,0.29-0.772,0.764l0.033-0.021
			c-0.445-0.068-0.732,0.063-0.747,0.558l0,0c-1.506,0.527-2.754,1.424-3.719,2.703l0.037-0.021
			c-0.263,0.176-0.525,0.351-0.783,0.528l0.036-0.024c-1.945,1.258-3.861,2.549-5.355,4.357l0.019-0.014
			c-0.444-0.078-0.684,0.131-0.789,0.53l0.037-0.016c-1.534,0.496-2.662,1.557-3.736,2.696l0.027-0.017
			c-0.424-0.044-0.677,0.142-0.752,0.568l0.018-0.018c-2.98,1.608-5.699,3.581-8.207,5.849l0.014-0.016
			c-1.206,0.428-2.272,1.031-3,2.118l0.026-0.01c-0.466-0.136-0.734,0.147-0.954,0.482c-0.244,0.204-0.475,0.412-0.715,0.617
			c-0.476,0.313-0.953,0.627-1.437,0.936l0.042-0.052c-1.109,0.163-1.922,0.753-2.47,1.729l0.018-0.01
			c-0.475-0.092-0.87,0-1.056,0.519l0.024-0.004c-0.421-0.045-0.67,0.146-0.763,0.543l0.02-0.013
			c-0.247,0.184-0.495,0.367-0.742,0.55h0.004c-0.429-0.074-0.674,0.101-0.766,0.518l0.02-0.006c-0.416-0.04-0.66,0.149-0.741,0.55
			h0.004c-0.401-0.055-0.677,0.086-0.778,0.499l0.014-0.016c-1.045,0.083-1.725,0.731-2.332,1.494l0.042-0.026
			c-0.466-0.05-0.766,0.096-0.738,0.625l0.037-0.009c-0.539-0.202-0.806,0.094-0.991,0.534c-10.937,6.5-21.864,12.992-32.792,19.492
			c-0.461-0.081-0.835,0.028-1.037,0.503h0.004c-1.097,0.23-2.083,0.69-2.949,1.4l0.032-0.019c-1.668-0.374-3.355-0.682-5.004-1.142
			c-8.333-2.338-16.647-4.763-25.012-7.025c-1.271-0.343-2.355-1.1-2.678-1.976c-0.428-1.21,1.613-1.079,2.004-2.102l-0.023,0.013
			c0.419,0.07,0.728-0.023,0.793-0.507l-0.028,0.018c0.774,0.148,1.286-0.191,1.636-0.853l-0.101-0.265l0.087,0.274
			c0.595,0.079,0.991-0.188,1.253-0.702l-0.037,0.016c3.489-0.991,6.351-3.147,9.383-5.006l-0.027,0.01
			c0.894,0.017,1.521-0.478,2.079-1.085l-0.028,0.006c1.217-0.372,2.369-0.838,3.143-1.93l-0.06,0.017
			c1.77-0.354,3.24-1.23,4.438-2.563l-0.065,0.033c0.586,0.11,1.046-0.051,1.328-0.604l-0.008,0.006
			c0.415,0.078,0.682-0.083,0.778-0.504l-0.028,0.017c0.411,0.033,0.679-0.128,0.788-0.53l-0.036,0.02
			c1.231-0.023,2.056-0.767,2.834-1.596l0,0c0.411,0.086,0.669-0.067,0.77-0.477v-0.005c0.437,0.091,0.682-0.089,0.774-0.509
			l-0.023,0.016c0.723-0.01,1.313-0.242,1.585-0.982l-0.05,0.02c0.608,0.17,1.018-0.103,1.317-0.607l-0.004,0.004
			c0.419,0.093,0.664-0.092,0.784-0.487l-0.038,0.021c2.103-0.99,4.121-2.097,5.839-3.694l-0.022,0.02
			c0.691-0.193,1.433-0.317,1.521-1.248c0.203-0.126,0.406-0.256,0.605-0.389c0.469,0.204,0.783,0.071,0.935-0.429l-0.028,0.02
			c1.249,0,1.996-0.847,2.77-1.64l0.047-0.028c0.383,0.068,0.618-0.098,0.714-0.471l0.027-0.017c0.946-0.229,1.761-0.65,2.291-1.51
			l-0.008,0.013c0.415,0.05,0.663-0.136,0.76-0.539l-0.022,0.01c1.041-0.092,1.806-0.626,2.346-1.511l-0.061,0.041
			c0.443,0.064,0.71-0.134,0.834-0.543l-0.083,0.049c0.585,0.059,1-0.208,1.272-0.701l-0.009,0.011
			c0.41,0.057,0.659-0.123,0.76-0.524l-0.022,0.016c1.161-0.475,2.314-0.976,3.033-2.102l-0.019,0.015
			c0.401,0.04,0.655-0.138,0.752-0.539h-0.009c0.524,0.077,0.806-0.241,1.034-0.639c0.629-0.451,1.248-0.907,1.874-1.359
			c4.827-2.992,9.495-6.19,13.79-9.908l0.08-0.08c0.539,0.023,0.929-0.188,1.109-0.721l0.032-0.024
			c0.402,0.06,0.599-0.144,0.655-0.521l0.069-0.063c3.781-2.291,7.266-4.975,10.479-8.01l0.064-0.052
			c0.402,0.079,0.605-0.104,0.654-0.488l0.081-0.058c0.381,0.058,0.57-0.111,0.619-0.478l0.141-0.121
			c0.175-0.14,0.354-0.276,0.54-0.41l0.159,0.023l0.047-0.159c0.346,0.102,0.526-0.022,0.495-0.387c0.188,0,0.284-0.097,0.279-0.291
			c1.001-0.391,1.882-0.944,2.456-1.893c13.89-10.556,27.123-21.879,39.608-34.064c0.683-0.059,0.793-0.608,0.945-1.121
			l-0.016,0.023c1.406,0.218,1.817-1.129,2.707-1.715c0.857-0.562,1.287-2.045,2.762-1.322c0.182,5.335,1.703,10.451,2.619,15.663
			C329.353,341.96,329.501,346.275,331.196,350.254z"/>
		<path fill="#B92025" d="M326.991,356.265c1.063-1.91,3.104-2.801,4.53-4.317c0.849-0.283,1.116,0.165,1.25,0.923
			c3.024,17.528,6.062,35.052,9.095,52.572c-0.639,0.51-1.369,0.287-2.086,0.246c0.064-0.446,0.139-0.891,0.199-1.336
			c0.202-0.198,0.401-0.402,0.599-0.6c-0.067-0.069-0.143-0.14-0.211-0.205c-0.135,0.265-0.258,0.537-0.396,0.795
			c-0.95-0.181-1.324-0.816-1.669-1.699c-1.194-3.068-0.46-6.37-1.408-9.485c-1.331-4.362-2.104-8.904-2.934-13.348
			c-0.696-3.695-0.638-7.453-2.02-11.151c-0.64-1.723-1.088-4.012-0.746-6.19C331.888,358.022,331.542,357.633,326.991,356.265z"/>
		<path fill="#F04F4F" d="M273.134,159.89c1.651-1.194,2.263-3.13,3.352-4.715c0.326-0.594,0.64-1.193,0.953-1.789
			c1.01-0.472,0.831-1.548,1.193-2.355c0.366-0.198,0.988-0.337,1.048-0.604c1.014-4.526,5.165-7.181,6.779-11.373
			c0.352-0.938,1.029-2.385,2.59-1.851c1.332,0.452,2.479,1.129,2.789,2.793c1.452,7.906,3.264,15.748,4.106,23.759
			c-9.159,7.323-18.979,13.715-28.419,20.643c-4.755,3.488-9.442,7.082-14.521,10.104c1.706-5.611,5.725-9.888,8.536-14.86
			c2.037-3.595,4.709-6.83,6.157-10.767c0.244-0.222,0.484-0.442,0.731-0.659c0.052-0.166,0.084-0.339,0.12-0.502
			c1.991-2.336,3.637-4.869,4.572-7.823L273.134,159.89z"/>
		<path fill="#F8AEB0" stroke="#272727" stroke-width="2" stroke-miterlimit="10" d="M160.133,343.15
			c0.202,0.035,0.401,0.025,0.603-0.034c4.144-1.121,7.591-3.674,11.269-5.69c39.943-21.953,77.012-48.062,111.578-77.733
			c6.755-5.8,13.766-11.341,19.827-17.914c2.132-1.272,3.649-3.126,4.899-5.226c0.676,0.047,1.346,0.088,2.02,0.136
			c1.532,3.457,1.515,7.242,2.267,10.865c0.937,4.484,1.566,9.038,2.516,13.523c0.613,2.871,0.263,5.211-2.314,6.958
			c-0.502,0.338-0.777,0.991-1.157,1.5l0.032,0.058c-1.849,0.973-3.202,2.462-4.391,4.134l0.031-0.033
			c-1.102,0.431-1.895,1.181-2.374,2.258c0,0,0.037-0.029,0.032-0.029c-1.345,0.596-2.263,1.661-3.046,2.864l0.011-0.016
			c-1.438,0.749-2.623,1.764-3.373,3.235l0.069-0.044c-0.687,0.145-1.166,0.558-1.491,1.174l0.042-0.032
			c-0.202,0.166-0.4,0.338-0.604,0.506c-0.317,0.284-0.631,0.574-0.944,0.864c-0.24,0.23-0.485,0.451-0.725,0.683
			c-11.301,9.942-22.662,19.817-34.444,29.206c-23.768,18.958-48.734,36.176-74.764,51.882
			c-12.057,7.285-24.487,13.928-36.815,20.739c-0.282,0.184-0.554,0.358-0.839,0.542l0.042-0.017
			c-1.452,0.236-2.655,0.941-3.649,2.015l0.004-0.002c-1.599,0.248-2.983,0.959-4.193,2.009h0.018
			c-1.604,0.605-2.709,0.368-3.645-1.329c-2.125-3.847-3.466-7.063-0.345-11.572c6.747-9.737,12.679-20.045,18.928-30.127
			c1.064-1.725,2.253-3.311,4.028-4.36l-0.023,0.017C159.979,344.25,160.067,343.717,160.133,343.15z"/>
		<path fill="#B92025" d="M308.314,236.552c-1.25,2.099-2.766,3.955-4.9,5.226c-0.442-9.263-0.271-18.55-1.25-27.793
			c-0.336-3.173-1.701-6.229-1.066-9.505c1.34,0.092,2.212,0.739,2.445,2.111c1.003,5.705,1.987,11.413,2.992,17.121
			c0.23,1.29,0.342,2.556-0.342,3.752c-0.051,0.094-0.103,0.194-0.147,0.288c3.29,1.349,0.565,4.588,2.014,6.422
			C308.77,235.059,308.116,235.783,308.314,236.552z"/>
		<path fill="#F8AEB0" stroke="#272727" stroke-miterlimit="10" d="M322.767,424.983c0.212-0.148,0.43-0.301,0.637-0.45
			c0.819-0.083,1.378-0.503,1.687-1.259c0.231,0.015,0.355-0.092,0.365-0.323c0.483,0.058,0.848-0.069,1.004-0.574l-0.01,0.005
			c0.825-0.247,1.331-0.836,1.711-1.563l-0.018-0.031c0.449,0.078,0.679-0.127,0.713-0.572l-0.004,0.004
			c0.445,0.069,0.649-0.173,0.719-0.585l-0.016,0.015c1.309-0.477,2.176-1.388,2.637-2.687l-0.175-0.092l0.165,0.106
			c1.429-0.539,2.317-1.616,2.947-2.963l-0.033,0.03c0.953-0.511,1.446-1.356,1.727-2.359l-0.017,0.017
			c1.142-0.664,1.657-1.722,1.828-2.983l-0.022,0.033c1.518-1.301,2.373-1.332,2.659,1.007c0.337,2.762,1.056,5.474,1.479,8.226
			c0.467,2.956-1.045,5.049-3.235,6.813c-9.535,7.728-20.375,12.44-32.554,14.046c-2.652,0.353-5.316,0.687-7.981,0.978
			c-1.259,0.141-2.581,0.311-3.457-0.969c1.623-0.87,3.581-1.052,4.991-2.388l0.048-0.022c1.889-0.29,3.59-1.035,5.108-2.176
			c0,0,0.126-0.036,0.12-0.041c2.922-0.941,5.679-2.256,8.204-4.034c0,0,0.092-0.061,0.083-0.061
			c0.381,0.083,0.617-0.058,0.663-0.455l0.061,0.016c0.423,0.086,0.746,0.008,0.793-0.504l-0.038,0.021
			c0.623,0.243,1.01-0.066,1.328-0.55l0.01-0.006c0.428,0.093,0.682-0.055,0.75-0.492l-0.013,0.005
			c1.719-0.445,3.102-1.407,4.342-2.623l0,0C322.426,425.607,322.65,425.373,322.767,424.983z"/>
		<path fill="#F04F4F" d="M148.892,386.992c12.329-6.812,24.753-13.449,36.815-20.738c26.026-15.71,50.992-32.926,74.764-51.883
			c11.783-9.386,23.144-19.263,34.439-29.205c0.53,0.077,0.617-0.313,0.729-0.684c0.317-0.29,0.631-0.58,0.943-0.86
			c0.204-0.172,0.402-0.343,0.604-0.51l-0.041,0.033c0.856,0.062,1.358-0.316,1.488-1.174l-0.067,0.043
			c0.238,0.052,0.482,0.11,0.722,0.165c-1.668,10.937-4.114,21.725-6.796,32.422c-4.131,16.504-10.54,32.117-20.787,45.908
			c-4.121,5.55-9.438,9.904-14.655,14.342c-3.398,2.033-6.798,4.061-10.185,6.093c-2.779,0.148-4.996,1.864-7.531,2.72
			c-9.795,3.314-19.969,3.691-30.146,4.23c-11.978,0.637-23.966,0.95-35.949,0.857c-6.412-0.05-12.854-0.011-19.242-0.857
			c-1.687-0.226-3.415-0.149-5.129-0.217C148.863,387.449,148.877,387.227,148.892,386.992z"/>
		<path fill="#F04F4F" d="M302.019,198.759c-1.987-1.141-2.872-0.806-2.13,1.615c0.43,1.369,0.069,2.955,1.209,4.111v-0.005
			c-0.635,3.278,0.737,6.332,1.072,9.506c0.973,9.243,0.807,18.534,1.244,27.793c-6.061,6.578-13.072,12.118-19.822,17.914
			c-34.569,29.673-71.638,55.779-111.583,77.733c-3.682,2.017-7.129,4.571-11.268,5.69c0.387-1.031,0.774-2.059,1.166-3.089h-0.01
			c4.106-5.335,7.241-11.291,10.869-16.935c0.511-0.798,0.525-1.379-0.467-1.736c0.443-0.586,1.48-0.601,1.494-1.584
			c1.76-0.188,1.825-1.786,2.451-2.924l-0.018-0.006c0.24-0.195,0.479-0.388,0.724-0.59c0.05-0.176,0.087-0.352,0.12-0.535
			c1.249-1.176,1.853-2.65,2.037-4.323c0.746-0.29,0.856-1,1.083-1.632c4.488-4.704,7.424-10.408,10.393-16.098l-0.019-0.004
			c0.24-0.189,0.471-0.382,0.706-0.575c0.129-1.065,1.198-1.466,1.646-2.3c0.728-1.415,1.447-2.826,2.175-4.239
			c0.28-3.135,3.346-4.353,4.682-6.869c4.308-8.135,10.157-15.389,13.978-23.837c0.162-0.358,0.848-0.479,1.286-0.708
			c0.737-0.146,1.367-0.416,1.65-1.191h0.009c0.203-0.126,0.41-0.248,0.618-0.368c10.499-6.12,21.173-11.946,31.321-18.661
			c16.648-11.019,32.219-23.385,46.966-36.811c0.377-0.344,0.881-0.563,1.329-0.849c0.276-0.207,0.567-0.419,0.853-0.626
			l-0.125,0.072c0.59-0.109,0.807-0.575,1-1.058l0.048-0.045c0.231-0.185,0.453-0.362,0.678-0.544l-0.057-0.037
			c0.65-0.014,0.812-0.504,0.965-1.004l0.05-0.06c0.244-0.041,0.488-0.074,0.729-0.113c0.415,0.996,0.836,1.989,1.244,2.984
			c-0.086,0.639-0.17,1.277-0.257,1.918L302.019,198.759z"/>
		<path fill="#F8AEB0" stroke="#272727" stroke-miterlimit="10" d="M231.268,224.739c0.42-0.695,0.839-1.396,1.25-2.097
			c2.23-3.373,4.641-6.641,6.654-10.144c2.913-5.095,5.896-10.13,9.472-14.794c1.581-0.89,3.088-1.896,4.359-3.203
			c5.08-3.021,9.771-6.619,14.522-10.106c9.438-6.928,19.26-13.321,28.413-20.635c0.84-0.254,1.665-0.607,2.531-0.111
			c0.146,0.774,0.299,1.548,0.443,2.318c-0.816,0.905-0.396,1.876-0.245,2.89c1.17,7.595,3.143,15.047,3.854,22.719h0.004
			c-0.788,0.344-1.245,0.957-1.489,1.758l-0.087,0.085c-0.406-0.057-0.575,0.167-0.621,0.533l-0.05,0.06
			c-0.544,0.118-0.844,0.479-0.968,1.005l0.059,0.036c-0.221,0.185-0.445,0.36-0.677,0.544l-0.048,0.046
			c-0.551,0.146-0.953,0.431-0.999,1.061l0.128-0.074c-0.503-0.083-0.709,0.239-0.858,0.629c-0.442,0.284-0.943,0.502-1.327,0.847
			c-14.747,13.423-30.326,25.793-46.967,36.81c-10.153,6.717-20.819,12.54-31.321,18.661c-0.208,0.123-0.411,0.244-0.619,0.369
			h-0.003c-0.798-0.102-1.627,1.128-2.313,0.139c-0.48-0.688,0.216-1.4,0.572-2.049c0.433-0.74,0.833-1.506,1.271-2.24
			C221.231,241.442,226.25,233.091,231.268,224.739z"/>
		<path fill="none" stroke="#272727" stroke-width="2" stroke-miterlimit="10" d="M133.194,380.467L288.349,133.2l6.534,5.471
			l49.706,282.828c0,0-24.878,26.105-75.206,21.018C211.1,436.617,142.623,416.753,133.194,380.467z"/>
	</g>
</g>
</svg>
