<?xml version="1.0" encoding="utf-8"?>
<!-- Generator: Adobe Illustrator 15.0.0, SVG Export Plug-In . SVG Version: 6.00 Build 0)  -->
<!DOCTYPE svg PUBLIC "-//W3C//DTD SVG 1.1//EN" "http://www.w3.org/Graphics/SVG/1.1/DTD/svg11.dtd">
<svg version="1.1" id="Layer_1" xmlns="http://www.w3.org/2000/svg" xmlns:xlink="http://www.w3.org/1999/xlink" x="0px" y="0px"
	 width="500px" height="500px" viewBox="0 0 500 500" enable-background="new 0 0 500 500" xml:space="preserve">
<circle fill="#C6E8C4" cx="250" cy="249.061" r="246.688"/>
<g>
	<path fill="#346733" stroke="#272727" stroke-width="2" stroke-miterlimit="10" d="M378.747,282.813
		c-2.661-0.029-5.322-0.222-7.968-0.044c-2.401,0.16-3.401-0.955-3.831-3.094c-1.927-9.613-5.62-18.583-10.025-27.295
		c-7.599-15.063-18.319-27.644-31.309-38.191c-7.615-6.194-16.034-11.348-25.149-15.193c-2.301-0.96-3.805-2.21-4.785-4.855
		c-9.909-26.846-38.367-37.412-62.987-26.563c-11.721,5.154-19.91,14.168-24.199,26.353c-0.872,2.443-2.179,3.853-4.458,4.84
		c-14.521,6.296-27.106,15.396-37.925,26.865c-10.811,11.449-19.076,24.52-24.535,39.387c-1.744,4.79-3.364,9.573-4.442,14.527
		c-0.505,2.306-1.429,3.548-3.93,3.185c-0.635-0.097-1.346-0.111-1.874,0.433c-15.866,0.424-26.378-6.371-32.343-21.012
		c-4.793-11.775-6.162-24.2-6.636-36.731c-0.765-20.083-0.52-40.126,4.343-59.784c2.347-9.451,5.895-18.399,13.365-25.145
		c6.675-6.024,14.772-8.193,23.58-8.338c13.786-0.237,26.99,3.2,40.21,6.469c18.159,4.488,36.219,9.312,54.823,11.816
		c21.791,2.933,43.299,1.292,64.715-3.027c18.137-3.656,35.852-9.072,53.973-12.766c10.462-2.125,21.005-3.739,31.646-1.548
		c6.109,1.254,11.294,4.056,15.936,8.686c9.954,9.89,12.792,22.563,14.679,35.454c3.258,22.135,3.304,44.397,0.267,66.593
		c-1.068,7.921-3.104,15.635-6.933,22.758C397.771,276.279,389.855,281.945,378.747,282.813z"/>
	<path fill="#356733" stroke="#272727" stroke-width="2" stroke-miterlimit="10" d="M321.432,272.118
		c-15.177-3.999-30.37-7.91-45.961-10.075c-22.692-3.16-45.087-1.387-67.283,3.713c-8.41,1.93-16.745,4.175-25.118,6.277
		c-1.644-0.251-1.093-1.211-0.756-2.199c4.626-13.444,12.218-24.925,22.708-34.494c1.384-1.242,2.982-2.278,4.564-3.269
		c1.805-1.127,2.034,0.872,2.523,1.648c3.687,5.91,8.404,10.788,14.131,14.703c14.833,10.154,35.752,10.356,50.737,0.607
		c5.85-3.8,10.666-8.544,14.183-14.566c1.33-2.278,2.561-3.356,5.223-1.227c9.329,7.467,16.424,16.639,21.621,27.324
		c1.301,2.665,2.364,5.455,3.359,8.257C321.707,269.823,322.877,271.001,321.432,272.118z"/>
	<g id="Layer_2">
		<path fill="#044422" d="M373.272,282.429c-2.539-0.014-5.08-0.106-7.604-0.021c-2.289,0.075-3.245-0.457-3.654-1.478
			c-1.839-4.591-5.36-8.871-9.564-13.031c-7.253-7.191-17.48-13.197-29.878-18.233c-7.263-2.957-15.298-5.417-23.995-7.253
			c-2.196-0.458-3.633-1.055-4.567-2.318c-9.455-12.817-36.611-17.862-60.103-12.682c-11.185,2.46-18.998,6.764-23.09,12.581
			c-0.833,1.166-2.08,1.839-4.254,2.311c-13.854,3.006-25.863,7.35-36.187,12.825c-10.316,5.467-18.203,11.707-23.412,18.806
			c-1.664,2.285-3.21,4.57-4.24,6.936c-0.48,1.101-1.364,1.692-3.749,1.52c-0.605-0.045-1.285-0.053-1.788,0.207
			c-15.138,0.201-25.17-3.041-30.861-10.031c-4.574-5.621-5.879-11.553-6.333-17.536c-0.73-9.588-0.496-19.157,4.144-28.542
			c2.24-4.512,5.625-8.784,12.753-12.004c6.37-2.876,14.095-3.911,22.5-3.981c13.154-0.112,25.754,1.529,38.369,3.088
			c17.327,2.143,34.561,4.446,52.312,5.643c20.793,1.4,41.315,0.616,61.751-1.446c17.304-1.745,34.211-4.331,51.5-6.095
			c9.981-1.015,20.044-1.785,30.197-0.739c5.828,0.598,10.775,1.937,15.204,4.147c9.499,4.722,12.207,10.772,14.008,16.927
			c3.108,10.568,3.153,21.196,0.256,31.793c-1.02,3.781-2.96,7.465-6.616,10.865C391.424,279.309,383.872,282.015,373.272,282.429z"
			/>
		<path fill="#044422" stroke="#272727" stroke-width="2" stroke-miterlimit="10" d="M321.432,272.118
			c-15.177-4.001-30.37-7.911-45.961-10.075c-22.692-3.162-45.087-1.388-67.283,3.713c-8.411,1.93-16.746,4.175-25.118,6.277
			c-1.644-0.252-1.093-1.212-0.756-2.199c4.626-13.445,12.217-24.926,22.708-34.495c1.384-1.242,2.982-2.278,4.564-3.268
			c1.805-1.128,2.034,0.872,2.523,1.647c3.687,5.912,8.404,10.79,14.131,14.705c14.833,10.154,35.752,10.355,50.737,0.607
			c5.85-3.8,10.666-8.544,14.183-14.566c1.33-2.279,2.561-3.356,5.223-1.228c9.329,7.466,16.424,16.639,21.621,27.324
			c1.301,2.665,2.364,5.455,3.359,8.257C321.707,269.823,322.877,271.001,321.432,272.118z"/>
	</g>
	<g id="Layer_3">
		<path fill="#62A861" stroke="#272727" stroke-width="2" stroke-miterlimit="10" d="M378.747,282.813
			c-2.685,1.035-5.467,0.551-8.205,0.457c-2.24-0.076-2.553,0.661-2.202,2.714c4.428,25.913,1.041,50.712-10.933,74.202
			c-8.235,16.146-19.604,29.754-34.069,40.627c-24.416,18.345-52.063,25.919-82.363,23.422c-16.408-1.35-31.914-6.201-46.251-14.379
			c-25.124-14.315-43.23-34.77-53.422-61.948c-7.401-19.688-9.221-39.991-5.879-60.747c0.588-3.7,0.673-3.688-4.068-3.994
			c0.527-0.555,1.225-0.539,1.865-0.437c2.5,0.367,3.434-0.883,3.93-3.184c1.079-4.956,2.699-9.738,4.442-14.527
			c5.459-14.868,13.732-27.939,24.536-39.389c10.828-11.477,23.405-20.568,37.924-26.864c2.279-0.986,3.594-2.397,4.458-4.839
			c4.29-12.185,12.479-21.199,24.2-26.353c24.628-10.849,53.077-0.283,62.995,26.563c0.979,2.646,2.477,3.892,4.785,4.855
			c9.106,3.838,17.526,8.999,25.148,15.192c12.991,10.548,23.702,23.129,31.311,38.192c4.404,8.714,8.082,17.681,10.016,27.296
			c0.43,2.137,1.429,3.252,3.838,3.092C373.426,282.597,376.094,282.783,378.747,282.813z M183.062,272.033
			c-3.195,2.481-2.89,6.281-3.401,9.648c-4.565,30.279,3.915,56.278,27.669,75.788c22.534,18.486,48.301,21.752,74.74,9.335
			c34.506-16.214,50.34-54.657,41.15-91.676c-0.291-1.188-0.62-2.348-1.789-3.017c1.444-1.111,0.275-2.293-0.076-3.283
			c-0.994-2.81-2.058-5.602-3.355-8.258c-5.201-10.681-12.303-19.849-21.624-27.319c-2.66-2.141-3.891-1.063-5.221,1.224
			c-3.518,6.021-8.335,10.765-14.185,14.565c-14.984,9.742-35.904,9.547-50.738-0.604c-5.734-3.919-10.445-8.797-14.129-14.707
			c-0.49-0.777-0.719-2.776-2.523-1.648c-1.591,0.99-3.181,2.026-4.565,3.269c-10.491,9.561-18.083,21.049-22.709,34.496
			C181.97,270.824,181.419,271.781,183.062,272.033z"/>
	</g>
	<g id="Layer_5">
		<path fill="#468445" d="M359.961,335.613c0,49.199-47.709,89.084-106.563,89.084c-58.854,0-106.564-39.885-106.564-89.084
			s-12.007,59.77,105.209,58.441C369.258,392.728,359.961,286.414,359.961,335.613z"/>
	</g>
	<g id="Layer_4">
		<path fill="none" stroke="#272727" stroke-width="2" stroke-miterlimit="10" d="M378.747,283.045
			c-2.685,1.033-5.467,0.551-8.205,0.456c-2.24-0.076-2.553,0.663-2.202,2.714c4.428,25.912,1.041,50.713-10.933,74.203
			c-8.235,16.147-19.604,29.752-34.069,40.626c-24.416,18.346-52.063,25.92-82.363,23.423c-16.409-1.351-31.914-6.203-46.25-14.379
			c-25.125-14.317-43.231-34.77-53.422-61.949c-7.402-19.687-9.221-39.989-5.88-60.747c0.588-3.7,0.673-3.688-4.067-3.994
			c0.528-0.555,1.225-0.539,1.865-0.437c2.5,0.368,3.434-0.882,3.93-3.185c1.078-4.955,2.699-9.735,4.441-14.526
			c5.46-14.868,13.733-27.939,24.537-39.389c10.828-11.477,23.405-20.568,37.925-26.864c2.279-0.986,3.593-2.397,4.458-4.839
			c4.289-12.185,12.478-21.199,24.199-26.353c24.627-10.849,53.077-0.283,62.995,26.562c0.979,2.646,2.477,3.892,4.785,4.855
			c9.108,3.838,17.526,9,25.148,15.193c12.991,10.548,23.703,23.128,31.312,38.191c4.404,8.714,8.082,17.682,10.016,27.296
			c0.429,2.137,1.43,3.253,3.838,3.093C373.426,282.828,376.094,283.015,378.747,283.045z M183.062,272.266
			c-3.195,2.48-2.89,6.281-3.401,9.646c-4.565,30.28,3.915,56.28,27.669,75.789c22.534,18.486,48.301,21.753,74.74,9.335
			c34.506-16.213,50.34-54.656,41.15-91.674c-0.291-1.189-0.62-2.348-1.789-3.017c1.444-1.113,0.275-2.296-0.076-3.285
			c-0.994-2.809-2.058-5.6-3.355-8.258c-5.201-10.681-12.303-19.849-21.624-27.318c-2.66-2.142-3.891-1.063-5.221,1.223
			c-3.518,6.021-8.335,10.765-14.185,14.565c-14.984,9.741-35.904,9.547-50.738-0.604c-5.734-3.92-10.445-8.797-14.129-14.708
			c-0.49-0.777-0.719-2.776-2.523-1.648c-1.591,0.99-3.181,2.026-4.565,3.269c-10.492,9.562-18.083,21.05-22.709,34.495
			C181.97,271.056,181.419,272.015,183.062,272.266z"/>
	</g>
</g>
</svg>
