<?xml version="1.0" encoding="utf-8"?>
<!-- Generator: Adobe Illustrator 16.0.0, SVG Export Plug-In . SVG Version: 6.00 Build 0)  -->
<!DOCTYPE svg PUBLIC "-//W3C//DTD SVG 1.1//EN" "http://www.w3.org/Graphics/SVG/1.1/DTD/svg11.dtd">
<svg version="1.1" id="Layer_1" xmlns="http://www.w3.org/2000/svg" xmlns:xlink="http://www.w3.org/1999/xlink" x="0px" y="0px"
	 width="866.461px" height="728px" viewBox="0 0 866.461 728" enable-background="new 0 0 866.461 728" xml:space="preserve">
<path fill="#331501" d="M428.154,700.38c-83.37,0.949-166.815,0.739-249.907-6.882c-36.48-3.345-72.963-8.48-108.853-15.707
	c-19.609-3.959-32.831-17.57-36.074-39.834c-20.873-143.112-19.65-286.844-12.728-430.723c1.684-34.98,4.099-69.968,11.176-104.445
	c7.606-37.031,15.27-44.991,52.46-51.241c52.238-8.794,104.604-15.397,157.729-17.704c161.992-7.011,323.745-8.286,485.007,11.868
	c18.159,2.271,36.082,6.467,54.063,10.03c24.231,4.79,35.026,19.881,39.752,44.21c14.767,75.985,14.638,152.925,15.681,229.581
	c1.276,93.82,1.047,187.791-12.035,281.131c-7.856,56.038-15.207,64.111-70.756,72.588c-71.238,10.87-142.892,16.611-214.947,17.08
	C501.866,700.57,465.008,700.38,428.154,700.38z M422.637,668.21c76.229,0.188,152.498,0.473,228.524-6.366
	c33.89-3.056,67.729-6.936,101.481-11.252c25.481-3.256,37.416-15.2,40.625-44.217c13.207-119.002,10.854-238.183,9.056-357.381
	c-0.701-46.327-5.158-92.586-12.84-138.457c-4.045-24.165-15.949-24.672-40.836-29.62c-4.73,0.807-8.269-0.442-12.445-1.291
	c-66.226-13.407-133.709-14.101-200.705-16.327c-147.671-4.898-295.312-3.167-441.932,19.435
	c-16.521,2.546-27.286,7.785-29.733,26.528c-22.659,173.031-19.646,345.934,1.26,518.828c1.38,11.381,11.75,16.661,18.846,17.971
	c30.338,3.133,59.171,10.156,89.437,12.898C256.418,666.479,339.417,668.683,422.637,668.21z"/>
<path fill="#F7D117" d="M422.637,668.21c-83.22,0.473-166.218-1.73-249.264-9.251c-30.265-2.742-59.116-12.174-89.437-12.897
	c-10.206-7.562-17.466-6.591-18.846-17.972c-20.905-172.896-23.918-345.797-1.26-518.828c2.447-18.743,13.212-23.98,29.733-26.528
	C240.186,60.132,387.827,58.401,535.497,63.3c66.996,2.227,134.479,2.919,200.705,16.327c4.179,0.849,7.716,2.098,12.445,1.291
	c26.849,5.992,36.791,5.456,40.836,29.62c7.682,45.871,12.139,92.13,12.84,138.457c1.799,119.199,4.151,238.38-9.055,357.382
	c-3.209,29.016-15.144,40.96-40.625,44.216c-33.753,4.316-67.595,8.196-101.482,11.252
	C575.135,668.683,498.866,668.397,422.637,668.21z M663.385,367.367c0.435,0,0.875,0,1.312,0c0-14.035,0.485-28.081-0.093-42.081
	c-1.95-47.396-26.407-70.069-73.42-68.786c-19.211,0.522-38.469,1.574-57.639,0.739c-12.8-0.557-27.545-0.753-37.589-7.146
	c-9.118-5.807,2.507-18.932,0.828-29.369c-2.328-14.474-1.771-29.178-4.539-43.87c-7.565-40.097-40.83-54.816-72.094-28.088
	c-67.199,57.471-133.375,116.183-198.782,175.677c-29.62,26.941-28.739,59.296-0.08,87.376
	c19.299,18.919,41.899,34.816,60.792,53.54c44.834,44.438,94.677,82.973,140.738,125.843c13.78,12.832,30.435,15.899,48.506,8.869
	c16.509-6.42,24.869-18.75,26.002-35.958c1.494-22.583,3.356-45.207,3.33-67.817c-0.012-17.8,8.812-24.53,24.361-21.464
	c22.721,4.479,45.452,2.151,68.116,2.308c40.248,0.267,63.942-19.963,69.849-59.944
	C665.387,400.922,663.385,383.998,663.385,367.367z"/>
<path fill="#331501" d="M663.385,367.367c0,16.631,2.002,33.555-0.399,49.825c-5.904,39.982-29.601,60.212-69.849,59.945
	c-22.664-0.154-45.396,2.173-68.117-2.308c-15.551-3.066-24.373,3.664-24.36,21.464c0.026,22.61-1.836,45.234-3.33,67.817
	c-1.133,17.208-9.493,29.538-26.002,35.958c-18.071,7.031-34.726,3.963-48.506-8.869c-46.063-42.87-95.904-81.402-140.738-125.843
	c-18.893-18.724-41.493-34.621-60.792-53.541c-28.659-28.079-29.54-60.435,0.08-87.375
	c65.408-59.495,131.583-118.206,198.782-175.677c31.265-26.729,64.526-12.009,72.094,28.088c2.771,14.691,1.212,29.396,3.539,43.87
	c-2.056,17.777,0.944,20.777,0.173,29.369c10.043,6.394,24.788,6.59,37.588,7.146c19.17,0.834,38.428-0.217,57.639-0.739
	c47.013-1.283,71.47,21.39,73.42,68.786c0.578,14,0.093,28.046,0.093,42.081C664.26,367.367,663.818,367.367,663.385,367.367z
	 M549.34,442.111c14.034,0,28.067,0.212,42.094-0.04c28.728-0.518,36.99-8.763,37.603-37.83c0.535-25.429,0.955-50.859,0.849-76.286
	c-0.129-30.396-8.834-38.924-38.698-39.67c-32.296-0.807-64.609-1.391-96.884-2.863c-17.344-0.786-27.229-11.016-28.474-28.331
	c-1.562-21.81-2.633-43.658-3.366-65.517c-0.256-7.676,2.959-16.481-5.808-20.953c-8.731-4.459-14.989,2.407-20.75,7.455
	c-61.889,54.301-123.854,108.512-185.287,163.316c-23.987,21.402-23.417,32.062,0.454,53.254
	c57.002,50.601,113.771,101.479,171.558,151.174c10.377,8.924,19.862,28.568,35.789,20.533c13.442-6.784,6.508-25.724,6.446-39.201
	C464.52,443.354,457.977,440.606,549.34,442.111z"/>
<path fill="#FAF6F2" d="M549.34,442.111c-91.363-1.505-84.82,1.243-84.476,85.04c0.062,13.479,6.996,32.417-6.446,39.201
	c-15.927,8.035-25.412-11.609-35.789-20.533c-57.787-49.691-114.556-100.573-171.559-151.175
	c-23.87-21.191-24.44-31.853-0.453-53.253c61.433-54.805,123.397-109.016,185.287-163.317c5.761-5.047,12.019-11.913,20.75-7.454
	c8.767,4.471,5.551,13.276,5.808,20.953c0.733,21.858,1.808,43.708,3.366,65.517c1.244,17.315,11.13,27.545,28.474,28.331
	c32.272,1.474,64.588,2.058,96.884,2.863c29.864,0.746,38.569,9.274,38.698,39.67c0.106,25.427-0.313,50.858-0.849,76.286
	c-0.61,29.067-8.875,37.313-37.603,37.83C577.407,442.323,563.374,442.111,549.34,442.111z"/>
</svg>
