<?xml version="1.0" encoding="utf-8"?>
<!-- Generator: Adobe Illustrator 15.0.0, SVG Export Plug-In . SVG Version: 6.00 Build 0)  -->
<!DOCTYPE svg PUBLIC "-//W3C//DTD SVG 1.1//EN" "http://www.w3.org/Graphics/SVG/1.1/DTD/svg11.dtd">
<svg version="1.1" id="Layer_1" xmlns="http://www.w3.org/2000/svg" xmlns:xlink="http://www.w3.org/1999/xlink" x="0px" y="0px"
	 width="500px" height="500px" viewBox="0 0 500 500" enable-background="new 0 0 500 500" xml:space="preserve">
<g id="crown">
	<g>
		<path fill="#272727" d="M337.199,363.733c-25.119,2.664-51.822,3.339-78.546,3.353c-31.809,0.018-63.569-1.172-95.234-4.185
			c-20.428-1.94-40.692-5.187-60.413-11.1c-5.329-1.586-10.618-3.462-15.243-6.725c-6.193-4.362-6.517-8.247-1.281-13.783
			c2.625-2.781,5.859-4.604,9.33-6.048c5.879-2.462,8.614-6.964,9.492-13.184c1.575-11.159-0.705-21.311-6.179-31.12
			c-17.144-30.759-38.341-58.671-60.088-86.209c-1.899-2.41-3.898-4.752-5.639-7.271c-1.133-1.627-4.271-3.001-1.682-5.568
			c2.337-2.326,5.095-2.493,7.965-0.534c3.958,2.71,7.942,5.404,12.059,7.857c10.558,6.293,21.521,11.656,33.835,13.635
			c15.329,2.458,27.062-6.616,33.153-16.265c3.82-6.047,6.231-12.656,7.149-19.743c0.347-2.697,1.268-4.517,4.066-5.139
			c2.884-0.639,4.326,0.949,5.785,3.125c9.02,13.448,20.657,23.651,36.446,28.398c14.576,4.386,27.662,1.479,39.069-8.575
			c16.596-14.63,28.28-32.873,38.148-52.409c1.32-2.61,2.611-5.245,3.73-7.946c1.147-2.77,3.246-3.656,6.029-3.669
			c2.791-0.007,2.909,2.215,3.543,4.068c5.894,17.137,13.458,33.372,25.897,46.879c11.009,11.957,24.284,19.561,40.958,17.937
			c22.547-2.209,38.907-14.041,49.126-34.303c0.469-0.951,0.805-1.984,1.381-2.866c1.473-2.233,3.729-2.388,6.05-1.907
			c2.274,0.478,2.074,2.399,2.191,4.137c0.672,9.599,1.994,19.073,5.261,28.205c6.151,17.232,17.305,23.111,35.008,18.451
			c13.915-3.656,25.743-11.295,37.321-19.409c0.767-0.538,1.471-1.18,2.277-1.613c2.133-1.14,4.588-1.682,6.347,0.134
			c2.012,2.075-0.438,3.612-1.559,5.027c-18.962,23.974-36.624,48.881-52.96,74.708c-6.94,10.975-12.377,22.638-13.572,35.918
			c-0.725,8.098,0.992,15.596,4.166,22.925c0.7,1.604,2.015,1.91,3.443,2.346c5.374,1.64,10.578,3.632,15.09,7.133
			c7.359,5.711,7.253,12.518-0.739,17.205c-10.814,6.347-22.908,9.239-35.041,11.729c-12.402,2.544-24.992,3.688-37.596,4.815
			C350.073,362.654,344.419,363.566,337.199,363.733z M453.694,197.842c-7.571,3.636-15.036,7.374-23.078,9.749
			c-20.523,6.044-36.017-0.992-44.39-20.337c-2.674-6.182-4.248-12.731-5.388-19.231c-1.224-0.136-1.527,0.591-1.9,1.069
			c-7.658,9.758-17.278,17.032-28.604,21.937c-16.73,7.25-33.499,8.257-50.097-0.559c-15.172-8.064-25.479-20.781-33.84-35.371
			c-3.578-6.262-6.441-12.876-9.312-19.585c-0.519,0.396-0.807,0.507-0.92,0.72c-0.634,1.168-1.212,2.37-1.831,3.55
			c-9.714,18.568-20.829,36.062-37.458,49.397c-17.637,14.138-36.738,16.462-57.31,7.182c-10.533-4.747-19.158-11.978-26.846-20.817
			c-1.502,3.296-2.732,6.512-4.373,9.507c-6.426,11.705-14.75,21.486-28.522,24.408c-8.782,1.869-17.546,0.239-26.085-2.203
			c-6.742-1.927-13.182-4.691-20.459-8.309c2.466,3.273,4.188,5.601,5.954,7.892c17.102,22.226,32.875,45.361,47.618,69.211
			c9.014,14.563,9.77,29.855,4.923,45.775c-0.629,2.057-0.202,2.81,1.471,3.68c5.015,2.62,10.463,3.842,15.935,4.846
			c8.943,1.639,18.015,2.188,27.067,2.803c1.103,0.075,2.7-0.351,3.093,1.18c0.429,1.63-1.117,2.233-2.159,3.001
			c-0.887,0.657-1.872,0.976-2.997,0.951c-15.393-0.355-30.85-1.146-45.076-7.476c-6.423-2.853-10.611-0.481-15.188,2.703
			c-2.303,1.604-2.325,3.626-0.122,5.655c2.502,2.301,5.436,3.904,8.548,5.03c21.117,7.7,43.204,10.458,65.419,12.396
			c19.286,1.675,38.606,2.863,57.962,3.584c34.616,1.271,69.201,0.299,103.756-1.515c13.379-0.707,26.813-1.897,40.125-4.016
			c14.089-2.235,28.119-4.656,41.887-8.391c4.387-1.192,8.646-2.814,12.337-5.543c2.354-1.751,3.353-3.914,0.654-6.291
			c-4.769-4.187-10.768-5.711-16.612-7.512c-0.624-0.196-1.568,0.268-2.223,0.65c-4.277,2.507-9.082,2.992-13.834,3.646
			c-1.946,0.262-3.955,0.144-4.37-2.28c-0.411-2.382,1.411-3.311,3.302-3.784c2.321-0.591,4.698-0.98,7.071-1.372
			c3.53-0.579,4.345-2.307,2.946-5.644c-2.929-7.032-3.759-14.41-2.989-21.989c1.333-13.059,6.725-24.624,13.428-35.614
			C424.335,238.986,438.807,218.336,453.694,197.842z"/>
		<g>
			<path fill="#FEDC49" stroke="#282828" stroke-width="0.75" stroke-miterlimit="10" d="M463.657,190.723
				c-15.604,21.495-30.785,43.137-44.552,65.728c-7.019,11.528-12.673,23.649-14.066,37.349c-0.808,7.945,0.049,15.673,3.131,23.048
				c1.459,3.502,0.613,5.312-3.094,5.921c-2.485,0.405-4.971,0.818-7.41,1.432c-1.984,0.498-3.893,1.479-3.467,3.975
				c0.438,2.541,2.555,2.674,4.588,2.396c4.974-0.688,10.017-1.196,14.498-3.826c0.692-0.407,1.688-0.886,2.339-0.688
				c6.124,1.892,12.421,3.491,17.415,7.879c2.823,2.489,1.781,4.764-0.688,6.595c-3.869,2.867-8.327,4.564-12.938,5.814
				c-14.438,3.916-29.143,6.458-43.914,8.801c-13.964,2.219-28.043,3.476-42.083,4.213c-36.229,1.899-72.495,2.919-108.79,1.585
				c-20.291-0.746-40.546-2-60.767-3.76c-23.302-2.027-46.449-4.917-68.599-12.988c-3.255-1.188-6.331-2.86-8.961-5.278
				c-2.314-2.128-2.292-4.252,0.133-5.934c4.794-3.337,9.186-5.824,15.92-2.828c14.92,6.628,31.128,7.463,47.269,7.828
				c1.174,0.03,2.218-0.309,3.139-0.987c1.09-0.814,2.712-1.439,2.269-3.149c-0.424-1.603-2.086-1.165-3.245-1.241
				c-9.498-0.644-19.005-1.22-28.385-2.939c-5.742-1.056-11.45-2.334-16.709-5.079c-1.744-0.916-2.197-1.699-1.541-3.856
				c5.088-16.689,4.282-32.731-5.158-48.003c-15.467-25.01-32.006-49.26-49.935-72.567c-1.852-2.399-3.659-4.839-6.245-8.274
				c7.631,3.792,14.383,6.691,21.452,8.714c8.955,2.559,18.14,4.266,27.357,2.308c14.446-3.066,23.167-13.318,29.905-25.594
				c1.723-3.139,3.016-6.508,4.588-9.969c8.052,9.27,17.101,16.851,28.145,21.83c21.57,9.729,41.604,7.295,60.091-7.534
				c17.434-13.971,29.098-32.32,39.268-51.791c0.652-1.235,1.263-2.494,1.929-3.72c0.118-0.22,0.423-0.341,0.964-0.756
				c3.005,7.03,6.008,13.971,9.765,20.538c8.773,15.297,19.584,28.637,35.487,37.087c17.394,9.243,34.979,8.187,52.528,0.586
				c11.882-5.145,21.964-12.765,29.994-23.004c0.387-0.501,0.707-1.259,1.992-1.12c1.204,6.82,2.844,13.68,5.646,20.166
				c8.773,20.283,25.021,27.659,46.543,21.325C447.896,198.458,455.712,194.536,463.657,190.723z M251.521,323.064
				c2.826-0.133,4.851-1.185,6.611-2.961c14.823-14.877,29.635-29.748,44.559-44.52c2.016-1.999,1.869-3.205-0.047-5.104
				c-14.514-14.366-28.93-28.827-43.401-43.24c-3.692-3.674-6.626-3.721-10.377,0.03c-14.862,14.825-29.638,29.732-44.524,44.541
				c-1.975,1.966-2.332,3.306-0.146,5.475c14.755,14.583,29.384,29.266,44.029,43.945
				C249.26,322.27,250.341,323.045,251.521,323.064z M338.758,299.862c2.135-0.242,4.011-1.07,5.552-2.62
				c7.305-7.332,14.555-14.7,21.94-21.938c1.808-1.778,1.901-2.873,0.015-4.703c-6.94-6.728-13.666-13.645-20.518-20.441
				c-3.133-3.113-6.378-3.237-9.519-0.156c-7.494,7.358-14.828,14.865-22.31,22.237c-1.592,1.574-1.963,2.753-0.214,4.484
				c7.292,7.162,14.49,14.414,21.73,21.623C336.33,299.239,337.304,300.063,338.758,299.862z M169.104,247.76
				c-3.338,0.276-5.213,1.024-6.78,2.601c-7.3,7.335-14.594,14.686-21.978,21.941c-1.82,1.796-1.732,3.021,0.085,4.794
				c6.828,6.645,13.519,13.417,20.259,20.159c3.452,3.46,6.519,3.648,10.109,0.141c7.417-7.244,14.647-14.666,22.032-21.938
				c1.832-1.799,1.727-3.039-0.112-4.832c-7.02-6.833-13.901-13.814-20.818-20.753C170.787,248.755,169.689,247.678,169.104,247.76z
				"/>
			<g>
				<path fill="#EEA420" stroke="#282828" stroke-miterlimit="10" d="M251.521,323.064c-1.181-0.019-2.255-0.794-3.294-1.836
					c-14.646-14.676-29.274-29.362-44.03-43.944c-2.19-2.171-1.828-3.514,0.147-5.479c14.88-14.808,29.661-29.716,44.523-44.538
					c3.752-3.753,6.684-3.709,10.378-0.032c14.47,14.414,28.886,28.872,43.401,43.24c1.915,1.901,2.06,3.109,0.039,5.105
					c-14.913,14.773-29.725,29.641-44.551,44.518C256.372,321.881,254.343,322.931,251.521,323.064z M225.423,275.523
					c1.024-0.738,2.093-1.237,2.772-2.048c2.758-3.327,5.447-6.718,8.064-10.15c4.952-6.518,11.726-11.392,16.35-18.208
					c0.465-0.691,1.267-1.184,0.699-2.119c-0.592-0.967-1.563-1.076-2.584-0.92c-1.208,0.181-1.971,1.074-2.649,1.926
					c-3.48,4.354-7.579,8.132-10.919,12.669c-3.873,5.267-8.704,9.842-13.105,14.725c-0.634,0.704-1.571,1.4-0.532,2.447
					C224.084,274.422,224.72,274.914,225.423,275.523z"/>
				<path fill="#EEA420" stroke="#282828" stroke-miterlimit="10" d="M338.758,299.862c-1.454,0.206-2.428-0.619-3.321-1.519
					c-7.241-7.204-14.437-14.456-21.729-21.621c-1.753-1.726-1.379-2.908,0.213-4.482c7.476-7.371,14.816-14.883,22.311-22.238
					c3.136-3.083,6.374-2.957,9.519,0.158c6.853,6.794,13.578,13.712,20.511,20.441c1.89,1.825,1.799,2.923-0.009,4.702
					c-7.391,7.238-14.642,14.61-21.945,21.938C342.769,298.792,340.889,299.617,338.758,299.862z M344.75,273.215
					c0.71-4.108-1.834-8.126-2.207-12.565c-0.305-3.622-3.286-4.118-5.881-1.533c-3.948,3.942-7.889,7.9-11.874,11.812
					c-1.358,1.341-1.851,2.325-0.116,3.979c4.953,4.722,9.67,9.691,14.54,14.504c0.555,0.551,1.184,2.104,2.255,0.843
					c0.684-0.806,2.317-1.435,1.589-2.907c-1.046-2.092-0.408-4.36,0.32-5.949C344.56,278.816,344.647,276.29,344.75,273.215z"/>
				<path fill="#EEA420" stroke="#282828" stroke-miterlimit="10" d="M169.104,247.76c0.585-0.083,1.683,0.995,2.797,2.112
					c6.921,6.939,13.803,13.919,20.822,20.753c1.833,1.788,1.939,3.033,0.107,4.832c-7.385,7.276-14.615,14.694-22.032,21.938
					c-3.585,3.508-6.656,3.318-10.109-0.144c-6.74-6.738-13.431-13.512-20.258-20.156c-1.817-1.772-1.905-3.002-0.086-4.796
					c7.384-7.256,14.678-14.604,21.978-21.939C163.892,248.784,165.764,248.038,169.104,247.76z M169.771,280.657
					c2.226-7.205,0.562-14.221-1.401-21.106c-0.558-1.978-2.223-3.847-4.796-0.932c-3.875,4.382-8.076,8.498-12.383,12.471
					c-1.945,1.793-1.396,2.661,0.193,4.184c4.33,4.118,8.467,8.431,12.697,12.657c3.335,3.332,4.826,3.12,7.07-1.16
					c0.576-1.085,0.79-2.36,1.161-3.546c0.05-0.098,0.09-0.195,0.135-0.294c-0.063,0.081-0.117,0.164-0.185,0.244
					c-1.766,0.136-2.42-0.887-2.548-2.455L169.771,280.657z"/>
				<path fill="#F3E243" d="M225.423,275.523c-0.705-0.608-1.341-1.103-1.905-1.676c-1.039-1.05-0.102-1.745,0.533-2.45
					c4.401-4.884,9.231-9.458,13.105-14.725c3.345-4.535,7.439-8.316,10.918-12.67c0.679-0.851,1.441-1.746,2.65-1.926
					c1.02-0.157,1.992-0.05,2.582,0.92c0.563,0.938-0.238,1.428-0.698,2.119c-4.624,6.817-11.397,11.686-16.355,18.209
					c-2.61,3.436-5.306,6.823-8.063,10.15C227.511,274.293,226.449,274.783,225.423,275.523z"/>
				<path fill="#F3E243" d="M344.75,273.215c-0.106,3.08-0.19,5.602-1.376,8.179c-0.728,1.592-1.364,3.854-0.321,5.947
					c0.729,1.476-0.898,2.103-1.583,2.909c-1.077,1.26-1.705-0.293-2.262-0.842c-4.87-4.811-9.587-9.784-14.54-14.507
					c-1.737-1.653-1.242-2.633,0.121-3.979c3.988-3.91,7.921-7.868,11.87-11.81c2.602-2.585,5.577-2.091,5.882,1.529
					C342.916,265.087,345.466,269.106,344.75,273.215z"/>
				<path fill="#F3E243" d="M172.307,283.226c-0.371,1.189-0.581,2.466-1.155,3.549c-2.249,4.276-3.735,4.491-7.07,1.16
					c-4.231-4.225-8.373-8.538-12.697-12.66c-1.594-1.517-2.142-2.387-0.192-4.182c4.3-3.973,8.511-8.088,12.376-12.469
					c2.58-2.917,4.238-1.049,4.803,0.929c1.963,6.889,3.629,13.901,1.4,21.109c-0.129-0.056-0.268-0.105-0.392-0.154
					c0.113,0.068,0.224,0.147,0.332,0.218c0.132,1.565,0.782,2.59,2.554,2.454L172.307,283.226z"/>
			</g>
		</g>
		<path fill="#F3E243" d="M258.309,245.777c0.067-0.083,0.129-0.169,0.185-0.245c-0.047,0.093-0.092,0.189-0.143,0.289
			L258.309,245.777z"/>
		<path fill="#1C1C1A" d="M258.542,245.792c-0.112-0.074-0.229-0.147-0.344-0.22c0.135,0.05,0.271,0.107,0.399,0.152
			L258.542,245.792z"/>
	</g>
</g>
</svg>
