<?xml version="1.0" encoding="utf-8"?>
<!-- Generator: Adobe Illustrator 16.0.0, SVG Export Plug-In . SVG Version: 6.00 Build 0)  -->
<!DOCTYPE svg PUBLIC "-//W3C//DTD SVG 1.1//EN" "http://www.w3.org/Graphics/SVG/1.1/DTD/svg11.dtd">
<svg version="1.1" id="Layer_1" xmlns="http://www.w3.org/2000/svg" xmlns:xlink="http://www.w3.org/1999/xlink" x="0px" y="0px"
	 width="866.461px" height="728px" viewBox="0 0 866.461 728" enable-background="new 0 0 866.461 728" xml:space="preserve">
<path fill="#331501" d="M438.268,701.107c-92.925,0.964-186.009,2.612-278.421-9.725c-26.841-3.583-53.421-9.204-80.056-14.251
	c-20.803-3.941-29.812-17.087-33.269-37.975C26.647,519.07,28.829,398.113,30.179,277.123
	c0.601-53.554,4.486-106.796,11.563-159.866c6.493-48.697,11.998-55.591,59.435-64.573c119.61-22.661,240.706-21.905,361.711-21.775
	c92.055,0.096,183.956,3.046,275.229,16.422c14.467,2.115,29.006,3.906,43.371,6.596c40.164,7.505,45.521,12.016,52.803,53.16
	c13.353,75.423,14.868,151.735,14.689,228.099c-0.232,99.532,0.479,199.04-15.313,297.895
	c-4.455,27.903-18.093,41.489-44.447,46.871c-61.127,12.465-123.063,18.286-185.162,20.71
	C548.874,702.811,493.533,701.107,438.268,701.107z M444.026,669.911c63.164,1.508,140.377,0.043,217.345-6.08
	c39.999-3.188,79.661-10.632,119.469-16.236c14.345-2.023,19.295-10.506,21.379-24.886c6.626-45.855,10.478-91.886,12.54-138.104
	c5.331-119.354,3.335-238.484-8.902-357.454c-3.025-29.438-16.326-39.69-45.476-44.292C659.44,66.932,557.935,63.701,456.198,63.37
	c-114.899-0.381-229.635,0.847-343.648,19.719c-28.596,4.737-35.874,18.886-38.692,42.757
	c-17.053,144.363-13.273,288.933-4.401,433.512c1.603,26.084,6.312,52.032,10.782,77.839c1.208,6.97,3.493,15.305,12.3,17.211
	c32.042-16.491,60.428,6.126,90.466,7.741C265.321,666.602,347.542,669.975,444.026,669.911z"/>
<path fill="#F7D117" d="M444.026,669.911c-96.483,0.063-178.706-3.312-261.022-7.763c-30.038-1.615-56.605-2.981-90.466-7.741
	c-6.807,0.094-11.092-10.241-12.3-17.211c-4.472-25.807-9.181-51.755-10.782-77.839c-8.872-144.579-12.651-289.148,4.4-433.514
	c2.818-23.871,10.098-38.021,38.692-42.757c114.015-18.871,228.75-20.099,343.649-19.718c101.735,0.33,203.242,3.562,304.183,19.487
	c29.147,4.602,42.448,14.854,45.476,44.292c12.237,118.969,14.233,238.1,8.902,357.455c-2.063,46.22-5.914,92.248-12.54,138.104
	c-2.084,14.38-7.034,22.86-21.379,24.886c-39.808,5.604-79.47,13.049-119.469,16.236
	C584.403,669.954,507.19,671.419,444.026,669.911z M518.55,602.503c0,0.026,0,0.047,0,0.079c14.931,0,29.854,0.11,44.783-0.02
	c48.565-0.421,71.217-26.952,67.12-75.465c-2.278-27.022-1.455-54.341-1.336-81.52c0.052-12.134,3.218-22.931,18.978-22.835
	c15.916,0.097,29.354-3.347,34.669-21.423c5.301-18.021-3.261-30.154-14.837-41.942c-64.478-65.68-128.728-131.581-193.25-197.222
	c-28.807-29.302-40.59-29.361-69.311,0.468c-63.83,66.298-127.118,133.126-191.041,199.335
	c-11.347,11.752-18.177,24.359-12.466,40.063c6.324,17.384,20.955,22.521,38.326,20.636c17.203-1.853,23.262,5.529,22.842,22.656
	c-0.873,35.098,0.033,70.239-0.168,105.356c-0.069,12.792,2.554,23.635,12.086,33.346c22.384,22.786,48.651,21.958,75.646,13.042
	c25.281-8.361,32.938-29.96,33.896-53.94c0.789-19.941-1.582-40.021-0.478-59.925c0.418-7.524-4.543-22.477,12.113-20.607
	c12.684,1.411,9.463,12.865,9.629,21.055c0.385,19.286-0.285,38.602,0.189,57.885c0.979,39.689,20.444,59.499,59.934,60.877
	C483.417,603.006,500.994,602.503,518.55,602.503z"/>
<path fill="#331501" d="M518.55,602.503c-17.556,0-35.133,0.503-52.674-0.103c-39.487-1.378-58.953-21.188-59.934-60.877
	c-0.477-19.283,0.193-38.599-0.189-57.885c-0.166-8.188,3.055-19.644-9.629-21.055c-16.656-1.867-11.695,13.082-12.113,20.607
	c-1.104,19.903,1.267,39.981,0.478,59.925c-0.958,23.98-8.614,45.579-33.896,53.94c-26.993,8.916-53.262,9.744-75.646-13.042
	c-9.532-9.711-12.155-20.554-12.086-33.346c0.201-35.117-0.704-70.261,0.168-105.357c0.421-17.127-5.639-24.509-22.842-22.655
	c-17.371,1.888-32.002-3.252-38.326-20.637c-5.711-15.701,1.119-28.313,12.466-40.063
	c63.923-66.209,127.211-133.037,191.041-199.335c28.721-29.829,40.504-29.77,69.311-0.469
	c64.521,65.645,128.771,131.546,193.248,197.227c11.576,11.788,20.138,23.921,14.837,41.942
	c-5.313,18.075-18.753,21.52-34.669,21.423c-15.76-0.096-18.926,10.701-18.978,22.835c-0.119,27.179-0.942,54.495,1.336,81.52
	c4.097,48.513-18.555,75.044-67.12,75.464c-14.93,0.131-29.854,0.021-44.783,0.021C518.55,602.55,518.55,602.53,518.55,602.503z
	 M233.118,390.242c18.783,0,30.281,1.044,41.521-0.238c17.239-1.969,21.741,4.411,21.252,21.514
	c-1.251,43.787,0.104,87.639-0.317,131.453c-0.171,17.745,7.779,25.82,25.016,26.214c17.362,0.399,28.864-5.035,28.979-25.063
	c0.158-26.261,1.341-52.513,1.884-78.781c0.635-30.65,6.419-37.483,32.994-38.349c45.679-1.479,56.059,4.752,57.412,37.222
	c1.063,25.38,1.064,50.887-0.2,76.246c-1.005,20.117,6.113,29.063,26.845,28.547c32.424-0.808,64.891-0.671,97.315-0.007
	c22.731,0.463,30.978-9.873,30.261-32.092c-1.068-33.274-0.063-66.613-0.066-99.933c-0.004-46.625-0.056-46.605,45.638-47.646
	c1.198-0.023,2.361-1.782,4.994-3.896c-65.847-67.726-131.646-135.25-197.188-203.02c-7.158-7.396-11.516-6.908-18.571,0.534
	C366.694,250.684,302.101,318.056,233.118,390.242z"/>
<path fill="#FAF6F2" d="M233.118,390.242c68.98-72.188,133.575-139.56,197.764-207.293c7.058-7.443,11.413-7.933,18.571-0.535
	c65.541,67.77,131.343,135.293,197.188,203.02c-2.633,2.114-3.796,3.873-4.994,3.896c-45.691,1.04-45.642,1.021-45.638,47.646
	c0.006,33.317-1.002,66.656,0.066,99.933c0.717,22.219-7.527,32.555-30.261,32.092c-32.427-0.664-64.894-0.801-97.315,0.007
	c-20.73,0.519-27.85-8.43-26.845-28.547c1.267-25.359,1.264-50.866,0.2-76.246c-1.354-32.47-11.733-38.7-57.412-37.222
	c-26.575,0.863-32.359,7.696-32.994,38.349c-0.543,26.271-1.726,52.521-1.884,78.781c-0.114,20.025-11.616,25.462-28.979,25.063
	c-17.235-0.393-25.187-8.469-25.016-26.214c0.421-43.814-0.934-87.666,0.317-131.453c0.489-17.102-4.013-23.48-21.252-21.514
	C263.4,391.286,251.902,390.242,233.118,390.242z M518.539,506.342c40.074-0.165,45.584-5.327,45.369-42.495
	c-0.209-35.813-4.396-38.842-53.778-38.896c-26.744-0.033-33.421,8.17-33.163,40.701
	C477.24,500.505,483.356,506.482,518.539,506.342z"/>
<path fill="#331501" d="M518.539,506.342c-35.184,0.142-41.299-5.837-41.572-40.688c-0.259-32.531,6.419-40.734,33.163-40.701
	c49.383,0.054,53.569,3.081,53.778,38.896C564.124,501.015,558.614,506.177,518.539,506.342z"/>
</svg>
