<?xml version="1.0" encoding="utf-8"?>
<!-- Generator: Adobe Illustrator 16.0.0, SVG Export Plug-In . SVG Version: 6.00 Build 0)  -->
<!DOCTYPE svg PUBLIC "-//W3C//DTD SVG 1.1//EN" "http://www.w3.org/Graphics/SVG/1.1/DTD/svg11.dtd">
<svg version="1.1" id="Layer_1" xmlns="http://www.w3.org/2000/svg" xmlns:xlink="http://www.w3.org/1999/xlink" x="0px" y="0px"
	 width="866.461px" height="728px" viewBox="0 0 866.461 728" enable-background="new 0 0 866.461 728" xml:space="preserve">
<path fill="#331501" d="M19.279,395.586c-0.957-86.934,0.296-173.759,10.915-260.183c0.218-1.743,0.225-3.516,0.51-5.245
	C42.106,61.281,40.8,64.947,110.239,52.488c86.177-15.473,173.772-18.063,261.374-18.085
	c119.905-0.026,239.896-0.726,358.849,16.605c97.527,14.216,89.922,7.688,100.442,106.068
	c15.237,142.413,13.354,285.385,0.624,428.104c-0.775,8.69-2.674,17.289-3.979,25.935c-9.907,65.642-15.603,69.477-81.82,78.961
	c-75.694,10.846-151.683,12.975-227.887,14.168c-107.862,1.696-215.771,5.565-323.386-4.839
	c-39.188-3.792-78.18-10.036-117.072-16.327c-25.447-4.117-38.218-19.397-41.967-46.169
	C24.208,556.782,20.626,476.281,19.279,395.586z M807.178,354.456c-0.881-56.775,0.763-131.406-9.99-205.447
	c-8.803-60.611-9.012-59.524-69.521-66.589C614.221,69.168,500.43,65.231,386.361,66.84c-96.446,1.357-192.81,3.57-288.163,20.948
	c-18.787,3.428-28.619,9.526-32,30.364c-9.869,60.85-11.04,122.228-13.455,183.436c-3.314,84.145,2.486,168.174,6.907,252.235
	c4.839,92.098,3.428,92.177,87.304,107.515c3.442,0.631,6.951,0.93,10.438,1.303c103.948,11.121,208.249,11.461,312.623,10.716
	c98.162-0.698,196.129-2.897,293.054-20.955c18.159-3.38,29.698-9.718,31.973-30.792
	C803.982,538.663,807.87,455.544,807.178,354.456z"/>
<path fill="#F7D117" d="M807.178,354.456c0.692,101.088-3.194,184.207-12.14,267.151c-2.272,21.074-13.813,27.413-31.973,30.792
	c-96.925,18.058-194.892,20.257-293.054,20.955c-104.374,0.745-208.675,0.405-312.623-10.716c-3.485-0.373-6.994-0.672-10.438-1.303
	C63.076,646,64.488,645.92,59.649,553.823c-4.421-84.063-10.223-168.093-6.907-252.235c2.414-61.208,3.586-122.586,13.455-183.436
	c3.38-20.838,13.213-26.938,32-30.364c95.354-17.378,191.716-19.591,288.164-20.948c114.068-1.608,227.859,2.328,341.305,15.58
	c60.511,7.063,60.72,5.978,69.521,66.589C807.939,223.05,806.297,297.681,807.178,354.456z"/>
<path fill="#FFFFFF" stroke="#331501" stroke-width="30" stroke-miterlimit="10" d="M426.244,577.818
	c-67.662,0-135.324-0.039-202.986,0.039c-10.854,0.012-21.688,0.194-32.031-3.712c-15.354-5.798-26.624-16.225-31.613-31.843
	c-2.723-8.521-3.862-17.886-3.896-26.877c-0.287-77.161-0.177-154.323-0.146-231.485c0.012-25.655,11.656-43.982,35.137-54.397
	c3.944-1.75,8.582-2.642,12.916-2.702c22.161-0.312,44.329-0.399,66.492-0.208c16.171,0.14,24.365-8.821,28.379-21.956
	c4.75-15.551,9.43-31.203,15.598-46.212c3.92-9.539,12.982-13.622,23.452-13.626c44.331-0.019,88.66-0.039,132.99-0.048
	c14.832-0.003,29.664,0.007,44.497,0.045c12.87,0.034,21.976,5.931,26.423,19.466c5.03,15.302,9.974,30.636,15.251,45.853
	c3.509,10.111,12.941,16.4,23.688,16.425c22.831,0.051,45.693-0.628,68.482,0.359c17.913,0.777,31.298,10.563,40.688,25.748
	c6.41,10.366,7.988,21.83,7.982,33.758c-0.044,77.829,0.063,155.658-0.032,233.486c-0.025,21.787-8.487,39.119-27.788,50.537
	c-10.115,5.983-21.189,7.435-32.496,7.453c-70.327,0.118-140.655,0.061-210.983,0.061
	C426.244,577.926,426.244,577.871,426.244,577.818z M561.65,388.614c0.739-75.579-61.117-135.426-134.896-135.558
	c-74.175-0.133-135.839,60.247-135.485,136.121c0.346,73.918,60.873,134.586,135.488,134.455
	C501.357,523.5,562.313,462.74,561.65,388.614z M624.178,280.681c-10.49-0.071-19.685,8.346-19.267,18.365
	c0.379,9.071,7.625,18.813,18.893,18.897c13.082,0.101,18.75-9.737,19.441-18.466C644.063,289.185,634.958,280.753,624.178,280.681z
	"/>
<path fill="#FFFFFF" d="M561.65,388.614c0.662,74.127-60.293,134.887-134.893,135.019c-74.615,0.132-135.145-60.536-135.488-134.455
	c-0.354-75.875,61.312-136.254,135.485-136.121C500.532,253.188,562.391,313.034,561.65,388.614z M507.399,384.363
	c-2.176-47.487-42.902-80.961-88.021-76.946c-41.669,3.706-79.127,39.231-73.143,91.805c2.373,20.842,12.062,38.242,28.351,51.336
	c19.974,16.058,42.688,22.603,68.334,17.303C478.223,460.563,509.838,428.004,507.399,384.363z"/>
<path fill="#FFFFFF" d="M624.178,280.681c10.78,0.073,19.885,8.504,19.067,18.797c-0.691,8.729-6.359,18.566-19.441,18.466
	c-11.268-0.085-18.514-9.827-18.893-18.897C604.493,289.026,613.688,280.61,624.178,280.681z"/>
<path fill="#331501" d="M507.399,384.363c2.438,43.642-29.178,76.198-64.479,83.495c-25.646,5.3-48.36-1.245-68.334-17.303
	c-16.289-13.094-25.978-30.495-28.351-51.337c-5.984-52.571,31.474-88.098,73.143-91.805
	C464.496,303.402,505.225,336.875,507.399,384.363z"/>
</svg>
